<svg xmlns="http://www.w3.org/2000/svg" width="24" height="24" viewBox="0 0 24 24"><g id="レイヤー_2" data-name="レイヤー 2"><g id="DESIGN"><g id="_55" data-name="55"><path d="M24,12A12,12,0,1,1,12,0,12,12,0,0,1,24,12Z" style="fill:#bca475"/><path d="M19.16,11.91a.68.68,0,1,1,.68.68A.68.68,0,0,1,19.16,11.91Z" style="fill:#fff"/><path d="M16.87,11.91a.68.68,0,0,1,1.36,0,.68.68,0,0,1-1.36,0Z" style="fill:#fff"/><path d="M15,11.91a.68.68,0,1,1,.68.68A.68.68,0,0,1,15,11.91Z" style="fill:#fff"/><path d="M13.1,11.91a.68.68,0,1,1,1.36,0,.68.68,0,0,1-1.36,0Z" style="fill:#fff"/><path d="M11.21,11.91a.68.68,0,1,1,.68.68A.67.67,0,0,1,11.21,11.91Z" style="fill:#fff"/><path d="M18.19,10a.68.68,0,0,1,1,.08.68.68,0,1,1-1,.88A.68.68,0,0,1,18.19,10Z" style="fill:#fff"/><path d="M17,8.52a.68.68,0,0,1,1,.08.69.69,0,0,1-.08,1,.68.68,0,0,1-.88-1Z" style="fill:#fff"/><path d="M15.75,7.08a.68.68,0,1,1-.08,1A.68.68,0,0,1,15.75,7.08Z" style="fill:#fff"/><path d="M14.53,5.65a.67.67,0,0,1,1,.07.68.68,0,0,1-.07,1,.67.67,0,0,1-1-.08A.66.66,0,0,1,14.53,5.65Z" style="fill:#fff"/><path d="M15.41,17.11a.69.69,0,0,0-1,.08.68.68,0,1,0,1,.88A.68.68,0,0,0,15.41,17.11Z" style="fill:#fff"/><path d="M16.62,15.69a.68.68,0,1,0,.08,1A.67.67,0,0,0,16.62,15.69Z" style="fill:#fff"/><path d="M17.84,14.25a.68.68,0,1,0-.88,1,.68.68,0,1,0,.88-1Z" style="fill:#fff"/><path d="M19.06,12.81a.68.68,0,0,0-1,.08.68.68,0,0,0,1,.88A.68.68,0,0,0,19.06,12.81Z" style="fill:#fff"/><path d="M9.32,11.91a.68.68,0,1,1,.68.68A.68.68,0,0,1,9.32,11.91Z" style="fill:#fff"/><path d="M7.44,11.91a.68.68,0,1,1,1.36,0,.68.68,0,0,1-1.36,0Z" style="fill:#fff"/><path d="M5.55,11.91a.68.68,0,1,1,.68.68A.68.68,0,0,1,5.55,11.91Z" style="fill:#fff"/><path d="M3.67,11.91a.68.68,0,1,1,1.36,0,.68.68,0,0,1-1.36,0Z" style="fill:#fff"/></g></g></g></svg>