<svg xmlns="http://www.w3.org/2000/svg" width="37.12" height="37.12" viewBox="0 0 37.12 37.12"><title>arrow01r-02</title><g id="f4764a7d-9a76-4715-a841-cecca3843e72" data-name="レイヤー 2"><g id="adba66ca-dbcf-48ed-9a28-500136dbd082" data-name="DESIGN"><g id="af6f4d2a-12a9-4199-b921-51ba3e682eb3" data-name="55"><path d="M37.12,18.56A18.56,18.56,0,1,1,18.56,0,18.56,18.56,0,0,1,37.12,18.56Z"/><path d="M29.64,18.41a1,1,0,1,1,1.05,1.05A1,1,0,0,1,29.64,18.41Z" fill="#fff"/><path d="M26.09,18.41a1.05,1.05,0,1,1,1.05,1.06A1,1,0,0,1,26.09,18.41Z" fill="#fff"/><path d="M23.17,18.41a1.05,1.05,0,1,1,1,1.06A1,1,0,0,1,23.17,18.41Z" fill="#fff"/><path d="M20.26,18.41a1.05,1.05,0,1,1,1,1.06A1,1,0,0,1,20.26,18.41Z" fill="#fff"/><path d="M17.34,18.41a1.05,1.05,0,1,1,1.05,1.06A1,1,0,0,1,17.34,18.41Z" fill="#fff"/><path d="M28.13,15.4A1,1,0,0,1,29.49,17a1,1,0,0,1-1.36-1.6Z" fill="#fff"/><path d="M26.24,13.18a1,1,0,1,1-.12,1.48A1,1,0,0,1,26.24,13.18Z" fill="#fff"/><path d="M24.35,11a1,1,0,1,1-.12,1.48A1.05,1.05,0,0,1,24.35,11Z" fill="#fff"/><path d="M22.46,8.73a1.06,1.06,0,1,1-.12,1.48A1.06,1.06,0,0,1,22.46,8.73Z" fill="#fff"/><path d="M23.83,26.47A1.05,1.05,0,1,0,24,28,1.06,1.06,0,0,0,23.83,26.47Z" fill="#fff"/><path d="M25.7,24.26a1,1,0,0,0-1.36,1.6,1.06,1.06,0,0,0,1.49-.12A1,1,0,0,0,25.7,24.26Z" fill="#fff"/><path d="M27.59,22a1,1,0,1,0-1.36,1.6,1.06,1.06,0,0,0,1.48-.12A1,1,0,0,0,27.59,22Z" fill="#fff"/><path d="M29.48,19.81a1.05,1.05,0,1,0,.12,1.48A1.06,1.06,0,0,0,29.48,19.81Z" fill="#fff"/><path d="M14.42,18.41a1.05,1.05,0,1,1,1.05,1.06A1,1,0,0,1,14.42,18.41Z" fill="#fff"/><path d="M11.5,18.41a1.06,1.06,0,1,1,1.06,1.06A1.06,1.06,0,0,1,11.5,18.41Z" fill="#fff"/><path d="M8.59,18.41a1.05,1.05,0,1,1,1.05,1.06A1,1,0,0,1,8.59,18.41Z" fill="#fff"/><path d="M5.67,18.41a1.05,1.05,0,1,1,1,1.06A1,1,0,0,1,5.67,18.41Z" fill="#fff"/></g></g></g></svg>