<?xml version="1.0" encoding="UTF-8"?><svg id="_レイヤー_2" xmlns="http://www.w3.org/2000/svg" width="104.53" height="99.83" viewBox="0 0 104.53 99.83"><defs><style>.cls-1{fill:#333a46;stroke:#333a46;stroke-miterlimit:10;stroke-width:1.45px;}</style></defs><g id="DESIGN"><path class="cls-1" d="M103.7,90.9l-3.9-9.88c-.41-1.89-4.83-21.42-12.87-27.98-12.12-9.88-20.88-17.75-20.97-17.83-.59-.53-1.5-.48-2.03.11-.53.59-.48,1.5.11,2.03.09.08,8.9,7.99,21.07,17.92,7.49,6.11,11.86,26.27,11.9,26.47.02.08.04.15.07.23l3.42,8.65-13.13,5.19-2.9-7.35c-.1-.24-.26-.46-.46-.61-11.17-8.54-28.38-21.96-30.02-23.92-1.54-1.83-1.32-3.97-.33-5.05,1.38-1.51,4.08-1.16,7.03.9l8.95,6.44c.31.23.71.32,1.09.25.38-.07.72-.28.94-.6l2.38-3.46c.45-.65.28-1.55-.37-2-.65-.45-1.55-.28-2,.37l-1.54,2.25-7.77-5.59c-5.07-3.54-8.91-2.58-10.82-.5-2.13,2.33-2.02,6.13.25,8.84,2.3,2.74,26.11,21.02,30.16,24.11l3.28,8.31c.29.74,1.12,1.1,1.86.81,0,0,0,0,0,0l15.8-6.24c.35-.14.64-.42.79-.77.15-.35.16-.75.02-1.1Z"/><path class="cls-1" d="M46.87,25.77c-1.27-.5-2.7.12-3.2,1.39l-1.36,3.44c-3.2-1.1-6.78-1.13-10.17.19-7.58,2.96-11.34,11.53-8.38,19.11,2.96,7.58,11.53,11.34,19.11,8.38,7.58-2.96,11.34-11.53,8.38-19.11-.98-2.52-2.6-4.61-4.58-6.17l1.59-4.02c.5-1.27-.12-2.7-1.38-3.2ZM48.56,40.22c2.38,6.1-.64,13-6.74,15.39-6.1,2.38-13-.64-15.39-6.75-2.38-6.1.64-13,6.74-15.38,2.69-1.05,5.53-1.05,8.07-.2l-4.31,10.89-3.75-1.98c-1.2-.64-2.7-.18-3.33,1.03-.64,1.2-.18,2.7,1.03,3.33l6.19,3.27c.62.33,1.35.38,2.01.13.01,0,.03-.01.04-.02.64-.25,1.14-.75,1.4-1.39l5.04-12.72c1.29,1.18,2.34,2.66,3.02,4.4Z"/><path class="cls-1" d="M68.68,81.14l-34.25,13.38c-1.16.45-2.47-.12-2.92-1.28l-2.65-6.78,29.26-11.43c.74-.29,1.11-1.12.82-1.86-.29-.74-1.12-1.11-1.86-.82l-29.26,11.43L5.88,27.63,49.81,10.47l19.28,49.37c.29.74,1.12,1.11,1.86.82s1.11-1.12.82-1.86L50.37,3.99c-1.03-2.64-4.01-3.95-6.65-2.92L3.99,16.59c-2.64,1.03-3.95,4.01-2.92,6.65l27.74,71.04c1.03,2.64,4.01,3.95,6.65,2.92l34.25-13.38c.74-.29,1.11-1.12.82-1.86s-1.12-1.11-1.86-.82ZM5.04,19.27L44.76,3.76c1.16-.45,2.47.12,2.92,1.28l1.08,2.75L4.83,24.95l-1.08-2.75c-.45-1.16.12-2.47,1.28-2.92Z"/><path class="cls-1" d="M57.94,78.65l-11.84,4.63c-.74.29-1.11,1.12-.82,1.86s1.12,1.11,1.86.82l11.84-4.63c.74-.29,1.11-1.12.82-1.86-.29-.74-1.12-1.11-1.86-.82Z"/></g></svg>