<svg xmlns="http://www.w3.org/2000/svg" width="101.24" height="83" viewBox="0 0 101.24 83"><title>icon01-06</title><g id="a4e96bbe-e309-4ecf-bc11-e422e1c02627" data-name="レイヤー 2"><g id="af96eb69-e927-4dcb-ac75-a6b7cbf46996" data-name="DESIGN"><path d="M69.59,19.53a7.66,7.66,0,1,0-3.43,11.53,7.74,7.74,0,0,0,1.25-.64l2.64-7Z" fill="#333a46"/><path d="M67.87,42.7a3.49,3.49,0,0,1-3.19-2.05,3.51,3.51,0,0,1-.1-2.68l2-5.42-.32,0c-2.77.37-5.85,3-6.05,7.67q0,.49,0,1c0,.06,0,.12,0,.18l5.84,19q.29.38.57.69a7.28,7.28,0,0,0,1.93,1.59l16.1-2.87a3.43,3.43,0,0,1,4,2.77,3.47,3.47,0,0,1-.53,2.51L93,78.13a4.26,4.26,0,0,0,8-3L93,53.77a4.25,4.25,0,0,0-4.68-2.7L74.41,53.35C72.81,48.6,73,43,72.29,39a8.14,8.14,0,0,0-.18-1.1l-1,2.54A3.51,3.51,0,0,1,67.87,42.7Z" fill="#333a46"/><path d="M79.07,66.84l6.65-1.19a2.41,2.41,0,0,0-.84-4.74L67.19,64.06l1.43,4.64,7.1-1.26.24,1,2.7,11.17H49.46a3.44,3.44,0,0,1-5.29,0H38.45L43.6,50.16a3.45,3.45,0,0,1,6.14-3.07h6.14l7.31,23.82c.38,1.26,5-.14,4.61-1.41L57.48,35.89a2.41,2.41,0,1,0-4.61,1.4l2,6.4H48.34L41.8,26.36a6.22,6.22,0,0,1,1.34-6.48L54,8.59a6.28,6.28,0,0,1,3.53-1.84L67.89,5.17l-.24-2a3.65,3.65,0,0,1,.12-1.4L57,3.39a9.67,9.67,0,0,0-5.47,2.83L40.68,17.52a9.65,9.65,0,0,0-2.06,10l6.23,16.52a7,7,0,0,0-4.59,5.4L35,79.6H32.21V31.19a7.51,7.51,0,0,0-7.49-7.49H11.06a7.51,7.51,0,0,0-7.49,7.49V79.6H0V83H90.92V79.6H82.16L79.31,67.83ZM55.63,4.58a.88.88,0,1,1-.88.88A.88.88,0,0,1,55.63,4.58ZM39.74,24.5a.89.89,0,1,1,.88-.88A.88.88,0,0,1,39.74,24.5ZM8.68,73.71h4.76v3.11H8.68ZM21.44,43.32V44.6h-7.1V43.32Zm-7.1-1.61V28.81h7.1v12.9Zm7.1,4.5v1.28h-7.1V46.21Zm0,2.89v1.28h-7.1V49.1Zm0,2.89v1.28h-7.1V52Zm0,2.89v1.28h-7.1V54.88Zm-6,4.41.72-1.52h3.91l.72,1.52h.64V71h-7.1V59.29Zm6,14.42v3.11h-7.1V73.71Zm.9,0h4.77v3.11H22.34Zm4.77-42.52V71H22.34V59.29h1.11l.72-1.52h1V56.16H22.34V54.88h2.84V53.27H22.34V52h2.84V50.38H22.34V49.1h2.84V47.49H22.34V46.21h2.84V44.6H22.34V43.32h2.84V41.71H22.34V28.81h2.38A2.42,2.42,0,0,1,27.11,31.19Zm-16-2.38h2.38v12.9H10.6v1.61h2.84V44.6H10.6v1.61h2.84v1.28H10.6V49.1h2.84v1.28H10.6V52h2.84v1.28H10.6v1.61h2.84v1.28H10.6v1.61h1.48l.72,1.52h.64V71H8.68V31.19A2.41,2.41,0,0,1,11.06,28.81Z" fill="#333a46"/><path d="M74.83,4.1l.26,0A1.7,1.7,0,1,0,74.58.7l-.53.08a3.55,3.55,0,0,1,.57,1.53Z" fill="#333a46"/><path d="M68.43,3l2.42,20.42L65.32,38.24a2.72,2.72,0,0,0,1.59,3.51,2.94,2.94,0,0,0,1,.17,2.73,2.73,0,0,0,2.55-1.77l5.76-15.4a2.74,2.74,0,0,0,.16-1.27L73.84,2.4A2.72,2.72,0,0,0,68.43,3Z" fill="#333a46"/><path d="M48.24,52.05v22.2a3.29,3.29,0,0,1,1,.71V51.35A3.43,3.43,0,0,1,48.24,52.05Z" fill="#333a46"/><path d="M46.81,51.58a2.67,2.67,0,1,0-2.66-2.66A2.66,2.66,0,0,0,46.81,51.58Zm0-1.25a1.42,1.42,0,1,1,1.42-1.41A1.41,1.41,0,0,1,46.81,50.33Z" fill="#333a46"/><path d="M49.48,77.39a2.67,2.67,0,1,0-2.67,2.66A2.66,2.66,0,0,0,49.48,77.39ZM46.81,76a1.42,1.42,0,1,1-1.41,1.42A1.41,1.41,0,0,1,46.81,76Z" fill="#333a46"/></g></g></svg>