<svg xmlns="http://www.w3.org/2000/svg" width="42" height="93.3" viewBox="0 0 42 93.3"><title>icon01-04</title><g id="bc53038a-606b-4ea4-af19-bba6bf48ab8a" data-name="レイヤー 2"><g id="b5e71d33-c4c8-4678-b43f-5cee89f5e78b" data-name="DESIGN"><path d="M13.28,0H28.72a2.47,2.47,0,0,1,2.46,2.46V7.92a2.47,2.47,0,0,1-2.46,2.46H13.28a2.47,2.47,0,0,1-2.46-2.46V2.46A2.47,2.47,0,0,1,13.28,0ZM21,85.83a13.22,13.22,0,0,1,3.5,0c1.59.15,3.18.38,4.77.51,1.19.1,4.7.33,5.62-.6s-.87-5.27-1.3-6.19a9,9,0,0,1-.94-6.33,12,12,0,0,0,.77-3.88A276.92,276.92,0,0,1,34,36.63c.08-.88.13-1.78.13-2.68H7.91c0,.9,0,1.8.13,2.68a276.92,276.92,0,0,1,.54,32.72,12,12,0,0,0,.77,3.88,9,9,0,0,1-.94,6.33c-.43.92-2.3,5.2-1.3,6.19s4.43.7,5.62.6c1.6-.13,3.18-.36,4.77-.51a13.22,13.22,0,0,1,3.5,0Zm1.26,6.73L21,93.07l-1.26-.51a14.47,14.47,0,0,0-2.11.14c-1.44.16-2.88.35-4.33.47-3.74.31-8.19.27-11-2.57-3.85-3.85-2.06-9.7,0-14a3.34,3.34,0,0,0,.49-1.76c-.16-.63-.4-1.25-.56-1.89a13.57,13.57,0,0,1-.41-3.86,269.69,269.69,0,0,0-.52-31.91C.51,29,2,23.21,7.32,17c.39-.46.79-.91,1.19-1.36a10.82,10.82,0,0,1,8.24-3.68h8.5a10.81,10.81,0,0,1,8.24,3.68c.4.45.8.9,1.19,1.36C40,23.21,41.49,29,40.78,37.22a269.69,269.69,0,0,0-.52,31.91A13.57,13.57,0,0,1,39.85,73c-.16.64-.4,1.26-.56,1.89a3.34,3.34,0,0,0,.49,1.76c2,4.26,3.8,10.11-.05,14-2.84,2.84-7.29,2.88-11,2.57-1.45-.12-2.89-.31-4.33-.47a14.47,14.47,0,0,0-2.11-.14ZM11.53,18.31c-3.71,4.16-7.17,8.27-6.28,18.56a271.41,271.41,0,0,1,.54,32.39c-.14,4.41,2.26,4.52.09,9.11C-1.92,94.91,17.41,87.26,21,88.7c3.59-1.44,22.92,6.21,15.12-10.33-2.17-4.59.23-4.7.09-9.11a273.52,273.52,0,0,1,.53-32.39c.9-10.29-2.56-14.4-6.28-18.56A6.74,6.74,0,0,0,25.25,16h-8.5a6.77,6.77,0,0,0-5.22,2.33ZM13.79,3H28.21V7.41H13.79V3Z" fill="#333a46" fill-rule="evenodd"/></g></g></svg>