<svg xmlns="http://www.w3.org/2000/svg" width="98.92" height="89.92" viewBox="0 0 98.92 89.92"><title>icon01-03</title><g id="bedb96ea-7a61-4932-bc0d-12b53ed2aea6" data-name="レイヤー 2"><g id="b76d8ae4-f2f7-4584-a102-1a8c9d50dfb0" data-name="DESIGN"><circle cx="73.92" cy="12.7" r="7.5" fill="#fff" stroke="#383330" stroke-linecap="round" stroke-linejoin="round" stroke-width="7"/><path d="M74.86,45.56a9.15,9.15,0,1,1,9.26,9A9.16,9.16,0,0,1,74.86,45.56ZM37.33,56l22.39-.19,9.47-.12A3.61,3.61,0,0,0,72.76,52l-.06-4.92,0-2.62a3.88,3.88,0,0,0,.24-1.33l-.19-11.6L73.92,28a15.4,15.4,0,0,1-1.66.1,14.07,14.07,0,0,1-5.91-1.31l-1,2.91A3.7,3.7,0,0,0,65.15,31l.18,11.28-1.51,0L63.64,31a5.21,5.21,0,0,1,.29-1.79L65,26.12a14.37,14.37,0,0,1-3-2.35l-1.5,6.17a3.78,3.78,0,0,0,0,1.64l2.18,10.75-3.13,0-18.82.15-2.51,0a6.69,6.69,0,0,0-5.46,2.94L14.88,47.42A4.52,4.52,0,0,0,11,50.63L3.69,75.26a4.53,4.53,0,0,0,3.05,5.63A4.43,4.43,0,0,0,8,81.08a4.53,4.53,0,0,0,4.34-3.24L18.85,56.1l14.6-1.58A5.6,5.6,0,0,0,37.33,56ZM75.12,24a10.14,10.14,0,0,1-2.86.41A10.44,10.44,0,0,1,69.4,3.9a10.57,10.57,0,0,1,2.87-.4A10.43,10.43,0,0,1,75.12,24Zm1.62-11.3a4.65,4.65,0,1,0-3.2,5.75A4.64,4.64,0,0,0,76.74,12.66Zm-4.83,0a1.3,1.3,0,1,0,1.61.9A1.3,1.3,0,0,0,71.91,12.68Zm19,48.56H24.27l-.39,0-.38,0A4.53,4.53,0,0,0,19,65.77V81.89a4.53,4.53,0,0,0,9.06,0V70.3H86.36V81.89a4.53,4.53,0,0,0,9.06,0V66.6a2.75,2.75,0,0,0,0-.41,3,3,0,0,0,0-.42A4.53,4.53,0,0,0,90.89,61.24Z" fill="#383330" stroke="#383330" stroke-linecap="round" stroke-linejoin="round" stroke-width="7"/><circle cx="72.92" cy="12.7" r="7.5" fill="#fff" stroke="#333a46" stroke-miterlimit="10" stroke-width="4"/><path d="M73.86,45.56a9.15,9.15,0,1,1,9.26,9A9.16,9.16,0,0,1,73.86,45.56ZM36.33,56l22.39-.19,9.47-.12A3.61,3.61,0,0,0,71.76,52l-.06-4.92,0-2.62a3.88,3.88,0,0,0,.24-1.33l-.19-11.6L72.92,28a15.4,15.4,0,0,1-1.66.1,14.07,14.07,0,0,1-5.91-1.31l-1,2.91A3.7,3.7,0,0,0,64.15,31l.18,11.28-1.51,0L62.64,31a5.21,5.21,0,0,1,.29-1.79L64,26.12a14.37,14.37,0,0,1-3-2.35l-1.5,6.17a3.78,3.78,0,0,0,0,1.64l2.18,10.75-3.13,0-18.82.15-2.51,0a6.69,6.69,0,0,0-5.46,2.94L13.88,47.42A4.52,4.52,0,0,0,10,50.63L2.69,75.26a4.53,4.53,0,0,0,3.05,5.63A4.43,4.43,0,0,0,7,81.08a4.53,4.53,0,0,0,4.34-3.24L17.85,56.1l14.6-1.58A5.6,5.6,0,0,0,36.33,56ZM74.12,24a10.14,10.14,0,0,1-2.86.41A10.44,10.44,0,0,1,68.4,3.9a10.57,10.57,0,0,1,2.87-.4A10.43,10.43,0,0,1,74.12,24Zm1.62-11.3a4.65,4.65,0,1,0-3.2,5.75A4.64,4.64,0,0,0,75.74,12.66Zm-4.83,0a1.3,1.3,0,1,0,1.61.9A1.3,1.3,0,0,0,70.91,12.68Zm19,48.56H23.27l-.39,0-.38,0A4.53,4.53,0,0,0,18,65.77V81.89a4.53,4.53,0,0,0,9.06,0V70.3H85.36V81.89a4.53,4.53,0,0,0,9.06,0V66.6a2.75,2.75,0,0,0,0-.41,3,3,0,0,0,0-.42A4.53,4.53,0,0,0,89.89,61.24Z" fill="#fff" stroke="#333a46" stroke-miterlimit="10" stroke-width="4"/></g></g></svg>