<svg xmlns="http://www.w3.org/2000/svg" width="67.01" height="67.01" viewBox="0 0 67.01 67.01"><title>icon02-03</title><g id="e03c8053-49e1-4565-bbde-6ff344840985" data-name="レイヤー 2"><g id="ae13c7a6-f5f8-4160-b715-0d6e189eef32" data-name="DESIGN"><circle cx="33.5" cy="33.5" r="33.5" fill="#0b355e"/><path d="M22,37.56a8.83,8.83,0,0,1,6.61,4.11h25.9a2.41,2.41,0,0,1,2.08.83L59,44.88a.69.69,0,0,1-.5,1.21H18.9L22,37.56Zm10.74-20a1.22,1.22,0,1,1,0,2.44H24a1.22,1.22,0,1,1,0-2.44Zm-9.59-7.25a.79.79,0,1,1,1.28-.92l5,7H27.52l-4.37-6.07ZM13.27,45.09a.69.69,0,0,0,.68,1h3.69l9.07-24.94H24a2.42,2.42,0,0,1-1.77-.78Z" fill="#fff" fill-rule="evenodd"/></g></g></svg>