<svg xmlns="http://www.w3.org/2000/svg" width="69.5" height="69.5" viewBox="0 0 69.5 69.5"><title>icon02-02</title><g id="e1f53888-7c17-43ef-87a5-e8503d8ee98d" data-name="レイヤー 2"><g id="bee2dbb2-acf6-417f-a507-370f499af88a" data-name="DESIGN"><circle cx="34.75" cy="34.75" r="34.75" fill="#0b355e"/><path d="M32.1,52.48a1.09,1.09,0,0,1-2.18,0V44.63l2.18.7v7.15ZM29.25,39.54l16.24,5.22a2.15,2.15,0,0,0,1.38-4.07L30.63,35.46a2.15,2.15,0,0,0-1.38,4.08Zm-.18,3.38L44.21,47.8a7.18,7.18,0,0,0,4.58-.15,7.52,7.52,0,0,0,3.44-3.06l4.35-7.66A.94.94,0,1,0,55,36L50.6,43.67A4.89,4.89,0,0,1,44.73,46L29.64,41.14a.94.94,0,0,0-1.18.61.92.92,0,0,0,.61,1.17ZM55.94,20.6a2.15,2.15,0,0,1,3.74,2.13L49.27,41.06a3.46,3.46,0,0,0-2-1.67l-1.7-.55L55.94,20.6Zm-16.76,27L30.54,59.49c-.41.57-.16,1.15.52,1.15h5.06A1.62,1.62,0,0,0,37.49,60l7.7-10.58a8.1,8.1,0,0,1-1.4-.3l-4.61-1.48Zm-18.37.12a4.77,4.77,0,1,1-5.3,4.16,4.77,4.77,0,0,1,5.3-4.16Zm-.43,3.55a1.19,1.19,0,1,0,1,1.33,1.2,1.2,0,0,0-1-1.33ZM36.85,24.79a.88.88,0,0,0-1,1v10l8.38,2.7.67-1.19V25.77a.89.89,0,0,0-1-1H41.31V12.93a8.31,8.31,0,0,1,7.4,8.25v9.41l2.18-3.85V21.18a10.49,10.49,0,1,0-21,0v7.07H24.65a2,2,0,1,0-2.84,2.84L20,46.34a6.28,6.28,0,0,1,2.23.32L24.06,31.3a2.12,2.12,0,0,0,.8-.8h5.06V34a3.34,3.34,0,0,1,1.15.19l1,.34V21.18a8.3,8.3,0,0,1,7.39-8.25V24.79ZM50.89,48v4.46a1.09,1.09,0,0,1-2.18,0V49.12c.2-.06.39-.13.59-.21A7.58,7.58,0,0,0,50.89,48ZM24.1,21.14a8.37,8.37,0,0,1,4.45,1.95v3.79H25.19a3.36,3.36,0,0,0-4.18,0A3.36,3.36,0,0,0,20,30.78a3.17,3.17,0,0,0,.43.76l-.69,5.72a8.45,8.45,0,0,1,4.4-16.12Zm2.34,16.14a8.35,8.35,0,0,1-1.8.55l.7-5.78a1.7,1.7,0,0,0,.19-.19h3v2.41l-.16.08A3.49,3.49,0,0,0,26.44,37.28Z" fill="#fff" fill-rule="evenodd"/></g></g></svg>