<svg xmlns="http://www.w3.org/2000/svg" width="69" height="69" viewBox="0 0 69 69"><title>icon02-01</title><g id="b7adac56-15b3-4403-8892-3ab757b03f48" data-name="レイヤー 2"><g id="e468564b-16c8-4069-953d-5947a823362b" data-name="DESIGN"><circle cx="34.5" cy="34.5" r="34.5" fill="#0b355e"/><path d="M53.86,20.43a12.67,12.67,0,0,0-1.73.49L52,21l-.08-.23a2.32,2.32,0,0,0-.28-.67c-.72-1-2.2-1-3.27-.68s-1.84.55-2.74.85a2.87,2.87,0,0,0-2.19,2.44,2.12,2.12,0,0,0,.15.65L45.28,29,24.66,35.32l-1.74-5.65a2,2,0,0,0-.29-.66c-.72-1-2.19-1-3.26-.68s-1.84.55-2.75.84a2.86,2.86,0,0,0-2.18,2.44,2.44,2.44,0,0,0,.14.65l.07.22c-.49.1-1,.29-1.45.43a2.16,2.16,0,0,0-1.51,2.56c.43,1.68,1,3.32,1.53,5l2.28,7.39a2.16,2.16,0,0,0,2.16,1.51,8.14,8.14,0,0,0,1.8-.49l.2-.08c.06.18.11.35.18.52.46,1.22,1.94,1.39,3.05,1.16.51-.1,1-.29,1.51-.44,1.52-.47,4.06-1.11,3.8-3.1a.91.91,0,0,0-.05-.27.32.32,0,0,0,0-.09L26.35,40.8,47,34.44l1.47,4.78c.12.39.22.78.36,1.16.46,1.21,1.94,1.38,3.06,1.15.51-.1,1-.28,1.51-.43,1.51-.47,4.05-1.11,3.79-3.11a.82.82,0,0,0,0-.26l0-.1L57,37.3c.47-.1.95-.3,1.39-.44a2.14,2.14,0,0,0,1.6-2.3,2,2,0,0,0,0-.24l0-.14L56.13,21.92A2.13,2.13,0,0,0,53.86,20.43ZM50,21.28ZM21,30.21ZM17.45,47.32Zm1.5-.41c.07,0,.05,0,0,0l-1.42.44c.15,0-.16,0,0,0h-.06l0,0a.25.25,0,0,0,0-.08c0,.06,0,.05,0,0L13.65,35s0-.05,0,0,0-.06,0-.08a0,0,0,0,0,0,0l0-.05c-.1.11.15,0,0,0,.22-.08.46-.14.68-.21l.74-.23s.07,0,0,0l.08,0,0,0,0,0h0c-.09-.07.05.16,0,0L19,46.74c0-.06,0,.17,0,.06h0v.07Zm.1,0Zm6.08.81-1.77.55a4.14,4.14,0,0,1-1.52.3l-.15-.05-5.2-16.89.1-.13a2.06,2.06,0,0,1,.81-.41l1.61-.5a7.22,7.22,0,0,1,1.48-.4,1.27,1.27,0,0,1,.48,0h0s0,0,0,0L26.18,47.1h0a1.06,1.06,0,0,1-.37.29A2.84,2.84,0,0,1,25.13,47.68Zm.62-8.82-.49-1.61L45.87,30.9l.5,1.61Zm28.34-.1-1.77.54a3.72,3.72,0,0,1-1.51.3l-.15,0L45.45,22.67l.1-.13a2.11,2.11,0,0,1,.82-.42L48,21.63a6.89,6.89,0,0,1,1.48-.4,1.06,1.06,0,0,1,.47,0h0s0,0,0,0l.71,2.34c.43,1.63,1,3.23,1.5,4.83l3,9.73h0a1.22,1.22,0,0,1-.37.3A2.68,2.68,0,0,1,54.09,38.76Zm3.79-3.84c.06,0,0,0,0,0l-1.42.44c.15-.05-.16,0,0,0H56.4l0,0s0,0,0,0h0L52.56,23l0,0,0,0c-.1.11.16-.05,0,0,.22-.08.45-.14.68-.21l.73-.23s.08,0,0,0h.08l0,0,0,0c-.11-.1,0,.15,0,0L58,34.75c0-.06,0,.17,0,0h0a.07.07,0,0,1,0,.05s0,0,0,0Zm.09,0Z" fill="#fff"/></g></g></svg>