<svg xmlns="http://www.w3.org/2000/svg" width="52.94" height="90.57" viewBox="0 0 52.94 90.57"><title>icon01-07</title><g id="b85ccda2-af55-4da7-a40e-54a05135d4cb" data-name="レイヤー 2"><g id="a4909643-4ff8-4a97-ac14-aac9e82d31f7" data-name="DESIGN"><path d="M1.42,13.57l2,63s17,24,49,0l-2-64s-12-10-20-11S3.42,4.57,1.42,13.57Z" fill="#fff"/><path d="M49.19,77.14c0,5.56-5.95,7.66-9.57,8.43a2.29,2.29,0,0,1-2.75-2.36V70A29.81,29.81,0,0,0,29,67.47a3.18,3.18,0,0,1-2.76-3V6A2.34,2.34,0,0,1,29,3.56,35.8,35.8,0,0,1,36.5,5.69a29.34,29.34,0,0,1,4.08,2.06A24.15,24.15,0,0,1,43,9.41c4,3.13,6.21,7,6.21,10.76v57M29.31,8.26V62.87a1.62,1.62,0,0,0,1.24,1.51,34.41,34.41,0,0,1,6.32,2V28.17a3.77,3.77,0,0,1,2.72-3.26,8.26,8.26,0,0,0,2.8-1.78,8.35,8.35,0,0,0,2.14-3.43,6.89,6.89,0,0,0,.31-2,5.61,5.61,0,0,0-1.58-3.94,16.76,16.76,0,0,0-2.56-2.14A29.83,29.83,0,0,0,33.38,8a28.73,28.73,0,0,0-2.83-.8,1,1,0,0,0-1.24,1M1.19,14.41C-.12,16.29,0,21.85,0,24.14V75.37c0,3.24.18,7,4.83,10.57l9.35,4.37c3.32.86,4.72-.47,5.95-3.67l.34-14.28c.05-.13,6.8-1.31,6.85-1.45a8,8,0,0,0,1.12.26,25.4,25.4,0,0,1,4.68,1.27V83.21a6.19,6.19,0,0,0,2.27,4.84,6,6,0,0,0,5,1.19c8-1.68,12.55-6.09,12.55-12.1l-.1-59A15.06,15.06,0,0,0,49.5,10c-7-8.45-18.09-9.7-19-9.86C29-.09,26.73-.12,25.5.61c-1.3-.74-5.15,0-6.69.36C4.24,3.24,1.19,14.41,1.19,14.41ZM33.07,11.9a26.14,26.14,0,0,1,5.49,2.8,13.43,13.43,0,0,1,2,1.66,1.85,1.85,0,0,1,.53,1.34,2.89,2.89,0,0,1-.14.89,4.48,4.48,0,0,1-1.16,1.84,4.35,4.35,0,0,1-1.51,1,7.45,7.45,0,0,0-5.15,6.78v33l0,0V11.9ZM3.9,77.14v-57c0-3.76,2.23-7.63,6.2-10.76a25.55,25.55,0,0,1,2.41-1.66,29.21,29.21,0,0,1,4.07-2.06,35.9,35.9,0,0,1,7.49-2.13A2.34,2.34,0,0,1,26.82,6V64.45a3.18,3.18,0,0,1-2.76,3A29.75,29.75,0,0,0,16.21,70V83.21a2.28,2.28,0,0,1-2.74,2.36C9.84,84.8,3.9,82.7,3.9,77.14M23.77,8.26a1,1,0,0,0-1.23-1A28.9,28.9,0,0,0,19.7,8a29.76,29.76,0,0,0-7.31,3.58,16.76,16.76,0,0,0-2.56,2.14A5.56,5.56,0,0,0,8.25,17.7a6.89,6.89,0,0,0,.31,2,8.31,8.31,0,0,0,4.94,5.21,3.77,3.77,0,0,1,2.71,3.26v38.2a34.66,34.66,0,0,1,6.32-2,1.61,1.61,0,0,0,1.24-1.51V8.26M20,11.9V61.12l-.06,0v-33a7.45,7.45,0,0,0-5.15-6.78,4.45,4.45,0,0,1-1.51-1,4.59,4.59,0,0,1-1.16-1.84A3.22,3.22,0,0,1,12,17.7a1.85,1.85,0,0,1,.53-1.34,13,13,0,0,1,2-1.66A25.9,25.9,0,0,1,20,11.9Z" fill="#333a46"/></g></g></svg>