<svg xmlns="http://www.w3.org/2000/svg" width="48" height="95.64" viewBox="0 0 48 95.64"><title>icon01-01</title><g id="ae2ea88f-1afb-474c-b155-7eace749d7a1" data-name="レイヤー 2"><g id="b6b15b05-7b33-41e7-b4aa-6fecbd3c2591" data-name="DESIGN"><rect x="2.59" y="21.31" width="28.14" height="39.46" fill="#cdcccb"/><path d="M19.72,46.39s-3.13-1-3.06,10.33S13.76,72,15.36,78.51a63.44,63.44,0,0,1,1.3,14.79h16.6l.8-8.83L45.64,58.89v-5L30.27,39.28V59.81H25S25.69,47,19.72,46.39Z" fill="#fff"/><path d="M35.13,86.72H14.86l-.65-1.43a29.37,29.37,0,0,1-1.36-18.46,23.38,23.38,0,0,0,.75-4.35H3.85A3.86,3.86,0,0,1,0,58.63V22.73a3.86,3.86,0,0,1,3.85-3.85H29a3.85,3.85,0,0,1,3.84,3.85V37.89l12,12a10.41,10.41,0,0,1,1.86,12.29c-2.11,4.15-10.89,23-11,23.18Zm-17-4.89H32c2.11-4.52,8.57-18.32,10.39-21.92a5.44,5.44,0,0,0-.86-6.52l0,0-8.62-8.55V58.63A3.85,3.85,0,0,1,29,62.48H22.62l-.06-2.39c-.21-7.92-1.28-10.07-1.9-10.65-.29-.26-.73-.35-1.8-.33a33.25,33.25,0,0,0-.22,6c.06,3.92.13,8.78-1.07,13.06A24.1,24.1,0,0,0,18.13,81.83Zm9.23-24.25H28V23.78H4.9v33.8h8.87c0-.82,0-1.63,0-2.41A40.22,40.22,0,0,1,14,48.79c.62-3.83,2.85-4.5,4.12-4.55,1.59-.07,4-.18,5.92,1.62S27,51.2,27.36,57.58Z" fill="#333a46"/><path d="M32.17,95.64H17.83A3.85,3.85,0,0,1,14,91.79V85.67a3.84,3.84,0,0,1,3.84-3.84H32.17A3.85,3.85,0,0,1,36,85.67v6.12A3.86,3.86,0,0,1,32.17,95.64Zm-13.29-4.9H31.12v-4H18.88Z" fill="#333a46"/><path d="M12.93,16a13.5,13.5,0,0,1,1.66-1c.14-.07.28-.12.42-.2.34-.19-.39.14,0,0s.65-.24,1-.34A15.55,15.55,0,0,1,17.87,14c.4-.08-.44,0,0,0,.16,0,.31,0,.46,0,.35,0,.69,0,1,0s.61,0,.92,0l.46,0c.29,0,.2,0,0,0a15.82,15.82,0,0,1,1.9.44c.33.1.65.22,1,.34-.23-.09-.25-.12,0,0L24,15A11.65,11.65,0,0,1,25.7,16a2.71,2.71,0,0,0,3.7-1,2.78,2.78,0,0,0-1-3.69,16,16,0,0,0-18.22-.06A2.7,2.7,0,0,0,12.93,16Z" fill="#333a46"/><path d="M10.19,8.28l.53-.5c.15-.13.25-.2,0,0A11,11,0,0,1,11.92,7a8.34,8.34,0,0,1,2.21-.9,16.58,16.58,0,0,1,5.47-.7,18.34,18.34,0,0,1,5.56.8c.45.13.9.28,1.34.44a5.07,5.07,0,0,1,.85.37q.64.31,1.26.69l.52.34c.47.32-.24-.21.23.17a2.77,2.77,0,0,0,3.82,0,2.7,2.7,0,0,0,0-3.81C29.41,1.29,24.42.05,19.6,0S9.79,1.07,6.37,4.46C3.9,6.91,7.72,10.73,10.19,8.28Z" fill="#333a46"/></g></g></svg>