<svg xmlns="http://www.w3.org/2000/svg" width="63.41" height="85.82" viewBox="0 0 63.41 85.82"><title>icon01-11</title><g id="b10d3f11-8dea-4871-83e0-4d1a6e40b2af" data-name="レイヤー 2"><g id="a414d78d-2215-440c-b23d-19a0f8e5c133" data-name="DESIGN"><g id="a5bc8b12-5359-49bc-a2a1-1f4c0519fd99" data-name="shower"><path d="M60.85,50.23H7.05a2.57,2.57,0,1,1,0-5.13h53.8a2.57,2.57,0,0,1,0,5.13Z" fill="#333a46"/><path id="ef3ab047-dc7b-4f96-9532-a94edc6b0bb6" data-name="shower" d="M9.39,42H58.5c0-9.87-5.87-18-20.71-19.2h0V14.24C37.8,0,25.23,0,21.1,0H0V7.7H21.1c7.74,0,9,1.93,9,6.54v8.58h0C15.26,24,9.39,32.15,9.39,42ZM15,35.56c2.6-5.71,9-8.61,19-8.61a1.54,1.54,0,1,1,0,3.08c-8.68,0-14.13,2.29-16.18,6.81a1.54,1.54,0,0,1-2,.76A1.54,1.54,0,0,1,15,35.56Z" fill="#333a46"/></g><g id="fc133ccb-117c-429b-a8b5-283fa5032192" data-name="water drops"><path d="M26.25,56.12a3.46,3.46,0,1,0,3.46,3.46A3.46,3.46,0,0,0,26.25,56.12Z" fill="#333a46"/><path d="M41.64,56.12a3.46,3.46,0,1,0,3.46,3.46A3.46,3.46,0,0,0,41.64,56.12Z" fill="#333a46"/><g id="a452fac2-8654-455a-bf33-c25b70aadfe9" data-name="Shadow"><path d="M18.56,67.51A3.46,3.46,0,1,0,22,71,3.46,3.46,0,0,0,18.56,67.51Z" fill="#333a46"/><path d="M33.94,67.51A3.46,3.46,0,1,0,37.4,71,3.45,3.45,0,0,0,33.94,67.51Z" fill="#333a46"/><path d="M49.33,67.51A3.46,3.46,0,1,0,52.79,71,3.46,3.46,0,0,0,49.33,67.51Z" fill="#333a46"/><path d="M26.25,63a3.44,3.44,0,0,0,2.25-.83c-1.38.13-2.74.23-4.09.3A3.53,3.53,0,0,0,26.25,63Z" fill="#333a46"/><path d="M41.64,63a3.46,3.46,0,0,0,3.46-3.46c0-.14,0-.28,0-.42-2.2.62-4.44,1.15-6.68,1.6A3.45,3.45,0,0,0,41.64,63Z" fill="#333a46"/><path d="M41.64,78.9a3.46,3.46,0,1,0,3.46,3.46A3.46,3.46,0,0,0,41.64,78.9Z" fill="#333a46"/><path d="M57,78.9a3.46,3.46,0,1,0,3.46,3.46A3.46,3.46,0,0,0,57,78.9Z" fill="#333a46"/><path d="M10.87,78.9a3.46,3.46,0,1,0,3.46,3.46A3.46,3.46,0,0,0,10.87,78.9Z" fill="#333a46"/><circle cx="26.25" cy="82.36" r="3.46" transform="translate(-56.46 107.5) rotate(-89.23)" fill="#333a46"/></g></g></g></g></svg>