<svg xmlns="http://www.w3.org/2000/svg" width="94.45" height="88.21" viewBox="0 0 94.45 88.21"><title>icon01-05</title><g id="e15d46e3-cf8a-41b2-8fb6-c48af412a7b5" data-name="レイヤー 2"><g id="a35e2ca8-553b-4caf-af08-a3c01ddb278b" data-name="DESIGN"><path d="M13.65,10.44a7.55,7.55,0,1,0,9.06-5.63A7.54,7.54,0,0,0,13.65,10.44Z" fill="#333a46" stroke="#333a46" stroke-linecap="round" stroke-linejoin="round" stroke-width="9.21"/><path d="M11.1,28.16a3.43,3.43,0,0,1-.28-2.62,3.39,3.39,0,0,1,1.65-2,3.43,3.43,0,0,1,4.62,1.35l.1.16a7.55,7.55,0,0,0,.52.72A13.5,13.5,0,0,0,19,27.16c.41-3.05-.86-6.26-3.4-6.89-2.86-.72-7,.84-8.7,5.75C4.63,32.79,4.14,37.19,5,44.64c.71,3.65,2.63,5.09,4.74,5.62a45.31,45.31,0,0,1,1.92,13A42.44,42.44,0,0,1,9.06,78a4.19,4.19,0,0,0,2.48,5.38,4.13,4.13,0,0,0,1.45.27,4.21,4.21,0,0,0,3.94-2.74,50.64,50.64,0,0,0,3.12-17.61A52.59,52.59,0,0,0,17,45.5a37.29,37.29,0,0,1,.55-10.83,20.36,20.36,0,0,1-1.68-1.2A19,19,0,0,1,11.1,28.16Z" fill="#333a46" stroke="#333a46" stroke-linecap="round" stroke-linejoin="round" stroke-width="9.21"/><path d="M36.92,31.79h-.09a28.54,28.54,0,0,1-5.59.58,18.26,18.26,0,0,1-11.6-3.71,15,15,0,0,1-2.51-2.48c-.26-.33-.44-.6-.55-.77l-.12-.18h0v0h0a2.69,2.69,0,0,0-4.71,2.58h0a18.15,18.15,0,0,0,4.59,5.11,23.64,23.64,0,0,0,14.86,4.84h0a34.07,34.07,0,0,0,6.62-.67,2.67,2.67,0,0,0,2.06-1.9A12.13,12.13,0,0,1,36.92,31.79Z" fill="#333a46" stroke="#333a46" stroke-linecap="round" stroke-linejoin="round" stroke-width="9.21"/><path d="M85.1,52.86H70.56c-.6-1.73-2-3.26-4.94-4.08-6-1.19-10-1.32-15-.4v6.44a3.43,3.43,0,0,1-6.85,0V50.59a7.08,7.08,0,0,0-3.26,6.81c.47,2.83,4.15,4.4,7.49,3.84H81l.45,18.28a4.19,4.19,0,0,0,4.18,4.09h.11a4.2,4.2,0,0,0,4.09-4.3L89.29,57A4.19,4.19,0,0,0,85.1,52.86Z" fill="#333a46" stroke="#333a46" stroke-linecap="round" stroke-linejoin="round" stroke-width="9.21"/><path d="M31.93,61.84a7.55,7.55,0,1,0-8.11-6.93A7.54,7.54,0,0,0,31.93,61.84Z" fill="#333a46" stroke="#333a46" stroke-linecap="round" stroke-linejoin="round" stroke-width="9.21"/><rect x="23.67" y="63.98" width="54.51" height="4.36" stroke-width="9.21" stroke="#333a46" stroke-linecap="round" stroke-linejoin="round" fill="#333a46"/><path d="M44.47,54.82a2.69,2.69,0,0,0,5.37,0V37.31a11.93,11.93,0,0,1-2.69.31,12.44,12.44,0,0,1-2.68-.3Z" fill="#333a46" stroke="#333a46" stroke-linecap="round" stroke-linejoin="round" stroke-width="9.21"/><path d="M47.15,36.36A10.65,10.65,0,1,0,36.51,25.72,10.65,10.65,0,0,0,47.15,36.36ZM42.94,25.72a4.22,4.22,0,1,1,4.21,4.21A4.22,4.22,0,0,1,42.94,25.72Z" fill="#333a46" stroke="#333a46" stroke-linecap="round" stroke-linejoin="round" stroke-width="9.21"/><path d="M47.15,28.88A3.17,3.17,0,1,0,44,25.72,3.17,3.17,0,0,0,47.15,28.88Z" fill="#333a46" stroke="#333a46" stroke-linecap="round" stroke-linejoin="round" stroke-width="9.21"/><path d="M13.65,10.44a7.55,7.55,0,1,0,9.06-5.63A7.54,7.54,0,0,0,13.65,10.44Z" fill="#fff" stroke="#333a46" stroke-miterlimit="10" stroke-width="3"/><path d="M11.1,28.16a3.43,3.43,0,0,1-.28-2.62,3.39,3.39,0,0,1,1.65-2,3.43,3.43,0,0,1,4.62,1.35l.1.16a7.55,7.55,0,0,0,.52.72A13.5,13.5,0,0,0,19,27.16c.41-3.05-.86-6.26-3.4-6.89-2.86-.72-7,.84-8.7,5.75C4.63,32.79,4.14,37.19,5,44.64c.71,3.65,2.63,5.09,4.74,5.62a45.31,45.31,0,0,1,1.92,13A42.44,42.44,0,0,1,9.06,78a4.19,4.19,0,0,0,2.48,5.38,4.13,4.13,0,0,0,1.45.27,4.21,4.21,0,0,0,3.94-2.74,50.64,50.64,0,0,0,3.12-17.61A52.59,52.59,0,0,0,17,45.5a37.29,37.29,0,0,1,.55-10.83,20.36,20.36,0,0,1-1.68-1.2A19,19,0,0,1,11.1,28.16Z" fill="#fff" stroke="#333a46" stroke-miterlimit="10" stroke-width="3"/><path d="M36.92,31.79h-.09a28.54,28.54,0,0,1-5.59.58,18.26,18.26,0,0,1-11.6-3.71,15,15,0,0,1-2.51-2.48c-.26-.33-.44-.6-.55-.77l-.12-.18h0v0h0a2.69,2.69,0,0,0-4.71,2.58h0a18.15,18.15,0,0,0,4.59,5.11,23.64,23.64,0,0,0,14.86,4.84h0a34.07,34.07,0,0,0,6.62-.67,2.67,2.67,0,0,0,2.06-1.9A12.13,12.13,0,0,1,36.92,31.79Z" fill="#fff" stroke="#333a46" stroke-miterlimit="10" stroke-width="3"/><path d="M85.1,52.86H70.56c-.6-1.73-2-3.26-4.94-4.08-6-1.19-10-1.32-15-.4v6.44a3.43,3.43,0,0,1-6.85,0V50.59a7.08,7.08,0,0,0-3.26,6.81c.47,2.83,4.15,4.4,7.49,3.84H81l.45,18.28a4.19,4.19,0,0,0,4.18,4.09h.11a4.2,4.2,0,0,0,4.09-4.3L89.29,57A4.19,4.19,0,0,0,85.1,52.86Z" fill="#fff" stroke="#333a46" stroke-miterlimit="10" stroke-width="3"/><path d="M31.93,61.84a7.55,7.55,0,1,0-8.11-6.93A7.54,7.54,0,0,0,31.93,61.84Z" fill="#fff" stroke="#333a46" stroke-miterlimit="10" stroke-width="3"/><rect x="23.67" y="63.98" width="54.51" height="4.36" fill="#fff" stroke="#333a46" stroke-miterlimit="10" stroke-width="3"/><path d="M44.47,54.82a2.69,2.69,0,0,0,5.37,0V37.31a11.93,11.93,0,0,1-2.69.31,12.44,12.44,0,0,1-2.68-.3Z" fill="#fff" stroke="#333a46" stroke-miterlimit="10" stroke-width="3"/><path d="M47.15,36.36A10.65,10.65,0,1,0,36.51,25.72,10.65,10.65,0,0,0,47.15,36.36ZM42.94,25.72a4.22,4.22,0,1,1,4.21,4.21A4.22,4.22,0,0,1,42.94,25.72Z" fill="#fff" stroke="#333a46" stroke-miterlimit="10" stroke-width="3"/><path d="M47.15,28.88A3.17,3.17,0,1,0,44,25.72,3.17,3.17,0,0,0,47.15,28.88Z" fill="#fff" stroke="#333a46" stroke-miterlimit="10" stroke-width="3"/></g></g></svg>