<svg xmlns="http://www.w3.org/2000/svg" width="91.9" height="96.72" viewBox="0 0 91.9 96.72"><title>icon01-08</title><g id="f423c79b-c63a-46be-9259-992f25aaf8d4" data-name="レイヤー 2"><g id="a9f390b7-b250-4b18-8909-3d6362235fc5" data-name="DESIGN"><path d="M73.93,74c-2.89,0-5.25-3.46-5.25-7.69V58.19c0-4.23-2.48-7.69-5.5-7.69s-5.5,3.46-5.5,7.69v8.12c0,4.23-2.59,7.69-5.75,7.69s-5.75,2.25-5.75,5,3.45,5,7.68,5H71.49c4.23,0,7.69-2.25,7.69-5A5.15,5.15,0,0,0,73.93,74Z" fill="#fff"/><path d="M73.93,74c-2.89,0-5.25-3.46-5.25-7.69V58.19c0-4.23-2.48-7.69-5.5-7.69s-5.5,3.46-5.5,7.69v8.12c0,4.23-2.59,7.69-5.75,7.69s-5.75,2.25-5.75,5,3.45,5,7.68,5H71.49c4.23,0,7.69-2.25,7.69-5A5.15,5.15,0,0,0,73.93,74Z" fill="none" stroke="#333a46" stroke-linecap="round" stroke-linejoin="round" stroke-width="4.8"/><path d="M88,50.51a8.38,8.38,0,0,1-8.28,8h-35a8.74,8.74,0,0,1-8.57-8l-2.86-40a7.36,7.36,0,0,1,7.43-8h41a7.68,7.68,0,0,1,7.71,8Z" fill="#fff"/><path d="M88,50.51a8.38,8.38,0,0,1-8.28,8h-35a8.74,8.74,0,0,1-8.57-8l-2.86-40a7.36,7.36,0,0,1,7.43-8h41a7.68,7.68,0,0,1,7.71,8Z" fill="none" stroke="#333a46" stroke-linecap="round" stroke-linejoin="round" stroke-width="5"/><path d="M78.54,45a5.74,5.74,0,0,1-5.67,5.49H50.81A6,6,0,0,1,44.94,45L43.05,17.48A5.07,5.07,0,0,1,48.16,12h26a5.28,5.28,0,0,1,5.3,5.49Z" fill="#fff"/><path d="M78.54,45a5.74,5.74,0,0,1-5.67,5.49H50.81A6,6,0,0,1,44.94,45L43.05,17.48A5.07,5.07,0,0,1,48.16,12h26a5.28,5.28,0,0,1,5.3,5.49Z" fill="none" stroke="#333a46" stroke-linecap="round" stroke-linejoin="round" stroke-width="5"/><line x1="54.32" y1="49.5" x2="51.68" y2="13" fill="none" stroke="#333a46" stroke-linecap="round" stroke-linejoin="round" stroke-width="5"/><line x1="62.18" y1="49" x2="60.68" y2="12" fill="none" stroke="#333a46" stroke-linecap="round" stroke-linejoin="round" stroke-width="5"/><line x1="70.18" y1="49" x2="70.18" y2="14" fill="none" stroke="#333a46" stroke-linecap="round" stroke-linejoin="round" stroke-width="5"/><path d="M46.21,84.21c4,2.13,6.42,5.77,5.31,8.08s-5.33,2.46-9.37.33l-5.72-3c-4-2.13-6.42-5.77-5.31-8.09s5.33-2.46,9.37-.32Z" fill="#fff"/><path d="M46.21,84.21c4,2.13,6.42,5.77,5.31,8.08s-5.33,2.46-9.37.33l-5.72-3c-4-2.13-6.42-5.77-5.31-8.09s5.33-2.46,9.37-.32Z" fill="none" stroke="#333a46" stroke-linecap="round" stroke-linejoin="round" stroke-width="5.19"/><path d="M23.92,92.64c-4.14,1.94-8.48,1.66-9.66-.63s1.25-5.74,5.39-7.67L25.5,81.6c4.14-1.94,8.48-1.66,9.66.63S33.91,88,29.78,89.9Z" fill="#fff"/><path d="M23.92,92.64c-4.14,1.94-8.48,1.66-9.66-.63s1.25-5.74,5.39-7.67L25.5,81.6c4.14-1.94,8.48-1.66,9.66.63S33.91,88,29.78,89.9Z" fill="none" stroke="#333a46" stroke-linecap="round" stroke-linejoin="round" stroke-width="5.19"/><path d="M36.33,79c0,4.56-2.11,8.3-4.68,8.3S27,83.55,27,79V61.34c0-4.56,2.11-8.3,4.67-8.3s4.68,3.74,4.68,8.3Z" fill="#fff"/><path d="M36.33,79c0,4.56-2.11,8.3-4.68,8.3S27,83.55,27,79V61.34c0-4.56,2.11-8.3,4.67-8.3s4.68,3.74,4.68,8.3Z" fill="none" stroke="#333a46" stroke-linecap="round" stroke-linejoin="round" stroke-width="5.19"/><path d="M27.64,71.06s-9.48-.79-13.26-3.31S4.69,61.63,3.67,53.21C3,47.34,2.14,31.54,2.9,30.26s.26-4.84,4.08-5.1,19.38-4.59,26.27,12.5,5.61,18.87,9.18,18.1,8.42-6.12,9.69-7.9,2.81-4.85,4.59-5.1,7.14,1.78,4.34,9.43S50.34,67.24,43.45,69A84.45,84.45,0,0,1,27.64,71.06Z" fill="#fff" stroke="#333a46" stroke-miterlimit="10" stroke-width="5.19"/></g></g></svg>