<?xml version="1.0" encoding="UTF-8"?><svg id="_レイヤー_2" xmlns="http://www.w3.org/2000/svg" width="99.39" height="77.44" viewBox="0 0 99.39 77.44"><defs><style>.cls-1{fill:#4d4d4d;stroke-width:0px;}</style></defs><g id="DESIGN"><path class="cls-1" d="M93.06,0H6.34C2.84,0,0,2.84,0,6.34v64.77c0,3.49,2.84,6.34,6.34,6.34h86.72c3.49,0,6.34-2.84,6.34-6.34V6.34c0-3.49-2.84-6.34-6.34-6.34ZM95.52,71.11c0,1.36-1.1,2.46-2.46,2.46H6.34c-1.36,0-2.46-1.1-2.46-2.46V6.34c0-1.36,1.1-2.46,2.46-2.46h86.72c1.36,0,2.46,1.1,2.46,2.46v64.77Z"/><path class="cls-1" d="M61.39,7.53h-23.39c-1.07,0-1.94.87-1.94,1.94v19.45c0,1.07.87,1.94,1.94,1.94h23.39c1.07,0,1.94-.87,1.94-1.94V9.47c0-1.07-.87-1.94-1.94-1.94ZM59.45,26.98h-19.51v-15.57h19.51v15.57Z"/><path class="cls-1" d="M46.36,33.74h-8.35c-1.07,0-1.94.87-1.94,1.94v6.8c0,1.07.87,1.94,1.94,1.94h8.35c1.07,0,1.94-.87,1.94-1.94v-6.8c0-1.07-.87-1.94-1.94-1.94ZM44.42,40.54h-4.48v-2.92h4.48v2.92Z"/><path class="cls-1" d="M61.39,33.74h-8.35c-1.07,0-1.94.87-1.94,1.94v6.8c0,1.07.87,1.94,1.94,1.94h8.35c1.07,0,1.94-.87,1.94-1.94v-6.8c0-1.07-.87-1.94-1.94-1.94ZM59.45,40.54h-4.48v-2.92h4.48v2.92Z"/><path class="cls-1" d="M24.16,7.53h-11.13c-3.27,0-5.94,2.66-5.94,5.94v16.71c0,3.27,2.66,5.94,5.94,5.94h11.13c3.27,0,5.94-2.66,5.94-5.94V13.47c0-3.27-2.66-5.94-5.94-5.94ZM26.22,30.18c0,1.14-.92,2.06-2.06,2.06h-11.13c-1.14,0-2.06-.92-2.06-2.06V13.47c0-1.14.92-2.06,2.06-2.06h11.13c1.14,0,2.06.92,2.06,2.06v16.71Z"/><path class="cls-1" d="M24.16,41.12h-11.13c-3.27,0-5.94,2.66-5.94,5.94v16.71c0,3.27,2.66,5.94,5.94,5.94h11.13c3.27,0,5.94-2.66,5.94-5.94v-16.71c0-3.28-2.66-5.94-5.94-5.94ZM26.22,63.77c0,1.14-.92,2.06-2.06,2.06h-11.13c-1.14,0-2.06-.92-2.06-2.06v-16.71c0-1.14.92-2.06,2.06-2.06h11.13c1.14,0,2.06.93,2.06,2.06v16.71Z"/><path class="cls-1" d="M86.52,7.53h-11.13c-3.28,0-5.94,2.66-5.94,5.94v16.71c0,3.27,2.66,5.94,5.94,5.94h11.13c3.28,0,5.94-2.66,5.94-5.94V13.47c0-3.27-2.66-5.94-5.94-5.94ZM88.59,30.18c0,1.14-.93,2.06-2.06,2.06h-11.13c-1.14,0-2.06-.92-2.06-2.06V13.47c0-1.14.93-2.06,2.06-2.06h11.13c1.14,0,2.06.92,2.06,2.06v16.71Z"/><path class="cls-1" d="M86.52,41.12h-11.13c-3.28,0-5.94,2.66-5.94,5.94v16.71c0,3.27,2.66,5.94,5.94,5.94h11.13c3.28,0,5.94-2.66,5.94-5.94v-16.71c0-3.28-2.66-5.94-5.94-5.94ZM88.59,63.77c0,1.14-.93,2.06-2.06,2.06h-11.13c-1.14,0-2.06-.92-2.06-2.06v-16.71c0-1.14.93-2.06,2.06-2.06h11.13c1.14,0,2.06.93,2.06,2.06v16.71Z"/></g></svg>