<svg xmlns="http://www.w3.org/2000/svg" width="76.44" height="72.36" viewBox="0 0 76.44 72.36"><title>icon01-09</title><g id="a8810e13-d957-4d15-903f-4652a3517384" data-name="レイヤー 2"><g id="e3b5bafd-f6da-4944-b07c-51e9b2424f1f" data-name="DESIGN"><g id="b670f601-0b6c-4847-b88c-56bc2af2e5e0" data-name="24H"><g id="a93495eb-b64a-42e2-be82-51822565bbdc" data-name="24h"><g id="fea7f4eb-9505-4c00-9007-f22514bdd9a2" data-name="text"><path d="M28.59,41.88H20.71a7.94,7.94,0,0,1,1.2-1.19,21.52,21.52,0,0,1,1.75-1.26c.59-.38,1.19-.79,1.8-1.2a9.15,9.15,0,0,0,1.63-1.38,6.25,6.25,0,0,0,1.18-1.76,5.74,5.74,0,0,0,.45-2.38,5.54,5.54,0,0,0-.52-2.41,5.17,5.17,0,0,0-1.37-1.81,6.25,6.25,0,0,0-2-1.13,7.64,7.64,0,0,0-5.28.17,5.74,5.74,0,0,0-2.1,1.58,6.51,6.51,0,0,0-1.25,2.34,8.66,8.66,0,0,0-.37,2.88.23.23,0,0,0,.23.21h3.42a.22.22,0,0,0,.22-.22,7.26,7.26,0,0,1,.14-1.38,3.89,3.89,0,0,1,.44-1.24,2.51,2.51,0,0,1,.8-.88,2.06,2.06,0,0,1,1.19-.33,2.41,2.41,0,0,1,1.75.66A2.44,2.44,0,0,1,24.7,33a2.62,2.62,0,0,1-.34,1.32,4.7,4.7,0,0,1-.86,1.08,8.06,8.06,0,0,1-1.17.9c-.43.27-.85.55-1.24.82-.76.52-1.48,1-2.16,1.54a10.82,10.82,0,0,0-1.81,1.68,7.16,7.16,0,0,0-1.69,4.84.22.22,0,0,0,.22.23H28.59a.23.23,0,0,0,.23-.23V42.1A.22.22,0,0,0,28.59,41.88Z" fill="#333a46"/><path d="M42.72,37.93H40.6V27.55a.22.22,0,0,0-.22-.22h-3.2a.21.21,0,0,0-.18.09L29.35,37.69a.21.21,0,0,0-.05.13V41.1a.22.22,0,0,0,.23.22h7.23v3.85a.22.22,0,0,0,.22.23h3.4a.22.22,0,0,0,.22-.23V41.32h2.12a.22.22,0,0,0,.22-.22v-3A.22.22,0,0,0,42.72,37.93Zm-6-5.33v5.33h-4Z" fill="#333a46"/><path d="M56.7,34.92a4.45,4.45,0,0,0-.78-1.78A3.77,3.77,0,0,0,54.38,32a6.34,6.34,0,0,0-2.44-.41,4.93,4.93,0,0,0-2.17.54,4.29,4.29,0,0,0-1.49,1.24V27.2a.22.22,0,0,0-.22-.23H44.48a.22.22,0,0,0-.22.23v18a.22.22,0,0,0,.22.23h3.58a.22.22,0,0,0,.22-.23V38.35a4.66,4.66,0,0,1,.61-2.72,2.25,2.25,0,0,1,1.94-.78,1.73,1.73,0,0,1,1.6.69,4.38,4.38,0,0,1,.47,2.28v7.35a.22.22,0,0,0,.22.23h3.57a.23.23,0,0,0,.23-.23v-8A11.07,11.07,0,0,0,56.7,34.92Z" fill="#333a46"/></g><path id="a9f4eed2-d249-467a-8f0f-64844056e6b5" data-name="arrow" d="M52.49,20.32a3.1,3.1,0,0,0,1.78,4L66.59,29l.06,0,.12,0,.19.06.12,0,.2,0h.11l.3,0h.45l.1,0,.12,0,.1,0,.12,0,.09,0,.12,0,.09,0L69,29l.08,0,.12-.06.08-.05.11-.07a.18.18,0,0,0,.07,0l.11-.08a.18.18,0,0,0,.07-.05l.11-.09.07-.06.09-.09.07-.07.08-.1.07-.08L70.2,28l.06-.09.06-.1a.53.53,0,0,0,.06-.1.6.6,0,0,0,.06-.11.31.31,0,0,0,0-.1h0l5.64-11.93a3.1,3.1,0,1,0-5.6-2.64l-2.72,5.75a36.2,36.2,0,1,0,2.68,28.9,3.09,3.09,0,0,0-5.87-2,29.92,29.92,0,1,1-2.85-25l-5.29-2A3.1,3.1,0,0,0,52.49,20.32Z" fill="#333a46"/></g></g></g></g></svg>