<svg xmlns="http://www.w3.org/2000/svg" width="71.55" height="61.91" viewBox="0 0 71.55 61.91"><title>icon01-02</title><g id="b63eb0d0-3325-45e7-bc3c-f3fb1455ca93" data-name="レイヤー 2"><g id="ad57c814-c529-4845-86d5-db0935c256eb" data-name="DESIGN"><path d="M67.93,47.89l0,0v0a8.45,8.45,0,0,1-3.72,4.26A22.48,22.48,0,0,1,57,54.61c-6.15,1.08-12.95,1.19-20.55,1.23s-14.4-.15-20.56-1.23a22.57,22.57,0,0,1-7.17-2.4A8.45,8.45,0,0,1,5,48v-.06c-.66-1.59-.87-4.2,0-7.53.32,0,.65,0,1,0a14.1,14.1,0,0,0,12.28-7.08L22.39,26H50.52l4.17,7.32A14.11,14.11,0,0,0,67,40.4c.32,0,.65,0,1,0C68.79,43.69,68.58,46.3,67.93,47.89Z" fill="#fff"/><path d="M68.64,34.31a7.16,7.16,0,0,1-1,.62,7.49,7.49,0,0,1-3.41.82,7.29,7.29,0,0,1-6.35-3.63l-4.82-8.47a4.51,4.51,0,0,0-1.33-1.33H19.81a4.65,4.65,0,0,0-1.34,1.33l-4.81,8.47a7.3,7.3,0,0,1-6.35,3.63h0a7.45,7.45,0,0,1-3.4-.82,7.16,7.16,0,0,1-1-.62c-3,6-3.75,12.13-1.93,16.55,2.54,6.33,8.43,8.64,14.56,9.81s13,1.21,20.23,1.24,14-.14,20.24-1.24,12-3.48,14.56-9.81C72.39,46.44,71.64,40.33,68.64,34.31Zm-3.5,14.3,0,0v0a7.8,7.8,0,0,1-3.47,4A21,21,0,0,1,55,54.89C49.21,55.89,42.87,56,35.77,56s-13.43-.14-19.17-1.14a21,21,0,0,1-6.69-2.24,7.8,7.8,0,0,1-3.47-4v0l0,0a11.63,11.63,0,0,1,0-7c.3,0,.6,0,.91,0A13.16,13.16,0,0,0,18.76,35l3.89-6.84H48.9L52.79,35a13.16,13.16,0,0,0,11.45,6.6c.31,0,.61,0,.91,0A11.63,11.63,0,0,1,65.14,48.61Z" fill="#333a46"/><path d="M4.86,33.06a5.28,5.28,0,0,0,7-2l4.83-8.5a6.28,6.28,0,0,1,2.66-2.37h32.9a6.17,6.17,0,0,1,2.66,2.37l4.84,8.5a5.19,5.19,0,0,0,4.52,2.56,5.36,5.36,0,0,0,2.45-.59,4.76,4.76,0,0,0,2.07-6.63l-4.85-8.54a.43.43,0,0,1,0-.07c-2.17-3.67-6.8-7.39-11.47-7.39H19.15c-4.67,0-9.3,3.72-11.47,7.39l0,.07L2.79,26.43A4.76,4.76,0,0,0,4.86,33.06Z" fill="#333a46"/><path d="M30.18,9.17a4.59,4.59,0,1,0-4.59-4.58A4.59,4.59,0,0,0,30.18,9.17Z" fill="#333a46"/><path d="M41.37,9.17a4.59,4.59,0,1,0-4.59-4.58A4.59,4.59,0,0,0,41.37,9.17Z" fill="#333a46"/></g></g></svg>