<svg xmlns="http://www.w3.org/2000/svg" width="92.73" height="92.76" viewBox="0 0 92.73 92.76"><title>icon01-10</title><g id="b4f13260-69a4-47a9-88c1-de5c53dea362" data-name="レイヤー 2"><g id="a3f9f932-2057-4052-8928-2a1dc9906edc" data-name="DESIGN"><path d="M46.36,90.38a44,44,0,1,0-44-44,44.08,44.08,0,0,0,44,44Z" fill="#fff" stroke="#333a46" stroke-miterlimit="10" stroke-width="4.76" fill-rule="evenodd"/><path d="M19.76,47H59.91a15.89,15.89,0,0,0,5.28.87H66v20a2.4,2.4,0,0,1-2.42,2.39H58.65a2.4,2.4,0,0,1-2.39-2.39V63.07H25.73v4.75a2.4,2.4,0,0,1-2.42,2.39H18.37A2.4,2.4,0,0,1,16,67.82V47l6-13.43c.55-1.21,1.1-2.39,2.42-2.39H48.88a1.54,1.54,0,0,0,0,.37,15.23,15.23,0,0,0,.24,2.73H26.36c-1.16,0-1.68.95-2.1,1.95ZM65.19,18.53a13,13,0,1,1-13,13,13,13,0,0,1,13-13Zm0,2.08a10.92,10.92,0,1,1-10.93,10.9,10.91,10.91,0,0,1,10.93-10.9ZM57.92,50.19a4.88,4.88,0,1,1-4.87,4.86,4.87,4.87,0,0,1,4.87-4.86Zm-33.87,0a4.88,4.88,0,1,1-4.86,4.86,4.87,4.87,0,0,1,4.86-4.86Z" fill="#333a46" stroke="#333a46" stroke-linecap="round" stroke-linejoin="round" stroke-width="1.92" fill-rule="evenodd"/><path d="M65.62,20.09A11.7,11.7,0,1,1,53.91,31.78,11.7,11.7,0,0,1,65.62,20.09Z" fill="#333a46" fill-rule="evenodd"/><path d="M71.48,27a3.87,3.87,0,0,0-1-1.42A4.49,4.49,0,0,0,69,24.78a11.55,11.55,0,0,0-2.61-.26H62.54a2.08,2.08,0,0,0-1.41.42,1.83,1.83,0,0,0-.45,1.42V37.63A2,2,0,0,0,61.07,39a1.42,1.42,0,0,0,1.08.45A1.33,1.33,0,0,0,63.2,39a1.83,1.83,0,0,0,.42-1.34V33.45h2.73a6.31,6.31,0,0,0,4.1-1.12,4.22,4.22,0,0,0,1.37-3.39A5,5,0,0,0,71.48,27Z" fill="#fff" fill-rule="evenodd"/><path d="M65.64,26.84h-2v4.5h2a5.5,5.5,0,0,0,1.76-.24,1.93,1.93,0,0,0,1.08-.71,2.19,2.19,0,0,0,.37-1.31,2.1,2.1,0,0,0-.58-1.58,3.81,3.81,0,0,0-2.63-.66Z" fill="#333a46" fill-rule="evenodd"/></g></g></svg>