<svg xmlns="http://www.w3.org/2000/svg" width="66.48" height="71.28" viewBox="0 0 66.48 71.28"><title>icon01-12</title><g id="b258432e-d979-4630-8c0c-0c60e7184961" data-name="レイヤー 2"><g id="a1aa337b-a5f4-4d47-8df9-6db67f94ca4a" data-name="DESIGN"><path d="M56.51,0H10A10,10,0,0,0,0,10V61.3a10,10,0,0,0,10,10H56.51a10,10,0,0,0,10-10V10A10,10,0,0,0,56.51,0Zm4.72,8.62v54a3.5,3.5,0,0,1-3.5,3.49h-49a3.49,3.49,0,0,1-3.5-3.49v-54a3.5,3.5,0,0,1,3.5-3.5h49a3.5,3.5,0,0,1,3.5,3.5Z" fill="#333a46"/><path d="M12.25,59.16h42v-47h-42Zm21-31.49a7,7,0,0,1,3.5,13v8a3.5,3.5,0,1,1-7,0v-8a7,7,0,0,1,3.5-13Z" fill="#333a46"/></g></g></svg>