<?xml version="1.0" encoding="UTF-8"?><svg id="_レイヤー_2" xmlns="http://www.w3.org/2000/svg" width="1025.5581" height="37.2854" viewBox="0 0 1025.56 37.29"><defs><style>.cls-1{fill:#000;stroke-width:0px;}</style></defs><g id="DESIGN"><path class="cls-1" d="M0,28.26V.56h3.98v5.08h13.23v4H3.9v16.41c-.01,1.76.4,2.92,1.25,3.49.85.56,2.02.84,3.52.83h8.54v4H7.24c-2.11-.07-3.8-.58-5.09-1.55-1.29-.96-2.01-2.48-2.16-4.56ZM20.87,10.46c-.77-.77-1.16-1.71-1.16-2.83,0-1.18.39-2.14,1.16-2.87.78-.77,1.74-1.16,2.87-1.16s2.06.39,2.83,1.16c.8.8,1.2,1.75,1.2,2.87,0,1.05-.4,1.99-1.2,2.83-.78.8-1.73,1.2-2.83,1.2s-2.07-.4-2.87-1.2ZM21.57,7.64c0,.65.21,1.16.64,1.53.37.43.88.64,1.53.64s1.16-.21,1.53-.64c.43-.43.64-.94.64-1.53s-.21-1.1-.64-1.53c-.43-.43-.94-.64-1.53-.64s-1.1.21-1.53.64c-.43.43-.64.94-.64,1.53Z"/><path class="cls-1" d="M41.08,20.72v-5.9h-6.89v-3.74h10.67v9.52c0,.92-.11,1.85-.33,2.79l-1.51,6.38h4.75v3.45h-15.75v-3.45h7.2l1.51-6.81c.21-.89.32-1.64.35-2.23Z"/><path class="cls-1" d="M80.77,5.61v6.77c-.08,2.22-.69,4.12-1.84,5.72l-3.24,4.09-2.79-2.37,2.39-3.03c.91-1.06,1.38-2.3,1.42-3.72v-3.43h-16.1v-4.02h20.14ZM68.02,14.08h4.13v6.77c-.04,2.04-.48,3.87-1.3,5.51l-4.64,8.73-3.53-1.71,4.38-8.26c.81-1.4,1.14-3.03.97-4.87v-6.17Z"/><path class="cls-1" d="M106.87,18c1.24.48,2.31,1.22,3.23,2.22.92,1,1.42,2.45,1.52,4.37v9.78h-3.74v-8.94c-.04-1.51-.31-2.54-.82-3.07-.5-.53-1.16-.96-1.97-1.29l-8.83,14.3-3.47-2,10.2-16.47c.61-1.33.95-2.45,1.04-3.34.09-.89.13-2.19.13-3.88h-9.64v-4.07h13.91v6.71c-.1,2.04-.62,3.93-1.57,5.68Z"/><path class="cls-1" d="M142,14.84l-5.86-4.07c-1.2-.74-2.47-1.11-3.82-1.09h-2.62v24.69h-4.07V.56h4.02l.02,5.08h3.47c1.53.12,3.05.71,4.56,1.75l6.4,4.15-2.1,3.3Z"/><path class="cls-1" d="M156.43,34.37V5.63h3.86l.02,24.38,1.71-.02c1.66-.43,2.69-1.29,3.08-2.6l4.95-9.8,3.47,1.69-5.78,11.5c-.73,1.11-1.57,1.97-2.51,2.56-.94.59-2.17.94-3.68,1.03h-5.12Z"/><path class="cls-1" d="M187.09,34.37v-4.07h3.05c1.64,0,2.84-.35,3.62-1.06.78-.71,1.37-1.8,1.79-3.27l4.93-17.03c.5-1.71,1.6-2.81,3.3-3.3h2.97v4.05h-1.65c-.29.14-.54.41-.74.83l-5.37,18.08c-.41,1.69-1.34,3.08-2.79,4.16-1.44,1.08-3.27,1.62-5.47,1.62h-3.65ZM191.44,12.26l.04-1.75c-.1-.51-.37-.78-.83-.83h-3.57v-4.05h5.88c.88.07,1.55.31,2.01.72.46.41.7,1.05.71,1.92v3.98h-4.25Z"/><path class="cls-1" d="M231.8,9.64h-5.76l-4.58,11.87-3.65-1.34,4.05-10.49c.92-2.41,1.61-4.77,2.06-7.1l.5-2.58,3.88.43-.83,5.2h8.61v8.01c-.06,3.67-.94,6.56-2.66,8.67l-10.4,13.13-3.24-2.5,10.42-13.27c.98-1.31,1.5-2.78,1.57-4.42l.04-5.61ZM238.13,3.03h1.94v9.12h-1.94V3.03ZM242.12,3.03h1.94v9.12h-1.94V3.03Z"/><path class="cls-1" d="M263.24,18c1.24.48,2.31,1.22,3.23,2.22.92,1,1.42,2.45,1.52,4.37v9.78h-3.74v-8.94c-.04-1.51-.31-2.54-.82-3.07-.5-.53-1.16-.96-1.97-1.29l-8.83,14.3-3.47-2,10.2-16.47c.61-1.33.95-2.45,1.04-3.34.09-.89.13-2.19.13-3.88h-9.64v-4.07h13.91v6.71c-.1,2.04-.62,3.93-1.57,5.68Z"/><path class="cls-1" d="M283.84,3.38l2.76,1.01c-.86,2.33-1.89,4.66-3.11,6.98v24.23h-2.79v-19.52c-.87,1.35-1.9,2.73-3.1,4.13-.37-1.09-.91-2.21-1.62-3.35,1.6-1.64,3.09-3.65,4.47-6.02,1.38-2.4,2.51-4.88,3.39-7.46ZM305.65,13.7v3.03h-2.15v9.91h-2.9v-1.74h-6.08c-.97,4.85-3.59,8.48-7.86,10.89-.61-1.01-1.27-1.85-2-2.53,3.61-1.75,5.91-4.54,6.89-8.36h-4.98v-3.06h5.48c.11-.96.17-2.16.17-3.59v-1.51h-7.37v-3.03h7.37v-5.04h-5.29v-3.03h16.58v8.07h2.15ZM300.61,21.84v-5.11h-5.48v1.51c0,1.23-.05,2.43-.15,3.59h5.63ZM295.13,8.66v5.04h5.48v-5.04h-5.48Z"/><path class="cls-1" d="M310.38,31.35h28.14v3.03h-28.14v-3.03ZM311.02,5.4h26.98v3.03h-26.98v-3.03ZM314.41,11.69h20.36v11.7h-20.36v-11.7ZM316.77,24.8l2.66-.84c1.19,2.26,1.94,4.3,2.26,6.12l-2.85.96c-.27-1.74-.96-3.82-2.07-6.24ZM317.28,14.61v5.85h14.46v-5.85h-14.46ZM329.41,23.63l3.3.93c-1.5,3.31-2.54,5.49-3.14,6.52l-2.66-.89c1.08-2.11,1.92-4.29,2.51-6.55Z"/><path class="cls-1" d="M368.24,22.82l2.38,1.81c-1.86,1.53-4.05,3-6.56,4.44,2.34,1.81,5.12,3.06,8.33,3.73-.71.69-1.34,1.66-1.87,2.92-3.52-.88-6.46-2.4-8.81-4.54-2.35-2.11-4.2-4.9-5.54-8.36h-4.13v8.43l7.65-1.31.15,2.89c-4.17.81-8.86,1.67-14.07,2.56l-.7-2.99s.18-.02.44-.06c.26-.04.75-.12,1.46-.23.71-.11,1.4-.22,2.07-.33v-8.96h-5.42v-2.92h5.45V4.62h19.6v2.73h-16.63v2.44h15.7v2.6h-15.7v2.43h15.7v2.61h-15.7v2.46h19.78v2.92h-3.58ZM368.17,22.82h-9.01c.81,1.67,1.8,3.15,2.96,4.44,2.63-1.64,4.65-3.12,6.05-4.44Z"/><path class="cls-1" d="M404.22,5.07v26.85c0,1.67-.45,2.74-1.36,3.2-.75.38-2.46.57-5.11.57-.14-.91-.47-1.93-.98-3.06.51.02,1.28.06,2.34.1.9,0,1.41-.01,1.53-.03.46-.03.7-.3.7-.81V8.16h-20.51v27.45h-2.89V5.07h26.28ZM398.26,30.89h-2.54v-1.72h-9.6v2.29h-2.51v-11.8h2.51v6.79h3.42v-9.08h-7.42v-2.75h4.15c-.37-1.8-1.08-3.53-2.12-5.18l2.34-.88c1.15,1.61,1.91,3.32,2.29,5.14l-2.23.91h8.62l-2.12-.71c.92-1.82,1.63-3.67,2.12-5.56l2.89.84c-1.51,3.1-2.43,4.9-2.76,5.42h4.88v2.75h-7.96v9.08h3.48v-6.79h2.54v11.23Z"/><path class="cls-1" d="M431.94,14.96l.02-.7c.16-2.73,1.91-4.85,4.25-5.9,2.36-1.09,3.38-2.22,3.38-3.59,0-1.54-1.16-2.61-3.15-2.61-1.65,0-3.05,1.26-3.15,3.31l-1.24-.28c.17-2.61,2.15-4.17,4.45-4.17,2.82,0,4.45,1.56,4.45,3.73,0,1.87-1.19,3.26-4.06,4.55-2,.89-3.41,2.59-3.5,4.48h7.72v1.17h-9.15Z"/><path class="cls-1" d="M453.03,11.84v3.12h-1.19v-3.12h-6.95v-1.17l6.98-9.36h1.16v9.4h2.56v1.14h-2.56ZM451.84,3.18l-5.64,7.53h5.64V3.18Z"/><path class="cls-1" d="M460.61,13.87v1.75h-1.05V1.62h4.64v12.25h-3.59ZM463.15,2.63h-2.54v4.52h2.54V2.63ZM463.15,8.16h-2.54v4.69h2.54v-4.69ZM472.58,6.78v2.22h1.91v1.02h-1.91v3.24c0,2.87-.67,2.99-2.75,2.99h-.67l-.38-1.14h.98c1.7,0,1.77-.12,1.77-1.96v-3.13h-6.09v-1.02h6.09v-2.22h-6.39v-1.02h4.22v-2.28h-3.57v-1.02h3.57V.52h1.05v1.96h3.47v1.02h-3.47v2.28h4.22v1.02h-2.05ZM468.49,14.06s-.91-1.47-2.12-2.73l.77-.65c1.21,1.31,2.15,2.7,2.15,2.7l-.81.68Z"/><path class="cls-1" d="M480.04,7.18v9.08h-1.05V1.06h6.37v6.13h-5.32ZM484.31,2.07h-4.27v1.58h4.27v-1.58ZM484.31,4.59h-4.27v1.61h4.27v-1.61ZM482.35,14.48v-5.83h7.19v5.83h-7.19ZM488.49,9.56h-5.09v1.54h5.09v-1.54ZM488.49,12h-5.09v1.58h5.09v-1.58ZM489.63,16.23l-.39-1.09c.26,0,.51.02.72.02,1.8,0,2.01-.35,2.01-2.31v-5.67h-5.32V1.06h6.37v12.16c0,2.89-1.03,3.01-3.4,3.01ZM491.98,2.07h-4.27v1.58h4.27v-1.58ZM491.98,4.59h-4.27v1.61h4.27v-1.61Z"/><path class="cls-1" d="M511.4,6.47v-2.33h-12.27v2.35h-1.05v-3.36h2.84c-.32-.39-.84-1.09-1.49-1.91l.96-.54c.91,1.19,1.45,2.01,1.75,2.45h2.96c-.35-.51-.75-1.21-1.38-2.14l.98-.46c.79,1.28,1.26,2.15,1.49,2.59h2.17c.4-.44,1.1-1.31,1.82-2.57l.98.53c-.54.86-.86,1.3-1.5,2.05h2.8v3.34h-1.05ZM510.41,16.27v-.91h-10.31v.91h-1.05v-5.37h4.15c.35-.4.67-1.03.82-1.42h-3.66v-3.87h9.78v3.87h-4.99c-.12.31-.37.91-.82,1.42h7.12v5.37h-1.05ZM510.41,11.91h-10.31v2.43h10.31v-2.43ZM509.09,6.62h-7.68v1.84h7.68v-1.84Z"/><path class="cls-1" d="M531.83,15.83c-3.22-.86-4.38-1.72-6.55-3.57h-.26v4.01h-1.05v-4.01h-.26c-1.56,1.54-3.27,2.68-6.51,3.57l-.54-1c2.82-.56,4.66-1.58,5.86-2.57h-5.11v-.95h6.56v-1.58h-5.36v-.95h5.36v-1.56h-6.02v-.95h3.78c-.37-.86-.82-1.54-1.02-1.86h-3.61v-1.02h2.61c-.37-.53-1-1.31-1.68-2.12l.93-.53c.93,1.17,1.65,2.24,1.91,2.64h1.28V.52h1.05v2.91h2.61V.52h1.05v2.91h1.49c.35-.39,1.14-1.56,1.7-2.66l.98.44c-.68,1.05-1.14,1.72-1.52,2.22h2.52v1.02h-3.75c-.14.31-.51,1.03-.98,1.86h3.75v.95h-6.02v1.56h5.41v.95h-5.41v1.58h6.6v.95h-5.16c1.66,1.38,3.71,2.21,5.92,2.57l-.54,1ZM521.89,4.44c.25.45.6,1.12.91,1.86h3.41c.47-.73.81-1.4.98-1.86h-5.3Z"/><path class="cls-1" d="M538.34,9.48v-2.14h2.08v2.14h-2.08Z"/><path class="cls-1" d="M555.88,12.42v3.85h-1.12v-3.85h-8.3v-1.05h3.26v-4.52h5.04v-2.91h-4.45c-.68,1.09-1.59,2.07-2.77,2.98l-.72-.95c2.43-1.84,3.57-4.15,3.97-5.44l1.14.26s-.49,1.38-1,2.1h10.5v1.05h-5.57v2.91h4.83v1.05h-4.83v3.47h6.2v1.05h-6.2ZM554.76,7.9h-3.92v3.47h3.92v-3.47Z"/><path class="cls-1" d="M579.3,12.19v-1.54h-5.18v5.62h-1.16v-5.62h-5.16v1.54h-1.12V3.58h6.28V.52h1.16v3.06h6.3v8.61h-1.12ZM572.96,4.65h-5.16v4.94h5.16v-4.94ZM579.3,4.65h-5.18v4.94h5.18v-4.94Z"/><path class="cls-1" d="M597.94,7.45v3.13h1.8v1.02h-13.97v-1.02h2.07v-3.13h-2.64v-1.02h2.64v-3.03c-.6.51-1.42,1.09-2.35,1.58l-.6-.95c3.2-1.66,4.22-3.52,4.22-3.52l.93.47s-.54.82-1.15,1.4h10.85v1.02h-1.8v3.03h2.57v1.02h-2.57ZM585.79,16.27l-.89-.75s1.59-1.7,2.05-3.34l.93.3c-.47,1.84-2.08,3.8-2.08,3.8ZM590.87,3.4h-2.01v3.03h2.01v-3.03ZM590.87,7.45h-2.01v3.13h2.01v-3.13ZM590.71,16.13s-.05-1.84-.38-3.54l.96-.14c.4,1.79.47,3.45.47,3.45l-1.05.23ZM593.9,3.4h-2.01v3.03h2.01v-3.03ZM593.9,7.45h-2.01v3.13h2.01v-3.13ZM595.03,16.01s-.39-1.7-.93-3.38l.95-.21c.61,1.72,1,3.27,1,3.27l-1.02.31ZM596.92,3.4h-2.01v3.03h2.01v-3.03ZM596.92,7.45h-2.01v3.13h2.01v-3.13ZM599.71,16.23s-.79-1.98-1.93-3.76l.89-.4c1.35,2.14,1.98,3.61,1.98,3.61l-.95.56Z"/><path class="cls-1" d="M607.43,4.87v11.39h-1.05V6.15c-.49.74-1.12,1.7-1.77,2.42l-.47-1.02c2.19-2.54,3.87-5.41,4.34-7.04l.94.35c-.28.95-.96,2.4-2,4.01ZM619.2,13.17c-1.51-1.47-2.84-3.12-4.41-6.55v9.64h-1.05V6.73c-1.09,2.85-2.49,5.09-4.38,6.7l-.82-.95c1.94-1.45,3.76-3.96,4.94-7.12h-4.32v-1.05h4.59V.52h1.05v3.8h4.59v1.05h-4.36c1.82,3.62,3.01,5.13,4.9,6.72l-.72,1.09Z"/><path class="cls-1" d="M444.51,36.06c-1.33-1.59-3.68-3.41-5.55-4.71-1.65,1.87-3.75,3.54-6.56,5.02l-1.02-.89c5.16-2.14,9.22-6.91,10.57-11.06h-2.33c-2.17,0-4.8.02-6.51.09v-1.14c1.35.04,3.22.07,5.08.07,1.58,0,3.15-.02,4.36-.09l.84.63c-1.02,2.43-2.19,4.64-3.78,6.62,1.87,1.21,4.11,2.89,5.92,4.57l-1.02.89Z"/><path class="cls-1" d="M450.32,36.92l-.88-1.02c3.41-.7,6.25-2.15,8.4-4.31-1.24-1.07-2.64-2.01-3.99-2.78l.77-.74c1.26.74,2.66,1.61,4.01,2.64,1.29-1.52,2.31-3.36,2.99-5.53-1.56.02-4.85.02-7.4.07-1.12,1.56-2.48,3.03-4.2,4.34l-.91-.81c3.13-2.05,4.76-4.59,5.88-6.95l1.15.3c-.38.72-.79,1.42-1.24,2.14.81,0,1.68.02,2.56.02,1.63,0,3.29-.02,4.74-.1l.79.6c-2.54,6.98-5.78,10.03-12.67,12.13Z"/><path class="cls-1" d="M468.75,29.36c-.31-1.3-.72-2.52-1.24-3.61l.93-.28c.49,1.12.93,2.24,1.29,3.48l-.98.4ZM470.48,36.81l-.77-.82c5.95-1.37,8.14-5.85,8.4-10.85l1.05.16c-.68,5.55-2.61,9.64-8.68,11.52ZM472.83,28.78c-.19-1.07-.58-2.54-.93-3.57l.96-.19c.37,1.12.75,2.49.96,3.5l-1,.26Z"/><path class="cls-1" d="M487.72,36.66l-.82-.95c5.93-1.51,9.26-6.13,9.71-11.18-2.73,0-9.5.02-12.11.14l-.04-1.12c1.66.04,3.61.05,5.55.05,2.57,0,5.15-.04,7.11-.09l.7.51c-.95,6.79-3.94,10.68-10.1,12.64Z"/><path class="cls-1" d="M507.99,35.99c-.61-1.14-1.38-2.43-2.05-3.4-.84,1.68-2.19,3.34-3.82,4.67l-.77-.89c1.52-1.09,3.04-2.84,3.9-4.5-1.49-2.05-2.91-3.76-2.91-3.76l.79-.77s1.42,1.86,2.59,3.54c.63-1.66.79-3.85.79-5.32h-4.9v-1.02h3.03v-3.03h1.07v3.03h3.06v1.02h-1.17c-.05,1.86-.46,4.5-1.19,6.13.79,1.09,1.61,2.26,2.42,3.54l-.84.77ZM515.29,26.24v8.03c0,2.87-.88,2.99-2.96,2.99h-.67l-.39-1.14h.67c2.01,0,2.26-.09,2.26-1.96v-7.93h-4.94v-1.02h4.94v-3.71h1.08v3.71h1.87v1.02h-1.87ZM511.84,32.28s-.7-1.7-2-3.66l.89-.51c1.26,1.93,2.05,3.62,2.05,3.62l-.95.54Z"/><path class="cls-1" d="M522.99,24.21v1.94c0,5.99-.49,8.82-1.47,11.13l-.86-.96c.88-2.05,1.28-4.83,1.28-10.17v-2.98h6.41v-1.66h1.05v1.66h6.58v1.03h-12.99ZM524.23,35.22l-.84-.89c1.52-2.29,1.84-5.71,1.84-5.71l1.03.33s-.38,3.68-2.03,6.27ZM531.99,36.43h-2.89c-1.44,0-1.72-.68-1.72-1.82v-6.86h1.08v6.46c0,1,.02,1.14,1.16,1.14h1.94c.89,0,1.17,0,1.42-2.43l1.03.65c-.35,2.84-1.1,2.87-2.03,2.87ZM531.48,28.71s-1.23-1.72-2.84-2.82l.72-.72c1.71,1.24,2.96,2.8,2.96,2.8l-.84.74ZM535.47,34.19c-.63-1.72-1.08-2.96-2.38-5.08l.93-.56c1.31,2.17,1.89,3.59,2.4,5.06l-.95.58Z"/><path class="cls-1" d="M541.65,34.87v1.75h-1.05v-14h4.64v12.25h-3.59ZM544.19,23.63h-2.54v4.52h2.54v-4.52ZM544.19,29.16h-2.54v4.69h2.54v-4.69ZM553.62,27.78v2.22h1.91v1.02h-1.91v3.24c0,2.87-.67,2.99-2.75,2.99h-.67l-.38-1.14h.98c1.7,0,1.77-.12,1.77-1.96v-3.13h-6.09v-1.02h6.09v-2.22h-6.39v-1.02h4.22v-2.28h-3.57v-1.02h3.57v-1.96h1.05v1.96h3.47v1.02h-3.47v2.28h4.22v1.02h-2.05ZM549.53,35.06s-.91-1.47-2.12-2.73l.77-.65c1.21,1.31,2.15,2.7,2.15,2.7l-.81.68Z"/><path class="cls-1" d="M561.08,28.18v9.08h-1.05v-15.21h6.37v6.13h-5.32ZM565.35,23.07h-4.27v1.58h4.27v-1.58ZM565.35,25.59h-4.27v1.61h4.27v-1.61ZM563.39,35.48v-5.83h7.19v5.83h-7.19ZM569.53,30.56h-5.09v1.54h5.09v-1.54ZM569.53,33h-5.09v1.58h5.09v-1.58ZM570.67,37.23l-.39-1.09c.26,0,.51.02.72.02,1.8,0,2.01-.35,2.01-2.31v-5.67h-5.32v-6.13h6.37v12.16c0,2.89-1.03,3.01-3.4,3.01ZM573.02,23.07h-4.27v1.58h4.27v-1.58ZM573.02,25.59h-4.27v1.61h4.27v-1.61Z"/><path class="cls-1" d="M578.63,36.36h-1.05l5.74-14.46h1.05l-5.74,14.46Z"/><path class="cls-1" d="M592.22,35.96v-11.64l-2.28,1.26-.44-1.09c1.14-.47,2.31-1.24,2.89-2.19h1.1v13.65h-1.28Z"/><path class="cls-1" d="M606.04,35.96v-11.64l-2.28,1.26-.44-1.09c1.14-.47,2.31-1.24,2.89-2.19h1.1v13.65h-1.28Z"/><path class="cls-1" d="M616.67,28.27v-1.96h1.58v1.96h-1.58ZM616.67,35.96v-1.96h1.58v1.96h-1.58Z"/><path class="cls-1" d="M628.74,36.24c-3.27,0-4.81-3.05-4.81-7.11s1.54-7.11,4.81-7.11,4.83,3.2,4.83,7.11-1.58,7.11-4.83,7.11ZM628.74,23.2c-2.35,0-3.54,2.7-3.54,5.93s1.19,5.93,3.54,5.93,3.55-2.66,3.55-5.93-1.21-5.93-3.55-5.93Z"/><path class="cls-1" d="M642.57,36.24c-3.27,0-4.81-3.05-4.81-7.11s1.54-7.11,4.81-7.11,4.83,3.2,4.83,7.11-1.58,7.11-4.83,7.11ZM642.57,23.2c-2.35,0-3.54,2.7-3.54,5.93s1.19,5.93,3.54,5.93,3.55-2.66,3.55-5.93-1.21-5.93-3.55-5.93Z"/><path class="cls-1" d="M662.51,30.93c-2.89,0-4.13-2.22-6.76-2.22-1.31,0-2.68.89-3.17,2.12l-.51-.84c.56-1.28,2.05-2.33,3.68-2.33,2.85,0,4.38,2.26,6.77,2.26,1.37,0,2.56-.88,3.08-2.15l.58.86c-.6,1.19-1.96,2.31-3.68,2.31Z"/><path class="cls-1" d="M671.21,35.96l.02-.7c.16-2.73,1.91-4.85,4.25-5.9,2.36-1.09,3.38-2.22,3.38-3.59,0-1.54-1.16-2.61-3.15-2.61-1.65,0-3.05,1.26-3.15,3.31l-1.24-.28c.17-2.61,2.15-4.17,4.45-4.17,2.82,0,4.45,1.56,4.45,3.73,0,1.87-1.19,3.26-4.06,4.55-2,.89-3.41,2.59-3.5,4.48h7.72v1.17h-9.15Z"/><path class="cls-1" d="M689.48,36.24c-3.27,0-4.81-3.05-4.81-7.11s1.54-7.11,4.81-7.11,4.83,3.2,4.83,7.11-1.58,7.11-4.83,7.11ZM689.48,23.2c-2.35,0-3.54,2.7-3.54,5.93s1.19,5.93,3.54,5.93,3.55-2.66,3.55-5.93-1.21-5.93-3.55-5.93Z"/><path class="cls-1" d="M699.98,28.27v-1.96h1.58v1.96h-1.58ZM699.98,35.96v-1.96h1.58v1.96h-1.58Z"/><path class="cls-1" d="M712.06,36.24c-3.27,0-4.81-3.05-4.81-7.11s1.54-7.11,4.81-7.11,4.83,3.2,4.83,7.11-1.58,7.11-4.83,7.11ZM712.06,23.2c-2.35,0-3.54,2.7-3.54,5.93s1.19,5.93,3.54,5.93,3.55-2.66,3.55-5.93-1.21-5.93-3.55-5.93Z"/><path class="cls-1" d="M725.88,36.24c-3.27,0-4.81-3.05-4.81-7.11s1.54-7.11,4.81-7.11,4.83,3.2,4.83,7.11-1.58,7.11-4.83,7.11ZM725.88,23.2c-2.35,0-3.54,2.7-3.54,5.93s1.19,5.93,3.54,5.93,3.55-2.66,3.55-5.93-1.21-5.93-3.55-5.93Z"/><path class="cls-1" d="M739.81,36.52c-2.02-2.19-2.85-4.36-2.85-7.12s.92-5,2.85-7.12l.55.46c-1.74,1.99-2.56,4.1-2.56,6.66s.78,4.64,2.56,6.66l-.55.46Z"/><path class="cls-1" d="M752.27,36.26l-.38-.96c1.99,0,2.51-.03,2.51-.86v-2.48h-7.79c-.18,1.42-.58,2.92-1.44,4.32l-.84-.8c1.45-2.04,1.48-4.88,1.48-6.86v-5.51h9.57v11.39c0,1.59-1.04,1.76-3.11,1.76ZM754.4,28.08h-7.61v1.22c0,.55-.02,1.15-.08,1.78h7.68v-3ZM754.4,24.03h-7.61v3.15h7.61v-3.15Z"/><path class="cls-1" d="M767.21,35.73v.55h-.92v-5.51c-.31.34-.61.69-1.07,1.12l-.41-.57v2.86h-2.83v1.53h-.92v-12.24h3.75v7.53c1.21-.89,2.22-2.46,2.54-3.29l.81.31s-.29.49-.54.83h2.4c.4-.49.75-1.09.75-1.09l.9.23s-.38.51-.7.86h3.11v.72h-3.11v1.29h2.65v.69h-2.65v1.33h2.65v.69h-2.65v1.45h3.26v.72h-7.02ZM763.89,24.36h-1.91v3.95h1.91v-3.95ZM763.89,29.19h-1.91v4.1h1.91v-4.1ZM765.53,27.59v-.75h2.94v-1.24h-2.68v-.69h2.68v-1.21h-3v-.75h3.92v4.64h-3.86ZM770.06,29.56h-2.85v1.29h2.85v-1.29ZM770.06,31.53h-2.85v1.33h2.85v-1.33ZM770.06,33.55h-2.85v1.45h2.85v-1.45ZM770.04,27.59v-.75h2.89v-1.24h-2.63v-.69h2.63v-1.21h-2.95v-.75h3.87v4.64h-3.81Z"/><path class="cls-1" d="M779.45,30.34v-1.87h1.82v1.87h-1.82Z"/><path class="cls-1" d="M799.7,34.06c-2.51-1.65-4.33-3.87-5.82-6.92v9.15h-.98v-9.12c-1.09,3.18-3.05,5.42-5.82,7.28l-.6-.86c2.86-1.76,4.81-4.15,5.79-6.84h-5.42v-.92h6.05v-3.34h.98v3.34h6v.92h-5.36c1.48,2.8,3.17,4.88,5.74,6.4l-.57.9Z"/><path class="cls-1" d="M810.08,35.73v.55h-.92v-5.51c-.31.34-.61.69-1.07,1.12l-.41-.57v2.86h-2.83v1.53h-.92v-12.24h3.75v7.53c1.21-.89,2.22-2.46,2.54-3.29l.81.31s-.29.49-.54.83h2.4c.4-.49.75-1.09.75-1.09l.9.23s-.38.51-.7.86h3.11v.72h-3.11v1.29h2.65v.69h-2.65v1.33h2.65v.69h-2.65v1.45h3.26v.72h-7.02ZM806.76,24.36h-1.91v3.95h1.91v-3.95ZM806.76,29.19h-1.91v4.1h1.91v-4.1ZM808.4,27.59v-.75h2.94v-1.24h-2.68v-.69h2.68v-1.21h-3v-.75h3.92v4.64h-3.86ZM812.93,29.56h-2.85v1.29h2.85v-1.29ZM812.93,31.53h-2.85v1.33h2.85v-1.33ZM812.93,33.55h-2.85v1.45h2.85v-1.45ZM812.91,27.59v-.75h2.89v-1.24h-2.63v-.69h2.63v-1.21h-2.95v-.75h3.87v4.64h-3.81Z"/><path class="cls-1" d="M822.31,30.34v-1.87h1.82v1.87h-1.82Z"/><path class="cls-1" d="M830.88,35.38v.9h-.92v-13.18h5.08v.89h-1.67v2.94h1.53v4.39h-1.53v3.17h1.71v.89h-4.21ZM832.51,23.99h-1.64v2.94h1.64v-2.94ZM834.04,27.82h-3.17v2.62h3.17v-2.62ZM832.51,31.32h-1.64v3.17h1.64v-3.17ZM837.21,24.69c-.4.67-.96,1.45-1.73,2.17l-.64-.67c1.67-1.42,2.4-3.67,2.4-3.67l.86.18s-.12.44-.43,1.1h5.31v.89h-5.77ZM836.57,35.31v.96h-.84v-5.63h3.2v4.67h-2.36ZM838.08,31.47h-1.52v3.02h1.52v-3.02ZM836.61,29.42v-3.37h5.49v3.37h-5.49ZM841.19,26.88h-3.66v1.71h3.66v-1.71ZM842.14,36.28v-.96h-1.52v.96h-.84v-5.63h3.2v5.63h-.84ZM842.14,31.47h-1.52v3.02h1.52v-3.02Z"/><path class="cls-1" d="M847.72,34.18v1.53h-.92v-12.24h4.06v10.71h-3.14ZM849.94,24.36h-2.22v3.95h2.22v-3.95ZM849.94,29.19h-2.22v4.1h2.22v-4.1ZM858.18,27.98v1.94h1.67v.89h-1.67v2.83c0,2.51-.58,2.62-2.4,2.62h-.58l-.34-.99h.86c1.48,0,1.55-.11,1.55-1.71v-2.74h-5.33v-.89h5.33v-1.94h-5.59v-.89h3.69v-1.99h-3.12v-.89h3.12v-1.71h.92v1.71h3.03v.89h-3.03v1.99h3.69v.89h-1.79ZM854.6,34.35s-.8-1.29-1.85-2.39l.67-.57c1.06,1.15,1.88,2.36,1.88,2.36l-.7.6Z"/><path class="cls-1" d="M874.66,35.22c-1.16-1.39-3.21-2.98-4.85-4.12-1.44,1.64-3.27,3.09-5.74,4.39l-.89-.78c4.51-1.87,8.07-6.05,9.24-9.67h-2.04c-1.9,0-4.19.02-5.69.08v-.99c1.18.03,2.82.06,4.44.06,1.38,0,2.75-.02,3.81-.08l.73.55c-.89,2.13-1.91,4.06-3.31,5.79,1.64,1.06,3.6,2.53,5.17,3.99l-.89.78Z"/><path class="cls-1" d="M879.75,35.97l-.77-.89c2.98-.61,5.46-1.88,7.35-3.76-1.09-.93-2.31-1.76-3.49-2.43l.67-.64c1.1.64,2.33,1.41,3.5,2.31,1.13-1.33,2.02-2.94,2.62-4.84-1.36.02-4.24.02-6.47.06-.98,1.36-2.17,2.65-3.67,3.8l-.8-.7c2.74-1.79,4.16-4.01,5.14-6.08l1.01.26c-.34.63-.69,1.24-1.09,1.87.7,0,1.47.02,2.23.02,1.42,0,2.88-.02,4.15-.09l.69.52c-2.22,6.11-5.05,8.77-11.08,10.61Z"/><path class="cls-1" d="M895.87,29.36c-.28-1.13-.63-2.2-1.09-3.15l.81-.24c.43.98.81,1.96,1.13,3.05l-.86.35ZM897.38,35.88l-.67-.72c5.2-1.19,7.12-5.11,7.35-9.49l.92.14c-.6,4.85-2.28,8.43-7.59,10.07ZM899.43,28.86c-.17-.93-.5-2.22-.81-3.12l.84-.17c.32.98.66,2.17.84,3.06l-.87.23Z"/><path class="cls-1" d="M912.46,35.74l-.72-.83c5.19-1.32,8.1-5.36,8.49-9.78-2.39,0-8.31.02-10.59.12l-.03-.98c1.45.03,3.15.05,4.85.05,2.25,0,4.5-.03,6.21-.08l.61.44c-.83,5.94-3.44,9.34-8.83,11.05Z"/><path class="cls-1" d="M932.96,24.3c-.34.67-.64,1.27-1.18,1.97v10.01h-.98v-8.74c-1.39,1.73-3.05,3.17-5.8,4.78l-.57-1.03c3.64-1.87,6.2-4.65,7.45-6.99h-7.07v-.96h13.01v.96h-4.87ZM937.63,32.59c-1.87-1.1-3.43-2.65-5.23-4.64l.61-.69c1.53,1.68,3.09,3.26,5.2,4.39l-.58.93Z"/><path class="cls-1" d="M947.14,25.84c-.58,1.21-1.13,2-2,3.09v7.35h-.92v-6.38c-.67.7-1.47,1.39-2.36,1.94l-.6-.86c2.4-1.45,4.12-3.54,4.9-5.14h-4.5v-.92h4.91c.5-1.1.83-2.39.83-2.39l.93.15s-.21.92-.78,2.23h7.12v.92h-7.53ZM946.1,35.74v-.92h3.93v-4.01h-3.34v-.92h3.34v-3.12h.92v3.12h3.28v.92h-3.28v4.01h3.83v.92h-8.68Z"/><path class="cls-1" d="M969.14,36.28v-1.12h-8.22v1.12h-.98v-13.18h10.18v13.18h-.98ZM969.14,24.07h-8.22v4.55h8.22v-4.55ZM969.14,29.53h-8.22v4.67h8.22v-4.67Z"/><path class="cls-1" d="M984.08,30.62v2.46l-1.01.02c.02-.86.03-1.58.05-2.16-2.11.73-3.75,1.58-3.75,2.65,0,.06,0,.12.02.18.14.87,1.7,1.19,3.64,1.19,1.33,0,2.85-.15,4.21-.4l-.02,1.07c-1.32.11-2.75.23-4.07.23-2.4,0-4.44-.38-4.7-1.9-.02-.14-.03-.26-.03-.38,0-1.71,2.13-2.72,4.7-3.6-.03-.92-.15-1.3-.5-1.45-.17-.08-.38-.12-.66-.12-1.25,0-3.49.96-5.45,3.66l-.83-.81c1.59-1.81,2.94-3.76,3.92-5.69-.87.02-1.74.03-2.6.03h-.93l-.03-.98c.72.05,1.62.08,2.6.08.44,0,.92,0,1.39-.02.29-.64.55-1.3.75-1.93l1.06.15c-.23.57-.49,1.16-.77,1.74,1.71-.06,3.41-.17,4.58-.34l-.05.95c-1.52.12-3.23.23-4.97.28-.63,1.19-1.29,2.31-1.9,3.21.75-.54,1.97-1.22,3.18-1.22.38,0,.77.06,1.13.23.77.35.98.92,1.03,1.93,1.13-.37,2.3-.72,3.38-1.13l.63.86c-1.29.38-2.68.78-3.99,1.21Z"/><path class="cls-1" d="M994.62,27.49c.98,1.47,1.44,2.65,1.44,3.5,0,1.18-.86,1.79-2.5,1.82l-.43-.9c1.25,0,2.04-.2,2.04-1.07,0-.66-.46-1.7-1.52-3.34l1.36-3.52h-2.31v12.29h-.92v-13.18h4.21v.81l-1.38,3.58ZM1004.29,27.29c-2.04-1.26-3.63-3-4.1-3.98-.38.99-2.07,2.89-4.02,4.21l-.55-.75c1.81-1.1,3.63-3.11,4.12-4.27h.89c.54,1.12,2.28,2.86,4.15,3.96l-.47.83ZM996.33,35.12l-.7-.64c.92-.92,1.78-2.42,2.1-3.4l.83.32c-.4,1.1-1.16,2.65-2.22,3.72ZM1000.83,30.33v4.38c0,1.18-.37,1.58-2.48,1.58l-.38-.95c1.93,0,1.94-.11,1.94-.92v-4.09h-3.4v-.89h3.4v-2.08h-2.2v-.89h5.2v.89h-2.08v2.08h3.15v.89h-3.15ZM1004.1,35.02c-.9-1.1-1.67-2.57-2.17-3.58l.83-.35c.47.95,1.25,2.36,2.14,3.41l-.8.52Z"/><path class="cls-1" d="M1017.18,36.26c-2.11-2.14-5.16-4.45-7.33-5.71-.66-.38-.98-.83-.98-1.29s.34-.93,1-1.35c1.7-1.04,4.76-3.32,6.55-5.2l.81.89c-2.27,1.84-4.96,3.95-6.8,5.11-.34.21-.5.38-.5.55s.17.34.5.52c2.05,1.16,5.37,3.67,7.61,5.59l-.86.89Z"/><path class="cls-1" d="M1022.71,36.52l-.54-.46c1.78-2.02,2.56-4.16,2.56-6.66s-.81-4.67-2.56-6.66l.54-.46c1.94,2.11,2.85,4.29,2.85,7.12s-.81,4.93-2.85,7.12Z"/></g></svg>