<svg xmlns="http://www.w3.org/2000/svg" width="156.67" height="99.01" viewBox="0 0 156.67 99.01"><title>logo06</title><g id="a58f88f7-e35e-4170-9d8c-b0927572d351" data-name="レイヤー 2"><g id="bf9f6484-4180-4f8b-8952-d39e5694cfeb" data-name="DESIGN"><path d="M21.72,95.78H15.8v3.07c0,.11-.05.16-.14.16H15c-.11,0-.16-.05-.16-.15V90.49c0-.17.07-.25.25-.25h6.65c.16,0,.24.08.24.25v5C22,95.7,21.88,95.78,21.72,95.78ZM21,91.2H15.8v3.61H21Z" fill="#bca475"/><path d="M31.86,99H25.34c-.18,0-.25-.07-.25-.24V90.39c0-.12.05-.17.15-.17h.69c.1,0,.14.07.14.17V98h5.06V90.39c0-.12.05-.17.16-.17H32c.09,0,.14,0,.14.17v8.33C32.11,98.9,32,99,31.86,99Z" fill="#bca475"/><path d="M42.4,99h-.77a.19.19,0,0,1-.18-.09l-2.34-3.76H36.29v3.7c0,.11,0,.15-.15.15h-.68c-.1,0-.15,0-.15-.14V90.49c0-.17.07-.25.25-.25h6.62a.22.22,0,0,1,.25.25v4.42a.22.22,0,0,1-.25.25h-2l2.37,3.64a.42.42,0,0,1,.05.12C42.59,99,42.52,99,42.4,99Zm-.95-7.81H36.29v3h5.16Z" fill="#bca475"/><path d="M52.61,99H46.08c-.17,0-.27-.07-.27-.24V90.5a.24.24,0,0,1,.27-.26h6.53a.15.15,0,0,1,.16.16V91c0,.11-.06.15-.17.15H46.8v2.87h5.46c.11,0,.16,0,.16.17v.61a.14.14,0,0,1-.16.16H46.8v3h5.81c.1,0,.16,0,.16.15v.63C52.77,98.93,52.71,99,52.61,99Z" fill="#bca475"/><path d="M68.27,99H61.6c-.11,0-.16,0-.16-.15v-.64A.14.14,0,0,1,61.6,98h5.95V95H61.69c-.16,0-.25-.06-.25-.23V90.49a.22.22,0,0,1,.24-.25h6.64c.12,0,.16.05.16.15V91c0,.11,0,.15-.16.15H62.44v2.93h5.84a.22.22,0,0,1,.24.24v4.36C68.52,98.9,68.44,99,68.27,99Z" fill="#bca475"/><path d="M78.6,91.2H75.48v7.64c0,.1,0,.15-.16.15h-.67c-.11,0-.15,0-.15-.15V91.2h-3A.14.14,0,0,1,71.3,91v-.63c0-.12,0-.17.15-.17H78.6c.12,0,.16.05.16.17V91C78.76,91.15,78.72,91.2,78.6,91.2Z" fill="#bca475"/><path d="M88.69,99h-.77a.18.18,0,0,1-.18-.09l-2.35-3.76H82.58v3.7a.13.13,0,0,1-.15.15h-.68c-.11,0-.16,0-.16-.14V90.49a.22.22,0,0,1,.25-.25h6.63a.22.22,0,0,1,.25.25v4.42a.22.22,0,0,1-.25.25h-2l2.37,3.64a.42.42,0,0,1,0,.12C88.88,99,88.81,99,88.69,99Zm-1-7.81H82.58v3h5.16Z" fill="#bca475"/><path d="M98.9,99H92.36c-.16,0-.26-.07-.26-.24V90.5a.23.23,0,0,1,.26-.26H98.9a.14.14,0,0,1,.15.16V91c0,.11,0,.15-.16.15h-5.8v2.87h5.46c.11,0,.16,0,.16.17v.61a.14.14,0,0,1-.16.16H93.09v3H98.9c.1,0,.15,0,.15.15v.63C99.05,98.93,99,99,98.9,99Z" fill="#bca475"/><path d="M109.07,99h-.69a.24.24,0,0,1-.19-.08l-5-7v7A.13.13,0,0,1,103,99h-.67a.13.13,0,0,1-.15-.15v-8.4c0-.13.06-.2.19-.2H103a.24.24,0,0,1,.18.09l5.13,7.11V90.35a.13.13,0,0,1,.15-.15h.66c.1,0,.15.07.15.17v8.42A.18.18,0,0,1,109.07,99Z" fill="#bca475"/><path d="M119.45,99H112.7c-.18,0-.25-.07-.25-.24V90.48c0-.17.07-.24.25-.24h6.79c.11,0,.16,0,.16.15V91c0,.11-.06.15-.16.15h-6.06V98h5.29v-3H116c-.1,0-.15-.07-.15-.17v-.59c0-.11,0-.16.14-.16h3.44a.23.23,0,0,1,.26.26v4.31C119.71,98.9,119.62,99,119.45,99Z" fill="#bca475"/><path d="M129.83,91.2h-3.12v7.64c0,.1,0,.15-.16.15h-.67c-.11,0-.16,0-.16-.15V91.2h-3a.14.14,0,0,1-.16-.16v-.63c0-.12,0-.17.15-.17h7.15c.11,0,.15.05.15.17V91C130,91.15,129.94,91.2,129.83,91.2Z" fill="#bca475"/><path d="M139.86,99h-.66c-.11,0-.18,0-.18-.14v-4h-5.23v4c0,.1,0,.14-.14.14H133c-.1,0-.16,0-.16-.14V90.35c0-.1,0-.15.16-.15h.68a.13.13,0,0,1,.14.15V94H139V90.35a.13.13,0,0,1,.15-.15h.66a.14.14,0,0,1,.16.15v8.52C140,99,140,99,139.86,99Z" fill="#bca475"/><path d="M56.66,67.83H53c-.09,0-.14,0-.14-.12V65.28a.12.12,0,0,1,.14-.14H56.2V63.51H52.93a.08.08,0,0,1-.09-.09v-.34c0-.07,0-.09.09-.09H56.6a.12.12,0,0,1,.14.13V65.5c0,.1-.05.14-.15.14H53.38v1.67h3.28c.06,0,.08,0,.08.09v.35C56.74,67.81,56.72,67.83,56.66,67.83Z" fill="#bca475"/><path d="M63.44,67.86h-.38c-.06,0-.08,0-.08-.08V66.34H59.76c-.1,0-.14,0-.14-.14V63.06c0-.06,0-.09.08-.09h.37a.08.08,0,0,1,.09.09v2.76H63V63.06c0-.06,0-.09.08-.09h.38a.08.08,0,0,1,.09.09v4.71A.09.09,0,0,1,63.44,67.86Z" fill="#bca475"/><path d="M70.32,67.82H66.59c-.1,0-.14,0-.14-.13V63.13c0-.09,0-.13.14-.13h3.75c.06,0,.09,0,.09.08v.36c0,.06,0,.08-.09.08H67v3.79h2.92V65.66H68.42c-.06,0-.08,0-.08-.09v-.32c0-.07,0-.09.08-.09h1.9a.13.13,0,0,1,.14.14v2.39C70.46,67.78,70.41,67.82,70.32,67.82Z" fill="#bca475"/><path d="M77.24,66.09H75.62v1.66a.08.08,0,0,1-.09.09h-.37c-.06,0-.09,0-.09-.09V66.09H73.51c-.09,0-.13,0-.13-.13V63.08c0-.06,0-.09.08-.09h.38c.06,0,.08,0,.08.09v2.49h2.92V63.08c0-.06,0-.09.08-.09h.38s.08,0,.08.09V66C77.38,66.05,77.34,66.09,77.24,66.09Z" fill="#bca475"/><path d="M84.78,67.84h-.37s-.08,0-.08-.09V63.9l-1.51,2.95a.13.13,0,0,1-.11.05h-.28a.09.09,0,0,1-.09-.05L80.82,63.9v3.85c0,.06,0,.09-.07.09h-.37s-.08,0-.08-.09V63.1a.11.11,0,0,1,.11-.12h.39a.14.14,0,0,1,.13.07l1.66,3.17,1.62-3.16a.15.15,0,0,1,.15-.08h.39c.07,0,.1,0,.1.12v4.65C84.85,67.81,84.83,67.84,84.78,67.84Z" fill="#bca475"/><rect x="43.41" y="22.19" width="28" height="17.64" fill="none" stroke="#bca475" stroke-miterlimit="10" stroke-width="2.71"/><polygon points="78.67 1.51 49.09 16.4 75.43 16.4 76.73 17.91 76.73 44.11 75.43 45.62 43.41 45.62 43.41 66.96 78.65 82.06 109.42 68.88 89.04 68.88 88.17 67.99 88.17 64.09 89.04 63.15 116.83 63.15 116.83 45.22 84.48 45.22 83.09 43.83 83.09 17.91 84.42 16.4 108.2 16.4 78.67 1.51" fill="none" stroke="#bca475" stroke-miterlimit="10" stroke-width="2.71"/><polygon points="122.21 41.19 122.21 63.39 127.83 60.98 127.83 26.26 119.6 22.13 88.59 22.13 88.59 39.74 120.88 39.74 122.21 41.19" fill="none" stroke="#bca475" stroke-miterlimit="10" stroke-width="2.71"/><polygon points="29.46 60.98 38.08 64.68 38.08 21.93 29.46 26.69 29.46 60.98" fill="none" stroke="#bca475" stroke-miterlimit="10" stroke-width="2.71"/><polygon points="142.02 53.01 147.49 49.94 147.49 39 142.02 35.46 142.02 53.01" fill="#bca475"/><polygon points="149.66 48.72 152.66 47.03 156.67 44.66 152.66 42.36 149.66 40.41 149.66 48.72" fill="#bca475"/><polygon points="132.52 58.35 139.8 54.26 139.8 34.02 132.52 29.3 132.52 58.35" fill="#bca475"/><polygon points="14.99 53.01 9.52 49.94 9.52 39 14.99 35.46 14.99 53.01" fill="#bca475"/><polygon points="7.35 48.72 4.34 47.03 0 44.66 4.34 42.36 7.35 40.41 7.35 48.72" fill="#bca475"/><polygon points="24.49 58.35 17.21 54.26 17.21 34.02 24.49 29.3 24.49 58.35" fill="#bca475"/></g></g></svg>