<svg xmlns="http://www.w3.org/2000/svg" width="505.85" height="304.32" viewBox="0 0 505.85 304.32"><title>logo03</title><g id="bf062a91-5892-4657-ac85-9dff7728fe37" data-name="レイヤー 2"><g id="af7c59b7-5f54-4b04-8365-fc4e6ad8a304" data-name="DESIGN"><path d="M69.34,284.84v7.68a2.79,2.79,0,0,1-2.78,2.78H50.72l-.77.77v8.2H44.39V284.84a2.78,2.78,0,0,1,2.78-2.79H66.56A2.79,2.79,0,0,1,69.34,284.84ZM63,290.55l.76-.77v-2.21l-.76-.76H50.72l-.77.76v2.21l.77.77Z" fill="#003664"/><path d="M101,282.1v19.39a2.77,2.77,0,0,1-2.78,2.78H79.32a3,3,0,0,1-2-.76,2.84,2.84,0,0,1-.81-2V282.1h5.57v16.7l.76.77H94.68l.77-.77V282.1Z" fill="#003664"/><path d="M135,304.27h-8.26l-10.12-9.07A2.77,2.77,0,0,1,115.5,293a3.3,3.3,0,0,1,.2-1,2.29,2.29,0,0,1,2.3-1.39h8.83l.77-.77v-2.16l-.77-.81H114.59l-.81.81v16.65h-5.52l-.05-19.38a2.72,2.72,0,0,1,.82-2,2.76,2.76,0,0,1,2-.82h19.39a2.78,2.78,0,0,1,2.78,2.79v7.63a2.78,2.78,0,0,1-2.78,2.78h-5.09v1S129.18,299.62,135,304.27Z" fill="#003664"/><path d="M147.75,289.78l.82.82h13.72v4.7H148.57l-.82.82v2.68l.82.77h18.62v4.75H145a2.78,2.78,0,0,1-2.78-2.78v-16.7a2.78,2.78,0,0,1,2.78-2.79h22.22v4.76H148.57v0l-.82.77Z" fill="#003664"/><path d="M221,293.33v8.21a2.79,2.79,0,0,1-2.78,2.78H196.41v-4.75h18.24l.76-.77v-2.73l-.76-.77H198.76a2.79,2.79,0,0,1-2.78-2.78v-7.63a2.79,2.79,0,0,1,2.78-2.79H220.5v4.71H202.31l-.76.81v2.16l.76.77H218.2A2.79,2.79,0,0,1,221,293.33Z" fill="#003664"/><path d="M256.16,286.81H245.74l-.81.81v16.65h-5.57V287.62l-.77-.81H228.18V282.1h28Z" fill="#003664"/><path d="M290.13,304.27h-8.25l-10.13-9.07a2.79,2.79,0,0,1-1.1-2.25,3.29,3.29,0,0,1,.19-1,2.29,2.29,0,0,1,2.3-1.39H282l.77-.77v-2.16l-.77-.81H269.73l-.81.81v16.65H263.4l0-19.38a2.72,2.72,0,0,1,.82-2,2.8,2.8,0,0,1,2-.82h19.38a2.79,2.79,0,0,1,2.79,2.79v7.63a2.79,2.79,0,0,1-2.79,2.78h-5.08v1S284.32,299.62,290.13,304.27Z" fill="#003664"/><path d="M302.89,289.78l.82.82h13.73v4.7H303.71l-.82.82v2.68l.82.77h18.62v4.75H300.11a2.79,2.79,0,0,1-2.78-2.78v-16.7a2.79,2.79,0,0,1,2.78-2.79h22.22v4.76H303.71v0l-.82.77Z" fill="#003664"/><path d="M355.2,282.1v19.39a2.78,2.78,0,0,1-2.78,2.78h-1.35a2.8,2.8,0,0,1-2.11-1c-8.87-9.5-12.81-13.82-12.81-13.82h-1.06v14.78h-5.56V284.89a2.79,2.79,0,0,1,2.78-2.79h2.59a3,3,0,0,1,2.16,1c7.68,8.4,11.71,12.91,11.71,12.91h.86V282.1Z" fill="#003664"/><path d="M381.83,288.53v-1l-.81-.76H368.73l-.76.76v11.19l.76.76H381l.77-.76v-2.69l-.77-.77H373.1v-4.75h11.47a2.78,2.78,0,0,1,2.78,2.78v8.16a2.77,2.77,0,0,1-2.78,2.78H365.18a2.79,2.79,0,0,1-2-.81,2.84,2.84,0,0,1-.81-2V284.84a2.79,2.79,0,0,1,2.78-2.79h19.44a2.75,2.75,0,0,1,2.73,2.79v3.69Z" fill="#003664"/><path d="M422.53,286.81H412.11l-.81.81v16.65h-5.57V287.62l-.77-.81H394.55V282.1h28Z" fill="#003664"/><path d="M454.68,282.1v22.17h-5.52v-8.2l-.81-.77H436.06l-.77.82v8.15h-5.56V282.1h5.56v7.68l.77.77h12.29l.81-.77V282.1Z" fill="#003664"/><rect x="140.4" y="68.64" width="89.78" height="56.57" fill="#00396c" stroke="#00396c" stroke-miterlimit="10" stroke-width="4.17"/><polygon points="253.48 2.34 158.63 50.08 243.09 50.08 247.5 50.18 247.27 54.92 247.27 138.93 243.09 143.78 140.4 143.78 140.4 212.21 253.41 260.64 352.09 218.35 280.86 218.35 280.86 199.99 375.86 199.99 375.86 142.49 272.12 142.49 267.67 138.05 267.67 54.92 271.94 50.08 348.19 50.08 253.48 2.34" fill="#00396c" stroke="#00396c" stroke-miterlimit="10" stroke-width="4.17"/><polygon points="393.12 129.57 393.12 200.76 411.15 193.04 411.15 81.69 384.76 68.44 285.3 68.44 285.3 124.93 388.86 124.93 393.12 129.57" fill="#00396c" stroke="#00396c" stroke-miterlimit="10" stroke-width="4.17"/><polygon points="95.67 193.04 123.32 204.89 123.32 67.81 95.67 83.07 95.67 193.04" fill="#00396c" stroke="#00396c" stroke-miterlimit="10" stroke-width="4.17"/><polygon points="456.65 167.48 474.17 157.64 474.17 122.56 456.65 111.2 456.65 167.48" fill="#bca475"/><polygon points="481.15 153.72 505.85 141.45 481.15 127.08 481.15 153.72" fill="#bca475"/><polygon points="426.17 184.6 449.53 171.48 449.53 106.58 426.17 91.43 426.17 184.6" fill="#bca475"/><polygon points="49.19 167.48 31.68 157.64 31.68 122.56 49.19 111.2 49.19 167.48" fill="#bca475"/><polygon points="24.7 153.72 0 141.45 24.7 127.08 24.7 153.72" fill="#bca475"/><polygon points="79.67 184.6 56.32 171.48 56.32 106.58 79.67 91.43 79.67 184.6" fill="#bca475"/><path d="M186,219.39H172.88c-.33,0-.49-.14-.49-.43v-8.62c0-.37.16-.51.49-.51h11.44v-5.78H172.7a.27.27,0,0,1-.29-.31v-1.23c0-.23.1-.31.29-.31h13c.33,0,.49.16.49.47v8.46c0,.32-.16.49-.51.49H174.3v5.92H186c.21,0,.29.1.29.33v1.24C186.25,219.31,186.17,219.39,186,219.39Z" fill="#fff"/><path d="M205.92,219.5h-1.34c-.2,0-.28-.09-.28-.29v-5.1H192.84c-.35,0-.49-.15-.49-.5V202.44c0-.2.08-.3.3-.3H194c.21,0,.31.1.31.33v9.77h10v-9.8c0-.22.08-.3.28-.3h1.34c.19,0,.31.08.31.3v16.75A.29.29,0,0,1,205.92,219.5Z" fill="#fff"/><path d="M226.25,219.37H213c-.35,0-.49-.14-.49-.47V202.69c0-.33.14-.47.49-.47h13.33c.23,0,.33.08.33.29v1.27c0,.23-.12.31-.33.31H214.42v13.45h10.39V211.7H219.5c-.2,0-.29-.12-.29-.33v-1.15c0-.23.09-.31.27-.31h6.77a.43.43,0,0,1,.49.49v8.48C226.74,219.23,226.58,219.37,226.25,219.37Z" fill="#fff"/><path d="M246.72,213.22h-5.78v5.89c0,.22-.08.32-.31.32h-1.29c-.23,0-.33-.08-.33-.32v-5.89h-5.54c-.32,0-.47-.14-.47-.47V202.51c0-.21.08-.31.29-.31h1.36a.27.27,0,0,1,.28.31v8.84h10.35v-8.84c0-.21.08-.31.31-.31h1.32c.2,0,.3.1.3.31v10.22C247.21,213.08,247.05,213.22,246.72,213.22Z" fill="#fff"/><path d="M269.37,219.41h-1.31c-.19,0-.27-.1-.27-.3V205.45l-5.37,10.45a.43.43,0,0,1-.39.18h-1a.38.38,0,0,1-.35-.18l-5.37-10.45v13.66c0,.2-.08.3-.26.3h-1.32q-.27,0-.27-.3V202.59a.37.37,0,0,1,.37-.41h1.4a.54.54,0,0,1,.47.24l5.89,11.26,5.76-11.24a.5.5,0,0,1,.51-.26h1.4c.25,0,.37.12.37.41v16.52C269.64,219.31,269.56,219.41,269.37,219.41Z" fill="#fff"/></g></g></svg>