<svg xmlns="http://www.w3.org/2000/svg" width="413.77" height="37.55" viewBox="0 0 413.77 37.55"><title>logo02</title><g id="afe40f1b-a848-42b4-bcd0-9ac3a4b2fdb5" data-name="レイヤー 2"><g id="b9290878-7f88-40cb-b5de-f22fe9461d1e" data-name="DESIGN"><path d="M0,28.35V.56H4V5.65H17.27v4H3.91V26.13c0,1.77.41,2.94,1.26,3.5a6.11,6.11,0,0,0,3.53.83h8.57v4h-10a8.91,8.91,0,0,1-5.11-1.55A5.93,5.93,0,0,1,0,28.35ZM20.94,10.5a3.83,3.83,0,0,1-1.16-2.84,3.77,3.77,0,0,1,1.16-2.88,3.94,3.94,0,0,1,2.87-1.16,3.87,3.87,0,0,1,2.84,1.16,3.93,3.93,0,0,1,1.2,2.88,4,4,0,0,1-1.2,2.84,3.84,3.84,0,0,1-2.84,1.2A3.92,3.92,0,0,1,20.94,10.5Zm.7-2.84a1.91,1.91,0,0,0,.64,1.53,1.93,1.93,0,0,0,1.53.65,2,2,0,0,0,1.54-.65A2.09,2.09,0,0,0,26,7.66a2.13,2.13,0,0,0-.64-1.53,2.18,2.18,0,0,0-3.71,1.53Z" fill="#333a46"/><path d="M41.21,20.79V14.87H34.3V11.12H45v9.55a12.21,12.21,0,0,1-.33,2.79l-1.51,6.4h4.76v3.46H32.12V29.86h7.23L40.86,23A13,13,0,0,0,41.21,20.79Z" fill="#333a46"/><path d="M81,5.63v6.79a10.29,10.29,0,0,1-1.84,5.74l-3.26,4.1-2.79-2.38,2.4-3A5.85,5.85,0,0,0,77,13.11V9.67H60.83v-4Zm-12.8,8.49h4.14v6.8a12.61,12.61,0,0,1-1.3,5.52L66.42,35.2l-3.54-1.72,4.39-8.28a8.08,8.08,0,0,0,1-4.89Z" fill="#333a46"/><path d="M107.22,18.06a8.55,8.55,0,0,1,3.24,2.22A6.8,6.8,0,0,1,112,24.66v9.82h-3.75v-9a4.7,4.7,0,0,0-.82-3.07,5.55,5.55,0,0,0-2-1.3L96.57,35.49l-3.48-2L103.32,17a11.25,11.25,0,0,0,1.05-3.35c.09-.9.13-2.2.13-3.9H94.83V5.63h14v6.73A13.16,13.16,0,0,1,107.22,18.06Z" fill="#333a46"/><path d="M142.46,14.89l-5.88-4.08a7,7,0,0,0-3.83-1.1h-2.63V34.48H126V.56h4l0,5.09h3.48a9.45,9.45,0,0,1,4.58,1.76l6.42,4.17Z" fill="#333a46"/><path d="M156.94,34.48V5.65h3.88l0,24.46,1.71,0a3.89,3.89,0,0,0,3.09-2.61l5-9.84,3.48,1.7-5.8,11.54a8.41,8.41,0,0,1-2.51,2.56,7.82,7.82,0,0,1-3.7,1Z" fill="#333a46"/><path d="M187.7,34.48V30.4h3.06a5.28,5.28,0,0,0,3.64-1.07,6.78,6.78,0,0,0,1.79-3.28L201.14,9a4.57,4.57,0,0,1,3.31-3.32h3V9.71h-1.65a1.76,1.76,0,0,0-.75.83l-5.38,18.14a7.23,7.23,0,0,1-2.8,4.17,8.88,8.88,0,0,1-5.49,1.63Zm4.37-22.18,0-1.76a.89.89,0,0,0-.83-.83H187.7V5.65h5.9a3.32,3.32,0,0,1,2,.73,2.49,2.49,0,0,1,.71,1.92v4Z" fill="#333a46"/><path d="M232.56,9.67h-5.78l-4.6,11.91-3.66-1.35,4-10.52a42.84,42.84,0,0,0,2.08-7.12L225.14,0l3.9.44-.83,5.21h8.63v8q-.08,5.52-2.67,8.7L223.73,35.56l-3.25-2.51,10.46-13.32a7.69,7.69,0,0,0,1.57-4.43ZM238.91,3h2V12.2h-2Zm4,0h2V12.2h-2Z" fill="#333a46"/><path d="M264.1,18.06a8.55,8.55,0,0,1,3.24,2.22,6.8,6.8,0,0,1,1.52,4.38v9.82h-3.75v-9a4.7,4.7,0,0,0-.82-3.07,5.55,5.55,0,0,0-2-1.3l-8.87,14.35-3.48-2L260.2,17a11.25,11.25,0,0,0,1.05-3.35c.09-.9.13-2.2.13-3.9h-9.67V5.63h14v6.73A13.16,13.16,0,0,1,264.1,18.06Z" fill="#333a46"/><path d="M283.34,2.44l3,1.1A63.39,63.39,0,0,1,283,11.11V37.37h-3V16.21a40.37,40.37,0,0,1-3.35,4.48,17.78,17.78,0,0,0-1.76-3.64,33.3,33.3,0,0,0,4.85-6.52A45.9,45.9,0,0,0,283.34,2.44ZM307,13.62V16.9h-2.33V27.64H301.5V25.75h-6.59a16.69,16.69,0,0,1-8.52,11.8,12.83,12.83,0,0,0-2.16-2.74,13.35,13.35,0,0,0,7.46-9.06h-5.4V22.44h5.94a35.13,35.13,0,0,0,.18-3.9V16.9h-8V13.62h8V8.16h-5.73V4.88h18v8.74Zm-5.47,8.82V16.9h-5.93v1.64c0,1.33-.06,2.63-.17,3.9ZM295.57,8.16v5.46h5.93V8.16Z" fill="#333a46"/><path d="M312.09,32.74h30.5V36h-30.5Zm.69-28.12H342V7.9H312.78Zm3.68,6.82h22.05V24.12H316.46ZM319,25.64l2.89-.91a23.56,23.56,0,0,1,2.45,6.63l-3.09,1A26.23,26.23,0,0,0,319,25.64Zm.56-11V21h15.66V14.61Zm13.13,9.77,3.57,1c-1.62,3.59-2.76,5.95-3.4,7.07l-2.89-1A34.64,34.64,0,0,0,332.71,24.38Z" fill="#333a46"/><path d="M374.78,23.5l2.59,2a51.2,51.2,0,0,1-7.12,4.8,21.8,21.8,0,0,0,9,4.05,9.48,9.48,0,0,0-2,3.17,21.79,21.79,0,0,1-9.55-4.92,23.23,23.23,0,0,1-6-9.06h-4.48v9.13l8.29-1.41.16,3.13q-6.76,1.32-15.24,2.77l-.76-3.24.48-.06,1.58-.26,2.24-.35V23.5H348.1V20.33H354V3.78h21.24v3h-18V9.39h17v2.82h-17v2.62h17v2.84h-17v2.66h21.44V23.5Zm-.06,0H365a20.7,20.7,0,0,0,3.21,4.81A43.75,43.75,0,0,0,374.72,23.5Z" fill="#333a46"/><path d="M413.77,4.27V33.36c0,1.81-.49,3-1.48,3.47-.81.41-2.66.61-5.53.61a13.68,13.68,0,0,0-1.06-3.32l2.53.11c1,0,1.53,0,1.66,0a.76.76,0,0,0,.76-.88V7.62H388.42V37.37h-3.13V4.27Zm-6.46,28h-2.75V30.38h-10.4v2.48h-2.72V20.07h2.72v7.36h3.71V17.59h-8v-3h4.5A16.78,16.78,0,0,0,392,9l2.53-.95a14.73,14.73,0,0,1,2.49,5.57l-2.42,1H404l-2.29-.76a31,31,0,0,0,2.29-6l3.14.91c-1.63,3.35-2.63,5.31-3,5.87h5.28v3h-8.62v9.84h3.77V20.07h2.75Z" fill="#333a46"/></g></g></svg>