<?xml version="1.0" encoding="UTF-8"?><svg id="_レイヤー_2" xmlns="http://www.w3.org/2000/svg" width="511.30811" height="45.91874" viewBox="0 0 511.30811 45.91874"><g id="_レイヤー_1-2"><path d="M.00005,29.5298V7.9398H3.10005v4H13.42005v3.06H3.00005v12.81c0,1.37,.31,2.28,1,2.72,.83291,.48134,1.79015,.70412,2.75,.64h6.66v3.12H5.65005c-1.42719,.02585-2.82643-.39742-4-1.21C.59884,32.20121-.00604,30.8998,.00005,29.5298ZM16.26005,15.6598c-.59011-.57814-.91571-1.37403-.9-2.2-.0269-.83975,.29957-1.6523,.9-2.24,.5931-.5923,1.40197-.9173,2.24-.9,.82597-.01571,1.62187,.30989,2.2,.9,.60431,.58737,.94058,1.39734,.93,2.24-.00592,.82766-.34046,1.61905-.93,2.2-.56693,.61103-1.36657,.9527-2.2,.94-.8458,.01651-1.65927-.32485-2.24-.94Zm.55-2.2c-.01981,.4515,.16365,.88814,.5,1.19,.64709,.65722,1.70445,.66543,2.36167,.01833,.00616-.00606,.01227-.01217,.01833-.01833,.64932-.66278,.6384-1.72644-.02437-2.37575-.66278-.64932-1.72644-.63841-2.37575,.02437-.30417,.31048-.47618,.72675-.47988,1.16138Z"/><path d="M32.00005,23.6598v-4.6h-5.36v-2.91h8.36v7.41c-.00316,.73091-.0904,1.45903-.26,2.17l-1.18,5h3.7v2.69h-12.26v-2.72h5.61l1.18-5.31c.12103-.56932,.1913-1.14826,.21-1.73Z"/><path d="M63.00005,11.8798v5.28c-.02304,1.59261-.52097,3.1421-1.43,4.45l-2.57,3.19-2.18-1.8,1.87-2.36c.69279-.80931,1.08177-1.83482,1.1-2.9v-2.74h-12.54v-3.12h15.75Zm-10,6.6h3.21v5.27c-.00542,1.49033-.34726,2.96021-1,4.3l-3.62,6.8-2.75-1.33,3.41-6.44c.64205-1.15313,.90447-2.47924,.75-3.79v-4.81Z"/><path d="M83.28004,21.5298c.96157,.37575,1.82381,.96768,2.52,1.73,.78877,.96006,1.2137,2.16754,1.2,3.41v7.62h-2.93v-7c.06866-.84206-.15373-1.68218-.63-2.38-.4371-.43816-.96191-.77895-1.54-1l-6.9,11.17-2.7-1.56,8-12.84c.40312-.81945,.67638-1.69659,.81-2.6,.07-.7,.11-1.71,.11-3h-7.56v-3.2h10.84v5.23c-.05884,1.54794-.47648,3.06105-1.22,4.42Z"/><path d="M110.66005,19.0698l-4.57-3.17c-.89706-.5668-1.93894-.862-3-.85h-2v19.24h-3.18V7.9398h3.09v4h2.7c1.28722,.13261,2.51596,.60546,3.56,1.37l5,3.23-1.59999,2.53Z"/><path d="M121.91005,34.2898V11.8998h3V30.8998h1.34c1.11139-.16466,2.03761-.93652,2.39999-2l3.86-7.64,2.7,1.32-4.50999,9c-.49863,.79912-1.16376,1.4813-1.95,2-.87419,.50373-1.86129,.77888-2.87,.8l-3.96999-.09Z"/><path d="M145.80005,34.2898v-3.17h2.38c1.01048,.08334,2.01579-.21255,2.82001-.83,.69434-.70206,1.17618-1.58601,1.39-2.55l3.85001-13.27c.31993-1.2635,1.3065-2.25007,2.57001-2.57h2.32001v3.15h-1.28999c-.26033,.14602-.46446,.37478-.58,.65l-4.17999,14.09c-.31834,1.29413-1.08778,2.4323-2.17004,3.21-1.24553,.8714-2.74086,1.31368-4.25999,1.26l-2.85001,.03Zm3.39-17.23v-1.36c-.02412-.3485-.30148-.62588-.64999-.65h-2.74001v-3.15h4.58c.57088,.00781,1.12305,.20476,1.57001,.56,.38739,.40021,.59035,.94384,.56,1.5v3.1h-3.32001Z"/><path d="M180.64004,14.9998h-4.48l-3.58,9.25-2.84-1.05,3.14999-8.17c.69363-1.79396,1.23227-3.64406,1.61-5.53l.38-2,3,.34-.64,4.05h6.75999v6.24c.10068,2.42341-.62967,4.80847-2.07001,6.76l-8.11,10.23-2.52-1.95,8.12-10.34c.75403-.99215,1.18044-2.19446,1.22-3.44l.00002-4.39Zm4.94-5.15h1.50999v7.15h-1.50999v-7.15Zm3.11,0h1.50999v7.15h-1.50999v-7.15Z"/><path d="M205.14004,21.5298c.96158,.37575,1.82381,.96768,2.52,1.73,.78159,.96282,1.19933,2.17003,1.17999,3.41v7.62h-2.91v-7c.06865-.84206-.15373-1.68218-.63-2.38-.43535-.44032-.96065-.78144-1.53999-1l-6.88,11.15-2.71001-1.56,8-12.84c.40312-.81945,.67639-1.69659,.81-2.6,.07001-.7,.11-1.71,.11-3h-7.50999v-3.18h10.84v5.23c-.08406,1.55166-.52188,3.06354-1.27998,4.42Z"/><path d="M221.20004,10.1398l2.14999,.79c-.6931,1.865-1.50133,3.68517-2.42,5.45v18.88h-2.17999v-15.21c-.72855,1.12732-1.53378,2.20319-2.41,3.22-.32231-.91879-.7484-1.79781-1.27-2.62,1.35023-1.4005,2.52243-2.9623,3.49001-4.65,1.07246-1.8608,1.95683-3.82383,2.64-5.86Zm17,8.05v2.36h-1.67999v7.72h-2.25v-1.36h-4.74001c-.63564,3.6193-2.89453,6.74785-6.13,8.49-.42473-.73578-.94977-1.4089-1.56-2,2.70227-1.22555,4.68504-3.63295,5.37-6.52h-3.88v-2.35h4.27c.092-.93044,.13539-1.86504,.13-2.8v-1.18h-5.73v-2.36h5.74001v-3.93h-4.14v-2.36h12.92v6.29h1.67999Zm-3.92999,6.34v-4h-4.27v1.18c0,.95,0,1.89-.12,2.8l4.39,.02Zm-4.27-10.27v3.93h4.27v-3.93h-4.27Z"/><path d="M241.88005,31.9398h21.94v2.36h-21.94v-2.36Zm.5-20.23h21v2.36h-21v-2.36Zm2.62,4.91h15.87v9.11h-15.87v-9.11Zm1.85001,10.21l2.07001-.65c.84064,1.5042,1.44119,3.13046,1.77998,4.82l-2.22,.75c-.30896-1.70596-.85068-3.36142-1.61-4.92h-.01999Zm.39999-7.93v4.55h11.26001v-4.55h-11.26001Zm9.44,7l2.57001,.72c-1.17001,2.59-2,4.28-2.45001,5.08l-2.05-.7c.83025-1.61853,1.48399-3.32166,1.95-5.08l-.01999-.02Z"/><path d="M287.00005,25.2898l1.85999,1.41c-1.60562,1.29622-3.31845,2.45371-5.12,3.46,1.91751,1.45111,4.14044,2.44629,6.5,2.91-.63785,.64802-1.13489,1.42084-1.45999,2.27-2.55103-.57852-4.91431-1.79284-6.87-3.53-1.93347-1.80271-3.4137-4.03672-4.32001-6.52h-3.22v6.57l6-1,.12,2.25c-3.24667,.66667-6.91333,1.33333-11,2l-.54999-2.33,.35001-.05,1.13-.18,1.60999-.26v-7h-4.22v-2.29h4.19V11.1098h15.29999v2.13h-13v1.9h12.23001v2h-12.19v1.89h12.23001v2h-12.23001v1.97h15.42001v2.28l-2.76001,.01Zm-.04999,0h-7c.60464,1.25555,1.3822,2.4202,2.31,3.46,1.65921-1.00343,3.21954-2.16195,4.66-3.46h.03Z"/><path d="M315.00005,11.4598v20.92c0,1.31-.35001,2.14-1.06,2.49-1.29324,.39981-2.65024,.55247-4,.45-.15057-.82577-.40598-1.62893-.76001-2.39l1.82001,.07c.39975,.02034,.80026,.02034,1.20001,0,.36002,0,.54001-.21,.54001-.63V13.8698h-16v21.39h-2.25V11.4598h20.50998Zm-4.64001,20.12h-2v-1.34h-7.48001v1.76h-2v-9.2h2v5.3h2.67001v-7.1h-5.75v-2.1h3.20001c-.30624-1.42132-.86508-2.77613-1.64999-4l1.82001-.68c.86673,1.19527,1.47626,2.55727,1.79001,4l-1.73999,.71h6.77997l-1.66-.55c.70563-1.39765,1.26202-2.86575,1.66-4.38l2.25,.65c-1.17001,2.42-1.89001,3.82-2.14001,4.23h3.79999v2.12h-6.20001v7.08h2.70999v-5.3h2l-.05997,8.8Z"/><path d="M336.30003,32.8798c-.91666-1.09637-1.97607-2.06498-3.14999-2.88-1.15271,1.19925-2.48541,2.21141-3.95001,3l-1.28-1.16c2.84955-1.11195,5.14804-3.29911,6.39999-6.09-1.48001,0-3.84,0-5,.1v-1.48c1.45001,.08,4.04999,.08,6.10999,0l.84,.7c-.56677,1.38192-1.3132,2.68313-2.22,3.87,1.24979,.83922,2.43936,1.76481,3.56,2.77l-1.30997,1.17Z"/><path d="M340.14006,33.3398l-1.14001-1.23c1.86215-.35776,3.60513-1.17596,5.07001-2.38-.69763-.56774-1.44385-1.07302-2.23001-1.51l1-1c.7854,.42209,1.54355,.89302,2.26999,1.41,.53375-.7059,.9585-1.48796,1.26001-2.32h-3.59c-.74536,.99997-1.612,1.90355-2.57999,2.69l-1.20001-1c1.69867-1.0841,3.03018-2.65611,3.82001-4.51l1.53,.39c-.19324,.39094-.40686,.77146-.64001,1.14h1.29001c.82999,0,1.72,0,2.54001-.05l.70001,.64c-1.43002,3.99-3.39001,6.39-8.10001,7.73Z"/><path d="M351.10005,28.8898c-.22867-.92257-.56427-1.81528-1-2.66l1.17999-.36c.41962,.81706,.7547,1.67485,1,2.56l-1.17999,.46Zm1.17999,4.46l-1-1.06c4-.9,5-3.15,5.25-6.58l1.32001,.17c-.39001,3.79-1.69,6.23-5.57001,7.47Zm1.17001-4.79c-.12848-.91441-.35306-1.81271-.67001-2.68l1.23001-.22c.30362,.83415,.54428,1.68988,.72,2.56l-1.28,.34Z"/><path d="M362.22005,33.0598l-1.22-1.26c3.45001-.73,5.62-3,6-6-1.67999,0-5.20999,0-7,.12v-1.51c.92999,0,2.51999,.05,4.09,.05s2.87,0,3.75-.05l.84,.63c-.57001,4.2-2.60001,6.87-6.45999,8.02Z"/><path d="M373.73006,32.9098c-.26001-.53-.60001-1.22-.94-1.76-.46729,.86702-1.09906,1.63466-1.85999,2.26l-.89999-1.25c.81274-.5427,1.47083-1.28693,1.90997-2.16-.50104-.70283-1.04895-1.37101-1.64001-2l.92999-1c.45306,.49778,.88028,1.01846,1.28,1.56,.19199-.72312,.31253-1.46333,.35999-2.21h-2.67999v-1.35h1.54001v-1.56h1.32001v1.56h1.64001v1.35h-.48999c-.11456,1.14978-.35605,2.28335-.72,3.38,.44,.56,.88,1.21,1.34,1.93l-1.09,1.25Zm2.51999-2.28c-.336-.88404-.75452-1.73446-1.25-2.54l1.13-.65c.47495,.77684,.89597,1.58542,1.26001,2.42l-1.14001,.77Zm3-3.84v4.29c0,1.87,0,2.28-2.54001,2.32l-.59-1.4h.72c1,0,1-.12,1-.65v-4.56h-2.78v-1.37h2.78v-2h1.37v2h.79001v1.37h-.75Z"/><path d="M382.93004,25.5298v1.6c.00992,1.43521-.08701,2.86918-.29001,4.29,.48206-1.17776,.78214-2.42199,.89001-3.69l1.23001,.41c-.12927,1.42518-.44531,2.82719-.94,4.17l-1.17999-.79c-.09854,.65913-.3046,1.29762-.60999,1.89l-1-1.21c.48001-1.14,.60999-2.5,.60999-5.12v-2.9h3.76001v-.74h1.54999v.74h3.76999v1.35h-7.79001Zm4.67001,7.66h-1.13c-1.19,0-1.44-.28-1.44-1.19v-4.56001h1.42001v4.11c0,.29,.06,.34,.42001,.34h.59c.48999,0,.56-.1,.59-1.5l1.35999,.67c-.17999,1.94-.41,2.13-1.81,2.13Zm0-5c-.59262-.64968-1.24185-1.24536-1.94-1.78l.95001-.87c.71082,.50892,1.37961,1.07407,2,1.69l-1.01001,.96Zm2.17999,4.14c-.24066-1.4482-.63626-2.86634-1.17999-4.23l1.25-.61c.52615,1.34366,.94089,2.72833,1.23999,4.14l-1.31,.7Z"/><path d="M393.62004,32.1598v.84h-1.29999v-9h3.60001v8.15l-2.30002,.01Zm1-6.92h-1v2.09h1v-2.09Zm0,3.24h-1v2.45h1v-2.45Zm6.32999-.79v.85h1v1.32h-1v1.64c0,1.53-.09,1.84-2.23001,1.9l-.53998-1.4c1.39001,0,1.44,0,1.44-.52v-1.6h-2.07001c.36795,.47255,.70212,.97045,1,1.49l-1.14001,.7c-.28873-.58219-.62311-1.1406-1-1.67l1-.52h-1.04999v-1.34h3.31v-.85h-3.44v-1.22h2.20999v-.84h-1.93997v-1.22h1.89001v-1h1.32999v1h1.92001v1.22h-1.92001v.84h2.28v1.22h-1.05002Z"/><path d="M404.87004,27.7298v5.67h-1.32999v-9.64h4.25v4l-2.92001-.03Zm1.59-2.93h-1.59v.5h1.59v-.5Zm0,1.42h-1.59v.54h1.59v-.54Zm4.04999,7.12l-.26999-.71h-4.51999v-4.4h4.73001v3.77c.88,0,.89999-.06,.89999-.56v-3.71h-3v-4h4.35999v7.73c-.03,1.54-.12,1.88-2.19998,1.88h-.00003Zm-1.32999-4.07h-2.17999v.65h2.17999v-.65Zm0,1.58h-2.17999v.7h2.17999v-.7Zm2.17001-6.05h-1.70001v.5h1.70001v-.5Zm0,1.42h-1.70001v.54h1.70001v-.54Z"/><path d="M417.00005,32.8198h-1.29001l3.29001-9.14h1.29001l-3.29001,9.14Z"/><path d="M424.23006,32.5698v-6.31l-1.51001,.65-.42999-1.31c.90884-.23022,1.67853-.8329,2.12-1.66h1.48001v8.63h-1.66Z"/><path d="M430.50005,32.5698v-6.31l-1.51999,.65-.42999-1.31c.90982-.23335,1.68149-.83475,2.13-1.66h1.48001v8.63h-1.66003Z"/><path d="M435.08003,28.1598v-1.73h1.67001v1.73h-1.67001Zm0,4.41v-1.74h1.67001v1.74h-1.67001Z"/><path d="M441.70006,32.77979c-2.26001,0-3.25-1.72-3.25-4.54,0-2.55,1-4.51,3.25-4.51s3.29999,1.92,3.29999,4.51-1.06,4.54-3.29999,4.54Zm0-7.66c-1.09,0-1.62,1.26-1.62,3.12s.53,3.14,1.62,3.14,1.62-1.19,1.62-3.14-.54001-3.12-1.62-3.12Z"/><path d="M449.50005,32.77979c-2.26001,0-3.25-1.72-3.25-4.54,0-2.55,1-4.51,3.25-4.51s3.26001,1.92,3.26001,4.51-1.01001,4.54-3.26001,4.54Zm0-7.66c-1.07999,0-1.60999,1.26-1.60999,3.12s.53,3.14,1.60999,3.14,1.63-1.19,1.63-3.14-.55002-3.12-1.63-3.12Z"/><path d="M460.72005,29.5798c-1.75,0-2.41-1.12-3.82999-1.12-.81339,.01027-1.56622,.43185-2,1.12l-.53-1c.57202-.90147,1.57254-1.43962,2.63998-1.42,1.69,0,2.39999,1.11,3.81,1.11,.80792,.01773,1.56641-.38805,2-1.07l.53,1c-.55496,.90482-1.55994,1.43415-2.62,1.38Z"/><path d="M464.36003,32.5698v-.9c.13995-1.58189,1.16217-2.94871,2.64001-3.53,1.32001-.65,1.76001-1.23,1.76001-1.86s-.5-1.18-1.41-1.18c-.83322,.035-1.48029,.73882-1.44531,1.57204,.0011,.02603,.00287,.05202,.00531,.07796l-1.48001-.38c.06641-1.52839,1.35922-2.71357,2.8876-2.64717,.03751,.00163,.07498,.00402,.1124,.00717,1.91,0,3,1,3,2.45,0,1.23-.67999,2.15-2.44,3-1,.47-1.79999,1.24-1.82001,2h4.28v1.43l-6.09-.04Z"/><path d="M474.90004,32.77979c-2.25,0-3.25-1.72-3.25-4.54,0-2.55,1-4.51,3.25-4.51s3.26999,1.92,3.26999,4.51-1.01999,4.54-3.26999,4.54Zm0-7.66c-1.07999,0-1.60999,1.26-1.60999,3.12s.53,3.14,1.60999,3.14,1.63-1.19,1.63-3.14-.53-3.12-1.63-3.12Z"/><path d="M479.90004,28.1598v-1.73h1.67001v1.73h-1.67001Zm0,4.41v-1.74h1.67001v1.74h-1.67001Z"/><path d="M486.51006,32.77979c-2.26001,0-3.25-1.72-3.25-4.54,0-2.55,1-4.51,3.25-4.51s3.26001,1.92,3.26001,4.51-1.01001,4.54-3.26001,4.54Zm0-7.66c-1.07999,0-1.60999,1.26-1.60999,3.12s.53,3.14,1.60999,3.14,1.63-1.19,1.63-3.14-.55002-3.12-1.63-3.12Z"/><path d="M494.31004,32.77979c-2.25,0-3.25-1.72-3.25-4.54,0-2.55,1-4.51,3.25-4.51s3.26999,1.92,3.26999,4.51-1.01999,4.54-3.26999,4.54Zm0-7.66c-1.07999,0-1.60999,1.26-1.60999,3.12s.53,3.14,1.60999,3.14,1.63-1.19,1.63-3.14-.54001-3.12-1.63-3.12Z"/><path d="M343.55003,15.4398v-1c.16757-1.84427,1.35852-3.43738,3.07999-4.12,1.53-.76,2.04999-1.43,2.04999-2.17s-.57996-1.42-1.67996-1.42c-.96591,.03403-1.72131,.84464-1.68729,1.81054,.00128,.03655,.00372,.07306,.00729,.10946l-1.73001-.44c.07645-1.78224,1.58322-3.16505,3.36548-3.08859,.04489,.00193,.08975,.00479,.13452,.00859,2.23001,0,3.48999,1.2,3.48999,2.86,0,1.44-.79001,2.51-2.84,3.46-1.20999,.56-2.10999,1.45-2.13,2.33h5v1.66h-7.06Z"/><path d="M359.53004,13.3298v2.11h-1.79999v-2.11h-4.67001v-1.64l4.51001-6.32h2v6.35h1.51999v1.61h-1.56Zm-1.79999-5.65l-2.76001,4h2.76001V7.6798Z"/><path d="M365.27003,14.9998v1h-1.53V5.4598h4.26001V14.9998h-2.73001Zm1.16-8.07h-1.16v2.41h1.16v-2.41Zm0,3.78h-1.16v2.85h1.16v-2.85Zm7.38-.93v1h1.13v1.54h-1.13v1.88c0,1.78-.10001,2.15-2.59,2.21l-.64001-1.65c1.63,0,1.67999,0,1.67999-.61v-1.87h-2.41c.42249,.54618,.80673,1.12088,1.15002,1.72l-1.32999,.82c-.34186-.68403-.74344-1.33656-1.20001-1.95l1.14001-.61h-1.21002v-1.52h3.85999v-1h-4v-1.41h2.57999v-1h-2.20999v-1.4h2.20999v-1.14h1.54999v1.14h2.25v1.42h-2.25v1h2.67001v1.4l-1.24997,.03Z"/><path d="M379.62004,9.7998v6.61h-1.54999V5.1698h5v4.63h-3.45001Zm1.85999-3.42h-1.85999v.62h1.85999v-.62Zm0,1.65h-1.85999v.64h1.85999v-.64Zm4.72,8.32l-.32001-.83h-5.26999v-5.14h5.51999v4.38c1,0,1.04999-.07,1.04999-.66v-4.3h-3.53V5.1698h5.07999V14.1698c.00006,1.76-.09995,2.18-2.52994,2.18h-.00003Zm-1.56-4.75h-2.53998v.76h2.54001l-.00003-.76Zm0,1.84h-2.53998v.82h2.54001l-.00003-.82Zm2.54001-7.06h-2v.62h2v-.62Zm0,1.65h-2v.64h2v-.64Z"/><path d="M401.71004,9.5898v2.15h-4c-.078,.2374-.17499,.46815-.29001,.69h5.17999v4h-1.59998v-.43h-7.13v.42h-1.54999v-4h3.37c.11774-.22325,.22128-.45371,.31-.69h-2.81v-2.12h-1.19v-3.19h1.72c-.23981-.40185-.52136-.77726-.84-1.12l1.51999-.56c.40067,.52869,.75531,1.09075,1.06,1.68h1.39001c-.20474-.41332-.46002-.79961-.76001-1.15l1.54999-.55c.35791,.53741,.66586,1.10645,.92001,1.7h1c.45877-.53095,.87662-1.0959,1.25-1.69l1.54999,.66c-.23148,.38916-.53729,.72896-.89999,1h1.54001v3.2h-1.29001Zm-.28-1.79h-7.89001v.65h7.89001v-.65Zm-.39001,6h-7.13v.88h7.09003l.03998-.88Zm-.88-4h-5.38v.83h5.38v-.83Z"/><path d="M416.40004,16.1898c-1.53476-.40522-2.95728-1.15409-4.16-2.19v2.44h-1.54999v-2.44c-1.1951,1.05354-2.61951,1.81369-4.16,2.22l-.87-1.51c1.26324-.12932,2.48929-.50291,3.60999-1.1h-3.17999v-1.36h4.60001v-.55h-3.79001v-1.23h3.79001v-.53h-4.20999v-1.29h2.44c-.10516-.29257-.23917-.57395-.39999-.84h-2.52002v-1.38h1.23001c-.18448-.33683-.40582-.6521-.66-.94l1.37-.63c.33707,.4941,.62509,1.01993,.85999,1.57h.57001v-1.64h1.54999v1.64h1.17999v-1.64h1.54001v1.64h.66c.29547-.48629,.53055-1.0068,.70001-1.55l1.42999,.52c-.1413,.35478-.32602,.69068-.54999,1h1.12v1.41h-2.53c-.06516,.29264-.16943,.57518-.31,.84h2.31v1.29h-4.19v.53h3.72v1.23h-3.76999v.55h4.59v1.33h-3.17001c1.11404,.61299,2.34341,.98759,3.60999,1.1l-.85999,1.51Zm-6.20999-8.38c.12454,.27171,.22815,.55253,.31,.84h2c.12903-.26776,.22635-.54967,.29001-.84h-2.60001Z"/><rect x="329" y=".2498" width="104" height="20" style="fill:none; stroke:#000; stroke-miterlimit:10; stroke-width:.49959px;"/><g><path d="M330.11572,45.16923c-.5498-.85938-.78955-1.29932-1.02979-1.93896-.33984-.87939-.51953-1.83887-.51953-2.77832s.17969-1.89893,.51953-2.77832c.24023-.63965,.47998-1.07959,1.02979-1.93896h1.62891c-.63965,.87939-.90967,1.31885-1.16943,1.9585-.33984,.82959-.52979,1.8291-.52979,2.75879,0,.9292,.18994,1.92871,.52979,2.7583,.25977,.63965,.52979,1.07959,1.16943,1.95898h-1.62891Z"/><path d="M334.96826,42.03105c-.20996,1.26904-.62939,2.18896-1.44922,3.13818-.35986-.45947-.64941-.74951-1.09912-1.09912,1.1792-1.22949,1.41895-2.27881,1.41895-6.38672,0-.76953-.02002-1.18945-.06006-1.54932,.37988,.04004,.68994,.05029,1.22949,.05029h4.32764c.58984,0,.87939-.01025,1.19922-.05029-.02979,.27002-.04004,.56006-.04004,1.18945v6.4165c0,.57959-.10986,.87939-.39941,1.07959-.25,.15967-.58008,.21973-1.30957,.21973-.30957,0-.65967-.00977-1.14941-.02979-.07959-.56006-.1499-.84961-.34961-1.32959,.53955,.08008,1.10938,.12012,1.50928,.12012,.28955,0,.35986-.0498,.35986-.23975v-1.5293h-4.18799Zm4.18799-1.19922v-1.13965h-3.97803c-.02002,.33984-.04004,.69971-.06982,1.13965h4.04785Zm0-2.33887v-1.04932h-3.96777v1.04932h3.96777Z"/><path d="M349.63574,43.78984h.99951c.47998,0,.70947-.00977,.98926-.0498v1.10938c-.34961-.04004-.68945-.06006-1.15918-.06006h-3.22803v.33984h-1.23926c.03955-.2998,.05957-.59961,.05957-1.13916v-1.26953c0-.16992,0-.46973,.01025-.89941-.08984,.12988-.20996,.27002-.33008,.36963-.08984-.25977-.11963-.31982-.28955-.62939v1.55908c0,.44971,0,.56982,.02002,.83936h-1.07959v-.44971h-.63965v.73975h-1.12939c.04004-.36963,.0498-.75977,.0498-1.34912v-5.38721c0-.59961-.00977-.7793-.02979-1.13916,.25,.02979,.42969,.03955,.82959,.03955h1.14941c.36963,0,.62939-.00977,.84961-.02979-.01025,.10986-.01025,.44971-.02002,1.01953v3.57812c.47949-.42969,.90918-1.04932,1.10938-1.60938h-.2002c-.2998,0-.44971,0-.66943,.03027v-.91943c.16992,.01953,.31006,.02979,.66943,.02979h.95947v-.37988h-.73926c-.31006,0-.56982,.01025-.76953,.03027v-.81982c.19971,.02002,.40967,.03027,.76953,.03027h.73926v-.3501h-.95947c-.26953,0-.42969,.01025-.64941,.02979v-.98926c.25977,.03027,.52979,.0498,.81934,.0498h1.07959c.37988,0,.59961-.00977,.80957-.03955q-.02002,.17969-.02002,.86914v1.56934q.02002,.73975,.02979,.87939c-.23975-.02002-.40967-.02002-.79932-.02002h-.63965l.70947,.25c-.06006,.06982-.06982,.1001-.12988,.19971-.04004,.08008-.06006,.11035-.10986,.18018h1.06934c.18018-.23975,.29004-.41992,.36963-.62988-.10986,.01025-.1499,.01025-.24951,.02002v-.90918c.17969,.01953,.30957,.02979,.68945,.02979h.95947v-.37988h-.73975c-.30957,0-.56934,.01025-.78955,.03027v-.81982c.22021,.02002,.43018,.03027,.78955,.03027h.73975v-.3501h-.95947c-.27979,0-.45996,.01025-.67969,.02979v-.98926c.25977,.03027,.52979,.0498,.82959,.0498h1.10938c.37988,0,.59961-.00977,.81982-.03955-.02002,.19971-.03027,.43945-.03027,.84912v1.59912c0,.46973,.01025,.66992,.03027,.87988-.28027-.03027-.43994-.03027-.88965-.03027h-1.24951l.70996,.22998c-.16992,.25977-.18018,.27002-.28027,.3999h.94971c.47949,0,.64941-.01025,.83936-.04004v.98926c-.23975-.02002-.45947-.02979-.82959-.02979h-1.0293v.3999h.78955c.46973,0,.62988-.01025,.7998-.03027v.87939c-.18018-.01953-.35986-.02979-.7998-.02979h-.78955v.40967h.7998c.46973,0,.62939-.00977,.79932-.02979v.87939c-.20996-.02002-.36963-.02979-.79932-.02979h-.7998v.41943Zm-5.87695-4.41748h.63965v-1.80908h-.63965v1.80908Zm0,3.01855h.63965v-1.9292h-.63965v1.9292Zm4.73779-1.06934v-.3999h-1.25928v.3999h1.25928Zm-1.25928,1.229h1.25928v-.40967h-1.25928v.40967Zm0,1.23926h1.25928v-.41943h-1.25928v.41943Z"/><path d="M359.76709,36.33427l-3.59814,9.58447h-1.49902l3.60791-9.58447h1.48926Z"/><path d="M367.48682,38.88261c.39941,.74951,.94922,1.44922,1.58887,2.05908,.76953,.70947,1.31934,1.10938,2.16895,1.54932-.48975,.60938-.52979,.6792-.85938,1.29883-.81982-.54932-1.28955-.9292-1.7793-1.4292-.68945-.69922-1.16943-1.34912-1.59912-2.15869,.04004,.43994,.06006,.78955,.06006,1.03955v2.54834c0,.48975,.02002,.90967,.06982,1.28955h-1.51904c.04004-.37988,.06982-.77979,.06982-1.28955v-2.52832c0-.27002,.01025-.63965,.04004-1.0293-.25977,.55957-.43994,.83936-.84961,1.36914-.65967,.83936-1.41895,1.54883-2.41846,2.22852-.25977-.52979-.46973-.83936-.81982-1.23926,1.5791-.91943,2.88867-2.24854,3.62842-3.70801h-2.01904c-.48975,0-.85938,.02002-1.24951,.07031v-1.37939c.39014,.0498,.73975,.06982,1.23926,.06982h2.44873v-.85938c0-.41992-.02002-.65967-.06982-.93945h1.50928c-.05029,.26953-.06006,.51953-.06006,.9292v.86963h2.55859c.50977,0,.90967-.02002,1.25928-.06982v1.37939c-.38965-.05029-.78955-.07031-1.24951-.07031h-2.14844Z"/><path d="M379.07568,43.78984h.99951c.47949,0,.70947-.00977,.98926-.0498v1.10938c-.34961-.04004-.68945-.06006-1.15918-.06006h-3.22803v.33984h-1.23975c.04004-.2998,.06006-.59961,.06006-1.13916v-1.26953c0-.16992,0-.46973,.01025-.89941-.08984,.12988-.20996,.27002-.33008,.36963-.08984-.25977-.11963-.31982-.28955-.62939v1.55908c0,.44971,0,.56982,.02002,.83936h-1.07959v-.44971h-.63965v.73975h-1.12939c.04004-.36963,.0498-.75977,.0498-1.34912v-5.38721c0-.59961-.00977-.7793-.02979-1.13916,.25,.02979,.42969,.03955,.82959,.03955h1.14941c.36963,0,.62939-.00977,.84961-.02979-.01025,.10986-.01025,.44971-.02002,1.01953v3.57812c.47949-.42969,.90918-1.04932,1.10938-1.60938h-.2002c-.2998,0-.44971,0-.66943,.03027v-.91943c.16992,.01953,.30957,.02979,.66943,.02979h.95947v-.37988h-.73926c-.31006,0-.56982,.01025-.76953,.03027v-.81982c.19971,.02002,.40967,.03027,.76953,.03027h.73926v-.3501h-.95947c-.26953,0-.42969,.01025-.64941,.02979v-.98926c.25977,.03027,.52979,.0498,.81934,.0498h1.07959c.37988,0,.59961-.00977,.80957-.03955q-.02002,.17969-.02002,.86914v1.56934q.02002,.73975,.02979,.87939c-.23975-.02002-.40967-.02002-.79932-.02002h-.63965l.70947,.25c-.06006,.06982-.06982,.1001-.12988,.19971-.04004,.08008-.06006,.11035-.10986,.18018h1.06934c.18018-.23975,.29004-.41992,.36963-.62988-.10986,.01025-.1499,.01025-.24951,.02002v-.90918c.17969,.01953,.30957,.02979,.68945,.02979h.95947v-.37988h-.73975c-.30957,0-.56934,.01025-.78955,.03027v-.81982c.22021,.02002,.42969,.03027,.78955,.03027h.73975v-.3501h-.95947c-.27979,0-.45947,.01025-.67969,.02979v-.98926c.25977,.03027,.52979,.0498,.82959,.0498h1.10938c.37988,0,.59961-.00977,.81982-.03955-.02002,.19971-.03027,.43945-.03027,.84912v1.59912c0,.46973,.01025,.66992,.03027,.87988-.28027-.03027-.43994-.03027-.88965-.03027h-1.24951l.70996,.22998c-.16992,.25977-.18018,.27002-.28027,.3999h.94971c.47949,0,.64941-.01025,.83936-.04004v.98926c-.23975-.02002-.45947-.02979-.82959-.02979h-1.0293v.3999h.78955c.46973,0,.62988-.01025,.7998-.03027v.87939c-.18018-.01953-.35986-.02979-.7998-.02979h-.78955v.40967h.7998c.46973,0,.62939-.00977,.79932-.02979v.87939c-.20996-.02002-.36963-.02979-.79932-.02979h-.7998v.41943Zm-5.87646-4.41748h.63965v-1.80908h-.63965v1.80908Zm0,3.01855h.63965v-1.9292h-.63965v1.9292Zm4.7373-1.06934v-.3999h-1.25928v.3999h1.25928Zm-1.25928,1.229h1.25928v-.40967h-1.25928v.40967Zm0,1.23926h1.25928v-.41943h-1.25928v.41943Z"/><path d="M388.60693,36.33427l-3.59814,9.58447h-1.49902l3.60791-9.58447h1.48926Z"/><path d="M393.57812,38.6331c.29004,0,.40967-.01025,.59961-.03027-.02979,.23975-.02979,.36963-.02979,.84961v1.64893l.00977,.35986v.16992c0,.06006,0,.12988,.01025,.27002-.18994-.01025-.25977-.01025-.57959-.02002v1.48926h.05957c.20996,0,.43018-.01025,.56982-.04004v1.24902c-.19971-.02979-.50977-.03955-.93945-.03955h-1.40918v.48975h-1.23926c.04004-.35986,.06006-.78955,.06006-1.26953v-6.61621c0-.37988-.01025-.66992-.05029-1.04932,.27979,.02979,.5498,.03955,1.06934,.03955h1.60938c.46973,0,.80957-.02002,1.08936-.0498v1.25928c-.16992-.02979-.31982-.04004-.5498-.04004h-.27979v1.32959Zm-1.10938-1.32959h-.61963v1.32959h.61963v-1.32959Zm.53955,3.51807v-1.13916h-1.15918v1.13916h1.15918Zm-1.15918,1.05957v1.48926h.62939v-1.48926h-.62939Zm3.8877-4.2876c-.11963,.17969-.19971,.2998-.31982,.46973h2.82861c.45996,0,.53955,0,.78955-.02002-.02002,.18994-.02979,.38965-.02979,.64941v1.15967c0,.26953,.00977,.45947,.02979,.68945-.25977-.02002-.3999-.02002-.78955-.02002h-2.47852c-.37012,0-.52002,0-.78955,.02002,.02002-.18994,.02979-.35986,.02979-.65967v-1.31934c-.12012,.12988-.21973,.22998-.43994,.41992-.21973-.50977-.31982-.68945-.64941-1.11963,.59961-.5293,.95947-1.0293,1.23926-1.729,.06982-.17969,.10986-.28955,.14014-.45947l1.31934,.16992q-.05029,.09961-.14014,.31982c-.02002,.06006-.08984,.21973-.14014,.32959h2.23877c.47998,0,.83984-.02002,1.13965-.0498v1.19922c-.27979-.02979-.63965-.0498-1.08936-.0498h-2.88867Zm-1.29932,7.46582c.02002-.31982,.03027-.51953,.03027-.84961v-2.47852c0-.48975,0-.58984-.02002-.80957,.28955,.02002,.33984,.02002,.66943,.02002h1.03955q.32959,0,.66943-.02002c-.02002,.19971-.02002,.27979-.02002,.78955v2.48877c0,.30957,.01025,.51953,.03027,.79932h-.93945v-.3999h-.52002v.45996h-.93945Zm.93945-1.54932h.52002v-1.479h-.52002v1.479Zm.73975-3.90771h1.71924v-.61963h-1.71924v.61963Zm2.86865,1.33936c.33984,0,.44971,0,.64941-.02002-.02002,.22998-.02979,.42969-.02979,.78955v2.42871c0,.32959,.00977,.62939,.04004,.91943h-.99951v-.45996h-.52979v.3999h-.95947c.02002-.27002,.02979-.46973,.02979-.81934v-2.44873c0-.48975,0-.58984-.02002-.80957,.31006,.02002,.33984,.02002,.66992,.02002h1.14941Zm-.87988,1.08936v1.479h.54004v-1.479h-.54004Z"/><path d="M400.7998,37.34355c0-.45947-.01025-.69971-.04004-1.03955,.25,.03027,.41992,.04004,.85938,.04004h1.43945c.43945,0,.61963-.00977,.84961-.02979-.02002,.22998-.02002,.42969-.02002,.97949v5.85645c0,.5498,0,.75,.02002,1.01953h-1.19971v-.49951h-.72949v.84961h-1.23926c.04004-.33008,.06006-.66992,.06006-1.24951v-5.92676Zm1.18945,2.03906h.72949v-1.90918h-.72949v1.90918Zm0,3.12793h.72949v-2.00879h-.72949v2.00879Zm3.22803-.73926c-.34961,0-.74951,.02002-1.08936,.0498v-1.26904c.23975,.03955,.56982,.0498,1.11914,.0498h2.1792v-.69971h-2.1792c-.40967,0-.80957,.02002-1.11914,.0498v-1.23926c.25,.03027,.63965,.05029,1.13916,.05029h.88965v-.78955h-.70947c-.61963,.02002-.98975,.02979-1.11963,.04004v-1.23975c.29004,.04004,.61963,.06006,1.06934,.06006h.75977v-.22998c0-.28955-.02002-.48975-.0498-.72949h1.36914c-.0498,.22021-.06982,.41992-.06982,.71973v.23975h.93945c.43945,0,.7793-.02002,1.06934-.06006v1.23975c-.29004-.03027-.56982-.04004-1.04932-.04004h-.95947v.78955h1.19922c.48975,0,.86963-.02002,1.11914-.05029v1.23926c-.26953-.03955-.5293-.0498-.97949-.0498h-.08984v.69971c.5498,0,.7998-.01025,1.0293-.0498v1.26904c-.30957-.04004-.51953-.0498-1.0293-.0498v2.11865c0,.53955-.09961,.78955-.37988,.94971-.28955,.16992-.66943,.22949-1.35889,.22949-.09033,0-.3501-.00977-.69971-.01953-.04004-.52979-.10986-.83984-.29004-1.22949,.29004,.0498,.74951,.08008,1.12939,.08008,.29004,0,.37012-.05029,.37012-.26025v-1.86865h-2.01904c.52979,.48975,.80957,.81934,1.24902,1.46924l-1.03906,.80957c-.3999-.69971-.72998-1.12939-1.23926-1.63916l1.00928-.63965h-.16992Z"/><path d="M418.30566,44.77958c-.84961-1.05957-1.84912-2.03906-2.96826-2.90869-.88965,1.05957-2.20898,2.04932-3.72803,2.78857-.33008-.62939-.46973-.81934-.95947-1.3291,.87939-.3501,1.46924-.66992,2.21875-1.21924,1.09912-.7998,1.979-1.76904,2.61865-2.88867,.12988-.21973,.2998-.57959,.5293-1.08936l-2.91797,.0498c-.82959,.02002-1.01953,.03027-1.39941,.09033l-.02002-1.51953c.31982,.05029,.59961,.06006,1.21924,.06006h.18994l3.4082-.06006c.5498,0,.59961-.00977,.83936-.11963l.76953,.79932c-.12988,.14014-.20947,.27002-.32959,.56006-.47998,1.11914-.92969,1.92871-1.50928,2.71826,1.28955,.91943,1.53906,1.13965,3.24805,2.76855l-1.20898,1.29932Z"/><path d="M425.31738,36.18437c-.1001,.16992-.12988,.21973-.26025,.50977-.08984,.17969-.11963,.24951-.21973,.42969l2.63867-.02002c.34961-.01025,.51953-.03027,.74951-.12988l.77979,.76953c-.14014,.15967-.1499,.17969-.31982,.67969-.65967,1.92871-1.4292,3.27783-2.48877,4.37744-.87939,.90967-1.96875,1.64893-3.38818,2.29883-.33984-.59961-.50977-.80957-.98926-1.25928,.8291-.33008,1.31885-.56982,1.90869-.92969,.66943-.42969,1.07959-.75928,1.5791-1.29932-.67969-.56934-1.20947-.9292-1.95898-1.33936l.90967-1.06934c.87939,.48975,1.34912,.7998,1.91895,1.23926,.42969-.65967,.72949-1.29932,.97949-2.07861l-2.92822,.02979c-.60986,.99951-1.30957,1.81934-2.30908,2.67871-.40967-.45996-.60938-.60986-1.20898-.94971,1.13916-.88916,1.87891-1.729,2.49854-2.86816,.28955-.52979,.47949-.98975,.57959-1.39941l1.5293,.33008Z"/><path d="M432.39844,38.3831c.43945,.81934,.63965,1.31934,.98926,2.44873l-1.33936,.40967c-.27002-1.08936-.45947-1.60938-.89941-2.49854l1.24951-.35986Zm5.78662,.11963c-.06006,.16992-.06982,.2002-.1499,.56006-.29004,1.34912-.71973,2.44873-1.30957,3.30811-.70947,1.01953-1.59912,1.729-3.17822,2.52832-.30957-.5293-.44971-.70947-.94922-1.18896,.75928-.29004,1.18945-.52002,1.75879-.91943,1.15967-.83984,1.81934-1.86914,2.229-3.46826,.12012-.48975,.16992-.81982,.17969-1.14941l1.41943,.32959Zm-3.61816-.5293c.52979,1.00928,.71973,1.45898,.96973,2.36865l-1.30957,.39941c-.18994-.78955-.50977-1.64893-.89941-2.42822l1.23926-.33984Z"/><path d="M447.64453,37.47343c-.08984,.16016-.11963,.21973-.18945,.5-.46973,1.85889-1.05957,3.10791-2.01904,4.21729-.91943,1.07959-2.04883,1.85938-3.76807,2.62891-.32959-.63965-.48975-.85986-1.05957-1.4292,.86963-.27002,1.41943-.52979,2.14893-.98975,1.53906-.97949,2.51855-2.34863,2.97852-4.16748h-4.37744c-.81982,0-1.13965,.00977-1.54932,.06006v-1.5293c.42969,.06006,.73975,.06982,1.56934,.06982h4.57715c.43994,0,.63965-.02002,.90967-.10986l.7793,.74951Z"/><path d="M450.6084,37.52372c-.44971,0-1.03906,.01953-1.48877,.05957v-1.37891c.43945,.0498,.90918,.06982,1.44922,.06982h6.22656c.61963,0,1.10938-.02002,1.43896-.06982v1.37891c-.41992-.04004-.95947-.05957-1.40918-.05957h-1.81885c-.22021,.41943-.31006,.56934-.71973,1.13916v1.03955l.72949-.83984c.47998,.5498,.86963,.92969,1.43945,1.38916,.72949,.58008,1.30908,.94971,2.04883,1.2793-.31982,.41016-.54004,.77002-.78955,1.28955-1.44922-.85938-2.47852-1.69922-3.42822-2.82861v3.77832c0,.50928,.02002,.93945,.06982,1.33887h-1.49902c.0498-.39941,.06982-.85938,.06982-1.34912v-2.72852c0-.27979,0-.36963,.01025-.82959-.33984,.42969-.80957,.88965-1.4292,1.38916-.5,.39014-1.00977,.74951-1.79932,1.21924-.17969-.41943-.41943-.78955-.78955-1.21924,1.29932-.65967,2.24902-1.35889,3.18848-2.32861,.57959-.59961,.91943-1.03955,1.31934-1.73877h-2.81885Z"/><path d="M466.98535,36.9539c.54932,0,.95947-.02002,1.24902-.06006v1.35938c-.35986-.04004-.73975-.06006-1.24902-.06006h-4.01807c-.43994,.85938-.74951,1.35938-1.29932,2.04883v3.64795c0,.56982,.01025,.91943,.0498,1.20947h-1.40918c.04004-.33984,.06006-.65967,.06006-1.20947v-2.26855c-.2998,.26953-.37988,.34961-.67969,.58936-.21973-.49951-.40967-.79932-.78955-1.24902,.58984-.41992,1.03955-.7998,1.46924-1.24951q-.02002-.41943-.04004-.57959h.54004c.23975-.31982,.42969-.59961,.61963-.93945h-1.05957c-.49951,0-.89941,.02002-1.23926,.06006v-1.35938c.29004,.04004,.69971,.06006,1.23926,.06006h1.64893c.2002-.52002,.31006-.91943,.35986-1.25928l1.47949,.23975c-.07031,.12012-.08008,.16992-.2002,.51953-.06982,.18994-.11963,.31006-.18994,.5h3.4585Zm-.30029,3.22803c.52002,0,.80957-.02002,1.10986-.06006v1.30957c-.30029-.03027-.63965-.05029-1.11963-.05029h-1.09961v2.16895h1.40967c.54932,0,.84912-.00977,1.15918-.06006v1.32959c-.38965-.04004-.68945-.06006-1.16943-.06006h-3.85791c-.49951,0-.80957,.02002-1.16943,.06006v-1.32959c.33008,.04004,.63965,.06006,1.15967,.06006h1.14941v-2.16895h-.90967c-.47998,0-.81982,.02002-1.11963,.05029v-1.30957c.2998,.04004,.58984,.06006,1.10938,.06006h.91992v-.53955c0-.5-.01025-.74951-.05029-1.0293h1.41943c-.04004,.22949-.05029,.47949-.05029,1.05908v.50977h1.10938Z"/><path d="M476.20557,36.24442c.47949,0,.77979-.01025,1.08936-.05029-.04004,.41992-.0498,.72949-.0498,1.06934v6.47656c0,.53955,.02002,.89941,.06006,1.2793h-1.4292v-.5498h-4.41797v.5498h-1.40918c.04004-.37988,.06006-.79932,.06006-1.2793v-6.44629c0-.37988-.02002-.72949-.0498-1.09961,.31982,.03027,.66943,.05029,1.12939,.05029h5.01709Zm-.32959,3.39795v-2.13867h-4.41797v2.13867h4.41797Zm-4.41797,1.23926v2.32861h4.41797v-2.32861h-4.41797Z"/><path d="M479.70898,36.9539c.37012,.08984,1.00977,.12988,1.8291,.12988h.5c.24951-.59961,.31934-.83936,.35938-1.16943l1.54932,.14014q-.06982,.10986-.36963,.82959c-.04004,.08984-.04004,.09961-.08008,.17969,.1499-.02002,.17969-.02002,.61963-.04004,1.18945-.06982,2.00879-.17969,2.57861-.32959l.06006,1.34912q-.31006,.02979-.78955,.08008c-.72949,.08984-2.02881,.16992-3.03857,.19971-.18994,.34961-.32959,.55957-.64941,.98926,.51953-.28955,.87939-.38965,1.37891-.38965,.80957,0,1.30957,.33984,1.48926,1.00977,.09033-.03027,.27002-.09033,.52979-.18018,.38965-.14014,.43994-.15967,.88965-.30957,.56982-.18994,.60938-.2002,.7793-.30029l.52979,1.35938c-.28955,.04004-.61963,.10986-1.12939,.25977q-.23975,.06006-1.44922,.46973l.01025,.33008v.67969c0,.2998,.00977,.46973,.02979,.66943l-1.38916,.04004c.04004-.18994,.06006-.62939,.06006-1.15918,0-.01025,0-.04004-.01025-.08008-.40967,.18994-.60938,.2998-.79932,.42969-.31006,.21973-.46973,.46973-.46973,.71973,0,.45947,.42969,.63965,1.51904,.63965,1.20947,0,2.28857-.16016,3.06836-.44971l.10986,1.52881c-.18994,.01025-.22998,.01025-.49951,.05029-.83984,.11963-1.729,.17969-2.56885,.17969-1.46924,0-2.29883-.21973-2.7583-.73926-.25-.28027-.38965-.66992-.38965-1.07959,0-.61963,.39941-1.23926,1.15918-1.78906,.32959-.23975,.76953-.46973,1.45898-.76953-.0498-.27002-.21973-.3999-.50928-.3999-.54004,0-1.21973,.33984-1.96924,.98975-.40967,.35938-.65967,.62939-.90967,.95947l-1.0791-1.06982c.55957-.40967,1.4292-1.44922,1.94873-2.33838,.09033-.16992,.1001-.18018,.1499-.25-.55957,0-.63965,0-.9292-.00977-.18994-.01025-.3501-.01025-.37988-.01025-.08984,0-.1499,0-.16992-.00977h-.14014c-.04004,0-.08984,0-.1499,.00977l.02002-1.34912Z"/><path d="M492.70752,41.42118h-.1499c-.01025,.52002-.18994,.92969-.48975,1.15967-.22998,.17969-.58984,.26953-1.03955,.26953h-.12988c-.02002-.60938-.06982-.82959-.23975-1.18896,.1499,.02002,.21973,.02979,.27979,.02979,.10986,0,.19971-.02002,.25977-.04004,.1001-.0498,.16016-.22998,.16016-.48975,0-.69971-.18018-1.19922-.67969-1.8291,.32959-.59961,.56934-1.25928,.76953-2.08887h-.81982v6.56641c0,.44971,.02002,.91943,.06006,1.28955h-1.35938c.04004-.33984,.06006-.80957,.06006-1.30957v-6.68604c0-.3999-.00977-.71973-.04004-1.04932,.22998,.02979,.46973,.04004,.81982,.04004h1.3291c.3501,0,.5498-.01025,.75977-.04004l.63965,.56934c-.08984,.18994-.1001,.20996-.1499,.37988-.1001,.31982-.2002,.60986-.31982,.92969,.35986-.22021,.67969-.47998,1.05908-.83984,.3999-.38965,.65967-.72949,.94971-1.25928h1.30908c.33008,.56982,.68994,.96973,1.25928,1.39941,.48975,.36963,.68994,.48975,1.55957,.89941-.24023,.37988-.35986,.71973-.5,1.3291-.37988-.21973-.49951-.2998-.83936-.5293v.66943c-.33984-.02979-.40967-.02979-.88965-.02979h-.60986v.6792h1.51953c.48975,0,.65967-.00977,.96924-.0498v1.26953c-.23975-.03027-.53955-.05029-.96924-.05029h-1.51953v2.49902c0,.89941-.28955,1.11914-1.51904,1.11914-.20996,0-.56982-.00977-.87939-.02002-.04004-.41992-.10986-.73975-.25-1.07959-.24951,.35986-.38965,.50977-.78955,.88965-.31982-.43945-.48975-.62939-.89941-.96924,.44971-.35986,.6499-.56006,.89941-.91943,.27002-.37988,.41992-.67969,.62988-1.30957l1.11914,.41992c-.28955,.79932-.45947,1.13916-.84961,1.73877,.24023,.03027,.62988,.06006,.77979,.06006,.37988,0,.48975-.06006,.48975-.25977v-2.16895h-1.74902Zm1.74902-1.84863h-.43994c-.47949,0-.53955,0-.88916,.02979v-.61963c-.20996,.1499-.29004,.20996-.5498,.37988-.2002-.44971-.25-.5498-.40967-.77979-.09033,.22021-.14014,.31982-.28027,.62988,.31006,.49951,.41016,.69971,.52002,1.0293,.1499,.00977,.21973,.00977,.2998,.00977h1.74902v-.6792Zm1.87891-1.12939h.21973c-.55957-.43994-1.03906-.92969-1.4292-1.45947-.40967,.59961-.76953,.99951-1.30908,1.45947h2.51855Zm.81982,3.18799c.33936,.97949,.62939,1.43945,1.33887,2.11914-.34961,.31982-.55957,.57959-.86914,1.05908-.81982-.97949-1.16943-1.58887-1.58936-2.77832l1.11963-.3999Z"/><path d="M506.13574,36.8538q-.25,.16992-1.24951,1.08936c-.50977,.46973-1.28906,1.07959-2.40869,1.9292-.30957,.22949-.35986,.27979-.35986,.38965q0,.14014,.96973,.83936c.96924,.70996,1.5791,1.20947,3.04834,2.50879,.10986,.1001,.16992,.1499,.2998,.25l-1.21924,1.24902c-.27002-.37988-.60986-.73926-1.30957-1.37891-.72949-.67969-1.0293-.91992-2.59863-2.13916-.45947-.35986-.63965-.53955-.75928-.75928-.08008-.16992-.14014-.41016-.14014-.61963,0-.2998,.12988-.61963,.3501-.85986,.13965-.1499,.27979-.26953,.88916-.72949,1.10938-.83936,1.64941-1.29932,2.31885-1.93896,.47949-.45947,.58984-.57959,.76953-.84961l1.39941,1.01953Z"/><path d="M508.12988,45.16923c.63965-.87939,.90918-1.31934,1.16943-1.95898,.33936-.82959,.5293-1.8291,.5293-2.7583,0-.92969-.18994-1.9292-.5293-2.75879-.26025-.63965-.52979-1.0791-1.16943-1.9585h1.62891c.5498,.85938,.78955,1.29932,1.0293,1.93896,.33984,.87939,.52002,1.82861,.52002,2.77832,0,.94922-.18018,1.89893-.52002,2.77832-.23975,.63965-.47949,1.07959-1.0293,1.93896h-1.62891Z"/></g></g></svg>