<svg xmlns="http://www.w3.org/2000/svg" width="39.67" height="39.67" viewBox="0 0 39.67 39.67"><title>sns-ig</title><g id="eb56353c-9075-4e4e-a30b-66f4477135c7" data-name="レイヤー 2"><g id="eb2296b8-70bf-4c13-8e8e-05d19a817a8f" data-name="DESIGN"><path d="M19.83,3.57c5.3,0,5.93,0,8,.12a11.09,11.09,0,0,1,3.68.68,6,6,0,0,1,2.28,1.49A6,6,0,0,1,35.3,8.14,11.09,11.09,0,0,1,36,11.82c.09,2.09.11,2.72.11,8s0,5.93-.11,8a11.09,11.09,0,0,1-.68,3.68,6.64,6.64,0,0,1-3.77,3.77,11.09,11.09,0,0,1-3.68.68c-2.09.09-2.72.11-8,.11s-5.92,0-8-.11a11.09,11.09,0,0,1-3.68-.68,6,6,0,0,1-2.28-1.49,6,6,0,0,1-1.49-2.28,11.09,11.09,0,0,1-.68-3.68c-.1-2.09-.12-2.72-.12-8s0-5.92.12-8a11.09,11.09,0,0,1,.68-3.68A6,6,0,0,1,5.86,5.86,6,6,0,0,1,8.14,4.37a11.09,11.09,0,0,1,3.68-.68c2.09-.1,2.72-.12,8-.12m0-3.57c-5.38,0-6.06,0-8.17.12A14.7,14.7,0,0,0,6.84,1,9.81,9.81,0,0,0,3.33,3.33,9.81,9.81,0,0,0,1,6.84a14.7,14.7,0,0,0-.92,4.82C0,13.77,0,14.45,0,19.83S0,25.9.12,28A14.76,14.76,0,0,0,1,32.83a9.81,9.81,0,0,0,2.29,3.51,9.81,9.81,0,0,0,3.51,2.29,14.7,14.7,0,0,0,4.82.92c2.11.09,2.79.12,8.17.12s6.07,0,8.18-.12a14.76,14.76,0,0,0,4.82-.92,10.18,10.18,0,0,0,5.8-5.8A14.76,14.76,0,0,0,39.55,28c.09-2.11.12-2.79.12-8.18s0-6.06-.12-8.17a14.7,14.7,0,0,0-.92-4.82,9.81,9.81,0,0,0-2.29-3.51A9.81,9.81,0,0,0,32.83,1,14.76,14.76,0,0,0,28,.12C25.9,0,25.22,0,19.83,0Z" fill="#fff"/><path d="M19.83,9.65A10.19,10.19,0,1,0,30,19.83,10.18,10.18,0,0,0,19.83,9.65Zm0,16.8a6.62,6.62,0,1,1,6.62-6.62A6.61,6.61,0,0,1,19.83,26.45Z" fill="#fff"/><circle cx="30.42" cy="9.25" r="2.38" fill="#fff"/></g></g></svg>