<svg xmlns="http://www.w3.org/2000/svg" viewBox="0 0 426 432.43">
  <g id="レイヤー_2" data-name="レイヤー 2">
    <g id="DESIGN">
      <rect x="33.49" y="29.53" width="375.68" height="386.49" transform="translate(-19.49 21.22) rotate(-5.26)" style="fill: #105d64;opacity: 0.8"/>
      <rect x="16.84" y="16.41" width="377.51" height="386.49" transform="translate(-18.26 19.62) rotate(-5.23)" style="fill: #009293;opacity: 0.9"/>
      <g>
        <path d="M30.3,57.88,53,55.5,53.75,63l-15.22,1.6L44,116.75l-7.45.79Z" style="fill: #fff"/>
        <path d="M106.48,97.68c.13,1.26.68,2.23,2.77,2l4.54-.48c1.71-.18,2-.91,2.18-1.76.2-1.11.63-4.28.83-6.09,5.1,3,7.55,3.23,8.7,3.3a28.87,28.87,0,0,1-1.87,9.51c-1.18,2.75-4.44,3.28-5.39,3.38l-11.61,1.22c-4.93.52-8.89-.73-9.55-7L95.8,89.61l-6.75.71,3.18.5c.39.08,1.11.2,1.19,1,.12,1.2-1.2,1.4-2.33,1.58-3.87,13-12.81,17.75-17.53,20.23a25.89,25.89,0,0,0-8.3-6.73c3.88-1.3,15.16-5.1,16.59-15.78l-9.28,1-3.8-36.17,43.31-4.55,3.8,36.17-10.35,1.09Zm-3-35-.23-2.21-23.3,2.45.23,2.21ZM80.81,71.46l.24,2.28,23.3-2.45L104.11,69Zm.94,8.91L82,82.89l23.3-2.45L105,77.92Z" style="fill: #fff"/>
        <path d="M154.48,57a40.62,40.62,0,0,0-7.16-8l7.77-4.39a43.62,43.62,0,0,1,7.4,8.48c-.83.6-4.78,3.12-5.55,3.65l8.78-.93A61.09,61.09,0,0,0,171,44.43l9.19,1.78c.33.09,1.12.33,1.19,1s-.92,1-2,1.36c-1.34,3-1.72,3.69-3,6.12l9.6-1,1.74,16.6-8.9.93-1-9.53-38.13,4,1,9.53-8.71.92L130.24,59.5l8.77-.92a40.32,40.32,0,0,0-5.72-6.48l7.3-4.6a33,33,0,0,1,7,7.94c-2.56,1.74-3.16,2.12-3.81,2.64ZM166.54,88.5l.86,8.2c.68,6.5-4.09,7.2-15.23,8.18a22.78,22.78,0,0,0-3.56-8.44c.94-.1,5.89-.42,7-.54,2.34-.24,2.3-.56,2-3.78l-.28-2.65L133,92l-.81-7.64,24.24-2.55-.43-4.1h3A29.85,29.85,0,0,0,161.88,74l-18.62,2-.79-7.51,30.37-3.19L177,69.4c-.76,1.29-4.3,5.88-10.3,11.36l22.48-2.37L190,86Z" style="fill: #fff"/>
        <path d="M242,64l-31.94,3.35-.55-5.17A58.41,58.41,0,0,1,202.32,67a35.28,35.28,0,0,0-7.8-6.84c9.3-3.78,20.76-15,23.5-22.32L229.4,38a.84.84,0,0,1,.91.73c.07.7-.71,1.1-1.14,1.27,8.92,7.81,18.9,11,26.72,12.58-3.13,2.37-5.33,8.21-5.42,8.54A56,56,0,0,1,241.39,58ZM202,88.54l9.81-1.35a74.77,74.77,0,0,0,3-9.64L201.28,79l-.87-8.33,51.89-5.46.87,8.34-13,1.36a77.3,77.3,0,0,1,14.62,12.83,37.48,37.48,0,0,0-6.62,7.46,70.7,70.7,0,0,0-5.08-5.85c-7.13,2-21,5.33-36,7.87-.39,1.19-.57,1.85-1.27,1.92-.5,0-.81-.49-.92-.92ZM237.29,56a83.94,83.94,0,0,1-13.5-8.86,109.3,109.3,0,0,1-10.17,11.35Zm-2,19.36-8.21.86c.06.57-.09,1-1.39,1.36-.87,2.65-2,5.19-3.14,7.8,6.32-1.17,10.07-2,13.12-2.72-1.93-1.39-3-2.17-4.34-3Z" style="fill: #fff"/>
        <path d="M289.63,91.26,267,93.64l-.78-7.45,15.21-1.6-5.48-52.21,7.44-.78Z" style="fill: #fff"/>
        <path d="M345.5,57.73a18.94,18.94,0,1,1-20.82-16.86A18.95,18.95,0,0,1,345.5,57.73Z" style="fill: #fff"/>
        <path d="M37.41,130,55.58,128l.63,6L44,135.29l4.4,41.84-6,.63Z" style="fill: #fff"/>
        <path d="M100.84,146l-25.6,2.69-.44-4.14A47.49,47.49,0,0,1,69,148.42a28,28,0,0,0-6.25-5.48c7.45-3,16.63-12,18.83-17.89l9.13.16a.68.68,0,0,1,.72.59c.06.56-.57.88-.91,1A45.34,45.34,0,0,0,112,136.9c-2.51,1.9-4.27,6.58-4.34,6.85a45.13,45.13,0,0,1-7.28-2.56Zm-32.1,19.69c1.46-.2,3.43-.46,7.86-1.08A58.46,58.46,0,0,0,79,156.88L68.19,158l-.7-6.68L109.07,147l.71,6.68-10.43,1.09A61.81,61.81,0,0,1,111.07,165a30.1,30.1,0,0,0-5.3,6,58,58,0,0,0-4.08-4.69c-5.71,1.58-16.78,4.27-28.85,6.31-.31.95-.46,1.48-1,1.54s-.66-.39-.75-.74Zm28.31-26a67.08,67.08,0,0,1-10.82-7.1,88.82,88.82,0,0,1-8.15,9.09Zm-1.64,15.52-6.58.69c0,.45-.07.77-1.11,1.09-.7,2.12-1.61,4.16-2.52,6.25,5.07-.94,8.07-1.62,10.51-2.18-1.54-1.12-2.43-1.74-3.47-2.45Z" style="fill: #fff"/>
        <path d="M147.87,156.5l-11.33,1.19,3.4,2.15c.33.22.66.44.69.74s-.13.73-.94.82a2,2,0,0,1-.88-.11,54.31,54.31,0,0,1-13.13,7.46,18.29,18.29,0,0,0-6.47-4.64A39.35,39.35,0,0,0,133,158.06l-8.81.93-2.4-22.87L159,132.2l2.4,22.87-10.17,1.07c.8.33,5.61,2.28,14.81,2.64-3.24,3.26-3.92,5.07-4.37,6.14-4.38-.82-10.49-2-16.15-5.21Zm7.91-37.15L157,130.58l-33.54,3.53-1.18-11.24Zm-3.92,20.1-.2-1.87-21.5,2.26.2,1.87Zm-21.59-12.66.2,1.87,18.26-1.92-.19-1.87Zm.5,18.82.19,1.87,21.51-2.26-.2-1.87Zm.61,5.82.2,1.87,21.5-2.26-.2-1.87Z" style="fill: #fff"/>
        <path d="M188.77,122.73l.56,5.37-19,2-.56-5.37Zm-2.86-6.24.55,5.16-14.52,1.52-.55-5.16Zm1.39,13.2.54,5.16-14.52,1.53-.54-5.16Zm-5.92,30.24.28,2.68-6.48.69-2-18.62,17.11-1.8,1.86,17.76-6.42.67-.19-1.82ZM188,136.27l.57,5.41L174,143.21l-.57-5.41Zm-3.05,17.2-.43-4.1-4.2.44.43,4.1Zm34.31-3.09.68,6.47-26.77,2.82-.68-6.48,1.32-.14-2.7-25.7,7.41-.52c.25,0,1,0,1.09.65.05.45-.29.64-1.26,1.1l2.49,23.73,2.38-.25L200,121.35l-10.72,1.13-.66-6.27,26-2.73.66,6.27-8.25.87L208,130.74l7.43-.78.73,6.88-7.44.78,1.44,13.71Z" style="fill: #fff"/>
        <path d="M259.36,129.08l-3,.31.41,3.89,9.36-1,.69,6.58-9.36,1,.56,5.31c.19,1.78.32,2,2.24,1.82l2.78-.3c1.52-.16,2.43-.76,2.89-5.62a41.11,41.11,0,0,0,6.85,2.86c-1.32,6.43-2.17,8.62-7.68,9.2l-7.44.78c-5.87.62-6.3-3.53-6.44-4.85l-.89-8.45-4.6.49a20.23,20.23,0,0,1-14,16.25,31,31,0,0,0-4.77-5.54c2.33-.65,9.42-2.78,11.48-9.95l-8.45.88-.69-6.57,9.51-1-.41-3.9-2.43.26-.22-2.13A38.67,38.67,0,0,1,228,136a21.23,21.23,0,0,0-5.64-4.53,30.41,30.41,0,0,0,7.44-5.07,42.39,42.39,0,0,0-4.93-3.58l3.28-3.82-2.17.23-.64-6.07,18.32-1.93,1.92,2.2c-.45,1.63-1.29,4.84-5.47,10.81l14.62-1.54a47.85,47.85,0,0,1-9.26-11.25L250.8,108c1.2,1.61,1.95,2.51,2.89,3.59a23,23,0,0,0,2.48-4.1l5.57,2.89c.22.13.55.3.59.66.07.75-.73.84-1,.87a3.11,3.11,0,0,1-.82,0,35.65,35.65,0,0,1-2.82,4.33l1.62,1.32a42,42,0,0,0,3.56-5.65l5.75,3.18a1.07,1.07,0,0,1,.59.71c.05.51-.79.8-1.51.77a39.61,39.61,0,0,1-3.07,4.31,32.52,32.52,0,0,0,6.69,2.83c-3.16,4-3.79,5.77-4.07,6.57a29.44,29.44,0,0,1-8.21-4.66Zm-29-10.36a34.51,34.51,0,0,1,3.73,2.42,14.91,14.91,0,0,0,1.63-3Zm15,11.83.41,3.89,3.9-.41-.41-3.89Z" style="fill: #fff"/>
        <path d="M292.78,106.94a1.16,1.16,0,0,1,.64.75c.08.76-.72.9-1.17,1a66.61,66.61,0,0,1-11.15,11.71,18.39,18.39,0,0,0-6.23-4.21A59.47,59.47,0,0,0,286.64,104Zm3.38,10.24,26.71-2.81.73,6.93-6.12.64,2.11,20c.26,2.48.62,6-11.49,7a16,16,0,0,0-3.34-7.43c.87,0,4.09,0,4.54-.07.91-.09,2.17-.28,2-1.95l-1.76-16.74-13.36,1.4-.57-5.41a1.64,1.64,0,0,0-.44.15c-2,3.22-2.93,4.76-3.94,6.35.42.11,1.16.33,1.21.79,0,.25,0,.56-.51,1l2.45,23.38-7.94.83-1.86-17.7a25.42,25.42,0,0,1-2.68,2.68,17.36,17.36,0,0,0-6.17-4.16c8.69-7.31,13.16-16.37,13.63-17.8Zm24.35-8.29-23.63,2.48-.73-6.93L319.78,102Z" style="fill: #fff"/>
        <path d="M351.47,145.53l-18.17,1.91-.62-6,12.19-1.28-4.4-41.84,6-.63Z" style="fill: #fff"/>
      </g>
      <g>
        <g>
          <path d="M282.1,210.85a21.85,21.85,0,1,1-24-19.45A21.84,21.84,0,0,1,282.1,210.85Zm-33-6.36A24.67,24.67,0,0,1,246.38,215a28.52,28.52,0,0,1,5.2,1.87c1.26-2.54,1.94-4.52,2.87-10.59.55-.11.86-.23.82-.55s-.37-.47-.65-.49Zm6.89-5.92c.09.46.25,1.46.41,3.07,1,9.49,1.09,10.31.09,13.61-1.7,5.47-5,7.58-10.12,10a26.57,26.57,0,0,1,4,4,19.65,19.65,0,0,0,10.51-11.54,21,21,0,0,0,13.28,9,16.24,16.24,0,0,1,2.69-4.78c-3.81-1-7-1.86-10.07-5a16,16,0,0,1-4.52-10l-.8-7.56c.31-.13.57-.34.53-.7s-.46-.42-.64-.4ZM268,202.32a30,30,0,0,1-4.12,9.34,17.73,17.73,0,0,1,4.85,2c1.51-1.88,3.44-6.9,4.08-8.82.63-.11.95-.15.91-.56s-.36-.38-.56-.45Z" style="fill: #fff"/>
          <path d="M305.61,188.49c.35,0,.67.07.73.58a.81.81,0,0,1-.61.94c0,3.38.14,5.08.21,6.14a37.58,37.58,0,0,0,12-3.58,61.6,61.6,0,0,0,.44,7.93,53.84,53.84,0,0,1-11.82,3,72,72,0,0,0,1.51,8.75c3.85.19,12.11,4.19,14.91,6.12a44.13,44.13,0,0,0-3.46,6.81c-1-.73-6.35-4.57-10.13-5.61a8.23,8.23,0,0,1-1,5.76c-1.82,2.92-5.78,3.48-7,3.6-4.91.52-11.63-1.14-12.3-7.56-.72-6.78,6.91-9.2,11.35-9.67a6.54,6.54,0,0,1,1.06,0c-1-6.62-1.05-7-2.05-16.52a45.45,45.45,0,0,0-1.36-7.32Zm-5.68,29.62c-2.06.21-4.28,1.19-4.11,2.88.22,2.11,3.31,1.84,3.62,1.8,3.7-.39,3.52-2.08,3.26-4.56A7.13,7.13,0,0,0,299.93,218.11Z" style="fill: #fff"/>
          <path d="M333.38,186.22c.72.11,1.12.21,1.17.71s-.58.81-.85.88a41,41,0,0,0-.48,11.87,20.08,20.08,0,0,0,.78,4c.23-.77.31-1.15.64-2.53a11,11,0,0,1,.93-2.74,30.15,30.15,0,0,0,4.3,3.4,39.45,39.45,0,0,0-2.8,12l-5.49,1.36A53.59,53.59,0,0,1,327,198.53a54.49,54.49,0,0,1,.09-11.46c.09-1,.07-1.26.09-1.82ZM351,182.66c.39,0,.9,0,1,.54s-.29.64-.55.76c.21,1.6,1.45,8.51,1.67,9.93.29,1.63.57,3.55.76,5.34.61,5.77,1.46,17.6-9.08,26.45-2.76-3.47-4.71-4.38-5.63-4.84,8.8-6.3,8.86-14.32,8.15-21.06a75.58,75.58,0,0,0-3.24-16.62Z" style="fill: #fff"/>
        </g>
        <g>
          <path d="M76.23,257.21c-11.58,1.22-21.09-4.39-22.31-16.06-.57-5.37,1.48-10.61,3.86-16.29l11.11-26.93,13-1.37-11,25.75a14.54,14.54,0,0,1,4.79-1.26,17,17,0,0,1,19,15.65C95.92,248.28,87.81,256,76.23,257.21Zm-2.82-26.89c-4.88.52-8.13,4-7.56,9.5s4.49,8.22,9.36,7.71,8.13-4,7.55-9.49C82.22,232.83,78.46,229.79,73.41,230.32Z" style="fill: #fff"/>
          <path d="M111.4,255l-9.92,1L118,190.74l9.91-1Z" style="fill: #fff"/>
          <path d="M139.44,250.06l-1-9.67,21.76-28.13c2.12-2.82,2.94-4.75,2.65-7.48-.46-4.38-3.62-7.06-8.68-6.53-3.95.42-7.8,2.66-7.2,8.37l-12,1.26c-1.13-10.76,6.92-18.13,18.13-19.31,11.58-1.21,20.54,4.45,21.65,15,.6,5.71-1.56,9-5.56,14.22l-16.28,21,25.27-2.66,1,9.68Z" style="fill: #fff"/>
          <path d="M208.7,243.29c-10.66,1.12-21.21-2.88-22.69-15.18l12-1.26c.74,5.28,5,7.25,9.72,6.76,5.15-.54,8.52-3.82,8-9.12-.52-4.88-4.17-7.76-10.05-7.14l-1.74.18-1-9.34,1.75-.19c5.79-.61,7.93-4.09,7.5-8.23-.52-5-4.47-7.14-8.79-6.69-4.5.48-7.53,3.47-7.34,8l-12,1.25c-.82-10.53,7.25-17.73,18.27-18.89,11.58-1.22,20.68,4.85,21.72,14.77.67,6.37-2.16,10.35-6.27,12.87,4.93,1.75,9.12,5.4,9.87,12.52C228.86,235.31,219.91,242.11,208.7,243.29Z" style="fill: #fff"/>
        </g>
      </g>
      <g>
        <path d="M88.65,334.33c-9.77,1-17.39-.06-24.33-5.18L71.7,321c4.45,3.24,10.1,3.88,16,3.27,7.51-.79,11.22-3.82,10.73-8.46a6.19,6.19,0,0,0-2.49-4.6c-1.38-.92-2.7-1.28-6-1.34l-7.8-.25c-5.78-.14-9.83-1.28-13-3.5-3.36-2.36-5.3-6-5.82-10.91C62.22,284.82,70,276.68,83.9,275.22c8.87-.94,15.5.34,21.53,4.57l-7.22,7.92c-4.35-3.08-9.38-3-13.63-2.6-6.7.7-9.51,4.37-9.09,8.37a5.14,5.14,0,0,0,2.24,4A11.18,11.18,0,0,0,83.84,299l7.81.25c6,.11,9.72,1.12,12.78,3.27,3.74,2.49,5.72,6.48,6.26,11.69C111.88,325.47,102.23,332.91,88.65,334.33Z" style="fill: #fff"/>
        <path d="M143.93,279.61l5,47.89-12.58,1.32-5-47.89-16.83,1.77-1.06-10.1,46.24-4.86,1.06,10.1Z" style="fill: #fff"/>
        <path d="M206.34,321.47l-4.88-9.86-22.9,2.4-2.81,10.68-13.12,1.37L180,265.61l9.86-1,29.63,55.51ZM187,282.16l-5.93,21.95,16-1.68Z" style="fill: #fff"/>
        <path d="M261.63,315.66l-15-21.81-9.05.95L240,317.93l-12.58,1.32-6.09-58,25.24-2.66c13.13-1.38,21.76,5.87,22.77,15.56.86,8.14-4.13,13.77-10.16,16.47l17,23.49ZM246.82,268.8,235,270l1.61,15.31,11.85-1.24c5.52-.58,8.81-4.14,8.34-8.62S252.34,268.22,246.82,268.8Z" style="fill: #fff"/>
        <path d="M304.83,262.7l5,47.89-12.58,1.32-5-47.89-16.83,1.77-1.06-10.1,46.24-4.86,1.06,10.1Z" style="fill: #fff"/>
        <path d="M349.22,288.09l-8.69.91-7.08-39.52L348,248Zm-9.13,19.32-1.27-12.05,13.49-1.42L353.57,306Z" style="fill: #fff"/>
      </g>
      <g>
        <g>
          <path d="M192.06,370.16l-1.66-16.67-3.86,4.09-.4-4.08,3.86-4.09,3.79-.38,2.05,20.75Z" style="fill: #fff"/>
          <path d="M208.61,368.51,207,351.85l-3.86,4.09-.41-4.08,3.86-4.09,3.79-.38,2.06,20.75Z" style="fill: #fff"/>
          <path d="M219.86,359.43l-.43-4.32,4.32-.42.42,4.31Zm.78,7.89-.42-4.31,4.31-.43.43,4.32Z" style="fill: #fff"/>
          <path d="M235.61,366a6,6,0,0,1-6.93-5.56l-.87-8.74a6.34,6.34,0,0,1,12.62-1.25l.86,8.74A6,6,0,0,1,235.61,366Zm1-15.11c-.17-1.75-1.27-2.73-2.78-2.58a2.54,2.54,0,0,0-2.26,3.08l.86,8.65a2.51,2.51,0,0,0,2.81,2.55c1.52-.15,2.4-1.3,2.23-3.05Z" style="fill: #fff"/>
          <path d="M252.16,364.38a6,6,0,0,1-6.93-5.56l-.87-8.74A6.34,6.34,0,0,1,257,348.83l.87,8.74A6,6,0,0,1,252.16,364.38Zm1-15.11c-.18-1.75-1.27-2.73-2.79-2.58a2.53,2.53,0,0,0-2.25,3.08l.85,8.65a2.52,2.52,0,0,0,2.82,2.55c1.51-.15,2.4-1.3,2.22-3.05Z" style="fill: #fff"/>
          <path d="M272,356.5a6.8,6.8,0,0,1-3.51-.66,5.06,5.06,0,0,0-2.45-.46,3.17,3.17,0,0,0-2.39,1.47L261,354.7c1.63-2,2.76-2.8,4.54-3a6.77,6.77,0,0,1,3.5.66,5,5,0,0,0,2.43.46,3.21,3.21,0,0,0,2.42-1.48l2.65,2.15C274.91,355.5,273.76,356.32,272,356.5Z" style="fill: #fff"/>
          <path d="M280.88,361.35l-.34-3.41,6.86-9.77a3.56,3.56,0,0,0,.83-2.61,2.53,2.53,0,1,0-5,.56l-3.79.37c-.38-3.79,2.16-6.33,5.72-6.69s6.52,1.68,6.89,5.41c.2,2-.48,3.17-1.74,5l-5.13,7.31,8-.8.34,3.41Z" style="fill: #fff"/>
          <path d="M303.66,359.27a6,6,0,0,1-6.94-5.55l-.87-8.74a6.34,6.34,0,0,1,12.62-1.25l.87,8.74A6,6,0,0,1,303.66,359.27Zm1-15.11c-.17-1.74-1.27-2.72-2.79-2.57a2.53,2.53,0,0,0-2.25,3.07l.86,8.66a2.5,2.5,0,0,0,2.81,2.54c1.51-.15,2.4-1.29,2.23-3Z" style="fill: #fff"/>
          <path d="M314.19,350.08l-.42-4.31,4.31-.43.43,4.31ZM315,358l-.43-4.31,4.31-.43.43,4.32Z" style="fill: #fff"/>
          <path d="M329.94,356.67a6,6,0,0,1-6.93-5.55l-.87-8.74a6.34,6.34,0,0,1,12.62-1.25l.86,8.74A6,6,0,0,1,329.94,356.67Zm1-15.11c-.18-1.75-1.28-2.73-2.79-2.58a2.54,2.54,0,0,0-2.26,3.08l.86,8.65a2.51,2.51,0,0,0,2.81,2.55c1.52-.15,2.41-1.3,2.23-3.05Z" style="fill: #fff"/>
          <path d="M346.49,355a6,6,0,0,1-6.93-5.55l-.87-8.74a6.34,6.34,0,0,1,12.62-1.25l.87,8.74A6,6,0,0,1,346.49,355Zm1-15.11c-.18-1.75-1.27-2.73-2.79-2.58a2.53,2.53,0,0,0-2.25,3.08l.85,8.65a2.52,2.52,0,0,0,2.82,2.55c1.51-.15,2.4-1.3,2.22-3.05Z" style="fill: #fff"/>
        </g>
        <g>
          <g>
            <path d="M56.56,372.48l5.71-16.78,3.22,1.15-5.28,15.27,8.17,13.94-2.93,1.75Zm4.93-.49,5.71-16.77,3.22,1.14-5.28,15.27,8.17,13.94-2.93,1.76Z" style="fill: #fff"/>
            <path d="M372.75,341.15,367,357.93l-3.22-1.15,5.28-15.27-8.17-13.93,2.93-1.76Zm4.94-.49L372,357.44l-3.22-1.15L374,341l-8.18-13.93,2.93-1.76Z" style="fill: #fff"/>
          </g>
          <g>
            <path d="M82.57,364a12.39,12.39,0,0,0-1-2.09c.74-.05,1.32-.11,1.71-.15a88,88,0,0,0,9.77-1.56,22.63,22.63,0,0,0,4.29-1.41l1.71,2c-.34.1-.41.1-.92.28-.82.28-1.48.48-2.57.76l2.17.47c-.79,2-.81,2-1.08,2.62l1.43-.14a18.49,18.49,0,0,0,2.34-.32c0,.57,0,1.05.11,1.83l.16,1.59a12.18,12.18,0,0,0,.27,1.59l-2.41.24-.27-2.71L84,368.34l.28,2.82-2.41.24a9.54,9.54,0,0,0,0-1.68l-.16-1.63c-.06-.61-.13-1.06-.27-1.84a16.47,16.47,0,0,0,2.4-.12l1.36-.14A13.82,13.82,0,0,0,84,363.83Zm15.69,6.16a22.39,22.39,0,0,0-1.7,2.29,20.79,20.79,0,0,1-2.48,2.66,24.12,24.12,0,0,0,8,1.13,9.39,9.39,0,0,0-.89,2.52,24.69,24.69,0,0,1-6-.84A21.26,21.26,0,0,1,92,376.71a28,28,0,0,1-8.28,3.8,10.19,10.19,0,0,0-1.42-2.21,25.54,25.54,0,0,0,7.54-2.85A17.41,17.41,0,0,1,86,371.83c-.62.1-.67.11-1,.19l-.23-2.24a19,19,0,0,0,2.23-.11l7.88-.78a10,10,0,0,0,1.87-.29Zm-8.19-4.62c-.38-.89-.74-1.66-1.14-2.41-.06,0-.91.15-2.53.4a23.8,23.8,0,0,1,1.17,2.25Zm-1.51,6a10.19,10.19,0,0,0,3.25,2.55,13.72,13.72,0,0,0,3-3.17Zm5.61-6.45a18.59,18.59,0,0,0,1.12-3.27c-.56.15-.71.18-.92.23l-1.57.31c-.34.07-.9.17-1.59.33a16.26,16.26,0,0,1,1.13,2.58Z" style="fill: #fff"/>
            <path d="M110.67,375.14c.1,1,.22,1.78.37,2.6l-2.6.25a23.81,23.81,0,0,0-.13-2.61l-.64-6.4c-.1-1.07-.15-1.57-.19-2.44a11.15,11.15,0,0,1-1.63,2.66,9.41,9.41,0,0,0-1.46-2.35,18.6,18.6,0,0,0,3.42-6.43,11.15,11.15,0,0,0,.62-2.8l2.57.44c-.12.34-.24.73-.4,1.31-.19.75-.66,2.17-1.15,3.45Zm8-15.49a19.7,19.7,0,0,0-.42-2.68l2.63-.26a25,25,0,0,0,.13,2.71l.19,1.91.63-.07a11.74,11.74,0,0,0,2.09-.34l.24,2.39c-.59,0-1.29,0-2,.12l-.69.07,1,10.13c.11,1.13-.06,1.82-.53,2.2s-1,.52-2.62.68c-.79.07-1.37.11-2.31.14a8.2,8.2,0,0,0-.94-2.39,22.09,22.09,0,0,0,2.69,0c1.22-.12,1.38-.21,1.34-.68l-1-9.81-5.9.58a23,23,0,0,0-2.55.39l-.24-2.43a19.37,19.37,0,0,0,2.47-.12l6-.59Zm-5,6.08a25.61,25.61,0,0,1,3.84,4.73l-1.87,1.63a20.68,20.68,0,0,0-3.74-4.95Z" style="fill: #fff"/>
            <path d="M128.22,359.23a18.55,18.55,0,0,0-.3-2.18c.48,0,.89,0,1.91-.13l2.63-.26c1-.1,1.36-.16,1.88-.25a16.59,16.59,0,0,0,.15,2.15L135.72,371c.11,1.16.18,1.63.28,2.17l-2.21.22-.11-1.09-2,.2.18,1.82-2.27.23a20.86,20.86,0,0,0-.13-2.6Zm2.62,4.25,1.95-.19-.45-4.54-2,.2Zm.68,6.88,1.95-.19-.48-4.88-2,.19Zm6.44-11a17.63,17.63,0,0,0-2.31.34l-.22-2.3a16.08,16.08,0,0,0,2.26-.1l1.91-.19,0-.58a9,9,0,0,0-.3-1.62l2.5-.24a11.8,11.8,0,0,0,.05,1.63l.06.59,2.37-.23a16.7,16.7,0,0,0,2.24-.36l.23,2.3a16.58,16.58,0,0,0-2.25.12l-2.38.23.2,2.06,3-.29a17.1,17.1,0,0,0,2.36-.37l.22,2.3a14.49,14.49,0,0,0-2.13.1l-.37,0,.18,1.85.28,0a15.4,15.4,0,0,0,2.14-.32l.23,2.36a12.08,12.08,0,0,0-2.16.08l-.28,0,.49,4.91c.12,1.25,0,1.8-.66,2.16a6,6,0,0,1-2.36.59l-1.69.14a5.6,5.6,0,0,0-.75-2.22,19.2,19.2,0,0,0,2.45-.07c.67-.07.79-.19.74-.67L143.5,367l-5.19.52a19,19,0,0,0-2.31.36l-.23-2.37a16.32,16.32,0,0,0,2.37-.12l5.15-.51L143.1,363l-5.14.51c-.91.09-1.71.22-2.38.35l-.22-2.3a17.77,17.77,0,0,0,2.42-.11l2.23-.22-.2-2.06Zm2.15,13a16.37,16.37,0,0,0-3.13-3.28l1.73-1.4a17,17,0,0,1,3.17,3Z" style="fill: #fff"/>
            <path d="M155.23,370.62a20.26,20.26,0,0,0,.39,2.66l-2.54.25a20.26,20.26,0,0,0-.13-2.71l-1.41-14.17a22.28,22.28,0,0,0-.33-2.42,19.74,19.74,0,0,0,2.25-.13l3.84-.38a18.37,18.37,0,0,0,2.2-.31c0,.7.05,1.18.14,2l.33,3.32c.1,1,.17,1.49.26,2-.57,0-1.25.06-2,.14l-3.93.39Zm-1.36-13.69,3.73-.37-.11-1.09-3.73.37Zm.26,2.64,3.73-.37-.11-1.1-3.73.37Zm12.06,8.23c.08.83.15,1.32.25,1.88.48,0,1.27,0,1.66-.05.61-.06.79-.23.74-.67l-.89-9.07-4.28.43c-.76.07-1.45.16-2,.26,0-.63,0-1.05-.13-2l-.33-3.32c-.07-.74-.15-1.34-.26-2a20.75,20.75,0,0,0,2.22-.14l4.16-.41a18.88,18.88,0,0,0,2.23-.31c0,.79.05,1.34.15,2.42L171.13,369c.13,1.31-.07,1.9-.82,2.3a6.62,6.62,0,0,1-2.43.5c-.3,0-.39,0-1.5.08a8.36,8.36,0,0,0-.79-2.17l-1.22.09-4.6.46.12,1.22-2.3.22a13.94,13.94,0,0,0-.06-2.18l-.52-5.3c-.08-.76-.16-1.36-.26-1.94a18.34,18.34,0,0,0,2-.12l4.83-.47a18.75,18.75,0,0,0,2-.29c0,.57,0,1.11.13,2Zm-6.91-2.49,4.43-.44-.13-1.3-4.43.44Zm.31,3.17L164,368l-.14-1.41-4.43.44Zm3.87-12.5,4.06-.4-.11-1.09-4.06.4Zm.26,2.64,4.06-.4-.11-1.1-4.06.4Z" style="fill: #fff"/>
          </g>
        </g>
      </g>
      <path d="M334.27,62.81a12.29,12.29,0,0,0,1.65-4.58l5.57-.59a20.5,20.5,0,0,1-3.83,8.21l5.94,5.26-7.15.75-2.32-2.17a17.05,17.05,0,0,1-9.49,4.21c-6.58.69-10.42-2.92-10.91-7.56-.57-5.39,3.47-7.88,5.88-9.39-1.82-1.51-3.33-2.8-3.59-5.3-.38-3.53,2.31-7.14,8.14-7.75s9.18,2.5,9.58,6.25c.36,3.47-2.06,5.85-5.29,7.45Zm-10.7-2.89c-1.1.59-4.35,2.27-4,5.84.4,3.75,4.47,3.32,5.58,3.21a10.39,10.39,0,0,0,5.56-2.4Zm5.1-9.85c-.11-1.07-1.19-2.73-4-2.43-2.39.25-3.61,1.78-3.46,3.18s2,2.71,3.68,3.76C327.07,53.42,328.86,51.86,328.67,50.07Z" style="fill: #009293"/>
    </g>
  </g>
</svg>
