<svg xmlns="http://www.w3.org/2000/svg" width="905.53" height="284.91" viewBox="0 0 905.53 284.91"><g id="レイヤー_2" data-name="レイヤー 2"><g id="DESIGN"><rect x="34.88" y="59.11" width="863.93" height="186.75" transform="matrix(1, -0.09, 0.09, 1, -11.97, 43.26)" style="fill:#105d64;opacity:0.8"/><rect x="6.71" y="39.2" width="868.15" height="186.75" transform="translate(-10.25 40.75) rotate(-5.23)" style="fill:#009293;opacity:0.9"/><path d="M124.24,114.58l3.85,3.22A68.64,68.64,0,0,1,118,133.28a16.59,16.59,0,0,0-6.25-4.18,28.54,28.54,0,0,0,5.59-7l-8,.72,1.33,14.84c.49,5.43-2.85,6.36-10.67,6.92a16.47,16.47,0,0,0-3-6.92,21.18,21.18,0,0,0,4,0c2.08-.19,2.27-.89,2.07-3.07l-1-11.16-18.62,1.67-.62-6.83,20-1.8a87.33,87.33,0,0,0-11-3.32L96,107.72l-9.5.86-.56-6.21,31.67-2.84,3,3.49c-2.24,2.84-6.6,6.6-9.88,9.24a20.21,20.21,0,0,1,2.86,1.41c-.67.6-1.22,1-2.21,2.06Zm-27.71-6.9c.91.26,4.81,1.23,7.47,2a31.12,31.12,0,0,0,3.35-3Z" style="fill:#fff"/><path d="M153.26,102.39a.9.9,0,0,1,.59.68c.06.63-.86.76-1.34.81-.39.57-1.95,3.35-2.29,3.92-.47.77-2.47,4-5.47,8.16.62-.1,4.08-.75,4.51-.84A20.74,20.74,0,0,0,148,112l4-1.38a1.74,1.74,0,0,0-.41-.16,42.6,42.6,0,0,0,6.35-15.87l7,1.52a1,1,0,0,1,.7.72c0,.44-.76.8-1.18,1-.31.85-.46,1.36-1.15,3.47l13.14-1.18c.87,7.55,2.54,25.59.62,32.51-1.46,5.06-5.93,5.86-10.61,6-.15-1.16-.43-3.23-3.76-7.63a23,23,0,0,0,4.33.35c3.25-.3,3.82-3.72,4-5.84a108.54,108.54,0,0,0-.83-18.5l-9.55.85a35,35,0,0,1-2.83,5.49,21.43,21.43,0,0,0-4.05-2.13,90.93,90.93,0,0,1,3,8.72,36.35,36.35,0,0,0-5.75,2.38c-.26-1.2-.27-1.35-.35-1.73l-2,.37,1.71,19.11-6.55.59-1.33-14.89a3,3,0,0,1-.83.56,48.8,48.8,0,0,1-.92,11.57,28.77,28.77,0,0,0-6.16-.52c1.64-4.59,1.18-11.89,1.17-12.57l6.26,0a.49.49,0,0,1,.41.2l-.26-2.91c-1.26.21-4.29.68-5.3.92a6.47,6.47,0,0,1-.36.86.63.63,0,0,1-.56.35.92.92,0,0,1-.95-.85l-1.2-6.29c1.2-.16,2.51-.33,3.91-.55.82-1.15,1.73-2.5,2-2.92a38.79,38.79,0,0,0-3.1-2.45c-3.29-2.35-3.7-2.6-4.33-3.09l3.42-5.93c1.14.68,1.45.9,1.92,1.2a38.81,38.81,0,0,0,3.14-8l5.87,2.21c.36.11.57.29.6.63s-.25.56-1.4.76a80.89,80.89,0,0,1-3.77,7.57c.84.66,1,.79,1.42,1.1a46,46,0,0,0,3.84-7.83Zm2.59,19.67a46.3,46.3,0,0,0,3.08,10.38,25.55,25.55,0,0,0-5.69,2.51,53.24,53.24,0,0,1-3-11Zm7.56-10a42.9,42.9,0,0,1,5.22,10.24c-2,1-5.64,3.09-5.87,3.21a45.78,45.78,0,0,0-5.32-10.76Z" style="fill:#fff"/><path d="M185.16,100a35.4,35.4,0,0,0,5.41-.1c1.41-.12,2.86-.35,4.93-.68a73.54,73.54,0,0,0,1.05-8.41l7.83,1.7c.7.13,1,.3,1,.69,0,.58-.72.65-1,.67-.12.35-.55,2.64-.69,3.29a40.69,40.69,0,0,0,5.1-2.07,50.65,50.65,0,0,0,.79,7.21,65.47,65.47,0,0,1-7.61,2.4c-.5,2-1.74,6.65-3.83,12.85a64,64,0,0,1-4.72,11.18,38.13,38.13,0,0,0-7.53-2.25,87.47,87.47,0,0,0,8.08-20c-1.11.2-5.75.76-7.26.9Zm32.56,10.42a7.24,7.24,0,0,0-1.32,4.91,36.27,36.27,0,0,0,.91,4.71,51.35,51.35,0,0,1,10.81,5,48.06,48.06,0,0,0-3.93,6.22,43.08,43.08,0,0,0-5.95-3.58c-.51,4.64-3.59,6.29-9.17,6.79-7.71.69-11.85-2.41-12.26-7-.08-.92-.49-7.68,9.31-8.56,1.36-.12,2.33-.11,3.21-.14-.08-.33-.58-3.81-.62-4.2a9.47,9.47,0,0,1,2.79-7Zm-10.84,14.27c-1.36.13-3,1-2.93,2.27.11,1.16,1.57,1.67,3.61,1.49,3.29-.3,3.34-1.92,3.38-3.14A9.53,9.53,0,0,0,206.88,124.66ZM214,98c7.93,1.83,11,3.61,13.32,5.16a62.81,62.81,0,0,0-3.85,6.65,35,35,0,0,0-12.74-5.16Z" style="fill:#fff"/><path d="M245.84,88.66c.73,0,1.12,0,1.17.58s-.29.61-.85.9a106.58,106.58,0,0,0,.18,19.4c1,11,2.24,12.95,6,12.61,8.29-.74,14.61-12.6,15.68-15.44a49.38,49.38,0,0,0,6.19,5.85c-4.72,9.47-12.36,16.95-22.16,17.83-10.76,1-12.45-8.07-13.54-20.2-.25-2.81-.87-15.12-1.09-17.6-.13-1.4-.27-3-.5-4.45Z" style="fill:#fff"/><path d="M320.61,89c-12,.88-21.41,12.58-20.7,20.43.5,5.63,7.88,7.75,14.49,7.31a65.43,65.43,0,0,0-2.85,9.15c-4-.71-18.29-3.35-19.33-14.94-.8-9,5.55-16,7.43-17.48a132.21,132.21,0,0,0-19.8,4.86l-1.94-9a156.4,156.4,0,0,0,21.48-3c7-1.41,14.7-3.42,19.13-5.29Zm-7.43,7.61a30.13,30.13,0,0,1,5,4.78c-1.27,1.09-1.9,1.69-3.47,3.25a39.4,39.4,0,0,0-4.81-5.1ZM318,92.7a30.74,30.74,0,0,1,4.77,4.7c-1.13,1-1.88,1.83-3.27,3.33a36.24,36.24,0,0,0-4.8-5.1Z" style="fill:#fff"/><path d="M110.92,168.14c.78.19,1.72.36,1.79,1.11.1,1.09-.89,1.35-1.64,1.5a75.44,75.44,0,0,0-2.44,25.7c.92,10.24,4.75,17.09,7.19,16.88,2.69-.25,5.21-7.92,7-13.41a38.12,38.12,0,0,0,9.61,8.1c-5.25,16.9-12.38,23.29-16.5,23.66-4.7.42-18-8.45-20.35-34.4-1-10.75,0-20.74,1.3-31.77Zm40.61-3c10.35,11.6,17.93,25.31,20.75,40.72-4.78,2.37-10.49,5.76-13.13,7.44-2.6-17.71-8.91-29.51-17.84-40.3Z" style="fill:#fff"/><path d="M178.76,170.44a68.29,68.29,0,0,0,10.4-3c23.12-8.34,28.7-10.28,37.94-11.1,20.15-1.81,30.16,10.75,31.49,25.52,2.84,31.66-35.16,37.44-48.61,39.32a56.49,56.49,0,0,0-5.49-13.05c15.12-1.27,41.78-4.17,39.92-24.82-.39-4.37-2.95-15.91-17.81-14.57-12.51,1.12-32.49,11.46-41.1,17.4Z" style="fill:#fff"/><path d="M343.82,154.44C323,156,306.75,176.22,308,189.82c.87,9.74,13.65,13.42,25.09,12.65a113.18,113.18,0,0,0-4.93,15.85c-7-1.24-31.67-5.8-33.47-25.86-1.39-15.54,9.61-27.78,12.86-30.28a230.81,230.81,0,0,0-34.29,8.41L269.88,155a273.61,273.61,0,0,0,37.2-5.28c12.05-2.44,25.45-5.93,33.12-9.15ZM331,167.62a52.15,52.15,0,0,1,8.61,8.28c-2.2,1.89-3.29,2.92-6,5.62a68.08,68.08,0,0,0-8.33-8.82Zm8.28-6.76a53.52,53.52,0,0,1,8.26,8.15c-1.95,1.78-3.27,3.17-5.66,5.76a62.44,62.44,0,0,0-8.32-8.82Z" style="fill:#fff"/><path d="M397.26,137.88c1,.25,1.49.46,1.55,1.22.11,1.17-1.3,1.55-2.3,1.73-.79,1.51-1.65,3.28-4.16,9.26,4.49,0,8.79-.2,10.55-.36s2.93-.34,4.1-.53a62,62,0,0,0-2.51,13.59,103.23,103.23,0,0,1-15.93.67c-.81,2.36-1.71,5.49-2.36,7.66a129.21,129.21,0,0,0,18.75-.41c-1.19,4.68-2.06,10.09-2.5,12.75-5.15.13-11,.14-19-.33a27.4,27.4,0,0,0-.32,6.89c.92,10.24,10.41,9.39,14.52,9,3.61-.32,16.29-1.46,15.2-13.63-.48-5.38-5-12.17-5.46-12.72A40.58,40.58,0,0,0,419.69,167c2.34,3.51,6.84,11.15,7.5,18.54,1.66,18.47-17.44,24.5-28.44,25.49-16.88,1.51-27-6.38-28.09-18.73a41.81,41.81,0,0,1,.35-10.27,69.69,69.69,0,0,1-11.19-2.13l1.73-12.68a79.08,79.08,0,0,0,11.67,2.59c.23-1.12.65-3,1.84-7.7a72.43,72.43,0,0,1-12.88-3.07l1.35-13.24a106,106,0,0,0,15.27,3.28c.64-2.34,3.75-12.95,4.4-15.12Z" style="fill:#fff"/><path d="M492.31,187.76c.15,1.68.86,3,3.63,2.72l6-.54c2.27-.21,2.69-1.18,2.93-2.3.29-1.46.93-5.67,1.22-8.06,6.72,4,10,4.44,11.5,4.55-.31,4.09-1,8.89-2.68,12.6s-6,4.26-7.22,4.37l-15.45,1.39c-6.55.59-11.79-1.14-12.54-9.54l-1.45-16.12-9,.8,4.21.73c.52.12,1.47.29,1.56,1.29.14,1.6-1.62,1.84-3.12,2.06-5.4,17.16-17.38,23.31-23.69,26.5a34.33,34.33,0,0,0-10.89-9.09c5.18-1.65,20.24-6.47,22.36-20.63l-12.35,1.11-4.31-48.11,57.6-5.17L505,174.43l-13.77,1.24ZM489,141.16l-.26-2.93-31,2.78.26,2.93Zm-30.22,11.26.27,3,31-2.78-.27-3Zm1.06,11.84.31,3.36,31-2.78-.3-3.36Z" style="fill:#fff"/><path d="M556.87,134.65a53.58,53.58,0,0,0-9.35-10.76l10.41-5.67a57.59,57.59,0,0,1,9.66,11.41c-1.12.77-6.41,4-7.45,4.73l11.67-1.05a81.22,81.22,0,0,0,7.3-15l12.16,2.55c.43.13,1.48.46,1.55,1.3.1,1-1.23,1.38-2.71,1.77-1.85,4-2.36,4.86-4.11,8.07l12.77-1.15,2,22.08L588.91,154l-1.14-12.68-50.71,4.55,1.13,12.68-11.58,1-2-22.09,11.68-1a53.59,53.59,0,0,0-7.47-8.73l9.79-6a43.76,43.76,0,0,1,9.17,10.69c-3.44,2.26-4.24,2.75-5.11,3.42Zm15.37,42.13,1,10.91c.78,8.65-5.58,9.48-20.38,10.55A30.21,30.21,0,0,0,548.27,187c1.26-.11,7.83-.45,9.26-.58,3.11-.28,3.07-.7,2.69-5l-.32-3.53-32.24,2.9-.91-10.16,32.24-2.9-.49-5.45,4,.06a39.19,39.19,0,0,0,3.88-4.92l-24.77,2.23-.9-10L581.08,146l5.41,5.61c-1,1.7-5.82,7.72-13.9,14.87l29.89-2.68L603.4,174Z" style="fill:#fff"/><path d="M649.54,184.49c-17,1.53-34.28-8.52-36.39-32s13.08-36.39,30.12-37.92c16.88-1.51,34.27,8.36,36.39,31.95S666.42,183,649.54,184.49Zm-20.85-33.35c1.67,18.65,13.09,21.35,19.72,20.75,5.88-.53,17.45-4.53,15.71-23.92-1.72-19.15-13.59-21.3-19.72-20.75S627,132,628.69,151.14Z" style="fill:#fff"/><path d="M708.81,156.4l1.86,20.74-15.11,1.36-5.94-66.17L704.73,111l2.53,28.13,27.45-30.82,18.72-1.68L728,135l33.68,37.61-18.48,1.65-25.43-27.85Z" style="fill:#fff"/><path d="M781.73,104.06l1.76,19.57-.9,25-8.06.73L769.3,124.9l-1.76-19.56Zm-9.53,53.25L786.39,156l1.28,14.19-14.19,1.27Z" style="fill:#fff"/><path d="M452.59,85.75l11.23,17.31-1.8.15L450.84,85.89,459,67l1.79-.15Zm5.81-.49,11.23,17.32-1.8.15L456.65,85.41l8.15-18.94,1.79-.15Z" style="fill:#fff"/><path d="M486.38,96.89l-5.11.43L479.4,75l-5.2,5.39L473.74,75,479,69.57l5.1-.43Z" style="fill:#fff"/><path d="M505.05,95.33l-5.11.43-1.87-22.3-5.2,5.38-.46-5.45L497.62,68l5.1-.42Z" style="fill:#fff"/><path d="M518.38,83.58l-5.77.48-.48-5.77,5.77-.48Zm.89,10.56-5.77.48L513,88.85l5.77-.48Z" style="fill:#fff"/><path d="M541.21,84.22a8,8,0,0,1-2,6.33,9.29,9.29,0,0,1-11.85,1,7.9,7.9,0,0,1-3-5.91l-1-11.69a7.92,7.92,0,0,1,2-6.34,9.29,9.29,0,0,1,11.85-1,7.94,7.94,0,0,1,3,5.91Zm-5.11.39-1-11.58A4,4,0,0,0,534,70.34a3.08,3.08,0,0,0-2.49-.82,3.14,3.14,0,0,0-2.34,1.24,4,4,0,0,0-.69,2.83l1,11.57a3.92,3.92,0,0,0,1.16,2.65,3.09,3.09,0,0,0,2.51.81,3,3,0,0,0,2.32-1.21A3.92,3.92,0,0,0,536.1,84.61Z" style="fill:#fff"/><path d="M563.56,82.35a8,8,0,0,1-2,6.32,9.31,9.31,0,0,1-11.85,1,7.87,7.87,0,0,1-3.05-5.91l-1-11.7a7.91,7.91,0,0,1,2-6.33,9.29,9.29,0,0,1,11.85-1,7.93,7.93,0,0,1,3,5.91Zm-5.11.38-1-11.57a4.06,4.06,0,0,0-1.14-2.7,3.11,3.11,0,0,0-2.49-.81,3.14,3.14,0,0,0-2.34,1.24,4,4,0,0,0-.7,2.82l1,11.58a3.87,3.87,0,0,0,1.16,2.65,3.09,3.09,0,0,0,2.51.81,3.05,3.05,0,0,0,2.32-1.21A3.94,3.94,0,0,0,558.45,82.73Z" style="fill:#fff"/><path d="M588.75,77.29a14.91,14.91,0,0,1-3,2.87,6.67,6.67,0,0,1-3.11,1,9.92,9.92,0,0,1-4.68-.94,6.86,6.86,0,0,0-3.27-.67,4.84,4.84,0,0,0-3.22,1.92L568,78.56a14.66,14.66,0,0,1,3-2.88,6.58,6.58,0,0,1,3.07-1,9.88,9.88,0,0,1,4.67,1,6.92,6.92,0,0,0,3.24.67,4.84,4.84,0,0,0,3.25-1.92Z" style="fill:#fff"/><path d="M608.78,86.65,591.9,88.06l-.38-4.56,9.33-12.91A5.26,5.26,0,0,0,602,67.11a3.61,3.61,0,0,0-1.09-2.44,3.25,3.25,0,0,0-2.55-.75q-3.37.28-3.08,3.83l-5,.43a7.74,7.74,0,0,1,2-6.17,9.54,9.54,0,0,1,12.08-1,7.71,7.71,0,0,1,2.84,5.7,7.23,7.23,0,0,1-.5,3.41,15.23,15.23,0,0,1-1.93,3.19l-7,9.65,10.72-.9Z" style="fill:#fff"/><path d="M629.93,76.79a7.94,7.94,0,0,1-2,6.33,9.29,9.29,0,0,1-11.85,1,7.86,7.86,0,0,1-3-5.91l-1-11.69a7.89,7.89,0,0,1,2-6.34,9.29,9.29,0,0,1,11.85-1,8,8,0,0,1,3,5.91Zm-5.11.39-1-11.58a4,4,0,0,0-1.14-2.69,3,3,0,0,0-2.49-.81,3.1,3.1,0,0,0-2.35,1.23,4,4,0,0,0-.69,2.83l1,11.57a4,4,0,0,0,1.15,2.66,3.19,3.19,0,0,0,2.52.81A3.1,3.1,0,0,0,624.14,80,4,4,0,0,0,624.82,77.18Z" style="fill:#fff"/><path d="M641.69,73.25l-5.77.49L635.43,68l5.77-.49Zm.88,10.57-5.77.48-.48-5.77,5.77-.48Z" style="fill:#fff"/><path d="M664.51,73.89a7.9,7.9,0,0,1-2,6.33,9.29,9.29,0,0,1-11.85,1,7.9,7.9,0,0,1-3-5.9l-1-11.7a7.86,7.86,0,0,1,2-6.33,9.29,9.29,0,0,1,11.85-1,7.93,7.93,0,0,1,3,5.91Zm-5.11.39-1-11.58A4,4,0,0,0,657.3,60a3.38,3.38,0,0,0-4.84.43,3.94,3.94,0,0,0-.69,2.82l1,11.58a3.89,3.89,0,0,0,1.15,2.65,3.16,3.16,0,0,0,2.51.81,3.09,3.09,0,0,0,2.33-1.21A4,4,0,0,0,659.4,74.28Z" style="fill:#fff"/><path d="M686.86,72a7.94,7.94,0,0,1-2,6.33,9.29,9.29,0,0,1-11.85,1,7.9,7.9,0,0,1-3-5.91l-1-11.69a7.86,7.86,0,0,1,2-6.33,9.29,9.29,0,0,1,11.85-1,7.93,7.93,0,0,1,3,5.91Zm-5.11.39-1-11.58a4,4,0,0,0-1.14-2.69,3.06,3.06,0,0,0-2.49-.81,3.1,3.1,0,0,0-2.34,1.23,4,4,0,0,0-.69,2.83l1,11.58a3.89,3.89,0,0,0,1.15,2.65,3.16,3.16,0,0,0,2.51.81,3,3,0,0,0,2.32-1.22A3.91,3.91,0,0,0,681.75,72.41Z" style="fill:#fff"/><path d="M700.56,65,689.34,47.67l1.79-.15,11.19,17.32-8.15,18.94-1.8.15Zm5.81-.48L695.15,47.18l1.79-.15,11.19,17.32L700,83.29l-1.8.15Z" style="fill:#fff"/><path d="M348.68,91.16a12.69,12.69,0,0,0-1-2.13l1.74-.13a86.81,86.81,0,0,0,9.93-1.43,22.36,22.36,0,0,0,4.37-1.36l1.7,2c-.35.09-.41.1-.93.27-.84.27-1.51.46-2.62.73l2.19.51c-.83,2-.85,2.07-1.13,2.64l1.45-.12a21.72,21.72,0,0,0,2.38-.28c0,.57,0,1.06.08,1.85l.14,1.61a11.08,11.08,0,0,0,.25,1.62l-2.45.21-.23-2.76-14.5,1.22.24,2.86-2.44.2a10.76,10.76,0,0,0,0-1.7l-.14-1.65c-.05-.62-.12-1.08-.25-1.87a17.33,17.33,0,0,0,2.43-.09l1.39-.12A13.52,13.52,0,0,0,350.15,91Zm15.81,6.49a22.8,22.8,0,0,0-1.76,2.3,21.31,21.31,0,0,1-2.56,2.65,24.74,24.74,0,0,0,8.1,1.28,9.34,9.34,0,0,0-.94,2.54,24.85,24.85,0,0,1-6.09-1,19.83,19.83,0,0,1-3.17-1.24,28.2,28.2,0,0,1-8.45,3.73,10.52,10.52,0,0,0-1.41-2.26,26,26,0,0,0,7.69-2.77A17.91,17.91,0,0,1,352,99.18c-.63.1-.68.1-1.07.18l-.19-2.27A18.78,18.78,0,0,0,353,97l8-.67a9.74,9.74,0,0,0,1.91-.27Zm-8.24-4.81c-.36-.91-.72-1.7-1.11-2.46l-2.57.37a22.41,22.41,0,0,1,1.15,2.3Zm-1.62,6.1a10.26,10.26,0,0,0,3.26,2.63A14.12,14.12,0,0,0,361,98.41Zm5.79-6.45a19.18,19.18,0,0,0,1.18-3.3c-.56.14-.71.17-.93.21s-.79.16-1.6.29c-.35.08-.92.17-1.61.32a16.51,16.51,0,0,1,1.1,2.63Z" style="fill:#fff"/><path d="M377,102.92c.08,1,.2,1.81.33,2.64l-2.64.22a23.34,23.34,0,0,0-.09-2.65l-.54-6.5c-.1-1.08-.14-1.59-.17-2.48a11.67,11.67,0,0,1-1.68,2.68,9.54,9.54,0,0,0-1.45-2.41A18.89,18.89,0,0,0,374.32,88a11.84,11.84,0,0,0,.67-2.83l2.59.49c-.12.35-.25.73-.42,1.33a36.18,36.18,0,0,1-1.22,3.47Zm8.35-15.58a19,19,0,0,0-.39-2.72l2.67-.22a22.59,22.59,0,0,0,.1,2.74l.16,1.94.64-.06a12.67,12.67,0,0,0,2.12-.31l.21,2.43c-.6,0-1.31,0-2.08.08l-.71.06.87,10.29c.09,1.15-.09,1.85-.57,2.22s-1.05.51-2.68.65c-.79.06-1.39.09-2.34.1a8.28,8.28,0,0,0-.91-2.43,22,22,0,0,0,2.72,0c1.24-.11,1.41-.19,1.37-.67l-.84-10-6,.5a24.32,24.32,0,0,0-2.59.35l-.2-2.47a18.66,18.66,0,0,0,2.5-.07l6.1-.51Zm-5.2,6.09A25.92,25.92,0,0,1,384,98.28L382,99.91a21.42,21.42,0,0,0-3.71-5.09Z" style="fill:#fff"/><path d="M395,87.06c-.09-1-.16-1.56-.28-2.22a19.38,19.38,0,0,0,1.94-.1l2.67-.22c1-.08,1.39-.14,1.91-.22a16.89,16.89,0,0,0,.12,2.18l1.05,12.61c.1,1.16.16,1.65.25,2.19l-2.24.19-.09-1.1-2,.17.16,1.85-2.32.19a20,20,0,0,0-.09-2.63Zm2.58,4.35,2-.16-.38-4.61-2,.17Zm.58,7,2-.17-.42-5-2,.17Zm6.71-11.06a18.91,18.91,0,0,0-2.35.31l-.19-2.34a14.43,14.43,0,0,0,2.3-.06l1.94-.16-.05-.59a10,10,0,0,0-.27-1.64l2.53-.22a12,12,0,0,0,0,1.67l.05.59,2.4-.2a18.07,18.07,0,0,0,2.28-.32l.2,2.33a16,16,0,0,0-2.28.08l-2.43.2.18,2.1,3-.26a17.1,17.1,0,0,0,2.39-.33l.2,2.33a15.75,15.75,0,0,0-2.17.07l-.38,0,.16,1.87.29,0a12.94,12.94,0,0,0,2.17-.29l.2,2.4a12.93,12.93,0,0,0-2.19,0l-.29,0,.42,5c.1,1.28-.07,1.82-.71,2.19a6.31,6.31,0,0,1-2.39.55l-1.72.12a5.67,5.67,0,0,0-.72-2.27,17.42,17.42,0,0,0,2.48,0c.68-.05.8-.17.76-.66l-.39-4.69-5.26.44a19.57,19.57,0,0,0-2.35.33l-.2-2.4a17.3,17.3,0,0,0,2.41-.09l5.22-.44-.16-1.87-5.22.43a23.77,23.77,0,0,0-2.41.32l-.2-2.34a17.06,17.06,0,0,0,2.46-.07l2.27-.19-.18-2.09Zm2,13.26a17,17,0,0,0-3.12-3.38l1.77-1.39A17,17,0,0,1,408.69,99Z" style="fill:#fff"/><path d="M422.22,99a18.85,18.85,0,0,0,.36,2.7l-2.58.21a19,19,0,0,0-.09-2.74L418.7,84.81a24.74,24.74,0,0,0-.29-2.46,21.28,21.28,0,0,0,2.28-.1l3.89-.33a18.61,18.61,0,0,0,2.24-.27c0,.7,0,1.19.11,2l.28,3.37c.09,1,.15,1.52.24,2-.58,0-1.26,0-2,.1l-4,.34Zm-1.16-13.91,3.79-.31-.09-1.11L421,84Zm.22,2.69,3.79-.32L425,86.37l-3.79.32Zm12.1,8.53c.07.84.13,1.34.23,1.91.49,0,1.28,0,1.68,0,.62,0,.8-.22.77-.66l-.78-9.21-4.34.36c-.77.07-1.47.15-2,.24,0-.65,0-1.07-.1-2l-.28-3.38c-.06-.74-.14-1.36-.24-2a17.15,17.15,0,0,0,2.26-.1l4.23-.35a18.74,18.74,0,0,0,2.26-.28c0,.8,0,1.35.11,2.45l1.21,14.43c.11,1.33-.1,1.92-.87,2.32a6.56,6.56,0,0,1-2.47.47c-.3,0-.39,0-1.52.06a8.68,8.68,0,0,0-.76-2.22c-.65,0-1.06.07-1.24.08l-4.67.39.1,1.24-2.33.19a16.77,16.77,0,0,0,0-2.21l-.45-5.38c-.07-.77-.14-1.39-.24-2a17.52,17.52,0,0,0,2.06-.08l4.91-.41a18.5,18.5,0,0,0,2.05-.26c0,.57,0,1.13.1,2Zm-7-2.63,4.5-.38L430.8,92l-4.5.37Zm.27,3.21,4.5-.37-.12-1.44-4.5.38Zm4.12-12.61,4.12-.35-.09-1.1-4.12.35ZM431,87l4.12-.35-.09-1.12-4.12.34Z" style="fill:#fff"/><path d="M725.57,59.34A13.85,13.85,0,0,0,732,64.79a6.42,6.42,0,0,0-1,1.73,18.2,18.2,0,0,1-3.17-2.2A14.74,14.74,0,0,1,725,61a15,15,0,0,1,.26,1.73l.36,4.3a14.33,14.33,0,0,0,.26,1.9l-2,.17a14.44,14.44,0,0,0,0-1.93l-.36-4.28c0-.38-.06-1.07-.06-1.68a14.83,14.83,0,0,1-4.78,6.36,5.64,5.64,0,0,0-1.27-1.47,14.47,14.47,0,0,0,5.28-6.56l-3.37.28a13.52,13.52,0,0,0-1.84.27l-.15-1.82a13.27,13.27,0,0,0,1.86,0l3.92-.33L723,56.49a8,8,0,0,0-.22-1.42l2-.17a6.86,6.86,0,0,0,0,1.43l.12,1.46,4.13-.35a11.86,11.86,0,0,0,1.86-.26L731,59a15,15,0,0,0-1.87,0Z" style="fill:#fff"/><path d="M745.19,65.51l1.78-.14a8.6,8.6,0,0,0,1.49-.21l.12,1.48c-.49,0-1,0-1.7.06l-5.21.44.05.58-1.61.14a13.44,13.44,0,0,0-.05-1.7l-.18-2.09c0-.29-.06-.75-.08-1.42a4.36,4.36,0,0,1-.63.85,6.5,6.5,0,0,0-.55-.87l.17,2.12c.07.75.08.92.15,1.35l-1.43.12-.06-.75-1.26.1.09,1.16-1.47.12a20,20,0,0,0-.08-2l-.68-8.07a15.92,15.92,0,0,0-.21-1.78,11,11,0,0,0,1.3,0l1.52-.13a13,13,0,0,0,1.32-.15,11.55,11.55,0,0,0,.11,1.63l.48,5.73a7.27,7.27,0,0,0,1.72-3.08l-.45,0a5.38,5.38,0,0,0-1.05.15l-.11-1.26a9.6,9.6,0,0,0,1.07,0l1.63-.13-.06-.71-1.33.11c-.47,0-.85.09-1.16.14l-.1-1.23a8.27,8.27,0,0,0,1.17,0l1.32-.11-.05-.68-1.62.14a6.8,6.8,0,0,0-1,.14l-.11-1.33a11,11,0,0,0,1.23,0l1.69-.14a11.67,11.67,0,0,0,1.18-.14,8.53,8.53,0,0,0,.08,1.29l.2,2.35c.12,1.12.12,1.12.15,1.31-.46,0-.66,0-1.17.06l-1.12.1,1.12.32a3.34,3.34,0,0,1-.34.73l1.85-.16a4.69,4.69,0,0,0,.54-1.14,4.08,4.08,0,0,0-.49.07l-.11-1.25a7.59,7.59,0,0,0,1.08,0l1.65-.14-.06-.7-1.34.11c-.48,0-.86.08-1.19.14l-.11-1.23a8.82,8.82,0,0,0,1.21,0l1.33-.12,0-.67-1.65.13a8.82,8.82,0,0,0-1.05.15l-.12-1.33a10.88,10.88,0,0,0,1.24,0l1.75-.15a11.28,11.28,0,0,0,1.2-.15,11,11,0,0,0,.07,1.25l.2,2.43c.06.69.09,1,.14,1.29-.46,0-.71,0-1.26.06l-2.09.17,1.12.3c-.28.51-.28.51-.44.76l1.56-.13a8.6,8.6,0,0,0,1.32-.17l.12,1.4a8.92,8.92,0,0,0-1.31,0l-1.74.15.06.75,1.34-.11a7.68,7.68,0,0,0,1.28-.17l.11,1.26a8.2,8.2,0,0,0-1.3,0l-1.33.11.06.75,1.35-.11c.71-.06,1-.1,1.29-.15l.1,1.24a8,8,0,0,0-1.29.05l-1.36.11Zm-9.5-6.06,1.26-.1-.26-3.06-1.26.1Zm.39,4.66,1.26-.1-.27-3.26-1.26.1Zm7.33-2.28-.06-.76-2.17.18.06.76Zm-2,2.07,2.17-.18-.06-.76-2.17.18Zm.16,1.92,2.17-.18-.07-.79L741.5,65Z" style="fill:#fff"/><path d="M750.62,54.53a17.84,17.84,0,0,0,3.59-.1,6.32,6.32,0,0,0,.45-2l2,0a11.23,11.23,0,0,0-.5,1.44c-.06.17-.09.22-.11.29s.12,0,1-.15a20.15,20.15,0,0,0,4-.86l.25,1.75c-.43.06-.43.06-1.2.22-1.11.23-3.06.52-4.61.7a8,8,0,0,1-1.24,2.16l0,0,.29-.26a3.79,3.79,0,0,1,2.11-.87A2,2,0,0,1,759,58.42c1.15-.53,1.91-.88,2.28-1a4.32,4.32,0,0,0,1.1-.56l.87,1.71a14.55,14.55,0,0,0-1.67.56c-.21.08-.95.4-2.24,1l0,.17c0,.4,0,.4.06.62s0,.41.05.61,0,.4,0,.51a5.38,5.38,0,0,0,.12.81l-1.78.2a12.13,12.13,0,0,0-.06-1.79c0-.22,0-.22,0-.37a8.78,8.78,0,0,0-1.41.92,1.63,1.63,0,0,0-.69,1.33c.06.8.83,1.06,2.69.9a13.41,13.41,0,0,0,4.46-1l.32,2a4.09,4.09,0,0,0-.7.12,29.24,29.24,0,0,1-3.91.61A6.74,6.74,0,0,1,755,65.3a2.25,2.25,0,0,1-1.29-1.89,2.5,2.5,0,0,1,.53-1.77,7.64,7.64,0,0,1,3.13-2.44.85.85,0,0,0-1-.75,5.19,5.19,0,0,0-3,1.85,6.83,6.83,0,0,0-1.22,1.51l-1.52-1.27a9,9,0,0,0,1.27-1.48,20.9,20.9,0,0,0,1.63-2.79,1.39,1.39,0,0,1,.1-.21l-.26,0-1.94.13-.43,0a1.93,1.93,0,0,0-.24,0Z" style="fill:#fff"/><path d="M771.27,59.43c.12,1.68-.43,2.31-2.12,2.45l-.27,0a3.26,3.26,0,0,0-.44-1.52c.4,0,.54,0,.73,0,.47,0,.61-.27.56-.91a4.88,4.88,0,0,0-.32-1.4,3.42,3.42,0,0,0-1.19-1.59A13,13,0,0,0,769.37,53l-1.66.14.87,10.35c0,.65.14,1.35.23,1.87l-1.77.15a16.32,16.32,0,0,0-.06-1.9l-.87-10.39c-.05-.56-.1-1-.17-1.46a11,11,0,0,0,1.17-.05l2-.17a7.05,7.05,0,0,0,1.08-.16l1,.7c-.11.32-.13.35-.19.57a20.54,20.54,0,0,1-.57,2,7.6,7.6,0,0,0,1.66-1.42,8.05,8.05,0,0,0,1.6-2.44l1.71-.14A9.25,9.25,0,0,0,780.23,54a5.77,5.77,0,0,0-.55,1.76,11.3,11.3,0,0,1-1.47-.71l.09,1a9.15,9.15,0,0,0-1.31.06l-1.15.1.1,1.24,2.52-.21a10.06,10.06,0,0,0,1.47-.2l.14,1.68a8.47,8.47,0,0,0-1.48,0l-2.52.21.33,4c.11,1.23-.3,1.59-1.93,1.73l-1.37.07a4.2,4.2,0,0,0-.56-1.6,10.61,10.61,0,0,0,1.48,0c.59,0,.75-.16.72-.47l-.3-3.66Zm2.94-3-.9.08a10,10,0,0,0-1.3.15l-.08-1c-.32.26-.42.35-.82.63a4.47,4.47,0,0,0-.82-1.17c-.11.33-.18.49-.41,1.07A4.64,4.64,0,0,1,771,57.94l3.35-.28Zm-.55,3.83a11.08,11.08,0,0,1-1.07,2.7,8.57,8.57,0,0,1-1.26,1.69,5,5,0,0,0-1.27-1.15A6,6,0,0,0,771.31,62a6.75,6.75,0,0,0,.83-2.18Zm3.21-5.51a4.77,4.77,0,0,0,.67-.07,11.22,11.22,0,0,1-2.81-2.49,10.44,10.44,0,0,1-2.2,2.93l.68-.06Zm1.37,4.61a8.69,8.69,0,0,0,1.16,1.78,6.46,6.46,0,0,0,1.38,1.32,5.85,5.85,0,0,0-1,1.47A11.52,11.52,0,0,1,776.92,60Z" style="fill:#fff"/><path d="M791.25,50.78a20.33,20.33,0,0,0-1.75,1.85c-.73.78-1.73,1.73-3.41,3.25-.45.4-.55.53-.53.7s.05.26,1.49,1.16a52.23,52.23,0,0,1,5.17,3.6,3.72,3.72,0,0,0,.48.35l-1.45,1.73a15.36,15.36,0,0,0-2.17-1.94c-1.18-.92-1.72-1.29-4.24-2.94-1.08-.7-1.39-1.09-1.45-1.8a1.75,1.75,0,0,1,.4-1.28,8.94,8.94,0,0,1,1.26-1.22,33.89,33.89,0,0,0,3.3-3.3,7.86,7.86,0,0,0,1-1.37Z" style="fill:#fff"/></g></g></svg>