<svg xmlns="http://www.w3.org/2000/svg" width="485.21" height="64.41" viewBox="0 0 485.21 64.41"><title>top-pr-btn01</title><g id="fe71a7ef-4bea-46d0-b40b-8eee52530acd" data-name="レイヤー 2"><g id="aebccc9e-2a51-4308-bd69-17718a56eee7" data-name="DESIGN"><rect x="6.46" y="6.46" width="478.3" height="57.5" rx="8.71" fill="none" stroke="#fff" stroke-miterlimit="10" stroke-width="0.91"/><rect x="0.46" y="0.46" width="478.3" height="57.5" rx="8.71"/><rect x="0.46" y="0.46" width="478.3" height="57.5" rx="8.71" fill="none" stroke="#fff" stroke-miterlimit="10" stroke-width="0.91"/><path d="M58.11,18l3.45,17.45L64.85,18h4.46L72.6,35.47,76.06,18h4.35L75.22,40H70.29L67.08,23.23,63.88,40H58.94L53.76,18Z" fill="#fff"/><path d="M102,18v3.23H88.74v5.88h11.8v3.24H88.74v6.38h13.61V40H84.56V18Z" fill="#fff"/><path d="M118.85,18c4.52,0,6.69,2.62,6.69,5.63a4.75,4.75,0,0,1-3.29,4.63,5.33,5.33,0,0,1,4.16,5.43c0,3.21-2.23,6.27-7.06,6.27H107V18Zm-7.66,3.23v6h6.74c2.93,0,3.35-2.1,3.35-3.07,0-2.73-2.62-2.9-3.35-2.9Zm0,9v6.55h6.88c1.79,0,4.07-.75,4.07-3.35s-2.26-3.2-4.1-3.2Z" fill="#fff"/><path d="M142.49,22.7c-.05-.61-.05-.89-.05-2.2h-6.05V17.1h9.78c0,.64-.11,3.45-.11,4,0,2.81,0,12,10.62,18.59a9.76,9.76,0,0,0-3,2.57c-4.68-3.21-9.39-9-10.59-14.86-.92,3.43-3.23,9.53-10.79,14.89a10.47,10.47,0,0,0-2.84-2.63c8.92-5.82,10.34-12.6,11-17.42Z" fill="#fff"/><path d="M179.35,28.36H165.19V25.91a31.25,31.25,0,0,1-3.63,1.95A12.11,12.11,0,0,0,159,25.07c3.93-1.26,9.67-5.3,11.6-8.92l4,.58a.43.43,0,0,1,.42.37c0,.25-.31.33-.64.41,1.61,2.37,7.13,5.94,11.31,7.17a9.28,9.28,0,0,0-2.31,2.93,32.44,32.44,0,0,1-4-2Zm-18.46,9.7c.9-.06,3.93-.25,4.3-.25a35.17,35.17,0,0,0,2.31-4.74h-6.61V30h23v3.09h-6.55A39.26,39.26,0,0,1,183.73,40,14.88,14.88,0,0,0,181,42.44a25.89,25.89,0,0,0-2-2.93c-1.7.25-5.69.75-7.48,1-1.39.16-7.63.81-8.89.95-.17.41-.3.72-.64.72-.17,0-.31-.17-.39-.64Zm17.9-12.8a30.45,30.45,0,0,1-6.61-5.35,39.31,39.31,0,0,1-6.05,5.35Zm-2.45,7.81H172a.41.41,0,0,1,.08.19c0,.31-.59.4-.81.42-.42,1-1.56,3-2.09,3.82,3.51-.3,3.9-.33,7.36-.69a22.81,22.81,0,0,0-2.23-2Z" fill="#fff"/><path d="M195.38,18.66c.22.08.33.19.33.39s-.41.39-.78.44a40.36,40.36,0,0,0-1.59,11.07,22.06,22.06,0,0,0,.2,3.29c.25-.45,1.28-2.42,1.51-2.82a9.7,9.7,0,0,0,1.78,2.37,13.84,13.84,0,0,0-2.31,7.25l-3.18.62a38.83,38.83,0,0,1-1.45-11,52.89,52.89,0,0,1,1.61-12.82ZM208.73,18c.31.06.39.2.39.37s-.39.36-.67.39a33.3,33.3,0,0,0-.27,3.65,26.74,26.74,0,0,0,4.37-1.09V25c-2.26.55-3.65.78-4.46.92a54.49,54.49,0,0,0,.42,7,17.36,17.36,0,0,1,5.55,3c-.42.72-1.45,2.87-1.65,3.31a11.25,11.25,0,0,0-3.54-2.39c0,3.81-4.29,4.07-5.52,4.07-4,0-5.46-2.49-5.46-4.38,0-2.79,2.73-4.32,5.74-4.32a10.92,10.92,0,0,1,1.17.08c-.08-1.09-.28-3.46-.3-5.91-1.7.14-3.13.2-4,.2s-1.34,0-1.93-.06V22.76a32.24,32.24,0,0,0,3.46.19c1.14,0,1.9-.06,2.4-.08,0-.25,0-4.88,0-5.52Zm-5.46,17.07c-1.73,0-2.26.78-2.26,1.39,0,.78.81,1.34,2,1.34.2,0,2.34,0,2.34-1.76a4.55,4.55,0,0,0-.05-.61A4.5,4.5,0,0,0,203.27,35.11Z" fill="#fff"/><path d="M218.63,38.23V34.58h16.64V24.18H218.63V20.53h20.69V39.59h-4V38.23Z" fill="#fff"/><path d="M260.48,26.52h8.83v3.37h-9.06c-1,8.09-7.22,10.9-9.5,11.91a11.6,11.6,0,0,0-2.87-3c3.48-1.22,7.77-3.2,8.55-8.92H245.56V26.52h11V22.76a49.26,49.26,0,0,1-7.13.89,9.81,9.81,0,0,0-1.79-3.29c7.47,0,13.27-1.9,16-3.65l3,2.59a.4.4,0,0,1,.14.28.38.38,0,0,1-.39.36,1.1,1.1,0,0,1-.45-.14,25.25,25.25,0,0,1-5.43,2Z" fill="#fff"/><path d="M292.87,24.54a8.22,8.22,0,0,0,2.37-.25l2.34,1.64c-.47.9-2.45,4.85-2.9,5.63-3.34,5.94-6.94,8.45-12.46,10.63a14.89,14.89,0,0,0-2.59-3.07c4.27-1.37,9.65-3.71,12.49-11.12H274.61V24.54ZM294.18,18v3.4H278.07V18Z" fill="#fff"/><path d="M313.64,17.9c.28.09.56.17.56.42s-.17.42-.75.48c-.48,2.2-.7,3.06-.84,3.62,2-.08,6.58-.28,6.58,6.8,0,4.18-1.39,8.25-2.73,10a4.77,4.77,0,0,1-4.16,2,15.38,15.38,0,0,1-2.84-.33,6.85,6.85,0,0,0,.06-.87,18.61,18.61,0,0,0-.37-3.2,5.34,5.34,0,0,0,2.6.61,2.29,2.29,0,0,0,2-.84c.84-.95,1.84-4,1.84-7.36,0-3.09-1.59-3.37-2.7-3.37-.33,0-.86.06-1.2.08a43.6,43.6,0,0,1-7.25,15,17.4,17.4,0,0,0-3.51-1.87,33.24,33.24,0,0,0,6.91-12.49,33.31,33.31,0,0,0-5,1.54l-1.31-3.82c1.15-.23,6.22-1.31,7.25-1.48a41.18,41.18,0,0,0,.89-6.19Zm7.72,1.7c3.1,3.41,5.05,8,5.05,10.21a2.85,2.85,0,0,1-2,2.93,10,10,0,0,1-2.79.86,18.15,18.15,0,0,0-1.42-3.18c1-.19,2.32-.47,2.32-1.53,0-.31-.37-3.32-4.07-7.44Z" fill="#fff"/><path d="M337.23,22.62c.19.05.47.16.47.41s-.39.39-.58.39a26.24,26.24,0,0,0-1.93,5.83,13.85,13.85,0,0,1,8.62-3.18c4.65,0,7.05,3.26,7.05,6.67,0,5.43-5.38,8.75-14.25,8.75-.86,0-1.56,0-2.09-.06a10.8,10.8,0,0,0-1.08-4,21,21,0,0,0,3.84.34c1.76,0,9.68-.25,9.68-5.05,0-1.47-.84-3.34-3.68-3.34-4.83,0-8.25,3.82-9.29,5l-3.4-1.23a67.44,67.44,0,0,1,2.82-11.73Zm-1.12-6.17a28.84,28.84,0,0,1,9.59,3.21,31.55,31.55,0,0,0-2.12,3.46,25.89,25.89,0,0,0-8.72-3.49Z" fill="#fff"/><g id="ff8b818c-7caa-4ee8-beaf-cae29b2c9938" data-name="55"><path d="M432.81,28.15a21.4,21.4,0,1,1-21.4-21.39A21.4,21.4,0,0,1,432.81,28.15Z" fill="#2eafbf"/><path d="M424.19,28a1.21,1.21,0,1,1,1.21,1.21A1.22,1.22,0,0,1,424.19,28Z" fill="#fff"/><path d="M420.1,28a1.21,1.21,0,1,1,1.21,1.21A1.21,1.21,0,0,1,420.1,28Z" fill="#fff"/><path d="M416.73,28A1.22,1.22,0,1,1,418,29.2,1.22,1.22,0,0,1,416.73,28Z" fill="#fff"/><path d="M413.37,28a1.21,1.21,0,1,1,1.21,1.21A1.21,1.21,0,0,1,413.37,28Z" fill="#fff"/><path d="M410,28a1.21,1.21,0,1,1,1.21,1.21A1.21,1.21,0,0,1,410,28Z" fill="#fff"/><path d="M422.45,24.51a1.21,1.21,0,1,1-.14,1.71A1.22,1.22,0,0,1,422.45,24.51Z" fill="#fff"/><path d="M420.27,22a1.21,1.21,0,1,1-.14,1.71A1.22,1.22,0,0,1,420.27,22Z" fill="#fff"/><path d="M418.1,19.39A1.21,1.21,0,1,1,418,21.1,1.2,1.2,0,0,1,418.1,19.39Z" fill="#fff"/><path d="M415.92,16.82a1.21,1.21,0,1,1-.14,1.71A1.22,1.22,0,0,1,415.92,16.82Z" fill="#fff"/><path d="M417.49,37.28a1.21,1.21,0,1,0,.14,1.7A1.21,1.21,0,0,0,417.49,37.28Z" fill="#fff"/><path d="M419.65,34.73a1.21,1.21,0,1,0,.14,1.71A1.21,1.21,0,0,0,419.65,34.73Z" fill="#fff"/><path d="M421.83,32.16a1.21,1.21,0,1,0,.14,1.71A1.22,1.22,0,0,0,421.83,32.16Z" fill="#fff"/><path d="M424,29.6a1.21,1.21,0,1,0,.14,1.71A1.22,1.22,0,0,0,424,29.6Z" fill="#fff"/><path d="M406.64,28a1.22,1.22,0,1,1,1.22,1.21A1.22,1.22,0,0,1,406.64,28Z" fill="#fff"/><path d="M403.28,28a1.22,1.22,0,1,1,1.21,1.21A1.21,1.21,0,0,1,403.28,28Z" fill="#fff"/><path d="M399.92,28a1.21,1.21,0,1,1,1.21,1.21A1.21,1.21,0,0,1,399.92,28Z" fill="#fff"/><path d="M396.55,28a1.22,1.22,0,1,1,1.22,1.21A1.22,1.22,0,0,1,396.55,28Z" fill="#fff"/></g></g></g></svg>