<?xml version="1.0" encoding="UTF-8"?><svg id="_レイヤー_2" xmlns="http://www.w3.org/2000/svg" width="811" height="299" xmlns:xlink="http://www.w3.org/1999/xlink" viewBox="0 0 811 299"><defs><style>.cls-1{fill:#003664;}.cls-1,.cls-2,.cls-3,.cls-4{stroke-width:0px;}.cls-2{fill:url(#_新規グラデーションスウォッチ_4-2);}.cls-3{fill:#333a46;}.cls-4,.cls-5{fill:#fff;}.cls-5{filter:url(#drop-shadow-1);stroke:url(#_新規グラデーションスウォッチ_4);stroke-miterlimit:10;stroke-width:8px;}</style><linearGradient id="_新規グラデーションスウォッチ_4" x1="24.02" y1="151.75" x2="798.71" y2="151.75" gradientUnits="userSpaceOnUse"><stop offset=".01" stop-color="#c3ad82"/><stop offset=".51" stop-color="#e6dcca"/><stop offset="1" stop-color="#bca475"/></linearGradient><filter id="drop-shadow-1" filterUnits="userSpaceOnUse"><feOffset dx="-6" dy="6"/><feGaussianBlur result="blur" stdDeviation="6"/><feFlood flood-color="#000" flood-opacity=".3"/><feComposite in2="blur" operator="in"/><feComposite in="SourceGraphic"/></filter><linearGradient id="_新規グラデーションスウォッチ_4-2" x1="183.86" y1="32.5" x2="638.87" y2="32.5" xlink:href="#_新規グラデーションスウォッチ_4"/></defs><g id="DESIGN"><rect class="cls-5" x="28.02" y="32.5" width="766.69" height="238.5"/><rect class="cls-2" x="183.86" width="455.01" height="65"/><path class="cls-1" d="M256.43,45.81c0,1.77.07,3.23.21,4.48h-5.52c.14-1.22.21-2.85.21-4.48v-5.38c0-.21,0-.87.03-1.49-1.08.97-1.74,1.49-2.99,2.43-.66-2.29-1.18-3.47-2.19-5,1.91-1.22,3.19-2.22,4.51-3.54,1.7-1.67,2.6-2.92,3.79-5.21h-4.03c-1.15,0-2.19.07-3.09.17v-5.07c.9.14,1.84.17,3.19.17h.8v-2.05c0-1.42-.07-2.26-.17-2.95h5.49c-.17.69-.21,1.42-.21,2.92v2.08c1.42,0,1.84-.03,2.33-.14l2.08,2.74c-.24.38-.38.66-.8,1.6-.94,2.08-1.91,3.75-3.3,5.77.35.38.45.49.83.83,1.39-1.63,2.19-2.92,3.02-4.72l3.26,2.5c-1.46,2.26-2.19,3.26-3.4,4.62.69.49.94.69,1.74,1.25-1.11,1.25-1.77,2.26-2.64,3.99-1.15-.97-2.15-1.91-3.16-3.02v7.5ZM269.87,24.63v.94c-.07,6.29-.94,11.56-2.57,15.42-1.46,3.54-3.4,6.11-6.81,9.13-1.08-2.08-1.88-3.13-3.4-4.58,2.4-1.91,4.03-3.96,5.24-6.6,1.39-3.13,2.12-6.39,2.33-10.52,0-.63.03-1.88.03-3.79-1.7,0-2.99.07-4.13.17v-5.14c1.29.14,2.74.21,4.38.21h10.38c1.42,0,2.64-.07,3.23-.17-.14,1.29-.17,1.46-.21,6.67-.07,10.21-.52,16.95-1.39,19.83-.45,1.46-1.35,2.5-2.64,2.92-.9.31-2.05.45-3.99.45-1.04,0-1.56,0-2.81-.03-.17-2.29-.42-3.33-1.15-5.24,1.63.21,2.81.28,3.68.28,1.49,0,1.84-.35,2.19-2.19.59-3.02.87-8.47.87-17.75h-3.23Z"/><path class="cls-1" d="M283.89,42.83c1.98-4.03,2.81-7.74,3.33-14.55l5.14,1.28c-.59,8.13-1.32,11.74-3.3,16.18l-5.17-2.92ZM305.35,27.58c-3.13-2.05-6.11-3.37-12.26-5.38l3.02-4.62c5.8,1.74,8.68,2.85,12.43,4.83l-3.2,5.17ZM299.14,43.84c0,.66.52.8,2.71.8,1.91,0,2.74-.21,3.02-.8.52-.94.73-3.13.76-6.91,2.05.97,3.2,1.35,4.97,1.77-1.15-3.44-2.01-5.59-3.75-8.93l5.17-2.22c2.54,4.93,3.89,8.4,5.77,14.93l-5.49,2.67c-.52-2.26-.73-3.2-1.32-5.14q-.04.49-.1,1.6c-.21,3.26-.9,5.66-1.94,6.74-1.25,1.32-2.92,1.67-7.74,1.67-3.96,0-5.38-.17-6.32-.73-1.04-.62-1.42-1.6-1.42-3.72v-16.15c0-1.56-.03-2.43-.21-3.79h6.11c-.14,1.32-.21,2.33-.21,3.58v14.62Z"/><path class="cls-1" d="M327.42,31.65c-1.84,0-3.16.07-4.41.21v-5.11c1.08.14,2.5.21,4.52.21h7.08v-1.77h-4.83c-1.84,0-3.06.03-4.03.14v-4.9c1.01.14,2.47.21,4.27.21h4.58c0-1.39-.07-1.98-.24-2.85h5.77c-.17.9-.21,1.42-.21,2.85h1.6c1.67,0,2.92-.07,3.96-.21v3.02c1.35-1.49,2.99-3.68,3.65-4.9l4.76,3.09c-.45.45-.59.59-1.53,1.7-1.32,1.53-2.05,2.29-3.47,3.61h1.67c1.81,0,2.99-.07,4.13-.21v5.11c-1.11-.14-2.71-.21-4.69-.21h-7.57c-.69.52-.94.69-2.22,1.56h7.22c1.7,0,2.67-.03,3.61-.1-.1,1.04-.14,1.98-.14,3.79v9.27c0,1.81.07,3.23.21,4.2h-5.52v-1.35h-11.11v1.35h-5.52c.14-1.32.21-2.67.21-4.2v-6.29q-2.88,1.32-4.2,1.84c-.87-2.08-1.42-3.09-2.74-4.86,4.55-1.29,8.72-3.02,12.57-5.21h-7.36ZM334.47,38.83h11.11v-1.46h-11.11v1.46ZM334.47,44.56h11.11v-1.53h-11.11v1.53ZM341.73,26.96c.76-.63,1.22-1.01,2.01-1.74-.69-.03-.94-.03-1.67-.03h-2.15v1.77h1.81Z"/><path class="cls-1" d="M360.42,23.35c.87.1,1.53.14,2.78.14h6.08c1.42,0,1.98-.03,2.78-.1v4.62c-.76-.1-1.04-.1-2.71-.1h-6.15c-1.22,0-1.91.03-2.78.14v-4.69ZM361.11,50.36c.1-1.04.17-2.26.17-3.37v-5.49c0-1.08-.03-1.74-.14-2.64,1.11.07,1.39.07,2.5.07h6.11c1.15,0,1.49-.03,2.05-.1-.07.8-.07.94-.07,2.36v6.6c.03,1.22.07,1.91.07,2.12h-4.27v-.9h-1.88v1.35h-4.55ZM361.46,18.38c1.01.1,1.49.14,3.13.14h3.92c1.63,0,2.12-.03,3.13-.14v4.1c-.87-.07-1.67-.1-3.13-.1h-3.92c-1.42,0-2.15.03-3.13.1v-4.1ZM361.53,28.97c.59.03,1.04.07,2.05.07h6.04c1.04,0,1.39,0,1.94-.07v3.92c-.59-.07-.97-.07-1.94-.07h-6.04c-1.01,0-1.46.03-2.05.07v-3.92ZM361.53,33.87c.69.07,1.01.07,2.05.07h6.01c1.11,0,1.32,0,1.98-.07v3.99c-.49-.07-.94-.1-2.08-.1h-5.97c-.97,0-1.35,0-1.98.07v-3.96ZM365.49,44.91h2.08v-2.19h-2.08v2.19ZM374.79,31.96c-1.01,0-1.74.03-2.47.14v-3.92c.8.07,1.35.1,2.47.1h1.15v-.97h-.76c-.69,0-1.56.03-2.01.1v-3.2c.42.07,1.28.1,2.01.1h.76v-.97h-1.22c-.83,0-1.39.03-2.12.1v-3.72c.8.1,1.32.14,2.33.14h1.01c0-1.04-.03-1.35-.17-1.94h5.17c-.17.59-.21.97-.21,1.94h3.09c0-1.11-.03-1.32-.17-1.94h5.17c-.17.59-.21.9-.21,1.94h2.01c.97,0,1.56-.03,2.15-.14v3.72c-.69-.07-1.32-.1-2.12-.1h-2.05v.97h1.49c.9,0,1.56-.03,1.94-.1v3.2c-.45-.07-1.32-.1-2.01-.1h-1.42v.97h2.22c1.29,0,1.84-.03,2.36-.1v3.92c-.69-.1-1.22-.14-2.36-.14h-5.87v1.01h3.61c1.49,0,2.29-.03,3.09-.14-.1.94-.14,1.88-.14,3.3v4.55c.8,0,1.11-.03,1.7-.14v4.62c-.56-.07-.9-.1-1.7-.14v1.6c0,1.74-.35,2.6-1.29,3.06-.62.31-2.47.56-4.06.56-.21,0-.83-.03-1.74-.07-.24,0-.62-.03-1.08-.03-.1-1.63-.28-2.4-.8-3.85,1.15.1,2.15.17,2.78.17,1.22,0,1.49-.1,1.49-.63v-.8h-8.65v.63c0,2.81.04,3.65.21,4.72h-5.07q.04-.49.1-1.35c.03-.56.07-1.67.07-3.37v-.63c-.52.03-.73.03-1.08.1v-4.55c.31.07.59.1,1.08.1v-4.79c0-1.53-.03-2.26-.1-3.02.76.07,1.46.1,2.74.1h3.89v-1.01h-5.24ZM380.35,36.09h-2.15v1.29h2.15v-1.29ZM380.35,39.98h-2.15v1.25h2.15v-1.25ZM383.82,24.32v-.97h-3.09v.97h3.09ZM383.82,28.28v-.97h-3.09v.97h3.09ZM386.84,37.38v-1.29h-2.15v1.29h2.15ZM386.84,41.23v-1.25h-2.15v1.25h2.15Z"/><path class="cls-1" d="M430.02,29.8c0,1.98-.21,2.74-.83,3.3-.7.66-1.84.87-4.58.87-.45,0-1.6-.03-2.4-.03-.1-.9-.14-1.18-.31-1.98-1.39.63-1.98.87-3.37,1.35-.73.28-.9.35-1.46.56q-.24.38-.69,1.01h7.22c2.29,0,2.67,0,3.85-.1-.14,1.22-.17,1.74-.17,4.03v7.12c0,2.36.03,3.4.17,4.45h-5.35v-1.32h-14.52v1.32h-5.31c.14-1.08.17-2.15.17-4.45v-7.05c0-2.33-.03-2.99-.1-4.1,1.11.1,1.67.1,3.82.1h4.62c.28-.38.38-.52.66-1.04-.59.07-1.04.1-2.05.1-.73,0-1.32,0-2.54-.03-.1-1.01-.14-1.32-.31-2.05-1.35.56-3.02,1.18-4.38,1.67-.94.31-1.11.38-1.77.69l-1.53-4.76c1.53-.24,2.92-.59,5.17-1.32-1.21-1.18-2.19-1.91-4.03-3.06l2.33-2.08c-1.67,0-2.19.03-3.06.17v-4.9c1.25.14,2.5.21,4.2.21h7.26c1.88,0,2.64-.03,3.65-.17-.07.76-.1,1.53-.1,3.72v7.74c0,.76-.03,1.32-.14,1.88l1.67.28-.83-2.57c1.7-.28,2.81-.56,4.62-1.15-1.46-1.35-2.26-1.98-4.1-3.13l2.12-2.05c-1.21.03-1.6.03-2.57.14v-4.86c1.32.14,2.64.21,4.31.21h7.47c1.7,0,2.64-.03,3.33-.14-.1.87-.14,1.94-.14,3.75v7.68ZM405.12,27.76c1.04-.35,1.67-.62,3.4-1.35l.03,3.09c.83-.03.94-.1.94-.66v-5.83h-4.93c1.29.76,1.91,1.22,3.23,2.29l-2.67,2.47ZM407.59,40.05h14.55v-1.35h-14.55v1.35ZM407.59,45.09h14.55v-1.42h-14.55v1.42ZM420.57,27.83c1.11-.38,1.67-.63,3.54-1.42v3.16c.9-.03,1.01-.1,1.01-.69v-5.83h-5.35c1.32.8,2.05,1.29,3.3,2.33l-2.5,2.47Z"/><path class="cls-1" d="M458.94,30.43c-1.74,0-2.5.03-3.16.14v-2.01h-3.37c.14-.8.17-1.53.17-2.74v-2.85c0-.9-.03-1.63-.14-2.81,1.11.1,2.26.14,4.17.14h8.44v-.24c0-.94-.03-1.53-.14-2.26h5.83c-.1.63-.17,1.29-.17,2.22v.28h8.96c1.91,0,3.02-.03,4.17-.14-.1,1.11-.14,1.77-.14,2.71v2.99c0,1.01.04,1.81.14,2.71h-3.33v2.01c-.83-.1-1.46-.14-3.23-.14h-6.7q0,.63-.03,1.22h6.95c1.95,0,2.43-.03,3.26-.1v4.24c-.87-.1-1.42-.14-3.26-.14h-7.15c-.07.66-.07.76-.14,1.28h9.83c2.01,0,2.95-.03,3.99-.17v4.72c-1.42-.14-2.6-.21-4.27-.21h-7.33c.83.87,1.74,1.49,3.16,2.15,2.08.94,4.69,1.56,9.17,2.12-1.35,2.19-1.77,3.06-2.36,5.21-3.79-.73-5.63-1.29-8.09-2.43-2.64-1.22-4.72-2.81-6.46-5-1.35,2.01-2.81,3.37-4.93,4.58-2.5,1.46-4.86,2.22-8.65,2.85-.62-2.12-1.25-3.4-2.43-5.04,2.95-.24,4.48-.56,6.29-1.18,2.19-.8,3.61-1.77,4.9-3.26h-6.36c-1.46,0-2.74.07-4.2.21v-4.72c1.01.14,1.91.17,3.89.17h8.51c.1-.56.14-.8.21-1.28h-6.25c-1.84,0-2.36.03-3.23.14v-4.24c.83.07,1.35.1,3.23.1h6.49q.04-.66.04-1.22h-6.25ZM457.69,24.87v1.49h7.54c0-.76,0-.94-.03-1.49h-7.5ZM470.51,24.87c-.04.97-.04,1.01-.04,1.49h7.99v-1.49h-7.95Z"/><path class="cls-1" d="M518.75,28.9c.21-.03.62-.14,1.18-.31.24-.03.56-.14.94-.24.62-.17.8-.21,1.35-.42,0,.94-.04,1.7-.04,2.15-.14,10.07-.45,11.22-3.4,11.6,1.81.66,2.99.94,4.58,1.15-.28,3.68-.73,5.17-1.95,6.22-1.08.94-2.64,1.18-7.64,1.18s-6.29-.14-7.43-.76c-1.04-.59-1.39-1.35-1.39-2.95v-9.34c-.35.07-.45.1-.73.21l-.59-3.4c-.07,7.57-.31,11.46-.87,13.51-.38,1.42-1.04,2.15-2.26,2.5-.73.17-1.46.24-2.95.24h-1.04c-.1-1.7-.31-2.71-.76-4.27-.69,2.15-1.18,3.16-2.36,4.93-1.32-2.08-2.05-2.99-3.65-4.62,2.6-4.65,3.13-7.71,3.23-19.27-1.21,0-1.84.03-2.5.17v-5.17c1.11.17,1.56.21,3.33.21h1.25v-1.28c0-1.22-.07-2.12-.17-2.95h5.63c-.14.9-.17,1.46-.17,2.92v1.32h.62c1.74,0,2.33-.03,3.2-.17v2.5c1.35-2.01,2.74-5.14,3.06-6.91l5.45.94c-.17.28-.42.83-.76,1.63-.07.21-.17.45-.38.9h7.85c1.53,0,2.6-.07,3.65-.21v5.14c-.97-.1-2.12-.14-3.37-.14h-10.42c-.52.97-.97,1.67-1.53,2.5h2.01c-.07.52-.1,1.01-.1,1.39v1.28l1.53-.38v-1.11c0-1.22-.04-1.74-.14-2.85h4.83c-.14.83-.17,1.35-.17,2.6v.31l3.09-.73ZM497.64,34.49c-.35,5-.8,7.85-1.63,10.7.97.14,1.04.14,1.22.14.94,0,1.11-.17,1.32-1.29.35-1.91.59-5.73.62-9.55h-1.53ZM500.9,29.74c1.18,0,1.94-.03,2.81-.1q-.07,1.18-.07,2.81c.8-.17.83-.17,1.32-.31v-1.29c0-.52-.03-.94-.07-1.53-.9-.97-1.53-1.53-2.57-2.33h-4.45l-.04,2.74h3.06ZM515.66,40.4c0,1.74,0,2.08.1,2.88h-4.72c.1-1.11.1-1.28.1-2.85v-4.79l-1.53.38v8.06c0,.62.1.9.42,1.04.45.21,1.28.28,2.92.28,4.06,0,4.65-.07,5.07-.49.38-.35.49-1.04.52-3.2-.56.03-.76.03-1.94.07-.17-1.74-.42-2.88-.94-4.17v2.78ZM515.66,37.34c.35.07.59.1.76.1.59,0,.8-.1.9-.49.07-.24.14-1.56.14-2.4v-.49l-1.81.45v2.81Z"/><path class="cls-1" d="M541.53,21.68c0-1.94-.03-2.71-.21-3.92h5.9c-.17,1.11-.21,1.91-.21,3.68v1.63h8.89c1.81,0,2.6-.03,3.65-.14-.1,1.08-.14,1.74-.14,3.33v11.5c0,1.94.03,2.74.17,3.79h-5.56v-1.81h-7.02v6.11c0,2.19.07,3.4.24,4.65h-5.97c.17-1.42.24-2.57.24-4.65v-6.11h-6.7v1.81h-5.56c.14-1.04.17-2.08.17-3.79v-11.53c0-1.46-.03-2.26-.14-3.3,1.25.1,1.98.14,3.61.14h8.61v-1.39ZM534.83,28.14v6.53h6.7v-6.53h-6.7ZM554.03,34.67v-6.53h-7.02v6.53h7.02Z"/><path class="cls-1" d="M567.79,39.46c.07-.8.07-1.01.07-1.81q0-.38-.14-2.47l-.69-11.01c-.1-1.74-.28-3.61-.42-4.69h8.09c-.17,1.35-.28,2.81-.42,4.69l-.69,11.01c-.07,1.39-.1,2.19-.1,2.74,0,.38,0,.69.07,1.53h-5.76ZM567.2,48.38v-6.56h6.98v6.56h-6.98Z"/><path class="cls-3" d="M72.55,94.69c2.6,1.29,6.37,3.4,9.32,6.2-.3.37-.77.94-1.56,2.21-3.25-3.1-6.74-5.08-8.83-6.1v12.72h-2.7v-21.57l2.73.17c.3.02.45.1.45.3,0,.27-.3.32-.47.37v7.19l1.07-1.49Z"/><path class="cls-3" d="M89.9,88.94c.32.02.52.02.52.25,0,.3-.37.45-.52.52v16.07c4.71-1.59,10.86-5.53,14.18-9.99.6,1.49.65,1.59,1.29,2.65-2.21,2.36-5.5,5.6-11.65,8.6-.77.37-4.14,1.93-4.81,2.28l-1.83-1.83c.07-.32.12-1.14.12-1.46v-17.21l2.7.12Z"/><path class="cls-3" d="M130.97,97.66v2.68h-21.2v-2.68h21.2Z"/><path class="cls-3" d="M157.34,104.09v2.53h-21.32v-2.53h21.32ZM154.29,91.37v2.48h-15.22v-2.48h15.22Z"/><path class="cls-3" d="M163.65,88.74c1.81.89,4.36,2.28,6.89,4.54-.32.37-.77.92-1.61,2.23-3.27-2.9-5.75-4.04-6.84-4.54l1.56-2.23ZM162.29,106.52c4.76-1.02,13.19-4.27,18.82-13.54.79,1.22.84,1.34,1.66,2.28-4.84,7.61-11.6,11.33-18.15,13.66,0,.27-.1.55-.35.55-.2,0-.32-.17-.4-.3l-1.59-2.65Z"/><path class="cls-3" d="M202.77,91.76c.79,0,1.24-.2,1.69-.37l1.44,1.31c-.4.62-.5.84-.79,1.51-2.08,4.79-3.45,7.91-6.77,11.31-3.07,3.15-6.12,4.44-7.36,4.96-.62-.77-.99-1.09-2.03-1.91,7.61-3.1,11.03-8.03,13.17-14.46h-7.74c-1.69,2.5-3.45,4.56-6.15,6.92-1.02-1.02-1.09-1.12-1.98-1.79,3.67-2.88,6.82-6.92,8.48-11.38l2.43,1.09c.12.05.35.15.35.37,0,.25-.37.32-.6.32-.25.52-.4.82-1.09,2.11h6.97ZM201.68,87.1c.6.55,1.64,1.64,2.28,2.43-.32.2-.99.59-1.49,1.04-1.07-1.36-1.74-1.98-2.21-2.38l1.41-1.09ZM205.42,86.83c.79.72,1.83,1.96,2.28,2.55-.42.25-.52.32-1.49,1.04-.17-.27-1.12-1.64-2.16-2.53l1.36-1.07Z"/><path class="cls-3" d="M221.83,87.94c.15.02.52.1.52.42,0,.07-.02.35-.65.37-.2.45-.4.87-.92,1.93.74-.1,3.77-.45,6.17-1.31l.07,2.53c-3.1.62-5.9.97-7.49,1.12-.82,1.39-1.17,1.96-1.71,2.78,1.26-.67,2.36-.67,2.63-.67.45,0,2.88,0,3.89,2.55,1.86-.82,4.81-2.08,5.55-2.45l.99,2.65c-2.7.77-4.14,1.34-6.1,2.11.1.92.1,1.88.1,2.65,0,1.17-.02,1.81-.07,2.48-.42-.02-1.66-.05-2.58,0,.2-2.13.12-3.62.1-3.99-4.04,2.11-4.56,3.25-4.56,4.24,0,.77.17,1.91,4.66,1.91,2.58,0,5.16-.37,7.66-1.04-.2.84-.3,1.51-.3,2.7-3.05.64-6.12.64-6.84.64-5.65,0-7.66-1.88-7.66-4.07,0-3.27,4.69-5.8,6.74-6.74-.2-.69-.5-1.76-2.33-1.76s-3.92,1.17-6.74,5.75l-2.31-1.41c1.17-1.22,3.97-4.69,5.98-8.13-2.01.1-2.63.12-4.59.1v-2.48c.79.07,1.76.17,3.47.17.99,0,1.81-.02,2.31-.05.84-1.71,1.14-2.38,1.49-3.55l2.5.55Z"/><path class="cls-3" d="M241.23,110.29h-2.43v-8.83c-1.12,1.07-1.61,1.51-2.83,2.38-.22-.32-.82-1.21-1.79-1.83,3.84-2.48,6.25-5.53,7.12-7.49h-6.2v-2.38h3.69v-4.56l2.58.15c.25.02.5.02.5.3,0,.22-.12.27-.64.5v3.62h2.41l1.12.99c-.74,1.88-2.13,3.87-3.25,5.28,1.79,2.31,3.1,3.35,3.97,3.99-.62.42-.94.77-1.59,1.88-.62-.5-1.39-1.22-2.65-2.73v8.73ZM244.82,92.31v-2.48h12.17c0,4.17,0,12.94-1.34,17.48-.82,2.83-2.46,2.88-5.46,2.85-.15-1.26-.27-1.56-.89-2.78,1.31.27,2.03.27,2.21.27,1.26,0,1.86-.4,2.26-2.33.05-.25.99-4.81.89-13.02h-3.64c-.3,7.12-.55,13.12-7.24,18.13-.62-.92-1.46-1.46-2.08-1.76,4.12-2.53,5.46-5.98,5.75-6.89.94-2.9,1.09-6.94,1.09-9.47h-3.72ZM246.19,97.02c.22.15.32.22.32.35,0,.32-.55.32-.72.3-.67.97-1.44,1.71-1.91,2.21-.3-.3-.84-.89-1.59-1.31.69-.69,1.61-1.93,2.03-2.78l1.86,1.24Z"/><path class="cls-3" d="M266.53,89.26c.17,1.69.55,3.35.97,5.01,1.88-1.29,4.04-1.86,5.78-1.98.32-1.98.45-2.8.5-4.49l2.85.67c.17.05.47.12.47.37,0,.32-.4.32-.55.32-.1.45-.55,2.65-.64,3.15,4.93.6,7.36,4.02,7.36,7.98,0,6.15-5.38,8.55-9.6,9.3-.67-1.44-.97-1.81-1.34-2.23,1.79-.2,8.36-1.31,8.36-7.17,0-3.27-2.06-5.16-5.28-5.63-1.12,4.17-1.98,6.1-3.74,8.6.69.94.97,1.26,1.29,1.66-1.09.89-1.19,1.02-2.11,1.93-.3-.45-.37-.55-.99-1.51-2.08,2.06-3.42,2.48-4.69,2.48-2.03,0-3.35-1.59-3.35-3.97,0-1.41.42-4.61,3.65-7.84-.64-1.93-1.12-3.6-1.61-5.85l2.68-.82ZM266.31,98.26c-1.64,1.79-2.11,4.26-2.11,5.33,0,.35.05,1.61,1.26,1.61s2.75-1.66,3.12-2.08c-1.36-2.5-2.16-4.56-2.28-4.86ZM268.22,96.52c.74,2.03,1.69,3.74,2.03,4.39,1.59-2.5,2.16-4.71,2.55-6.32-2.18.25-3.87,1.41-4.59,1.93Z"/><path class="cls-3" d="M309.52,91.39c-6.1-.05-11.95,5.43-11.95,10.12,0,1.51.69,5.13,7.51,5.75-.67,1.31-.94,2.16-1.17,2.85-3.89-.79-8.98-3.02-8.98-8.58,0-5.23,4.76-8.38,6.25-9.35-2.93.17-11.21,1.31-12.67,1.71l-.4-3.17c.47.02.87.05,1.41.05,1.29,0,12.3-.57,19.44-2.23l.55,2.85Z"/><path class="cls-3" d="M322.95,93.92c.12.07.3.22.3.42,0,.4-.4.37-.82.32-.84,1.36-2.11,2.8-2.5,3.27.25.07.64.2.64.42s-.3.35-.47.4v11.58h-2.7v-9.79c-.82.79-1.69,1.56-2.58,2.23-.55-.72-1.39-1.34-1.98-1.69,4.17-2.9,7.14-6.92,7.91-8.48l2.21,1.31ZM321.93,88.76c.12.07.25.25.25.37,0,.27-.35.32-.72.25-2.13,2.41-3.79,3.92-6.35,5.63-.62-.82-1.51-1.44-2.01-1.71,2.31-1.34,5.26-3.92,6.74-5.88l2.08,1.34ZM332.67,107.11c0,2.75-1.79,3.22-5.33,3.15-.3-1.59-.5-2.03-.92-2.7,1.07.15,1.76.2,2.08.2,1.24,0,1.44-.3,1.44-1.17v-9.3h-7.09v-2.41h13.49v2.41h-3.67v9.82ZM335.42,90.87h-11.55v-2.41h11.55v2.41Z"/><path class="cls-3" d="M340.27,96.45c.82-.1,1.17-.2,3.65-1.19,2.68-1.09,5.21-2.11,8.06-2.11,4.24,0,6.4,3.07,6.4,6.52,0,6.05-5.73,9.79-11.83,10.86-.35-.74-.69-1.24-1.59-2.26,8.55-1.31,10.81-5.63,10.81-8.43,0-2.63-1.69-4.31-3.97-4.31-2.85,0-7.24,1.96-10.22,4.22l-1.31-3.3ZM345.2,87.42c1.04.32,3.67,1.19,7.76,1.19.69,0,1.17-.02,1.59-.07-.2,1.12-.27,1.64-.35,2.73-5.33-.1-8.18-.92-9.4-1.26l.4-2.58Z"/><path class="cls-3" d="M385.85,91.42v2.48h-11.23c-.02,1.26-.12,2.23-.25,3.12h8.18c.03,3.07-.27,9.25-1.88,11.58-1.14,1.64-2.63,1.66-5.06,1.74-.2-1.41-.72-2.21-1.19-2.83.35.07,1.17.22,2.21.22.89,0,1.88,0,2.5-1.66.27-.77.84-2.7.84-6.62h-6.08c-1.19,4.79-4.66,8.6-9.08,10.84-.47-.74-1.36-1.66-2.18-1.96,9.1-3.35,9.27-11.83,9.32-14.43h-8.8v-2.48h9.97v-3.82l2.75.17c.17,0,.52.1.52.35,0,.2-.15.27-.52.4v2.9h9.97Z"/><path class="cls-3" d="M400.89,87.94c.15.02.52.1.52.42,0,.07-.02.35-.64.37-.2.45-.4.87-.92,1.93.74-.1,3.77-.45,6.17-1.31l.07,2.53c-3.1.62-5.9.97-7.49,1.12-.82,1.39-1.17,1.96-1.71,2.78,1.26-.67,2.36-.67,2.63-.67.45,0,2.88,0,3.89,2.55,1.86-.82,4.81-2.08,5.55-2.45l.99,2.65c-2.7.77-4.14,1.34-6.1,2.11.1.92.1,1.88.1,2.65,0,1.17-.03,1.81-.07,2.48-.42-.02-1.66-.05-2.58,0,.2-2.13.12-3.62.1-3.99-4.04,2.11-4.56,3.25-4.56,4.24,0,.77.17,1.91,4.66,1.91,2.58,0,5.16-.37,7.66-1.04-.2.84-.3,1.51-.3,2.7-3.05.64-6.12.64-6.84.64-5.65,0-7.66-1.88-7.66-4.07,0-3.27,4.69-5.8,6.74-6.74-.2-.69-.5-1.76-2.33-1.76s-3.92,1.17-6.75,5.75l-2.31-1.41c1.17-1.22,3.97-4.69,5.98-8.13-2.01.1-2.63.12-4.59.1v-2.48c.79.07,1.76.17,3.47.17.99,0,1.81-.02,2.31-.05.84-1.71,1.14-2.38,1.49-3.55l2.5.55Z"/><path class="cls-3" d="M416.58,95.06c1.64,1.56,2.68,2.9,3.79,4.39.82-1.86,1.39-3.57,1.81-5.68h-8.26v-2.28h5.03v-4.02l2.78.15c.25.02.52.12.52.32,0,.25-.25.32-.52.42v3.12h4.76v2.28h-1.83c-.52,3.2-1.88,6.4-2.63,7.93.72,1.09,1.93,3.15,3.15,5.68-1.02.45-1.66.79-2.48,1.34-.82-2.26-1.86-4.21-2.03-4.54-.77,1.22-2.58,3.84-5.26,6.03-.74-.82-1.19-1.09-2.18-1.54,1.81-1.39,3.89-3.32,5.9-6.77-1.79-2.6-3.02-3.97-4.51-5.46l1.96-1.39ZM426.96,98.28c.45.6,1.76,2.5,2.73,4.79-.5.22-1.07.5-2.38,1.29-.57-1.61-1.69-3.65-2.5-4.83l2.16-1.24ZM437.03,94.12v2.36h-2.73v10.36c0,3.45-1.93,3.45-5.03,3.45-.03-1.41-.92-2.63-1.14-2.9,1.09.17,2.23.22,2.38.22,1.14,0,1.14-.5,1.14-1.66v-9.47h-5.8v-2.36h5.8v-6.55l2.65.17c.35.02.52.1.52.3,0,.17-.22.3-.52.42v5.65h2.73Z"/><path class="cls-3" d="M452.22,98.43c-.22.17-.42.35-.79.6,3.17,3.12,4.54,6.5,4.54,8.68s-1.61,2.78-4.98,2.73c-.15-1.26-.69-1.96-1.07-2.43.64.12,1.49.2,2.16.2,1.19,0,1.41-.4,1.41-1.02,0-.15,0-.97-.52-2.13-1.93,1.83-6.17,4.26-10.89,5.58-.32-.87-.74-1.34-1.54-1.96,4.46-.84,9-3.1,11.58-5.26-.17-.27-.27-.45-.62-.97-3.2,2.26-6.12,3.62-9.82,4.56-.55-.94-.72-1.14-1.54-1.98,4.81-.77,8.41-2.93,10.14-4.14-.17-.2-.35-.35-.7-.69-3.74,2.18-6.54,2.98-7.64,3.27-.37-.77-.82-1.34-1.64-1.96,4.66-1.02,6.32-1.71,8.65-3.07h-5.85v-3.65c-.25.17-.64.42-1.02.67-.35-.5-.84-1.17-1.93-1.86,3.64-1.91,6.07-4.27,7.61-6.32l2.7.47c.35.05.55.17.55.37,0,.27-.27.27-.77.35-.22.27-.35.42-.54.64h6.3l.65.79c-.45.65-1.07,1.49-2.21,2.65h6.57v5.88h-6.05c.2.64.5,1.61,1.34,3.1,1.36-.74,2.45-1.49,3.94-2.73l2.11,1.44c.12.07.32.22.32.37,0,.32-.27.42-.87.32-1.07.74-2.18,1.44-4.26,2.45,2.33,3.05,5.03,4.44,6.12,4.98-1.51.84-1.88,1.46-2.11,1.83-4.12-2.85-7.27-6.94-8.65-11.78h-.69ZM450.73,94.44h-5.06v2.13h5.06v-2.13ZM451.55,92.56c.5-.6.72-.89,1.17-1.54h-4.84c-.69.64-1.02.94-1.74,1.54h5.41ZM458.57,94.44h-5.26v2.13h5.26v-2.13Z"/><path class="cls-3" d="M486.15,95.16c-3.47.5-6.97,1.88-9.62,3.15-2.6,1.24-5.78,3.25-5.78,5.6,0,3,5.28,3,6.94,3s5.53-.25,8.33-1.26c-.1.42-.25,1.12-.17,2.95-2.45.47-5.85.74-8.08.74-4.39,0-6.12-.72-7.19-1.26-1.54-.82-2.58-2.31-2.58-4.09,0-2.6,1.83-4.74,5.48-6.77-1.39-1.46-1.56-3.07-1.91-6.45-.05-.52-.15-1.39-.5-2.31l3.35-.72c-.1,1.07-.15,1.69-.15,2.41,0,1.79.15,4.34,1.34,5.98,1.21-.6,2.93-1.31,3.99-1.74.87-.35,5.18-2.01,5.48-2.13l1.07,2.9Z"/><path class="cls-3" d="M495.59,88.51c.37.05.6.07.6.32s-.37.37-.62.42c-.52,3.22-.64,9.2-.64,10.96,0,4.61.32,6.82,3,6.82,4.96,0,8.73-5.75,9.47-7.36.74.99,1.17,1.51,1.96,2.18-4.07,6.5-8.83,7.84-11.65,7.84-5.21,0-5.43-4.93-5.43-9.5,0-1.69.3-9.15.3-10.69,0-.72-.02-.99-.07-1.41l3.1.42Z"/><path class="cls-3" d="M523.89,88.39c.32.07.47.2.47.35,0,.3-.35.35-.47.37-.12.5-.67,2.78-.77,3.25,2.8-.42,4.24-.99,5.06-1.34l.42,2.55c-.84.25-2.45.74-6.15,1.26-1.56,5.33-3.32,9.79-6.65,15.08-.87-.52-.97-.57-2.5-1.29,1.49-1.81,4.44-6.5,6.42-13.41-1.83.2-2.83.22-5.26.25l-.22-2.7c.59.05,1.24.1,2.21.1,1.66,0,3.1-.12,3.89-.17.5-2.43.59-3.72.72-4.98l2.83.69ZM526.08,103.07c-.87.92-1.07,2.01-1.07,2.33,0,.99,1.17,1.61,4.69,1.61,1.02,0,3.1-.15,5.28-.82-.05.37-.1.82-.1,1.36,0,.67.07.99.15,1.36-2.53.47-4.74.47-5.28.47-1.61,0-7.09,0-7.09-3.79,0-1.09.37-1.98,1.26-3.37l2.16.84ZM525.16,96.85c2.45-.37,4.54-.42,5.68-.42,2.03,0,2.9.15,3.62.25-.17,1.04-.2,2.13-.2,2.53-.79-.15-1.79-.35-3.7-.35-2.23,0-4.49.3-5.4.42v-2.43Z"/><path class="cls-3" d="M541.78,103.22c2.46,1.51,4.36,3.32,5.41,4.34l-2.08,2.11c-1.59-2.03-3.3-3.42-5.03-4.59l1.71-1.86Z"/><path class="cls-3" d="M568.55,89.36v-1.81l2.6.1c.22,0,.57.02.57.3,0,.22-.25.35-.62.5v.92h4.54v1.98h-4.54v7.84h5.33v2.03h-4.94c1.91,2.08,4.37,3.1,5.51,3.5-.65.5-1.19.99-1.79,2.03-1.59-.74-3.37-1.93-4.66-3.12v1.64h-4.34v2.18h9.15v2.16h-20.61v-2.16h8.88v-2.18h-4.07v-1.88c-1.49,1.51-2.83,2.38-4.69,3.5-.84-.99-1.66-1.56-2.03-1.81,1.93-.79,3.89-1.76,5.53-3.84h-4.76v-2.03h5.13v-7.84h-4.49v-1.98h4.49v-1.79l2.75.12c.12,0,.5.02.5.32,0,.27-.3.42-.72.52v.82h7.26ZM561.28,101.21c-.47.69-.92,1.31-1.56,1.98h3.92v-1.98h-2.36ZM561.28,91.34v1.46h7.26v-1.46h-7.26ZM561.28,94.49v1.49h7.26v-1.49h-7.26ZM561.28,97.64v1.54h7.26v-1.54h-7.26ZM570.13,103.19c-.3-.27-1.09-1.09-1.71-1.98h-1.56c.1.05.17.12.17.22,0,.27-.54.37-.82.42v1.34h3.92Z"/><path class="cls-3" d="M592.79,103.94h4.14v2.38h-4.14v4.02h-2.53v-4.02h-3.97v-2.38h3.97v-6.65c-2.65,5.43-6,8.65-8.18,10.54-.27-.37-.74-.99-2.4-1.86,6.03-4.31,9.03-9.99,9.62-11.23h-9.1v-2.23h10.07v-4.96l2.43.17c.3.02.64.05.64.35,0,.22-.22.35-.54.47v3.97h10.14v2.23h-9.22c1.96,3.74,5.11,7.66,9.69,10.91-.99.72-1.41,1.09-2.01,2.01-3.67-2.75-6.6-6.37-8.6-10.49v6.77Z"/><path class="cls-3" d="M628.95,92.08c.05,3.6-.05,12.47-1.29,15.57-.32.79-1.07,2.68-5.06,2.68-.3,0-.52-.02-.72-.05-.15-.97-.5-1.91-.94-2.73.45.07,1.09.17,2.01.17,1.19,0,2.03-.1,2.48-1.19,1.02-2.53,1.02-7.49,1.02-12.12h-5.7c-1.02,2.45-1.59,3.35-1.91,3.84-.92-.55-1.34-.77-2.33-.92v11.58h-2.53v-.92h-3.97v1.59h-2.58v-17.63h2.83c.22-.57.94-2.75,1.21-4.31l2.43.47c.25.05.62.12.62.37,0,.22-.17.3-.64.47-.57,1.64-.69,1.93-1.14,3h3.77v5.13c.64-.84,2.83-4.59,3.6-9.4l2.38.57c.17.05.52.17.52.37,0,.22-.22.32-.62.42-.1.5-.27,1.29-.82,3.02h7.39ZM610.01,98.75h3.97v-4.46h-3.97v4.46ZM613.97,100.96h-3.97v4.71h3.97v-4.71ZM622.18,97.14c.69,1.29,1.66,4.26,1.91,5.43-1.12.35-1.81.69-2.33.97-.3-1.36-1.21-4.44-1.81-5.46l2.23-.94Z"/><path class="cls-3" d="M633.9,92.01c.74.07,1.36.15,2.63.15,1.39,0,2.43-.1,2.88-.15.64-2.38.84-3.55,1.02-4.41l2.68.77c.22.07.35.12.35.32,0,.27-.22.3-.5.32-.12.4-.67,2.23-.77,2.6.62-.1,1.96-.37,3.74-1.02-.05.72-.05,1.74.08,2.53-2.28.64-4.19.92-4.56.97-.87,2.58-3.32,8.7-5.73,12.08-1.04-.55-1.12-.57-2.4-1.07,2.43-3.47,4.39-7.74,5.36-10.69-.69.07-2.58.2-4.46.17l-.3-2.58ZM649.54,98.11c-1.17,1.09-1.21,2.01-1.21,2.58,0,1.22.17,2.18.32,2.88,1.88.87,3.94,2.13,5.48,3.37-.52.6-.74.89-1.51,1.96-2.58-2.03-3.1-2.31-3.89-2.73-.1,3.6-3.74,3.6-4.61,3.6-2.83,0-5.18-1.29-5.18-3.72,0-1.81,1.36-3.55,4.56-3.55,1.09,0,1.96.2,2.5.32-.1-.84-.25-1.81-.25-2.58,0-1.59,1.14-3.02,1.74-3.45l2.06,1.31ZM643.62,104.46c-1.21,0-2.33.52-2.33,1.59,0,1.66,2.48,1.66,2.63,1.66,2.48,0,2.46-1.54,2.43-2.55-1.34-.69-2.48-.69-2.73-.69ZM648.28,92.16c3.82,1.26,5.26,2.26,6.42,3.2-.84,1.19-1.09,1.54-1.46,2.13-2.23-1.93-5.01-2.8-6.35-3.2l1.39-2.13Z"/><path class="cls-3" d="M664.51,97.39c1.54,1.12,3.35,2.73,4.24,3.65,4.04-3.42,5.9-6,6.72-7.14h-16.56v-2.43h17.95c.12,0,.72-.02,1.56-.35l1.61,1.93c-.72.59-.97.89-1.19,1.17-2.7,3.27-4.69,5.5-8.36,8.68,2.11,2.28,2.68,3.2,3.07,3.84-1.14.92-1.56,1.24-2.18,1.96-2.55-4.66-6.97-8.21-8.6-9.45l1.74-1.86Z"/><path class="cls-3" d="M685.45,93.62c1.59.62,4.76,2.21,6.3,3.37-.84.87-1.46,1.93-1.61,2.21-2.46-1.93-5.41-3.12-6.15-3.42l1.46-2.16ZM685.5,107.24c7.12-2.43,13.74-7.14,18.05-13.79.65,1.02.92,1.34,1.71,2.16-5.31,7.91-13.79,12.35-17.68,13.79-.02.22-.1.6-.4.6-.15,0-.27-.15-.37-.35l-1.31-2.4ZM688.05,87.99c3.3,1.22,5.18,2.26,6.62,3.17-.5.55-1.22,1.59-1.59,2.18-2.31-1.66-4.56-2.63-6.5-3.35l1.46-2.01Z"/><path class="cls-3" d="M710.88,88.74c1.81.89,4.36,2.28,6.89,4.54-.32.37-.77.92-1.61,2.23-3.27-2.9-5.75-4.04-6.84-4.54l1.56-2.23ZM709.51,106.52c4.76-1.02,13.19-4.27,18.82-13.54.79,1.22.84,1.34,1.66,2.28-4.84,7.61-11.6,11.33-18.15,13.66,0,.27-.1.55-.35.55-.2,0-.32-.17-.4-.3l-1.59-2.65Z"/><path class="cls-3" d="M745.16,107.01c7.39-1.54,7.88-7.07,7.88-8.5,0-3.72-2.73-6.97-7.09-6.99-.27,2.85-.82,6.94-2.73,11.33-1.34,3.05-2.63,4.61-4.04,4.61-1.86,0-4.88-2.98-4.88-7.17,0-5.21,4.66-11.11,11.48-11.11,5.23,0,9.82,3.5,9.82,9.3,0,3.22-1.41,5.73-2.9,7.34-1.96,2.11-4.34,2.95-5.85,3.47-.7-1.17-1.19-1.74-1.69-2.28ZM736.75,100.12c0,2.48,1.31,4.31,2.28,4.31s1.66-1.88,2.31-3.5c1.17-3,1.79-5.8,1.88-9-3.92.99-6.47,5.03-6.47,8.18Z"/><path class="cls-3" d="M71.59,152.36h-2.58v-11.9c-.89,1.41-1.36,1.96-1.81,2.5-.35-.57-1.02-1.39-1.64-1.91,2.95-3.42,4.93-8.95,5.53-11.51l2.31.69c.3.1.52.2.52.4,0,.37-.57.45-.74.5-.55,1.74-1.29,3.72-1.91,5.06.45.12.79.25.79.47,0,.2-.3.32-.47.4v15.3ZM77.04,143.11h-2.83v-7.59h5.68v-1.69h-6.47v-2.11h6.47v-2.11l2.53.1c.27,0,.65.02.65.35,0,.27-.32.42-.65.47v1.19h6.72v2.11h-6.72v1.69h5.75v7.59h-5.85c-.15.92-.52,2.5-1.24,3.79,1.39.94,3.79,2.36,8.53,3.15-.62.65-1.21,1.93-1.36,2.41-1.59-.42-5.16-1.44-8.46-3.67-1.07,1.17-3.2,2.68-5.9,3.62-.2-.4-.69-1.41-1.66-2.13.6-.17,3.77-1.09,5.63-3.05-1.41-1.31-2.01-2.13-2.48-2.8l1.66-1.31ZM79.89,140.9v-3.17h-3.25v3.17h3.25ZM77.07,143.11c.5.64,1.17,1.41,2.06,2.31.32-.62.55-1.29.69-2.31h-2.75ZM82.42,137.73v3.17h3.32v-3.17h-3.32Z"/><path class="cls-3" d="M97.26,132.2c.35.1.52.15.52.4,0,.3-.32.35-.55.35-1.19,3.42-1.19,6.84-1.19,7.44,0,4.04,1.54,7.12,2.7,7.12,1.07,0,2.36-3.17,2.93-4.61.69.82,1.12,1.21,1.81,1.69-.45,1.09-2.5,6.22-4.88,6.22-2.03,0-5.11-3.77-5.11-10.81,0-3,.55-5.98,1.07-8.6l2.7.82ZM109.95,132.7c3.5,4.69,4.61,9.32,4.93,12.7-.4.12-2.06.87-2.73,1.17-.22-3.92-1.19-8.38-4.39-12.5l2.18-1.36Z"/><path class="cls-3" d="M141.21,133.42v2.48h-11.23c-.02,1.26-.12,2.23-.25,3.12h8.18c.02,3.07-.27,9.25-1.88,11.58-1.14,1.64-2.63,1.66-5.06,1.74-.2-1.41-.72-2.21-1.19-2.83.35.07,1.17.22,2.21.22.89,0,1.88,0,2.5-1.66.27-.77.84-2.7.84-6.62h-6.07c-1.19,4.79-4.66,8.6-9.08,10.84-.47-.74-1.36-1.66-2.18-1.96,9.1-3.35,9.27-11.83,9.32-14.43h-8.8v-2.48h9.97v-3.82l2.75.17c.17,0,.52.1.52.35,0,.2-.15.27-.52.4v2.9h9.97Z"/><path class="cls-3" d="M163.58,137.16c-3.47.5-6.97,1.88-9.62,3.15-2.6,1.24-5.78,3.25-5.78,5.6,0,3,5.28,3,6.94,3s5.53-.25,8.33-1.26c-.1.42-.25,1.12-.17,2.95-2.45.47-5.85.74-8.08.74-4.39,0-6.12-.72-7.19-1.26-1.54-.82-2.58-2.31-2.58-4.09,0-2.6,1.83-4.74,5.48-6.77-1.39-1.46-1.56-3.07-1.91-6.45-.05-.52-.15-1.39-.5-2.31l3.35-.72c-.1,1.07-.15,1.69-.15,2.41,0,1.79.15,4.34,1.34,5.98,1.21-.6,2.93-1.31,3.99-1.74.87-.35,5.18-2.01,5.48-2.13l1.07,2.9Z"/><path class="cls-3" d="M173.5,136.69c2.6,1.29,6.37,3.4,9.32,6.2-.3.37-.77.94-1.56,2.21-3.25-3.1-6.74-5.08-8.83-6.1v12.72h-2.7v-21.57l2.73.17c.3.02.45.1.45.3,0,.27-.3.32-.47.37v7.19l1.07-1.49Z"/><path class="cls-3" d="M190.32,130.94c.32.02.52.02.52.25,0,.3-.37.45-.52.52v16.07c4.71-1.59,10.86-5.53,14.18-9.99.6,1.49.65,1.59,1.29,2.65-2.21,2.36-5.5,5.6-11.65,8.6-.77.37-4.14,1.93-4.81,2.28l-1.83-1.83c.07-.32.12-1.14.12-1.46v-17.21l2.7.12Z"/><path class="cls-3" d="M230.87,139.66v2.68h-21.2v-2.68h21.2Z"/><path class="cls-3" d="M256.72,146.09v2.53h-21.32v-2.53h21.32ZM253.67,133.37v2.48h-15.22v-2.48h15.22Z"/><path class="cls-3" d="M262.5,130.74c1.81.89,4.36,2.28,6.89,4.54-.32.37-.77.92-1.61,2.23-3.27-2.9-5.75-4.04-6.84-4.54l1.56-2.23ZM261.14,148.52c4.76-1.02,13.19-4.27,18.82-13.54.79,1.22.84,1.34,1.66,2.28-4.84,7.61-11.6,11.33-18.15,13.66,0,.27-.1.55-.35.55-.2,0-.32-.17-.4-.3l-1.59-2.65Z"/><path class="cls-3" d="M301.09,133.76c.79,0,1.24-.2,1.69-.37l1.44,1.31c-.4.62-.5.84-.79,1.51-2.08,4.79-3.45,7.91-6.77,11.31-3.07,3.15-6.12,4.44-7.36,4.96-.62-.77-.99-1.09-2.03-1.91,7.61-3.1,11.03-8.03,13.17-14.46h-7.74c-1.69,2.5-3.45,4.56-6.15,6.92-1.02-1.02-1.09-1.12-1.98-1.79,3.67-2.88,6.82-6.92,8.48-11.38l2.43,1.09c.12.05.35.15.35.37,0,.25-.37.32-.6.32-.25.52-.4.82-1.09,2.11h6.97ZM300,129.1c.6.55,1.64,1.64,2.28,2.43-.32.2-.99.59-1.49,1.04-1.07-1.36-1.74-1.98-2.21-2.38l1.41-1.09ZM303.74,128.83c.79.72,1.83,1.96,2.28,2.55-.42.25-.52.32-1.49,1.04-.17-.27-1.12-1.64-2.16-2.53l1.36-1.07Z"/><path class="cls-3" d="M325.27,131.48c1.04,0,1.46-.15,1.71-.22l1.91,1.61c-.4.64-.5.82-.72,1.44-2.68,7.07-4.81,12.5-14.6,17.28-.64-1.02-1.66-1.79-1.98-2.03,7.44-3.2,10.96-6.99,13.84-15.67h-16.22v-2.41h16.07Z"/><path class="cls-3" d="M333.21,140.28v-2.16h9.55v-4.12l2.26.15c.32.02.5.05.5.3,0,.2-.3.32-.47.37v3.3h4.24v2.16h-4.24v8.18c0,2.65-.67,3.22-4.76,3.12-.15-.87-.52-1.74-.92-2.5.45.1,1.02.2,1.98.2,1.39,0,1.41-.3,1.41-1.46v-5.43c-1.69,2.48-4.27,5.01-8.33,6.99-.47-.72-1.02-1.41-1.59-1.96,3.6-1.36,6.69-3.84,8.68-7.14h-8.31Z"/><path class="cls-3" d="M375.18,139.66v2.68h-21.2v-2.68h21.2Z"/><path class="cls-3" d="M394.75,138.45c2.68,2.93,5.73,7.71,6.62,10.17-.32.22-1.51,1.07-2.18,1.76-.42-1.12-.82-2.03-1.49-3.3-9.22,1.61-10.24,1.79-16.86,2.65-.12.37-.22.45-.4.45-.2,0-.32-.2-.37-.45l-.57-2.48c.67-.02,1.21-.05,2.63-.17,2.01-3.82,4.74-10.66,6.1-16.71l2.73.74c.3.07.47.17.47.35,0,.32-.45.4-.59.42-.4,1.07-2.01,5.88-2.38,6.84-1.02,2.73-2.16,5.43-3.45,8.06,2.65-.32,5.55-.79,11.51-1.76-1.61-2.5-2.88-4.07-3.97-5.23l2.21-1.34Z"/><path class="cls-3" d="M415.98,129.94c.15.02.52.1.52.42,0,.07-.03.35-.64.37-.2.45-.4.87-.92,1.93.74-.1,3.77-.45,6.17-1.31l.07,2.53c-3.1.62-5.9.97-7.49,1.12-.82,1.39-1.16,1.96-1.71,2.78,1.27-.67,2.36-.67,2.63-.67.45,0,2.88,0,3.89,2.55,1.86-.82,4.81-2.08,5.55-2.45l.99,2.65c-2.7.77-4.14,1.34-6.1,2.11.1.92.1,1.88.1,2.65,0,1.17-.02,1.81-.07,2.48-.42-.02-1.66-.05-2.58,0,.2-2.13.12-3.62.1-3.99-4.04,2.11-4.56,3.25-4.56,4.24,0,.77.17,1.91,4.66,1.91,2.58,0,5.16-.37,7.66-1.04-.2.84-.3,1.51-.3,2.7-3.05.64-6.12.64-6.84.64-5.65,0-7.66-1.88-7.66-4.07,0-3.27,4.69-5.8,6.74-6.74-.2-.69-.5-1.76-2.33-1.76s-3.92,1.17-6.74,5.75l-2.31-1.41c1.17-1.22,3.97-4.69,5.98-8.13-2.01.1-2.63.12-4.59.1v-2.48c.79.07,1.76.17,3.47.17.99,0,1.81-.02,2.3-.05.84-1.71,1.14-2.38,1.49-3.55l2.5.55Z"/><path class="cls-3" d="M432.35,129.67l2.58.17c.15,0,.55.02.55.32,0,.27-.25.4-.55.5v3.32h2.55v2.23h-2.55v3.82c1.44-.52,2.16-.82,2.58-1.02-.1.77-.1,1.51-.05,2.28-.45.2-.92.42-2.53,1.07v6.62c0,2.85-1.19,3.12-4.39,3.32-.1-.99-.42-1.86-.92-2.73.77.17,1.51.17,1.61.17.92,0,1.12-.25,1.12-1.39v-5.01c-1.31.47-2.18.74-2.95.97,0,.17-.02.6-.42.6-.3,0-.37-.25-.42-.45l-.55-2.38c.7-.12,1.81-.32,4.34-1.17v-4.71h-3.69v-2.23h3.69v-4.31ZM440.98,150.95v1.34h-2.48v-11.58h11.65v11.55h-2.53v-1.31h-6.64ZM449.64,131.43c.12.12.2.25.2.4,0,.17-.15.32-.35.32-.12,0-.27-.02-.57-.17-2.26,1.51-5.6,2.7-7.74,3.25v.72c0,1.09.17,1.12,1.76,1.12h3.79c2.01,0,2.21-.47,2.6-2.78.32.25.92.77,2.18,1.12-.57,3.1-1.46,3.89-4.74,3.89h-4.88c-2.88,0-3.17-1.26-3.17-2.75v-6.89l2.53.2c.2.02.54.07.54.35,0,.25-.25.32-.62.47v2.31c2.21-.64,5.06-1.96,6.6-3.35l1.86,1.81ZM447.63,144.82v-2.08h-6.64v2.08h6.64ZM447.63,148.94v-2.18h-6.64v2.18h6.64Z"/><path class="cls-3" d="M472.75,145.71h4.61v2.01h-4.61v1.74c0,2.95-1.56,2.95-4.98,3-.12-1.14-.64-2.06-.87-2.45.69.1,1.41.17,2.08.17.99,0,1.27-.17,1.27-1.12v-1.34h-8.04c1.12.97,1.76,1.49,2.65,2.48-.52.4-1.56,1.36-1.96,1.76-.79-1.19-1.49-1.81-3.2-3.3l1.09-.94h-6.35v-2.01h15.79v-1.12h-4.39c-4.71,0-5.93-.89-6.94-2.23-1.09.82-1.66,1.14-3.2,1.96-.02.17-.12.57-.35.57-.15,0-.3-.17-.37-.35l-1.04-2.08c1.29-.37,2.4-.87,3.52-1.54v-3.27h-2.98v-2.03h5.38v4.04c0,3.07,2.41,3.07,9.05,3.07,2.78,0,5.9,0,8.6-.35-.54.87-.69,1.26-.84,2.21h-3.37c.05.3-.07.35-.57.55v.57ZM456.26,129.45c1.46.99,2.88,2.5,3.25,2.93-.82.6-1.54,1.59-1.66,1.79-.82-1.21-3.03-2.98-3.1-3.05l1.51-1.66ZM475.38,134.28v7.91h-2.28v-.42h-8.5v.42h-2.43v-7.91h4.17c.22-.4.35-.62.52-1.04h-6.6v-1.66h4.24c-.69-.97-1.14-1.34-1.36-1.56l2.18-.69c.6.52,1.27,1.36,1.64,1.91-.77.2-1.02.27-1.26.35h4.49c.82-1.36,1.02-1.91,1.12-2.23l2.16.45c.25.05.45.15.45.35,0,.22-.22.27-.64.32-.17.32-.32.6-.67,1.12h4.64v1.66h-7.76c-.27.47-.32.59-.59,1.04h6.52ZM464.6,136.49h8.5v-.84h-8.5v.84ZM473.1,137.61h-8.5v.82h8.5v-.82ZM473.1,139.54h-8.5v.92h8.5v-.92Z"/><path class="cls-3" d="M485.43,132.2c.35.1.52.15.52.4,0,.3-.32.35-.54.35-1.19,3.42-1.19,6.84-1.19,7.44,0,4.04,1.54,7.12,2.7,7.12,1.07,0,2.36-3.17,2.93-4.61.69.82,1.12,1.21,1.81,1.69-.45,1.09-2.5,6.22-4.88,6.22-2.03,0-5.11-3.77-5.11-10.81,0-3,.54-5.98,1.07-8.6l2.7.82ZM498.13,132.7c3.5,4.69,4.61,9.32,4.94,12.7-.4.12-2.06.87-2.73,1.17-.22-3.92-1.19-8.38-4.39-12.5l2.18-1.36Z"/><path class="cls-3" d="M517.2,130.39c.32.07.47.2.47.35,0,.3-.35.35-.47.37-.12.5-.67,2.78-.77,3.25,2.8-.42,4.24-.99,5.06-1.34l.42,2.55c-.84.25-2.45.74-6.15,1.26-1.56,5.33-3.32,9.79-6.65,15.08-.87-.52-.97-.57-2.5-1.29,1.49-1.81,4.44-6.5,6.42-13.41-1.83.2-2.83.22-5.26.25l-.22-2.7c.59.05,1.24.1,2.21.1,1.66,0,3.1-.12,3.89-.17.5-2.43.59-3.72.72-4.98l2.83.69ZM519.39,145.07c-.87.92-1.07,2.01-1.07,2.33,0,.99,1.17,1.61,4.69,1.61,1.02,0,3.1-.15,5.28-.82-.05.37-.1.82-.1,1.36,0,.67.07.99.15,1.36-2.53.47-4.74.47-5.28.47-1.61,0-7.09,0-7.09-3.79,0-1.09.37-1.98,1.26-3.37l2.16.84ZM518.47,138.85c2.45-.37,4.54-.42,5.68-.42,2.03,0,2.9.15,3.62.25-.17,1.04-.2,2.13-.2,2.53-.79-.15-1.79-.35-3.7-.35-2.23,0-4.49.3-5.4.42v-2.43Z"/><path class="cls-3" d="M537.37,130.51c.37.05.6.07.6.32s-.37.37-.62.42c-.52,3.22-.64,9.2-.64,10.96,0,4.61.32,6.82,3,6.82,4.96,0,8.73-5.75,9.47-7.36.74.99,1.17,1.51,1.96,2.18-4.07,6.5-8.83,7.84-11.65,7.84-5.21,0-5.43-4.93-5.43-9.5,0-1.69.3-9.15.3-10.69,0-.72-.02-.99-.07-1.41l3.1.42Z"/><path class="cls-3" d="M566.21,130.34c.22.05.4.05.4.27,0,.27-.35.35-.5.4-.07,1.04-.1,1.59-.12,2.06,1.19,0,6.4-.1,7.46-.02v2.46c-1.29-.07-3.1-.2-7.51-.12,0,.12-.05,2.7-.02,3.89,3.94-.3,5.83-.82,6.89-1.12v2.53c-1.54.35-2.58.5-6.82.84,0,.5.08,2.7.1,3.15,3.42.69,6.62,2.31,8.18,3.5-.82.94-.97,1.14-1.74,2.16-2.01-1.76-4.14-2.8-6.32-3.47.1,1.71.3,4.71-4.79,4.71-3.57,0-5.88-1.74-5.88-3.69,0-2.63,3.25-3.69,5.95-3.69.52,0,1.34.05,1.98.1,0-.32-.05-2.13-.05-2.6-3.5.07-7.31.15-7.31-1.96,0-.87.52-1.64,1.76-2.78l1.93.62c-.87.77-.97.87-.97,1.19,0,.55.62.6,1.46.64.52.05,1.17.07,3.08.02-.02-.62-.05-3.37-.05-3.94-4.02.15-6.74.5-8.28.67v-2.58c1.29-.1,7.09-.37,8.28-.42-.02-1.83-.02-2.43-.12-3.35l3,.55ZM561.68,146.11c-1.69,0-3.52.45-3.52,1.71,0,1.46,2.31,1.59,2.85,1.59,2.55,0,2.55-1.51,2.55-2.31,0-.3-.02-.52-.05-.79-.4-.1-.87-.2-1.83-.2Z"/><path class="cls-3" d="M590.94,129.97c.59.07.59.17.59.3,0,.17-.17.27-.42.4-.07.69-.07.87-.12,2.33,1.36-.05,7.37-.32,8.6-.37-.02.47-.05,1.81.02,2.65-.82-.02-2.95-.07-5.16-.07-.57,0-1.93,0-3.42.05-.03,2.68-.03,2.98.05,3.84,1.07,1.74,1.07,3.89,1.07,4.22,0,1.59-.54,4.17-2.23,6.3-1.46,1.86-3.03,2.68-3.97,3.17-.67-.67-.84-.79-2.28-1.79,3.37-1.34,4.79-2.95,5.48-5.08-.77.77-1.69,1.21-2.75,1.21-2.33,0-3.52-2.06-3.52-4.61,0-3.03,1.76-4.88,4.04-4.88.82,0,1.27.2,1.59.35v-2.6c-2.36.12-6.65.4-10.46,1.07l-.22-2.8c.97.02,1.93-.05,10.61-.52-.03-.2-.08-1.91-.37-3.47l2.88.32ZM585.07,142.47c0,.35,0,2.63,1.86,2.63,1.29,0,2.18-1.31,2.18-2.95,0-.77-.35-2.43-2.03-2.43-1.41,0-2.01,1.36-2.01,2.75Z"/><path class="cls-3" d="M610.76,148.42c0,1.83-1.51,3.3-3.3,3.3s-3.3-1.46-3.3-3.3,1.49-3.27,3.3-3.27,3.3,1.46,3.3,3.27ZM605.48,148.42c0,1.09.87,1.98,1.98,1.98s1.98-.87,1.98-1.98-.89-1.98-1.98-1.98-1.98.92-1.98,1.98Z"/><rect class="cls-1" x="65" y="217.88" width="88" height="27.99" rx="10.22" ry="10.22"/><path class="cls-4" d="M77.91,227.75h5.57v5.73h-4.06c-.09,2.6-.36,3.8-1.22,5.04l-1.33-1.1c.38-.63,1.04-1.75,1.04-4.38v-5.3ZM84.04,226.36h-6.85v-1.48h6.85v1.48ZM79.42,229.21v2.75h2.55v-2.75h-2.55ZM91.16,225.74c-1.12.47-2.46.85-5.01,1.09v2.17h5.07v1.51h-1.64v8.01h-1.55v-8.01h-1.87c.02,1.39-.02,5.22-2.02,7.95l-1.4-1.09c1.87-2.04,1.87-5.33,1.87-5.93v-5.98c1.98-.03,3.76-.41,5.58-1.16l.98,1.43Z"/><path class="cls-4" d="M98.28,232.31c.32-.51.44-.74.63-1.12h-4.21v-4.01h3.73v-1.01h-4.42v-1.33h14.17v1.33h-4.6v1.01h3.92v4.01h-6.85c-.15.32-.26.54-.59,1.12h8.12v1.39h-2.75c-.2.48-.59,1.4-1.55,2.31,1.8.56,2.97,1,3.71,1.27l-1.24,1.34c-.74-.35-1.98-.92-3.86-1.58-1.96,1.07-5.31,1.34-7.62,1.4l-.57-1.49c.41.03.85.05,1.49.05,2.08,0,3.67-.32,4.66-.6-1.51-.44-3.21-.77-4.74-1.06.45-.42.95-.91,1.55-1.63h-3.26v-1.39h4.27ZM96.19,230.01h2.23v-1.63h-2.23v1.63ZM99.09,233.7c-.18.23-.33.42-.71.89.86.17,2.14.44,3.82.92,1.03-.75,1.28-1.31,1.54-1.81h-4.65ZM99.85,227.18h2.31v-1.01h-2.31v1.01ZM99.85,230.01h2.31v-1.63h-2.31v1.63ZM103.57,230.01h2.41v-1.63h-2.41v1.63Z"/><path class="cls-4" d="M111.13,224.97h4.71v11.47h-3.26v1.16h-1.45v-12.63ZM112.58,226.5v3.4h1.83v-3.4h-1.83ZM112.58,231.31v3.65h1.83v-3.65h-1.83ZM124.47,227.1h-3.11v1.75h3.58v1.46h-1.54v1.49h1.42v1.45h-1.42v3.7c0,.44,0,1.54-1.4,1.54h-2.43l-.3-1.54h2.25c.11,0,.33-.02.33-.24v-3.46h-5.42v-1.45h5.42v-1.49h-5.54v-1.46h3.53v-1.75h-3v-1.45h3v-1.28h1.52v1.28h3.11v1.45ZM117.81,233.52c.98.91,1.43,1.46,2.04,2.43l-1.31,1c-.85-1.31-1.04-1.61-1.95-2.55l1.22-.88Z"/><path class="cls-4" d="M128,224.99h5.73v5.51h-4.24v8.03h-1.49v-13.54ZM129.49,226.23v1h2.78v-1h-2.78ZM129.49,228.25v1h2.78v-1h-2.78ZM138,231.36v5.6h-7v-5.6h7ZM132.42,232.58v1.04h4.15v-1.04h-4.15ZM132.42,234.63v1.09h4.15v-1.09h-4.15ZM139.54,230.5h-4.47v-5.51h5.98v12.12c0,.42,0,1.42-1.01,1.42h-2.31l-.24-1.51h1.71c.18,0,.35-.06.35-.36v-6.16ZM136.54,226.23v1h3v-1h-3ZM136.54,228.25v1h3v-1h-3Z"/><path class="cls-3" d="M166.37,239.5c.2.02.4.09.4.26,0,.22-.29.31-.53.4-.18,1.32-.48,3.21-1.21,5.21-.33-.13-1.05-.37-2.02-.48.77-1.56,1.27-4.17,1.41-5.69l1.96.31ZM172.1,229.57c.11.07.33.22.33.4,0,.22-.24.22-.62.22-.4.51-2.04,2.81-2.37,3.25-.94,1.23-1.25,1.58-1.89,2.33.88-.09,1.21-.13,2.72-.35-.31-.92-.44-1.3-.57-1.6l1.85-.51c.04.11.09.22.13.35,2.18-2.79,3.16-5.23,3.65-7.08l2.07.66c.24.09.46.26.46.4s-.13.22-.22.24c-.13.04-.29.09-.42.11-.2.51-.62,1.56-.9,2.18h6.48c.02,3.49.02,11.36-1.14,14.33-.7,1.82-2.09,2.29-4.75,2.22-.15-.97-.53-1.78-.99-2.57.33.07,1.12.24,1.89.24,1.58,0,2.02-.68,2.48-4.13.33-2.57.33-5.91.29-8.04h-5.3c-.73,1.23-1.08,1.82-1.69,2.66-.66-.59-1.47-.94-1.87-1.12.68,1.8,1.05,3.41,1.21,4.13-1.01.29-1.38.4-1.96.64-.07-.4-.11-.7-.26-1.34l-1.49.29v9.34h-2.13v-9.03c-.31.04-2.4.31-2.92.37-.07.24-.22.51-.4.51-.15,0-.33-.24-.37-.53l-.29-1.98c.48-.02,1.54-.11,1.85-.13.4-.46.64-.77,1.47-1.82-1.08-1.14-1.54-1.54-3.32-3.01l1.3-1.78c.48.37.79.64,1.12.92.15-.22,1.45-2.31,2.13-3.93l1.76.86c.18.09.33.24.33.42,0,.2-.42.22-.62.2-.9,1.6-1.78,2.94-2.29,3.65.55.53.73.68.94.9,1.08-1.41,1.85-2.44,2.55-3.8l1.76.97ZM171.84,238.97c.22,1.52.57,2.7,1.25,4.72-.51.11-1.38.35-1.93.68-.31-.94-1.01-3.25-1.19-4.88l1.87-.53ZM176.26,234.75c1.49,2.61,2.04,4.09,2.33,4.92-.88.35-1.23.51-1.98.92-.55-1.74-1.65-3.89-2.33-5.05l1.98-.79Z"/><path class="cls-3" d="M206.97,236.04h4.78v3.75h-4.78v6.33h-4.46v-6.33h-14.4v-3.93l14.4-17.62h4.46v17.8ZM202.51,236.04v-12.74l-10.4,12.74h10.4Z"/><path class="cls-3" d="M240.33,221.99h-13.91l-1.52,7.89c2.05-1.8,4.67-2.12,6.72-2.12,6.97,0,10.3,5.06,10.3,9.48s-3.11,9.66-11.46,9.66c-1.66,0-5.2-.14-8.17-2.3-2.94-2.12-3.4-5.17-3.54-6.16h4.71c.71,3.93,4.03,4.64,6.79,4.64,4.85,0,7.15-2.9,7.15-5.98,0-2.41-1.56-5.7-6.79-5.7-3.72,0-5.2,1.34-5.98,2.05h-4.88l3.01-15.22h17.59v3.75Z"/><path class="cls-3" d="M256.6,228.78c.09.07.24.18.24.33,0,.24-.2.24-.64.24-1.82,2.97-3.3,5.01-6.83,7.76-.62-.92-1.1-1.38-1.78-1.76,3.1-2.29,5.08-4.22,6.94-7.91l2.07,1.34ZM252.58,236.53v-2.22h11.69c-1.98-2.02-2.7-3.78-3.21-4.97h-3.12v-2.15h5.01c.55,3.32,3.05,6.24,6.04,7.89-.86.83-1.03,1.08-1.47,2-1.05-.62-1.93-1.43-2.99-2.5-.44,10.33-.55,12.08-5.71,12.08-.22,0-.37-.02-.57-.02-.04-1.19-.51-2.09-.68-2.48.31.04,1.01.15,1.8.15,2.07,0,2.18-.62,2.5-3.3.09-.77.26-3.43.24-4.48h-4.11c-.13,2.04-.53,6.97-7.54,10.13-.46-.99-1.27-1.67-1.65-1.98,5.36-1.98,6.72-5.08,6.92-8.15h-3.16Z"/><rect class="cls-1" x="65" y="176.76" width="88" height="27.99" rx="10.22" ry="10.22"/><path class="cls-4" d="M79.69,192.16c.69-.44,1.78-1.1,2.84-2.7.59-.88.95-1.8,1.09-2.57h-3.94v10.5h-1.6v-12.03h5.6v-2.13h1.58v2.13h5.54v10.68c0,1.18-.83,1.34-1.39,1.34h-2.52l-.21-1.6h2.11c.18,0,.39,0,.39-.32v-3.21l-.94,1.34c-.53-.36-3-2.07-3.77-4.86-.47,1.34-2.25,3.83-3.82,4.8l-.97-1.39ZM89.19,186.9h-3.89c.14,1.43,1.19,3.59,3.89,5.33v-5.33Z"/><path class="cls-4" d="M129.04,192.48c-.47.17-.78.27-1.28.42l-.69-1.61c3.52-.65,5.28-2.02,6.41-3.09h1.55c1.74,1.69,4.04,2.64,6.43,3.09l-.71,1.52c-.36-.11-.77-.23-1.31-.42v5.06h-1.54v-.6h-7.32v.6h-1.54v-4.96ZM133.47,183.23h1.55v1.13h5.9v3.27h-1.55v-1.81h-10.2v1.81h-1.58v-3.27h5.89v-1.13ZM133.02,187.03c-1.6,1.55-3.15,2.31-4.6,2.85l-.75-1.4c1.37-.39,2.78-.98,4.21-2.38l1.15.94ZM130.58,193.19v2.25h7.32v-2.25h-7.32ZM137.93,191.82c-1.34-.59-2.55-1.45-3.67-2.41-.48.42-1.72,1.54-3.61,2.41h7.27ZM140.17,189.85c-1.92-.63-3.29-1.34-4.89-2.76l1.27-.95c1.49,1.28,2.58,1.77,4.38,2.22l-.75,1.49Z"/><path class="cls-3" d="M175.2,179.61c.44.07.53.11.53.35,0,.26-.2.29-.59.35-.24.95-.35,1.34-.46,1.69h10.41v1.98h-11.13c-.53,1.23-.88,1.8-1.14,2.27h9.26v10.52c0,2.9-1.47,2.9-4.55,2.9-.04-1.03-.31-1.74-.68-2.38.37.07,1.17.18,1.83.18,1.08,0,1.08-.51,1.08-1.12v-1.5h-7.5v4.8h-2.33v-9.73c-1.72,1.72-2.95,2.38-3.52,2.71-.68-.7-1.03-1.03-1.76-1.56,4.91-2.71,6.31-5.81,6.89-7.08h-6.51v-1.98h7.26c.44-1.5.53-2.11.64-2.75l2.31.35ZM179.73,189.75v-1.54h-7.5v1.54h7.5ZM172.23,191.51v1.58h7.5v-1.58h-7.5Z"/><path class="cls-3" d="M197.64,182.55c.37,0,1.67-.07,2.11-.09.35-.77,1.01-2.29,1.19-3.12l2.18.26c.18.02.44.07.44.26,0,.29-.31.35-.68.46-.18.31-.86,1.74-1.01,2.02.7-.04,2.22-.15,3.48-.26-.79-.92-.97-1.1-1.19-1.3l1.45-1.03c1.41,1.39,2.62,3.01,3.28,3.96-.2.11-.88.51-1.52,1.08-.2-.37-.35-.62-.79-1.19-1.52.18-1.69.2-1.96.24v2.07c0,.7.13.7,1.21.7.81,0,.99,0,1.21-1.67.46.31,1.03.64,1.83.81-.31,1.61-.57,2.75-2.31,2.75h-2c-1.5,0-1.83-.88-1.83-1.96v-2.53c-.33.02-1.83.15-2.13.18l1.17.57c.22.11.35.2.35.33,0,.2-.22.24-.57.31-.53,1.23-1.39,2.68-2.42,3.83-.42-.4-.7-.62-1.41-1.01v5.35c1.54-1.45,2.97-3.98,3.32-5.52l1.94.57c.09.02.31.09.31.26s-.24.26-.51.33c-.18.46-.22.59-.31.79h4.16l.75.81c-.79,1.83-1.58,3.23-2.95,4.84.24.2,2.24,1.74,4.49,2.44-.79.62-1.23,1.32-1.45,1.72-2.24-.92-3.89-2.35-4.33-2.75-1.61,1.54-2.73,2.22-3.5,2.66-.59-.75-1.36-1.25-1.83-1.5.59-.29,2.11-1.01,3.92-2.6-.59-.7-.86-1.12-1.39-2.05-.44.53-.73.86-1.06,1.23-.59-.68-1.41-.99-1.56-1.03v5.9h-1.72v-1.23h-5.13v1.25h-1.69v-15.31h2.53v-2.24h-3.12v-1.94h9.48v1.94h-3.08v2.24h2.73v3.63c1.1-1.1,1.87-2.4,2.29-3.78-.2.02-1.32.11-1.39.11-.11.33-.18.55-.42.55-.18,0-.26-.24-.29-.37l-.26-1.98ZM195.99,193.16v-1.56c-1.3,0-2.16,0-2.16-1.63v-3.61h-.92c0,3.81-.75,5.35-1.06,6.01-.18-.2-.4-.44-.99-.68v1.47h5.13ZM190.86,190.78c.31-.51.84-1.39.84-4.42h-.84v4.42ZM195.99,196.55v-1.58h-5.13v1.58h5.13ZM193.81,182.16h-.95v2.24h.95v-2.24ZM195,189.2c0,.48.09.48.99.48v-3.32h-.99v2.84ZM201.58,191.77s-.04.09-.09.13c.53,1.19,1.32,2.13,1.52,2.38.84-.99,1.34-1.94,1.65-2.51h-3.08Z"/><path class="cls-3" d="M226.26,189.26c.13.07.35.22.35.35,0,.31-.31.26-.62.22-1.36,1.12-2.79,2.13-4.27,3.1,4.05-.13,4.49-.15,5.68-.22-.42-.46-.88-.88-1.36-1.28l1.52-1.25c2.55,2.16,3.74,3.65,4.29,4.36-.62.4-1.17.86-1.63,1.45-.35-.46-1.01-1.34-1.41-1.76-3.23.22-3.59.24-5.39.35v5.1h-2.33v-4.97l-3.04.15,1.32.88c.18.11.24.2.24.31,0,.18-.18.24-.35.24-.11,0-.2-.02-.33-.04-.84.88-2.33,2.29-4.05,3.41-.55-.66-1.17-1.14-1.87-1.56.92-.46,2.58-1.63,4.16-3.21-.62.02-3.3.13-3.85.15-.22.33-.29.37-.46.37-.24,0-.26-.33-.29-.53l-.13-1.83c1.76,0,4.8-.02,6.03-.04.11-.07.2-.13.26-.18-1.54-1.3-3.06-2.24-4.12-2.9l1.52-1.17c1.45.97,1.83,1.21,2.07,1.39.29-.26.95-.88,1.54-1.56h-7.48v-1.76h8.85v-1.43h-6.78v-1.54h6.78v-1.34h-7.94v-1.65h7.94v-1.47l2.44.15c.2.02.46.02.46.26,0,.26-.35.37-.59.46v.59h8.1v1.65h-8.1v1.34h6.75v1.54h-6.75v1.43h8.93v1.76h-7.22l1.12.66ZM222.24,188.6c.13.09.2.18.2.29,0,.26-.48.22-.7.2-.37.4-1.43,1.52-2.11,2.09.33.24.46.37.7.55,1.41-.99,2.82-2,4.11-3.12h-2.2ZM226.68,194.61c.59.75,2.25,2.38,4,3.45-1.03.88-1.34,1.23-1.63,1.58-1.06-.68-2.46-1.87-3.98-3.72l1.61-1.32Z"/><path class="cls-3" d="M241.2,188.21c1.36.99,2.97,2.42,3.76,3.23,3.59-3.04,5.24-5.32,5.96-6.34h-14.7v-2.16h15.93c.11,0,.64-.02,1.39-.31l1.43,1.72c-.64.53-.86.79-1.06,1.03-2.4,2.9-4.16,4.88-7.42,7.7,1.87,2.02,2.38,2.84,2.73,3.41-1.01.81-1.39,1.1-1.94,1.74-2.27-4.14-6.18-7.28-7.63-8.38l1.54-1.65Z"/><path class="cls-3" d="M259.85,184.86c1.41.55,4.22,1.96,5.59,2.99-.75.77-1.3,1.72-1.43,1.96-2.18-1.72-4.8-2.77-5.46-3.04l1.3-1.91ZM259.9,196.94c6.32-2.16,12.19-6.34,16.02-12.23.57.9.81,1.19,1.52,1.91-4.71,7.02-12.23,10.96-15.69,12.23-.02.2-.09.53-.35.53-.13,0-.24-.13-.33-.31l-1.17-2.13ZM262.16,179.87c2.93,1.08,4.6,2,5.88,2.82-.44.48-1.08,1.41-1.41,1.94-2.05-1.47-4.05-2.33-5.76-2.97l1.3-1.78Z"/><path class="cls-3" d="M282.49,180.53c1.61.79,3.87,2.02,6.12,4.03-.29.33-.68.81-1.43,1.98-2.9-2.57-5.1-3.59-6.07-4.03l1.39-1.98ZM281.28,196.31c4.22-.9,11.71-3.78,16.7-12.01.7,1.08.75,1.19,1.47,2.02-4.29,6.75-10.3,10.06-16.11,12.12,0,.24-.09.48-.31.48-.18,0-.29-.15-.35-.26l-1.41-2.35Z"/><path class="cls-3" d="M309.29,189.64c0,1.1-.92,1.98-1.98,1.98s-1.98-.88-1.98-1.98.92-1.98,1.98-1.98,1.98.86,1.98,1.98Z"/><path class="cls-3" d="M317.27,183.52v-2.16h11.11c.35,0,1.14-.04,1.5-.15l1.25,1.23c-.37.46-.59.88-.84,1.43-.95,2.27-1.56,3.67-2.97,5.87,1.87,1.34,5.1,4.07,7.24,6.78-.92.92-1.03,1.01-1.78,1.91-1.21-1.72-3.1-4.27-6.69-6.93-3.26,4.09-7,6.27-9.24,7.22-.48-.92-.77-1.34-1.52-2,3.48-1.25,6.07-3.15,8.54-6.07,2.13-2.55,3.06-4.77,3.85-7.13h-10.45Z"/><path class="cls-3" d="M343.26,185.81c2.31,1.14,5.66,3.01,8.27,5.5-.26.33-.68.84-1.39,1.96-2.88-2.75-5.99-4.51-7.83-5.41v11.29h-2.4v-19.14l2.42.15c.26.02.4.09.4.26,0,.24-.26.29-.42.33v6.38l.95-1.32Z"/><path class="cls-3" d="M358.72,180.71c.29.02.46.02.46.22,0,.26-.33.4-.46.46v14.26c4.18-1.41,9.64-4.91,12.59-8.87.53,1.32.57,1.41,1.14,2.35-1.96,2.09-4.88,4.97-10.34,7.64-.68.33-3.67,1.72-4.27,2.02l-1.63-1.63c.07-.29.11-1.01.11-1.3v-15.27l2.4.11Z"/><path class="cls-3" d="M377.89,185.3c.86,1.32,1.63,2.95,2.16,4.38-.62.2-1.25.48-1.87.86-.7-1.91-1.12-2.73-2.13-4.44l1.85-.79ZM391.04,185.15c.22.07.4.13.4.31,0,.24-.31.31-.42.33-1.63,6.43-4.31,10.34-10.89,13-.46-.7-.79-1.1-1.34-1.67,3.23-1.17,8.93-3.65,10.21-12.61l2.05.64ZM382.66,184.18c.9,1.47,1.52,2.84,2,4.47-.29.09-1.14.35-1.87.75-.48-1.47-1.06-2.84-2.02-4.44l1.89-.77Z"/><path class="cls-3" d="M407.19,187.68h7.28v2.09h-7.39c-.51,6.53-5.92,8.82-7.68,9.57-.57-.79-.68-.88-1.72-1.85,2.6-.92,6.45-2.46,7.06-7.72h-8.87v-2.09h8.93v-3.61c-.55.11-3.1.64-6.21.79-.24-.55-.46-1.14-1.1-2.07,5.5,0,10.54-1.36,12.94-2.93l1.85,1.52c.09.07.18.2.18.29,0,.15-.11.26-.31.26-.13,0-.22-.04-.35-.11-1.43.75-2.88,1.21-4.62,1.67v4.18Z"/><path class="cls-3" d="M425.1,189.64c0,1.1-.92,1.98-1.98,1.98s-1.98-.88-1.98-1.98.92-1.98,1.98-1.98,1.98.86,1.98,1.98Z"/><path class="cls-3" d="M440.67,189.99v-1.89h2.99c.02-1.14,0-1.74,0-2.29l2.24.11c.18,0,.4.09.4.29,0,.22-.2.31-.55.48v1.41h4.91c.02,2.13,0,8.52-.92,10.1-.57.95-1.76,1.41-3.98,1.36-.15-.77-.37-1.32-.88-2.27.44.09,1.17.22,1.67.22,1.14,0,1.43-.37,1.63-1.3.18-.84.37-3.59.35-6.23h-2.93c-.48,6.12-3.52,9.09-4.07,9.59-.73-.66-.92-.84-1.61-1.21-.59,1.3-2.64,1.3-3.52,1.25-.18-.77-.44-1.43-.81-2.09.57.09.81.11,1.23.11,1.21,0,1.28-.24,1.28-.95v-1.85h-3.52c-.07.48-.35,2.62-1.74,4.88-.66-.42-1.56-.75-2.05-.88,1.34-1.94,2-3.63,2-7.61v-4.8h7.28v10.43c0,.2,0,.73-.07,1.19,2.9-2.9,3.32-5.81,3.56-8.08h-2.9ZM443.43,183.26c-1.06,1.61-1.83,2.42-2.2,2.79-.57-.48-1.39-.81-1.96-.99,1.01-.97,1.34-1.34,1.69-1.8h-2.93c.22.75.44,1.61.53,2.38-1.12-.02-1.69.07-2.18.18-.11-1.25-.13-1.39-.4-2.55h-1.17c-.73,1.12-1.36,2.02-2.02,2.73-.68-.46-1.23-.7-1.89-.88.77-.77,2.4-2.49,3.63-5.76l2.18.57c.13.04.31.11.31.24,0,.26-.26.35-.73.37-.18.4-.26.57-.42.88h5.21v1.69c.62-.81,1.45-2.18,1.98-3.81l2.24.51c.15.04.33.11.33.29,0,.26-.42.33-.7.37-.13.33-.22.53-.44.95h6.67v1.85h-4.18s.51,1.17.79,2.09c-.66-.02-1.65.09-2.22.2-.26-1.1-.44-1.56-.73-2.29h-1.41ZM438.1,193.25v-1.76h-3.3v.44c0,.44-.07,1.14-.09,1.32h3.39ZM438.1,189.88v-1.69h-3.3v1.69h3.3Z"/><path class="cls-3" d="M465.4,179.69c.2,0,.55.11.55.31,0,.18-.24.29-.62.48-.02,1.1-.07,2.6-.09,3.43h8.67c0,3.28-.04,12.23-1.78,14.28-1.21,1.43-3.7,1.45-4.95,1.36-.13-.64-.42-1.74-1.08-2.73,1.17.24,1.98.29,2.49.29,1.25,0,1.87-.24,2.31-2.64.35-2.02.62-5.02.55-8.34h-6.31c-.26,3.12-.53,6.51-3.78,10.14-.99,1.12-2.4,2.44-4.67,3.45-.66-.86-.88-1.08-1.78-1.83,7.5-3.08,7.77-9.75,7.86-11.77h-7.13v-2.22h7.24v-4.36l2.53.13Z"/><path class="cls-3" d="M483.95,185.81c2.31,1.14,5.66,3.01,8.27,5.5-.26.33-.68.84-1.39,1.96-2.88-2.75-5.99-4.51-7.83-5.41v11.29h-2.4v-19.14l2.42.15c.26.02.4.09.4.26,0,.24-.26.29-.42.33v6.38l.95-1.32Z"/><path class="cls-3" d="M499.41,180.71c.29.02.46.02.46.22,0,.26-.33.4-.46.46v14.26c4.18-1.41,9.64-4.91,12.59-8.87.53,1.32.57,1.41,1.14,2.35-1.96,2.09-4.88,4.97-10.34,7.64-.68.33-3.67,1.72-4.27,2.02l-1.63-1.63c.07-.29.11-1.01.11-1.3v-15.27l2.4.11Z"/><path class="cls-3" d="M535.94,188.45v2.38h-18.81v-2.38h18.81Z"/><path class="cls-3" d="M559.41,194.15v2.24h-18.92v-2.24h18.92ZM556.71,182.86v2.2h-13.51v-2.2h13.51Z"/><path class="cls-3" d="M565.08,180.53c1.61.79,3.87,2.02,6.12,4.03-.29.33-.68.81-1.43,1.98-2.9-2.57-5.1-3.59-6.07-4.03l1.39-1.98ZM563.87,196.31c4.22-.9,11.71-3.78,16.7-12.01.7,1.08.75,1.19,1.47,2.02-4.29,6.75-10.3,10.06-16.11,12.12,0,.24-.09.48-.31.48-.18,0-.29-.15-.35-.26l-1.41-2.35Z"/><path class="cls-3" d="M599.87,183.21c.7,0,1.1-.18,1.5-.33l1.28,1.17c-.35.55-.44.75-.7,1.34-1.85,4.25-3.06,7.02-6.01,10.03-2.73,2.79-5.43,3.94-6.54,4.4-.55-.68-.88-.97-1.8-1.69,6.75-2.75,9.79-7.13,11.68-12.83h-6.87c-1.5,2.22-3.06,4.05-5.46,6.14-.9-.9-.97-.99-1.76-1.58,3.26-2.55,6.05-6.14,7.52-10.1l2.16.97c.11.04.31.13.31.33,0,.22-.33.29-.53.29-.22.46-.35.73-.97,1.87h6.18ZM598.9,179.08c.53.48,1.45,1.45,2.02,2.16-.29.18-.88.53-1.32.92-.95-1.21-1.54-1.76-1.96-2.11l1.25-.97ZM602.22,178.84c.7.64,1.63,1.74,2.02,2.27-.37.22-.46.29-1.32.92-.15-.24-.99-1.45-1.91-2.24l1.21-.95Z"/><path class="cls-3" d="M612.25,188.21c1.36.99,2.97,2.42,3.76,3.23,3.59-3.04,5.24-5.32,5.96-6.34h-14.7v-2.16h15.93c.11,0,.64-.02,1.39-.31l1.43,1.72c-.64.53-.86.79-1.06,1.03-2.4,2.9-4.16,4.88-7.42,7.7,1.87,2.02,2.38,2.84,2.73,3.41-1.01.81-1.39,1.1-1.94,1.74-2.27-4.14-6.18-7.28-7.63-8.38l1.54-1.65Z"/><path class="cls-3" d="M630.91,184.86c1.41.55,4.22,1.96,5.59,2.99-.75.77-1.3,1.72-1.43,1.96-2.18-1.72-4.8-2.77-5.46-3.04l1.3-1.91ZM630.95,196.94c6.32-2.16,12.19-6.34,16.02-12.23.57.9.81,1.19,1.52,1.91-4.71,7.02-12.23,10.96-15.69,12.23-.02.2-.09.53-.35.53-.13,0-.24-.13-.33-.31l-1.17-2.13ZM633.22,179.87c2.93,1.08,4.6,2,5.88,2.82-.44.48-1.08,1.41-1.41,1.94-2.05-1.47-4.05-2.33-5.76-2.97l1.3-1.78Z"/><path class="cls-3" d="M653.55,180.53c1.61.79,3.87,2.02,6.12,4.03-.29.33-.68.81-1.43,1.98-2.9-2.57-5.1-3.59-6.07-4.03l1.39-1.98ZM652.34,196.31c4.22-.9,11.71-3.78,16.7-12.01.7,1.08.75,1.19,1.47,2.02-4.29,6.75-10.3,10.06-16.11,12.12,0,.24-.09.48-.31.48-.18,0-.29-.15-.35-.26l-1.41-2.35Z"/><path class="cls-3" d="M685.58,191.73h2.97v2.33h-2.97v3.94h-2.77v-3.94h-8.96v-2.44l8.96-10.96h2.77v11.07ZM682.81,191.73v-7.92l-6.47,7.92h6.47Z"/><path class="cls-3" d="M704.83,182.22c-.79.09-2.44.24-3.65.22-.18-.81-.37-1.3-.68-1.87,1.96.07,5.88-.11,9.48-1.17l1.19,1.56c.04.07.13.22.13.33,0,.18-.13.24-.29.24-.18,0-.29-.04-.57-.26-.59.15-1.25.33-3.43.68v1.58h5.19v1.74h-5.19v1.23h4.31v6.67h-4.31v1.19h4.71v1.63h-4.71v1.28h5.35v1.72h-12.7v-1.72h5.17v-1.28h-4.44v-1.63h4.44v-1.19h-4.05v-6.67h4.05v-1.23h-4.77v1.74h-2.62v.2c.33.7,1.56,3.1,2.88,4.71-.59.57-.84.88-1.23,1.63-.53-.92-.84-1.54-1.65-3.43v9.53h-1.91v-8.98c-.75,2.38-1.47,3.89-2.4,5.26-.53-.84-1.34-1.56-1.56-1.76,2.22-2.6,3.28-5.17,3.85-7.15h-3.3v-1.85h3.41v-2.68c-1.56.31-2.18.37-2.62.44-.29-.79-.59-1.28-.99-1.78,3.65-.13,6.42-1.34,7.17-1.65l1.03,1.45c.13.18.2.26.2.4,0,.18-.18.24-.33.24s-.31-.09-.51-.22c-.53.2-1.08.4-2.05.64v3.17h2.51v-1.63h4.88v-1.32ZM702.67,189.2h2.16v-1.28h-2.16v1.28ZM704.83,190.45h-2.16v1.3h2.16v-1.3ZM707.01,189.2h2.27v-1.28h-2.27v1.28ZM709.27,190.45h-2.27v1.3h2.27v-1.3Z"/><path class="cls-3" d="M724.92,181.15v7.11h7.11v2.16h-7.11v7.11h-2.16v-7.11h-7.11v-2.16h7.11v-7.11h2.16Z"/><path class="cls-3" d="M748.41,185.35l-1.76,8.36c-.2.92-.22,1.03-.22,1.3,0,.84.53.92,1.25.99l-.42,2h-1.01c-1.63,0-2.05-.9-2.27-1.39-.68.95-1.76,1.87-3.83,1.87-3.57,0-4.8-2.33-4.8-5.13,0-3.43,1.76-8.47,6.49-8.47,2.75,0,3.46,1.56,3.72,2.09l.37-1.63h2.46ZM738,193.27c0,2.95,1.56,3.19,2.58,3.19,2.11,0,3.26-2,3.54-2.86.42-1.19.62-3.12.62-3.67,0-.73-.18-3.01-2.53-3.01-3.45,0-4.2,4.69-4.2,6.36Z"/></g></svg>