<?xml version="1.0" encoding="UTF-8"?><svg id="_レイヤー_2" xmlns="http://www.w3.org/2000/svg" width="811" height="258" xmlns:xlink="http://www.w3.org/1999/xlink" viewBox="0 0 811 258"><defs><style>.cls-1{fill:#003664;}.cls-1,.cls-2,.cls-3,.cls-4{stroke-width:0px;}.cls-2{fill:url(#_新規グラデーションスウォッチ_4-2);}.cls-3{fill:#333a46;}.cls-4,.cls-5{fill:#fff;}.cls-5{filter:url(#drop-shadow-1);stroke:url(#_新規グラデーションスウォッチ_4);stroke-miterlimit:10;stroke-width:8px;}</style><linearGradient id="_新規グラデーションスウォッチ_4" x1="24.02" y1="131.04" x2="798.71" y2="131.04" gradientUnits="userSpaceOnUse"><stop offset=".01" stop-color="#c3ad82"/><stop offset=".51" stop-color="#e6dcca"/><stop offset="1" stop-color="#bca475"/></linearGradient><filter id="drop-shadow-1" filterUnits="userSpaceOnUse"><feOffset dx="-6" dy="6"/><feGaussianBlur result="blur" stdDeviation="6"/><feFlood flood-color="#000" flood-opacity=".3"/><feComposite in2="blur" operator="in"/><feComposite in="SourceGraphic"/></filter><linearGradient id="_新規グラデーションスウォッチ_4-2" x1="110.42" y1="32.5" x2="712" y2="32.5" xlink:href="#_新規グラデーションスウォッチ_4"/></defs><g id="DESIGN"><rect class="cls-5" x="28.02" y="32.5" width="766.69" height="197.07"/><rect class="cls-2" x="110.42" width="601.58" height="65"/><path class="cls-1" d="M162.57,36.96c0-.87,0-1.35.03-2.64-3.4,5.11-7.95,9.1-14.45,12.64-1.18-2.26-2.01-3.33-4.1-5.24,7.02-3.33,11.36-6.88,14.55-11.84h-7.15c-2.43,0-3.82.07-5.24.21v-5.97c1.81.21,3.13.28,5.35.28h10.87l-.03-1.74c0-1.46-.07-2.57-.21-3.92h6.49c-.1,1.18-.14,1.77-.14,3.37v2.33h2.19c2.47,0,3.58-.07,4.97-.28v5.94c-1.25-.14-2.4-.17-4.86-.17h-2.22l.17,14.97c0,1.74.1,3.58.24,4.79h-6.67c.21-1.28.28-2.54.28-4.24v-.49l-.07-6.6v-1.39Z"/><path class="cls-1" d="M190.81,19.52c-.14,1.6-.17,2.22-.17,4.65v6.91c0,2.47.03,3.58.17,4.97h-6.74c.17-1.25.21-2.47.21-5.07v-6.88c0-2.12-.03-3.06-.21-4.58h6.74ZM206.96,19.52c-.14,1.94-.17,2.47-.17,4.69v4.06c0,4.76-.28,8.09-.8,10.11-1.04,3.79-3.4,6.63-7.22,8.82-1.98,1.15-3.82,1.88-7.22,2.85-.8-2.33-1.67-3.79-3.54-5.94,3.33-.63,5.11-1.18,6.88-2.12,3.06-1.63,4.62-3.68,5.17-6.74.21-1.28.38-4.34.38-7.36v-3.61c0-2.54-.03-3.26-.21-4.76h6.74Z"/><path class="cls-1" d="M218.61,27.69c3.72,1.46,6.98,3.09,9.69,4.93l-2.95,5.45c-2.5-1.94-6.39-4.06-9.93-5.42l3.2-4.97ZM216.42,42.86c3.06,0,7.47-.94,10.7-2.22,6.49-2.57,11.08-7.68,13.54-15.18,1.67,1.88,3.26,3.23,5.11,4.34-4.41,10.9-12.29,16.88-25.14,19.07-1.22.24-1.77.38-2.47.59l-1.74-6.6ZM221.21,19.18c3.82,1.39,7.57,3.13,9.97,4.58l-3.09,5.31c-3.23-2.15-6.88-3.96-9.97-4.97l3.09-4.93ZM239.17,18.86c1.22,1.6,2.26,3.54,3.06,5.52l-3.44,1.25c-.94-2.29-1.81-3.92-3.06-5.63l3.44-1.15ZM243.99,17.27c1.15,1.46,2.12,3.09,3.09,5.35l-3.33,1.22c-.97-2.29-1.88-3.92-3.02-5.45l3.26-1.11Z"/><path class="cls-1" d="M277.28,26.61c2.74,0,3.61-.03,5.21-.28v6.11c-1.7-.14-2.54-.17-5.1-.17h-6.15c-.35,4.55-.94,6.84-2.43,9.48-1.35,2.36-3.23,4.41-5.56,6.08-1.01.73-1.77,1.22-3.54,2.22-1.28-2.26-2.29-3.4-4.58-5.31,4.06-1.7,6.6-3.72,8.2-6.43.8-1.39,1.28-2.78,1.46-4.38q.07-.52.17-1.67h-7.43c-2.5,0-3.3.03-5.04.17v-6.11c1.56.24,2.26.28,5.14.28h7.64q0-.49.04-1.39v-2.64c0-1.39-.07-2.67-.21-3.68h6.67c-.14,1.01-.14,1.11-.21,3.79q-.03,1.32-.03,2.71c0,.45-.03.87-.03,1.22h5.8Z"/><path class="cls-1" d="M298.23,19.91q-.14,1.18-.38,8.06c-.21,7.26-.9,11.11-2.57,14.9-1.15,2.57-2.47,4.45-4.83,6.95-1.77-2.33-2.74-3.3-4.97-4.86,1.98-1.77,3.06-3.23,4.13-5.52,1.63-3.4,2.19-7.71,2.19-16.7,0-1.53-.03-2.29-.14-3.2l6.56.38ZM308.06,19.35c-.21,1.42-.24,1.98-.28,4.03l-.17,18.2c1.88-1.18,2.99-2.19,4.17-3.82,1.25-1.77,2.08-3.58,2.71-5.94,1.74,2.15,2.64,3.06,4.62,4.58-1.56,3.89-3.37,6.56-6.01,8.82-2.08,1.77-3.79,2.67-7.29,3.96-.97.35-1.25.45-1.7.73l-2.99-3.13c.31-.9.38-1.49.38-2.92l.17-20.56v-1.25c0-1.11-.03-1.88-.14-2.71h6.53Z"/><path class="cls-1" d="M327.82,49.36c.14-1.56.21-2.57.21-5.31v-20.21c0-2.81-.03-3.16-.24-5.04h6.7c-.14,1.01-.17,2.74-.17,5.07v4.76c5.9,1.94,10.38,3.99,15.8,7.22l-3.3,5.9c-3.37-2.33-7.47-4.58-10.94-6.04q-1.22-.49-1.56-.69v9.03c0,2.33.07,4.06.21,5.31h-6.7Z"/><path class="cls-1" d="M366.36,19.52c-.17,1.32-.21,2.22-.24,4.27l-.21,18.41c7.02-1.56,12.22-5.52,15.38-11.81,1.6,2.29,2.67,3.47,4.69,5-5.04,7.78-11.46,11.81-21.71,13.58-1.29.24-1.49.28-2.08.62l-3.09-3.61c.35-.73.38-1.11.42-2.85l.14-19.31v-.56c0-1.63-.07-2.74-.21-3.79l6.91.03Z"/><path class="cls-1" d="M392.84,30.71c1.63.24,3.51.31,7.12.31h16.6c3.47,0,4.79-.07,7.12-.31v6.7c-1.67-.17-3.2-.21-7.15-.21h-16.53c-3.89,0-5.04.03-7.15.21v-6.7Z"/><path class="cls-1" d="M429.39,39.53c2.08.24,2.57.28,5.8.28h17.96c3.47,0,4.55-.03,6.15-.28v6.49c-1.53-.14-2.4-.17-6.04-.17h-18.16c-3.09,0-4.31.03-5.7.17v-6.49ZM432.9,22.27c1.63.21,2.6.24,5.42.24h11.77c3.06,0,4.27-.07,5.76-.24v6.36c-1.98-.14-2.88-.17-5.7-.17h-11.91c-2.57,0-4.13.07-5.35.17v-6.36Z"/><path class="cls-1" d="M470.4,20.43c4.38,2.57,6.63,4.17,9.55,6.81l-4.1,5.42c-3.02-3.16-5.97-5.45-9.45-7.33l3.99-4.9ZM466.75,41.99c3.54-.28,7.19-1.15,10.45-2.5,4.38-1.81,7.5-4.41,10.18-8.58,1.46-2.22,2.4-4.13,3.4-6.81,1.7,2.05,2.5,2.74,5.11,4.65-3.16,6.84-6.46,10.94-11.32,14.07-3.75,2.43-7.05,3.72-13.51,5.21-1.35.31-1.56.35-2.5.63l-1.81-6.67Z"/><path class="cls-1" d="M530.45,26.51c-.24.42-.52,1.22-.9,2.36-3.3,10.42-9.17,16.88-19.59,21.57-1.01-1.98-2.47-3.85-4.17-5.31,9.17-3.3,14.83-8.82,17.4-16.91l-9.24.1c-2.15,3.44-4.93,6.46-7.88,8.72-1.67-1.91-2.78-2.88-4.93-4.17,3.99-2.74,7.05-6.25,9.24-10.59.9-1.81,1.39-3.16,1.49-4.17l6.56,1.18c-.17.35-.21.38-.42.83-.04.1-.14.31-.24.56-.14.31-.28.63-.31.73-.24.52-.38.87-.42.9-.03.1-.14.35-.28.59l7.88-.07h.76c-.56-1.18-1.15-2.15-1.98-3.33l3.44-1.11c1.22,1.6,2.12,3.3,2.88,5.31l-1.08.38,1.77,2.43ZM531.74,16.92c1.15,1.53,1.95,2.99,2.88,5.17l-3.3,1.22c-.97-2.29-1.77-3.82-2.85-5.31l3.26-1.08Z"/><path class="cls-1" d="M561.46,30.43c-1.74,0-2.5.03-3.16.14v-2.01h-3.37c.14-.8.17-1.53.17-2.74v-2.85c0-.9-.03-1.63-.14-2.81,1.11.1,2.26.14,4.17.14h8.44v-.24c0-.94-.03-1.53-.14-2.26h5.83c-.1.62-.17,1.28-.17,2.22v.28h8.96c1.91,0,3.02-.03,4.17-.14-.1,1.11-.14,1.77-.14,2.71v2.99c0,1.01.04,1.81.14,2.71h-3.33v2.01c-.83-.1-1.46-.14-3.23-.14h-6.7q0,.63-.03,1.22h6.95c1.95,0,2.43-.03,3.26-.1v4.24c-.87-.1-1.42-.14-3.26-.14h-7.15c-.07.66-.07.76-.14,1.28h9.83c2.01,0,2.95-.03,3.99-.17v4.72c-1.42-.14-2.6-.21-4.27-.21h-7.33c.83.87,1.74,1.49,3.16,2.15,2.08.94,4.69,1.56,9.17,2.12-1.35,2.19-1.77,3.06-2.36,5.21-3.79-.73-5.63-1.28-8.09-2.43-2.64-1.22-4.72-2.81-6.46-5-1.35,2.01-2.81,3.37-4.93,4.58-2.5,1.46-4.86,2.22-8.65,2.85-.62-2.12-1.25-3.4-2.43-5.04,2.95-.24,4.48-.56,6.29-1.18,2.19-.8,3.61-1.77,4.9-3.26h-6.36c-1.46,0-2.74.07-4.2.21v-4.72c1.01.14,1.91.17,3.89.17h8.51c.1-.56.14-.8.21-1.28h-6.25c-1.84,0-2.36.03-3.23.14v-4.24c.83.07,1.35.1,3.23.1h6.49q.04-.66.04-1.22h-6.25ZM560.21,24.87v1.49h7.54c0-.76,0-.94-.03-1.49h-7.5ZM573.02,24.87c-.04.97-.04,1.01-.04,1.49h7.99v-1.49h-7.95Z"/><path class="cls-1" d="M621.27,28.9c.21-.03.62-.14,1.18-.31.24-.03.56-.14.94-.24.62-.17.8-.21,1.35-.42,0,.94-.04,1.7-.04,2.15-.14,10.07-.45,11.22-3.4,11.6,1.81.66,2.99.94,4.58,1.15-.28,3.68-.73,5.17-1.95,6.22-1.08.94-2.64,1.18-7.64,1.18s-6.29-.14-7.43-.76c-1.04-.59-1.39-1.35-1.39-2.95v-9.34c-.35.07-.45.1-.73.21l-.59-3.4c-.07,7.57-.31,11.46-.87,13.51-.38,1.42-1.04,2.15-2.26,2.5-.73.17-1.46.24-2.95.24h-1.04c-.1-1.7-.31-2.71-.76-4.27-.69,2.15-1.18,3.16-2.36,4.93-1.32-2.08-2.05-2.99-3.65-4.62,2.6-4.65,3.13-7.71,3.23-19.27-1.21,0-1.84.03-2.5.17v-5.17c1.11.17,1.56.21,3.33.21h1.25v-1.28c0-1.22-.07-2.12-.17-2.95h5.63c-.14.9-.17,1.46-.17,2.92v1.32h.62c1.74,0,2.33-.03,3.19-.17v2.5c1.35-2.01,2.74-5.14,3.06-6.91l5.45.94c-.17.28-.42.83-.76,1.63-.07.21-.17.45-.38.9h7.85c1.53,0,2.6-.07,3.65-.21v5.14c-.97-.1-2.12-.14-3.37-.14h-10.42c-.52.97-.97,1.67-1.53,2.5h2.01c-.07.52-.1,1.01-.1,1.39v1.28l1.53-.38v-1.11c0-1.22-.04-1.74-.14-2.85h4.83c-.14.83-.17,1.35-.17,2.6v.31l3.09-.73ZM600.16,34.49c-.35,5-.8,7.85-1.63,10.7.97.14,1.04.14,1.22.14.94,0,1.11-.17,1.32-1.29.35-1.91.59-5.73.63-9.55h-1.53ZM603.42,29.74c1.18,0,1.94-.03,2.81-.1q-.07,1.18-.07,2.81c.8-.17.83-.17,1.32-.31v-1.28c0-.52-.03-.94-.07-1.53-.9-.97-1.53-1.53-2.57-2.33h-4.45l-.04,2.74h3.06ZM618.18,40.4c0,1.74,0,2.08.1,2.88h-4.72c.1-1.11.1-1.28.1-2.85v-4.79l-1.53.38v8.06c0,.62.1.9.42,1.04.45.21,1.28.28,2.92.28,4.06,0,4.65-.07,5.07-.49.38-.35.49-1.04.52-3.2-.56.03-.76.03-1.94.07-.17-1.74-.42-2.88-.94-4.17v2.78ZM618.18,37.34c.35.07.59.1.76.1.59,0,.8-.1.9-.49.07-.24.14-1.56.14-2.4v-.49l-1.81.45v2.81Z"/><path class="cls-1" d="M644.04,21.68c0-1.94-.03-2.71-.21-3.92h5.9c-.17,1.11-.21,1.91-.21,3.68v1.63h8.89c1.81,0,2.6-.03,3.65-.14-.1,1.08-.14,1.74-.14,3.33v11.5c0,1.94.03,2.74.17,3.79h-5.56v-1.81h-7.02v6.11c0,2.19.07,3.4.24,4.65h-5.97c.17-1.42.24-2.57.24-4.65v-6.11h-6.7v1.81h-5.56c.14-1.04.17-2.08.17-3.79v-11.53c0-1.46-.03-2.26-.14-3.3,1.25.1,1.98.14,3.61.14h8.61v-1.39ZM637.34,28.14v6.53h6.7v-6.53h-6.7ZM656.55,34.67v-6.53h-7.02v6.53h7.02Z"/><path class="cls-1" d="M670.31,39.46c.07-.8.07-1.01.07-1.81q0-.38-.14-2.47l-.69-11.01c-.1-1.74-.28-3.61-.42-4.69h8.09c-.17,1.35-.28,2.81-.42,4.69l-.69,11.01c-.07,1.39-.1,2.19-.1,2.74,0,.38,0,.69.07,1.53h-5.77ZM669.72,48.38v-6.56h6.98v6.56h-6.98Z"/><path class="cls-3" d="M78.33,88.39c.3.02.5.07.5.27,0,.12-.1.35-.5.45,0,.62-.02,1.49-.12,3.82h8.21c-.37,14.33-.97,16.94-8.53,16.56-.12-1.07-.27-1.69-.69-2.8.57.15,1.22.3,2.33.3,1.26,0,2.6-.07,3.22-2.18.35-1.21.77-3.15.92-9.45h-5.63c-.4,3.22-1.59,10.12-9.62,14.36-.57-.87-.99-1.34-1.86-1.96,7.76-3.72,8.55-10.17,8.8-12.4h-8.13v-2.43h8.33c.1-2.26-.05-3.79-.12-4.84l2.9.3Z"/><path class="cls-3" d="M108.83,92.04c.77,0,1.12,0,1.79-.27l1.61,1.17c-.22.82-1.12,4.36-1.34,5.06-.82,2.5-3.02,9.37-10.49,12.4-.74-.92-1.17-1.31-1.96-1.96,2.9-.97,5.83-3.25,7.56-5.75,1.39-2.01,2.41-4.59,3.05-8.31h-13.84v6.15h-2.63v-8.48h8.08v-3.99l2.73.15c.45.02.55.12.55.27,0,.25-.37.4-.55.47v3.1h5.43Z"/><path class="cls-3" d="M118.8,88.74c1.81.89,4.36,2.28,6.89,4.54-.32.37-.77.92-1.61,2.23-3.27-2.9-5.75-4.04-6.84-4.54l1.56-2.23ZM117.44,106.52c4.76-1.02,13.19-4.27,18.82-13.54.79,1.22.84,1.34,1.66,2.28-4.84,7.61-11.6,11.33-18.15,13.66,0,.27-.1.55-.35.55-.2,0-.32-.17-.4-.3l-1.59-2.65Z"/><path class="cls-3" d="M148.26,88.34l2.63.12c.25,0,.5.02.5.27s-.32.37-.5.42v5.78l8.73-1.14c1.09-.15,1.51-.35,1.79-.47l1.74,1.59c-.27.25-.59.6-1.09,1.26-2.75,3.69-3.17,4.26-5.33,6.67-.69-.62-1.17-.94-2.23-1.44,1.76-1.44,3.5-3.55,4.49-5.08l-8.08,1.09v6.27c0,2.5.3,2.98,3.62,2.98,1.93,0,5.73-.1,7.56-.42-.17.87-.27,1.64-.3,2.75-1.17.02-5.41.07-7.98.07-4.74,0-5.53-1.51-5.53-4.96v-6.32l-6.1.82-.22-2.48,6.32-.82v-6.97Z"/><path class="cls-3" d="M171.67,88.79c.3.02.52.02.52.25,0,.27-.35.4-.52.45v11.93h-2.68v-12.77l2.68.15ZM183.38,88.34c.4.02.5.1.5.22,0,.32-.35.42-.5.5v7.93c0,2.75-.5,5.43-1.93,7.59-1.07,1.59-3.57,4.29-7.86,5.6-.57-1.19-1.21-1.74-1.71-2.11,8.8-2.58,8.8-8.43,8.8-11.03v-8.88l2.7.17Z"/><path class="cls-3" d="M191.24,88.74c1.81.89,4.36,2.28,6.89,4.54-.32.37-.77.92-1.61,2.23-3.27-2.9-5.75-4.04-6.84-4.54l1.56-2.23ZM189.88,106.52c4.76-1.02,13.19-4.27,18.82-13.54.79,1.22.84,1.34,1.66,2.28-4.84,7.61-11.6,11.33-18.15,13.66,0,.27-.1.55-.35.55-.2,0-.32-.17-.4-.3l-1.59-2.65Z"/><path class="cls-3" d="M230.37,91.76c.79,0,1.24-.2,1.69-.37l1.44,1.31c-.4.62-.5.84-.79,1.51-2.08,4.79-3.45,7.91-6.77,11.31-3.07,3.15-6.12,4.44-7.36,4.96-.62-.77-.99-1.09-2.03-1.91,7.61-3.1,11.03-8.03,13.17-14.46h-7.74c-1.69,2.5-3.45,4.56-6.15,6.92-1.02-1.02-1.09-1.12-1.98-1.79,3.67-2.88,6.82-6.92,8.48-11.38l2.43,1.09c.12.05.35.15.35.37,0,.25-.37.32-.6.32-.25.52-.4.82-1.09,2.11h6.97ZM229.28,87.1c.6.55,1.64,1.64,2.28,2.43-.32.2-.99.59-1.49,1.04-1.07-1.36-1.74-1.98-2.21-2.38l1.41-1.09ZM233.02,86.83c.79.72,1.83,1.96,2.28,2.55-.42.25-.52.32-1.49,1.04-.17-.27-1.12-1.64-2.16-2.53l1.36-1.07Z"/><path class="cls-3" d="M249.44,87.94c.15.02.52.1.52.42,0,.07-.02.35-.64.37-.2.45-.4.87-.92,1.93.74-.1,3.77-.45,6.17-1.31l.07,2.53c-3.1.62-5.9.97-7.49,1.12-.82,1.39-1.17,1.96-1.71,2.78,1.26-.67,2.36-.67,2.63-.67.45,0,2.88,0,3.89,2.55,1.86-.82,4.81-2.08,5.55-2.45l.99,2.65c-2.7.77-4.14,1.34-6.1,2.11.1.92.1,1.88.1,2.65,0,1.17-.02,1.81-.07,2.48-.42-.02-1.66-.05-2.58,0,.2-2.13.12-3.62.1-3.99-4.04,2.11-4.56,3.25-4.56,4.24,0,.77.17,1.91,4.66,1.91,2.58,0,5.16-.37,7.66-1.04-.2.84-.3,1.51-.3,2.7-3.05.64-6.12.64-6.84.64-5.65,0-7.66-1.88-7.66-4.07,0-3.27,4.69-5.8,6.74-6.74-.2-.69-.5-1.76-2.33-1.76s-3.92,1.17-6.74,5.75l-2.31-1.41c1.17-1.22,3.97-4.69,5.98-8.13-2.01.1-2.63.12-4.59.1v-2.48c.79.07,1.76.17,3.47.17.99,0,1.81-.02,2.31-.05.84-1.71,1.14-2.38,1.49-3.55l2.5.55Z"/><path class="cls-3" d="M271.81,93.92c.12.07.3.22.3.42,0,.4-.4.37-.82.32-.84,1.36-2.11,2.8-2.5,3.27.25.07.64.2.64.42s-.3.35-.47.4v11.58h-2.7v-9.79c-.82.79-1.69,1.56-2.58,2.23-.55-.72-1.39-1.34-1.98-1.69,4.17-2.9,7.14-6.92,7.91-8.48l2.21,1.31ZM270.79,88.76c.12.07.25.25.25.37,0,.27-.35.32-.72.25-2.13,2.41-3.79,3.92-6.35,5.63-.62-.82-1.51-1.44-2.01-1.71,2.31-1.34,5.26-3.92,6.74-5.88l2.08,1.34ZM281.53,107.11c0,2.75-1.79,3.22-5.33,3.15-.3-1.59-.5-2.03-.92-2.7,1.07.15,1.76.2,2.08.2,1.24,0,1.44-.3,1.44-1.17v-9.3h-7.09v-2.41h13.49v2.41h-3.67v9.82ZM284.28,90.87h-11.55v-2.41h11.55v2.41Z"/><path class="cls-3" d="M293.93,90.2c.35.1.52.15.52.4,0,.3-.32.35-.55.35-1.19,3.42-1.19,6.84-1.19,7.44,0,4.04,1.54,7.12,2.7,7.12,1.07,0,2.36-3.17,2.93-4.61.69.82,1.12,1.21,1.81,1.69-.45,1.09-2.5,6.22-4.88,6.22-2.03,0-5.11-3.77-5.11-10.81,0-3,.55-5.98,1.07-8.6l2.7.82ZM306.63,90.7c3.5,4.69,4.61,9.32,4.93,12.7-.4.12-2.06.87-2.73,1.17-.22-3.92-1.19-8.38-4.39-12.5l2.18-1.36Z"/><path class="cls-3" d="M318.03,103.22c2.46,1.51,4.36,3.32,5.41,4.34l-2.08,2.11c-1.59-2.03-3.3-3.42-5.03-4.59l1.71-1.86Z"/><path class="cls-3" d="M334.37,108.8v1.46h-2.65v-21.75h17.18v21.72h-2.58v-1.44h-11.95ZM346.33,94.39v-3.52h-11.95v3.52h11.95ZM346.33,100.32v-3.57h-11.95v3.57h11.95ZM346.33,106.47v-3.77h-11.95v3.77h11.95Z"/><path class="cls-3" d="M376.83,92.08c.05,3.6-.05,12.47-1.29,15.57-.32.79-1.07,2.68-5.06,2.68-.3,0-.52-.02-.72-.05-.15-.97-.5-1.91-.94-2.73.45.07,1.09.17,2.01.17,1.19,0,2.03-.1,2.48-1.19,1.02-2.53,1.02-7.49,1.02-12.12h-5.7c-1.02,2.45-1.59,3.35-1.91,3.84-.92-.55-1.34-.77-2.33-.92v11.58h-2.53v-.92h-3.97v1.59h-2.58v-17.63h2.83c.22-.57.94-2.75,1.21-4.31l2.43.47c.25.05.62.12.62.37,0,.22-.17.3-.64.47-.57,1.64-.69,1.93-1.14,3h3.77v5.13c.64-.84,2.83-4.59,3.6-9.4l2.38.57c.17.05.52.17.52.37,0,.22-.22.32-.62.42-.1.5-.27,1.29-.82,3.02h7.39ZM357.88,98.75h3.97v-4.46h-3.97v4.46ZM361.85,100.96h-3.97v4.71h3.97v-4.71ZM370.06,97.14c.69,1.29,1.66,4.26,1.91,5.43-1.12.35-1.81.69-2.33.97-.3-1.36-1.21-4.44-1.81-5.46l2.23-.94Z"/><path class="cls-3" d="M386.85,97.22v7.76c0,2.75,2.83,2.75,6.3,2.75,6.17-.02,8.11-.1,11.13-.37-.55.92-.74,1.46-.84,2.5h-11.13c-4.54,0-5.55-.82-6.82-2.36-.62.62-2.28,1.74-2.83,2.03.07.32.05.72-.3.72-.2,0-.32-.2-.4-.35l-1.26-2.33c1.12-.42,2.08-.89,3.52-1.98v-6.07h-2.9v-2.31h5.53ZM383.1,87.89c.94.67,3.3,2.7,4.19,3.72-.57.5-1.14,1.09-1.79,1.76-.77-.84-2.33-2.5-4.09-3.82l1.69-1.66ZM396.84,99.8h4.76v1.81h-4.76v1.51h6.52v1.81h-6.52v2.16h-2.5v-2.16h-6.03v-1.81h6.03v-1.51h-4.59v-1.81h4.59v-1.44h-5.38v-1.83h2.73c-.17-.32-.52-1.02-.92-1.61l1.44-.45h-4.21v-1.86h6.35v-1.51h-5.26v-1.83h5.26v-1.76l2.68.15c.2,0,.55.05.55.32,0,.22-.17.3-.72.5v.79h5.46v1.83h-5.46v1.51h6.79v1.86h-3.12c.1.05.2.15.2.27,0,.22-.27.27-.55.3-.15.27-.59,1.04-.84,1.49h3.05v1.83h-5.53v1.44ZM396.99,96.52c.27-.57.69-1.39.97-2.06h-4.61c.15.27.6,1.14.82,1.69l-.99.37h3.82Z"/><path class="cls-3" d="M425.38,87.65c.82.67,1.96,1.79,2.85,3-.54.37-1.24.92-1.59,1.26h3.69v2.4h-8.23c.3,3,.79,5.11,1.44,6.89.92-1.59,1.56-2.85,2.55-5.7l2.41,1.04c.17.07.47.2.47.45,0,.27-.5.35-.74.35-1.51,3.25-2.06,4.44-3.47,6.52,1.59,2.93,2.43,3.22,2.65,3.22.7,0,1.14-2.11,1.24-2.88.82.77,1.34,1.14,2.21,1.46-.55,2.33-1.36,3.4-1.56,3.67-.57.74-1.29.74-1.51.74-1.22,0-2.58-.94-4.69-4.09-1.31,1.59-2.85,3-4.93,4.31-.52-.69-1.07-1.29-2.08-1.79,1.79-.92,3.77-2.36,5.75-4.86-.55-1.24-1.84-4.22-2.36-9.35h-6.94c-.03.47-.05,2.6-.05,3.03h5.65c.05,1.71-.07,6.4-.74,8.08-.5,1.24-1.76,1.86-4.31,1.74-.12-.64-.62-1.96-.97-2.53.92.17,1.51.22,1.86.22.65,0,1.02-.1,1.27-.89.22-.64.4-2.9.42-4.29h-3.22c-.07,3.12-.79,7.29-2.8,10.27-.99-.65-1.93-.92-2.48-1.04,2.63-3.6,2.7-7.44,2.7-12.7v-4.29h9.45c-.05-1.39-.15-3.55-.15-4.19l2.7.17c.25.02.57.05.57.32s-.32.37-.65.47c.03,1.02.05,1.86.12,3.22h4.12c-.45-.6-1.66-2.06-2.53-2.88l1.88-1.39Z"/><path class="cls-3" d="M439.74,89.26c.35.12.54.2.54.42,0,.25-.3.27-.6.3-1.14,3.5-1.66,7.09-1.66,10.71,0,1.64.1,2.38.27,3.37.27-.82.99-2.65,1.44-3.45.2.3.52.87,1.39,1.44-.32.69-1.84,3.94-1.71,6.62l-2.33.67c-.67-1.81-1.54-4.46-1.54-9.2,0-4.34.6-7.19,1.56-11.88l2.63.99ZM446.21,100.74c-.3.6-.77,1.49-.77,2.53,0,1.54,1.79,1.83,4.41,1.83.82,0,3.47,0,6.12-.67-.1.47-.25,1.36-.22,2.73-1.64.25-4.14.37-5.83.37-3.02,0-6.92-.3-6.92-3.52,0-1.29.42-2.53.97-3.72l2.23.45ZM443.96,91.07c.67.05,1.41.12,2.68.12,2.93,0,5.31-.17,7.71-.79.08.5.25,2.18.3,2.53-2.63.52-5.33.72-8.04.72-1.21,0-2.01-.07-2.65-.1v-2.48Z"/><path class="cls-3" d="M481.7,91.42v15.52c0,3.37-2.01,3.42-4.51,3.47-.1-.92-.54-2.06-1.09-2.78.37.05,1.12.15,1.86.15,1.14,0,1.14-.5,1.14-1.56v-12.42h-15.47v16.49h-2.58v-18.87h7.09c.37-.84.99-2.38,1.44-4.02l2.73.37c.22.02.5.07.5.35,0,.25-.35.32-.59.37-.69,1.86-.77,2.08-1.19,2.93h10.69ZM476.12,96.2v9.15h-7.09v1.56h-2.48v-10.71h9.57ZM469.03,98.53v4.56h4.61v-4.56h-4.61Z"/><path class="cls-3" d="M491.65,89.13c.27.07.4.1.4.3,0,.3-.4.35-.57.37-.87,2.8-1.21,6-1.21,8.95,0,1.17.05,3.52.62,5.53.12-.3.17-.5.79-2.16.32-.87.72-1.74.99-2.31.97.77,1.39.97,1.88,1.17-1.31,2.28-2.58,5.98-2.7,7.74l-2.08.47c-1.98-4.09-2.03-9.72-2.03-10.93,0-.92,0-5.03,1.21-9.84l2.7.72ZM503.85,88.34c.52.05.67.07.67.27,0,.25-.27.32-.45.37.02,3.45.02,3.84.05,4.91,2.33-.47,3.3-.84,4.09-1.17-.03,1.09-.03,1.54.05,2.55-.59.22-1.59.6-4.12,1.04,0,4.39,0,6.45-1.07,8.83-1.39,3.02-3.32,4.49-4.12,5.11-.67-.94-1.71-1.59-2.11-1.81,4.51-3.15,4.93-6.1,4.81-11.75-.72.07-3.37.35-6.3.27l-.22-2.63c.82.1,1.26.15,2.43.15.67,0,2.26-.02,4.04-.22-.03-.92-.17-4.12-.47-6.25l2.7.32Z"/><path class="cls-3" d="M522.84,88.39c.32.07.47.2.47.35,0,.3-.35.35-.47.37-.12.5-.67,2.78-.77,3.25,2.8-.42,4.24-.99,5.06-1.34l.42,2.55c-.84.25-2.45.74-6.15,1.26-1.56,5.33-3.32,9.79-6.64,15.08-.87-.52-.97-.57-2.5-1.29,1.49-1.81,4.44-6.5,6.42-13.41-1.84.2-2.83.22-5.26.25l-.22-2.7c.6.05,1.24.1,2.21.1,1.66,0,3.1-.12,3.89-.17.5-2.43.6-3.72.72-4.98l2.83.69ZM525.03,103.07c-.87.92-1.07,2.01-1.07,2.33,0,.99,1.17,1.61,4.69,1.61,1.02,0,3.1-.15,5.28-.82-.05.37-.1.82-.1,1.36,0,.67.07.99.15,1.36-2.53.47-4.74.47-5.28.47-1.61,0-7.09,0-7.09-3.79,0-1.09.37-1.98,1.26-3.37l2.16.84ZM524.11,96.85c2.46-.37,4.54-.42,5.68-.42,2.03,0,2.9.15,3.62.25-.17,1.04-.2,2.13-.2,2.53-.79-.15-1.79-.35-3.69-.35-2.23,0-4.49.3-5.41.42v-2.43Z"/><path class="cls-3" d="M539.04,95.73v-2.45h11.68v-5.31l2.68.2c.32.02.5.05.5.27s-.3.35-.5.45v4.39h5.73v2.45h-5.73v10.98c0,1.69-.57,2.38-1.66,2.78-.82.3-2.58.5-4.12.4-.35-1.46-.37-1.64-.99-2.8.77.15,1.76.27,2.53.27,1.56,0,1.56-.5,1.56-2.33v-6.87c-4.09,5.78-8.95,8.13-10.51,8.9-.72-1.29-1.36-1.83-1.74-2.13,4.86-1.91,8.93-5.85,10.96-9.2h-10.39Z"/><path class="cls-3" d="M568.05,88.79c.3.02.52.02.52.25,0,.27-.35.4-.52.45v11.93h-2.68v-12.77l2.68.15ZM579.75,88.34c.4.02.5.1.5.22,0,.32-.35.42-.5.5v7.93c0,2.75-.5,5.43-1.93,7.59-1.07,1.59-3.57,4.29-7.86,5.6-.57-1.19-1.21-1.74-1.71-2.11,8.8-2.58,8.8-8.43,8.8-11.03v-8.88l2.7.17Z"/><path class="cls-3" d="M587.37,93.62c1.59.62,4.76,2.21,6.3,3.37-.84.87-1.46,1.93-1.61,2.21-2.46-1.93-5.41-3.12-6.15-3.42l1.46-2.16ZM587.42,107.24c7.12-2.43,13.74-7.14,18.05-13.79.65,1.02.92,1.34,1.71,2.16-5.31,7.91-13.79,12.35-17.68,13.79-.03.22-.1.6-.4.6-.15,0-.25-.12-.37-.35l-1.31-2.4ZM589.97,87.99c3.3,1.22,5.18,2.26,6.62,3.17-.5.55-1.22,1.59-1.59,2.18-2.31-1.66-4.56-2.63-6.5-3.35l1.46-2.01ZM601.85,88.71c.62.45,1.91,1.49,2.75,2.33-.37.32-.92.89-1.31,1.31-.25-.27-1.41-1.49-2.75-2.46l1.31-1.19ZM603.98,86.93c.77.55,2.03,1.66,2.7,2.38-.55.35-1.14,1.02-1.29,1.19-.52-.57-1.46-1.56-2.7-2.48l1.29-1.09Z"/><path class="cls-3" d="M621.54,88.12l2.73.1c.25,0,.52.02.52.3s-.37.42-.52.47v4.93h8.28v2.41h-8.31c-.15,8.21-4.83,11.75-8.83,13.69-.47-.67-1.19-1.46-2.01-2.01,7.44-3,8.06-8.28,8.13-11.68h-10.22v-2.41h10.22v-5.8Z"/><path class="cls-3" d="M644.97,89.63c.25.02.57.02.57.32,0,.25-.27.4-.47.47v6.1c0,5.01-1.41,8.31-6.2,11.65-.5-.64-.84-.99-2.13-1.83,4.94-2.9,5.6-5.95,5.6-9.6v-7.27l2.63.15ZM650.93,89.38c.27.02.5.02.5.3,0,.22-.25.32-.5.45v14.16c3.07-1.81,6.05-4.69,7.91-7.46.67,1.44.74,1.59,1.36,2.31-2.9,4.04-7.02,6.92-8.78,8.16-.84.6-.94.64-1.39,1.09l-1.86-1.24c.05-.5.1-1.24.1-1.93v-15.94l2.65.12Z"/><path class="cls-3" d="M680.81,90.35c.2.07.35.22.35.37,0,.2-.27.37-.74.42-1.26,3.12-2.08,4.91-3.74,7.61.52.47,3.05,2.88,4.27,4.69-.27.25-1.12,1.02-1.93,2.08-1.09-1.69-2.58-3.3-3.84-4.61-2.65,3.4-6.03,6.2-9.89,8.08-.67-.87-1.02-1.21-1.98-1.96,2.93-1.39,6.72-3.52,9.94-7.96-.42-.37-2.75-2.45-5.48-4.14l1.49-2.06c.67.45,3.37,2.28,5.48,4.12.94-1.56,2.43-4.41,3.37-7.86l2.73,1.21Z"/><path class="cls-3" d="M707.29,104.09v2.53h-21.32v-2.53h21.32ZM704.24,91.37v2.48h-15.22v-2.48h15.22Z"/><path class="cls-3" d="M729.19,105.87v2.16h-17.06v-2.16h9.5l1.56-8.65h-8.16v-2.21h11.01l-1.98,10.86h5.13Z"/><path class="cls-3" d="M755.6,97.66v2.68h-21.2v-2.68h21.2Z"/><path class="cls-3" d="M77.59,129.94c.15.02.52.1.52.42,0,.07-.02.35-.64.37-.2.45-.4.87-.92,1.93.74-.1,3.77-.45,6.17-1.31l.07,2.53c-3.1.62-5.9.97-7.49,1.12-.82,1.39-1.17,1.96-1.71,2.78,1.26-.67,2.36-.67,2.63-.67.45,0,2.88,0,3.89,2.55,1.86-.82,4.81-2.08,5.55-2.45l.99,2.65c-2.7.77-4.14,1.34-6.1,2.11.1.92.1,1.88.1,2.65,0,1.17-.02,1.81-.07,2.48-.42-.02-1.66-.05-2.58,0,.2-2.13.12-3.62.1-3.99-4.04,2.11-4.56,3.25-4.56,4.24,0,.77.17,1.91,4.66,1.91,2.58,0,5.16-.37,7.66-1.04-.2.84-.3,1.51-.3,2.7-3.05.64-6.12.64-6.84.64-5.65,0-7.66-1.88-7.66-4.07,0-3.27,4.69-5.8,6.74-6.74-.2-.69-.5-1.76-2.33-1.76s-3.92,1.17-6.74,5.75l-2.31-1.41c1.17-1.22,3.97-4.69,5.98-8.13-2.01.1-2.63.12-4.59.1v-2.48c.79.07,1.76.17,3.47.17.99,0,1.81-.02,2.31-.05.84-1.71,1.14-2.38,1.49-3.55l2.5.55Z"/><path class="cls-3" d="M95.88,152.31h-2.6v-12.79c-.77.99-1.19,1.46-1.59,1.88-.6-.69-1.49-1.34-2.21-1.66,2.58-2.33,5.18-6.55,6.32-10.29l2.7.79c.17.05.35.12.35.32,0,.32-.37.32-.72.32-.87,2.16-1.36,3.2-2.43,5.01.42.07.87.17.87.42,0,.32-.47.4-.69.45v15.55ZM104.85,130.24c.2.05.32.22.32.37,0,.25-.22.27-.74.32-.42,1.04-.74,1.86-1.04,2.53h9.45v2.4h-7.02v3.22h6.22v2.33h-6.22v3.05h6.77v2.4h-6.77v5.43h-2.68v-16.44h-.97c-.97,1.64-1.69,2.88-3.55,4.98-.77-.67-1.59-1.12-2.36-1.41,2.75-2.78,4.81-6.2,5.83-9.97l2.75.77Z"/><path class="cls-3" d="M133.78,129.65c.82.67,1.96,1.79,2.85,3-.55.37-1.24.92-1.59,1.26h3.69v2.4h-8.23c.3,3,.79,5.11,1.44,6.89.92-1.59,1.56-2.85,2.55-5.7l2.41,1.04c.17.07.47.2.47.45,0,.27-.5.35-.74.35-1.51,3.25-2.06,4.44-3.47,6.52,1.59,2.93,2.43,3.22,2.65,3.22.69,0,1.14-2.11,1.24-2.88.82.77,1.34,1.14,2.21,1.46-.55,2.33-1.36,3.4-1.56,3.67-.57.74-1.29.74-1.51.74-1.21,0-2.58-.94-4.69-4.09-1.31,1.59-2.85,3-4.93,4.31-.52-.69-1.07-1.29-2.08-1.79,1.79-.92,3.77-2.36,5.75-4.86-.55-1.24-1.83-4.22-2.36-9.35h-6.94c-.02.47-.05,2.6-.05,3.03h5.65c.05,1.71-.07,6.4-.74,8.08-.5,1.24-1.76,1.86-4.31,1.74-.12-.64-.62-1.96-.97-2.53.92.17,1.51.22,1.86.22.65,0,1.02-.1,1.26-.89.22-.64.4-2.9.42-4.29h-3.22c-.07,3.12-.79,7.29-2.8,10.27-.99-.65-1.93-.92-2.48-1.04,2.63-3.6,2.7-7.44,2.7-12.7v-4.29h9.45c-.05-1.39-.15-3.55-.15-4.19l2.7.17c.25.02.57.05.57.32s-.32.37-.65.47c.02,1.02.05,1.86.12,3.22h4.12c-.45-.6-1.66-2.06-2.53-2.88l1.88-1.39Z"/><path class="cls-3" d="M147.38,130.51c.37.05.6.07.6.32s-.37.37-.62.42c-.52,3.22-.64,9.2-.64,10.96,0,4.61.32,6.82,3,6.82,4.96,0,8.73-5.75,9.47-7.36.74.99,1.17,1.51,1.96,2.18-4.07,6.5-8.83,7.84-11.65,7.84-5.21,0-5.43-4.93-5.43-9.5,0-1.69.3-9.15.3-10.69,0-.72-.02-.99-.07-1.41l3.1.42Z"/><path class="cls-3" d="M166.96,145.22c2.46,1.51,4.36,3.32,5.41,4.34l-2.08,2.11c-1.59-2.03-3.3-3.42-5.03-4.59l1.71-1.86Z"/><path class="cls-3" d="M190.92,134.16h9.97v1.96h-9.97v1.26h7.49v7.96h-7.49v1.24h8.31v1.74h-8.31v1.46h10.24v1.96h-22.89v-1.96h10.09v-1.46h-8.21v-1.74h8.21v-1.24h-7.34v-7.96h7.34v-1.26h-9.92v-1.96h9.92v-1.21c-2.41.2-5.53.22-7.81.25-.45-.97-.77-1.41-1.36-1.98.5.02.99.05,1.76.05.45,0,5.6-.05,9.82-.64,3.07-.42,4.86-.99,5.58-1.24l1.44,1.66c.07.1.22.3.22.4,0,.17-.07.25-.25.25s-.4-.12-.55-.22c-1.98.52-4.07.92-6.3,1.22v1.49ZM188.37,140.53v-1.39h-4.76v1.39h4.76ZM183.61,142.12v1.44h4.76v-1.44h-4.76ZM195.83,140.53v-1.39h-4.91v1.39h4.91ZM190.92,142.12v1.44h4.91v-1.44h-4.91Z"/><path class="cls-3" d="M227.11,137.16v1.64h-22.76v-1.64h22.76ZM216.95,147.23h8.11v1.64h-8.11v1.21h10.09v1.74h-22.66v-1.74h10.07v-1.21h-8.03v-1.64h8.03v-1.07h-7.09v-6.47h16.81v6.47h-7.22v1.07ZM224.21,129.92v6.37h-16.81v-6.37h16.81ZM214.44,142.24v-1.12h-4.71v1.12h4.71ZM209.73,143.53v1.17h4.71v-1.17h-4.71ZM221.71,132.45v-1.07h-11.93v1.07h11.93ZM209.78,133.69v1.14h11.93v-1.14h-11.93ZM221.68,142.24v-1.12h-4.74v1.12h4.74ZM216.95,143.53v1.17h4.74v-1.17h-4.74Z"/><path class="cls-3" d="M239.82,133.66v1.98h-9.67v-1.98h9.67ZM239.08,143.71v8.26h-2.38v-1.17h-3.35v1.61h-2.38v-8.7h8.11ZM238.53,130.19v2.03h-7.34v-2.03h7.34ZM238.51,137.04v1.91h-7.31v-1.91h7.31ZM238.51,140.38v1.91h-7.31v-1.91h7.31ZM233.35,145.71v2.93h3.35v-2.93h-3.35ZM243.42,142.79c.45.82,1.09,1.96,2.68,3.5,1.04-1.09,1.81-2.23,2.45-3.67h-8.28v-2.23h10.49l.97,1.14c-1.04,2.36-2.13,4.34-3.82,6.22.52.35,2.65,1.83,5.41,2.48-.69.69-1.17,1.31-1.56,2.11-2.23-.74-4.29-1.83-5.65-2.85-1.81,1.46-3.94,2.41-5.23,2.93-.4-.82-1.24-1.81-1.66-2.16,1.64-.4,3.22-1.04,5.08-2.38-.37-.35-1.81-1.83-2.8-3.79l1.93-1.29ZM249.34,130.24v5.9c0,.32.12.57.55.57h.72c.35,0,.84,0,.99-2.31.62.47,1.24.79,1.98.99-.5,2.55-.92,3.55-2.45,3.55h-2.01c-2.18,0-2.18-1.69-2.18-2.28v-4.26h-2.8c-.07,2.53-.15,5.11-2.43,7.56-.64-.57-1.51-1.09-2.23-1.29,2.13-1.86,2.13-4.27,2.13-5.95v-2.48h7.74Z"/><path class="cls-3" d="M263.44,140.95c.32.05.52.15.52.37,0,.25-.17.3-.67.42-.1.52-.64,2.95-.69,3.2.87,2.01,2.16,3.32,3.84,3.89v-9.79h-6.52v-2.31h15.75v2.31h-6.57v3.12h6.57v2.33h-6.57v4.81c1.59.1,3.17.1,3.77.1,2.26,0,3.27-.07,6.62-.32-.5,1.17-.67,1.86-.74,2.75h-9.03c-5.6,0-7.39-2.68-8.16-4.04-.82,1.76-1.71,3.05-2.78,4.44-.94-.74-1.19-.84-2.45-1.24,1.02-1.14,4.09-4.61,4.49-10.51l2.63.47ZM266.39,129.55l2.68.2c.25.02.67.05.67.3,0,.2-.1.22-.67.47v1.71h9.65v5.21h-2.6v-3.03h-16.71v3.07h-2.55v-5.26h9.55v-2.68Z"/><path class="cls-3" d="M289.86,141c0,1.24-1.04,2.23-2.23,2.23s-2.23-.99-2.23-2.23,1.04-2.23,2.23-2.23,2.23.97,2.23,2.23Z"/><path class="cls-3" d="M302.27,136.69c2.6,1.29,6.37,3.4,9.32,6.2-.3.37-.77.94-1.56,2.21-3.25-3.1-6.74-5.08-8.83-6.1v12.72h-2.7v-21.57l2.73.17c.3.02.45.1.45.3,0,.27-.3.32-.47.37v7.19l1.07-1.49Z"/><path class="cls-3" d="M319.1,130.94c.32.02.52.02.52.25,0,.3-.37.45-.52.52v16.07c4.71-1.59,10.86-5.53,14.18-9.99.6,1.49.65,1.59,1.29,2.65-2.21,2.36-5.5,5.6-11.65,8.6-.77.37-4.14,1.93-4.81,2.28l-1.83-1.83c.07-.32.12-1.14.12-1.46v-17.21l2.7.12Z"/><path class="cls-3" d="M359.65,139.66v2.68h-21.2v-2.68h21.2Z"/><path class="cls-3" d="M385.5,146.09v2.53h-21.32v-2.53h21.32ZM382.45,133.37v2.48h-15.22v-2.48h15.22Z"/><path class="cls-3" d="M391.29,130.74c1.81.89,4.37,2.28,6.89,4.54-.32.37-.77.92-1.61,2.23-3.27-2.9-5.75-4.04-6.84-4.54l1.56-2.23ZM389.93,148.52c4.76-1.02,13.19-4.27,18.82-13.54.79,1.22.84,1.34,1.66,2.28-4.83,7.61-11.6,11.33-18.15,13.66,0,.27-.1.55-.35.55-.2,0-.32-.17-.4-.3l-1.59-2.65Z"/><path class="cls-3" d="M429.89,133.76c.79,0,1.24-.2,1.69-.37l1.44,1.31c-.4.62-.5.84-.79,1.51-2.08,4.79-3.45,7.91-6.77,11.31-3.08,3.15-6.12,4.44-7.37,4.96-.62-.77-.99-1.09-2.03-1.91,7.61-3.1,11.03-8.03,13.17-14.46h-7.74c-1.69,2.5-3.45,4.56-6.15,6.92-1.02-1.02-1.09-1.12-1.98-1.79,3.67-2.88,6.82-6.92,8.48-11.38l2.43,1.09c.12.05.35.15.35.37,0,.25-.37.32-.6.32-.25.52-.4.82-1.09,2.11h6.97ZM428.8,129.1c.59.55,1.64,1.64,2.28,2.43-.32.2-.99.59-1.49,1.04-1.07-1.36-1.74-1.98-2.21-2.38l1.41-1.09ZM432.54,128.83c.79.72,1.83,1.96,2.28,2.55-.42.25-.52.32-1.49,1.04-.17-.27-1.12-1.64-2.16-2.53l1.36-1.07Z"/><path class="cls-3" d="M454.08,131.48c1.04,0,1.46-.15,1.71-.22l1.91,1.61c-.4.64-.5.82-.72,1.44-2.68,7.07-4.81,12.5-14.61,17.28-.64-1.02-1.66-1.79-1.98-2.03,7.44-3.2,10.96-6.99,13.83-15.67h-16.22v-2.41h16.07Z"/><path class="cls-3" d="M462.03,140.28v-2.16h9.55v-4.12l2.26.15c.32.02.5.05.5.3,0,.2-.3.32-.47.37v3.3h4.24v2.16h-4.24v8.18c0,2.65-.67,3.22-4.76,3.12-.15-.87-.52-1.74-.92-2.5.45.1,1.02.2,1.98.2,1.39,0,1.41-.3,1.41-1.46v-5.43c-1.69,2.48-4.27,5.01-8.33,6.99-.47-.72-1.02-1.41-1.59-1.96,3.59-1.36,6.69-3.84,8.68-7.14h-8.31Z"/><path class="cls-3" d="M504,139.66v2.68h-21.2v-2.68h21.2Z"/><path class="cls-3" d="M523.58,138.45c2.68,2.93,5.73,7.71,6.62,10.17-.32.22-1.51,1.07-2.18,1.76-.42-1.12-.82-2.03-1.49-3.3-9.22,1.61-10.24,1.79-16.86,2.65-.12.37-.22.45-.4.45-.2,0-.32-.2-.37-.45l-.57-2.48c.67-.02,1.21-.05,2.63-.17,2.01-3.82,4.74-10.66,6.1-16.71l2.73.74c.3.07.47.17.47.35,0,.32-.45.4-.59.42-.4,1.07-2.01,5.88-2.38,6.84-1.02,2.73-2.16,5.43-3.45,8.06,2.65-.32,5.55-.79,11.5-1.76-1.61-2.5-2.88-4.07-3.97-5.23l2.21-1.34Z"/><path class="cls-3" d="M537.6,133.12c-.87,1.19-1.59,1.96-2.08,2.48-.64-.52-1.41-.94-2.23-1.19,1.41-1.17,3-3.2,3.79-4.98l2.33.35c.12.02.5.07.5.3,0,.3-.42.32-.64.35-.15.3-.22.4-.37.67h5.75v2.03h-3.15c.35.97.52,1.64.67,2.21-.35.02-.89.07-2.38.45-.25-1.29-.62-2.28-.74-2.65h-1.44ZM546.2,140.09h10.19v2.01h-4.09c.05.05.12.1.12.2,0,.3-.4.42-.64.5v1.14h3.72v2.11h-3.72v3.55c0,2.83-2.11,2.85-5.23,2.85-.17-1.17-.45-1.83-.97-2.7,1.19.25,2.01.25,2.18.25,1.21,0,1.36-.25,1.36-1.07v-2.88h-8.75c.64.57,2.6,2.58,3.15,3.45-.62.32-1.24.79-2.21,1.51-1.04-1.51-2.55-3.05-3.4-3.84l1.74-1.12h-5.33v-2.11h14.8v-1.83h-15.7v-2.01h10.17v-1.56h-8.65v-2.01h8.65v-1.24l2.65.25c.17.02.57.07.57.32s-.3.37-.62.47v.2h8.85v2.01h-8.85v1.56ZM547.69,133.12c-.87,1.31-1.31,1.83-1.71,2.33-.84-.52-1.31-.72-2.33-1.09,1.39-1.41,2.58-3.17,3.22-5.01l2.53.45c.32.05.47.22.47.35,0,.3-.4.35-.69.37-.1.17-.2.37-.3.57h6.99v2.03h-4.12c.1.22.72,1.79.89,2.23-.79.07-1.59.2-2.41.45-.35-1.19-.59-1.83-.94-2.68h-1.61Z"/><path class="cls-3" d="M570.87,129.94c.15.02.52.1.52.42,0,.07-.02.35-.64.37-.2.45-.4.87-.92,1.93.74-.1,3.77-.45,6.17-1.31l.07,2.53c-3.1.62-5.9.97-7.49,1.12-.82,1.39-1.17,1.96-1.71,2.78,1.26-.67,2.36-.67,2.63-.67.45,0,2.88,0,3.89,2.55,1.86-.82,4.81-2.08,5.55-2.45l.99,2.65c-2.7.77-4.14,1.34-6.1,2.11.1.92.1,1.88.1,2.65,0,1.17-.03,1.81-.07,2.48-.42-.02-1.66-.05-2.58,0,.2-2.13.12-3.62.1-3.99-4.04,2.11-4.56,3.25-4.56,4.24,0,.77.17,1.91,4.66,1.91,2.58,0,5.16-.37,7.66-1.04-.2.84-.3,1.51-.3,2.7-3.05.64-6.12.64-6.84.64-5.65,0-7.66-1.88-7.66-4.07,0-3.27,4.69-5.8,6.74-6.74-.2-.69-.5-1.76-2.33-1.76s-3.92,1.17-6.75,5.75l-2.31-1.41c1.17-1.22,3.97-4.69,5.98-8.13-2.01.1-2.63.12-4.59.1v-2.48c.79.07,1.76.17,3.47.17.99,0,1.81-.02,2.31-.05.84-1.71,1.14-2.38,1.49-3.55l2.5.55Z"/><path class="cls-3" d="M587.24,129.67l2.58.17c.15,0,.55.02.55.32,0,.27-.25.4-.55.5v3.32h2.55v2.23h-2.55v3.82c1.44-.52,2.16-.82,2.58-1.02-.1.77-.1,1.51-.05,2.28-.45.2-.92.42-2.53,1.07v6.62c0,2.85-1.19,3.12-4.39,3.32-.1-.99-.42-1.86-.92-2.73.77.17,1.51.17,1.61.17.92,0,1.12-.25,1.12-1.39v-5.01c-1.31.47-2.18.74-2.95.97,0,.17-.03.6-.42.6-.3,0-.37-.25-.42-.45l-.55-2.38c.69-.12,1.81-.32,4.34-1.17v-4.71h-3.7v-2.23h3.7v-4.31ZM595.87,150.95v1.34h-2.48v-11.58h11.65v11.55h-2.53v-1.31h-6.64ZM604.53,131.43c.12.12.2.25.2.4,0,.17-.15.32-.35.32-.12,0-.27-.02-.57-.17-2.26,1.51-5.6,2.7-7.74,3.25v.72c0,1.09.17,1.12,1.76,1.12h3.79c2.01,0,2.21-.47,2.6-2.78.32.25.92.77,2.18,1.12-.57,3.1-1.46,3.89-4.74,3.89h-4.88c-2.88,0-3.17-1.26-3.17-2.75v-6.89l2.53.2c.2.02.55.07.55.35,0,.25-.25.32-.62.47v2.31c2.21-.64,5.06-1.96,6.6-3.35l1.86,1.81ZM602.52,144.82v-2.08h-6.64v2.08h6.64ZM602.52,148.94v-2.18h-6.64v2.18h6.64Z"/><path class="cls-3" d="M627.65,145.71h4.61v2.01h-4.61v1.74c0,2.95-1.56,2.95-4.98,3-.12-1.14-.64-2.06-.87-2.45.69.1,1.41.17,2.08.17.99,0,1.26-.17,1.26-1.12v-1.34h-8.03c1.12.97,1.76,1.49,2.65,2.48-.52.4-1.56,1.36-1.96,1.76-.79-1.19-1.49-1.81-3.2-3.3l1.09-.94h-6.35v-2.01h15.79v-1.12h-4.39c-4.71,0-5.93-.89-6.94-2.23-1.09.82-1.66,1.14-3.2,1.96-.02.17-.12.57-.35.57-.15,0-.3-.17-.37-.35l-1.04-2.08c1.29-.37,2.41-.87,3.52-1.54v-3.27h-2.98v-2.03h5.38v4.04c0,3.07,2.41,3.07,9.05,3.07,2.78,0,5.9,0,8.6-.35-.54.87-.69,1.26-.84,2.21h-3.37c.05.3-.07.35-.57.55v.57ZM611.16,129.45c1.46.99,2.88,2.5,3.25,2.93-.82.6-1.54,1.59-1.66,1.79-.82-1.21-3.02-2.98-3.1-3.05l1.51-1.66ZM630.28,134.28v7.91h-2.28v-.42h-8.51v.42h-2.43v-7.91h4.17c.22-.4.35-.62.52-1.04h-6.6v-1.66h4.24c-.69-.97-1.14-1.34-1.36-1.56l2.18-.69c.59.52,1.26,1.36,1.64,1.91-.77.2-1.02.27-1.26.35h4.49c.82-1.36,1.02-1.91,1.12-2.23l2.16.45c.25.05.45.15.45.35,0,.22-.22.27-.64.32-.17.32-.32.6-.67,1.12h4.64v1.66h-7.76c-.27.47-.32.59-.6,1.04h6.52ZM619.49,136.49h8.51v-.84h-8.51v.84ZM628,137.61h-8.51v.82h8.51v-.82ZM628,139.54h-8.51v.92h8.51v-.92Z"/><path class="cls-3" d="M640.34,132.2c.35.1.52.15.52.4,0,.3-.32.35-.55.35-1.19,3.42-1.19,6.84-1.19,7.44,0,4.04,1.54,7.12,2.7,7.12,1.07,0,2.36-3.17,2.93-4.61.69.82,1.12,1.21,1.81,1.69-.45,1.09-2.5,6.22-4.88,6.22-2.03,0-5.11-3.77-5.11-10.81,0-3,.55-5.98,1.07-8.6l2.7.82ZM653.03,132.7c3.5,4.69,4.61,9.32,4.93,12.7-.4.12-2.06.87-2.73,1.17-.22-3.92-1.19-8.38-4.39-12.5l2.18-1.36Z"/><path class="cls-3" d="M672.11,130.39c.32.07.47.2.47.35,0,.3-.35.35-.47.37-.12.5-.67,2.78-.77,3.25,2.8-.42,4.24-.99,5.06-1.34l.42,2.55c-.84.25-2.46.74-6.15,1.26-1.56,5.33-3.32,9.79-6.65,15.08-.87-.52-.97-.57-2.5-1.29,1.49-1.81,4.44-6.5,6.42-13.41-1.83.2-2.83.22-5.26.25l-.22-2.7c.59.05,1.24.1,2.21.1,1.66,0,3.1-.12,3.89-.17.5-2.43.59-3.72.72-4.98l2.83.69ZM674.29,145.07c-.87.92-1.07,2.01-1.07,2.33,0,.99,1.17,1.61,4.69,1.61,1.02,0,3.1-.15,5.28-.82-.05.37-.1.82-.1,1.36,0,.67.07.99.15,1.36-2.53.47-4.74.47-5.28.47-1.61,0-7.09,0-7.09-3.79,0-1.09.37-1.98,1.27-3.37l2.16.84ZM673.38,138.85c2.45-.37,4.54-.42,5.68-.42,2.03,0,2.9.15,3.62.25-.17,1.04-.2,2.13-.2,2.53-.79-.15-1.79-.35-3.7-.35-2.23,0-4.49.3-5.41.42v-2.43Z"/><path class="cls-3" d="M692.29,130.51c.37.05.6.07.6.32s-.37.37-.62.42c-.52,3.22-.64,9.2-.64,10.96,0,4.61.32,6.82,3,6.82,4.96,0,8.73-5.75,9.47-7.36.74.99,1.17,1.51,1.96,2.18-4.07,6.5-8.83,7.84-11.65,7.84-5.21,0-5.43-4.93-5.43-9.5,0-1.69.3-9.15.3-10.69,0-.72-.02-.99-.07-1.41l3.1.42Z"/><path class="cls-3" d="M721.14,130.34c.22.05.4.05.4.27,0,.27-.35.35-.5.4-.07,1.04-.1,1.59-.12,2.06,1.19,0,6.4-.1,7.46-.02v2.46c-1.29-.07-3.1-.2-7.51-.12,0,.12-.05,2.7-.03,3.89,3.94-.3,5.83-.82,6.89-1.12v2.53c-1.54.35-2.58.5-6.82.84,0,.5.07,2.7.1,3.15,3.42.69,6.62,2.31,8.18,3.5-.82.94-.97,1.14-1.74,2.16-2.01-1.76-4.14-2.8-6.32-3.47.1,1.71.3,4.71-4.79,4.71-3.57,0-5.88-1.74-5.88-3.69,0-2.63,3.25-3.69,5.95-3.69.52,0,1.34.05,1.98.1,0-.32-.05-2.13-.05-2.6-3.5.07-7.32.15-7.32-1.96,0-.87.52-1.64,1.76-2.78l1.93.62c-.87.77-.97.87-.97,1.19,0,.55.62.6,1.46.64.52.05,1.17.07,3.07.02-.03-.62-.05-3.37-.05-3.94-4.02.15-6.75.5-8.28.67v-2.58c1.29-.1,7.09-.37,8.28-.42-.03-1.83-.03-2.43-.12-3.35l3,.55ZM716.6,146.11c-1.69,0-3.52.45-3.52,1.71,0,1.46,2.31,1.59,2.85,1.59,2.55,0,2.55-1.51,2.55-2.31,0-.3-.03-.52-.05-.79-.4-.1-.87-.2-1.83-.2Z"/><path class="cls-3" d="M745.87,129.97c.59.07.59.17.59.3,0,.17-.17.27-.42.4-.07.69-.07.87-.12,2.33,1.36-.05,7.36-.32,8.6-.37-.02.47-.05,1.81.03,2.65-.82-.02-2.95-.07-5.16-.07-.57,0-1.93,0-3.42.05-.02,2.68-.02,2.98.05,3.84,1.07,1.74,1.07,3.89,1.07,4.22,0,1.59-.55,4.17-2.23,6.3-1.46,1.86-3.03,2.68-3.97,3.17-.67-.67-.84-.79-2.28-1.79,3.37-1.34,4.79-2.95,5.48-5.08-.77.77-1.69,1.21-2.75,1.21-2.33,0-3.52-2.06-3.52-4.61,0-3.03,1.76-4.88,4.04-4.88.82,0,1.26.2,1.59.35v-2.6c-2.36.12-6.65.4-10.46,1.07l-.22-2.8c.97.02,1.93-.05,10.61-.52-.02-.2-.08-1.91-.37-3.47l2.88.32ZM740,142.47c0,.35,0,2.63,1.86,2.63,1.29,0,2.18-1.31,2.18-2.95,0-.77-.35-2.43-2.03-2.43-1.41,0-2.01,1.36-2.01,2.75Z"/><path class="cls-3" d="M765.7,148.42c0,1.83-1.51,3.3-3.3,3.3s-3.3-1.46-3.3-3.3,1.49-3.27,3.3-3.27,3.3,1.46,3.3,3.27ZM760.42,148.42c0,1.09.87,1.98,1.98,1.98s1.98-.87,1.98-1.98-.89-1.98-1.98-1.98-1.98.92-1.98,1.98Z"/><rect class="cls-1" x="65" y="176.45" width="88" height="27.99" rx="10.22" ry="10.22"/><path class="cls-4" d="M77.91,186.32h5.57v5.73h-4.06c-.09,2.6-.36,3.8-1.22,5.04l-1.33-1.1c.38-.63,1.04-1.75,1.04-4.38v-5.3ZM84.04,184.93h-6.85v-1.48h6.85v1.48ZM79.42,187.79v2.75h2.55v-2.75h-2.55ZM91.16,184.31c-1.12.47-2.46.85-5.01,1.09v2.17h5.07v1.51h-1.64v8.01h-1.55v-8.01h-1.87c.02,1.39-.02,5.22-2.02,7.95l-1.4-1.09c1.87-2.04,1.87-5.33,1.87-5.93v-5.98c1.98-.03,3.76-.41,5.58-1.16l.98,1.43Z"/><path class="cls-4" d="M98.28,190.88c.32-.51.44-.74.63-1.12h-4.21v-4.01h3.73v-1.01h-4.42v-1.33h14.17v1.33h-4.6v1.01h3.92v4.01h-6.85c-.15.32-.26.54-.59,1.12h8.12v1.39h-2.75c-.2.48-.59,1.4-1.55,2.31,1.8.56,2.97,1,3.71,1.27l-1.24,1.34c-.74-.35-1.98-.92-3.86-1.58-1.96,1.07-5.31,1.34-7.62,1.4l-.57-1.49c.41.03.85.05,1.49.05,2.08,0,3.67-.32,4.66-.6-1.51-.44-3.21-.77-4.74-1.06.45-.42.95-.91,1.55-1.63h-3.26v-1.39h4.27ZM96.19,188.58h2.23v-1.63h-2.23v1.63ZM99.09,192.27c-.18.23-.33.42-.71.89.86.17,2.14.44,3.82.92,1.03-.75,1.28-1.31,1.54-1.81h-4.65ZM99.85,185.75h2.31v-1.01h-2.31v1.01ZM99.85,188.58h2.31v-1.63h-2.31v1.63ZM103.57,188.58h2.41v-1.63h-2.41v1.63Z"/><path class="cls-4" d="M111.13,183.54h4.71v11.47h-3.26v1.16h-1.45v-12.63ZM112.58,185.07v3.4h1.83v-3.4h-1.83ZM112.58,189.88v3.65h1.83v-3.65h-1.83ZM124.47,185.67h-3.11v1.75h3.58v1.46h-1.54v1.49h1.42v1.45h-1.42v3.7c0,.44,0,1.54-1.4,1.54h-2.43l-.3-1.54h2.25c.11,0,.33-.02.33-.24v-3.46h-5.42v-1.45h5.42v-1.49h-5.54v-1.46h3.53v-1.75h-3v-1.45h3v-1.28h1.52v1.28h3.11v1.45ZM117.81,192.09c.98.91,1.43,1.46,2.04,2.43l-1.31,1c-.85-1.31-1.04-1.61-1.95-2.55l1.22-.88Z"/><path class="cls-4" d="M128,183.56h5.73v5.51h-4.24v8.03h-1.49v-13.54ZM129.49,184.8v1h2.78v-1h-2.78ZM129.49,186.82v1h2.78v-1h-2.78ZM138,189.93v5.6h-7v-5.6h7ZM132.42,191.15v1.04h4.15v-1.04h-4.15ZM132.42,193.2v1.09h4.15v-1.09h-4.15ZM139.54,189.07h-4.47v-5.51h5.98v12.12c0,.42,0,1.42-1.01,1.42h-2.31l-.24-1.51h1.71c.18,0,.35-.06.35-.36v-6.16ZM136.54,184.8v1h3v-1h-3ZM136.54,186.82v1h3v-1h-3Z"/><path class="cls-3" d="M166.37,198.07c.2.02.4.09.4.26,0,.22-.29.31-.53.4-.18,1.32-.48,3.21-1.21,5.21-.33-.13-1.05-.37-2.02-.48.77-1.56,1.27-4.17,1.41-5.69l1.96.31ZM172.1,188.14c.11.07.33.22.33.4,0,.22-.24.22-.62.22-.4.51-2.04,2.81-2.37,3.25-.94,1.23-1.25,1.58-1.89,2.33.88-.09,1.21-.13,2.72-.35-.31-.92-.44-1.3-.57-1.6l1.85-.51c.04.11.09.22.13.35,2.18-2.79,3.16-5.23,3.65-7.08l2.07.66c.24.09.46.26.46.4s-.13.22-.22.24c-.13.04-.29.09-.42.11-.2.51-.62,1.56-.9,2.18h6.48c.02,3.49.02,11.36-1.14,14.33-.7,1.82-2.09,2.29-4.75,2.22-.15-.97-.53-1.78-.99-2.57.33.07,1.12.24,1.89.24,1.58,0,2.02-.68,2.48-4.13.33-2.57.33-5.91.29-8.04h-5.3c-.73,1.23-1.08,1.82-1.69,2.66-.66-.59-1.47-.94-1.87-1.12.68,1.8,1.05,3.41,1.21,4.13-1.01.29-1.38.4-1.96.64-.07-.4-.11-.7-.26-1.34l-1.49.29v9.34h-2.13v-9.03c-.31.04-2.4.31-2.92.37-.07.24-.22.51-.4.51-.15,0-.33-.24-.37-.53l-.29-1.98c.48-.02,1.54-.11,1.85-.13.4-.46.64-.77,1.47-1.82-1.08-1.14-1.54-1.54-3.32-3.01l1.3-1.78c.48.37.79.64,1.12.92.15-.22,1.45-2.31,2.13-3.93l1.76.86c.18.09.33.24.33.42,0,.2-.42.22-.62.2-.9,1.6-1.78,2.94-2.29,3.65.55.53.73.68.94.9,1.08-1.41,1.85-2.44,2.55-3.8l1.76.97ZM171.84,197.54c.22,1.52.57,2.7,1.25,4.72-.51.11-1.38.35-1.93.68-.31-.94-1.01-3.25-1.19-4.88l1.87-.53ZM176.26,193.33c1.49,2.61,2.04,4.09,2.33,4.92-.88.35-1.23.51-1.98.92-.55-1.74-1.65-3.89-2.33-5.05l1.98-.79Z"/><path class="cls-3" d="M206.54,183.85c-.64-3.33-3.57-4-5.77-4-6.62,0-7.68,4.92-8.07,9.94,2.23-2.34,4.88-3.11,8.28-3.11,5.8,0,10.65,2.9,10.65,8.99,0,5.45-3.82,9.8-11.11,9.8-9.98,0-12.28-8-12.28-14.33,0-12,7.04-15.11,12.42-15.11.88,0,9.31.14,10.62,7.82h-4.74ZM193.13,195.67c0,2.94,2.05,6.02,7.25,6.02,5.98,0,6.72-4.42,6.72-6.02,0-5.31-5.48-5.52-6.62-5.52-5.2,0-7.36,2.55-7.36,5.52Z"/><path class="cls-3" d="M239.52,180.56c2.3,3.68,2.55,7.96,2.55,10.19,0,1.98-.21,6.55-2.55,10.19-2.48,3.86-6.58,4.53-9.17,4.53-4.88,0-7.75-2.23-9.2-4.53-2.26-3.61-2.51-7.89-2.51-10.19,0-2.58.35-6.76,2.51-10.19,1.98-3.15,5.41-4.53,9.2-4.53s7.25,1.49,9.17,4.53ZM223.17,190.75c0,2.97.42,10.97,7.18,10.97s7.18-8,7.18-10.97c0-3.5-.67-10.97-7.18-10.97s-7.18,7.64-7.18,10.97Z"/><path class="cls-3" d="M256.6,187.35c.09.07.24.18.24.33,0,.24-.2.24-.64.24-1.82,2.97-3.3,5.01-6.83,7.76-.62-.92-1.1-1.38-1.78-1.76,3.1-2.29,5.08-4.22,6.94-7.91l2.07,1.34ZM252.58,195.1v-2.22h11.69c-1.98-2.02-2.7-3.78-3.21-4.97h-3.12v-2.15h5.01c.55,3.32,3.05,6.24,6.04,7.89-.86.83-1.03,1.08-1.47,2-1.05-.62-1.93-1.43-2.99-2.5-.44,10.33-.55,12.08-5.71,12.08-.22,0-.37-.02-.57-.02-.04-1.19-.51-2.09-.68-2.48.31.04,1.01.15,1.8.15,2.07,0,2.18-.62,2.5-3.3.09-.77.26-3.43.24-4.48h-4.11c-.13,2.04-.53,6.97-7.54,10.13-.46-.99-1.27-1.67-1.65-1.98,5.36-1.98,6.72-5.08,6.92-8.15h-3.16Z"/></g></svg>