<svg xmlns="http://www.w3.org/2000/svg" viewBox="0 0 320 80"><defs><style>.cls-1{fill:#2eafbf;}.cls-2{fill:#fff;}</style></defs><g id="レイヤー_2" data-name="レイヤー 2"><g id="レイヤー_1-2" data-name="レイヤー 1"><rect class="cls-1" width="320" height="80"/><path d="M104.43,38.56v2.72H86.36V38.56Z"/><path d="M119.42,46.54c0,.42.12.56.56.56h2.67c.7,0,.9-1.14,1-2.44a5.34,5.34,0,0,0,2.2,1c-.3,2-.86,3.22-2.28,3.22h-4.61c-.8,0-1.9,0-1.9-1.36v-1.7h-3l1,.44c.16.06.42.18.42.38s-.24.26-.74.3a10.67,10.67,0,0,1-6.5,2.24,5.84,5.84,0,0,0-.88-2.08c.28,0,.44,0,.68,0s3.28-.08,4.64-1.32H109.6V38.9h13.73v6.94h-3.91Zm-3.56-13.37v1.64a11.28,11.28,0,0,0,2-4.24l2.36.54a.21.21,0,0,1,.18.22c0,.26-.29.32-.56.36-.12.32-.14.42-.26.76h5.93v2H118.7a17.71,17.71,0,0,1-1.4,2,5.37,5.37,0,0,0-1.44-1.07v.88h-2.6v.89h3.3V38.4h-8.92V31h8.72v1.3h-3.08v.84Zm-4.58,0v-.84H109.7v.84Zm-1.58,1.08v.86h4.2v-.86Zm0,2v.89h1.56v-.89ZM121,41v-.66h-9V41Zm-9,1v.66h9V42Zm0,1.64v.72h9v-.72Zm12.35-5.8H118V35.79h6.31Z"/><path d="M137.72,31.05c.14,0,.4.08.4.32s-.22.3-.48.32c-.22.48-.36.76-.6,1.24a20,20,0,0,0,4.52-1l0,2.56c-1.9.34-3.9.68-5.84.86-.24.44-.7,1.19-1,1.78a4.07,4.07,0,0,1,1.9-.46,3.32,3.32,0,0,1,3,1.85c1.42-.64,3.4-1.55,4.25-2l1,2.71c-1.77.55-3.29,1-4.73,1.65.06.78.08,1.48.08,2,0,.88,0,1.48-.06,2-.14,0-1.76-.06-2.68,0a20.85,20.85,0,0,0,.1-2.76c-2.18,1.18-3,2.06-3,2.92s1,1.22,3.38,1.22a22.87,22.87,0,0,0,6.29-.9,11.2,11.2,0,0,0-.32,2.74,27.5,27.5,0,0,1-5.57.54c-1.12,0-6.36,0-6.36-3.42,0-2.78,4.12-4.94,5.34-5.58a1.58,1.58,0,0,0-1.64-1.08c-1.56,0-3,1.18-4.94,4.3l-2.38-1.4a39.42,39.42,0,0,0,4.4-5.89c-1,0-1.58.06-3.2,0v-2.5c.46,0,1.66.16,3.22.16a12.06,12.06,0,0,0,1.22,0,20.38,20.38,0,0,0,1.14-2.72Z"/><path d="M160.18,45.62c0,.46.07.84,1,.84h1.79c.52,0,.84,0,1.26-2.44a5.36,5.36,0,0,0,2.22,1.12c-.6,3.18-1.3,3.62-2.86,3.62h-3.29c-1.52,0-2.64-.46-2.64-2.4V42.3h-2.46l.72.18c.12,0,.32.08.32.3s-.26.28-.6.3a9.43,9.43,0,0,1-6.32,6.2,9.07,9.07,0,0,0-1.8-2c1-.22,4.8-1,5.68-5h-3V31.19h13.39V42.3h-3.37ZM161,34.33v-1h-8.13v1Zm-8.13,1.82v1H161v-1Zm0,2.85v1.12H161V39Z"/><path d="M182.33,32.93A70.83,70.83,0,0,0,177,37.79a8.12,8.12,0,0,1,2.62-.44c3,0,5.67,1.75,5.67,5.19,0,4.36-4.25,6.2-7.51,6.2-3.08,0-4.86-1.46-4.86-3.36,0-1.72,1.56-3,3.64-3a4.17,4.17,0,0,1,4.26,3.16,2.88,2.88,0,0,0,1.79-2.78c0-1.16-.68-3.18-3.61-3.18-3.5,0-5.52,2.1-8.34,5l-2-2a68.89,68.89,0,0,0,8.72-8.37,56.2,56.2,0,0,1-6.06.76l-.44-2.68c1.5.06,7-.06,10.08-1.22Zm-5.89,11.63c-.74,0-1.1.44-1.1.9,0,.8,1.1,1.24,2.08,1.24a4.94,4.94,0,0,0,1.2-.16A2.13,2.13,0,0,0,176.44,44.56Z"/><path d="M234.58,40A18.56,18.56,0,1,1,216,21.44,18.56,18.56,0,0,1,234.58,40"/><path class="cls-2" d="M227.1,39.85a1.05,1.05,0,1,1,1.05,1.06,1,1,0,0,1-1.05-1.06"/><path class="cls-2" d="M223.55,39.86a1.05,1.05,0,1,1,1,1,1.05,1.05,0,0,1-1-1"/><path class="cls-2" d="M220.63,39.86a1.06,1.06,0,1,1,1.05,1,1.05,1.05,0,0,1-1.05-1"/><path class="cls-2" d="M217.71,39.86a1.06,1.06,0,1,1,2.11,0,1.06,1.06,0,0,1-2.11,0"/><path class="cls-2" d="M214.8,39.86a1.05,1.05,0,1,1,1,1,1.05,1.05,0,0,1-1-1"/><path class="cls-2" d="M225.59,36.84a1.05,1.05,0,1,1-.12,1.48,1.06,1.06,0,0,1,.12-1.48"/><path class="cls-2" d="M223.7,34.62a1,1,0,1,1-.12,1.48,1,1,0,0,1,.12-1.48"/><path class="cls-2" d="M221.81,32.4a1,1,0,1,1-.12,1.48,1.05,1.05,0,0,1,.12-1.48"/><path class="cls-2" d="M219.92,30.17a1.06,1.06,0,1,1-.12,1.48,1.06,1.06,0,0,1,.12-1.48"/><path class="cls-2" d="M221.29,47.91a1.06,1.06,0,0,0-1.49.12,1.05,1.05,0,1,0,1.49-.12"/><path class="cls-2" d="M223.16,45.7a1,1,0,1,0,.13,1.48,1,1,0,0,0-.13-1.48"/><path class="cls-2" d="M225.05,43.48a1,1,0,1,0,.12,1.48,1,1,0,0,0-.12-1.48"/><path class="cls-2" d="M226.94,41.25a1.05,1.05,0,1,0,.12,1.48,1.06,1.06,0,0,0-.12-1.48"/><path class="cls-2" d="M211.88,39.86a1.05,1.05,0,1,1,1.05,1,1.05,1.05,0,0,1-1.05-1"/><path class="cls-2" d="M209,39.86a1.06,1.06,0,1,1,2.11,0,1.06,1.06,0,0,1-2.11,0"/><path class="cls-2" d="M206.05,39.86a1.05,1.05,0,1,1,1,1,1.05,1.05,0,0,1-1-1"/><path class="cls-2" d="M203.13,39.86a1.05,1.05,0,1,1,1.05,1,1.05,1.05,0,0,1-1.05-1"/></g></g></svg>