<svg xmlns="http://www.w3.org/2000/svg" width="750.54" height="630" viewBox="0 0 750.54 536.94"><g id="レイヤー_2" data-name="レイヤー 2"><g id="DESIGN"><path d="M118.26,522.26H91.41v13.92c0,.52-.23.76-.66.76H87.66a.63.63,0,0,1-.71-.71v-38c0-.76.33-1.14,1.14-1.14h30.17a1,1,0,0,1,1.09,1.14v22.86C119.35,521.92,119,522.26,118.26,522.26Zm-3.37-20.77H91.41v16.4h23.48Z" style="fill:#bca475"/><path d="M164.29,536.75h-29.6c-.81,0-1.14-.33-1.14-1.09V497.78c0-.52.24-.75.67-.75h3.13c.48,0,.67.33.67.75v34.64H161V497.78c0-.52.24-.75.71-.75h3.09c.43,0,.66.23.66.75v37.83C165.43,536.42,165.06,536.75,164.29,536.75Z" style="fill:#bca475"/><path d="M212.13,536.94h-3.51a.85.85,0,0,1-.81-.43l-10.64-17.06H184.39v16.78c0,.52-.24.71-.67.71h-3.09c-.47,0-.71-.19-.71-.67v-38c0-.76.33-1.14,1.14-1.14h30.08a1,1,0,0,1,1.14,1.14v20a1,1,0,0,1-1.14,1.14H202L212.75,536a1.41,1.41,0,0,1,.24.52C213,536.84,212.66,536.94,212.13,536.94Zm-4.32-35.45H184.39v13.69h23.42Z" style="fill:#bca475"/><path d="M258.45,536.75H228.8c-.76,0-1.19-.33-1.19-1.09V498.31a1.06,1.06,0,0,1,1.19-1.19h29.65a.65.65,0,0,1,.72.71v2.9c0,.52-.24.71-.76.71H232.08v13h24.81c.47,0,.71.24.71.76V518c0,.52-.24.76-.71.76H232.08v13.78h26.37c.48,0,.72.19.72.66v2.9C259.17,536.56,258.93,536.75,258.45,536.75Z" style="fill:#bca475"/><path d="M329.52,536.75H299.26c-.48,0-.72-.19-.72-.67v-2.94a.64.64,0,0,1,.72-.72h27V518.88H299.68c-.76,0-1.14-.28-1.14-1V498.26a1,1,0,0,1,1.1-1.14h30.12c.52,0,.71.24.71.66v3c0,.52-.23.71-.71.71h-26.7v13.31h26.51a1,1,0,0,1,1.09,1.09v19.77C330.66,536.42,330.28,536.75,329.52,536.75Z" style="fill:#bca475"/><path d="M376.41,501.49H362.26v34.64c0,.48-.2.71-.72.71h-3c-.52,0-.71-.19-.71-.71V501.49H344c-.48,0-.72-.24-.72-.76v-2.85c0-.52.2-.76.67-.76h32.45c.53,0,.72.24.72.76v2.85C377.13,501.25,376.94,501.49,376.41,501.49Z" style="fill:#bca475"/><path d="M422.21,536.94h-3.52a.84.84,0,0,1-.8-.43l-10.65-17.06H394.46v16.78c0,.52-.24.71-.66.71h-3.09c-.48,0-.72-.19-.72-.67v-38a1,1,0,0,1,1.14-1.14h30.08a1,1,0,0,1,1.14,1.14v20a1,1,0,0,1-1.14,1.14h-9.12L422.83,536a1.6,1.6,0,0,1,.24.52C423.07,536.84,422.73,536.94,422.21,536.94Zm-4.32-35.45H394.46v13.69h23.43Z" style="fill:#bca475"/><path d="M468.53,536.75H438.88c-.76,0-1.19-.33-1.19-1.09V498.31a1.06,1.06,0,0,1,1.19-1.19h29.65a.65.65,0,0,1,.71.71v2.9c0,.52-.24.71-.76.71H442.16v13H467c.48,0,.71.24.71.76V518c0,.52-.23.76-.71.76h-24.8v13.78h26.37c.47,0,.71.19.71.66v2.9C469.24,536.56,469,536.75,468.53,536.75Z" style="fill:#bca475"/><path d="M514.71,536.84h-3.14a1,1,0,0,1-.85-.38l-22.86-31.93v31.6c0,.48-.19.71-.66.71h-3.05c-.42,0-.66-.23-.66-.71V498a.78.78,0,0,1,.85-.9h2.81a1,1,0,0,1,.8.43l23.29,32.26V497.64a.63.63,0,0,1,.71-.71h3a.68.68,0,0,1,.67.76v38.25A.83.83,0,0,1,514.71,536.84Z" style="fill:#bca475"/><path d="M561.84,536.75H531.19c-.81,0-1.14-.33-1.14-1.09V498.21c0-.76.33-1.09,1.14-1.09H562c.52,0,.76.19.76.66v3c0,.52-.29.71-.76.71H534.51v31.08h24V519H546.25c-.48,0-.67-.29-.67-.77V515.6c0-.52.19-.71.62-.71h15.64A1,1,0,0,1,563,516v19.58A1,1,0,0,1,561.84,536.75Z" style="fill:#bca475"/><path d="M608.91,501.49H594.75v34.64c0,.48-.19.71-.71.71h-3c-.52,0-.71-.19-.71-.71V501.49H576.51c-.48,0-.72-.24-.72-.76v-2.85c0-.52.19-.76.67-.76h32.45c.53,0,.72.24.72.76v2.85C609.63,501.25,609.44,501.49,608.91,501.49Z" style="fill:#bca475"/><path d="M654.42,536.94h-3c-.47,0-.81-.19-.81-.67v-18H626.91v18c0,.48-.19.67-.66.67h-3.09c-.43,0-.71-.19-.71-.67V497.64c0-.47.19-.71.71-.71h3.09a.63.63,0,0,1,.66.71V514h23.71v-16.4a.63.63,0,0,1,.72-.71h3a.67.67,0,0,1,.71.71v38.63C655,536.75,654.9,536.94,654.42,536.94Z" style="fill:#bca475"/><path d="M276.84,395.42H260.12c-.41,0-.63-.19-.63-.56v-11c0-.47.22-.65.63-.65h14.62v-7.39H259.89a.35.35,0,0,1-.37-.39v-1.58c0-.29.13-.4.37-.4h16.66a.55.55,0,0,1,.63.61v10.8c0,.42-.21.63-.65.63H261.94v7.57h14.9c.26,0,.37.13.37.42v1.58C277.21,395.31,277.1,395.42,276.84,395.42Z" style="fill:#bca475"/><path d="M307.6,395.55h-1.71c-.26,0-.36-.11-.36-.37v-6.52H290.89c-.45,0-.63-.18-.63-.63V373.76c0-.26.1-.39.39-.39h1.68c.27,0,.4.13.4.42v12.48h12.8V373.76c0-.29.1-.39.36-.39h1.71c.24,0,.4.1.4.39v21.39A.38.38,0,0,1,307.6,395.55Z" style="fill:#bca475"/><path d="M338.84,395.39h-17c-.44,0-.63-.18-.63-.6V374.07c0-.42.19-.6.63-.6h17c.28,0,.42.11.42.37v1.63c0,.29-.16.39-.42.39h-15.2v17.19H337v-7.46h-6.78c-.27,0-.37-.16-.37-.42v-1.48c0-.28.1-.39.34-.39h8.65a.56.56,0,0,1,.63.63v10.83C339.47,395.21,339.26,395.39,338.84,395.39Z" style="fill:#bca475"/><path d="M370.26,387.53h-7.39v7.52c0,.29-.11.42-.39.42h-1.66c-.29,0-.42-.11-.42-.42v-7.52h-7.07c-.42,0-.61-.18-.61-.6V373.84c0-.26.11-.4.37-.4h1.74a.36.36,0,0,1,.37.4v11.3h13.22v-11.3c0-.26.1-.4.39-.4h1.68a.36.36,0,0,1,.4.4V386.9C370.89,387.35,370.68,387.53,370.26,387.53Z" style="fill:#bca475"/><path d="M404.46,395.44h-1.68c-.24,0-.34-.13-.34-.39V377.6L395.58,391a.56.56,0,0,1-.5.24h-1.26a.47.47,0,0,1-.45-.24l-6.86-13.35v17.45c0,.26-.11.39-.34.39h-1.68c-.24,0-.35-.13-.35-.39V373.94a.47.47,0,0,1,.48-.52h1.78a.71.71,0,0,1,.61.31l7.52,14.38,7.36-14.35a.62.62,0,0,1,.65-.34h1.79c.32,0,.47.16.47.52v21.11C404.8,395.31,404.7,395.44,404.46,395.44Z" style="fill:#bca475"/><rect x="216.69" y="188.28" width="127.07" height="80.07" style="fill:none;stroke:#bca475;stroke-miterlimit:10;stroke-width:3.95333772750027px"/><polygon points="376.71 94.44 242.49 162 362.02 162 367.93 168.86 367.93 287.76 362.02 294.62 216.69 294.62 216.69 391.46 376.62 460.01 516.28 400.15 423.8 400.15 419.86 396.16 419.86 378.45 423.8 374.17 549.92 374.17 549.92 292.79 403.1 292.79 396.8 286.5 396.8 168.86 402.84 162 510.76 162 376.71 94.44" style="fill:none;stroke:#bca475;stroke-miterlimit:10;stroke-width:3.95333772750027px"/><polygon points="574.35 274.51 574.35 375.27 599.87 364.33 599.87 206.75 562.51 187.99 421.75 187.99 421.75 267.94 568.31 267.94 574.35 274.51" style="fill:none;stroke:#bca475;stroke-miterlimit:10;stroke-width:3.95333772750027px"/><polygon points="153.38 364.33 192.51 381.1 192.51 187.1 153.38 208.69 153.38 364.33" style="fill:none;stroke:#bca475;stroke-miterlimit:10;stroke-width:3.95333772750027px"/><polygon points="664.26 328.16 689.05 314.23 689.05 264.59 664.26 248.51 664.26 328.16" style="fill:#bca475"/><polygon points="698.93 308.68 712.57 301.02 730.74 290.27 712.57 279.83 698.93 270.99 698.93 308.68" style="fill:#bca475"/><polygon points="621.12 352.39 654.18 333.82 654.18 241.97 621.12 220.53 621.12 352.39" style="fill:#bca475"/><polygon points="87.7 328.16 62.91 314.23 62.91 264.59 87.7 248.51 87.7 328.16" style="fill:#bca475"/><polygon points="53.03 308.68 39.4 301.02 19.68 290.27 39.4 279.83 53.03 270.99 53.03 308.68" style="fill:#bca475"/><polygon points="130.84 352.39 97.78 333.82 97.78 241.97 130.84 220.53 130.84 352.39" style="fill:#bca475"/><path d="M17.92,14.68v6.79H13.27V36.14c2.09-.68,3.5-1.2,5.17-1.82a40,40,0,0,0-.52,5.53c0,.68,0,1.15.1,1.78C13.84,43.3,5.22,46,3.66,46.43c-.37,1.1-.53,1.41-.89,1.41-.52,0-.68-.47-.79-.88L0,39.49c3.34-.68,4.54-1,5.59-1.26V21.47H1.25V14.68H5.59V2.4l8.46.52a.61.61,0,0,1,.68.58c0,.42-.37.57-1.46.94V14.68Zm12.64,2.71V1.72l7.67.47c.32,0,.79.16.79.58s-.26.52-1.26.94V14.42l7.11-3L48.05,13V32c0,1.61,0,4.28-3.13,5.43A17.4,17.4,0,0,0,50,40.22c-1.31,7.31-3.87,8.56-9.67,8.56H28.31c-3.45,0-7.84-.47-7.84-6.79V29.2l-3.76,1.56-2.56-6.52,6.32-2.62V5.28l8.1.57c.26,0,.84.05.84.57s-.26.53-1.36.94V18.44ZM28.05,26V39.38c0,1.1,0,2.61,2.09,2.61h8.67c2.92,0,3.86-1,4.33-4.28a27.75,27.75,0,0,1-3.08.16,16.63,16.63,0,0,0-2.3-7.26v7.26h-7.2V25Zm9.71-4.07v8.51a9.38,9.38,0,0,0,1.62.16c1.31,0,1.31-.73,1.31-1.67v-8.2Z" style="fill:#fff"/><path d="M73.22,14.42V8.62H88.16V1.46l7,.47c.21,0,.78.05.78.53s-.31.62-.78,1c0,.78-.21,2-.26,5.17h3.86a34.48,34.48,0,0,0-3.6-4L100,1.15A18,18,0,0,1,104,6a15.29,15.29,0,0,0-3.5,2.67h3.91v5.8H94.85a76,76,0,0,0,.57,10.44,50.2,50.2,0,0,0,2.09-8.56l6.89,2c.21.06.79.26.79.68,0,.58-.68.79-1.31,1a57.16,57.16,0,0,1-6.11,15.2c1.57,3.24,1.72,3.61,2.3,3.61s1.2-2.41,1.41-3.19a15.78,15.78,0,0,0,5,4.13c-1.2,5.12-3.5,9.24-6.26,9.24-3.45,0-6.27-6-7.16-7.83A44.59,44.59,0,0,1,82,49.78a23.24,23.24,0,0,0-4.71-5.59,31.71,31.71,0,0,0,8.1-4.7c-.84.31-4.75,1.72-5.07,1.82-5.85,1.78-6.47,2-6.89,2.09-.16.53-.58,1.1-1.1,1.1a.83.83,0,0,1-.78-.73l-.78-4.91c-1.68.89-9.35,4.54-10.92,5.28,0,.62-.11,1.61-.84,1.61a.75.75,0,0,1-.73-.67l-1.62-7.21a51.78,51.78,0,0,0,5.33-1.73V20.58h-4.6v-6.9h4.6V2.61L69.1,3a.64.64,0,0,1,.68.57c0,.42-.37.78-1.1,1.2v8.93h3.71v6.9H68.68v13a42.34,42.34,0,0,0,4-1.77,24.08,24.08,0,0,0,.16,5,108.89,108.89,0,0,0,15.3-3.87,29.18,29.18,0,0,0,0,4.23,25.49,25.49,0,0,0,2.51-2.82c-1.26-4.65-2.15-9.45-2.35-19.84Zm14.11,2.35V32.49h-8V34H73.64V16.77Zm-8,5.69v4.28h2.41V22.46Z" style="fill:#fff"/><path d="M137.77,42.57a24.91,24.91,0,0,0,5.38-3,37.41,37.41,0,0,1-4.28-5.75l3.55-2.45h-3.34V26H156l2.82,2.45a31,31,0,0,1-6,11.13,29,29,0,0,0,7.88,3.92,22.8,22.8,0,0,0-4.33,5.69,56,56,0,0,1-8-4.91,28.63,28.63,0,0,1-7.16,4.91,17.53,17.53,0,0,0-3.4-4.07v4h-7.36V43.61c-4.44,1.2-9.4,2.2-14,3-.36.58-.62.94-1,.94s-.73-.57-.84-1.25l-1-6a33.41,33.41,0,0,0,4.23-.21V24.39h-4.23V19.27h47.69v5.12H137.77ZM155,2.3V17.6H119.91V2.3ZM130.41,24.39h-5.07v1.93h5.07Zm0,6.17h-5.07v1.93h5.07Zm0,6.21h-5.07v2.46c3.29-.53,3.66-.58,5.07-.89ZM147.75,8.3V6.74H127.12V8.3Zm-20.63,3.56v1.67h20.63V11.86Zm17.71,19.48a24.05,24.05,0,0,0,2.92,3.81,14.46,14.46,0,0,0,2.35-3.81Z" style="fill:#fff"/><path d="M169.79,21.05V13.53h19.79V.63l8.2.41c.32,0,1,.06,1,.68,0,.42-.53.68-1,.84v11h19.43v7.52H197.94c4.54,13.47,14,19.48,20.27,22.56-4.39,3.4-5.38,5.07-6.06,6.22-5.28-2.35-13.58-9.61-18.34-19.22C187.39,43.14,178.93,47.43,173.44,50a18.44,18.44,0,0,0-5.53-6.95c4.38-1.72,17.44-6.69,20.89-22Z" style="fill:#fff"/><path d="M239.88,49.15h-7.06V32.33a1.11,1.11,0,0,1-.88.26,84.51,84.51,0,0,1-1.41,11.91,24.74,24.74,0,0,0-6.17-1.36,52.79,52.79,0,0,0,1.94-12.53l5.64.52c.47.05.68.05.88.21V28.62c-.73.11-5.32.63-5.69.63,0,.47-.1.89-.57.89s-.47-.53-.52-.89l-1-6.37c2.51-.06,3.4-.06,4.55-.11.62-.78,1.51-2.14,2.29-3.24-2.35-2.45-2.82-2.82-7.15-6.16l3.86-5.54c.27.16.58.42,1,.74A53.61,53.61,0,0,0,233.29,1l5.86,2.67c.41.21,1,.47,1,.83,0,.52-.58.79-1.67.68-.58,1.15-3.5,6.22-4.13,7.21.68.63,1,.83,1.41,1.2,1.2-2,3.08-5.17,3.81-6.69L245.41,10c.26.16.68.36.68.78,0,.68-.78.63-1.72.58-.84,1.35-4.13,6.42-4.76,7.31l5-1.93A88.24,88.24,0,0,1,248,25.44c.16-2.15.16-3.5.16-15.88h-3.5V2.4h20.11l3.13,2.2c-.83,4-2.51,9.55-2.71,10.13h8.51c-.73,6.11-2.93,15.46-7,22.56a38,38,0,0,0,8,6.32c-1.3,1.1-1.72,1.52-5.11,5.49A60,60,0,0,1,262.44,43a46.62,46.62,0,0,1-7.26,6.37c-1.15-1.78-4.44-4.07-6.22-4.81a19.08,19.08,0,0,1-3.91,4.6A16.52,16.52,0,0,0,239.88,46ZM237,22.41c1.73-.11,2.82-.21,3.61-.32-.63-1.56-.94-2.35-1.26-3C238.57,20.27,237.53,21.73,237,22.41Zm8.78,6.74c.26,1.51.47,2.66.83,4a32.35,32.35,0,0,0,1.21-6c-1.36.37-2.46.73-5,1.67a11.07,11.07,0,0,0-.42-1.35c-.36,0-1.82.26-2.5.31V44a27.57,27.57,0,0,0,3.65-4.55,12.6,12.6,0,0,0-1.2.47,42.21,42.21,0,0,1-1.93-9.4ZM258,37.71a44.7,44.7,0,0,1-3.76-6.42,39.15,39.15,0,0,1-5,12.9A29.32,29.32,0,0,0,258,37.71Zm-3.13-22a57.29,57.29,0,0,0,1.67,5.49c.89-2.56,2.56-8.83,3.24-11.65h-5.12Zm2,6.32A38,38,0,0,0,261.92,32,33.09,33.09,0,0,0,265.16,22Z" style="fill:#fff"/><path d="M306.52,40.17c11.33-2.09,14.67-10.87,14.67-16.3,0-4.23-2.24-12-12.06-12.8-1.62,19.12-9.51,33.38-15,33.38-4.08,0-11.65-6.9-11.65-16.56,0-11.23,10.24-24.34,25.59-24.34,11.44,0,21.42,7.78,21.42,20.27A24.32,24.32,0,0,1,323.28,40c-3.18,3.71-6.89,5.64-11.33,7.57A33.48,33.48,0,0,0,306.52,40.17ZM290.17,27.26c0,4,2.25,7.06,3.34,7.06,1.26,0,2.25-2.35,2.82-3.71a45.58,45.58,0,0,0,4-18C294.3,14.89,290.17,22.56,290.17,27.26Z" style="fill:#fff"/><path d="M338.16,16.82V9.92H358V1.15l7.52.47c1.31.1,1.47.47,1.47.73s-.21.57-1.1,1.15V9.92h19.9v6.9H369A49.32,49.32,0,0,0,387.26,37c-3.45,2.77-4.49,3.76-5.69,6a61.72,61.72,0,0,1-7.94-7.42v6.16H365.9V49.1H358V41.73h-7.78V35.52a63.81,63.81,0,0,1-8,7.47c-1.2-2.3-2.3-3.29-5.69-6a48.29,48.29,0,0,0,18.28-20.16ZM358,24.76A59.13,59.13,0,0,1,351,34.68H358Zm14.89,9.92a57.86,57.86,0,0,1-7-9.82v9.82Z" style="fill:#fff"/><path d="M435.62,6.11,439,8.62c-3.29,6.16-4.76,8.72-7.47,12.22A49.15,49.15,0,0,0,443,27.21a21.31,21.31,0,0,0-3.55,4.55V48.94H432V47.22H422v1.72h-7.42V34.37c-.68.31-1.15.57-2.14.94a20.44,20.44,0,0,0-3.81-5.9,39.3,39.3,0,0,0,13.21-8.15c-1.46-1.62-2.56-3.08-2.77-3.34-1.2,1.56-2.35,2.82-3.44,4a23.33,23.33,0,0,0-5.07-3.24c.21-.26.63-.73.94-1.1h-2.87a25.87,25.87,0,0,0,5.9,7.37,21.93,21.93,0,0,0-5,4c-.58-.94-1.05-1.73-1.57-2.61V48.94h-7.16V33.38c-1.2,3.29-1.77,4.59-2.4,6a33.33,33.33,0,0,0-5.95-4c3.91-5.22,6.21-11.44,7.94-17.76h-6V10.71h6.42V1.41l7.42.42c.63,0,1,.15,1,.57s-.26.58-1.25,1.2v7.11h5.22v4.54c3.14-4.7,5.38-8.15,7.52-14.15L427.63,3c.37.1.94.31.94.73s-.37.52-1.36.68c-.31.57-.62,1.2-.94,1.72ZM422,40.84h10V34.79H422ZM423,12l-.1.21a29.13,29.13,0,0,0,3.5,4.23c2.29-2.77,2.61-3.6,3-4.44ZM431.81,29a53.24,53.24,0,0,1-4.55-3.55A39.43,39.43,0,0,1,423.09,29Z" style="fill:#fff"/><path d="M485.65,45.18h-35.1c.68-9.14,5.8-12.9,16.87-20.42,8.41-5.75,8.41-7,8.41-9.14,0-3.92-4.17-4.91-6.89-4.91-7.05,0-7.78,5-8,8.41h-9.66c.15-3.29.31-6.9,3.23-10.4C458,4.49,463.09,2.87,469,2.87c12,0,16.3,6.58,16.3,12.59a12.37,12.37,0,0,1-2.3,7.16c-2.66,3.7-13.21,10.44-13.74,10.81a28.55,28.55,0,0,0-5.32,4h21.72Z" style="fill:#fff"/><path d="M513.49,4h9.35V28.78h6.37v7.89h-6.37v8.51h-9.46V36.67H493.85V28.73Zm-.11,24.76V14.31L501.89,28.78Z" style="fill:#fff"/><path d="M555.22,5V40.48h-7.05V38.81h-2.62v4.12h-7V5Zm-7.05,13.53V11.65h-2.62v6.89Zm-2.62,6.69v7.1h2.62v-7.1Zm34.89,2.14h4.65v6.68h-4.65v9.46c0,5.22-3.7,6.16-11.49,5.74a13.18,13.18,0,0,0-2.77-7.73c-.62.53-3,2.82-3.55,3.29a44.17,44.17,0,0,0-6-7.46l4-3.3h-3.86V27.37H572.5v-4H556.1V16.66h9.82V13.42h-8.51V6.63h8.51V1.31l8.83.2a.57.57,0,0,1,.58.63c0,.42-.16.52-1.31,1v3.5h9.61v6.79H574v3.24h11.44v6.69h-4.13c.11.15.16.21.16.36s-.11.47-1,1Zm-7.94,6.68h-8.72a29.92,29.92,0,0,1,4.7,5.54c-.62.52-.83.68-2.14,1.78a46.4,46.4,0,0,0,4.86.62c1.1,0,1.3-.57,1.3-1.77Z" style="fill:#fff"/><path d="M616.11,2.3V20.47H602V49.15h-7.31V2.3ZM609,9V6.89h-7V9Zm-7,4.07V15.3h7V13.11Zm11.18,30.4v1.67h-6.79V23H629V41.78a24,24,0,0,0,2.87.27c1.36,0,1.41-.53,1.41-1.83V20.47H618.83V2.3h21.52V42.88c0,5.28-1.83,6.16-9.67,6.63a17.44,17.44,0,0,0-1.77-6Zm9-12.69v-2.3h-9v2.3Zm-9,4.85V38h9V35.67ZM633,9V6.89H626V9ZM626,13.11V15.3H633V13.11Z" style="fill:#fff"/><path d="M656.38,12.27a76.24,76.24,0,0,1,12.22,7.16c-1.52,1.88-2.09,2.72-5.07,7a54.94,54.94,0,0,0-11.91-7.11Zm-1.62,28.21A73.51,73.51,0,0,0,691,12.64c2.45,4.86,4.38,6.16,5.38,6.84a73.46,73.46,0,0,1-14.16,15.15,93.41,93.41,0,0,1-21.31,12.9c-.1.57-.26,1.25-.83,1.25-.32,0-.63-.41-.84-.73ZM661.44.84A60.07,60.07,0,0,1,674.5,6.89a59,59,0,0,0-4.86,6.9A58.08,58.08,0,0,0,657,7.21Zm23.3,3c1.62,1.2,4.75,3.81,6,5-.58.47-2.67,2.56-4,3.81a63.33,63.33,0,0,0-5.91-5.33Zm5-3.87a43.43,43.43,0,0,1,5.59,5.07,25.51,25.51,0,0,0-3.55,3.23,46.29,46.29,0,0,0-5.69-5.06Z" style="fill:#fff"/><path d="M737.75,19.64c5.33,6.48,11.18,15.77,12.79,20.37-2.4,1.77-5.27,3.92-7.1,5.48-.63-1.67-1.25-3.34-2.4-5.85-12.17,2.25-19.95,3.45-33.95,5.07-.11.47-.37,1-.78,1s-.68-.57-.79-1l-2-8c2.45,0,3.81-.1,5.48-.21,3.76-6.94,9.61-22,12.17-33.89l9,2.3c.47.1.94.26.94.73,0,.73-.84.88-1.26,1-.88,2.24-4.49,12.33-5.32,14.36s-3.82,9.51-6.53,14.84c5-.53,11.12-1.26,19.17-2.77a61.17,61.17,0,0,0-6.79-9Z" style="fill:#fff"/></g></g></svg>