<?xml version="1.0" encoding="UTF-8"?><svg id="_レイヤー_2" xmlns="http://www.w3.org/2000/svg" viewBox="0 0 419.7 83.44"><defs><style>.cls-1{fill:#54c2f0;}.cls-1,.cls-2,.cls-3{stroke-width:0px;}.cls-2{fill:#fff;}.cls-3{fill:#4d4d4d;}</style></defs><g id="DESIGN"><path class="cls-3" d="M2.86,73.82c-.26,0-.4-.21-.4-.4,0-.21.14-.42.43-.43,1.18-.05,3.63-.1,5.28-.1.94,0,1.39.48,1.39,1.02,0,.19-.05.4-.16.59-.56,1.01-1.2,1.98-1.95,2.91,1.38.83,4.56,2.99,4.56,3.83,0,.29-.24.53-.5.53-.14,0-.27-.06-.4-.21-.85-1.06-2.79-2.71-4.21-3.51-2.42,2.72-5.36,3.95-5.73,3.95-.27,0-.46-.21-.46-.43,0-.18.11-.35.4-.46,4.72-1.79,7.38-6.48,7.38-7.06,0-.34-.34-.34-.85-.34-1.17,0-3.44.06-4.77.1h-.02Z"/><path class="cls-3" d="M15.73,82.88c-.29,0-.46-.19-.46-.4,0-.16.13-.35.42-.46,2.46-.9,4.35-2.39,5.86-4.19-.78-.48-1.63-.88-2.37-1.09-.16-.05-.24-.18-.24-.32,0-.21.14-.42.42-.42.26,0,1.44.42,2.72,1.15.46-.62,2-2.99,2-3.49,0-.24-.16-.35-.43-.35-.37,0-2.69.16-3.51.26-1.25,1.66-3.38,4.08-4.11,4.08-.24,0-.42-.18-.42-.4,0-.16.1-.34.32-.48,1.57-.99,3.92-3.94,4.55-5.39.11-.26.29-.35.46-.35.26,0,.51.21.51.48,0,.18-.22.51-.74,1.26.37-.03,2.79-.22,3.2-.22.77,0,1.18.4,1.18.98,0,.24-.08.53-.24.82-.64,1.18-1.31,2.27-2.05,3.28.86.59,1.63,1.22,1.63,1.6,0,.26-.21.46-.45.46-.11,0-.24-.05-.35-.18-.35-.4-.82-.82-1.36-1.2-2.79,3.44-6.29,4.58-6.55,4.58Z"/><path class="cls-3" d="M30.68,78.46c-.24-.5-.72-1.1-1.12-1.46-.1-.08-.13-.18-.13-.27,0-.21.21-.43.45-.43.42,0,1.65,1.54,1.65,1.95,0,.27-.22.48-.46.48-.14,0-.29-.08-.38-.27ZM30.64,83.05c-.27,0-.42-.19-.42-.42,0-.16.08-.34.29-.42,2.83-1.18,4.69-3.57,5.38-6.39.06-.26.24-.37.43-.37.24,0,.5.18.5.46,0,.03-.94,4.83-5.89,7.06-.11.05-.21.06-.29.06ZM32.85,77.59c-.18-.53-.54-1.18-.9-1.58-.06-.08-.1-.14-.1-.22,0-.21.21-.4.43-.4.53,0,1.44,1.74,1.44,2.08,0,.27-.24.46-.46.46-.18,0-.34-.1-.42-.34Z"/><path class="cls-3" d="M41.08,73.67c-.29,0-.46-.22-.46-.46,0-.21.16-.43.48-.45,1.49-.06,3.44-.1,5.19-.1.75,0,1.47,0,2.1.02.93.02,1.49.54,1.49,1.28,0,.18-.05.37-.11.58-1.1,3.19-3.11,6.29-7.54,7.97-.13.05-.24.06-.34.06-.34,0-.53-.22-.53-.46,0-.19.14-.4.43-.5,5.55-1.76,7.01-7.03,7.01-7.54s-.34-.56-1.57-.56c-1.7,0-4.16.1-6.13.16h-.02Z"/><path class="cls-3" d="M58.12,73.4c-.18,1.3-.51,2.71-.99,4.07,1.63,1.14,1.66,1.52,1.66,1.63,0,.26-.22.48-.46.48-.11,0-.22-.06-.32-.18-.3-.38-.72-.77-1.18-1.12-1.22,3.07-2.93,4.87-3.46,4.87-.26,0-.46-.19-.46-.42,0-.1.05-.19.16-.29,1.33-1.09,2.39-2.8,3.11-4.64-.7-.46-1.46-.88-2.05-1.15-.14-.06-.21-.18-.21-.29,0-.21.19-.43.43-.43.21,0,1.34.62,2.11,1.09.42-1.23.69-2.48.82-3.62h-3.71c-.26,0-.38-.19-.38-.38s.13-.38.38-.38h2.47v-2.56c0-.26.22-.37.43-.37.22,0,.43.11.43.37l-.02,2.56h2.27c.24,0,.37.19.37.38s-.13.38-.37.38h-1.02ZM63.97,73.99l-4.02.02c-.26,0-.38-.19-.38-.38,0-.21.13-.4.38-.4l4.02.02v-3.09c0-.29.21-.43.43-.43.21,0,.42.14.42.43v3.09l1.83-.02c.27,0,.42.19.42.38,0,.21-.14.4-.42.4l-1.83-.02v5.41l.03,1.86v.03c0,1.01-.59,1.9-2.34,1.9-.45,0-.96-.06-1.57-.19-.29-.06-.42-.27-.42-.46,0-.21.14-.4.4-.4.03,0,.08,0,.13.02.56.13,1.07.21,1.49.21.9,0,1.42-.34,1.42-1.18v-7.19ZM61.97,78.62c-.5-.66-1.47-1.5-2.16-1.9-.14-.08-.19-.19-.19-.29,0-.19.19-.37.43-.37.43,0,2.71,1.66,2.71,2.24,0,.27-.24.48-.48.48-.11,0-.22-.05-.3-.16Z"/><path class="cls-3" d="M75.06,69.98c0-.3.22-.45.45-.45s.45.14.45.45l-.02,1.55c2.08,0,4.21.02,5.31.03.26,0,.37.19.37.37s-.13.37-.37.37c-.98-.02-2.91-.03-4.85-.03s-3.81.02-4.71.03c-.77.02-1.12.35-1.12,1.02,0,.61.02,1.25.02,1.9,0,2.55-.16,5.38-1.62,7.52-.13.18-.29.26-.43.26-.22,0-.43-.18-.43-.38,0-.06.02-.13.06-.19,1.36-2,1.57-4.37,1.57-6.72,0-.8-.02-1.6-.03-2.39v-.05c0-1.06.51-1.7,1.89-1.71.88-.02,2.13-.03,3.46-.03v-1.55ZM71.11,81.42c-.22,0-.43-.16-.43-.38,0-.1.05-.19.13-.29.7-.82,1.23-1.92,1.49-3.04.05-.22.24-.34.42-.34.21,0,.42.14.42.42,0,.48-.88,2.59-1.6,3.43-.13.14-.27.21-.42.21ZM75.16,75.91c-.08,2.13-.13,3.92-.14,5.47,0,.9.72.98,1.57.98,2.11,0,2.35-.51,2.35-1.84,0-.3.21-.43.43-.43.24,0,.48.16.48.43v.06c0,2.05-1.09,2.53-3.2,2.53-1.58,0-2.46-.32-2.46-1.63,0-1.55.08-3.43.11-5.55,0-.26.22-.38.43-.38.22,0,.43.13.43.35v.02ZM77.59,75.23c-.67-.56-1.78-1.06-2.69-1.3-.21-.06-.3-.21-.3-.35,0-.19.16-.38.42-.38.42,0,2.42.75,3.14,1.34.13.1.18.22.18.35,0,.24-.19.45-.43.45-.1,0-.21-.03-.3-.11ZM81.31,80.24c-.59-1.07-1.42-1.84-2.37-2.56-.11-.08-.16-.19-.16-.29,0-.19.21-.38.43-.38.5,0,2.96,2.35,2.96,2.96,0,.29-.26.51-.5.51-.14,0-.27-.08-.37-.24Z"/><path class="cls-3" d="M86.64,80.83c-.26,0-.51,0-.77-.02-.74-.05-1.2-.61-1.22-1.34-.02-.99-.02-2.35-.02-3.68s0-2.64.02-3.54c.03-1.28,1.17-1.3,2.03-1.3.26,0,.51.02.74.03.78.05,1.28.58,1.3,1.2.03.93.05,2.15.05,3.39,0,1.42-.02,2.87-.05,3.89-.03,1.28-.96,1.36-2.08,1.36ZM87.97,75.27c0-1.09,0-2.13-.03-2.87-.03-.69-.48-.74-1.25-.74s-1.22.02-1.25.75c-.02.66-.03,1.71-.03,2.85h2.56ZM85.41,75.99c0,1.28.02,2.54.03,3.33.02.69.3.75,1.23.75.75,0,1.25-.05,1.26-.77.03-.86.03-2.08.03-3.31h-2.56ZM89.7,75.21c-.26,0-.38-.18-.38-.35,0-.19.13-.37.38-.37l3.31.02-.02-2.05-2.48.02c-.26,0-.38-.18-.38-.35s.13-.37.38-.37l2.48.02v-1.76c0-.26.21-.38.42-.38.22,0,.43.13.43.38v1.76l2.74-.02c.24,0,.37.18.37.35,0,.19-.13.37-.37.37l-2.74-.02v2.05l3.65-.02c.24,0,.35.18.35.35,0,.19-.11.37-.35.37h-7.79ZM94.69,77.96l-4.99.02c-.26,0-.37-.18-.37-.35,0-.19.13-.38.37-.38l4.98.02v-1.1c0-.26.21-.37.42-.37.19,0,.4.11.4.37l.02,1.1,2.06-.02c.22,0,.34.18.34.37,0,.18-.11.37-.34.37l-2.06-.02.02,2.02.05,1.6v.1c0,.75-.34,1.65-2.08,1.65-1.55,0-1.58-.34-1.58-.54s.14-.42.4-.42h.08c.46.08.88.14,1.23.14.67,0,1.09-.24,1.09-1.01l-.02-3.54ZM92.46,80.89c-.5-.66-1.42-1.17-1.84-1.38-.13-.06-.19-.16-.19-.26,0-.19.19-.38.42-.38.38,0,2.34,1.12,2.34,1.75,0,.26-.18.46-.4.46-.1,0-.22-.06-.32-.19Z"/><path class="cls-3" d="M100.25,83.05c.11-2.98.1-8.13.11-11.59,0-1.38,1.07-1.38,2.5-1.38.54,0,1.1,0,1.41.02.83.03,1.28.51,1.31,1.09.02.45.03.99.03,1.52,0,.37-.02.74-.02,1.06-.03,1.3-1.02,1.3-3.03,1.3-.46,0-.96,0-1.38-.03v1.62c0,1.86-.02,4.08-.06,6.39,0,.27-.22.4-.45.4s-.43-.13-.43-.37v-.02ZM104.84,72.25c0-1.41,0-1.47-1.81-1.47s-1.84.08-1.84,1.47h3.65ZM101.19,72.89v1.47c.42.03,1.1.03,1.73.03,1.87,0,1.9-.02,1.9-1.5h-3.63ZM107.64,81.56c-.46.03-.9.05-1.33.05-.37,0-.75-.02-1.15-.05-.93-.06-1.49-.59-1.5-1.3v-.69c0-.74.02-1.58.05-2.24.03-.64.53-1.22,1.42-1.26.48-.03.9-.03,1.31-.03s.82,0,1.23.03c.85.05,1.33.59,1.38,1.18.05.61.06,1.34.06,2.03,0,.35,0,.67-.02.96-.03.72-.56,1.26-1.46,1.31ZM108.32,77.5c-.03-.77-.78-.78-1.74-.78-.4,0-.83,0-1.22.02-.64.02-.9.45-.91.75-.02.22-.03.58-.03.93h3.92l-.02-.91ZM104.41,79.05v.75c0,.93.24,1.09,1.98,1.09,1.01,0,1.92,0,1.95-.82v-1.02h-3.94ZM110.43,75.07c-.69,0-1.34-.02-1.71-.03-1.02-.05-1.39-.59-1.41-1.26,0-.3-.02-.66-.02-1.02,0-.53.02-1.07.03-1.55.02-.59.46-1.06,1.28-1.09.3-.02.9-.02,1.47-.02.43,0,.83,0,1.1.02,1.17.05,1.5.69,1.5,1.3.03,2.72.03,5.67.03,8.08,0,.77.02,1.46.02,2.02,0,.98-.34,1.86-2.13,1.86-1.28,0-1.41-.16-1.41-.48,0-.21.14-.42.38-.42h.06c.42.06.75.1,1.06.1.77,0,1.14-.27,1.15-1.15,0-.21.02-.5.02-5.38v-.99c-.43.03-.94.03-1.44.03ZM111.84,72.25c0-1.47-.16-1.47-1.86-1.47-1.9,0-1.9.03-1.9,1.47h3.76ZM108.08,72.89c0,1.49,0,1.5,1.98,1.5.66,0,1.39,0,1.81-.03,0-.54-.02-1.04-.02-1.47h-3.78Z"/><path class="cls-3" d="M115.76,83.15c-.06.06-.14.1-.21.1-.21,0-.43-.21-.43-.42,0-.08.03-.14.1-.21l12.97-12.95c.06-.06.14-.1.21-.1.21,0,.43.21.43.42,0,.08-.03.14-.1.21l-12.96,12.95Z"/><path class="cls-3" d="M134.16,81.96c0,.34-.27.51-.54.51-.26,0-.51-.16-.51-.48v-.02c.02-1.62.06-5.47.06-7.75,0-.8,0-1.39-.02-1.65-.03-.61-.19-.8-.83-.8-.11,0-.22,0-.37.02h-.05c-.34,0-.51-.24-.51-.48s.18-.51.51-.53c.32-.02.45-.02.78-.02.91,0,1.44.45,1.47,1.3.02.27.02.72.02,1.26,0,1.52-.03,3.89-.03,6.18,0,.83,0,1.66.02,2.43v.02Z"/><path class="cls-3" d="M141.13,81.96c0,.34-.27.51-.54.51-.26,0-.51-.16-.51-.48v-.02c.02-1.62.06-5.47.06-7.75,0-.8,0-1.39-.02-1.65-.03-.61-.19-.8-.83-.8-.11,0-.22,0-.37.02h-.05c-.34,0-.51-.24-.51-.48s.18-.51.51-.53c.32-.02.45-.02.78-.02.91,0,1.44.45,1.47,1.3.02.27.02.72.02,1.26,0,1.52-.03,3.89-.03,6.18,0,.83,0,1.66.02,2.43v.02Z"/><path class="cls-3" d="M145.94,77.03c-.48,0-.72-.32-.72-.77,0-.5.42-.72.74-.72.46,0,.77.43.77.72,0,.51-.51.77-.78.77ZM145.94,81.96c-.16,0-.72-.03-.72-.74,0-.5.42-.74.74-.74.4,0,.77.35.77.72,0,.1-.06.75-.78.75Z"/><path class="cls-3" d="M149.3,78.62c-.06-.74-.11-1.46-.11-2.18,0-.59.03-1.18.08-1.79.21-2.64,1.63-4.07,3.57-4.07s3.31,1.34,3.55,3.89c.06.72.11,1.42.11,2.11,0,1.86-.14,5.92-3.67,5.92-1.9,0-3.3-1.34-3.54-3.89ZM155.5,76.46c0-.64-.03-1.28-.1-1.87-.18-1.92-1.12-3.11-2.56-3.11s-2.4,1.25-2.58,3.19c-.05.59-.08,1.2-.08,1.81,0,2.53.38,5.14,2.66,5.14,2.64,0,2.66-3.78,2.66-5.15Z"/><path class="cls-3" d="M158.94,78.62c-.06-.74-.11-1.46-.11-2.18,0-.59.03-1.18.08-1.79.21-2.64,1.63-4.07,3.57-4.07s3.31,1.34,3.55,3.89c.06.72.11,1.42.11,2.11,0,1.86-.14,5.92-3.67,5.92-1.9,0-3.3-1.34-3.54-3.89ZM165.14,76.46c0-.64-.03-1.28-.1-1.87-.18-1.92-1.12-3.11-2.56-3.11s-2.4,1.25-2.58,3.19c-.05.59-.08,1.2-.08,1.81,0,2.53.38,5.14,2.66,5.14,2.64,0,2.66-3.78,2.66-5.15Z"/><path class="cls-3" d="M177.73,77.83c-.75,0-1.46-.24-2.05-.56-.51-.27-.98-.64-1.46-.94-.56-.37-1.25-.64-1.97-.64-.82,0-1.71.34-2.58,1.26-.13.13-.27.19-.4.19-.21,0-.38-.16-.38-.37,0-.48,1.68-1.79,3.39-1.79.77,0,1.46.21,2.06.51.51.26.99.62,1.44.91.61.38,1.28.66,2,.66.82,0,1.68-.35,2.53-1.25.13-.14.27-.21.4-.21.19,0,.35.18.35.38,0,.51-1.71,1.84-3.35,1.84Z"/><path class="cls-3" d="M188.76,82.3c-.48-.02-1.62-.02-2.77-.02s-2.29,0-2.79.02h-.03c-.58,0-.9-.3-.9-.72,0-.24.11-.53.35-.8,1.2-1.39,3.12-3.12,4.58-4.87.7-.83,1.01-1.66,1.01-2.39,0-1.42-1.12-2-2.18-2-.93,0-1.95.46-2.35,1.62-.1.29-.3.4-.5.4-.26,0-.51-.19-.51-.51,0-.51.98-2.4,3.41-2.4,2,0,3.2,1.34,3.2,2.85,0,.85-.35,1.84-1.2,2.9-1.38,1.71-3.14,3.1-4.61,4.8-.02.02-.03.05-.03.06,0,.08.1.13.21.13,1.58,0,3.84-.08,5.11-.08.4,0,.59.24.59.5s-.21.51-.58.51h-.02Z"/><path class="cls-3" d="M191.52,78.62c-.06-.74-.11-1.46-.11-2.18,0-.59.03-1.18.08-1.79.21-2.64,1.63-4.07,3.57-4.07s3.31,1.34,3.55,3.89c.06.72.11,1.42.11,2.11,0,1.86-.14,5.92-3.67,5.92-1.9,0-3.3-1.34-3.54-3.89ZM197.71,76.46c0-.64-.03-1.28-.1-1.87-.18-1.92-1.12-3.11-2.56-3.11s-2.4,1.25-2.58,3.19c-.05.59-.08,1.2-.08,1.81,0,2.53.38,5.14,2.66,5.14,2.64,0,2.66-3.78,2.66-5.15Z"/><path class="cls-3" d="M201.93,77.03c-.48,0-.72-.32-.72-.77,0-.5.42-.72.74-.72.46,0,.77.43.77.72,0,.51-.51.77-.78.77ZM201.93,81.96c-.16,0-.72-.03-.72-.74,0-.5.42-.74.74-.74.4,0,.77.35.77.72,0,.1-.06.75-.78.75Z"/><path class="cls-3" d="M205.29,78.62c-.06-.74-.11-1.46-.11-2.18,0-.59.03-1.18.08-1.79.21-2.64,1.63-4.07,3.57-4.07s3.31,1.34,3.55,3.89c.06.72.11,1.42.11,2.11,0,1.86-.14,5.92-3.67,5.92-1.9,0-3.3-1.34-3.54-3.89ZM211.49,76.46c0-.64-.03-1.28-.1-1.87-.18-1.92-1.12-3.11-2.56-3.11s-2.4,1.25-2.58,3.19c-.05.59-.08,1.2-.08,1.81,0,2.53.38,5.14,2.66,5.14,2.64,0,2.66-3.78,2.66-5.15Z"/><path class="cls-3" d="M214.93,78.62c-.06-.74-.11-1.46-.11-2.18,0-.59.03-1.18.08-1.79.21-2.64,1.63-4.07,3.57-4.07s3.31,1.34,3.55,3.89c.06.72.11,1.42.11,2.11,0,1.86-.14,5.92-3.67,5.92-1.9,0-3.3-1.34-3.54-3.89ZM221.13,76.46c0-.64-.03-1.28-.1-1.87-.18-1.92-1.12-3.11-2.56-3.11s-2.4,1.25-2.58,3.19c-.05.59-.08,1.2-.08,1.81,0,2.53.38,5.14,2.66,5.14,2.64,0,2.66-3.78,2.66-5.15Z"/><path class="cls-3" d="M9.62,7.47c-.16,1.74-.62,3.25-1.39,4.5,2.1.99,4.08,2.66,4.08,3.22,0,.29-.22.53-.48.53-.13,0-.26-.06-.37-.19-1.04-1.2-2.26-2.18-3.7-2.9-2.4,3.12-6.34,3.28-7.23,3.28-.32,0-.5-.22-.5-.45,0-.21.16-.42.48-.42,2.69,0,4.98-.9,6.45-2.78-.94-.38-2-.66-3.14-.8-.29.78-.43.88-.72.88-.24,0-.45-.16-.45-.38,0-.06.02-.14.05-.22.64-1.34,1.2-2.8,1.65-4.26l-3.95.02c-.27,0-.4-.19-.4-.4,0-.19.13-.4.4-.4h4.18c.38-1.34.69-2.69.9-3.95.05-.22.22-.32.42-.32.24,0,.48.14.48.38,0,.35-.77,3.41-.91,3.89h7.59c.26,0,.38.21.38.4,0,.21-.13.4-.38.4l-3.43-.02ZM5.23,7.47c-.34,1.1-.72,2.22-1.14,3.31,1.1.11,2.24.4,3.31.83.69-1.1,1.14-2.48,1.31-4.15h-3.49Z"/><path class="cls-3" d="M15.3,8.67c0-.08.03-.18.1-.29.45-.74.67-1.76.67-2.66,0-.26.18-.35.35-.35.11,0,.45.05.45.42,0,.91-.45,3.25-1.17,3.25-.21,0-.4-.14-.4-.37ZM17.78,2.68c0-.27.22-.4.45-.4.21,0,.43.13.43.4v12.9c0,.26-.22.38-.43.38-.22,0-.45-.13-.45-.38V2.68ZM19.94,6.73c-.24-.59-.72-1.26-.9-1.47-.05-.06-.08-.13-.08-.19,0-.16.18-.3.37-.3.4,0,1.36,1.33,1.36,1.74,0,.27-.22.45-.43.45-.13,0-.26-.06-.32-.22ZM20.53,15.33c-.27,0-.4-.18-.4-.37s.14-.38.4-.38l4,.02v-3.71l-2.56.02c-.27,0-.4-.18-.4-.37s.14-.38.4-.38l2.56.02v-3.27l-2.34.02c-.35.86-.8,1.68-1.34,2.46-.11.18-.26.24-.4.24-.21,0-.4-.18-.4-.4,0-.08.02-.16.08-.24.9-1.22,1.74-2.96,2.05-5.12.03-.26.22-.38.42-.38.22,0,.45.16.45.42,0,.18-.21,1.2-.58,2.27l2.06.02v-3.44c0-.27.21-.42.42-.42.22,0,.43.14.43.42v3.44l3.2-.02c.26,0,.38.19.38.38,0,.18-.13.37-.38.37l-3.2-.02v3.27l2.54-.02c.27,0,.42.19.42.37,0,.19-.14.38-.42.38l-2.54-.02v3.71l3.7-.02c.26,0,.38.19.38.37,0,.19-.13.38-.38.38h-8.55Z"/><path class="cls-3" d="M40.32,12.28v.94l.03,1.01v.06c0,.66-.24,1.65-1.86,1.65-1.41,0-1.44-.34-1.44-.53,0-.21.14-.42.37-.42.03,0,.06.02.1.02.37.08.7.13.99.13.61,0,1.01-.24,1.01-.99v-1.87l-8.45.03c-.24,0-.37-.18-.37-.37,0-.18.13-.37.37-.37l8.44.02v-1.06c0-.24.21-.35.42-.35.19,0,.4.11.4.35v1.04h3.36c.24,0,.37.18.37.37,0,.18-.13.37-.37.37l-3.36-.03ZM37.7,4.17v1.23c.94,0,1.9.02,2.82.03.94.02,1.44.59,1.47,1.1.02.34.03.82.03,1.28,0,.38-.02.77-.03,1.04-.05.67-.56,1.23-1.57,1.26-1.04.03-2,.05-2.95.05-1.09,0-2.15-.02-3.2-.05-1.04-.03-1.57-.53-1.6-1.23-.02-.32-.02-.74-.02-1.14s0-.82.02-1.09c.05-.7.54-1.22,1.57-1.23.78-.02,1.7-.03,2.66-.03v-1.23l-5.2.02c-.24,0-.37-.18-.37-.37,0-.18.13-.35.37-.35l5.2.02v-1.1c0-.26.21-.38.4-.38.21,0,.4.13.4.38v1.1l5.31-.02c.24,0,.37.18.37.35,0,.19-.13.37-.37.37l-5.31-.02ZM36.91,6.03c-.91,0-1.78,0-2.51.02-.91.03-.99.56-.99,1.39h3.51v-1.41ZM36.91,8.04h-3.51c0,.9.03,1.44.98,1.46.8.02,1.65.03,2.53.03v-1.49ZM35.91,14.69c-.51-.48-1.33-.83-1.97-1.06-.14-.05-.21-.16-.21-.29,0-.19.18-.4.4-.4.43,0,1.9.69,2.26.99.13.11.18.24.18.37,0,.26-.19.48-.42.48-.08,0-.16-.02-.24-.1ZM41.24,7.43c0-.24-.02-.45-.02-.61-.03-.53-.29-.77-.98-.78-.77-.02-1.66-.02-2.56-.02v1.41h3.55ZM37.68,8.04v1.49c.86,0,1.73-.02,2.56-.03.99-.02.99-.5.99-1.46h-3.55Z"/><path class="cls-3" d="M58.21,13.98v.05c0,.9-.4,1.79-2.16,1.79-.4,0-.85-.05-1.39-.14-.26-.05-.38-.24-.38-.43,0-.22.14-.42.4-.42h.08c.54.1.98.16,1.34.16.85,0,1.23-.32,1.23-1.14s-.02-1.89-.02-3.07h-4.32l.02,4.55c0,.29-.21.42-.43.42-.21,0-.43-.13-.43-.42v-4.55h-4.1c-.18,1.82-.58,3.59-1.46,4.83-.13.19-.3.26-.46.26-.26,0-.48-.19-.48-.42,0-.08.03-.16.08-.24,1.34-1.92,1.6-4.63,1.6-7.17,0-1.2-.06-2.37-.08-3.39v-.03c0-1.17.7-1.76,2.02-1.79,1.25-.03,2.51-.06,3.79-.06,1.06,0,2.15.02,3.27.06,1.06.03,1.79.61,1.81,1.6.05,2.31.03,6.03.06,7.81l.02,1.74ZM52.16,7.18h-4c0,.3.02.61.02.93,0,.64-.02,1.28-.06,1.94h4.05v-2.87ZM52.16,3.53c-.94,0-1.89.03-2.83.05-.78.02-1.2.4-1.2,1.17,0,.51.02,1.09.03,1.7h4v-2.91ZM57.3,6.44c0-.64-.02-1.22-.03-1.7-.02-.7-.29-1.14-1.15-1.17-1.04-.03-2.08-.05-3.12-.05v2.91h4.31ZM52.99,7.18v2.87h4.32c0-.96,0-1.95-.02-2.87h-4.31Z"/><path class="cls-3" d="M71.1,9.21c.19.11.27.27.27.43,0,.26-.21.5-.46.5-.1,0-.19-.03-.29-.1-.67-.45-1.6-.8-2.34-.91-.21-.03-.3-.19-.3-.35,0-.22.16-.46.46-.46,0,0,1.57.27,2.66.9ZM69.92,15.13c-.32,0-.53-.26-.53-.5,0-.19.11-.38.4-.46,3.59-.96,6.96-4.05,8.69-7.75.08-.18.26-.26.42-.26.24,0,.48.16.48.45,0,.1-.03.21-.1.34-3.15,6.37-9.01,8.18-9.36,8.18ZM72.59,7.24c-.56-.58-1.41-1.15-2.1-1.42-.16-.06-.24-.21-.24-.34,0-.22.18-.45.45-.45.22,0,2.72,1.18,2.72,1.87,0,.27-.21.51-.48.51-.11,0-.24-.06-.35-.18ZM77.14,5.32c-.32-.4-1.07-.93-1.55-1.14-.14-.06-.21-.16-.21-.27,0-.16.16-.34.4-.34.35,0,2.03.9,2.03,1.49,0,.22-.19.4-.38.4-.11,0-.21-.05-.29-.14ZM78.47,4.15c-.32-.38-1.09-.91-1.58-1.12-.14-.06-.22-.18-.22-.29,0-.16.16-.34.4-.34.29,0,2.08.88,2.08,1.47,0,.24-.19.42-.4.42-.1,0-.19-.05-.27-.14Z"/><path class="cls-3" d="M81.13,14.89c-.32,0-.51-.24-.51-.48,0-.22.14-.43.5-.48.34-.05.67-.08,1.04-.14.85-1.87,2.67-6.55,3.07-8.58.06-.34.29-.48.51-.48.26,0,.51.21.51.51,0,.4-1.52,4.83-3.07,8.37,2.13-.38,4.5-.93,5.95-1.31-.59-.78-1.25-1.52-1.71-1.92-.1-.08-.13-.18-.13-.27,0-.21.19-.42.43-.42.11,0,.24.05.37.16,1.63,1.47,3.15,3.68,3.15,4.21,0,.3-.26.54-.51.54-.16,0-.34-.1-.43-.34-.16-.4-.4-.82-.67-1.25-2.91.85-8.18,1.87-8.5,1.87Z"/><path class="cls-3" d="M96.79,14.65c-.22,0-.45-.14-.45-.45,0-.72.02-1.71.03-2.37,0-.21-.05-.22-.26-.22-1.92,0-2.15.02-2.23.02-.32.02-.45-.24-.45-.43,0-.21.13-.42.4-.42h.02c.48.02,1.5.02,2.3.02.18,0,.21-.1.21-.22,0-.66,0-1.58-.03-2.19,0-.1,0-.45.45-.45.22,0,.45.14.45.42v2.21c0,.19.05.24.24.24.75,0,1.73,0,2.23-.02h.02c.29,0,.45.21.45.42s-.16.43-.46.43c-.69,0-1.62-.02-2.24-.02-.21,0-.22.08-.22.26v2.35c0,.29-.22.43-.45.43Z"/><path class="cls-3" d="M103.83,6.39c-.26,0-.4-.21-.4-.4,0-.21.14-.42.43-.43,1.18-.05,3.63-.1,5.28-.1.94,0,1.39.48,1.39,1.02,0,.19-.05.4-.16.59-.56,1.01-1.2,1.98-1.95,2.91,1.38.83,4.56,2.99,4.56,3.83,0,.29-.24.53-.5.53-.14,0-.27-.06-.4-.21-.85-1.06-2.79-2.71-4.21-3.51-2.42,2.72-5.36,3.95-5.73,3.95-.27,0-.46-.21-.46-.43,0-.18.11-.35.4-.46,4.72-1.79,7.38-6.48,7.38-7.06,0-.34-.34-.34-.85-.34-1.17,0-3.44.06-4.77.1h-.02Z"/><path class="cls-3" d="M116.7,15.45c-.29,0-.46-.19-.46-.4,0-.16.13-.35.42-.46,2.46-.9,4.35-2.39,5.86-4.19-.78-.48-1.63-.88-2.37-1.09-.16-.05-.24-.18-.24-.32,0-.21.14-.42.42-.42.26,0,1.44.42,2.72,1.15.46-.62,2-2.99,2-3.49,0-.24-.16-.35-.43-.35-.37,0-2.69.16-3.51.26-1.25,1.66-3.38,4.08-4.11,4.08-.24,0-.42-.18-.42-.4,0-.16.1-.34.32-.48,1.57-.99,3.92-3.94,4.55-5.39.11-.26.29-.35.46-.35.26,0,.51.21.51.48,0,.18-.22.51-.74,1.26.37-.03,2.79-.22,3.2-.22.77,0,1.18.4,1.18.98,0,.24-.08.53-.24.82-.64,1.18-1.31,2.27-2.05,3.28.86.59,1.63,1.22,1.63,1.6,0,.26-.21.46-.45.46-.11,0-.24-.05-.35-.18-.35-.4-.82-.82-1.36-1.2-2.79,3.44-6.29,4.58-6.55,4.58Z"/><path class="cls-3" d="M132.86,9.21c.19.11.27.27.27.43,0,.26-.21.5-.46.5-.1,0-.19-.03-.29-.1-.67-.45-1.6-.8-2.34-.91-.21-.03-.3-.19-.3-.35,0-.22.16-.46.46-.46,0,0,1.57.27,2.66.9ZM131.67,15.13c-.32,0-.53-.26-.53-.5,0-.19.11-.38.4-.46,3.59-.96,6.96-4.05,8.69-7.75.08-.18.26-.26.42-.26.24,0,.48.16.48.45,0,.1-.03.21-.1.34-3.15,6.37-9.01,8.18-9.36,8.18ZM134.34,7.24c-.56-.58-1.41-1.15-2.1-1.42-.16-.06-.24-.21-.24-.34,0-.22.18-.45.45-.45.22,0,2.72,1.18,2.72,1.87,0,.27-.21.51-.48.51-.11,0-.24-.06-.35-.18ZM138.89,5.32c-.32-.4-1.07-.93-1.55-1.14-.14-.06-.21-.16-.21-.27,0-.16.16-.34.4-.34.35,0,2.03.9,2.03,1.49,0,.22-.19.4-.38.4-.11,0-.21-.05-.29-.14ZM140.22,4.15c-.32-.38-1.09-.91-1.58-1.12-.14-.06-.22-.18-.22-.29,0-.16.16-.34.4-.34.29,0,2.08.88,2.08,1.47,0,.24-.19.42-.4.42-.1,0-.19-.05-.27-.14Z"/><path class="cls-3" d="M150.38,8.3c-1.65,2.32-3.36,4.03-5.81,5.49-.16.1-.29.13-.42.13-.27,0-.45-.21-.45-.43,0-.14.08-.32.29-.42,2.54-1.28,4.59-3.47,6.02-5.78-1.68.02-3.38.08-4.98.14h-.03c-.29,0-.45-.21-.45-.4s.14-.4.45-.4c1.74-.06,3.65-.11,5.52-.13-.03-1.12-.08-2.06-.1-2.54v-.03c0-.3.21-.45.42-.45.24,0,.48.16.48.45,0,.53.02,1.47.05,2.58h3.06c.34,0,.5.21.5.42s-.18.42-.5.42h-.03c-.98-.05-1.98-.06-3.01-.06,0,0,.06,2.32.21,6.31v.06c0,1.1-.72,1.65-1.84,1.65-.3,0-1.55-.03-1.55-.59,0-.22.18-.43.42-.43.05,0,.08,0,.13.02.32.1.66.18.96.18.56,0,1.01-.24,1.01-.98,0-.85-.13-4.82-.14-5.47l-.19.29Z"/><path class="cls-3" d="M6.52,48.66c-.06,1.47.6,2.19,2.4,2.43,1.74.24,6.6-.06,8.73-.81,2.28-.78,3.57,2.46.63,3.24-2.7.72-7.29.81-10.44.42-2.64-.33-4.23-2.04-4.26-4.5-.03-3,.18-9.69.21-13.26,0-2.1,3.09-1.68,3.06.09-.03,1.62-.09,3.87-.15,6.09,2.37-.45,7.2-1.8,9.45-2.79,2.19-.96,3.69,2.1,1.11,3-2.85.96-7.23,2.34-10.65,2.73-.03,1.32-.06,2.52-.09,3.36ZM20.5,39.03c-1.74,0-3.15-1.41-3.15-3.15s1.41-3.18,3.15-3.18,3.18,1.44,3.18,3.18-1.44,3.15-3.18,3.15ZM20.5,34.32c-.84,0-1.5.72-1.5,1.56s.66,1.5,1.5,1.5,1.56-.66,1.56-1.5-.72-1.56-1.56-1.56Z"/><path class="cls-3" d="M41.05,50.13c1.86.06,1.71,2.7-.06,2.64-4.41-.15-10.41-.18-14.37.09-1.77.12-1.95-2.61-.09-2.67,2.01-.06,4.95-.12,7.98-.12.36-1.35.78-3.06.93-3.99.09-.45-.03-.72-.6-.72-1.26,0-3.3-.03-5.28.06-1.92.09-1.95-2.52-.21-2.58,2.64-.09,5.37-.03,6.87.03,1.95.09,2.58,1.47,2.25,3.03-.3,1.32-.69,2.88-1.08,4.17,1.29,0,2.52.03,3.66.06Z"/><path class="cls-3" d="M51.16,55.26c-1.2.75-2.31.42-2.82-.27-.51-.69-.39-1.74.81-2.34,5.04-2.49,6.75-7.44,6.3-11.79-.12-1.26.69-1.83,1.65-1.83s1.83.45,1.8,1.71c0,.36,0,.75-.03,1.11.09-.03.15-.09.24-.12,2.01-.81,4.29-2.16,5.46-3.78.45-.63.45-1.08-.33-1.08-3.36-.03-9.9.06-14.1.27-2.64.12-2.49-2.76-.24-2.88,4.35-.21,10.89-.18,15.39-.18,3.12,0,4.56,2.61,2.46,4.98-1.98,2.25-4.17,4.17-7.44,5.34-.69.24-1.29.18-1.71-.09-.75,4.59-3,8.16-7.44,10.95Z"/><path class="cls-3" d="M73.81,54.03c-2.19.81-3.21-2.13-.96-2.91,5.46-1.89,10.2-6.69,12.57-11.16.27-.51.15-.99-.51-.99-1.89-.03-6.03.12-8.67.18-1.8.06-1.92-2.82,0-2.91,2.19-.09,6.6-.15,9.63-.15,2.7,0,4.23,1.71,3.06,3.75-1.02,1.77-2.1,3.48-3.33,5.1,2.49,1.5,6.3,4.02,7.68,5.94,1.2,1.68-1.05,4.02-2.46,2.25-1.47-1.83-4.56-4.56-7.02-6.03-2.64,2.94-5.88,5.37-9.99,6.93Z"/><path class="cls-3" d="M104.11,54.21c.06,2.43-3.36,2.52-3.24.12.21-4.86.3-16.62.18-20.94-.06-2.04,3.18-2.01,3.12.03-.03,1.47-.06,4.08-.09,7.02.15,0,.33,0,.51.03,1.68.27,5.58,1.23,7.2,2.61,1.56,1.32-.15,3.93-1.86,2.67-1.29-.96-4.26-2.13-5.85-2.43-.03,4.14-.03,8.46.03,10.89Z"/><path class="cls-3" d="M124.54,52.89c-2.01.99-4.68.39-4.59-2.79.09-3.42.15-10.71.06-12.72-.09-2.31,3.09-2.07,3.15-.06.06,2.13-.03,8.85-.12,11.13-.03.84.75,1.14,1.47.75,4.62-2.4,8.79-6.63,10.83-9.9,1.26-2.01,3.96-.12,2.76,1.74-2.4,3.75-8.49,9.33-13.56,11.85Z"/><path class="cls-3" d="M149.71,41.88c-1.11-1.02-3.03-1.89-4.44-2.22-1.8-.42-1.05-3.45,1.23-2.82,1.59.45,3.84,1.26,5.28,2.28.93.66.87,1.8.39,2.49s-1.53,1.11-2.46.27ZM147.85,54.27c-2.55.81-3.51-2.61-1.02-3.24,6.03-1.53,12.09-7.74,15.12-13.62.96-1.86,4.05-.6,2.73,1.77-3.72,6.75-9.93,12.9-16.83,15.09Z"/><path class="cls-3" d="M180.19,35.64c1.29-.09,2.76-.18,3.96-.24,2.31-.12,4.32,1.5,3.21,3.63-3.66,6.99-7.8,13.05-16.23,16.38-2.55.99-3.78-1.95-1.29-2.82,6.66-2.31,11.61-8.28,13.83-13.38.24-.57,0-1.14-.72-1.11-1.26.03-3.45.24-4.8.39-2.04,2.7-4.68,5.85-6.75,7.26-2.01,1.35-3.78-1.26-1.74-2.52,2.88-1.77,6.78-7.26,8.16-9.63.99-1.68,3.99-.24,2.58,1.77l-.21.27ZM186.49,34.05c-1.53-.63-.33-2.43,1.05-1.92.81.3,2.31,1.08,2.97,1.8,1.17,1.26-.57,3.09-1.56,1.92-.39-.48-1.86-1.53-2.46-1.8ZM189.22,31.47c-1.53-.6-.45-2.4.96-1.95.81.27,2.34,1.02,3.03,1.71,1.2,1.2-.51,3.09-1.53,1.95-.42-.45-1.86-1.47-2.46-1.71Z"/><path class="cls-3" d="M195.02,54.03c-2.19.81-3.21-2.13-.96-2.91,5.46-1.89,10.2-6.69,12.57-11.16.27-.51.15-.99-.51-.99-1.89-.03-6.03.12-8.67.18-1.8.06-1.92-2.82,0-2.91,2.19-.09,6.6-.15,9.63-.15,2.7,0,4.23,1.71,3.06,3.75-1.02,1.77-2.1,3.48-3.33,5.1,2.49,1.5,6.3,4.02,7.68,5.94,1.2,1.68-1.05,4.02-2.46,2.25-1.47-1.83-4.56-4.56-7.02-6.03-2.64,2.94-5.88,5.37-9.99,6.93Z"/><path class="cls-3" d="M231.16,52.11c6.63-2.1,10.56-7.56,11.91-11.97.24-.81.15-1.56-.96-1.59-2.94-.09-7.68.09-12,.24-1.98.06-2.19-2.88-.06-2.97,3.96-.18,9.57-.21,13.38-.15,2.43.03,4.14,1.86,3.27,4.32-2.1,6-5.76,11.82-14.16,15.03-2.55.96-3.66-2.19-1.38-2.91Z"/><path class="cls-3" d="M257.15,55.14c-2.46.75-3.57-2.22-1.17-2.85,5.91-1.59,9.72-5.22,11.07-9.03.3-.81.15-1.29-.99-1.32-3.06-.06-8.64.03-11.85.15-2.13.09-2.4-2.76-.09-2.82,3.87-.09,8.91-.12,12.99-.09,3,.03,4.47,1.71,3.24,4.65-2.1,5.01-5.76,9.03-13.2,11.31ZM266.69,36.42c-2.82,0-6.96.09-10.2,0-1.98-.06-2.1-2.82.21-2.79,2.88.03,7.08.03,10.11,0,1.02,0,1.62.66,1.62,1.38s-.51,1.41-1.74,1.41Z"/><path class="cls-3" d="M279.29,54.51c-.27-.78.09-1.77,1.47-2.07,6.9-1.5,10.29-7.44,10.56-12.3.06-1.2-.39-1.71-1.56-1.77-2.13-.12-6.9-.03-8.37.03-.96.06-1.59.66-1.62,1.44-.03.78.03,2.88.12,3.9.15,2.01-3.06,2.43-3.21.24-.09-1.26-.06-4.35,0-5.25.09-1.62.9-2.97,4.26-3.03,2.46-.06,6-.12,9.39-.09,3.48.03,4.56,1.17,4.29,4.65-.48,6.57-4.74,12.9-12.99,15.27-1.17.33-2.07-.27-2.34-1.02Z"/><path class="cls-3" d="M301.13,44.67c-1.08,0-1.59-.72-1.59-1.44s.57-1.53,1.59-1.53h18.84c1.02,0,1.53.75,1.53,1.5s-.51,1.47-1.53,1.47h-18.84Z"/><rect class="cls-1" x="171.49" width="180" height="22.76" rx="9.02" ry="9.02"/><path class="cls-2" d="M192.23,16.14c-.99,0-1.19.01-1.65.07.09-.84.19-1.27.38-1.76.35-.92.95-1.75,1.81-2.52.46-.41.88-.72,2.17-1.58,1.29-.87,1.66-1.37,1.66-2.19,0-.93-.77-1.52-1.99-1.52-.84,0-1.46.28-1.84.84-.23.35-.34.65-.43,1.3l-1.61-.22c.18-.96.42-1.52.91-2.08.64-.74,1.65-1.14,2.94-1.14,2.25,0,3.64,1.1,3.64,2.86,0,1.03-.39,1.75-1.37,2.49-.42.31-.61.45-1.81,1.26-1.52,1.02-2.19,1.79-2.54,2.84h4.03c.78,0,1.38-.03,1.84-.09v1.53c-.6-.05-1.11-.08-1.9-.08h-4.24Z"/><path class="cls-2" d="M199.81,12.23q.32-.35,1-1.16l3.29-4.06c.54-.66.76-.96,1.07-1.45h1.52c-.08.78-.09,1.25-.09,2.29v4.44h.5c.55,0,.88-.03,1.38-.09v1.49c-.51-.07-.83-.09-1.38-.09h-.5v1.04c0,.68.03,1.03.11,1.52h-1.65c.09-.46.12-.88.12-1.53v-1.03h-3.7c-.78,0-1.18.01-1.66.05v-1.41ZM205.17,9.25c0-.68.01-1.11.07-1.71-.27.39-.47.65-.93,1.25l-2.82,3.51h3.68v-3.04Z"/><path class="cls-2" d="M210.55,6.83c0-.58-.01-.96-.05-1.34q.28.03,1.22.04h1.38c.66,0,.88-.01,1.19-.04-.03.31-.04.57-.04,1.33v7.61c0,.7.01,1.03.04,1.35h-1.16v-.69h-1.45v1.14h-1.2c.05-.41.08-.91.08-1.56v-7.84ZM211.68,9.64h1.43v-3.05h-1.43v3.05ZM211.68,13.99h1.43v-3.3h-1.43v3.3ZM216.37,7.35c-.47,0-1.06.03-1.39.07v-1.2c.37.05.77.08,1.35.08h1.3v-.39c0-.39-.03-.7-.08-1.04h1.34c-.05.32-.08.62-.08,1.04v.39h1.65c.57,0,.99-.03,1.35-.08v1.2c-.38-.05-.79-.07-1.34-.07h-1.66v1.49h2.08c.61,0,1.07-.03,1.42-.08v1.23c-.37-.05-.73-.08-1.33-.08h-.31v1.33h.28c.61,0,1.02-.03,1.33-.07v1.25c-.38-.05-.74-.08-1.33-.08h-.28v3.36c0,.73-.14,1.02-.57,1.18-.3.11-.7.16-1.27.16,0,0-.38-.01-1.11-.03-.03-.5-.11-.84-.28-1.22.41.08,1.04.14,1.48.14.51,0,.6-.04.6-.37v-3.22h-3.48c-.5,0-.99.03-1.41.08v-1.25c.34.04.76.07,1.43.07h3.45v-1.33h-3.45c-.57,0-1.03.03-1.43.08v-1.23c.34.05.83.08,1.45.08h1.56v-1.49h-1.26ZM217.1,15.53c-.57-.91-1.11-1.57-1.8-2.23l.96-.65c.7.65,1.23,1.26,1.84,2.12l-1,.76Z"/><path class="cls-2" d="M225.78,15.49c0,.8.03,1.26.08,1.61h-1.34c.05-.39.08-.81.08-1.61V6.69c0-.7-.01-1.08-.05-1.52.37.04.72.05,1.39.05h2.22c.69,0,1-.01,1.38-.05-.03.42-.04.74-.04,1.27v1.94c0,.58.01.92.04,1.23-.37-.03-.79-.04-1.3-.04h-2.46v5.91ZM225.78,6.97h2.61v-.83h-2.61v.83ZM225.78,8.68h2.61v-.84h-2.61v.84ZM232.79,14.23c0,.51.01.87.04,1.2-.41-.03-.78-.04-1.33-.04h-2.88v.83h-1.19c.05-.39.07-.77.07-1.31v-3.19c0-.49-.01-.87-.04-1.25.37.04.72.05,1.29.05h2.8c.58,0,.92-.01,1.29-.05-.03.37-.04.72-.04,1.25v2.52ZM228.62,12.46h3.06v-.99h-3.06v.99ZM228.62,14.45h3.06v-1.06h-3.06v1.06ZM235.77,15.58c0,1.06-.35,1.35-1.66,1.35-.3,0-1.07-.03-1.3-.04-.08-.53-.15-.79-.32-1.22.7.09,1.19.14,1.54.14.46,0,.57-.07.57-.37v-5.87h-2.71c-.51,0-.93.01-1.3.04.03-.37.04-.72.04-1.23v-1.94c0-.46-.01-.88-.04-1.27.37.04.69.05,1.38.05h2.45c.7,0,1.04-.01,1.42-.05-.05.51-.07.85-.07,1.5v8.91ZM231.73,6.97h2.86v-.83h-2.86v.83ZM231.73,8.68h2.86v-.84h-2.86v.84Z"/><path class="cls-2" d="M240.7,6.56c-.24-.49-.51-.89-.95-1.42l1.23-.28c.42.58.73,1.08,1.06,1.71h1.5c-.16-.43-.49-1.08-.83-1.64l1.26-.22c.28.5.64,1.26.88,1.85h1.16c.38-.53.76-1.22,1.03-1.85l1.3.32c-.27.49-.68,1.11-.97,1.53h.92c.66,0,1.03-.01,1.46-.05-.03.37-.04.65-.04,1.18v1.1c0,.41.01.66.05,1.03h-1.25v-2.21h-9.01v2.21h-1.26c.04-.35.07-.66.07-1.02v-1.1c0-.47-.01-.74-.05-1.19.45.04.83.05,1.46.05h.97ZM241.64,11.79c-.79,0-1,.01-1.44.05.04-.35.05-.62.05-1.16v-1.25c0-.45-.01-.76-.05-1.02.33.04.68.05,1.15.05h5.32c.45,0,.8-.01,1.11-.05-.03.23-.04.5-.04,1.04v1.22c0,.68,0,.85.04,1.16-.47-.04-.76-.05-1.43-.05h-1.96c-.14.34-.42.93-.53,1.11h3.71c.61,0,.91-.01,1.29-.05-.04.34-.05.66-.05,1.29v1.69c0,.58.01.92.07,1.31h-1.29v-.54h-7.19v.54h-1.29c.05-.43.08-.87.08-1.33v-1.68c0-.6-.01-.91-.07-1.29.35.04.7.05,1.27.05h2.19c.19-.34.41-.77.54-1.11h-1.49ZM240.4,15.53h7.2v-1.56h-7.2v1.56ZM241.44,10.82h5.13v-1.35h-5.13v1.35Z"/><path class="cls-2" d="M253.88,10.09c-.64,0-1,.01-1.39.07v-1.12c.38.05.72.07,1.39.07h1.76c-.2-.53-.37-.85-.58-1.23h-1.56c-.65,0-1.14.03-1.56.07v-1.15c.38.05.81.08,1.5.08h.64c-.23-.42-.53-.81-.99-1.33l1.11-.45c.56.73.69.93,1.11,1.77h.92v-.99c0-.43-.03-.81-.08-1.08h1.26c-.03.24-.04.57-.04,1.04v1.03h1.15v-1.03c0-.45-.03-.79-.05-1.04h1.26c-.05.28-.07.65-.07,1.08v.99h1.03c.45-.61.78-1.23,1-1.83l1.18.45c-.34.55-.66,1.04-.91,1.38h.54c.72,0,1.12-.03,1.53-.08v1.15c-.43-.04-.92-.07-1.58-.07h-1.45c-.22.49-.37.79-.6,1.23h1.71c.69,0,1.03-.01,1.43-.07v1.12c-.41-.05-.77-.07-1.43-.07h-3.6v.77h2.86c.62,0,1.06-.01,1.42-.07v1.08c-.38-.05-.8-.07-1.42-.07h-2.84v.8h3.91c.8,0,1.22-.03,1.61-.08v1.16c-.5-.05-.99-.08-1.6-.08h-3.02c1.08.96,2.76,1.67,4.93,2.06-.34.42-.49.66-.69,1.15-2.34-.64-3.83-1.42-5.2-2.77.04.51.04.73.04,1.03v.77c0,.57.03,1,.08,1.38h-1.31c.05-.39.08-.83.08-1.39v-.74c0-.31,0-.46.03-1.02-.7.72-1.2,1.1-2.07,1.58-.89.5-1.64.81-2.79,1.16-.23-.49-.35-.68-.72-1.1,1.2-.27,1.91-.49,2.69-.88.8-.38,1.38-.74,1.94-1.23h-2.82c-.62,0-1.1.03-1.58.08v-1.16c.39.05.83.08,1.58.08h3.72v-.8h-2.71c-.61,0-1.03.01-1.39.07v-1.08c.39.05.79.07,1.39.07h2.71v-.77h-3.46ZM259.16,9.1c.26-.49.41-.84.54-1.23h-3.36c.23.49.31.69.5,1.23h2.31Z"/><path class="cls-2" d="M270.63,16.23h-1.33v-3.23h-3.23v-1.3h3.23v-3.23h1.33v3.23h3.22v1.3h-3.22v3.23Z"/><path class="cls-2" d="M278.11,10.02c0-.3-.01-.53-.04-.79.3.03.6.04.95.04h2.96v-1.94h-2.99c-.7,1.14-1.35,1.91-2.23,2.69-.3-.46-.47-.66-.85-.97,1.37-1.16,2.07-2.08,2.67-3.49.18-.42.27-.7.32-.97l1.35.3c-.11.2-.12.23-.19.38q-.12.26-.28.62c-.08.16-.14.27-.16.34h6.5c.61,0,.93-.01,1.3-.07v1.25c-.38-.05-.72-.07-1.3-.07h-2.88v1.94h2.29c.58,0,.95-.01,1.31-.07v1.22c-.37-.04-.73-.05-1.29-.05h-2.31v2.38h3.25c.62,0,1.04-.03,1.43-.08v1.31c-.41-.05-.84-.08-1.43-.08h-3.25v1.91c0,.65.03.99.09,1.37h-1.42c.07-.38.08-.7.08-1.38v-1.9h-4.7c-.6,0-1.02.03-1.44.08v-1.31c.41.05.83.08,1.44.08h.83v-2.73ZM281.98,12.75v-2.38h-2.68v2.38h2.68Z"/><path class="cls-2" d="M295.08,6.16c0-.7-.03-1-.09-1.45h1.46c-.07.41-.08.77-.08,1.41v1h3.79c.53,0,.81-.01,1.15-.05-.04.38-.05.65-.05,1.14v3.97c0,.53.01.88.07,1.29h-1.34v-.85h-3.61v2.91c0,.8.01,1.18.09,1.62h-1.48c.07-.47.09-.87.09-1.62v-2.91h-3.44v.85h-1.35c.05-.46.08-.76.08-1.29v-3.97c0-.47-.01-.74-.07-1.14.37.04.65.05,1.14.05h3.64v-.96ZM291.65,8.3v3.13h3.44v-3.13h-3.44ZM299.98,11.43v-3.13h-3.61v3.13h3.61Z"/><path class="cls-2" d="M305.58,7.64c-.39.41-.61.6-1.23,1.1-.41-.46-.51-.58-.87-.84,1.31-.95,2.02-1.72,2.56-2.76.14-.26.23-.49.27-.7l1.34.28c-.12.19-.12.2-.27.47-.15.27-.27.47-.51.83h6.67c.84,0,1.31-.03,1.72-.08v1.25c-.45-.04-.85-.05-1.41-.07v2.06h.61c.62,0,.95-.01,1.33-.08v1.29c-.38-.07-.72-.08-1.33-.08h-.61v2.06h.35c.61,0,.96-.01,1.3-.07v1.26c-.38-.05-.72-.08-1.29-.08h-9.05c-.51,0-.85.03-1.23.08v-1.27c.37.05.73.08,1.31.08h.34v-2.06h-.62c-.6,0-.91.01-1.33.08v-1.29c.37.07.69.08,1.33.08h.62v-1.53ZM303.66,16.26c.84-.8,1.25-1.39,1.71-2.54l1.03.54c-.56,1.29-.93,1.88-1.75,2.79l-.99-.79ZM306.69,9.17h1.31v-2.06h-1.31v2.06ZM306.69,12.35h1.31v-2.06h-1.31v2.06ZM307.6,17.02c0-1.07-.08-1.98-.23-2.9l1.08-.15c.23,1.15.31,1.79.38,2.9l-1.23.15ZM310.36,9.17v-2.06h-1.33v2.06h1.33ZM310.36,12.35v-2.06h-1.33v2.06h1.33ZM310.74,16.98c-.12-.91-.34-1.83-.66-2.8l1.07-.27c.41,1.06.53,1.46.8,2.77l-1.2.3ZM312.74,9.17v-2.06h-1.35v2.06h1.35ZM312.74,12.35v-2.06h-1.35v2.06h1.35ZM314.58,16.96c-.5-1.11-.84-1.69-1.64-2.76l.97-.49c.77.93,1.2,1.57,1.73,2.57l-1.07.68Z"/><path class="cls-2" d="M319.33,11.45c0-.66.01-1.03.04-1.57-.43.72-.68,1.07-1.25,1.72-.19-.56-.31-.85-.58-1.3.97-1.04,1.66-2.07,2.26-3.37.39-.87.62-1.54.77-2.35l1.3.39q-.23.6-.5,1.34c-.22.58-.45,1.11-.81,1.84v7.38c0,.58.03,1.12.07,1.58h-1.38c.05-.51.08-.92.08-1.6v-4.06ZM322.74,8.71c-.49,0-1,.03-1.42.08v-1.33c.39.04.91.07,1.42.07h2.19v-1.38c0-.45-.03-.85-.09-1.31h1.38c-.05.45-.08.84-.08,1.31v1.38h2.67c.54,0,1.06-.03,1.46-.08v1.34c-.39-.05-.89-.08-1.43-.08h-2.3c.87,2.1,2.19,3.84,4.01,5.24-.45.45-.65.66-.96,1.08-.66-.61-1.07-1.03-1.56-1.64-.43-.57-.91-1.26-1.25-1.87-.24-.42-.39-.76-.69-1.5.03.43.04.85.04,1.45v4.2c0,.57.03,1,.09,1.46h-1.39c.07-.45.09-.97.09-1.46v-4.07c0-.47.01-1.02.04-1.46-.83,2.08-1.83,3.56-3.36,4.93-.3-.47-.54-.79-.88-1.1,1.11-.91,1.91-1.81,2.69-3.06.51-.83.8-1.39,1.1-2.19h-1.77Z"/><path class="cls-3" d="M230.66,82.02c-.98-1.12-1.38-1.74-1.81-2.8-.43-1.04-.62-2.07-.62-3.2s.19-2.16.62-3.2c.43-1.05.83-1.68,1.81-2.8h1.16c-1.09,1.11-1.52,1.69-1.98,2.69-.47,1.04-.7,2.12-.7,3.3s.23,2.26.7,3.3c.46,1,.88,1.59,1.98,2.69h-1.16Z"/><path class="cls-3" d="M235.93,77.65c-.12.75-.29,1.4-.53,2.02-.34.86-.7,1.43-1.43,2.26-.23-.3-.42-.48-.71-.69.81-.81,1.22-1.5,1.53-2.55.36-1.24.51-2.83.51-5.72,0-1.2-.01-1.72-.05-2.21.47.05.81.06,1.36.06h4.89c.57,0,.91-.01,1.35-.06-.04.35-.05.68-.05,1.34v8.55c0,.47-.12.74-.36.91-.21.13-.46.17-1.04.17-.43,0-.98-.01-1.56-.05-.04-.34-.09-.55-.21-.88.65.09,1.24.13,1.86.13.38,0,.48-.08.48-.4v-2.87h-6.03ZM241.96,76.87v-2.31h-5.8c-.01.71-.04,1.21-.14,2.31h5.94ZM241.96,73.78v-2.16h-5.79v1.85s-.01.31-.01.31h5.8Z"/><path class="cls-3" d="M249.63,76.02c0,.59-.48,1.07-1.07,1.07s-1.07-.48-1.07-1.07.48-1.07,1.07-1.07,1.07.48,1.07,1.07Z"/><path class="cls-3" d="M258.77,73.67c.77,1.33,1.43,2.24,2.24,3.07,1.04,1.09,2.08,1.89,3.31,2.57-.32.32-.44.45-.65.82-.79-.53-1.12-.78-1.75-1.34-1.04-.91-1.47-1.37-2.16-2.31-.43-.58-.66-.97-1.18-1.95.04.61.06,1.2.06,1.68v4.23c0,.61.03,1.08.09,1.5h-1.05c.06-.46.09-.9.09-1.5v-4.23c0-.43.03-1.09.05-1.62-.68,1.43-1.38,2.44-2.37,3.46-.79.81-1.57,1.48-2.51,2.13-.19-.31-.4-.56-.66-.75,1.16-.7,2.37-1.72,3.3-2.77.78-.87,1.34-1.68,2.07-2.98h-3.5c-.52,0-.94.03-1.43.08v-.94c.44.06.86.09,1.42.09h3.63v-1.44c0-.44-.03-.78-.09-1.2h1.05c-.06.4-.09.78-.09,1.18v1.46h3.82c.68,0,1.08-.03,1.47-.09v.94c-.47-.05-.96-.08-1.46-.08h-3.71Z"/><path class="cls-3" d="M269.13,76.02c0,.59-.48,1.07-1.07,1.07s-1.07-.48-1.07-1.07.48-1.07,1.07-1.07,1.07.48,1.07,1.07Z"/><path class="cls-3" d="M275.25,73.89c.48,0,.77-.01,1.09-.04-.03.26-.04.43-.04.77v2.11c0,.33.01.6.04.81-.3-.03-.52-.04-1.17-.04v2.68h.3c.46,0,.75-.01,1-.06v.86c-.27-.04-.64-.06-1.12-.06h-2.25v.86h-.83c.05-.4.08-.86.08-1.42v-8.44c0-.47-.01-.78-.05-1.18.3.04.64.05,1.21.05h2.2c.55,0,.86-.01,1.14-.06v.86c-.29-.05-.52-.06-.98-.06h-.71v2.39h.09ZM274.43,71.5h-1.33v2.39h1.33v-2.39ZM275.58,76.79v-2.2h-2.47v2.2h2.47ZM273.11,77.49v2.68h1.34v-2.68h-1.34ZM278.05,72.06c-.38.62-.61.92-1.25,1.65-.03-.04-.05-.06-.06-.08-.26-.26-.29-.29-.53-.43.9-.88,1.43-1.69,1.79-2.67.09-.26.1-.34.16-.57l.84.2c-.12.25-.19.4-.56,1.18h3.82c.66,0,1.05-.03,1.37-.08v.87c-.31-.05-.82-.08-1.34-.08h-4.24ZM276.85,81.87c.05-.36.06-.69.06-1.24v-2.64c0-.66,0-.85-.04-1.16.32.03.51.04.87.04h1.2c.36,0,.58-.01.86-.04-.04.3-.04.47-.04,1.1v2.79c0,.48.01.74.05,1.08h-.74v-.74h-1.46v.79h-.77ZM277.62,80.39h1.46v-2.83h-1.46v2.83ZM277.72,73.93c0-.48-.01-.66-.04-.91.27.04.43.04,1.01.04h2.87c.6,0,.73,0,.99-.04-.03.27-.04.53-.04.87v1.2c0,.38.01.66.04.96-.27-.03-.57-.04-.99-.04h-2.87c-.42,0-.73.01-1.01.04.03-.25.04-.44.04-.92v-1.2ZM278.46,75.36h3.3v-1.66h-3.3v1.66ZM282.75,76.88c.38,0,.62-.01.86-.04-.04.31-.04.49-.04,1.1v2.77c0,.49.01.81.05,1.12h-.77v-.75h-1.52v.74h-.74c.04-.34.05-.53.05-1.14v-2.68c0-.65,0-.82-.04-1.16.34.03.52.04.86.04h1.29ZM281.33,77.56v2.83h1.52v-2.83h-1.52Z"/><path class="cls-3" d="M285.5,72.15c0-.55-.01-.91-.05-1.25q.27.03,1.2.04h.96c.66,0,.88-.01,1.17-.04-.04.31-.04.52-.04,1.27v7.12c0,.62.01.96.04,1.25h-.81v-.65h-1.7v1.07h-.85c.05-.39.08-.83.08-1.38v-7.44ZM286.27,74.89h1.7v-3.22h-1.7v3.22ZM286.27,79.17h1.7v-3.58h-1.7v3.58ZM290.81,72.46c-.46,0-.92.03-1.25.06v-.86c.32.05.69.08,1.23.08h1.38v-.42c0-.4-.03-.7-.08-1.05h.96c-.05.34-.08.62-.08,1.05v.42h1.85c.53,0,.9-.03,1.23-.08v.86c-.34-.04-.74-.06-1.23-.06h-1.85v1.69h2.3c.57,0,.99-.03,1.31-.08v.87c-.35-.05-.73-.08-1.26-.08h-.43v1.52h.4c.57,0,.95-.03,1.27-.08v.9c-.38-.05-.73-.08-1.27-.08h-.4v3.64c0,.83-.29,1.03-1.49,1.03-.21,0-.42-.01-1.17-.05-.03-.34-.08-.57-.21-.86.51.09,1.09.16,1.48.16.49,0,.58-.05.58-.34v-3.58h-3.67c-.48,0-.92.03-1.3.08v-.9c.33.05.71.08,1.31.08h3.65v-1.52h-3.65c-.53,0-.92.03-1.31.08v-.87c.33.05.75.08,1.31.08h1.73v-1.69h-1.36ZM291.81,80.28c-.68-.99-1.04-1.44-1.81-2.18l.64-.46c.78.74,1.21,1.22,1.87,2.12l-.7.52Z"/><path class="cls-3" d="M307.14,81.08c-1.03-1.31-2.5-2.73-4.16-4.02-.91,1.04-1.55,1.64-2.48,2.33-.9.65-1.59,1.08-2.55,1.56-.21-.39-.31-.53-.64-.86,1-.4,1.64-.75,2.64-1.5,2.08-1.53,3.69-3.59,4.64-5.86.03-.08.04-.09.06-.16.03-.04.03-.05.04-.09-.12.01-.16.01-.31.01l-4.34.06c-.58.01-.96.04-1.34.1l-.03-1.05c.35.05.58.06,1.03.06h.34l4.64-.05c.46-.01.61-.03.83-.1l.55.56c-.13.16-.22.31-.36.64-.73,1.61-1.34,2.64-2.15,3.64,1.7,1.3,2.85,2.33,4.33,3.9l-.74.82Z"/><path class="cls-3" d="M314.33,70.53q-.17.25-.46.86c-.12.25-.25.47-.4.72q.18-.03,4.02-.06c.33-.01.56-.05.75-.13l.59.58c-.14.21-.16.25-.38.86-.9,2.42-2.04,4.29-3.39,5.59-1.09,1.04-2.38,1.89-4.11,2.68-.21-.39-.33-.53-.64-.81,1.1-.43,1.81-.81,2.69-1.42,1.01-.7,1.61-1.23,2.25-2.05-.94-.85-1.89-1.52-2.91-2.11l.6-.66c1.1.64,1.82,1.14,2.87,2.02.77-1.16,1.35-2.39,1.81-3.77l-4.55.06c-.88,1.42-1.81,2.43-3.09,3.46-.3-.34-.42-.43-.75-.62,1.4-1.01,2.47-2.21,3.31-3.71.42-.75.66-1.31.77-1.78l1.03.3Z"/><path class="cls-3" d="M322.22,73.83c.52.9.81,1.51,1.29,2.89l-.88.3c-.31-1.14-.68-2.02-1.22-2.91l.82-.27ZM329.55,73.75q-.08.21-.29,1.05c-.21.91-.68,2.11-1.14,2.91-.92,1.59-2.29,2.78-4.3,3.76-.19-.32-.3-.46-.6-.73,2-.9,3.22-1.9,4.12-3.39.49-.82.87-1.79,1.11-2.79.09-.43.14-.73.14-.88v-.13l.96.21ZM324.87,73.31c.69,1.23.92,1.75,1.26,2.79l-.86.3c-.23-.92-.64-1.87-1.2-2.85l.79-.25Z"/><path class="cls-3" d="M340.15,72.31q-.09.14-.27.81c-.69,2.5-1.68,4.2-3.26,5.64-1.21,1.09-2.33,1.77-4.08,2.44-.2-.43-.3-.57-.64-.91,1.17-.35,1.94-.7,2.94-1.38,2.13-1.42,3.35-3.28,4.1-6.19h-6.62c-.66,0-1.03.01-1.46.08v-1.05c.49.08.75.09,1.47.09h6.4c.52,0,.61-.01.83-.1l.6.57Z"/><path class="cls-3" d="M343.4,71.84c-.49,0-1,.03-1.42.08v-.95c.4.05.83.08,1.4.08h8.65c.62,0,1.04-.03,1.42-.08v.95c-.4-.05-.87-.08-1.4-.08h-3.26c-.32.65-.47.91-.83,1.46v7.2c0,.53.03.96.09,1.4h-1.07c.05-.43.09-.92.09-1.4v-4.64c0-.52.01-.96.03-1.48-.48.66-1.16,1.38-1.99,2.11-.79.72-1.6,1.3-2.81,2.04-.16-.29-.29-.45-.6-.77,1.68-.92,2.83-1.79,4.02-3.03.96-.99,1.46-1.69,2.07-2.89h-4.38ZM349.25,73.98c.7.87,1.22,1.38,2,2.02.86.68,1.62,1.16,2.6,1.61-.23.22-.38.42-.6.81-1.94-1.07-3.41-2.31-4.64-3.9l.64-.53Z"/><path class="cls-3" d="M365.27,71.99c.68,0,1.09-.03,1.42-.08v.91c-.35-.04-.79-.06-1.42-.06h-5.59c-.52,1.01-1.13,1.98-1.77,2.81v4.95c0,.57.03.98.08,1.34h-.99c.05-.34.08-.71.08-1.34v-3.97c-.58.65-.82.88-1.47,1.43-.17-.27-.34-.44-.62-.66.9-.69,1.44-1.2,2.09-1.96-.01-.44-.03-.56-.06-.83h.71c.43-.6.77-1.14,1.08-1.77h-2.05c-.65,0-1.08.03-1.43.06v-.91c.33.05.74.08,1.43.08h2.42c.36-.82.57-1.44.65-1.95l.96.19c-.08.14-.13.27-.23.56-.13.3-.4.98-.51,1.2h5.23ZM364.82,76.09c.61,0,.92-.03,1.23-.08v.87c-.35-.04-.69-.05-1.23-.05h-2.04v3.68h2.59c.64,0,.98-.01,1.29-.06v.9c-.49-.05-.85-.08-1.3-.08h-5.64c-.52,0-.92.03-1.3.08v-.9c.39.04.78.06,1.3.06h2.21v-3.68h-1.74c-.56,0-.9.01-1.25.05v-.87c.31.05.62.08,1.25.08h1.74v-1.11c0-.7-.03-1.07-.08-1.38h1.01c-.05.29-.08.65-.08,1.39v1.09h2.04Z"/><path class="cls-3" d="M368.88,72.11c0-.52-.01-.9-.06-1.27.42.05.79.06,1.39.06h5.85c.6,0,.96-.01,1.34-.06-.05.38-.06.7-.06,1.2v8.33c0,.62.03.99.08,1.39h-.95v-.84h-6.71v.84h-.95c.05-.39.08-.79.08-1.38v-8.27ZM369.75,75.34h6.71v-3.64h-6.71v3.64ZM369.75,80.12h6.71v-3.99h-6.71v3.99Z"/><path class="cls-3" d="M383.19,72.22c.43-.91.58-1.36.62-1.78l1.04.18q-.12.17-.34.7c-.17.42-.34.77-.4.88q.16-.01.27-.01c2.08-.1,3.38-.26,4.1-.49l.08.88c-.21.01-.29.03-.52.06-1.35.18-2.72.29-4.29.34-.39.77-.72,1.29-1.17,1.85-.13.16-.39.46-.44.49-.09.06-.16.12-.17.13,0,.01-.01.01-.01.01h0s.01.04.03.05q.47-.36.6-.46c.6-.42,1.29-.64,1.96-.64.96,0,1.55.48,1.72,1.44.95-.38,1.69-.65,2.26-.86.64-.22.68-.23.88-.38l.42.91c-.68.12-1.85.51-3.47,1.14.03.34.03.47.03.79,0,.17,0,.46-.01.72-.01.29-.01.47-.01.58,0,.18,0,.29.03.47h-.88c.04-.27.08-1.07.08-1.86,0-.21,0-.23-.01-.39-1.77.83-2.44,1.44-2.44,2.22,0,.86.81,1.24,2.64,1.24,1.29,0,2.73-.21,3.47-.51l.12,1c-.19.01-.26.03-.52.06-1.03.17-2.16.26-3.16.26-2.33,0-3.46-.66-3.46-2,0-.72.44-1.39,1.33-2.05.44-.33,1.07-.66,1.94-1.04-.1-.71-.42-1.03-1.03-1.03-.82,0-1.85.48-2.9,1.38-.51.43-.79.73-1,1.08l-.73-.73c.9-.69,1.98-2.05,2.91-3.72l.12-.19c-.05.01-.18.03-.25.03-.21,0-1.43-.03-1.91-.04h-.21c-.12,0-.14,0-.29.01v-.9c.48.09,1.47.14,2.8.14h.21Z"/><path class="cls-3" d="M391.94,71.53c0-.36-.01-.73-.04-.99.16.03.52.04.85.04h1.72c.42,0,.65-.01.83-.05l.46.44q-.03.08-.09.21s-.05.12-.1.22c-.44,1.08-.88,1.98-1.42,2.87.47.6.65.91.83,1.43.17.49.26,1.05.26,1.61,0,.83-.22,1.3-.69,1.46-.23.08-.57.12-.92.12-.14,0-.16,0-.44-.01-.01-.32-.05-.47-.16-.78.33.04.52.05.77.05.49,0,.68-.21.68-.79,0-1.25-.3-2.02-1.18-3.02.65-1.05,1.04-1.86,1.48-3.04h-2.03v9.22c0,.51.03.98.06,1.38h-.94c.05-.36.08-.86.08-1.39v-8.97ZM397.21,77.86c-.69,1.66-1.12,2.3-2.22,3.33-.27-.34-.32-.38-.61-.6.61-.51.87-.77,1.21-1.24.36-.52.57-.92.9-1.81l.73.31ZM397.38,74.59c-.4,0-.66.01-1,.05v-.82c-.42.31-.58.44-1.08.74-.21-.39-.22-.39-.52-.7,1.72-.94,2.78-1.98,3.69-3.63h.91c.94,1.57,2.21,2.7,4.09,3.64-.17.23-.35.51-.49.78-1.85-1.09-2.98-2.12-4.03-3.68-.99,1.44-1.46,1.96-2.57,2.85.29.04.55.05,1.01.05h3.26c.44,0,.69-.01.99-.05v.82c-.34-.04-.57-.05-.99-.05h-1.35v1.62h2.43c.53,0,.87-.03,1.23-.08v.9c-.35-.05-.73-.08-1.23-.08h-2.43v3.8c0,.75-.31,1-1.24,1-.3,0-.75-.01-1.14-.05-.05-.36-.09-.48-.26-.86.55.08.98.12,1.33.12s.49-.08.49-.3v-3.71h-1.83c-.46,0-.83.03-1.12.06v-.87c.27.04.68.06,1.12.06h1.83v-1.62h-1.1ZM401.11,77.57c.65,1.42,1.12,2.04,2.16,2.94-.26.22-.38.36-.62.69-1.1-1.17-1.56-1.86-2.22-3.31l.69-.31Z"/><path class="cls-3" d="M411.57,71.16c-.14.12-.25.21-1.6,1.51-.65.61-1.35,1.2-2.99,2.46-.48.36-.57.47-.57.65,0,.23.1.32,1.16,1.14,1.89,1.44,2.25,1.74,4.16,3.55.2.2.22.21.36.33l-.82.81c-.31-.44-.82-.99-1.68-1.78-.87-.81-1.39-1.23-3.29-2.72-.73-.57-.94-.86-.94-1.3,0-.31.13-.61.38-.87q.16-.16,1.1-.88c1.73-1.33,3.35-2.85,3.81-3.56l.91.68Z"/><path class="cls-3" d="M416.11,82.02c1.09-1.09,1.52-1.69,1.98-2.69.47-1.04.7-2.12.7-3.3s-.23-2.26-.7-3.3c-.46-1-.88-1.6-1.98-2.69h1.16c.98,1.12,1.38,1.74,1.81,2.8.43,1.04.62,2.07.62,3.2s-.19,2.16-.62,3.2c-.43,1.05-.83,1.68-1.81,2.8h-1.16Z"/></g></svg>