<?xml version="1.0" encoding="UTF-8"?><svg id="_レイヤー_2" xmlns="http://www.w3.org/2000/svg" viewBox="0 0 530.31 104"><defs><style>.cls-1,.cls-2{fill:#54c2f0;}.cls-1,.cls-3{stroke-width:0px;}.cls-2{stroke:#54c2f0;stroke-miterlimit:10;stroke-width:.71px;}.cls-3{fill:#fff100;}</style></defs><g id="DESIGN"><path class="cls-1" d="M141.67,81.98l-30.21,16.9s-16.04,11.83-37.43-.49l-24.38-15.04c-4.86-2.1-4.09-6.64-4.09-6.64l-.64-50.06c.21-5.25,4.74-7.17,4.74-7.17,14.63-8,23.81-14.83,23.81-14.83,0,0,16.02-10.25,35.51-.27l31.2,17.67s4.3,2.24,4.3,7.92v45.01s.01,5.3-2.82,7.02Z"/><path class="cls-3" d="M183.47,59.17l3.06-2.44c5.31-3.75,0-8.79,0-8.79l-3.28-2.44c-3.14-2.21-3.5,1.95-3.5,1.95l-.29,10.25s-.15,4.64,4,1.46Z"/><path class="cls-3" d="M165.67,67.42c0,1.64,1.16,2.29,2.57,1.47l4.96-2.92c1.41-.83,2.57-2.85,2.57-4.48l.07-18.24c0-1.64-1.15-3.64-2.56-4.47l-5.18-3.01c-1.41-.82-2.56-.16-2.54,1.48l.1,30.17Z"/><path class="cls-3" d="M150.67,76.3c0,1.64,1.15,2.29,2.56,1.46l4.86-2.87c1.41-.83,2.57-2.85,2.57-4.48l.14-35.78c0-1.64-1.15-3.64-2.56-4.46l-4.99-2.88c-1.42-.82-2.58-.15-2.58,1.49v47.51Z"/><path class="cls-3" d="M5.42,59.17l-3.06-2.44c-5.31-3.75,0-8.79,0-8.79l3.28-2.44c3.14-2.21,3.5,1.95,3.5,1.95l.29,10.25s.15,4.64-4,1.46Z"/><path class="cls-3" d="M23.22,67.42c0,1.64-1.16,2.29-2.57,1.47l-4.96-2.92c-1.41-.83-2.57-2.85-2.57-4.48l-.07-18.24c0-1.64,1.15-3.64,2.56-4.47l5.18-3.01c1.41-.82,2.56-.16,2.54,1.48l-.1,30.17Z"/><path class="cls-3" d="M38.22,76.3c0,1.64-1.15,2.29-2.56,1.46l-4.86-2.87c-1.41-.83-2.57-2.85-2.57-4.48l-.14-35.78c0-1.64,1.15-3.64,2.56-4.46l4.99-2.88c1.42-.82,2.58-.15,2.58,1.49v47.51Z"/><path class="cls-3" d="M69.32,40.04c.37.37.55.81.55,1.33v5.21c0,.52-.18.97-.55,1.33-.37.37-.81.55-1.33.55h-10.74l-.52.52v5.57h-3.78v-13.18c0-.52.18-.97.55-1.33.37-.37.81-.55,1.33-.55h13.15c.52,0,.97.18,1.33.55ZM65.57,45.25l.52-.52v-1.5l-.52-.52h-8.33l-.52.52v1.5l.52.52h8.33Z"/><path class="cls-3" d="M91.36,39.52v13.15c0,.52-.18.97-.55,1.33-.37.37-.81.55-1.33.55h-12.83c-.5,0-.94-.17-1.33-.52-.37-.37-.55-.81-.55-1.33v-13.18h3.78v11.33l.52.52h8.01l.52-.52v-11.33h3.78Z"/><path class="cls-3" d="M109.65,50.65c.56.5,1.25,1.08,2.05,1.74.8.66,1.7,1.38,2.7,2.17h-5.6l-6.87-6.15c-.22-.2-.4-.41-.54-.63-.14-.23-.21-.53-.21-.9,0-.11.01-.22.03-.34.02-.12.05-.23.1-.34.11-.28.29-.51.55-.68.26-.17.6-.26,1.01-.26h5.99l.52-.52v-1.47l-.52-.55h-8.3l-.55.55v11.3h-3.74l-.03-13.15c0-.52.18-.97.55-1.33.37-.37.81-.55,1.33-.55h13.15c.52,0,.97.18,1.33.55.37.37.55.81.55,1.33v5.18c0,.52-.18.97-.55,1.33-.37.37-.81.55-1.33.55h-3.45v.65c.54.46,1.15.97,1.82,1.53Z"/><path class="cls-3" d="M123.06,44.74l.55.55h9.31v3.19h-9.31l-.55.55v1.82l.55.52h12.63v3.22h-15.07c-.52,0-.97-.18-1.33-.55-.37-.37-.55-.81-.55-1.33v-11.33c0-.52.18-.97.55-1.33.37-.37.81-.55,1.33-.55h15.07v3.26h-12.63v.03l-.55.51v1.45Z"/><path class="cls-3" d="M61.14,60.52c.18.18.28.41.28.67v2.78c0,.26-.09.48-.28.67-.18.18-.41.28-.67.28h-7.39v-1.61h6.18l.26-.26v-.93l-.26-.26h-5.38c-.26,0-.48-.09-.67-.28-.18-.18-.28-.41-.28-.67v-2.59c0-.26.09-.48.28-.67s.41-.28.67-.28h7.37v1.59h-6.17l-.26.28v.73l.26.26h5.38c.26,0,.48.09.67.28Z"/><path class="cls-3" d="M72.53,58.97h-3.53l-.28.28v5.65h-1.89v-5.65l-.26-.28h-3.53v-1.59h9.48v1.59Z"/><path class="cls-3" d="M80.86,62.94c.28.25.62.54,1.02.87.4.33.85.69,1.35,1.08h-2.8l-3.43-3.07c-.11-.1-.2-.2-.27-.32s-.11-.26-.11-.45c0-.05,0-.11.02-.17.01-.06.03-.12.05-.17.05-.14.15-.25.28-.34.13-.09.3-.13.5-.13h2.99l.26-.26v-.73l-.26-.28h-4.15l-.28.28v5.65h-1.87l-.02-6.57c0-.26.09-.48.28-.67s.41-.28.67-.28h6.57c.26,0,.48.09.67.28.18.18.28.41.28.67v2.59c0,.26-.09.48-.28.67s-.41.28-.67.28h-1.72v.33c.27.23.57.48.91.76Z"/><path class="cls-3" d="M86.74,59.98l.28.27h4.65v1.59h-4.65l-.28.28v.91l.28.26h6.31v1.61h-7.53c-.26,0-.48-.09-.67-.28-.18-.18-.28-.41-.28-.67v-5.66c0-.26.09-.48.28-.67s.41-.28.67-.28h7.53v1.63h-6.31v.02l-.28.26v.72Z"/><path class="cls-3" d="M103.66,57.38v6.57c0,.26-.09.48-.28.67-.18.18-.41.28-.67.28h-.46c-.28,0-.52-.11-.72-.33-.76-.81-1.41-1.51-1.95-2.1-.54-.59-.99-1.07-1.35-1.45-.42-.44-.77-.82-1.04-1.14h-.36v5.01h-1.89v-6.57c0-.26.09-.48.28-.67s.41-.28.67-.28h.88c.15,0,.29.03.41.1.12.06.23.14.32.23.65.72,1.22,1.34,1.72,1.89.49.54.91,1,1.24,1.37.39.43.73.81,1.01,1.12h.29v-4.7h1.89Z"/><path class="cls-3" d="M111.88,59.56v-.33l-.28-.26h-4.16l-.26.26v3.79l.26.26h4.16l.26-.26v-.92l-.26-.26h-2.68v-1.59h3.89c.26,0,.48.09.67.28.18.18.28.41.28.67v2.77c0,.26-.09.48-.28.67-.18.18-.41.28-.67.28h-6.57c-.26,0-.48-.09-.67-.28-.18-.18-.28-.41-.28-.67v-5.65c0-.26.09-.48.28-.67s.41-.28.67-.28h6.59c.26,0,.48.09.66.28.18.18.27.41.27.67v1.25h-1.87Z"/><path class="cls-3" d="M124.86,58.97h-3.53l-.28.28v5.65h-1.89v-5.65l-.26-.28h-3.53v-1.59h9.48v1.59Z"/><path class="cls-3" d="M134.93,57.38v7.52h-1.87v-2.78l-.28-.26h-4.15l-.26.28v2.77h-1.89v-7.52h1.89v2.6l.26.26h4.15l.28-.26v-2.6h1.87Z"/><path class="cls-3" d="M488.79,43.83c-1.19-2.18-2.92-4.25-5.45-5.53-1.96-1-4.4-1.53-7.45-1.3-.23,3.09.32,5.56,1.35,7.54h0c1.33,2.56,3.46,4.3,5.69,5.47"/><path class="cls-3" d="M507.1,74.6c1.19,2.18,2.92,4.25,5.45,5.53,1.96,1,4.4,1.53,7.45,1.3.23-3.09-.32-5.56-1.35-7.54h0c-1.33-2.56-3.46-4.3-5.69-5.47"/><path class="cls-3" d="M502.32,42.46c.76-2.5,1.03-5.32.13-8.14-.69-2.18-2.09-4.38-4.5-6.45-2.48,2.14-3.92,4.4-4.65,6.63h0c-.94,2.89-.67,5.75.08,8.27"/><path class="cls-3" d="M493.66,76.74c-.7,2.38-.94,5.07-.06,7.77.68,2.09,2.03,4.2,4.35,6.19,2.35-2.02,3.71-4.16,4.38-6.28h0c.87-2.75.59-5.48-.15-7.89"/><path class="cls-3" d="M480.99,55c-2.5-.76-5.32-1.03-8.14-.13-2.18.69-4.38,2.09-6.45,4.5,2.14,2.48,4.4,3.92,6.63,4.65h0c2.89.94,5.75.67,8.27-.08"/><path class="cls-3" d="M515.27,63.66c2.38.7,5.07.94,7.77.06,2.09-.68,4.2-2.03,6.19-4.35-2.02-2.35-4.16-3.71-6.28-4.38h0c-2.75-.87-5.48-.59-7.89.15"/><path class="cls-3" d="M512.95,50.2c2.29-1.25,4.47-3.07,5.81-5.71,1.04-2.04,1.58-4.59,1.32-7.75-3.27-.21-5.88.39-7.96,1.47h0c-2.69,1.4-4.51,3.63-5.74,5.95"/><path class="cls-3" d="M482.74,68.57c-2.17,1.21-4.22,2.96-5.49,5.5-.98,1.97-1.5,4.42-1.24,7.46,3.1.21,5.56-.37,7.52-1.41h0c2.55-1.35,4.26-3.49,5.42-5.73"/><path class="cls-3" d="M497.86,41.2c4.97,0,9.46,2.01,12.72,5.27,3.25,3.25,5.27,7.75,5.27,12.72s-2.01,9.46-5.27,12.72c-3.25,3.25-7.75,5.27-12.72,5.27s-9.46-2.01-12.72-5.27c-3.25-3.25-5.27-7.75-5.27-12.72s2.01-9.46,5.27-12.72c3.25-3.25,7.75-5.27,12.72-5.27Z"/><path class="cls-2" d="M497.99,91.74c-.12.09-.18.12-.32.14h-.05s-.05,0-.05,0c-.14-.02-.21-.05-.32-.14-2.72-2.23-4.28-4.62-5.06-7.01-.96-2.94-.72-5.85.04-8.43.09-.3.41-.48.71-.39.3.09.48.41.39.71-.7,2.38-.92,5.06-.04,7.75.68,2.08,2.03,4.19,4.34,6.18,2.33-2,3.68-4.12,4.36-6.22.88-2.71.63-5.41-.09-7.81-.09-.3.08-.62.39-.71.3-.09.62.08.71.39.77,2.58,1.04,5.51.08,8.48-.77,2.4-2.34,4.8-5.07,7.05"/><path class="cls-2" d="M520.72,81.87c0,.06-.01.09-.03.14-.02.06-.05.12-.09.17-.02.03-.07.08-.1.1-.05.04-.11.07-.17.09-.05.02-.08.02-.14.03-3.51.34-6.31-.24-8.55-1.38-2.77-1.41-4.65-3.65-5.94-6.01-.15-.28-.05-.63.23-.78.28-.15.63-.05.78.23,1.19,2.18,2.92,4.25,5.45,5.53,1.96,1,4.4,1.53,7.45,1.3.23-3.09-.32-5.56-1.35-7.54h0c-1.33-2.56-3.46-4.3-5.69-5.47-.28-.15-.39-.49-.24-.77.15-.28.49-.39.77-.24,2.41,1.27,4.72,3.16,6.17,5.96,1.17,2.25,1.78,5.08,1.43,8.64"/><path class="cls-2" d="M529.82,58.81c.09.12.12.18.14.32v.05s0,.05,0,.05c-.02.14-.05.21-.14.32-2.26,2.76-4.69,4.33-7.11,5.09-3,.95-5.96.66-8.56-.14-.3-.09-.47-.41-.38-.72.09-.3.41-.47.72-.38,2.4.74,5.13,1.01,7.88.14,2.12-.67,4.25-2.03,6.27-4.37-2.32-2.69-4.79-4.08-7.2-4.63-2.52-.57-5.01-.24-7.2.48-.3.1-.62-.07-.72-.37-.1-.3.07-.62.37-.72,2.37-.77,5.05-1.13,7.81-.5,2.75.62,5.55,2.22,8.13,5.37"/><path class="cls-2" d="M474.93,82.65c-.06,0-.09-.01-.14-.03-.06-.02-.12-.05-.17-.09-.03-.02-.08-.07-.1-.1-.04-.05-.07-.11-.09-.17-.02-.05-.02-.08-.03-.14-.35-3.53.25-6.35,1.41-8.6,1.43-2.78,3.71-4.67,6.1-5.95.28-.15.63-.04.77.24.15.28.04.63-.24.77-2.21,1.18-4.31,2.92-5.62,5.46-1.01,1.96-1.56,4.42-1.33,7.5,3.07.23,5.53-.31,7.49-1.32,2.54-1.3,4.28-3.4,5.46-5.6.15-.28.5-.38.78-.23.28.15.38.5.23.78-1.28,2.38-3.17,4.65-5.95,6.07-2.24,1.15-5.06,1.75-8.58,1.4"/><path class="cls-2" d="M497.14,26.48c.12-.09.18-.12.32-.14h.05s.05,0,.05,0c.14.02.21.05.32.14,2.72,2.23,4.28,4.62,5.06,7.01.96,2.94.72,5.85-.04,8.43-.09.3-.41.48-.71.39-.3-.09-.48-.41-.39-.71.7-2.38.92-5.06.04-7.75-.68-2.08-2.03-4.19-4.34-6.18-2.33,2-3.68,4.12-4.36,6.22-.88,2.71-.63,5.41.09,7.81.09.3-.08.62-.39.71-.3.09-.62-.08-.71-.39-.77-2.58-1.04-5.51-.08-8.48.77-2.4,2.34-4.8,5.07-7.05"/><path class="cls-2" d="M474.4,36.35c0-.06.01-.09.03-.14.02-.06.05-.12.09-.17.02-.03.07-.08.1-.1.05-.04.11-.07.17-.09.05-.02.08-.02.14-.03,3.51-.34,6.31.24,8.55,1.38,2.77,1.41,4.65,3.65,5.94,6.01.15.28.05.63-.23.78-.28.15-.63.05-.78-.23-1.19-2.18-2.92-4.25-5.45-5.53-1.96-1-4.4-1.53-7.45-1.3-.23,3.09.32,5.56,1.35,7.54h0c1.33,2.56,3.46,4.3,5.69,5.47.28.15.39.49.24.77-.15.28-.49.39-.77.24-2.41-1.27-4.72-3.16-6.17-5.96-1.17-2.25-1.78-5.08-1.43-8.64"/><path class="cls-2" d="M520.2,35.57c.06,0,.09.01.14.03.06.02.12.05.17.09.03.02.08.07.1.1.04.05.07.11.09.17.02.05.02.08.03.14.35,3.53-.25,6.35-1.41,8.6-1.43,2.78-3.71,4.67-6.1,5.95-.28.15-.63.04-.77-.24-.15-.28-.04-.63.24-.77,2.21-1.18,4.31-2.92,5.62-5.46,1.01-1.96,1.56-4.42,1.33-7.5-3.07-.23-5.53.31-7.49,1.32-2.54,1.3-4.28,3.4-5.46,5.6-.15.28-.5.38-.78.23-.28-.15-.38-.5-.23-.78,1.28-2.38,3.17-4.65,5.95-6.07,2.24-1.15,5.06-1.75,8.58-1.4"/><path class="cls-2" d="M465.05,59.91c-.09-.12-.12-.18-.14-.32v-.05s0-.05,0-.05c.02-.14.05-.21.14-.32,2.29-2.79,4.74-4.36,7.18-5.12,3.04-.94,6.04-.61,8.65.22.3.1.47.42.37.72s-.42.47-.72.37c-2.42-.77-5.19-1.08-7.97-.21-2.14.66-4.3,2.02-6.34,4.4,2.03,2.36,4.18,3.72,6.31,4.38,2.76.87,5.51.58,7.93-.18.3-.09.62.07.72.38.09.3-.07.62-.38.72-2.61.82-5.59,1.13-8.61.18-2.43-.76-4.87-2.33-7.15-5.11"/><path class="cls-2" d="M509.34,47.79c-3.05-3.05-7.26-4.93-11.9-4.93s-8.86,1.88-11.9,4.93c-3.05,3.05-4.93,7.26-4.93,11.9s1.88,8.86,4.93,11.9c3.05,3.05,7.26,4.93,11.9,4.93s8.86-1.88,11.9-4.93c3.05-3.05,4.93-7.26,4.93-11.9s-1.88-8.86-4.93-11.9M497.44,41.71c4.97,0,9.46,2.01,12.72,5.27,3.25,3.25,5.27,7.75,5.27,12.72s-2.01,9.46-5.27,12.72c-3.25,3.25-7.75,5.27-12.72,5.27s-9.46-2.01-12.72-5.27c-3.25-3.25-5.27-7.75-5.27-12.72s2.01-9.46,5.27-12.72c3.25-3.25,7.75-5.27,12.72-5.27Z"/><path class="cls-2" d="M472.97,60.27c-.32,0-.57-.26-.57-.57s.26-.57.57-.57h7.05c.32,0,.57.26.57.57s-.26.57-.57.57h-7.05Z"/><path class="cls-2" d="M480.47,77.42c-.22.22-.59.22-.81,0-.22-.22-.22-.59,0-.81l4.99-4.99c.22-.22.59-.22.81,0s.22.59,0,.81l-4.99,4.99Z"/><path class="cls-2" d="M498.01,84.24c0,.32-.26.57-.57.57s-.57-.26-.57-.57v-7.05c0-.32.26-.57.57-.57s.57.26.57.57v7.05Z"/><path class="cls-2" d="M515.25,76.53c.22.22.22.59,0,.81-.22.22-.59.22-.81,0l-4.99-4.99c-.22-.22-.22-.59,0-.81.22-.22.59-.22.81,0l4.99,4.99Z"/><path class="cls-2" d="M521.93,59.12c.32,0,.57.26.57.57s-.26.57-.57.57h-7.05c-.32,0-.57-.26-.57-.57s.26-.57.57-.57h7.05Z"/><path class="cls-2" d="M496.86,31.95c0-.32.26-.57.57-.57s.57.26.57.57v9.25c0,.32-.26.57-.57.57s-.57-.26-.57-.57v-9.25Z"/><path class="cls-2" d="M515.49,39.96c.22-.22.59-.22.81,0,.22.22.22.59,0,.81l-6.03,6.03c-.22.22-.59.22-.81,0-.22-.22-.22-.59,0-.81l6.03-6.03Z"/><path class="cls-2" d="M478.57,40.42c-.22-.22-.22-.59,0-.81.22-.22.59-.22.81,0l6.03,6.03c.22.22.22.59,0,.81-.22.22-.59.22-.81,0l-6.03-6.03Z"/><path class="cls-1" d="M312.77,22.96c.93,0,1.94.1,3.03.31,1.08.21,2.09.55,3.03,1.03.93.48,1.7,1.13,2.31,1.94.6.81.91,1.82.91,3.03,0,1.48-.43,2.83-1.3,4.04-.87,1.21-2.08,2.25-3.65,3.11-1.57.87-3.44,1.54-5.62,2.02-2.18.48-4.6.72-7.23.72-2.97,0-6.18-.21-9.64-.62-.63,1.98-1.11,4.19-1.42,6.63-.32,2.45-.49,5.17-.52,8.16,1.04-.03,2.11-.05,3.19-.06,1.08-.01,2.2-.02,3.36-.02,1.54,0,3.09.02,4.66.06,1.57.04,3.15.09,4.74.14.47.03.83.2,1.09.52.26.32.39.68.39,1.09,0,.44-.15.8-.45,1.07-.3.27-.66.41-1.07.41-1.57,0-3.13-.03-4.68-.08-1.55-.05-3.08-.08-4.6-.08-1.15,0-2.28,0-3.38.02-1.1.01-2.18.03-3.26.06,0,.38,0,.76.02,1.11s.02.73.02,1.11c0,4.29-.65,8.1-1.94,11.44-1.29,3.34-3.18,6.15-5.67,8.43s-5.54,4.01-9.17,5.19c-3.63,1.18-7.79,1.77-12.49,1.77-3.46,0-6.53-.31-9.21-.93s-5.03-1.44-7.05-2.45c-2.02-1.02-3.75-2.16-5.19-3.44-1.44-1.28-2.64-2.57-3.61-3.87-.96-1.3-1.73-2.57-2.31-3.79-.58-1.22-1-2.27-1.28-3.15-.03-.08-.05-.16-.06-.23s-.02-.14-.02-.23c0-.41.15-.78.45-1.09.3-.32.69-.47,1.15-.47.33,0,.62.1.89.29.26.19.45.45.56.78.25.77.62,1.69,1.11,2.76.5,1.07,1.17,2.18,2.04,3.32s1.94,2.27,3.21,3.4c1.28,1.13,2.83,2.13,4.66,3.01,1.83.88,3.94,1.59,6.35,2.14,2.4.55,5.17.82,8.3.82,8.63,0,15.15-2,19.55-6.02,4.41-4.01,6.61-9.93,6.61-17.76,0-.33,0-.67-.02-1.01s-.02-.68-.02-1.01c-2.78.11-5.33.24-7.67.39-2.34.15-4.38.3-6.12.45-1.75.15-3.15.27-4.22.37-1.07.1-1.73.14-1.98.14-.47,0-.88-.13-1.24-.39-.36-.26-.54-.65-.54-1.17,0-.38.14-.72.41-1.01.27-.29.6-.46.99-.52.03,0,.56-.05,1.59-.17,1.03-.11,2.45-.24,4.26-.39,1.81-.15,3.96-.3,6.43-.45,2.47-.15,5.17-.28,8.08-.39.05-6.07.69-11.18,1.9-15.33-2.99-.44-6.04-.97-9.15-1.59-3.11-.62-6.2-1.27-9.27-1.96-3.08-.69-6.11-1.37-9.09-2.04s-5.85-1.28-8.59-1.83-5.33-.99-7.75-1.32c-2.42-.33-4.62-.49-6.59-.49-2.78,0-5.36.28-7.75.84-2.39.56-4.46,1.38-6.2,2.45-1.75,1.07-3.12,2.38-4.12,3.94-1,1.55-1.5,3.32-1.5,5.3,0,1.29.24,2.45.72,3.48.48,1.03,1.02,1.91,1.63,2.64.6.73,1.17,1.29,1.69,1.69.52.4.81.61.87.64.25.14.43.33.54.58.11.25.17.49.17.74,0,.47-.16.85-.47,1.13s-.67.43-1.05.43c-.3,0-.59-.1-.87-.29-.66-.44-1.36-1.02-2.1-1.73-.74-.71-1.42-1.53-2.04-2.45-.62-.92-1.13-1.96-1.55-3.11-.41-1.15-.62-2.4-.62-3.75,0-2.47.58-4.67,1.75-6.59,1.17-1.92,2.77-3.56,4.8-4.9,2.03-1.35,4.43-2.37,7.19-3.07,2.76-.7,5.75-1.05,8.96-1.05,1.9,0,4.05.17,6.47.51,2.42.34,5.02.79,7.81,1.34,2.79.55,5.71,1.17,8.78,1.85s6.19,1.38,9.38,2.08c3.19.7,6.39,1.37,9.6,2,3.21.63,6.36,1.17,9.44,1.61.77-2.14,1.88-3.99,3.32-5.54,1.44-1.55,3.08-2.82,4.92-3.81,1.84-.99,3.8-1.72,5.87-2.18,2.07-.47,4.11-.7,6.12-.7ZM318.91,29.18c0-.66-.21-1.19-.64-1.59-.43-.4-.96-.71-1.59-.95s-1.3-.39-2-.47c-.7-.08-1.34-.12-1.92-.12-1.32,0-2.78.14-4.39.41-1.61.28-3.2.77-4.78,1.48-1.58.71-3.06,1.69-4.45,2.93-1.39,1.24-2.52,2.82-3.4,4.74,3.05.33,5.87.49,8.45.49,2.12,0,4.07-.17,5.87-.52,1.8-.34,3.35-.82,4.66-1.42,1.3-.6,2.33-1.33,3.07-2.18.74-.85,1.11-1.79,1.11-2.8Z"/><path class="cls-1" d="M346.52,72.54c-.3.63-.68,1.38-1.13,2.25-.45.87-.97,1.77-1.55,2.7-.58.93-1.22,1.86-1.94,2.78-.71.92-1.49,1.75-2.33,2.47-.84.73-1.73,1.32-2.68,1.77-.95.45-1.96.68-3.03.68-1.65,0-3.06-.51-4.24-1.52-1.18-1.02-2.18-2.35-3.01-4s-1.49-3.52-2-5.62c-.51-2.1-.9-4.25-1.17-6.43-.28-2.18-.46-4.31-.56-6.37-.1-2.06-.14-3.89-.14-5.48,0-2.31.08-4.7.23-7.17s.39-4.89.72-7.25c.33-2.36.75-4.6,1.26-6.72.51-2.12,1.11-3.97,1.81-5.56.7-1.59,1.5-2.86,2.41-3.79.91-.93,1.94-1.4,3.09-1.4.91,0,1.72.21,2.45.64.73.43,1.34,1.12,1.83,2.08.49.96.88,2.21,1.15,3.75.27,1.54.41,3.42.41,5.65,0,2.75-.29,5.58-.87,8.51s-1.36,5.87-2.35,8.84c-.99,2.97-2.16,5.93-3.5,8.88-1.35,2.95-2.79,5.83-4.33,8.63.69,3.49,1.61,6.23,2.76,8.22,1.15,1.99,2.54,2.99,4.16,2.99,1.1,0,2.16-.43,3.17-1.3,1.02-.87,1.95-1.89,2.8-3.07.85-1.18,1.6-2.38,2.25-3.61s1.15-2.21,1.5-2.95c.14-.27.33-.49.58-.64.25-.15.52-.23.82-.23.47,0,.84.17,1.13.5.29.33.43.7.43,1.11,0,.17-.06.39-.17.66ZM325.87,55.97c0,1.76.04,3.45.12,5.07.08,1.62.19,3.17.33,4.66,1.15-2.23,2.25-4.59,3.3-7.11,1.04-2.51,1.96-5.05,2.76-7.62.8-2.57,1.44-5.12,1.92-7.67.48-2.54.72-4.97.72-7.27,0-3.24-.26-5.56-.78-6.96-.52-1.4-1.22-2.1-2.1-2.1-.58,0-1.13.4-1.67,1.2-.54.8-1.04,1.88-1.5,3.26-.47,1.37-.89,3-1.28,4.86s-.71,3.87-.97,6.02c-.26,2.14-.47,4.38-.62,6.72-.15,2.33-.23,4.66-.23,6.96Z"/><path class="cls-1" d="M362.71,79.42c-.69,0-1.29-.05-1.81-.17-.41.82-.91,1.59-1.48,2.29-.58.7-1.24,1.31-2,1.83-.76.52-1.6.93-2.53,1.24-.93.3-1.95.45-3.05.45-1.29,0-2.47-.23-3.54-.68-1.07-.45-2.01-1.08-2.8-1.9s-1.42-1.79-1.85-2.93-.66-2.4-.66-3.77c0-1.76.32-3.29.95-4.59s1.36-2.39,2.18-3.26,1.65-1.51,2.47-1.94,1.44-.64,1.85-.64c.47,0,.82.12,1.05.37s.35.58.35.99c0,.47-.14.82-.43,1.05-.29.23-.65.46-1.09.68s-.91.53-1.4.93c-.5.4-.96.9-1.38,1.5-.43.61-.78,1.32-1.05,2.14-.28.82-.41,1.75-.41,2.76,0,.91.14,1.75.41,2.54.27.78.67,1.46,1.2,2.02.52.56,1.14,1,1.85,1.32.71.32,1.51.47,2.39.47,1.57,0,2.86-.36,3.89-1.09,1.03-.73,1.82-1.66,2.37-2.78-1.62-.85-2.95-2.06-4-3.63-1.04-1.57-1.57-3.32-1.57-5.28,0-1.57.38-2.84,1.13-3.83s1.75-1.48,2.99-1.48c.74,0,1.44.18,2.1.54s1.24.92,1.75,1.69c.51.77.91,1.76,1.21,2.97.3,1.21.45,2.65.45,4.33,0,.88-.11,1.8-.33,2.76.17.03.33.04.5.04h.54c.93,0,1.77-.11,2.51-.33.74-.22,1.42-.55,2.02-.99s1.15-1,1.63-1.69c.48-.69.94-1.48,1.38-2.39.08-.17.26-.32.54-.47.27-.15.55-.23.82-.23.36,0,.69.14,1.01.43.32.29.47.67.47,1.13,0,.22-.06.46-.17.72-.11.26-.22.5-.33.72-.47.82-1.01,1.61-1.63,2.37s-1.35,1.42-2.18,1.98c-.84.56-1.78,1.01-2.82,1.34-1.04.33-2.21.48-3.5.45ZM355.66,69.03c0,.52.07,1.07.21,1.65.14.58.35,1.15.64,1.71.29.56.64,1.1,1.07,1.61.43.51.93.94,1.5,1.3.08-.58.12-1.14.12-1.69,0-.74-.06-1.5-.17-2.27-.11-.77-.27-1.48-.47-2.12-.21-.64-.46-1.17-.76-1.57-.3-.4-.66-.6-1.07-.6-.17,0-.39.12-.66.37-.28.25-.41.78-.41,1.61Z"/><path class="cls-1" d="M399.27,72.5c-.08,1.43-.27,2.86-.58,4.31s-.78,2.74-1.42,3.89c-.65,1.15-1.49,2.1-2.53,2.82-1.04.73-2.34,1.09-3.87,1.09-.96,0-1.81-.14-2.53-.43-.73-.29-1.36-.67-1.9-1.15-.54-.48-.98-1.03-1.34-1.65-.36-.62-.66-1.27-.91-1.96-.96,1.59-2.1,2.82-3.4,3.69-1.31.87-2.6,1.3-3.89,1.3-1.04,0-1.99-.19-2.82-.58-.84-.38-1.55-.93-2.14-1.63-.59-.7-1.05-1.54-1.38-2.53-.33-.99-.49-2.1-.49-3.34,0-2.06.19-3.84.56-5.34.37-1.5.78-2.73,1.24-3.69.45-.96,1.06-1.92,1.83-2.88.14-.17.31-.29.52-.37s.42-.12.64-.12c.44,0,.8.16,1.09.47.29.32.43.68.43,1.09,0,.3-.11.63-.33.99-.11.17-.32.48-.64.95-.32.47-.64,1.1-.97,1.9s-.62,1.77-.89,2.93c-.26,1.15-.39,2.51-.39,4.08s.33,2.85.99,3.69c.66.84,1.58,1.26,2.76,1.26.58,0,1.21-.16,1.9-.47s1.33-.8,1.94-1.46c.6-.66,1.13-1.5,1.57-2.51.44-1.02.71-2.21.82-3.58l.54-7.09c.03-.41.2-.75.52-1.03.32-.27.68-.41,1.09-.41.47,0,.84.17,1.11.52s.41.74.41,1.17l-.45,6.8c-.08,1.46-.04,2.71.14,3.75.18,1.04.47,1.9.89,2.58.41.67.92,1.17,1.52,1.48s1.28.47,2.02.47c.99,0,1.83-.29,2.51-.87.69-.58,1.24-1.36,1.65-2.35s.71-2.14.89-3.44.27-2.69.27-4.14c0-1.73-.1-3.17-.29-4.33-.19-1.15-.29-1.92-.29-2.31,0-.41.15-.78.45-1.09.3-.32.67-.47,1.11-.47.38,0,.71.12.99.35.27.23.45.54.54.93.03.11.11.43.25.95.14.52.33,1.15.58,1.88.25.73.57,1.5.97,2.31s.88,1.56,1.44,2.25,1.21,1.26,1.94,1.71c.73.45,1.56.68,2.49.68.52,0,.97-.1,1.34-.31.37-.21.68-.45.93-.72.25-.27.43-.54.56-.78.12-.25.2-.4.23-.45.14-.3.34-.54.6-.72.26-.18.54-.27.84-.27.47,0,.84.17,1.13.52.29.34.43.71.43,1.09,0,.33-.14.77-.43,1.32-.29.55-.69,1.08-1.22,1.59-.52.51-1.16.95-1.92,1.32-.76.37-1.59.56-2.49.56-.8,0-1.54-.12-2.23-.35-.69-.23-1.33-.54-1.92-.93-.59-.38-1.13-.82-1.63-1.32s-.95-1.02-1.36-1.57Z"/><path class="cls-1" d="M414.43,79.42c.58.8,1.32,1.44,2.23,1.92.91.48,2.02.72,3.34.72s2.57-.32,3.67-.97c1.1-.65,2.1-1.49,3.01-2.53.91-1.04,1.72-2.21,2.43-3.5s1.36-2.58,1.94-3.87c.14-.3.33-.53.58-.68.25-.15.52-.23.82-.23.47,0,.84.17,1.13.5.29.33.43.69.43,1.07,0,.14-.01.25-.04.35s-.07.2-.12.31c-1.9,4.18-3.96,7.32-6.2,9.44s-4.77,3.2-7.6,3.26c-1.81,0-3.38-.35-4.7-1.05-1.32-.7-2.4-1.61-3.25-2.72-.85-1.11-1.48-2.37-1.9-3.77s-.62-2.8-.62-4.2.17-2.69.52-3.87c.34-1.18.84-2.21,1.48-3.09.65-.88,1.42-1.57,2.31-2.06.89-.5,1.88-.74,2.95-.74.63,0,1.26.13,1.88.39.62.26,1.17.63,1.67,1.11.49.48.89,1.06,1.2,1.75.3.69.45,1.47.45,2.35,0,1.13-.19,2.18-.58,3.17s-.91,1.91-1.59,2.76c-.67.85-1.48,1.64-2.41,2.35-.93.71-1.94,1.33-3.01,1.85ZM413.2,76.74c.85-.36,1.63-.81,2.33-1.36.7-.55,1.3-1.15,1.79-1.81.49-.66.88-1.35,1.15-2.08.27-.73.41-1.46.41-2.2,0-.82-.21-1.45-.62-1.88-.41-.42-.89-.64-1.44-.64-.74,0-1.38.21-1.9.62s-.95.95-1.28,1.61c-.33.66-.57,1.39-.72,2.21-.15.81-.23,1.61-.23,2.41,0,.49.05,1.02.14,1.57.1.55.21,1.07.35,1.57Z"/><path class="cls-1" d="M435.37,67.01c-.11.74-.25,1.44-.41,2.08s-.32,1.21-.47,1.69c-.15.48-.28.87-.39,1.17-.11.3-.18.47-.21.49-.28.63-.76.95-1.44.95-.39,0-.74-.14-1.07-.43-.33-.29-.49-.65-.49-1.09,0-.17.03-.29.08-.37.06-.08.14-.25.25-.49.11-.25.25-.66.41-1.24.16-.58.37-1.47.62-2.68-.47,0-.95-.01-1.44-.04-.5-.03-.96-.12-1.38-.29-.43-.16-.78-.43-1.05-.78-.27-.36-.41-.85-.41-1.48,0-.47.13-1.1.39-1.9s.61-1.58,1.05-2.35.93-1.44,1.48-2c.55-.56,1.1-.84,1.65-.84.63,0,1.15.23,1.55.7.4.47.71,1.04.93,1.71.22.67.38,1.38.47,2.12.1.74.14,1.39.14,1.94.47,0,.93,0,1.38-.02.45-.01.89-.02,1.3-.02,1.57,0,2.76.34,3.59,1.03.82.69,1.24,1.81,1.24,3.38,0,.63-.04,1.29-.12,1.98-.08.69-.18,1.39-.29,2.12-.11.73-.21,1.45-.29,2.16-.08.71-.12,1.42-.12,2.1,0,.99.14,1.81.41,2.45.27.65.62,1.16,1.03,1.55s.85.65,1.32.8c.47.15.89.23,1.28.23,1.18,0,2.29-.38,3.34-1.15,1.04-.77,2-1.7,2.88-2.78.88-1.08,1.67-2.23,2.37-3.44.7-1.21,1.28-2.27,1.75-3.17.14-.25.33-.44.58-.58.25-.14.51-.21.78-.21.5,0,.88.16,1.15.47.27.32.41.67.41,1.05,0,.28-.06.52-.17.74-.63,1.13-1.37,2.4-2.21,3.81s-1.79,2.74-2.86,3.98c-1.07,1.24-2.27,2.28-3.61,3.13-1.33.85-2.8,1.28-4.39,1.28-.99,0-1.92-.19-2.8-.56-.88-.37-1.64-.91-2.29-1.61-.65-.7-1.16-1.57-1.55-2.6s-.58-2.19-.58-3.48c0-1.37.14-2.74.41-4.1s.41-2.66.41-3.89c0-.52-.12-.91-.35-1.17-.23-.26-.75-.39-1.55-.39h-1.26c-.45,0-.94.01-1.46.04ZM432.61,63.96c0-.19,0-.45-.02-.76-.01-.32-.04-.62-.08-.93-.04-.3-.1-.56-.17-.78s-.14-.33-.23-.33-.19.1-.31.31c-.12.21-.25.45-.39.74-.14.29-.26.6-.37.93-.11.33-.19.6-.25.82h1.81Z"/><path class="cls-1" d="M355,42.73c-.03.55-.11,1.1-.22,1.66-.12.56-.3,1.06-.55,1.5-.25.44-.58.81-.98,1.09s-.9.42-1.49.42c-.37,0-.7-.06-.98-.17-.28-.11-.52-.26-.73-.44-.21-.19-.38-.4-.52-.64s-.25-.49-.35-.75c-.37.62-.81,1.09-1.31,1.42-.5.33-1,.5-1.5.5-.4,0-.77-.07-1.09-.22s-.6-.36-.83-.63c-.23-.27-.41-.6-.53-.98-.13-.38-.19-.81-.19-1.29,0-.79.07-1.48.21-2.06.14-.58.3-1.05.48-1.42.17-.37.41-.74.71-1.11.05-.06.12-.11.2-.14.08-.03.16-.05.25-.05.17,0,.31.06.42.18.11.12.17.26.17.42,0,.12-.04.24-.13.38-.04.06-.12.19-.25.37-.12.18-.25.42-.37.73-.13.31-.24.68-.34,1.13-.1.45-.15.97-.15,1.57s.13,1.1.38,1.42c.25.32.61.48,1.06.48.22,0,.47-.06.73-.18.26-.12.51-.31.75-.56.23-.25.43-.58.6-.97.17-.39.28-.85.32-1.38l.21-2.73c0-.16.08-.29.2-.4.12-.11.26-.16.42-.16.18,0,.32.07.43.2.11.13.16.28.16.45l-.17,2.62c-.03.56-.01,1.04.06,1.45.07.4.18.73.34.99s.35.45.59.57.49.18.78.18c.38,0,.7-.11.97-.33.26-.22.48-.52.63-.91.16-.38.27-.82.34-1.33.07-.5.1-1.04.1-1.6,0-.67-.04-1.22-.11-1.67-.07-.45-.11-.74-.11-.89,0-.16.06-.3.17-.42.12-.12.26-.18.43-.18.15,0,.27.04.38.13.11.09.17.21.21.36.01.04.04.16.1.37s.13.44.22.72c.1.28.22.58.37.89.15.31.34.6.56.87.22.26.47.48.75.66.28.17.6.26.96.26.2,0,.37-.04.52-.12.14-.08.26-.17.36-.28.1-.11.17-.21.21-.3s.08-.15.09-.17c.05-.12.13-.21.23-.28.1-.07.21-.1.33-.1.18,0,.33.07.44.2.11.13.17.27.17.42,0,.13-.06.3-.17.51-.11.21-.27.42-.47.61s-.45.37-.74.51c-.29.14-.61.21-.96.21-.31,0-.59-.04-.86-.13s-.51-.21-.74-.36c-.23-.15-.44-.32-.63-.51-.19-.19-.37-.39-.52-.6Z"/><path class="cls-1" d="M366.27,45.39c-.26,0-.5-.02-.7-.06-.16.32-.35.61-.57.88-.22.27-.48.51-.77.71-.29.2-.62.36-.98.48-.36.12-.75.17-1.18.17-.5,0-.95-.09-1.37-.26s-.77-.42-1.08-.73c-.31-.31-.55-.69-.72-1.13-.17-.44-.25-.92-.25-1.45,0-.68.12-1.27.37-1.77.24-.5.52-.92.84-1.26.32-.33.63-.58.95-.75.32-.16.56-.25.71-.25.18,0,.32.05.41.14.09.09.13.22.13.38,0,.18-.06.32-.17.41s-.25.18-.42.26c-.17.08-.35.2-.54.36s-.37.35-.53.58c-.16.23-.3.51-.41.83-.11.32-.16.67-.16,1.06,0,.35.05.67.16.98.11.3.26.56.46.78.2.22.44.39.71.51s.58.18.92.18c.6,0,1.1-.14,1.5-.42.4-.28.7-.64.91-1.07-.62-.33-1.14-.79-1.54-1.4-.4-.6-.6-1.28-.6-2.03,0-.6.15-1.1.44-1.48.29-.38.67-.57,1.15-.57.29,0,.56.07.81.21s.48.36.67.65c.2.3.35.68.47,1.14.12.47.17,1.02.17,1.67,0,.34-.04.69-.13,1.06.06.01.13.02.19.02h.21c.36,0,.68-.04.97-.13.29-.08.55-.21.78-.38.23-.17.44-.39.63-.65s.36-.57.53-.92c.03-.06.1-.12.21-.18.11-.06.21-.09.32-.09.14,0,.27.06.39.17.12.11.18.26.18.44,0,.08-.02.18-.06.28-.04.1-.08.19-.13.28-.18.32-.39.62-.63.91-.24.29-.52.54-.84.76-.32.22-.69.39-1.09.52-.4.13-.85.19-1.35.17ZM363.55,41.39c0,.2.03.41.08.64.05.22.13.44.25.66.11.22.25.42.41.62.16.2.36.36.58.5.03-.22.05-.44.05-.65,0-.29-.02-.58-.06-.87-.04-.3-.1-.57-.18-.82-.08-.25-.18-.45-.29-.6-.12-.15-.25-.23-.41-.23-.06,0-.15.05-.25.14-.11.1-.16.3-.16.62Z"/><path class="cls-1" d="M372.89,45.73c.16-.32.36-.71.61-1.18s.51-.95.78-1.42c.27-.48.54-.93.79-1.35s.48-.75.66-.97c.31-.37.62-.63.95-.79s.63-.24.91-.24.51.06.71.17c.2.12.36.27.48.47s.22.42.29.68c.06.26.09.54.09.83,0,.17,0,.39-.02.67s-.03.57-.05.89-.03.65-.05.99c-.02.34-.03.66-.04.95.16-.32.34-.67.54-1.06s.41-.77.61-1.15c.21-.38.41-.74.6-1.07.19-.33.37-.61.52-.82.46-.62.88-1.04,1.28-1.25s.75-.32,1.06-.32c.36,0,.66.07.89.2.23.13.42.3.55.51.13.21.22.44.28.69.05.25.08.5.08.73,0,.36-.03.74-.08,1.13-.05.39-.08.86-.08,1.4,0,.22,0,.44.03.67s.07.42.13.59c.07.17.18.31.33.41s.35.16.6.16c.28,0,.55-.07.81-.21s.52-.33.76-.56c.24-.23.47-.5.69-.79.22-.3.42-.59.6-.89.18-.3.34-.58.48-.85.14-.27.25-.5.33-.69.05-.12.13-.21.22-.27.1-.06.2-.1.32-.1.18,0,.33.07.44.2s.17.27.17.42c0,.07-.02.15-.05.22-.04.08-.13.26-.25.53-.13.27-.3.58-.51.92-.21.34-.46.71-.74,1.09-.28.38-.59.73-.93,1.06s-.71.59-1.1.79c-.39.21-.8.31-1.24.31-.47,0-.84-.08-1.14-.25-.29-.16-.52-.38-.7-.66s-.29-.59-.36-.95-.1-.74-.1-1.13c0-.52.03-1,.08-1.44.05-.44.08-.78.08-1.02,0-.26-.02-.47-.07-.6s-.11-.24-.17-.29c-.07-.06-.13-.09-.2-.1-.06,0-.11,0-.14,0-.25,0-.52.14-.8.42-.28.28-.57.65-.87,1.12-.3.47-.6,1-.91,1.59-.31.59-.63,1.2-.95,1.81-.18.34-.33.62-.45.84-.12.22-.24.4-.35.52-.11.13-.22.22-.33.27-.11.05-.22.08-.35.08-.28,0-.48-.1-.63-.29-.14-.19-.21-.44-.21-.75,0-.16,0-.37.02-.64s.02-.56.03-.87c0-.32.03-.65.05-.99.02-.34.04-.66.05-.98s.02-.59.03-.83c0-.24.02-.43.02-.56,0-.28-.05-.47-.14-.6-.1-.12-.21-.18-.33-.18-.12,0-.25.04-.39.13-.14.08-.31.25-.5.49-.15.19-.34.47-.56.83-.23.37-.47.77-.72,1.21-.25.45-.51.9-.75,1.37-.25.47-.46.88-.64,1.26-.22.44-.44.75-.67.91s-.44.25-.65.25c-.31,0-.54-.09-.68-.28-.15-.19-.22-.43-.22-.74,0-.03,0-.22.02-.57s.03-.78.06-1.28.04-1.04.07-1.61c.03-.57.05-1.11.07-1.6.01-.26,0-.51-.03-.73-.03-.22-.07-.36-.13-.4-.08.02-.25.22-.5.59s-.56,1.02-.95,1.94c-.05.12-.13.21-.24.27s-.22.1-.33.1c-.18,0-.32-.06-.43-.18s-.16-.26-.16-.42c0-.07.02-.15.05-.24.48-1.13.93-1.97,1.37-2.5.43-.53.86-.8,1.27-.8.24,0,.45.06.61.17.16.11.29.25.39.43s.16.37.21.6c.04.22.06.44.06.65,0,.94-.02,1.81-.07,2.59-.05.78-.1,1.57-.15,2.37Z"/><path class="cls-1" d="M391.93,45.39c.22.31.51.55.86.74s.78.28,1.29.28.99-.12,1.41-.37c.42-.25.81-.57,1.16-.98s.66-.85.94-1.35.52-1,.75-1.49c.05-.12.13-.2.22-.26.1-.06.2-.09.32-.09.18,0,.33.06.44.19s.17.26.17.41c0,.05,0,.1-.02.13-.01.04-.03.08-.05.12-.73,1.61-1.53,2.82-2.39,3.64-.86.82-1.84,1.23-2.93,1.25-.7,0-1.3-.13-1.81-.41-.51-.27-.93-.62-1.26-1.05-.33-.43-.57-.91-.73-1.45s-.24-1.08-.24-1.62.07-1.04.2-1.49c.13-.46.32-.85.57-1.19s.55-.6.89-.79c.34-.19.72-.29,1.14-.29.24,0,.49.05.72.15s.45.24.64.43c.19.19.34.41.46.68.12.26.17.57.17.91,0,.43-.07.84-.22,1.22-.15.38-.35.74-.61,1.06s-.57.63-.93.91c-.36.28-.75.51-1.16.71ZM391.45,44.36c.33-.14.63-.31.9-.52s.5-.45.69-.7c.19-.25.34-.52.44-.8.11-.28.16-.56.16-.85,0-.32-.08-.56-.24-.72s-.34-.25-.56-.25c-.29,0-.53.08-.73.24-.2.16-.37.37-.49.62s-.22.54-.28.85c-.06.31-.09.62-.09.93,0,.19.02.39.05.6s.08.41.14.6Z"/><path class="cls-1" d="M401.86,45.71c.17-.35.37-.73.59-1.15.22-.42.46-.84.71-1.27.25-.43.52-.86.8-1.28s.57-.83.88-1.21c.31-.37.62-.64.93-.8s.61-.25.88-.25c.55,0,.96.2,1.22.6.26.4.4.9.4,1.49,0,.14,0,.3-.02.5s-.03.41-.05.63c-.02.22-.03.45-.05.68-.02.23-.02.44-.02.64,0,.25.01.5.04.73.03.23.08.44.15.61.07.17.18.31.32.41s.32.15.54.15c.4,0,.79-.16,1.18-.47.38-.31.73-.68,1.06-1.11.32-.43.6-.87.84-1.31s.42-.8.53-1.08c.05-.12.13-.21.23-.27s.21-.1.33-.1c.18,0,.33.07.44.2s.17.27.17.42c0,.07-.02.15-.05.22-.04.08-.13.26-.25.52-.13.26-.29.57-.5.91-.21.34-.45.71-.72,1.1-.28.39-.58.74-.91,1.06-.33.32-.69.58-1.08.79s-.79.32-1.22.32c-.48,0-.86-.09-1.16-.28-.3-.19-.53-.43-.7-.73-.17-.3-.28-.63-.34-1-.06-.37-.09-.73-.09-1.1,0-.16,0-.34.02-.54.02-.2.04-.41.06-.64s.05-.45.06-.67c.02-.22.02-.43.02-.63,0-.34-.05-.57-.16-.69-.11-.12-.2-.18-.29-.18-.17,0-.36.1-.58.29-.22.2-.45.45-.68.77s-.48.67-.73,1.07-.48.79-.7,1.18c-.22.39-.42.77-.6,1.12-.19.36-.33.65-.44.88-.21.45-.42.74-.63.9-.21.15-.43.23-.65.23-.31,0-.55-.09-.74-.28-.19-.19-.28-.45-.28-.79,0-.07.01-.22.03-.44.02-.22.05-.48.08-.78.03-.3.06-.63.1-.98.03-.35.06-.7.09-1.04.03-.34.06-.66.08-.96.02-.3.03-.54.03-.75,0-.26-.01-.52-.03-.76-.02-.24-.06-.39-.13-.44-.1.03-.27.23-.51.6-.24.37-.56,1.01-.94,1.93-.05.12-.13.21-.24.27s-.22.1-.33.1c-.18,0-.32-.06-.43-.18s-.16-.26-.16-.42c0-.07.02-.15.05-.24.48-1.13.92-1.97,1.34-2.5.42-.53.83-.8,1.25-.8.24,0,.45.06.62.18.17.12.3.28.41.48.1.2.17.42.22.67.05.24.07.49.07.75,0,.19-.01.49-.04.89s-.06.83-.1,1.29-.08.92-.12,1.37c-.04.46-.07.84-.1,1.14Z"/><path class="cls-1" d="M427.28,45.39c-.26,0-.5-.02-.7-.06-.16.32-.35.61-.57.88-.22.27-.48.51-.77.71s-.62.36-.98.48c-.36.12-.75.17-1.18.17-.5,0-.95-.09-1.37-.26s-.77-.42-1.08-.73c-.31-.31-.55-.69-.71-1.13-.17-.44-.25-.92-.25-1.45,0-.68.12-1.27.37-1.77.24-.5.52-.92.84-1.26.32-.33.64-.58.95-.75.32-.16.56-.25.71-.25.18,0,.32.05.41.14.09.09.14.22.14.38,0,.18-.06.32-.17.41s-.25.18-.42.26c-.17.08-.35.2-.54.36-.19.15-.37.35-.53.58-.16.23-.3.51-.4.83-.11.32-.16.67-.16,1.06,0,.35.05.67.16.98.11.3.26.56.46.78.2.22.44.39.72.51.27.12.58.18.92.18.6,0,1.1-.14,1.5-.42.4-.28.7-.64.91-1.07-.62-.33-1.14-.79-1.54-1.4s-.6-1.28-.6-2.03c0-.6.15-1.1.44-1.48.29-.38.68-.57,1.15-.57.29,0,.56.07.81.21.25.14.48.36.68.65.2.3.35.68.47,1.14.12.47.17,1.02.17,1.67,0,.34-.04.69-.13,1.06.06.01.13.02.19.02h.21c.36,0,.68-.04.97-.13.29-.08.54-.21.78-.38.23-.17.44-.39.63-.65.18-.26.36-.57.53-.92.03-.06.1-.12.21-.18.11-.06.21-.09.32-.09.14,0,.27.06.39.17s.18.26.18.44c0,.08-.02.18-.06.28-.04.1-.08.19-.13.28-.18.32-.39.62-.63.91-.24.29-.52.54-.84.76-.32.22-.69.39-1.09.52-.4.13-.85.19-1.35.17ZM424.56,41.39c0,.2.03.41.08.64s.13.44.25.66c.11.22.25.42.41.62s.36.36.58.5c.03-.22.05-.44.05-.65,0-.29-.02-.58-.06-.87-.04-.3-.1-.57-.18-.82-.08-.25-.18-.45-.29-.6-.12-.15-.25-.23-.41-.23-.06,0-.15.05-.25.14-.11.1-.16.3-.16.62Z"/><path class="cls-1" d="M433.76,45.71c.17-.35.37-.73.59-1.15.22-.42.46-.84.71-1.27.25-.43.52-.86.8-1.28.28-.42.57-.83.88-1.21.31-.37.62-.64.93-.8s.61-.25.88-.25c.55,0,.96.2,1.22.6s.4.9.4,1.49c0,.14,0,.3-.02.5-.02.2-.03.41-.05.63-.02.22-.03.45-.05.68-.02.23-.02.44-.02.64,0,.25.01.5.04.73.03.23.08.44.15.61.07.17.18.31.32.41s.32.15.54.15c.4,0,.79-.16,1.18-.47.38-.31.73-.68,1.06-1.11.32-.43.6-.87.84-1.31s.42-.8.53-1.08c.05-.12.13-.21.23-.27s.21-.1.33-.1c.18,0,.33.07.44.2s.17.27.17.42c0,.07-.02.15-.05.22-.04.08-.13.26-.25.52s-.29.57-.5.91c-.21.34-.45.71-.72,1.1s-.58.74-.91,1.06c-.33.32-.69.58-1.08.79s-.79.32-1.21.32c-.48,0-.86-.09-1.16-.28s-.53-.43-.7-.73c-.17-.3-.28-.63-.34-1-.06-.37-.09-.73-.09-1.1,0-.16,0-.34.02-.54.02-.2.04-.41.06-.64s.05-.45.06-.67c.02-.22.02-.43.02-.63,0-.34-.05-.57-.16-.69s-.2-.18-.29-.18c-.17,0-.36.1-.58.29-.22.2-.44.45-.68.77s-.48.67-.73,1.07-.48.79-.7,1.18c-.22.39-.42.77-.6,1.12-.19.36-.33.65-.44.88-.21.45-.42.74-.64.9-.21.15-.43.23-.65.23-.31,0-.55-.09-.74-.28s-.28-.45-.28-.79c0-.07,0-.22.03-.44s.05-.48.08-.78c.03-.3.06-.63.09-.98.03-.35.06-.7.1-1.04.03-.34.06-.66.08-.96.02-.3.03-.54.03-.75,0-.26-.01-.52-.03-.76-.02-.24-.06-.39-.13-.44-.09.03-.26.23-.51.6-.24.37-.56,1.01-.94,1.93-.05.12-.13.21-.24.27-.11.06-.22.1-.33.1-.18,0-.32-.06-.43-.18-.11-.12-.16-.26-.16-.42,0-.07.02-.15.05-.24.48-1.13.92-1.97,1.34-2.5.42-.53.83-.8,1.25-.8.24,0,.45.06.62.18.17.12.3.28.41.48s.17.42.22.67c.05.24.07.49.07.75,0,.19-.01.49-.04.89s-.06.83-.1,1.29c-.04.46-.08.92-.12,1.37-.04.46-.07.84-.1,1.14Z"/><path class="cls-1" d="M453.75,42.74c-.12.24-.26.53-.44.87-.17.33-.37.68-.6,1.04-.22.36-.47.72-.75,1.07s-.58.67-.9.95c-.32.28-.67.51-1.03.68s-.75.26-1.17.26c-.64,0-1.18-.2-1.64-.59-.46-.39-.84-.91-1.16-1.54-.32-.64-.58-1.36-.77-2.17-.2-.81-.35-1.64-.45-2.48-.11-.84-.18-1.66-.21-2.46-.04-.79-.06-1.5-.06-2.11,0-.89.03-1.81.09-2.76.06-.95.15-1.89.28-2.8.13-.91.29-1.77.48-2.59.2-.82.43-1.53.7-2.14.27-.61.58-1.1.93-1.46s.75-.54,1.19-.54c.35,0,.66.08.95.25.28.16.52.43.71.8.19.37.34.85.44,1.45.11.59.16,1.32.16,2.18,0,1.06-.11,2.15-.33,3.28s-.52,2.26-.91,3.41c-.38,1.14-.83,2.29-1.35,3.42-.52,1.14-1.08,2.25-1.67,3.33.26,1.35.62,2.4,1.06,3.17.44.77.98,1.15,1.6,1.15.42,0,.83-.17,1.22-.5.39-.33.75-.73,1.08-1.18s.62-.92.87-1.39c.25-.47.44-.85.58-1.14.05-.11.13-.19.22-.25.1-.06.2-.09.32-.09.18,0,.33.06.44.19s.17.27.17.43c0,.06-.02.15-.06.25ZM445.79,36.35c0,.68.02,1.33.05,1.95.03.62.07,1.22.13,1.8.44-.86.87-1.77,1.27-2.74s.76-1.95,1.06-2.94c.31-.99.55-1.98.74-2.96s.28-1.91.28-2.8c0-1.25-.1-2.14-.3-2.68-.2-.54-.47-.81-.81-.81-.22,0-.44.15-.64.46-.21.31-.4.73-.58,1.25-.18.53-.34,1.16-.49,1.88-.15.72-.27,1.49-.37,2.32s-.18,1.69-.24,2.59c-.06.9-.09,1.8-.09,2.69Z"/><path class="cls-1" d="M458.58,47.37c.37-.37.75-.75,1.13-1.14.38-.39.75-.79,1.11-1.21.36-.42.7-.87,1.01-1.33.31-.46.59-.95.83-1.47.05-.12.13-.2.22-.26.09-.06.2-.09.32-.09.18,0,.33.06.44.19s.17.27.17.43c0,.08-.02.16-.05.24-.33.69-.71,1.32-1.13,1.89-.42.57-.87,1.12-1.33,1.63-.47.51-.94,1.01-1.41,1.49s-.93.97-1.37,1.45c-.04.73-.04,1.46,0,2.2.04.74.06,1.52.06,2.34,0,.68-.02,1.36-.06,2.03-.04.68-.11,1.33-.21,1.95-.09.62-.22,1.2-.39,1.74-.17.54-.37,1.01-.63,1.41s-.55.71-.89.94c-.34.23-.74.34-1.19.34-.75,0-1.33-.26-1.73-.78-.4-.52-.6-1.24-.6-2.18,0-.51.06-1.05.17-1.64.11-.58.27-1.18.47-1.8s.44-1.25.72-1.88.58-1.25.91-1.86c.33-.6.68-1.18,1.05-1.72.37-.55.75-1.04,1.13-1.49.02-.51.05-1.04.07-1.58.03-.54.06-1.05.09-1.52-.28.49-.62.88-1.02,1.18-.41.3-.86.45-1.34.45-.8,0-1.44-.27-1.89-.81-.46-.54-.68-1.28-.68-2.22,0-.69.07-1.32.2-1.88.13-.57.28-1.05.43-1.46.15-.41.29-.72.42-.94s.19-.32.19-.31c.12-.18.28-.27.49-.27.18,0,.33.06.44.18.11.12.17.26.17.42,0,.12-.03.22-.1.32.01-.01-.04.08-.15.26s-.23.45-.37.8c-.13.35-.25.77-.37,1.25-.11.49-.17,1.02-.17,1.6s.11,1.04.32,1.37c.21.33.56.49,1.03.49.6,0,1.15-.45,1.64-1.34.49-.89.9-2.2,1.24-3.9.02-.14.08-.25.19-.34.11-.09.23-.13.38-.13.17,0,.31.06.43.17.12.12.17.26.17.43,0,.03-.02.22-.06.56-.04.34-.09.8-.15,1.37-.06.57-.12,1.24-.18,1.99-.06.76-.12,1.56-.16,2.42ZM457.31,50.73c-.48.69-.91,1.41-1.31,2.18s-.74,1.52-1.02,2.27c-.29.75-.51,1.47-.67,2.16-.16.69-.24,1.3-.24,1.84s.09.98.27,1.29c.18.31.47.47.86.47.35,0,.66-.17.93-.52.27-.34.5-.83.68-1.47.18-.64.33-1.41.42-2.31.09-.91.14-1.92.14-3.04,0-.46,0-.92-.02-1.38s-.03-.96-.04-1.49Z"/></g></svg>