<?xml version="1.0" encoding="UTF-8"?><svg id="_レイヤー_2" xmlns="http://www.w3.org/2000/svg" viewBox="0 0 323.11 57.43"><defs><style>.cls-1{fill:#54c2f0;}.cls-1,.cls-2,.cls-3{stroke-width:0px;}.cls-2{fill:#fff;}.cls-3{fill:#4d4d4d;}</style></defs><g id="DESIGN"><path class="cls-3" d="M12.83,11.29c-.21,2.33-.83,4.33-1.86,6,2.8,1.32,5.44,3.54,5.44,4.29,0,.38-.3.7-.64.7-.17,0-.34-.09-.49-.26-1.39-1.6-3.01-2.9-4.93-3.86-3.2,4.16-8.45,4.38-9.65,4.38-.43,0-.66-.3-.66-.6,0-.28.21-.55.64-.55,3.59,0,6.64-1.2,8.6-3.71-1.26-.51-2.67-.88-4.18-1.07-.38,1.05-.58,1.17-.96,1.17-.32,0-.6-.21-.6-.51,0-.09.02-.19.06-.3.85-1.79,1.6-3.74,2.2-5.68l-5.27.02c-.36,0-.53-.26-.53-.53,0-.26.17-.53.53-.53h5.57c.51-1.79.92-3.59,1.2-5.27.06-.3.3-.43.56-.43.32,0,.64.19.64.51,0,.47-1.02,4.55-1.22,5.19h10.12c.34,0,.51.28.51.53,0,.28-.17.53-.51.53l-4.57-.02ZM6.98,11.29c-.45,1.47-.96,2.97-1.52,4.42,1.47.15,2.99.53,4.42,1.11.92-1.47,1.52-3.31,1.75-5.53h-4.65Z"/><path class="cls-3" d="M19.82,12.89c0-.11.04-.23.13-.38.6-.98.9-2.35.9-3.54,0-.34.23-.47.47-.47.15,0,.6.06.6.56,0,1.22-.6,4.33-1.56,4.33-.28,0-.53-.19-.53-.49ZM23.13,4.9c0-.36.3-.53.6-.53.28,0,.58.17.58.53v17.21c0,.34-.3.51-.58.51-.3,0-.6-.17-.6-.51V4.9ZM26.01,10.3c-.32-.79-.96-1.69-1.2-1.96-.06-.08-.11-.17-.11-.26,0-.21.23-.41.49-.41.53,0,1.81,1.77,1.81,2.33,0,.36-.3.6-.58.6-.17,0-.34-.09-.43-.3ZM26.8,21.77c-.36,0-.53-.23-.53-.49s.19-.51.53-.51l5.34.02v-4.95l-3.42.02c-.36,0-.53-.23-.53-.49s.19-.51.53-.51l3.42.02v-4.35l-3.12.02c-.47,1.15-1.07,2.24-1.79,3.29-.15.23-.34.32-.53.32-.28,0-.53-.23-.53-.53,0-.11.02-.21.11-.32,1.2-1.62,2.33-3.95,2.73-6.83.04-.34.3-.51.56-.51.3,0,.6.21.6.56,0,.23-.28,1.6-.77,3.03l2.75.02v-4.59c0-.36.28-.56.56-.56.3,0,.58.19.58.56v4.59l4.27-.02c.34,0,.51.26.51.51,0,.23-.17.49-.51.49l-4.27-.02v4.35l3.39-.02c.36,0,.56.26.56.49,0,.26-.19.51-.56.51l-3.39-.02v4.95l4.93-.02c.34,0,.51.26.51.49,0,.26-.17.51-.51.51h-11.4Z"/><path class="cls-3" d="M52.61,17.71v1.26l.04,1.35v.08c0,.88-.32,2.2-2.48,2.2-1.88,0-1.92-.45-1.92-.7,0-.28.19-.56.49-.56.04,0,.09.02.13.02.49.11.94.17,1.32.17.81,0,1.34-.32,1.34-1.32v-2.5l-11.27.04c-.32,0-.49-.23-.49-.49,0-.23.17-.49.49-.49l11.25.02v-1.41c0-.32.28-.47.56-.47.26,0,.53.15.53.47v1.39h4.48c.32,0,.49.23.49.49,0,.23-.17.49-.49.49l-4.48-.04ZM49.11,6.89v1.64c1.26,0,2.54.02,3.76.04,1.26.02,1.92.79,1.96,1.47.02.45.04,1.09.04,1.71,0,.51-.02,1.02-.04,1.39-.06.9-.75,1.64-2.09,1.69-1.39.04-2.67.06-3.93.06-1.45,0-2.86-.02-4.27-.06-1.39-.04-2.09-.7-2.13-1.64-.02-.43-.02-.98-.02-1.52s0-1.09.02-1.45c.06-.94.73-1.62,2.09-1.64,1.05-.02,2.26-.04,3.54-.04v-1.64l-6.94.02c-.32,0-.49-.23-.49-.49,0-.23.17-.47.49-.47l6.94.02v-1.47c0-.34.28-.51.53-.51.28,0,.53.17.53.51v1.47l7.09-.02c.32,0,.49.23.49.47,0,.26-.17.49-.49.49l-7.09-.02ZM48.06,9.37c-1.22,0-2.37,0-3.35.02-1.22.04-1.32.75-1.32,1.86h4.67v-1.88ZM48.06,12.05h-4.67c0,1.2.04,1.92,1.3,1.94,1.07.02,2.2.04,3.37.04v-1.99ZM46.72,20.91c-.68-.64-1.77-1.11-2.63-1.41-.19-.06-.28-.21-.28-.38,0-.26.23-.53.53-.53.58,0,2.54.92,3.01,1.32.17.15.23.32.23.49,0,.34-.26.64-.56.64-.11,0-.21-.02-.32-.13ZM53.82,11.24c0-.32-.02-.6-.02-.81-.04-.7-.38-1.02-1.3-1.05-1.02-.02-2.22-.02-3.42-.02v1.88h4.74ZM49.08,12.05v1.99c1.15,0,2.31-.02,3.42-.04,1.32-.02,1.32-.66,1.32-1.94h-4.74Z"/><path class="cls-3" d="M75.88,19.97v.06c0,1.2-.53,2.39-2.88,2.39-.53,0-1.13-.06-1.86-.19-.34-.06-.51-.32-.51-.58,0-.3.19-.56.53-.56h.11c.73.13,1.3.21,1.79.21,1.13,0,1.64-.43,1.64-1.52s-.02-2.52-.02-4.1h-5.76l.02,6.06c0,.38-.28.56-.58.56-.28,0-.58-.17-.58-.56v-6.06h-5.46c-.23,2.43-.77,4.78-1.94,6.45-.17.26-.41.34-.62.34-.34,0-.64-.26-.64-.56,0-.11.04-.21.11-.32,1.79-2.56,2.13-6.17,2.13-9.56,0-1.6-.09-3.16-.11-4.53v-.04c0-1.56.94-2.35,2.69-2.39,1.67-.04,3.35-.09,5.06-.09,1.41,0,2.86.02,4.35.09,1.41.04,2.39.81,2.41,2.13.06,3.07.04,8.05.09,10.42l.02,2.33ZM67.81,10.9h-5.34c0,.41.02.81.02,1.24,0,.85-.02,1.71-.09,2.58h5.4v-3.82ZM67.81,6.04c-1.26,0-2.52.04-3.78.06-1.05.02-1.6.53-1.6,1.56,0,.68.02,1.45.04,2.26h5.34v-3.89ZM74.66,9.92c0-.85-.02-1.62-.04-2.26-.02-.94-.38-1.52-1.54-1.56-1.39-.04-2.77-.06-4.16-.06v3.89h5.74ZM68.92,10.9v3.82h5.76c0-1.28,0-2.6-.02-3.82h-5.74Z"/><path class="cls-3" d="M92.01,13.61c.26.15.36.36.36.58,0,.34-.28.66-.62.66-.13,0-.26-.04-.38-.13-.9-.6-2.13-1.07-3.12-1.22-.28-.04-.41-.26-.41-.47,0-.3.21-.62.62-.62,0,0,2.09.36,3.54,1.2ZM90.43,21.51c-.43,0-.7-.34-.7-.66,0-.26.15-.51.53-.62,4.78-1.28,9.29-5.4,11.59-10.33.11-.23.34-.34.55-.34.32,0,.64.21.64.6,0,.13-.04.28-.13.45-4.21,8.5-12.02,10.91-12.49,10.91ZM93.99,10.99c-.75-.77-1.88-1.54-2.8-1.9-.21-.09-.32-.28-.32-.45,0-.3.23-.6.6-.6.3,0,3.63,1.58,3.63,2.5,0,.36-.28.68-.64.68-.15,0-.32-.08-.47-.23ZM100.05,8.43c-.43-.53-1.43-1.24-2.07-1.52-.19-.09-.28-.21-.28-.36,0-.21.21-.45.53-.45.47,0,2.71,1.2,2.71,1.99,0,.3-.26.53-.51.53-.15,0-.28-.06-.38-.19ZM101.83,6.87c-.43-.51-1.45-1.22-2.11-1.49-.19-.08-.3-.23-.3-.38,0-.21.21-.45.53-.45.38,0,2.77,1.17,2.77,1.96,0,.32-.26.55-.53.55-.13,0-.26-.06-.36-.19Z"/><path class="cls-3" d="M104.76,21.19c-.43,0-.68-.32-.68-.64,0-.3.19-.58.66-.64.45-.06.9-.11,1.39-.19,1.13-2.5,3.56-8.73,4.1-11.44.09-.45.38-.64.68-.64.34,0,.68.28.68.68,0,.53-2.03,6.45-4.1,11.16,2.84-.51,6-1.24,7.94-1.75-.79-1.05-1.67-2.03-2.28-2.56-.13-.11-.17-.23-.17-.36,0-.28.26-.55.58-.55.15,0,.32.06.49.21,2.18,1.96,4.21,4.91,4.21,5.61,0,.41-.34.73-.68.73-.21,0-.45-.13-.58-.45-.21-.53-.53-1.09-.9-1.67-3.88,1.13-10.91,2.5-11.33,2.5Z"/><path class="cls-3" d="M125.05,20.87c-.3,0-.6-.19-.6-.6,0-.96.02-2.28.04-3.16,0-.28-.06-.3-.34-.3-2.56,0-2.86.02-2.97.02-.43.02-.6-.32-.6-.58,0-.28.17-.56.53-.56h.02c.64.02,2.01.02,3.07.02.23,0,.28-.13.28-.3,0-.88,0-2.11-.04-2.92,0-.13,0-.6.6-.6.3,0,.6.19.6.56v2.95c0,.26.06.32.32.32,1,0,2.31,0,2.97-.02h.02c.38,0,.6.28.6.56s-.21.58-.62.58c-.92,0-2.16-.02-2.99-.02-.28,0-.3.11-.3.34v3.14c0,.38-.3.58-.6.58Z"/><path class="cls-3" d="M133.84,9.86c-.34,0-.53-.28-.53-.53,0-.28.19-.55.58-.58,1.58-.06,4.85-.13,7.04-.13,1.26,0,1.86.64,1.86,1.37,0,.26-.06.53-.21.79-.75,1.35-1.6,2.65-2.6,3.89,1.84,1.11,6.08,3.99,6.08,5.1,0,.38-.32.7-.66.7-.19,0-.36-.09-.53-.28-1.13-1.41-3.71-3.61-5.61-4.67-3.22,3.63-7.15,5.27-7.64,5.27-.36,0-.62-.28-.62-.58,0-.23.15-.47.53-.62,6.3-2.39,9.84-8.65,9.84-9.41,0-.45-.45-.45-1.13-.45-1.56,0-4.59.09-6.36.13h-.02Z"/><path class="cls-3" d="M150.4,21.94c-.38,0-.62-.26-.62-.53,0-.21.17-.47.56-.62,3.29-1.2,5.81-3.18,7.81-5.59-1.05-.64-2.18-1.17-3.16-1.45-.21-.06-.32-.23-.32-.43,0-.28.19-.56.55-.56.34,0,1.92.56,3.63,1.54.62-.83,2.67-3.99,2.67-4.65,0-.32-.21-.47-.58-.47-.49,0-3.59.21-4.68.34-1.67,2.22-4.5,5.44-5.49,5.44-.32,0-.56-.23-.56-.53,0-.21.13-.45.43-.64,2.09-1.32,5.23-5.25,6.06-7.19.15-.34.38-.47.62-.47.34,0,.68.28.68.64,0,.23-.3.68-.98,1.69.49-.04,3.71-.3,4.27-.3,1.02,0,1.58.53,1.58,1.3,0,.32-.11.7-.32,1.09-.85,1.58-1.75,3.03-2.73,4.38,1.15.79,2.18,1.62,2.18,2.13,0,.34-.28.62-.6.62-.15,0-.32-.06-.47-.23-.47-.53-1.09-1.09-1.81-1.6-3.71,4.59-8.39,6.1-8.73,6.1Z"/><path class="cls-3" d="M171.34,13.61c.26.15.36.36.36.58,0,.34-.28.66-.62.66-.13,0-.26-.04-.38-.13-.9-.6-2.13-1.07-3.12-1.22-.28-.04-.41-.26-.41-.47,0-.3.21-.62.62-.62,0,0,2.09.36,3.54,1.2ZM169.76,21.51c-.43,0-.7-.34-.7-.66,0-.26.15-.51.53-.62,4.78-1.28,9.29-5.4,11.59-10.33.11-.23.34-.34.55-.34.32,0,.64.21.64.6,0,.13-.04.28-.13.45-4.21,8.5-12.02,10.91-12.49,10.91ZM173.32,10.99c-.75-.77-1.88-1.54-2.8-1.9-.21-.09-.32-.28-.32-.45,0-.3.23-.6.6-.6.3,0,3.63,1.58,3.63,2.5,0,.36-.28.68-.64.68-.15,0-.32-.08-.47-.23ZM179.38,8.43c-.43-.53-1.43-1.24-2.07-1.52-.19-.09-.28-.21-.28-.36,0-.21.21-.45.53-.45.47,0,2.71,1.2,2.71,1.99,0,.3-.26.53-.51.53-.15,0-.28-.06-.38-.19ZM181.16,6.87c-.43-.51-1.45-1.22-2.11-1.49-.19-.08-.3-.23-.3-.38,0-.21.21-.45.53-.45.38,0,2.77,1.17,2.77,1.96,0,.32-.26.55-.53.55-.13,0-.26-.06-.36-.19Z"/><path class="cls-3" d="M194.11,12.4c-2.2,3.1-4.48,5.38-7.75,7.32-.21.13-.38.17-.56.17-.36,0-.6-.28-.6-.58,0-.19.11-.43.38-.56,3.39-1.71,6.13-4.63,8.03-7.71-2.24.02-4.5.11-6.64.19h-.04c-.38,0-.6-.28-.6-.53s.19-.53.6-.53c2.33-.09,4.87-.15,7.36-.17-.04-1.49-.11-2.75-.13-3.39v-.04c0-.41.28-.6.56-.6.32,0,.64.21.64.6,0,.7.02,1.96.06,3.44h4.08c.45,0,.66.28.66.56s-.23.56-.66.56h-.04c-1.3-.06-2.65-.09-4.01-.09,0,0,.09,3.1.28,8.41v.09c0,1.47-.96,2.2-2.46,2.2-.41,0-2.07-.04-2.07-.79,0-.3.23-.58.56-.58.06,0,.11,0,.17.02.43.13.88.23,1.28.23.75,0,1.34-.32,1.34-1.3,0-1.13-.17-6.43-.19-7.3l-.26.38Z"/><path class="cls-3" d="M7.3,49.75c-.06,1.52.62,2.27,2.48,2.51,1.8.25,6.83-.06,9.03-.84,2.36-.81,3.69,2.54.65,3.35-2.79.75-7.54.84-10.8.43-2.73-.34-4.38-2.11-4.41-4.66-.03-3.1.19-10.02.22-13.72,0-2.17,3.2-1.74,3.17.09-.03,1.68-.09,4-.15,6.3,2.45-.47,7.45-1.86,9.78-2.89,2.27-.99,3.82,2.17,1.15,3.1-2.95.99-7.48,2.42-11.02,2.82-.03,1.37-.06,2.61-.09,3.48ZM21.77,39.79c-1.8,0-3.26-1.46-3.26-3.26s1.46-3.29,3.26-3.29,3.29,1.49,3.29,3.29-1.49,3.26-3.29,3.26ZM21.77,34.91c-.87,0-1.55.75-1.55,1.61s.68,1.55,1.55,1.55,1.61-.68,1.61-1.55-.75-1.61-1.61-1.61Z"/><path class="cls-3" d="M42.25,51.27c1.92.06,1.77,2.79-.06,2.73-4.56-.16-10.77-.19-14.87.09-1.83.12-2.02-2.7-.09-2.76,2.08-.06,5.12-.12,8.26-.12.37-1.4.81-3.17.96-4.13.09-.47-.03-.75-.62-.75-1.3,0-3.41-.03-5.46.06-1.99.09-2.02-2.61-.22-2.67,2.73-.09,5.56-.03,7.11.03,2.02.09,2.67,1.52,2.33,3.13-.31,1.37-.71,2.98-1.12,4.31,1.33,0,2.61.03,3.79.06Z"/><path class="cls-3" d="M51.94,56.58c-1.24.78-2.39.43-2.92-.28-.53-.71-.4-1.8.84-2.42,5.21-2.58,6.98-7.7,6.52-12.2-.12-1.3.71-1.89,1.71-1.89s1.89.47,1.86,1.77c0,.37,0,.78-.03,1.15.09-.03.16-.09.25-.12,2.08-.84,4.44-2.23,5.65-3.91.47-.65.47-1.12-.34-1.12-3.48-.03-10.24.06-14.59.28-2.73.12-2.58-2.86-.25-2.98,4.5-.22,11.27-.19,15.92-.19,3.23,0,4.72,2.7,2.54,5.15-2.05,2.33-4.31,4.31-7.7,5.52-.71.25-1.33.19-1.77-.09-.78,4.75-3.1,8.44-7.7,11.33Z"/><path class="cls-3" d="M74.6,55.3c-2.27.84-3.32-2.2-.99-3.01,5.65-1.96,10.55-6.92,13-11.55.28-.53.16-1.02-.53-1.02-1.96-.03-6.24.12-8.97.19-1.86.06-1.99-2.92,0-3.01,2.27-.09,6.83-.15,9.96-.15,2.79,0,4.38,1.77,3.17,3.88-1.06,1.83-2.17,3.6-3.45,5.28,2.58,1.55,6.52,4.16,7.95,6.15,1.24,1.74-1.09,4.16-2.54,2.33-1.52-1.89-4.72-4.72-7.26-6.24-2.73,3.04-6.08,5.56-10.34,7.17Z"/><path class="cls-3" d="M105.17,55.49c.06,2.51-3.48,2.61-3.35.12.22-5.03.31-17.19.19-21.66-.06-2.11,3.29-2.08,3.23.03-.03,1.52-.06,4.22-.09,7.26.16,0,.34,0,.53.03,1.74.28,5.77,1.27,7.45,2.7,1.61,1.37-.16,4.07-1.92,2.76-1.33-.99-4.41-2.2-6.05-2.51-.03,4.28-.03,8.75.03,11.27Z"/><path class="cls-3" d="M125.54,54.12c-2.08,1.02-4.84.4-4.75-2.89.09-3.54.15-11.08.06-13.16-.09-2.39,3.2-2.14,3.26-.06.06,2.2-.03,9.16-.12,11.51-.03.87.78,1.18,1.52.78,4.78-2.48,9.09-6.86,11.2-10.24,1.3-2.08,4.1-.12,2.86,1.8-2.48,3.88-8.78,9.65-14.03,12.26Z"/><path class="cls-3" d="M150.8,42.73c-1.15-1.06-3.13-1.96-4.59-2.3-1.86-.43-1.09-3.57,1.27-2.92,1.65.47,3.97,1.3,5.46,2.36.96.68.9,1.86.4,2.58s-1.58,1.15-2.55.28ZM148.88,55.55c-2.64.84-3.63-2.7-1.06-3.35,6.24-1.58,12.51-8.01,15.64-14.09.99-1.92,4.19-.62,2.82,1.83-3.85,6.98-10.27,13.35-17.41,15.61Z"/><path class="cls-3" d="M181.56,36.28c1.33-.09,2.86-.19,4.1-.25,2.39-.12,4.47,1.55,3.32,3.76-3.79,7.23-8.07,13.5-16.79,16.95-2.64,1.02-3.91-2.02-1.33-2.92,6.89-2.39,12.01-8.57,14.31-13.84.25-.59,0-1.18-.75-1.15-1.3.03-3.57.25-4.97.4-2.11,2.79-4.84,6.05-6.98,7.51-2.08,1.4-3.91-1.3-1.8-2.61,2.98-1.83,7.01-7.51,8.44-9.96,1.02-1.74,4.13-.25,2.67,1.83l-.22.28ZM188.08,34.63c-1.58-.65-.34-2.51,1.09-1.99.84.31,2.39,1.12,3.07,1.86,1.21,1.3-.59,3.2-1.61,1.99-.4-.5-1.92-1.58-2.54-1.86ZM190.91,31.96c-1.58-.62-.47-2.48.99-2.02.84.28,2.42,1.06,3.13,1.77,1.24,1.24-.53,3.2-1.58,2.02-.43-.47-1.92-1.52-2.54-1.77Z"/><path class="cls-3" d="M196.12,55.3c-2.27.84-3.32-2.2-.99-3.01,5.65-1.96,10.55-6.92,13-11.55.28-.53.16-1.02-.53-1.02-1.96-.03-6.24.12-8.97.19-1.86.06-1.99-2.92,0-3.01,2.27-.09,6.83-.15,9.96-.15,2.79,0,4.38,1.77,3.17,3.88-1.06,1.83-2.17,3.6-3.45,5.28,2.58,1.55,6.52,4.16,7.95,6.15,1.24,1.74-1.09,4.16-2.54,2.33-1.52-1.89-4.72-4.72-7.26-6.24-2.73,3.04-6.08,5.56-10.33,7.17Z"/><path class="cls-3" d="M231.98,53.32c6.86-2.17,10.92-7.82,12.32-12.38.25-.84.16-1.61-.99-1.64-3.04-.09-7.95.09-12.41.25-2.05.06-2.27-2.98-.06-3.07,4.1-.19,9.9-.22,13.84-.15,2.51.03,4.28,1.92,3.38,4.47-2.17,6.21-5.96,12.23-14.65,15.55-2.64.99-3.79-2.27-1.43-3.01Z"/><path class="cls-3" d="M258.08,56.45c-2.54.78-3.69-2.3-1.21-2.95,6.11-1.65,10.06-5.4,11.45-9.34.31-.84.15-1.33-1.02-1.37-3.17-.06-8.94.03-12.26.16-2.2.09-2.48-2.86-.09-2.92,4-.09,9.22-.12,13.44-.09,3.1.03,4.62,1.77,3.35,4.81-2.17,5.18-5.96,9.34-13.66,11.7ZM267.95,37.09c-2.92,0-7.2.09-10.55,0-2.05-.06-2.17-2.92.22-2.89,2.98.03,7.32.03,10.46,0,1.06,0,1.68.68,1.68,1.43s-.53,1.46-1.8,1.46Z"/><path class="cls-3" d="M280.21,55.8c-.28-.81.09-1.83,1.52-2.14,7.14-1.55,10.65-7.7,10.92-12.73.06-1.24-.4-1.77-1.61-1.83-2.2-.12-7.14-.03-8.66.03-.99.06-1.65.68-1.68,1.49-.03.81.03,2.98.12,4.03.16,2.08-3.17,2.51-3.32.25-.09-1.3-.06-4.5,0-5.43.09-1.68.93-3.07,4.41-3.13,2.54-.06,6.21-.12,9.71-.09,3.6.03,4.72,1.21,4.44,4.81-.5,6.8-4.9,13.35-13.44,15.8-1.21.34-2.14-.28-2.42-1.06Z"/><path class="cls-3" d="M302.03,45.62c-1.12,0-1.64-.74-1.64-1.49s.59-1.58,1.64-1.58h19.49c1.06,0,1.58.78,1.58,1.55s-.53,1.52-1.58,1.52h-19.49Z"/><rect class="cls-1" x="207.59" width="111.55" height="25.42" rx="11.15" ry="11.15"/><path class="cls-2" d="M216.6,18.6c-1.27,0-1.54.02-2.13.09.12-1.08.24-1.64.49-2.27.45-1.19,1.22-2.25,2.34-3.25.59-.52,1.13-.92,2.79-2.04,1.66-1.12,2.15-1.76,2.15-2.83,0-1.2-1-1.96-2.57-1.96-1.08,0-1.89.37-2.37,1.08-.3.45-.44.84-.56,1.68l-2.08-.28c.23-1.24.54-1.96,1.17-2.69.82-.96,2.13-1.47,3.79-1.47,2.9,0,4.7,1.41,4.7,3.68,0,1.33-.51,2.25-1.76,3.21-.54.4-.79.58-2.34,1.62-1.96,1.31-2.83,2.3-3.28,3.67h5.2c1.01,0,1.78-.04,2.37-.12v1.97c-.77-.07-1.43-.1-2.44-.1h-5.46Z"/><path class="cls-2" d="M226.36,13.56q.42-.45,1.29-1.5l4.24-5.24c.7-.86.98-1.24,1.38-1.87h1.96c-.1,1.01-.12,1.61-.12,2.95v5.73h.65c.72,0,1.13-.04,1.78-.12v1.92c-.66-.09-1.06-.12-1.78-.12h-.65v1.34c0,.87.04,1.33.14,1.96h-2.13c.12-.59.16-1.13.16-1.97v-1.33h-4.77c-1.01,0-1.52.02-2.15.07v-1.82ZM233.27,9.72c0-.87.02-1.43.09-2.2-.35.51-.61.84-1.2,1.61l-3.63,4.52h4.75v-3.93Z"/><path class="cls-2" d="M240.18,6.59c0-.75-.02-1.24-.07-1.73q.37.03,1.57.05h1.78c.86,0,1.13-.02,1.54-.05-.03.4-.05.73-.05,1.71v9.81c0,.91.02,1.33.05,1.75h-1.5v-.89h-1.87v1.47h-1.55c.07-.52.1-1.17.1-2.01V6.59ZM241.65,10.23h1.85v-3.93h-1.85v3.93ZM241.65,15.83h1.85v-4.26h-1.85v4.26ZM247.69,7.27c-.61,0-1.36.03-1.8.09v-1.55c.47.07.99.1,1.75.1h1.68v-.51c0-.51-.03-.91-.1-1.34h1.73c-.07.42-.1.8-.1,1.34v.51h2.13c.73,0,1.27-.03,1.75-.1v1.55c-.49-.07-1.01-.09-1.73-.09h-2.15v1.92h2.69c.79,0,1.38-.04,1.83-.1v1.59c-.47-.07-.94-.1-1.71-.1h-.4v1.71h.37c.79,0,1.31-.03,1.71-.09v1.61c-.49-.07-.96-.1-1.71-.1h-.37v4.33c0,.94-.17,1.31-.73,1.52-.38.14-.91.21-1.64.21,0,0-.49-.02-1.43-.03-.04-.65-.14-1.08-.37-1.57.52.1,1.34.17,1.9.17.66,0,.77-.05.77-.47v-4.15h-4.49c-.65,0-1.27.03-1.82.1v-1.61c.44.05.98.09,1.85.09h4.45v-1.71h-4.45c-.73,0-1.33.03-1.85.1v-1.59c.44.07,1.06.1,1.87.1h2.01v-1.92h-1.62ZM248.63,17.82c-.73-1.17-1.43-2.02-2.32-2.88l1.24-.84c.91.84,1.59,1.62,2.37,2.74l-1.29.98Z"/><path class="cls-2" d="M259.8,17.77c0,1.03.04,1.62.1,2.08h-1.73c.07-.51.1-1.05.1-2.08V6.42c0-.91-.02-1.4-.07-1.96.47.05.93.07,1.8.07h2.86c.89,0,1.29-.02,1.78-.07-.04.54-.05.96-.05,1.64v2.5c0,.75.02,1.19.05,1.59-.47-.03-1.01-.05-1.68-.05h-3.18v7.63ZM259.8,6.79h3.37v-1.06h-3.37v1.06ZM259.8,8.99h3.37v-1.08h-3.37v1.08ZM268.85,16.14c0,.66.02,1.12.05,1.55-.52-.04-1.01-.05-1.71-.05h-3.72v1.06h-1.54c.07-.51.09-.99.09-1.69v-4.12c0-.63-.02-1.12-.05-1.61.47.05.93.07,1.66.07h3.61c.75,0,1.19-.02,1.66-.07-.03.47-.05.92-.05,1.61v3.25ZM263.47,13.86h3.94v-1.27h-3.94v1.27ZM263.47,16.42h3.94v-1.36h-3.94v1.36ZM272.69,17.89c0,1.36-.45,1.75-2.15,1.75-.38,0-1.38-.04-1.68-.05-.1-.68-.19-1.01-.42-1.57.91.12,1.54.17,1.99.17.59,0,.73-.09.73-.47v-7.58h-3.49c-.66,0-1.2.02-1.68.05.04-.47.05-.93.05-1.59v-2.5c0-.59-.02-1.13-.05-1.64.47.05.89.07,1.78.07h3.16c.91,0,1.34-.02,1.83-.07-.07.66-.09,1.1-.09,1.94v11.49ZM267.48,6.79h3.68v-1.06h-3.68v1.06ZM267.48,8.99h3.68v-1.08h-3.68v1.08Z"/><path class="cls-2" d="M279.02,6.25c-.31-.63-.66-1.15-1.22-1.83l1.59-.37c.54.75.94,1.4,1.36,2.2h1.94c-.21-.56-.63-1.4-1.06-2.11l1.62-.28c.37.65.82,1.62,1.13,2.39h1.5c.49-.68.98-1.57,1.33-2.39l1.68.42c-.35.63-.87,1.43-1.26,1.97h1.19c.86,0,1.33-.02,1.89-.07-.03.47-.05.84-.05,1.52v1.41c0,.52.02.85.07,1.33h-1.61v-2.85h-11.63v2.85h-1.62c.05-.45.09-.86.09-1.31v-1.41c0-.61-.02-.96-.07-1.54.58.05,1.06.07,1.89.07h1.26ZM280.24,13c-1.01,0-1.29.02-1.85.07.05-.45.07-.8.07-1.5v-1.61c0-.58-.02-.98-.07-1.31.42.05.87.07,1.48.07h6.86c.58,0,1.03-.02,1.43-.07-.03.3-.05.65-.05,1.34v1.57c0,.87,0,1.1.05,1.5-.61-.05-.98-.07-1.85-.07h-2.53c-.17.44-.54,1.2-.68,1.43h4.78c.79,0,1.17-.02,1.66-.07-.05.44-.07.85-.07,1.66v2.18c0,.75.02,1.19.09,1.69h-1.66v-.7h-9.27v.7h-1.66c.07-.56.1-1.12.1-1.71v-2.16c0-.77-.02-1.17-.09-1.66.45.05.91.07,1.64.07h2.83c.24-.44.52-.99.7-1.43h-1.92ZM278.64,17.82h9.29v-2.01h-9.29v2.01ZM279.98,11.74h6.62v-1.75h-6.62v1.75Z"/><path class="cls-2" d="M296,10.8c-.82,0-1.29.02-1.8.09v-1.45c.49.07.93.09,1.8.09h2.27c-.26-.68-.47-1.1-.75-1.59h-2.01c-.84,0-1.47.03-2.01.09v-1.48c.49.07,1.05.1,1.94.1h.82c-.3-.54-.68-1.05-1.27-1.71l1.43-.58c.72.94.89,1.2,1.43,2.29h1.19v-1.27c0-.56-.04-1.05-.1-1.4h1.62c-.04.31-.05.73-.05,1.34v1.33h1.48v-1.33c0-.58-.04-1.01-.07-1.34h1.62c-.07.37-.09.84-.09,1.4v1.27h1.33c.58-.79,1.01-1.59,1.29-2.36l1.52.58c-.44.72-.85,1.34-1.17,1.78h.7c.93,0,1.45-.04,1.97-.1v1.48c-.56-.05-1.19-.09-2.04-.09h-1.87c-.28.63-.47,1.01-.77,1.59h2.2c.89,0,1.33-.02,1.85-.09v1.45c-.52-.07-1-.09-1.85-.09h-4.64v1h3.68c.8,0,1.36-.02,1.83-.09v1.4c-.49-.07-1.03-.09-1.83-.09h-3.67v1.03h5.04c1.03,0,1.57-.04,2.08-.1v1.5c-.65-.07-1.27-.1-2.06-.1h-3.89c1.4,1.24,3.56,2.15,6.35,2.65-.44.54-.63.85-.89,1.48-3.02-.82-4.94-1.83-6.7-3.58.05.66.05.94.05,1.33v1c0,.73.03,1.29.1,1.78h-1.69c.07-.51.1-1.06.1-1.8v-.96c0-.4,0-.59.03-1.31-.91.93-1.55,1.41-2.67,2.04-1.15.65-2.11,1.05-3.6,1.5-.3-.63-.45-.87-.92-1.41,1.55-.35,2.46-.63,3.47-1.13,1.03-.49,1.78-.96,2.5-1.59h-3.63c-.8,0-1.41.03-2.04.1v-1.5c.51.07,1.06.1,2.04.1h4.8v-1.03h-3.49c-.79,0-1.33.02-1.8.09v-1.4c.51.07,1.01.09,1.8.09h3.49v-1h-4.47ZM302.81,9.53c.33-.63.52-1.08.7-1.59h-4.33c.3.63.4.89.65,1.59h2.99Z"/></g></svg>