<?xml version="1.0" encoding="UTF-8"?><svg id="_レイヤー_2" xmlns="http://www.w3.org/2000/svg" viewBox="0 0 39.67 39.67"><defs><style>.cls-1{fill:#fff;stroke-width:0px;}</style></defs><g id="DESIGN"><path class="cls-1" d="M19.83,3.57c5.3,0,5.92.02,8.01.12,1.93.09,2.98.41,3.68.68.93.36,1.59.79,2.28,1.48.69.69,1.12,1.35,1.48,2.28.27.7.59,1.75.68,3.68.1,2.09.12,2.72.12,8.01s-.02,5.92-.12,8.01c-.09,1.93-.41,2.98-.68,3.68-.36.93-.79,1.59-1.48,2.28-.69.69-1.35,1.12-2.28,1.48-.7.27-1.75.59-3.68.68-2.09.1-2.72.12-8.01.12s-5.92-.02-8.01-.12c-1.93-.09-2.98-.41-3.68-.68-.93-.36-1.59-.79-2.28-1.48-.69-.69-1.12-1.35-1.48-2.28-.27-.7-.59-1.75-.68-3.68-.1-2.09-.12-2.72-.12-8.01s.02-5.92.12-8.01c.09-1.93.41-2.98.68-3.68.36-.93.79-1.59,1.48-2.28.69-.69,1.35-1.12,2.28-1.48.7-.27,1.75-.59,3.68-.68,2.09-.1,2.72-.12,8.01-.12M19.83,0c-5.39,0-6.06.02-8.18.12-2.11.1-3.55.43-4.81.92-1.3.51-2.41,1.19-3.51,2.29-1.1,1.1-1.78,2.21-2.29,3.51-.49,1.26-.83,2.7-.92,4.81-.1,2.12-.12,2.79-.12,8.18s.02,6.06.12,8.18c.1,2.11.43,3.55.92,4.81.51,1.3,1.19,2.41,2.29,3.51,1.1,1.1,2.21,1.78,3.51,2.29,1.26.49,2.7.83,4.81.92,2.12.1,2.79.12,8.18.12s6.06-.02,8.18-.12c2.11-.1,3.55-.43,4.81-.92,1.3-.51,2.41-1.19,3.51-2.29,1.1-1.1,1.78-2.21,2.29-3.51.49-1.26.83-2.7.92-4.81.1-2.12.12-2.79.12-8.18s-.02-6.06-.12-8.18c-.1-2.11-.43-3.55-.92-4.81-.51-1.3-1.19-2.41-2.29-3.51-1.1-1.1-2.21-1.78-3.51-2.29-1.26-.49-2.7-.83-4.81-.92-2.12-.1-2.79-.12-8.18-.12h0Z"/><path class="cls-1" d="M19.83,9.65c-5.63,0-10.18,4.56-10.18,10.18s4.56,10.18,10.18,10.18,10.18-4.56,10.18-10.18-4.56-10.18-10.18-10.18ZM19.83,26.45c-3.65,0-6.61-2.96-6.61-6.61s2.96-6.61,6.61-6.61,6.61,2.96,6.61,6.61-2.96,6.61-6.61,6.61Z"/><circle class="cls-1" cx="30.42" cy="9.25" r="2.38"/></g></svg>