<?xml version="1.0" encoding="UTF-8"?><svg id="_レイヤー_2" xmlns="http://www.w3.org/2000/svg" viewBox="0 0 1028.71 240.34"><defs><style>.cls-1,.cls-2{fill:#00b9ef;}.cls-1,.cls-3{stroke-width:0px;}.cls-2{stroke:#fff;stroke-miterlimit:10;stroke-width:1.5px;}.cls-3{fill:#fff;}</style></defs><g id="BACK"><circle class="cls-1" cx="386.65" cy="120.17" r="120.17"/><circle class="cls-1" cx="647.95" cy="120.17" r="120.17"/><circle class="cls-1" cx="908.54" cy="120.17" r="120.17"/><circle class="cls-1" cx="120.17" cy="120.17" r="120.17"/><circle class="cls-2" cx="120.17" cy="120.17" r="110.74"/><circle class="cls-2" cx="386.17" cy="120.17" r="110.74"/><circle class="cls-2" cx="648.17" cy="120.17" r="110.74"/><circle class="cls-2" cx="909.17" cy="119.17" r="110.74"/></g><g id="DESIGN"><path class="cls-3" d="M91.33,92.29c-.6,2.94-1.63,5.82-3.59,8.09,1.56.78,3.08,1.63,4.58,2.51.69.39,1.17.8,1.17,1.52,0,.83-.6,1.79-1.75,1.79-.57,0-1.08-.34-1.79-.83-1.89-1.26-2.69-1.79-4.55-2.87-4.05,2.87-9.75,3.7-10.51,3.7-1.5,0-1.5-1.38-1.5-1.66,0-1.01.64-1.17,1.5-1.31,1.54-.23,4.85-.74,7.56-2.25-1.52-.71-2.18-.94-4.62-1.82-.83-.3-1.93-.74-1.93-1.89,0-.62.21-1.03.8-2.14.51-.92.94-1.89,1.36-2.85h-3.75c-.74,0-1.38-.32-1.38-1.38,0-1.33,1.13-1.33,1.38-1.33h4.88c.41-1.13.48-1.38,1.15-3.56.3-.94.67-1.33,1.54-1.33.55,0,1.7.14,1.7,1.17,0,.67-.8,2.87-1.1,3.73h10.83c.78,0,1.4.32,1.4,1.36,0,1.36-1.08,1.36-1.4,1.36h-1.98ZM81.4,92.29c-.34.83-.71,1.61-1.61,3.36-.34.64-.37.74-.37.92,0,.23.21.32.71.53,2.32.92,3.06,1.2,4.85,2,1.79-1.84,2.74-4.28,3.2-6.81h-6.78Z"/><path class="cls-3" d="M100.45,90.17c0,2.23-.46,5.1-.58,5.61-.09.46-.3.78-.85.78-.3,0-.97-.16-.97-.8,0-.37.3-1.91.34-2.23.16-1.13.21-1.66.28-3.15.05-.71.07-1.06.94-1.06.83,0,.83.67.83.85ZM103.9,105.26c0,.37,0,1.26-1.33,1.26s-1.45-.67-1.45-1.26v-19.27c0-.39,0-1.24,1.38-1.24s1.4.76,1.4,1.24v19.27ZM111.48,89.55v-3.47c0-.37,0-1.29,1.38-1.29s1.54.57,1.54,1.29v3.47h3.86c.28,0,1.31,0,1.31,1.33s-1.01,1.33-1.31,1.33h-3.86v3.98h3.31c.28,0,1.33,0,1.33,1.29s-1.03,1.31-1.33,1.31h-3.31v4.28h4.25c.28,0,1.31,0,1.31,1.33s-1.03,1.36-1.31,1.36h-12.37c-.28,0-1.31-.02-1.31-1.33s1.01-1.36,1.31-1.36h5.2v-4.28h-3.86c-.67,0-1.31-.3-1.31-1.29,0-1.15.83-1.31,1.31-1.31h3.86v-3.98h-2.67c-.55,1.7-1.06,2.81-1.33,3.13-.23.28-.53.37-.85.37-.67,0-1.4-.51-1.4-1.2,0-.23.07-.39.74-1.84-.14.07-.28.14-.46.14-.51,0-.62-.3-.92-1.31-.09-.28-.55-1.43-.55-1.7,0-.69.67-1.01,1.03-1.01.46,0,.6.32.87,1.04.41,1.01.46,1.13.55,1.43.44-1.43.51-1.98.9-4.19.09-.6.21-1.2,1.15-1.2.41,0,1.38.07,1.38,1.1,0,.74-.21,1.72-.41,2.58h1.98Z"/><path class="cls-3" d="M140.95,98.7h3.06c.32,0,1.24,0,1.24,1.2s-.9,1.24-1.24,1.24h-3.06v2.48c0,2.69-.76,2.76-4.44,2.76-.55,0-2.16,0-2.55-.16-.46-.21-.71-.69-.71-1.27,0-1.26.92-1.26,1.52-1.26.39,0,2.07.05,2.41.05.62,0,.92-.09.92-.8v-1.79h-8.49c.23.16,2.51,2.35,2.51,3.33,0,.74-.97,1.33-1.7,1.33-.55,0-.64-.12-1.45-1.13-.53-.64-1.84-2.23-1.84-2.71,0-.23.23-.57.64-.83h-2.97c-.32,0-1.22,0-1.22-1.22s.87-1.22,1.22-1.22h13.29v-.99h-10.05c-1.77,0-2.51-.67-2.51-2.51v-3.15c0-1.82.74-2.51,2.51-2.51h4.9v-.94h-8c-.32,0-1.24,0-1.24-1.2s.9-1.22,1.24-1.22h8v-.6c0-.85,1.03-.92,1.38-.92.64,0,1.54.11,1.54.92v.6h8c.35,0,1.24,0,1.24,1.2s-.87,1.22-1.24,1.22h-8v.94h4.92c1.66,0,2.48.6,2.48,2.51v3.15c0,1.45-.44,2.48-2.32,2.51v.99ZM132.94,92.65v-1.17h-4.12c-.37,0-.53.21-.53.55v.62h4.65ZM132.94,94.49h-4.65v.69c0,.35.16.55.53.55h4.12v-1.24ZM135.86,92.65h4.6v-.62c0-.3-.14-.55-.53-.55h-4.07v1.17ZM135.86,94.49v1.24h4.07c.41,0,.53-.25.53-.55v-.69h-4.6Z"/><path class="cls-3" d="M161.42,99.65v5.27c0,.57-.09,1.4-1.26,1.4-.99,0-1.47-.3-1.47-1.4v-5.27h-4.81c-.18,1.82-.48,3.31-1.31,5.1-.69,1.47-1.1,1.7-1.79,1.7-.97,0-1.77-.71-1.77-1.59,0-.32.02-.34.97-2.16.57-1.15,1.1-3.1,1.1-6v-8.16c0-2.21.94-2.87,2.85-2.87h12.56c1.89,0,2.87.64,2.87,2.87v15.15c0,2.69-1.43,2.69-3.91,2.69-1.29,0-2.39,0-2.39-1.54,0-.83.35-1.43,1.31-1.43.21,0,1.17.02,1.38.02.51,0,.69-.25.69-.87v-2.92h-5.01ZM158.68,91.39v-3.01h-3.89c-.55,0-.78.3-.78.78v2.23h4.67ZM158.68,93.92h-4.67v3.15h4.67v-3.15ZM161.42,91.39h5.01v-2.23c0-.48-.25-.78-.78-.78h-4.23v3.01ZM166.43,93.92h-5.01v3.15h5.01v-3.15Z"/><path class="cls-3" d="M42.5,141.39c.74,0,1.52.25,1.52,1.47,0,1.06-.53,1.52-1.52,1.52h-9.13c-1.31,0-2.85,0-2.85-1.84,0-1.17.51-1.59,2.07-2.85,1.17-.94,3.96-3.36,5.73-5.27,1.31-1.43,1.49-2.39,1.49-3.08,0-1.45-1.08-2.69-2.6-2.69-1.63,0-2.6.83-3.36,1.47-.41.34-.67.46-1.01.46-.94,0-1.59-.81-1.59-1.56,0-1.15,2.58-3.36,5.91-3.36s5.91,2.07,5.91,5.56c0,2.83-1.52,4.69-8,10.16h7.43Z"/><path class="cls-3" d="M60.27,137.76c.71,0,1.47.25,1.47,1.43,0,1.03-.55,1.45-1.47,1.45h-1.01v2.6c0,.44-.05,1.52-1.59,1.52-1.15,0-1.66-.51-1.66-1.5v-2.62h-5.73c-.83,0-2.58,0-2.58-1.66,0-.78.28-1.2,1.04-2.28l6.53-9.47c.83-1.2,1.47-1.56,2.28-1.56,1.7,0,1.7,1.26,1.7,1.98v10.12h1.01ZM51.17,137.76h4.85v-7.15l-4.85,7.15Z"/><path class="cls-3" d="M73.2,142.59c0,2.09-.46,2.58-2.58,2.58h-2.12c-2.09,0-2.58-.46-2.58-2.58v-14.3c0-2.12.46-2.58,2.58-2.58h2.12c2.09,0,2.58.41,2.58,2.58v14.3ZM70.69,134.17v-5.29c0-.39-.21-.58-.57-.58h-1.01c-.37,0-.55.18-.55.58v5.29h2.14ZM70.69,136.56h-2.14v5.45c0,.39.21.55.55.55h1.01c.37,0,.57-.16.57-.55v-5.45ZM81.57,138.82h-6.83c-.37,0-1.31,0-1.31-1.26,0-.99.34-1.43,1.31-1.43h6.83v-1.89h-7.04c-.39,0-1.29-.02-1.29-1.26,0-.97.3-1.43,1.29-1.43h4.05v-2.12h-3.38c-.34,0-1.29,0-1.29-1.24,0-1.08.64-1.29,1.29-1.29h3.38v-.97c0-.83.37-1.24,1.33-1.24.87,0,1.5.18,1.5,1.24v.97h3.54c.34,0,1.33,0,1.33,1.26s-.92,1.26-1.33,1.26h-3.54v2.12h4.23c.39,0,1.33,0,1.33,1.26,0,.85-.25,1.43-1.26,1.43h-1.29v1.89h1.1c.9,0,1.22.58,1.22,1.29s-.18,1.4-1.22,1.4h-1.1v4.62c0,2.71-.83,2.9-3.98,2.9-1.43,0-2.53,0-2.53-1.59,0-.53.14-.71.23-.87-.16.05-.34.11-.62.11-.69,0-.85-.28-1.31-1.06-.28-.46-.76-1.15-.97-1.43-.46-.62-.62-.8-.62-1.2,0-.97,1.15-1.31,1.63-1.31.64,0,.8.23,1.7,1.36.39.51,1.22,1.56,1.22,2.21,0,.18-.02.48-.46.92.28-.05,1.61.02,1.89.02.62-.02.97-.16.97-1.06v-3.63Z"/><path class="cls-3" d="M94.06,145.23c0,.35,0,1.29-1.26,1.29-1.1,0-1.43-.46-1.43-1.29v-17.29c0-1.89.83-2.48,2.51-2.48h4.25c1.66,0,2.48.6,2.48,2.48v3.84c0,1.91-.83,2.48-2.48,2.48h-4.07v10.97ZM98.06,128.82v-.62c0-.3-.14-.55-.55-.55h-2.9c-.46,0-.55.3-.55.55v.62h4ZM94.06,130.86v1.24h3.45c.39,0,.55-.21.55-.55v-.69h-4ZM98.45,144.06c-1.61,0-2.48-.53-2.48-2.48v-3.93c0-1.91.8-2.51,2.48-2.51h5.84c1.68,0,2.48.6,2.48,2.51v3.93c0,.74-.09,1.36-.53,1.86.51.02,1.13.02,1.63.02.67,0,.9-.05.9-.74v-8.46h-4.14c-1.68,0-2.51-.58-2.51-2.48v-3.84c0-1.89.83-2.48,2.51-2.48h4.28c1.75,0,2.48.67,2.48,2.48v15.57c0,2.35-.6,2.78-3.38,2.78-1.89,0-2.37-.07-2.64-.21-.41-.21-.74-.69-.74-1.38,0-.34.07-.51.12-.67-.16.02-.25.02-.46.02h-5.84ZM98.55,138.54h5.63v-.85c0-.35-.18-.53-.55-.53h-4.53c-.3,0-.55.11-.55.53v.85ZM98.55,140.43v.97c0,.37.18.55.55.55h4.53c.39,0,.55-.21.55-.55v-.97h-5.63ZM104.8,128.82h3.98v-.62c0-.34-.18-.55-.55-.55h-2.87c-.39,0-.55.21-.55.55v.62ZM108.78,130.86h-3.98v.69c0,.32.14.55.53.55h3.45v-1.24Z"/><path class="cls-3" d="M121,145.14c0,.32,0,1.43-1.33,1.43-1.24,0-1.47-.69-1.47-1.43v-9.43c-.23.32-.51.64-1.08.64-.83,0-1.47-.85-1.47-1.7,0-.48.14-.8.64-1.52,1.66-2.32,2.51-4.76,3.08-7.13.16-.69.37-1.26,1.36-1.26.67,0,1.5.3,1.5,1.15,0,.62-.48,2.51-1.22,4.48v14.76ZM123.2,129.41c-.53,0-1.29-.07-1.29-1.29s.64-1.31,1.29-1.31h5.01v-.83c0-.46.07-1.26,1.38-1.26,1.13,0,1.4.55,1.4,1.26v.83h5.08c.35,0,1.4,0,1.4,1.29,0,1.17-.83,1.31-1.4,1.31h-5.08v1.4h2.99c1.72,0,2.67.55,2.67,2.67v2.07c0,2.05-.9,2.67-2.67,2.67h-3.24c-.21,1.36-.48,2.41-1.01,3.43,2.25,1.08,3.82,1.38,6.55,1.86.85.16,1.1.62,1.1,1.27,0,.21-.05,1.7-1.45,1.7-.97,0-4.85-.81-7.96-2.55-1.72,1.59-3.98,2.51-5.08,2.51s-1.45-.99-1.45-1.52c0-.83.53-1.1,1.03-1.29,2.14-.71,2.3-.76,3.06-1.31-1.15-.94-1.82-1.72-1.93-1.89-.16-.21-.32-.44-.32-.78,0-.55.41-1.33,1.36-1.33.53,0,.71.16,1.06.48.74.74,1.22,1.1,1.59,1.36.18-.37.41-.9.6-1.93h-2.67c-1.77,0-2.67-.6-2.67-2.67v-2.07c0-2.09.92-2.67,2.67-2.67h2.99v-1.4h-5.01ZM128.22,133.16h-2.23c-.51,0-.76.23-.76.78v1.13c0,.53.28.76.76.76h2.18c.05-1.24.05-1.63.05-2.3v-.37ZM131,133.16c0,1.15,0,1.47-.05,2.67h2.23c.55,0,.76-.28.76-.76v-1.13c0-.48-.18-.78-.76-.78h-2.18Z"/><path class="cls-3" d="M145.81,128.17c0,.32-.21,1.82-.25,2.16-.09,1.01-.18,2.3-.18,3.54,0,3.73.9,7.59,2.44,7.59.64,0,1.33-1.38,1.77-2.44.67-1.56.78-1.91,1.52-1.91.67,0,1.59.46,1.59,1.38,0,.55-.69,2.14-1.15,3.06-1.08,2.07-2.18,3.33-3.89,3.33-3.04,0-5.29-4.32-5.29-11.27,0-2.44.28-4.67.37-5.17.12-.67.25-1.43,1.49-1.43.55,0,1.59.18,1.59,1.15ZM160.12,131.71c1.06,2.16,1.82,4.97,1.82,7.57,0,.67,0,1.95-1.61,1.95-1.31,0-1.38-.87-1.45-1.86-.28-3.63-1.17-5.98-2.3-7.84-.62-1.04-.67-1.1-.67-1.45,0-.64.67-1.31,1.47-1.31.46,0,1.26,0,2.74,2.94Z"/><path class="cls-3" d="M186.68,128.15c1.15,0,1.29.87,1.29,1.4,0,.99-.51,1.45-1.03,1.45h-.62c-.16,2.85-.48,6.39-2.6,9.68.71.8,1.17,1.2,3.36,2.69.57.39.74.67.74,1.15,0,.83-.67,1.82-1.54,1.82-.32,0-.64,0-2.32-1.31-1.03-.81-1.7-1.56-2.09-2.02-1.79,1.84-4.42,3.36-5.17,3.36-.9,0-1.47-.92-1.47-1.72,0-.71.44-.97.97-1.22,1.47-.74,2.81-1.68,3.98-2.83-1.17-2.02-1.86-4.19-2.23-5.7-.41.55-.71.78-1.17.78-.34,0-.71-.14-.99-.37,0,.97-.07,6.94-.53,9.01-.41,1.95-1.66,2.05-2.76,2.05-.85,0-1.61-.07-1.79-.14-.44-.16-.74-.78-.74-1.38,0-1.33.8-1.33,1.33-1.33.6,0,1.03,0,1.26-.46.37-.76.53-4.48.53-6.42v-.39c0-.53-.16-.62-.62-.62h-1.43c-.07,1.52-.37,4.58-1.08,6.99-.3,1.06-.83,2.51-1.22,3.08-.23.37-.53.51-.9.51-.85,0-1.7-.71-1.7-1.49,0-.34.12-.6.37-1.08,1.13-2.14,1.93-4.88,1.93-9.08v-3.96h-.9c-.87,0-1.33-.51-1.33-1.33,0-1.17.83-1.33,1.43-1.33h2.37v-1.98c0-.8.44-1.24,1.29-1.24s1.49.21,1.49,1.24v1.98h2.39c.46,0,1.38.07,1.38,1.24,0,.9-.28,1.43-1.38,1.43h-4.12v2.48h2.51c.69,0,1.27.02,1.75.55.18-.37,1.1-1.89,1.29-2.23,1.06-2.07,1.61-4.19,1.91-5.45.21-.83.37-1.29,1.36-1.29.76,0,1.49.39,1.49,1.15,0,.51-.28,1.45-.53,2.35h5.86ZM179.85,131c-.05.12-.05.14-.09.23.39,2.41,1.08,4.78,2.21,6.94,1.15-2.12,1.54-4.3,1.66-7.17h-3.77Z"/><path class="cls-3" d="M202.97,131.57c0-2.25.53-2.58,2.71-2.58.12-.39.16-.6.25-1.2h-2.67c-.32,0-1.22,0-1.22-1.13s.81-1.15,1.22-1.15h8.58c.32,0,1.22,0,1.22,1.13s-.87,1.15-1.22,1.15h-3.2c-.07.41-.25.99-.3,1.2h1.38c2.09,0,2.58.46,2.58,2.58v5.7c0,2.09-.46,2.53-2.32,2.58,1.36,1.01,1.36,1.03,2.18,1.49.25.14.62.34.62.9,0,.28-.09.78-.57,1.13.48.09,1.06.23,1.06,1.2,0,.28-.05.92-.48,1.17-.23.11-.62.25-1.03.25h-10.85c-4.58,0-5.86-2.05-6.39-2.87-.16.85-.51,1.91-.69,2.37-.23.51-.48.85-1.1.85-.48,0-1.36-.28-1.36-1.1,0-.37.09-.57.32-1.1.76-1.89.9-3.63,1.03-5.82.05-.51.16-1.15,1.15-1.15s1.2.57,1.2,1.36c0,.62-.05,1.13-.09,1.56.39.99.74,1.52,1.26,2.05v-5.73h-3.54c-.32,0-1.22,0-1.22-1.15s.9-1.15,1.22-1.15h8.53c.3,0,1.22,0,1.22,1.15s-.9,1.15-1.22,1.15h-2.46v1.91h2.05c.3,0,1.22,0,1.22,1.13s-.9,1.13-1.22,1.13h-2.05v2.69c.57.07,1.26.09,1.56.09h2.32c-.55-.46-.55-.99-.55-1.13,0-.55.25-.67,1.26-1.24.25-.14.71-.37,1.13-.71.39-.3.41-.34.53-.41-1.68-.09-2.05-.64-2.05-2.58v-5.7ZM201.52,130.54c0,2.09-.46,2.58-2.6,2.58h-4.09c-2.09,0-2.58-.44-2.58-2.58v-2.48c0-2.09.44-2.58,2.58-2.58h4.09c2.14,0,2.6.48,2.6,2.58v2.48ZM194.73,128.42h4.16v-.46c0-.39-.18-.57-.55-.57h-3.06c-.34,0-.55.16-.55.57v.46ZM194.73,130.26v.46c0,.37.18.55.55.55h3.06c.35,0,.55-.16.55-.55v-.46h-4.16ZM206.21,139.85c.62.39.62.9.62,1.01,0,.34-.16.6-.87,1.2-.3.25-1.22.94-1.86,1.29h6.74c-.53-.3-1.03-.67-1.49-1.03-1.08-.85-1.22-1.1-1.22-1.5,0-.11,0-.57.58-.97h-2.48ZM205.52,132.03h4.19v-.55c0-.32-.14-.55-.55-.55h-3.08c-.46,0-.55.3-.55.55v.55ZM209.7,133.85h-4.19v1.08h4.19v-1.08ZM205.52,136.77v.57c0,.16,0,.58.55.58h3.08c.55,0,.55-.39.55-.58v-.57h-4.19Z"/><path class="cls-3" d="M370.03,86.55c.35,0,1.43,0,1.43,1.33,0,1.1-.51,1.47-1.43,1.47h-10.85v2.58c-.02.14-.05.67-.05.78h7.06c1.38,0,3.1.14,3.1,2.76,0,.64-.3,7.66-1.31,9.91-.87,1.93-2.48,1.93-4.58,1.93-1.84,0-2.09-.05-2.32-.11-.74-.25-.9-1.06-.9-1.47,0-1.4,1.04-1.4,1.54-1.4.3,0,1.61.05,1.89.05,1.52,0,1.82-.94,2.07-2.3.37-2.12.53-5.59.53-5.63,0-.55-.07-.99-1.01-.99h-6.32c-.46,3.15-1.33,6.12-3.66,8.92-.25.3-2.46,2.9-3.7,2.9-.87,0-1.63-.9-1.63-1.75,0-.6.32-.87.83-1.24,4.65-3.29,5.47-8.03,5.47-12.42v-2.51h-5.1c-.32,0-1.43,0-1.43-1.31,0-1.08.44-1.49,1.43-1.49h18.95Z"/><path class="cls-3" d="M380.55,95.44c-.51,0-1.45-.09-1.4-1.4-1.61.99-2.21,1.24-2.76,1.24-.85,0-1.45-.83-1.45-1.72,0-.74.39-1.01.62-1.17.16-.09,1.98-1.01,2.32-1.2,2-1.01,4.76-3.66,5.29-4.19.97-1.01,1.47-1.49,2.69-1.49.9,0,1.47.23,2.3,1.06.87.87,1.31,1.33,2.07,1.98,2.16,1.89,3.29,2.48,5.79,3.77.64.32.78.83.78,1.26,0,.9-.62,1.7-1.47,1.7-.78,0-2.23-.92-2.64-1.17-.02,1.26-.9,1.33-1.4,1.33h-3.91v2.64h5.75c.55,0,1.4.14,1.4,1.36,0,1.31-1.06,1.31-1.4,1.31h-5.75v3.24h7.93c1.01,0,1.4.44,1.4,1.47,0,1.31-1.03,1.31-1.4,1.31h-18.88c-1.03,0-1.4-.44-1.4-1.47,0-1.29.99-1.31,1.4-1.31h8v-3.24h-5.75c-.94,0-1.4-.39-1.4-1.4,0-1.24,1.08-1.27,1.4-1.27h5.75v-2.64h-3.89ZM390.73,92.78c-.87-.62-2.81-2.05-4.19-3.61-.37-.39-.46-.51-.69-.51-.21,0-.35.12-.69.51-.97,1.03-2.07,2.09-4.16,3.61h9.73Z"/><path class="cls-3" d="M410.1,100.92c-.87,2.35-2.02,4.19-4.09,4.19-2.55,0-4.97-3.4-4.97-7.54,0-6.12,4.55-10.16,10.58-10.16,6.48,0,9.52,4.65,9.52,9.08,0,6.88-6.23,9.61-7.4,9.61-.99,0-1.52-.85-1.52-1.61,0-.6.25-.92.76-1.15,1.63-.74,5.06-2.32,5.06-6.88,0-1.79-.57-5.63-5.52-6.3-.37,3.17-.97,6.94-2.41,10.76ZM403.92,97.63c0,2.25.97,4.3,2,4.3.71,0,1.17-1.26,1.54-2.25,1.1-3.01,1.72-6.21,2.14-9.4-4.02,1.03-5.68,4.28-5.68,7.36Z"/><path class="cls-3" d="M329,141.38c0,1.75.48,1.77,3.59,1.77,1.93,0,2.92-.02,3.77-.07.32-.02,1.7-.12,2-.12.9,0,1.43.46,1.43,1.45,0,1.47-1.24,1.56-1.7,1.61-1.06.07-3.06.11-5.04.11-3.77,0-7.08,0-7.08-4.3v-7.08l-3.91.28c-.97.07-1.66-.3-1.66-1.54,0-1.04.62-1.38,1.47-1.43l4.09-.23v-4.23c0-.46.05-1.43,1.52-1.43,1.1,0,1.52.51,1.52,1.43v4.05l8.44-.51c.78-.05,2.44-.14,2.44,1.52,0,1.17-1.77,3.45-2.74,4.69-.9,1.13-1.75,2.25-2.64,2.25-.83,0-1.56-.62-1.56-1.36,0-.44.09-.55,1.01-1.61.48-.55,1.68-2,1.68-2.35,0-.21-.05-.18-.53-.16l-6.09.41v6.83Z"/><path class="cls-3" d="M351.93,128.2c-.02-.16-.07-.37-.07-.6,0-.9,1.03-1.22,1.68-1.22,1.1,0,1.26.74,1.36,1.26l.53,2.85,5.4-.85c1.56-.25,1.75,1.06,1.75,1.54,0,.99-.74,1.26-1.31,1.36l-5.31.83.48,2.58,6.39-1.01c.21-.02.34-.05.51-.05.85,0,1.36.64,1.36,1.61,0,.9-.67,1.24-1.31,1.33l-6.39.99,1.15,6.09c.05.23.05.44.05.62,0,.87-1.03,1.22-1.72,1.22-1.1,0-1.24-.74-1.33-1.29l-1.15-6.16-7.54,1.17c-.14.02-.25.02-.41.02-.85,0-1.36-.64-1.36-1.56,0-1.03.83-1.29,1.31-1.36l7.47-1.17-.48-2.58-5.54.87c-.12.02-.28.02-.44.02-.8,0-1.33-.62-1.33-1.56s.67-1.26,1.31-1.36l5.47-.85-.51-2.76Z"/><path class="cls-3" d="M379.4,136.07c.02-.11.02-.37.02-.57,0-.53-.3-.55-.64-.55h-6.62c-.46,0-1.38-.14-1.38-1.33,0-1.03.62-1.36,1.38-1.36h8.12c1.47,0,2.12.78,2.12,2.18,0,.32-.02.64-.07.97l-1.06,7.06h3.04c.3,0,1.36,0,1.36,1.33,0,1.15-.76,1.36-1.36,1.36h-14.1c-.3,0-1.36,0-1.36-1.33,0-1.15.74-1.36,1.36-1.36h8.23l.97-6.39Z"/><path class="cls-3" d="M394.28,138.27c0,.67-.21,1.43-1.54,1.43-1.04,0-1.56-.39-1.56-1.43v-9.89c0-.57.12-1.43,1.54-1.43.97,0,1.56.35,1.56,1.43v9.89ZM402.58,128.02c0-.55.11-1.43,1.52-1.43,1.01,0,1.56.39,1.56,1.43v6.3c0,3.33-.3,6.83-3.13,9.38-1.75,1.56-4.53,2.85-5.45,2.85-1.08,0-1.52-1.06-1.52-1.72,0-.74.25-.85,1.68-1.47,4.23-1.82,5.33-4.71,5.33-8.26v-7.08Z"/><path class="cls-3" d="M412.63,135.9c-.32,0-1.52,0-1.52-1.45s1.2-1.47,1.52-1.47h17.25c.32,0,1.52,0,1.52,1.45s-1.17,1.47-1.52,1.47h-6.6c-.11,4.37-1.56,6.58-2.87,8-1.36,1.45-3.7,2.78-4.6,2.78-.97,0-1.61-.97-1.61-1.7,0-.69.44-.92,1.29-1.36,4.44-2.35,4.6-6.02,4.67-7.73h-7.52ZM427.24,127.4c.32,0,1.49,0,1.49,1.47s-1.15,1.49-1.49,1.49h-12.03c-.34,0-1.52,0-1.52-1.47s1.15-1.49,1.52-1.49h12.03Z"/><path class="cls-3" d="M445.31,145.79c0,.87-.48,1.29-1.38,1.29-.85,0-1.4-.34-1.4-1.29v-7.89c-2.64,1.4-5.31,2.41-5.93,2.41-.8,0-1.26-.81-1.26-1.5,0-.78.39-.92,1.63-1.38,3.75-1.36,7.22-3.36,10.3-5.89,1.33-1.08,1.47-1.2,1.89-1.2.71,0,1.43.62,1.43,1.4,0,.48-.25.76-.57,1.03-.48.44-2.05,1.79-4.69,3.5v9.5Z"/><path class="cls-3" d="M572.86,116.25c0,.34,0,1.24-1.29,1.24-1.22,0-1.4-.6-1.4-1.24v-.78c-2.62.46-5.82,1.01-6.71,1.01-.81,0-1.1-.64-1.1-1.38,0-1.01.53-1.06,1.77-1.17v-7.66h-.53c-.37,0-1.17-.02-1.17-1.1s.71-1.17,1.2-1.17h19.27c.85,0,1.22.37,1.22,1.13,0,.67-.23,1.15-1.22,1.15h-10.03v9.98ZM582.17,100.68c0,2.12-.46,2.58-2.58,2.58h-12.65c-2.12,0-2.58-.46-2.58-2.58v-1.89c0-2.09.46-2.58,2.58-2.58h12.65c2.09,0,2.58.44,2.58,2.58v1.89ZM570.17,106.27h-3.45v1.22h3.45v-1.22ZM570.17,109.26h-3.45v1.2h3.45v-1.2ZM566.72,113.65c1.22-.11,2.25-.25,3.45-.44v-.97h-3.45v1.4ZM579.32,99.01v-.32c0-.34-.18-.55-.55-.55h-11.01c-.32,0-.53.16-.53.55v.32h12.1ZM579.32,100.52h-12.1v.41c0,.39.18.55.53.55h11.01c.3,0,.55-.12.55-.55v-.41ZM574.4,109.38c-.39,0-1.2-.07-1.2-1.06,0-.64.18-1.17,1.2-1.17h6.46c.99,0,2.16,0,2.16,1.52,0,1.4-1.13,3.4-2.48,4.92.6.37,1.52.8,2.41,1.1.51.16,1.03.35,1.03,1.1s-.6,1.54-1.4,1.54c-.55,0-1.98-.44-4.09-1.93-1.31.94-3.2,1.89-4.07,1.89s-1.24-.76-1.24-1.43c0-.78.41-.97,1.04-1.15.9-.28,1.43-.53,2.25-.99-.32-.32-.6-.62-1.17-1.38-.97-1.33-.97-1.49-.97-1.75,0-.58.48-1.1,1.29-1.1.62,0,.92.3,1.24.74,1.04,1.4,1.1,1.47,1.63,1.93.9-.9,1.59-2.09,1.59-2.46,0-.3-.21-.32-.64-.32h-5.04Z"/><path class="cls-3" d="M597.56,102.68c.37,0,1.31,0,1.31,1.22s-.76,1.29-1.4,1.29h-2.64v1.59h2.39c.58,0,1.4.12,1.4,1.24,0,.97-.57,1.24-1.4,1.24h-1.91c.92,1.17,1.68,1.84,1.82,1.95.8.71,1.03.92,1.03,1.38,0,.6-.55,1.43-1.33,1.43-.46,0-.97-.41-2-1.93v3.98c0,.39-.02,1.4-1.22,1.4-.87,0-1.38-.3-1.38-1.4v-3.45c-.44.55-1.24,1.49-1.91,2.12-.48.46-.78.67-1.2.67-.85,0-1.47-.76-1.47-1.56,0-.62.14-.74,1.45-1.75,1.47-1.15,2.3-2.25,2.71-2.83h-2.44c-.55,0-1.38-.09-1.38-1.22,0-.9.51-1.26,1.38-1.26h2.85v-1.59h-3.08c-.55,0-1.4,0-1.4-1.2s.69-1.31,1.38-1.31h1.15c-.12-.78-.39-2.14-.51-2.69h-.53c-.67,0-1.08-.39-1.08-1.15,0-1.08.48-1.36,1.29-1.36h2.78v-.74c0-.8.6-1.1,1.26-1.1.53,0,1.4.09,1.4,1.1v.74h2.6c.35,0,1.31,0,1.31,1.24,0,.46-.09,1.26-1.06,1.26h-.51c-.11.67-.18.94-.55,2.69h.87ZM594.27,102.68c.25-1.2.28-1.26.46-2.69h-2.51c.21,1.08.3,1.7.46,2.69h1.59ZM607.17,105.4v10.67c0,1.13-.53,1.38-1.49,1.38-1.1,0-1.24-.78-1.24-1.38v-10.67h-2.46v1.33c0,4.35-1.01,7.38-1.86,8.92-.71,1.26-1.08,1.52-1.75,1.52-.85,0-1.56-.62-1.56-1.38,0-.35.11-.57.48-1.13,1.59-2.32,2-5.17,2-8v-7.06c0-1.24,0-1.98,1.03-2.37.55-.21,3.47-.48,4.12-.57.53-.09,3.08-.64,3.31-.64.8,0,1.33.71,1.33,1.52,0,.58-.28,1.08-1.01,1.29-1.4.41-3.31.6-4.6.74-1.36.14-1.49.18-1.49,1.13v1.93h6.14c1.13,0,1.43.51,1.43,1.47,0,1.13-.74,1.31-1.43,1.31h-.94Z"/><path class="cls-3" d="M617.57,110.94l-1.1,3.15c-.39,1.13-.58,1.61-1.66,1.61-.64,0-1.86-.32-1.86-1.33,0-.37.16-.76.37-1.31l5.33-14.17c.44-1.13.85-2.28,2.74-2.28s2.28,1.2,2.69,2.28l5.33,14.17c.28.71.37.99.37,1.31,0,1.01-1.17,1.33-1.89,1.33-1.06,0-1.24-.51-1.63-1.61l-1.1-3.15h-7.59ZM624.17,108.16l-2.81-7.96-2.81,7.96h5.61Z"/><path class="cls-3" d="M634.82,98.15c0-1.06.55-1.54,1.63-1.54.9,0,1.68.3,1.68,1.54v16c0,1.03-.55,1.54-1.63,1.54-.9,0-1.68-.28-1.68-1.54v-16Z"/><path class="cls-3" d="M648.37,103.81c.28.46.41.69.74,1.06-.02-.11-.05-.21-.05-.32,0-.71.44-.78.69-.8,1.13-1.45,1.24-1.61,1.75-2.28-.41-.46-.48-.51-1.66-1.54-.23-.21-.48-.44-.48-.9,0-.37.32-1.27,1.1-1.27.05,0,.11.02.28.07.28-.41.76-1.08,1.13-1.63.14-.21.3-.41.69-.41.67,0,1.2.53,1.2.94,0,.46-1.08,1.79-1.52,2.35.18.18.35.32.58.6.28-.39.71-1.01,1.01-1.4.18-.25.34-.41.67-.41.37,0,.69.18.94.44,0-.69-.02-1.73.09-2.02.09-.25.3-.64,1.13-.64.55,0,1.15.21,1.26.8.02.16.05,1.63.05,1.93.09-.21.37-.71.94-.71.14,0,.23.05.32.07.14-.21.83-1.31.99-1.56.11-.16.3-.39.71-.39.6,0,1.17.48,1.17.94,0,.21-.09.37-.14.46-.25.44-.85,1.31-1.31,1.93.3.34.39.46.55.64.34-.46.85-1.22,1.2-1.68.14-.16.32-.3.6-.3.64,0,1.26.64,1.26,1.1,0,.37-.53,1.01-.9,1.47-.76.92-1.95,2.3-2.39,2.74.46-.02,1.26-.09,1.54-.11-.05-.18-.16-.6-.16-.78,0-.53.55-.8,1.01-.8.55,0,.69.32.83.76.44,1.31.6,2.37.6,2.62,0,.64-.62.9-1.01.9-.69,0-.78-.51-.87-.85-.62.09-.78.09-1.38.16.71.76.99,1.06.99,1.43,0,.05,0,.09-.02.16h1.06c.97,0,1.38.41,1.38,1.2,0,.92-.6,1.2-1.38,1.2h-4.55c.11.57.28,1.26.62,2.25.18-.21.99-1.26,1.17-1.49.21-.25.41-.51.83-.51.71,0,1.33.67,1.33,1.2,0,.71-1.66,2.51-2.28,3.08.44.69.97,1.13,1.31,1.13.39,0,.51-.25.78-.85.41-.92.48-1.06,1.06-1.06.9,0,1.29.64,1.29,1.17,0,.64-.9,3.59-3.13,3.59-1.2,0-2.3-.71-3.29-2.3-1.56,1.08-3.5,2.02-4.09,2.02-.64,0-1.26-.71-1.26-1.45,0-.62.46-.83.83-.99,1.47-.6,2.32-1.04,3.4-1.77-.62-1.52-1.06-3.31-1.2-4.02h-3.24c0,.28-.02.41-.05,1.03.74.3,1.31.55,1.95.92.97.53,1.13.64,1.13,1.24,0,.48-.23,1.36-1.01,1.36-.3,0-.39-.05-1.15-.51-.23-.14-.64-.37-1.08-.57-.11.87-.46,2.48-.99,3.61-.37.8-.78,1.31-1.49,1.31-.67,0-1.43-.48-1.43-1.17,0-.34.74-1.91.87-2.28.44-1.26.71-3.15.71-4.94-1.06-.09-1.15-.69-1.17-1.03-.12.07-.18.11-.3.11-.37,0-.55-.23-.76-.51v8.58c0,.71-.14,1.4-1.31,1.4s-1.17-1.06-1.17-1.4v-6.58c-.6,1.84-1.01,2.18-1.59,2.18-.74,0-1.29-.83-1.29-1.47,0-.18.05-.39.21-.71.99-1.86,2.14-4.05,2.67-6.9h-1.15c-1.01,0-1.36-.51-1.36-1.33,0-1.06.78-1.24,1.36-1.24h1.15v-2.99c0-.69.12-1.38,1.31-1.38s1.17.97,1.17,1.38v2.99h.64c.76,0,1.26.39,1.26,1.31,0,1.06-.74,1.26-1.26,1.26h-.64v1.2ZM655.96,106.55c-.37-2.53-.46-5.66-.48-6.99-.48.74-1.93,2.67-3.29,4.12.23,0,1.26-.07,1.47-.07-.21-.74-.23-.83-.23-1.01,0-.51.44-.71.78-.71.55,0,.69.44.78.69.16.53.67,2.14.67,2.46,0,.51-.23.85-.85.85-.55,0-.64-.41-.71-.64-.78.09-3.73.46-4.25.39.35.41.35.74.3,1.01.16-.05.3-.09.64-.09h5.17ZM658.44,103.21c.6-.71,1.22-1.49,1.45-1.77-.32-.39-.41-.48-1.43-1.49-.28-.28-.35-.37-.46-.55.05,1.29.11,2.55.18,3.84.12,0,.14,0,.25-.02ZM660.46,106.55c-.09-.14-.67-.8-.76-.97-.12-.25-.12-.32-.09-.44-.05,0-.8.07-1.24.09.07.71.12,1.01.16,1.31h1.93Z"/><path class="cls-3" d="M671.02,97.23c.51-1.26.62-1.59,1.47-1.59.76,0,1.47.41,1.47,1.06,0,.39-.16.69-.69,1.66-.32.62-.55,1.03-.71,1.31,1.61-.09,1.79-.11,3.43-.23-.78-1.33-.8-1.38-.8-1.75,0-.64.69-1.06,1.31-1.06s.92.37,1.7,1.68c1.54,2.58,1.59,2.83,1.59,3.17,0,.69-.74,1.26-1.43,1.26s-.9-.41-1.31-1.26c-3.7.51-7.13.76-7.45.76-1.01,0-1.13-.83-1.13-1.31,0-1.13.71-1.15,1.47-1.17.67-1.5.92-2.12,1.08-2.53ZM672.24,112.5v3.56c0,.41-.02,1.4-1.27,1.4-.97,0-1.45-.35-1.45-1.4v-10.3c0-2.09.44-2.58,2.58-2.58h4c2.12,0,2.58.46,2.58,2.58v8.94c0,2.21-.55,2.6-2.78,2.6-.39,0-1.17,0-1.52-.09-.62-.18-.69-1.01-.69-1.26,0-1.2.74-1.2,1.45-1.2.58,0,.9,0,.9-.62v-1.63h-3.79ZM672.24,106.92h3.79v-.83c0-.34-.16-.55-.55-.55h-2.69c-.39,0-.55.21-.55.55v.83ZM676.04,108.92h-3.79v1.47h3.79v-1.47ZM683.16,102.64c0,.83.41.83,1.49.83.37,0,1.98,0,2.18-.05.44-.11.48-.37.64-1.47.14-.92.23-1.45,1.29-1.45.18,0,1.49,0,1.49,1.22,0,.53-.23,2.69-.83,3.52-.55.74-1.03.74-4,.74-2.51,0-2.69-.02-3.04-.05-2.05-.14-2.09-1.84-2.09-2.46v-6.39c0-.48.07-1.4,1.33-1.4,1.03,0,1.52.32,1.52,1.4v1.47c1.29-.37,2.92-1.08,3.45-1.33,1.33-.67,1.4-.71,1.72-.71.64,0,1.24.69,1.24,1.43s-.48,1.03-1.79,1.54c-2.14.81-3.77,1.22-4.62,1.43v1.75ZM683.16,113.75c0,.85.44.85,1.4.85h.71c1.52,0,1.59-.02,1.75-.16.21-.16.25-.46.39-1.61.12-.8.21-1.47,1.31-1.47.14,0,1.49,0,1.49,1.2,0,.09-.14,3.06-.9,3.93-.55.64-1.29.71-4.14.71-3.13,0-3.47-.12-3.89-.37-.92-.53-.97-1.4-.97-2.23v-6.9c0-.51.07-1.4,1.31-1.4.92,0,1.52.25,1.52,1.38v1.56c1.08-.39,2.44-.85,3.4-1.43,1.17-.69,1.31-.78,1.68-.78.8,0,1.31.9,1.31,1.47s-.25.87-1.89,1.59c-.55.23-2.05.87-4.51,1.59v2.07Z"/><path class="cls-3" d="M698.83,114.8c0,1.77-.23,2.58-2.6,2.58-.85,0-1.22-.02-1.54-.14-.64-.25-.85-.94-.85-1.47,0-1.24.87-1.24,1.38-1.24.69,0,.94,0,.94-.67v-3.84c-.8.18-1.13.21-1.24.21-.85,0-1.22-.76-1.22-1.47,0-.76.41-1.06.57-1.13.37-.18,1.24-.35,1.89-.48v-4.62h-1.01c-.39,0-1.36-.02-1.36-1.33,0-1.22.76-1.38,1.36-1.38h1.01v-2.81c0-.37,0-1.24,1.31-1.24s1.36.76,1.36,1.24v2.81h.83c.32,0,1.17.02,1.17,1.26s-.46,1.45-1.17,1.45h-.83v3.93c.67-.23.83-.25.99-.25.87,0,1.06.9,1.06,1.43,0,.85-.3,1.08-2.05,1.63v5.54ZM704.3,107.79c-.34,0-1.22,0-1.22-1.13,0-.23.02-.32.05-.44-.21.09-1.17.57-1.66.57-1.01,0-1.22-1.13-1.22-1.43,0-.74.23-.8,2.12-1.66,1.36-.6,2.51-1.56,3.82-2.64.34-.3.69-.53,1.49-.53.97,0,1.38.32,1.84.67,1.24.97,2.41,1.89,3.93,2.53,1.89.8,2.12.9,2.12,1.59,0,.18-.11,1.54-1.29,1.54-.57,0-1.61-.55-1.95-.74.02.11.07.25.07.48,0,1.01-.6,1.17-1.2,1.17h-6.9ZM709.71,97.3v-.62c0-.83.67-1.01,1.22-1.01.69,0,1.4.14,1.4,1.01v.62h1.98c.34,0,1.22.02,1.22,1.2s-.76,1.2-1.22,1.2h-1.98v.67c0,.74-.53.99-1.22.99-.9,0-1.4-.23-1.4-1.01v-.64h-4.02v.64c0,.67-.41,1.01-1.22,1.01-.94,0-1.38-.28-1.38-1.01v-.64h-1.49c-.34,0-1.22,0-1.22-1.17s.83-1.22,1.22-1.22h1.49v-.6c0-.8.6-1.03,1.2-1.03.71,0,1.4.14,1.4,1.03v.6h4.02ZM713.98,114.55c0,1.98-.9,2.48-2.51,2.48h-7.52c-1.59,0-2.51-.51-2.51-2.48v-2.78c0-1.89.83-2.48,2.51-2.48h7.52c1.68,0,2.51.6,2.51,2.48v2.78ZM711.13,112.14c0-.41-.23-.67-.67-.67h-5.54c-.48,0-.67.28-.67.67v1.86c0,.44.23.67.67.67h5.54c.41,0,.67-.23.67-.67v-1.86ZM711.2,105.49c-1.17-.74-2.21-1.61-2.62-1.98-.12-.12-.64-.76-.83-.76-.11,0-.21.14-.41.34-.44.51-1.7,1.61-2.92,2.39h6.78Z"/><path class="cls-3" d="M727.21,115.17v1.13c0,.41-.05,1.2-1.31,1.2-1.1,0-1.31-.53-1.31-1.2v-1.13h-4.25c-.25,0-1.17-.02-1.17-1.03,0-.87.67-1.03,1.17-1.03h4.25v-.76h-2.44c-1.79,0-2.21-.41-2.21-2.21v-1.82c0-1.77.39-2.18,2.21-2.18h2.44v-.74h-4.09c-.34,0-1.1-.02-1.1-1.03,0-.8.46-1.03,1.1-1.03h4.09c0-.18.05-.69.69-.85h-4.97c-.3,0-1.2-.02-1.2-1.08,0-.97.69-1.1,1.2-1.1h4.25v-.9h-3.4c-.35,0-1.2,0-1.2-1.01s.69-1.1,1.17-1.1h3.43v-.57c0-.74.51-1.01,1.22-1.01.76,0,1.43.14,1.43.99v.6h3.54c.25,0,1.17,0,1.17,1.06,0,.99-.76,1.06-1.17,1.06h-3.54v.9h5.56c-.02-.83-.05-2.02-.05-2.51,0-1.33,0-2.05,1.33-2.05s1.36.83,1.36,1.29v3.27h4.28c.25,0,1.2,0,1.2,1.08,0,.92-.62,1.1-1.2,1.1h-4.25c.07,3.36.21,4.46.48,6.37.85-1.68,1.03-2.23,1.7-4.25.21-.67.44-1.01,1.15-1.01.64,0,1.43.37,1.43,1.08,0,.64-1.36,4.83-3.43,7.89.32.97.85,1.63,1.33,1.63.53,0,.74-1.15.78-1.4.09-.51.18-1.08.94-1.08.14,0,1.29,0,1.29,1.15,0,.67-.48,2.35-1.06,3.29-.76,1.24-1.82,1.24-2.12,1.24-1.43,0-2.39-1.01-3.06-2.51-.53.6-1.2,1.29-2,1.98-.44.35-.74.44-1.04.44-.71,0-1.47-.71-1.47-1.56,0-.3.09-.46.18-.55h-3.36ZM724.59,108.53v-.92h-1.86c-.3,0-.46.16-.46.46v.46h2.32ZM724.59,109.84h-2.32v.46c0,.28.14.46.46.46h1.86v-.92ZM731.14,113.1c.3,0,.83,0,1.1.57.6-.53,1.17-1.1,1.66-1.72-.92-4.09-1.01-7.17-1.06-9.47h-6.37c.67.16.71.67.71.85h4c.67,0,1.13.25,1.13,1.03,0,.97-.71,1.03-1.13,1.03h-3.98v.74h2.25c1.82,0,2.21.41,2.21,2.18v1.82c0,1.79-.41,2.21-2.21,2.21h-2.25v.76h3.93ZM727.14,108.53h2.32v-.46c0-.28-.12-.46-.44-.46h-1.89v.92ZM727.14,109.84v.92h1.89c.3,0,.44-.16.44-.46v-.46h-2.32ZM739.14,96.98c.41.41,1.08,1.06,1.08,1.54,0,.64-.64,1.31-1.33,1.31-.39,0-.48-.09-1.29-.97-.16-.18-.94-.97-1.08-1.13-.18-.18-.3-.39-.3-.67,0-.6.64-1.17,1.29-1.17.23,0,.53,0,1.63,1.08Z"/><path class="cls-3" d="M609.54,138.82c1.24,0,2.67,0,2.67,1.59,0,1.06-1.13,2.48-2.71,4.51-.62.78-2.25,2.83-5.1,5.93.51.53,1.29,1.31,1.52,1.56.99,1.08,1.06,1.4,1.06,1.77,0,.83-.87,1.61-1.68,1.61-.67,0-.97-.32-1.59-1.03-1.45-1.63-3.15-3.36-5.47-5.33-1.49-1.26-1.66-1.4-1.66-1.98,0-.78.74-1.49,1.63-1.49.46,0,.74.14,1.68.9.71.55,1.66,1.38,2.37,2,2.99-3.17,5.54-6.48,5.54-6.85,0-.18-.16-.18-.53-.18h-13.06c-.97,0-1.52-.51-1.52-1.52,0-1.2.8-1.47,1.52-1.47h15.34Z"/><path class="cls-3" d="M618.42,142.13c.41,0,.64,0,3.66,1.2,1.63.64,2.37.94,2.37,1.98,0,.69-.48,1.61-1.38,1.61-.18,0-.37,0-.85-.21-1.77-.76-2.05-.87-3.47-1.38-.83-.3-1.7-.62-1.7-1.66,0-.23.12-1.54,1.38-1.54ZM618.35,154.67c0-1.03,1.03-1.33,1.91-1.61.53-.16,4.12-1.26,8-4.48,2.64-2.18,3.66-3.59,5.2-5.75.55-.76.94-.78,1.27-.78.99,0,1.68.85,1.68,1.49,0,.94-2.92,5.04-6.97,8.19-4.48,3.52-8.92,4.76-9.5,4.76-1.17,0-1.59-1.17-1.59-1.82ZM620.42,136.84c.76,0,2.92.9,3.84,1.26,1.29.53,2.05.85,2.05,1.84,0,.71-.51,1.59-1.38,1.59-.18,0-.39-.02-.85-.23-1.86-.8-2.07-.9-3.66-1.49-.57-.21-1.38-.53-1.38-1.47,0-.32.21-1.49,1.38-1.49Z"/><path class="cls-3" d="M660.05,143.9c0,1.01-3.1,5.27-7.4,8.26-4.21,2.94-8.53,4.05-9.38,4.05-1.06,0-1.66-.9-1.66-1.82,0-1.1.55-1.24,1.98-1.59,5.2-1.31,9.7-4.51,12.85-8.85,1.08-1.47,1.2-1.66,1.86-1.66s1.75.69,1.75,1.61ZM646.55,139.19c2.9,1.31,3.06,1.77,3.06,2.46,0,.92-.71,1.72-1.52,1.72-.41,0-.78-.21-1.29-.48-1.26-.74-2.07-1.08-3.73-1.79-.83-.37-1.43-.62-1.43-1.45,0-.74.57-1.63,1.59-1.63.71,0,2.9.99,3.31,1.17Z"/><path class="cls-3" d="M678.82,153.63c0,.85.23.85,2.07.85.51,0,1.29-.02,1.47-.09.32-.14.34-.25.46-2.02.02-.46.09-1.29,1.29-1.29,1.47,0,1.47,1.03,1.47,1.56,0,2.64-.44,3.66-1.08,4.07-.53.32-.57.37-4,.37-2.51,0-3.04-.02-3.63-.41-.9-.6-.9-1.7-.9-2.28v-5.66h-3.01c-.16,2.94-1.31,5.36-3.22,6.78-1.72,1.31-3.66,1.79-4.21,1.79-1.08,0-1.45-1.08-1.45-1.66,0-.41.3-.99.8-1.13,2.9-.78,4.9-2,5.27-5.79h-4.81c-.32,0-1.4,0-1.4-1.24,0-.99.41-1.38,1.4-1.38h18.86c.35,0,1.4,0,1.4,1.24,0,.94-.41,1.38-1.4,1.38h-5.38v4.9ZM682.43,137.63c1.72,0,2.67.55,2.67,2.67v2.18c0,.57-.12,1.4-1.33,1.4-1.06,0-1.56-.3-1.56-1.4v-1.54c0-.51-.23-.8-.78-.8h-13.31c-.53,0-.78.3-.78.8v1.54c0,.53-.11,1.4-1.31,1.4-1.13,0-1.56-.37-1.56-1.4v-2.18c0-1.89.71-2.67,2.64-2.67h6.19v-.74c0-.83.51-1.17,1.36-1.17s1.59.16,1.59,1.17v.74h6.21ZM680.77,141.86c.92,0,1.36.44,1.36,1.24,0,.92-.51,1.29-1.36,1.29h-12.03c-.48,0-1.36-.09-1.36-1.26,0-.71.32-1.26,1.36-1.26h12.03Z"/><path class="cls-3" d="M693.54,156.28c0,.41-.02,1.24-1.29,1.24s-1.31-.71-1.31-1.24v-9.22c-.11.09-.3.25-.67.25-.81,0-1.31-.87-1.31-1.68,0-.57.02-.62,1.13-2.48.53-.92,1.45-3.13,1.84-4.88.41-1.79.46-2,.64-2.23.23-.28.62-.3.85-.3s1.33.05,1.33,1.15c0,.6-.48,2.78-1.22,4.92v14.46ZM704.32,137.51v-.78c0-.64.32-1.08,1.26-1.08s1.47.25,1.47,1.08v.78h2.09c.3,0,1.2,0,1.2,1.1,0,.99-.64,1.15-1.2,1.15h-2.09v1.52h2.67c.41,0,1.2.05,1.2,1.13,0,.97-.6,1.13-1.2,1.13h-11.96v4.21c0,1.01-.02,4.55-1.01,7.54-.44,1.33-.6,1.77-1.38,1.77-.51,0-1.5-.23-1.5-1.1,0-.3.05-.46.18-.87.76-2.44,1.24-3.98,1.24-7.22v-4.32h-.46c-.41,0-.8-.34-.8-1.08,0-1.15.78-1.17,1.24-1.17h2.94v-1.52h-2.07c-.28,0-1.2,0-1.2-1.13,0-1.01.71-1.13,1.2-1.13h2.07v-.76c0-.6.25-1.1,1.26-1.1s1.49.28,1.49,1.08v.78h3.33ZM700.85,156.3c0,.34,0,1.2-1.15,1.2s-1.2-.71-1.2-1.2v-9.34c0-1.98.92-2.48,2.51-2.48h6.48c1.56,0,2.51.48,2.51,2.48v8.12c0,2.21-.9,2.21-2.62,2.21-.67,0-1.59,0-1.59-1.17,0-.9.46-1.1.94-1.1.32,0,.74,0,.74-.67v-1.31h-2.21v3.04c0,.3,0,1.2-1.13,1.2s-1.15-.87-1.15-1.2v-3.04h-2.14v3.27ZM702.99,147.86v-1.4h-1.47c-.28,0-.67,0-.67.55v.85h2.14ZM702.99,149.74h-2.14v1.45h2.14v-1.45ZM704.32,139.76h-3.33v1.52h3.33v-1.52ZM705.27,147.86h2.18v-.85c0-.39-.18-.55-.55-.55h-1.63v1.4ZM705.27,149.74v1.45h2.18v-1.45h-2.18Z"/><path class="cls-3" d="M876.19,99.67c-.44,0-1.47-.02-1.47-1.33,0-1.03.37-1.49,1.47-1.49h4.16c1.56,0,2.64.07,2.64,2.12,0,.32-.11,6.25-4.62,11.04-1.15,1.22-1.66,1.45-2.16,1.45-.83,0-1.61-.87-1.61-1.72,0-.57.02-.6,1.89-2.28.76-.69,2.35-2.14,3.52-6.32.14-.48.21-.85.21-1.03,0-.25-.11-.41-.57-.41h-3.45ZM887.04,94.45c.11.92.34,2.85,1.47,5.43,1.29-1.06,3.01-2.41,4.37-4.19.41-.55.78-.97,1.4-.97.76,0,1.66.81,1.66,1.63,0,.6-.34,1.01-1.77,2.37-2.07,2-3.47,2.99-4.37,3.63,1.54,2.64,3.7,4.23,5.98,6.05.39.3.71.64.71,1.24,0,.99-.81,1.82-1.68,1.82-.99,0-2.81-1.82-3.75-2.83-1.7-1.84-3.17-3.89-4.02-6.23v8.23c0,.46,0,1.7-.9,2.28-.62.39-1.36.39-3.4.39-1.38,0-1.79.02-2.14-.09-.81-.25-.87-1.1-.87-1.47,0-1.26.87-1.43,1.47-1.43.14,0,1.54.05,1.84.05.39,0,1.08,0,1.08-.8v-16.42c0-1.1.48-1.4,1.56-1.4,1.27,0,1.36.87,1.36,1.4v1.31Z"/><path class="cls-3" d="M912.23,112.16c0,.53-.07,1.4-1.33,1.4-1.06,0-1.56-.32-1.56-1.4v-4.51c-2.44.09-5.66.21-8.09.21-.35,0-1.24,0-1.24-1.33,0-.67.34-.99.8-1.08.25-.05.41-.05,1.91-.05h4.25c-1.29-.71-2.32-1.2-3.43-1.72-.44-.21-.69-.48-.69-.92,0-.55.58-1.24,1.29-1.24.44,0,.71.14,1.91.71.67-.53.97-.8,1.36-1.17h-6.25c-.32,0-1.22,0-1.22-1.08s.87-1.13,1.22-1.13h8.26v-.87h-6.69c-.32,0-1.06-.02-1.06-.97,0-.83.55-.97,1.06-.97h6.69v-.85h-7.63c-.28,0-1.2,0-1.2-1.08,0-1.01.74-1.1,1.2-1.1h7.63v-.48c0-.71.57-.92,1.29-.92,1.08,0,1.59.21,1.59.92v.48h7.7c.3,0,1.22.02,1.22,1.08,0,.9-.62,1.1-1.22,1.1h-7.7v.85h6.74c.28,0,1.06,0,1.06.97,0,.76-.46.97-1.06.97h-6.74v.87h8.3c.34,0,1.2,0,1.2,1.1s-.76,1.1-1.2,1.1h-9.7c-.57.57-1.59,1.49-2.64,2.3.58.3.99.58,1.54.92,1.08-.83,1.93-1.56,3.24-2.74.37-.32.62-.46,1.03-.46.67,0,1.45.46,1.45,1.08,0,.3-.05.62-1.22,1.56-.62.51-1.63,1.2-2.14,1.54,2.23-.07,2.46-.09,4.67-.23-.62-.69-.83-.94-.83-1.4,0-.71.85-1.27,1.47-1.27.46,0,.83.12,2.48,2.18.55.67,1.52,1.91,1.52,2.55,0,.69-.69,1.33-1.47,1.33-.62,0-.8-.28-1.56-1.33-2.97.21-3.91.28-6.19.39v4.67ZM907.19,109.33c0,.41-.09.8-2.16,2.23-.9.6-2.28,1.52-3.1,1.52-.94,0-1.24-.94-1.24-1.45,0-.71.44-.94,1.04-1.22,1.24-.57,2.32-1.4,2.53-1.56.71-.57,1.08-.85,1.66-.85.85,0,1.29.81,1.29,1.33ZM917.47,108.85c.78.62,1.98,1.29,2.85,1.77.53.28.67.6.67.94,0,.6-.53,1.54-1.33,1.54-.85,0-2.53-1.22-3.45-1.91-1.79-1.38-1.79-1.61-1.79-2,0-.69.53-1.36,1.33-1.36.46,0,.57.09,1.72,1.01Z"/><path class="cls-3" d="M926.79,99.67c-.44,0-1.47-.02-1.47-1.33,0-1.03.37-1.49,1.47-1.49h4.16c1.56,0,2.64.07,2.64,2.12,0,.32-.11,6.25-4.62,11.04-1.15,1.22-1.66,1.45-2.16,1.45-.83,0-1.61-.87-1.61-1.72,0-.57.02-.6,1.89-2.28.76-.69,2.35-2.14,3.52-6.32.14-.48.21-.85.21-1.03,0-.25-.11-.41-.57-.41h-3.45ZM937.64,94.45c.11.92.34,2.85,1.47,5.43,1.29-1.06,3.01-2.41,4.37-4.19.41-.55.78-.97,1.4-.97.76,0,1.66.81,1.66,1.63,0,.6-.34,1.01-1.77,2.37-2.07,2-3.47,2.99-4.37,3.63,1.54,2.64,3.7,4.23,5.98,6.05.39.3.71.64.71,1.24,0,.99-.8,1.82-1.68,1.82-.99,0-2.81-1.82-3.75-2.83-1.7-1.84-3.17-3.89-4.02-6.23v8.23c0,.46,0,1.7-.9,2.28-.62.39-1.36.39-3.4.39-1.38,0-1.79.02-2.14-.09-.81-.25-.87-1.1-.87-1.47,0-1.26.87-1.43,1.47-1.43.14,0,1.54.05,1.84.05.39,0,1.08,0,1.08-.8v-16.42c0-1.1.48-1.4,1.56-1.4,1.27,0,1.36.87,1.36,1.4v1.31Z"/><path class="cls-3" d="M856.56,133.4c.41,0,1.38.05,1.38,1.22,0,.71-.21,1.36-1.33,1.36h-.74v2.78h1.38c.55,0,1.38.09,1.38,1.22,0,.9-.3,1.38-1.38,1.38h-1.38v2.97h.87c.71,0,1.33.3,1.33,1.22s-.39,1.33-1.38,1.33h-17.98c-.39,0-1.4,0-1.4-1.26,0-1.15.78-1.29,1.4-1.29h1.66v-2.97h-2.18c-.37,0-1.4,0-1.4-1.22,0-.9.32-1.38,1.4-1.38h2.23v-2.02c-.53.51-1.54,1.47-2.28,1.47-.81,0-1.38-.8-1.38-1.49,0-.55.09-.62,1.56-1.77,1.03-.8,1.72-1.68,2.51-2.69.32-.41.67-.6,1.1-.6.64,0,1.49.46,1.49,1.15,0,.28-.11.44-.21.6h13.34ZM841.73,148.46c0,.85-1.13,2.85-1.22,3.01-.85,1.47-1.17,1.82-1.91,1.82-.8,0-1.66-.55-1.66-1.4,0-.39.02-.41.87-1.61.46-.62.76-1.29,1.24-2.3.14-.28.37-.71,1.13-.71.44,0,1.54.21,1.54,1.2ZM844.86,135.97h-1.93v2.78h1.93v-2.78ZM844.86,141.35h-1.93v2.97h1.93v-2.97ZM846.4,148.48c.09.74.16,2.21.16,3.17,0,.76,0,1.66-1.49,1.66-1.08,0-1.45-.48-1.45-1.31,0-.23.02-1.29.02-1.49,0-.3-.05-1.61-.05-1.89,0-.34.02-1.24,1.38-1.24.99,0,1.36.41,1.43,1.1ZM849.07,135.97h-1.95v2.78h1.95v-2.78ZM849.07,141.35h-1.95v2.97h1.95v-2.97ZM851.71,149.4c.21.64.64,1.98.64,2.58,0,1.06-1.29,1.2-1.7,1.2-1.13,0-1.22-.53-1.45-1.84-.09-.48-.32-1.45-.53-2.16-.07-.28-.16-.53-.16-.78,0-.76.78-1.06,1.52-1.06.99,0,1.08.28,1.68,2.07ZM853.3,135.97h-1.98v2.78h1.98v-2.78ZM853.3,141.35h-1.98v2.97h1.98v-2.97ZM856.86,148.55c1.1,1.72,1.68,2.69,1.68,3.24,0,1.06-1.26,1.4-1.77,1.4-.78,0-.94-.32-1.52-1.52-.23-.48-.85-1.56-1.2-2.21-.21-.34-.39-.69-.39-1.03,0-.97,1.15-1.22,1.47-1.22.87,0,.94.09,1.72,1.33Z"/><path class="cls-3" d="M866.13,146.46c-.16.35-.51,1.01-.92,1.66-.81,1.31-1.24,1.45-1.63,1.45-.74,0-1.45-.78-1.45-1.63,0-.51.09-.6,1.2-1.93.25-.3,1.68-2.09,2.81-4.48h-2.44c-1.01,0-1.43-.44-1.43-1.38,0-1.22,1.1-1.22,1.43-1.22h2.44v-5.84c0-1.04.46-1.4,1.45-1.4,1.27,0,1.29,1.01,1.29,1.4v5.84h2.14c.78,0,1.4.25,1.4,1.31,0,1.22-.92,1.29-1.4,1.29h-2.14c.41.83,1.63,2.41,1.98,2.81,1.08,1.22,1.17,1.33,1.17,1.75,0,.64-.64,1.36-1.31,1.36-.6,0-1.01-.55-1.84-2.02v6.74c0,1.01-.44,1.4-1.43,1.4-1.31,0-1.31-1.06-1.31-1.4v-5.68ZM864.78,133.99c.39,1.13.8,2.64.8,3.08,0,1.01-1.31,1.03-1.45,1.03-.69,0-.78-.39-1.01-1.36-.14-.58-.53-1.84-.67-2.25-.07-.25-.11-.46-.11-.62,0-.67.76-.99,1.36-.99.64,0,.83.39,1.08,1.1ZM872.71,133.95c0,.48-.44,2.07-.78,3.01-.37.97-.62,1.2-1.13,1.2-.44,0-1.38-.25-1.38-1.06,0-.16.05-.34.41-1.47.16-.53.25-.76.48-1.77.09-.35.23-.94.92-.94,1.1,0,1.47.57,1.47,1.03ZM882.48,143.81c.09-.02.23-.02.37-.02,1.01,0,1.17,1.03,1.17,1.63,0,.55-.16,1.01-1.1,1.17l-1.08.18v5.29c0,.69-.18,1.43-1.36,1.43s-1.61-.32-1.61-1.43v-4.71l-5.45,1.06c-1.01.21-1.52-.55-1.52-1.47s.48-1.15,1.03-1.26l5.93-1.15v-11.5c0-.67.18-1.4,1.36-1.4s1.61.3,1.61,1.4v10.9l.64-.12ZM876.18,140.02c1.33,1.08,1.61,1.36,1.61,1.89,0,.78-.78,1.56-1.49,1.56-.39,0-.46-.05-1.52-.99-.23-.23-1.38-1.15-1.59-1.36-.28-.28-.37-.48-.37-.78,0-.78.64-1.47,1.36-1.47.58,0,1.36.62,2,1.15ZM877.2,134.34c1.01.87,1.2,1.08,1.2,1.66,0,.76-.64,1.47-1.4,1.47-.44,0-.48-.02-1.54-1.01-.21-.21-1.26-1.13-1.47-1.31-.25-.23-.37-.51-.37-.83,0-.78.67-1.36,1.31-1.36s1.54.76,2.28,1.38Z"/><path class="cls-3" d="M901.44,140.06c0-.85.39-1.31,1.24-1.31.9,0,1.43.25,1.43,1.31v1.43c0,2.97,1.24,6.51,3.93,8.9.71.62.97.9.97,1.47,0,.74-.64,1.49-1.45,1.49-.48,0-1.13-.09-2.46-1.86-1.45-1.91-1.98-3.79-2.21-4.65-.48,1.59-1.06,3.08-2,4.44-.37.51-1.52,2.07-2.55,2.07-.58,0-1.13-.32-1.45-.97-.12.02-.23.05-.39.05-.85,0-1.1-.67-1.33-1.36-.9.3-5.77,1.86-6.46,1.86-.76,0-1.17-.69-1.17-1.36,0-.97.71-1.13,1.36-1.29v-9.52c0-1.61.25-1.89.62-2.18-.12.07-.35.18-.69.18-.83,0-1.33-.85-1.33-1.4s.25-.83,1.4-1.68c1.15-.85,2.12-2.12,2.9-3.13.39-.48.78-.8,1.7-.8,1.06,0,1.31.28,2.51,1.56.18.21.87.94,1.54,1.43.78.6,1.04.78,1.04,1.4,0,.85-.62,1.45-1.33,1.45-.94,0-2.32-1.59-3.08-2.58-.46-.6-.53-.67-.64-.67-.14,0-.21.09-.37.34-.94,1.45-2.48,3.08-3.43,3.75.48-.25,1.38-.25,1.75-.25h.78v-.78c0-.62.18-1.38,1.2-1.38.87,0,1.24.55,1.24,1.38v.78h.69c2.02,0,2.07,1.15,2.14,2.05,1.26-2.07,1.63-2.67,2.35-4.85.16-.46.67-2.78.74-2.94.11-.3.37-.76,1.2-.76.25,0,1.49.05,1.49,1.2,0,.48-.3,1.56-.46,2.09h3.36c1.33,0,2.74,0,2.74,2.14,0,.87-.21,2-.94,4.02-.48,1.33-.74,2.05-1.68,2.05-.83,0-1.47-.53-1.47-1.2,0-.25.07-.37.6-1.52.35-.74.74-1.82.74-2.28,0-.39-.28-.53-.67-.53h-3.59c-1.03,2.58-1.56,3.54-2.28,4.44-.25.32-.6.53-1.01.53-.09,0-.62,0-1.1-.51v2.14c0,2.09-.44,2.58-2.58,2.58h-3.54v2.85c1.72-.46,1.93-.51,2.78-.76-.23-.48-.32-.71-.32-.97,0-.6.64-1.06,1.38-1.06s.9.37,1.31,1.13c.78,1.47.94,1.75,1.22,2.44,2.53-2.12,3.68-5.68,3.68-8.99v-1.43ZM891.39,141.56h3.63v-.67c0-.37-.16-.55-.55-.55h-2.53c-.37,0-.55.21-.55.55v.67ZM895.02,143.44h-3.63v1.24h3.08c.39,0,.55-.21.55-.57v-.67Z"/><path class="cls-3" d="M928.99,139.51c.09-.76.41-1.33,1.33-1.33,1.45,0,1.61.87,1.61,1.43,0,.14-.02,1.91-.87,4.88,1.06.74,1.68,1.24,1.93,1.47.6.51.78.76.78,1.26,0,.92-.71,1.75-1.43,1.75-.53,0-.71-.14-2.41-1.54-1.72,3.33-4.6,5.36-5.61,5.36-.76,0-1.54-.71-1.54-1.49,0-.55.11-.67,1.36-1.61.64-.51,2.28-1.77,3.33-4.02-1.33-.87-2.92-1.75-4.6-2.3-.99,1.98-1.91,3.4-2.21,3.86-1.45,2.23-2.58,3.52-4.28,3.52-1.79,0-3.01-1.61-3.01-3.84,0-3.7,2.94-6.78,6.71-6.78.51,0,.94.07,1.24.12.34-.81.87-1.95,1.61-4.02-1.75.14-3.96.25-4.78.25-.74,0-1.79,0-1.79-1.45s1.06-1.47,2-1.47c.34,0,1.84.05,2.14.05.48,0,1.72,0,3.22-.21.21-.02,1.13-.18,1.31-.18.83,0,1.66.76,1.66,1.38,0,.25-.28.85-2.58,6.23,2.02.74,3.59,1.59,4.35,2.02.3-1.26.35-1.66.53-3.31ZM916,146.89c0,.18.02.8.46.8.83,0,2.69-3.36,3.45-4.83-2.6-.14-3.91,2.35-3.91,4.02Z"/><path class="cls-3" d="M958.18,135.1c1.15,0,1.29.87,1.29,1.4,0,.99-.51,1.45-1.03,1.45h-.62c-.16,2.85-.48,6.39-2.6,9.68.71.8,1.17,1.2,3.36,2.69.57.39.74.67.74,1.15,0,.83-.67,1.82-1.54,1.82-.32,0-.64,0-2.32-1.31-1.03-.81-1.7-1.56-2.09-2.02-1.79,1.84-4.42,3.36-5.17,3.36-.9,0-1.47-.92-1.47-1.72,0-.71.44-.97.97-1.22,1.47-.74,2.81-1.68,3.98-2.83-1.17-2.02-1.86-4.19-2.23-5.7-.41.55-.71.78-1.17.78-.34,0-.71-.14-.99-.37,0,.97-.07,6.94-.53,9.01-.41,1.95-1.66,2.05-2.76,2.05-.85,0-1.61-.07-1.79-.14-.44-.16-.74-.78-.74-1.38,0-1.33.8-1.33,1.33-1.33.6,0,1.03,0,1.26-.46.37-.76.53-4.48.53-6.42v-.39c0-.53-.16-.62-.62-.62h-1.43c-.07,1.52-.37,4.58-1.08,6.99-.3,1.06-.83,2.51-1.22,3.08-.23.37-.53.51-.9.51-.85,0-1.7-.71-1.7-1.49,0-.34.12-.6.37-1.08,1.13-2.14,1.93-4.88,1.93-9.08v-3.96h-.9c-.87,0-1.33-.51-1.33-1.33,0-1.17.83-1.33,1.43-1.33h2.37v-1.98c0-.8.44-1.24,1.29-1.24s1.49.21,1.49,1.24v1.98h2.39c.46,0,1.38.07,1.38,1.24,0,.9-.28,1.43-1.38,1.43h-4.12v2.48h2.51c.69,0,1.27.02,1.75.55.18-.37,1.1-1.89,1.29-2.23,1.06-2.07,1.61-4.19,1.91-5.45.21-.83.37-1.29,1.36-1.29.76,0,1.49.39,1.49,1.15,0,.51-.28,1.45-.53,2.35h5.86ZM951.35,137.95c-.05.12-.05.14-.09.23.39,2.41,1.08,4.78,2.21,6.94,1.15-2.12,1.54-4.3,1.66-7.17h-3.77Z"/><path class="cls-3" d="M974.46,138.52c0-2.25.53-2.58,2.71-2.58.12-.39.16-.6.25-1.2h-2.67c-.32,0-1.22,0-1.22-1.13s.81-1.15,1.22-1.15h8.58c.32,0,1.22,0,1.22,1.13s-.87,1.15-1.22,1.15h-3.2c-.07.41-.25.99-.3,1.2h1.38c2.09,0,2.58.46,2.58,2.58v5.7c0,2.09-.46,2.53-2.32,2.58,1.36,1.01,1.36,1.03,2.18,1.49.25.14.62.34.62.9,0,.28-.09.78-.57,1.13.48.09,1.06.23,1.06,1.2,0,.28-.05.92-.48,1.17-.23.11-.62.25-1.03.25h-10.85c-4.58,0-5.86-2.05-6.39-2.87-.16.85-.51,1.91-.69,2.37-.23.51-.48.85-1.1.85-.48,0-1.36-.28-1.36-1.1,0-.37.09-.57.32-1.1.76-1.89.9-3.63,1.03-5.82.05-.51.16-1.15,1.15-1.15s1.2.57,1.2,1.36c0,.62-.05,1.13-.09,1.56.39.99.74,1.52,1.26,2.05v-5.73h-3.54c-.32,0-1.22,0-1.22-1.15s.9-1.15,1.22-1.15h8.53c.3,0,1.22,0,1.22,1.15s-.9,1.15-1.22,1.15h-2.46v1.91h2.05c.3,0,1.22,0,1.22,1.13s-.9,1.13-1.22,1.13h-2.05v2.69c.57.07,1.26.09,1.56.09h2.32c-.55-.46-.55-.99-.55-1.13,0-.55.25-.67,1.26-1.24.25-.14.71-.37,1.13-.71.39-.3.41-.34.53-.41-1.68-.09-2.05-.64-2.05-2.58v-5.7ZM973.02,137.49c0,2.09-.46,2.58-2.6,2.58h-4.09c-2.09,0-2.58-.44-2.58-2.58v-2.48c0-2.09.44-2.58,2.58-2.58h4.09c2.14,0,2.6.48,2.6,2.58v2.48ZM966.23,135.37h4.16v-.46c0-.39-.18-.57-.55-.57h-3.06c-.34,0-.55.16-.55.57v.46ZM966.23,137.21v.46c0,.37.18.55.55.55h3.06c.35,0,.55-.16.55-.55v-.46h-4.16ZM977.71,146.8c.62.39.62.9.62,1.01,0,.34-.16.6-.87,1.2-.3.25-1.22.94-1.86,1.29h6.74c-.53-.3-1.03-.67-1.49-1.03-1.08-.85-1.22-1.1-1.22-1.5,0-.11,0-.57.58-.97h-2.48ZM977.02,138.98h4.19v-.55c0-.32-.14-.55-.55-.55h-3.08c-.46,0-.55.3-.55.55v.55ZM981.2,140.8h-4.19v1.08h4.19v-1.08ZM977.02,143.72v.57c0,.16,0,.58.55.58h3.08c.55,0,.55-.39.55-.58v-.57h-4.19Z"/></g></svg>