<?xml version="1.0" encoding="UTF-8"?><svg id="_レイヤー_2" xmlns="http://www.w3.org/2000/svg" viewBox="0 0 681 251"><defs><style>.cls-1{fill:#00b9ef;}.cls-1,.cls-2{stroke-width:0px;}.cls-3{fill:none;stroke:#fff;stroke-miterlimit:10;}.cls-2{fill:#fff;}</style></defs><g id="BACK2"><rect class="cls-1" width="325" height="115" rx="50" ry="50"/><rect class="cls-1" x="356" width="325" height="115" rx="50" ry="50"/><rect class="cls-1" y="136" width="325" height="115" rx="50" ry="50"/><rect class="cls-1" x="356" y="136" width="325" height="115" rx="50" ry="50"/></g><g id="DESIGN"><path class="cls-2" d="M128.52,35.2c-.65,3.2-1.77,6.32-3.9,8.8,1.7.85,3.35,1.77,4.97,2.72.75.42,1.27.87,1.27,1.65,0,.9-.65,1.95-1.9,1.95-.62,0-1.17-.38-1.95-.9-2.05-1.37-2.92-1.95-4.95-3.12-4.4,3.12-10.6,4.02-11.42,4.02-1.62,0-1.62-1.5-1.62-1.8,0-1.1.7-1.27,1.62-1.42,1.67-.25,5.27-.8,8.22-2.45-1.65-.77-2.37-1.02-5.02-1.97-.9-.32-2.1-.8-2.1-2.05,0-.67.23-1.12.88-2.32.55-1,1.02-2.05,1.47-3.1h-4.07c-.8,0-1.5-.35-1.5-1.5,0-1.45,1.22-1.45,1.5-1.45h5.3c.45-1.22.52-1.5,1.25-3.87.33-1.02.73-1.45,1.67-1.45.6,0,1.85.15,1.85,1.27,0,.72-.88,3.12-1.2,4.05h11.77c.85,0,1.52.35,1.52,1.47,0,1.47-1.17,1.47-1.52,1.47h-2.15ZM117.72,35.2c-.38.9-.77,1.75-1.75,3.65-.38.7-.4.8-.4,1,0,.25.23.35.77.58,2.52,1,3.32,1.3,5.27,2.17,1.95-2,2.97-4.65,3.47-7.4h-7.37Z"/><path class="cls-2" d="M138.42,32.9c0,2.42-.5,5.55-.62,6.1-.1.5-.32.85-.92.85-.32,0-1.05-.17-1.05-.87,0-.4.32-2.07.37-2.42.18-1.23.23-1.8.3-3.42.05-.77.07-1.15,1.02-1.15.9,0,.9.73.9.92ZM142.17,49.29c0,.4,0,1.37-1.45,1.37s-1.57-.72-1.57-1.37v-20.94c0-.42,0-1.35,1.5-1.35s1.52.82,1.52,1.35v20.94ZM150.42,32.22v-3.77c0-.4,0-1.4,1.5-1.4s1.67.62,1.67,1.4v3.77h4.2c.3,0,1.42,0,1.42,1.45s-1.1,1.45-1.42,1.45h-4.2v4.32h3.6c.3,0,1.45,0,1.45,1.4s-1.12,1.42-1.45,1.42h-3.6v4.65h4.62c.3,0,1.42,0,1.42,1.45s-1.12,1.47-1.42,1.47h-13.45c-.3,0-1.42-.02-1.42-1.45s1.1-1.47,1.42-1.47h5.65v-4.65h-4.2c-.73,0-1.42-.32-1.42-1.4,0-1.25.9-1.42,1.42-1.42h4.2v-4.32h-2.9c-.6,1.85-1.15,3.05-1.45,3.4-.25.3-.57.4-.92.4-.73,0-1.52-.55-1.52-1.3,0-.25.08-.43.8-2-.15.07-.3.15-.5.15-.55,0-.67-.33-1-1.42-.1-.3-.6-1.55-.6-1.85,0-.75.73-1.1,1.12-1.1.5,0,.65.35.95,1.12.45,1.1.5,1.22.6,1.55.48-1.55.55-2.15.98-4.55.1-.65.22-1.3,1.25-1.3.45,0,1.5.08,1.5,1.2,0,.8-.22,1.87-.45,2.8h2.15Z"/><path class="cls-2" d="M182.45,42.17h3.32c.35,0,1.35,0,1.35,1.3s-.97,1.35-1.35,1.35h-3.32v2.7c0,2.92-.82,3-4.82,3-.6,0-2.35,0-2.77-.17-.5-.23-.77-.75-.77-1.37,0-1.38,1-1.38,1.65-1.38.42,0,2.25.05,2.62.05.67,0,1-.1,1-.88v-1.95h-9.22c.25.17,2.72,2.55,2.72,3.62,0,.8-1.05,1.45-1.85,1.45-.6,0-.7-.12-1.57-1.23-.57-.7-2-2.42-2-2.95,0-.25.25-.62.7-.9h-3.22c-.35,0-1.32,0-1.32-1.32s.95-1.32,1.32-1.32h14.45v-1.07h-10.92c-1.92,0-2.72-.73-2.72-2.72v-3.42c0-1.97.8-2.72,2.72-2.72h5.32v-1.02h-8.7c-.35,0-1.35,0-1.35-1.3s.98-1.32,1.35-1.32h8.7v-.65c0-.92,1.12-1,1.5-1,.7,0,1.67.12,1.67,1v.65h8.7c.38,0,1.35,0,1.35,1.3s-.95,1.32-1.35,1.32h-8.7v1.02h5.35c1.8,0,2.7.65,2.7,2.72v3.42c0,1.57-.48,2.7-2.52,2.72v1.07ZM173.75,35.6v-1.27h-4.47c-.4,0-.57.22-.57.6v.67h5.05ZM173.75,37.6h-5.05v.75c0,.38.17.6.57.6h4.47v-1.35ZM176.92,35.6h5v-.67c0-.32-.15-.6-.57-.6h-4.42v1.27ZM176.92,37.6v1.35h4.42c.45,0,.57-.28.57-.6v-.75h-5Z"/><path class="cls-2" d="M204.7,43.19v5.72c0,.62-.1,1.52-1.38,1.52-1.07,0-1.6-.33-1.6-1.52v-5.72h-5.22c-.2,1.97-.52,3.6-1.42,5.55-.75,1.6-1.2,1.85-1.95,1.85-1.05,0-1.92-.77-1.92-1.72,0-.35.03-.38,1.05-2.35.62-1.25,1.2-3.37,1.2-6.52v-8.87c0-2.4,1.02-3.12,3.1-3.12h13.65c2.05,0,3.12.7,3.12,3.12v16.47c0,2.92-1.55,2.92-4.25,2.92-1.4,0-2.6,0-2.6-1.67,0-.9.38-1.55,1.42-1.55.22,0,1.27.02,1.5.02.55,0,.75-.27.75-.95v-3.17h-5.45ZM201.72,34.22v-3.27h-4.22c-.6,0-.85.32-.85.85v2.42h5.07ZM201.72,36.97h-5.07v3.42h5.07v-3.42ZM204.7,34.22h5.45v-2.42c0-.52-.27-.85-.85-.85h-4.6v3.27ZM210.15,36.97h-5.45v3.42h5.45v-3.42Z"/><path class="cls-2" d="M75.44,82.09c.8,0,1.65.27,1.65,1.6,0,1.15-.57,1.65-1.65,1.65h-9.92c-1.42,0-3.1,0-3.1-2,0-1.27.55-1.72,2.25-3.1,1.27-1.02,4.3-3.65,6.22-5.72,1.42-1.55,1.62-2.6,1.62-3.35,0-1.57-1.17-2.92-2.82-2.92-1.77,0-2.82.9-3.65,1.6-.45.38-.72.5-1.1.5-1.02,0-1.72-.88-1.72-1.7,0-1.25,2.8-3.65,6.42-3.65s6.42,2.25,6.42,6.05c0,3.07-1.65,5.1-8.7,11.05h8.07Z"/><path class="cls-2" d="M94.76,78.15c.77,0,1.6.27,1.6,1.55,0,1.12-.6,1.57-1.6,1.57h-1.1v2.82c0,.47-.05,1.65-1.72,1.65-1.25,0-1.8-.55-1.8-1.62v-2.85h-6.22c-.9,0-2.8,0-2.8-1.8,0-.85.3-1.3,1.12-2.47l7.1-10.3c.9-1.3,1.6-1.7,2.47-1.7,1.85,0,1.85,1.38,1.85,2.15v11h1.1ZM84.86,78.15h5.27v-7.77l-5.27,7.77Z"/><path class="cls-2" d="M108.81,83.39c0,2.27-.5,2.8-2.8,2.8h-2.3c-2.27,0-2.8-.5-2.8-2.8v-15.55c0-2.3.5-2.8,2.8-2.8h2.3c2.27,0,2.8.45,2.8,2.8v15.55ZM106.09,74.25v-5.75c0-.43-.23-.62-.62-.62h-1.1c-.4,0-.6.2-.6.62v5.75h2.32ZM106.09,76.85h-2.32v5.92c0,.42.23.6.6.6h1.1c.4,0,.62-.17.62-.6v-5.92ZM117.91,79.3h-7.42c-.4,0-1.42,0-1.42-1.38,0-1.07.38-1.55,1.42-1.55h7.42v-2.05h-7.65c-.42,0-1.4-.02-1.4-1.37,0-1.05.32-1.55,1.4-1.55h4.4v-2.3h-3.67c-.37,0-1.4,0-1.4-1.35,0-1.17.7-1.4,1.4-1.4h3.67v-1.05c0-.9.4-1.35,1.45-1.35.95,0,1.62.2,1.62,1.35v1.05h3.85c.38,0,1.45,0,1.45,1.37s-1,1.37-1.45,1.37h-3.85v2.3h4.6c.42,0,1.45,0,1.45,1.38,0,.92-.27,1.55-1.37,1.55h-1.4v2.05h1.2c.97,0,1.32.62,1.32,1.4s-.2,1.52-1.32,1.52h-1.2v5.02c0,2.95-.9,3.15-4.32,3.15-1.55,0-2.75,0-2.75-1.72,0-.57.15-.77.25-.95-.17.05-.37.12-.67.12-.75,0-.92-.3-1.42-1.15-.3-.5-.82-1.25-1.05-1.55-.5-.67-.67-.88-.67-1.3,0-1.05,1.25-1.42,1.77-1.42.7,0,.88.25,1.85,1.47.42.55,1.32,1.7,1.32,2.4,0,.2-.02.52-.5,1,.3-.05,1.75.02,2.05.02.67-.02,1.05-.17,1.05-1.15v-3.95Z"/><path class="cls-2" d="M131.49,86.27c0,.38,0,1.4-1.37,1.4-1.2,0-1.55-.5-1.55-1.4v-18.8c0-2.05.9-2.7,2.72-2.7h4.62c1.8,0,2.7.65,2.7,2.7v4.17c0,2.07-.9,2.7-2.7,2.7h-4.42v11.92ZM135.84,68.42v-.67c0-.32-.15-.6-.6-.6h-3.15c-.5,0-.6.32-.6.6v.67h4.35ZM131.49,70.65v1.35h3.75c.42,0,.6-.23.6-.6v-.75h-4.35ZM136.26,84.99c-1.75,0-2.7-.57-2.7-2.7v-4.27c0-2.07.88-2.72,2.7-2.72h6.35c1.82,0,2.7.65,2.7,2.72v4.27c0,.8-.1,1.47-.58,2.02.55.02,1.23.02,1.77.02.72,0,.97-.05.97-.8v-9.2h-4.5c-1.82,0-2.72-.62-2.72-2.7v-4.17c0-2.05.9-2.7,2.72-2.7h4.65c1.9,0,2.7.72,2.7,2.7v16.92c0,2.55-.65,3.02-3.67,3.02-2.05,0-2.57-.08-2.87-.23-.45-.23-.8-.75-.8-1.5,0-.38.08-.55.12-.73-.17.02-.27.02-.5.02h-6.35ZM136.36,79h6.12v-.92c0-.37-.2-.57-.6-.57h-4.92c-.32,0-.6.12-.6.57v.92ZM136.36,81.04v1.05c0,.4.2.6.6.6h4.92c.42,0,.6-.23.6-.6v-1.05h-6.12ZM143.16,68.42h4.32v-.67c0-.38-.2-.6-.6-.6h-3.12c-.42,0-.6.22-.6.6v.67ZM147.48,70.65h-4.32v.75c0,.35.15.6.58.6h3.75v-1.35Z"/><path class="cls-2" d="M160.76,86.17c0,.35,0,1.55-1.45,1.55-1.35,0-1.6-.75-1.6-1.55v-10.25c-.25.35-.55.7-1.17.7-.9,0-1.6-.92-1.6-1.85,0-.52.15-.88.7-1.65,1.8-2.52,2.72-5.17,3.35-7.75.17-.75.4-1.37,1.47-1.37.72,0,1.62.32,1.62,1.25,0,.67-.52,2.72-1.32,4.87v16.05ZM163.16,69.07c-.57,0-1.4-.08-1.4-1.4s.7-1.42,1.4-1.42h5.45v-.9c0-.5.08-1.37,1.5-1.37,1.23,0,1.52.6,1.52,1.37v.9h5.52c.38,0,1.52,0,1.52,1.4,0,1.27-.9,1.42-1.52,1.42h-5.52v1.52h3.25c1.87,0,2.9.6,2.9,2.9v2.25c0,2.22-.97,2.9-2.9,2.9h-3.52c-.23,1.47-.52,2.62-1.1,3.72,2.45,1.17,4.15,1.5,7.12,2.02.92.17,1.2.67,1.2,1.37,0,.23-.05,1.85-1.57,1.85-1.05,0-5.27-.88-8.65-2.77-1.87,1.72-4.32,2.72-5.52,2.72s-1.57-1.07-1.57-1.65c0-.9.57-1.2,1.12-1.4,2.32-.77,2.5-.82,3.32-1.42-1.25-1.02-1.97-1.87-2.1-2.05-.18-.23-.35-.48-.35-.85,0-.6.45-1.45,1.47-1.45.57,0,.77.18,1.15.52.8.8,1.32,1.2,1.72,1.48.2-.4.45-.98.65-2.1h-2.9c-1.92,0-2.9-.65-2.9-2.9v-2.25c0-2.27,1-2.9,2.9-2.9h3.25v-1.52h-5.45ZM168.61,73.15h-2.42c-.55,0-.82.25-.82.85v1.22c0,.57.3.82.82.82h2.37c.05-1.35.05-1.77.05-2.5v-.4ZM171.63,73.15c0,1.25,0,1.6-.05,2.9h2.42c.6,0,.82-.3.82-.82v-1.22c0-.52-.2-.85-.82-.85h-2.37Z"/><path class="cls-2" d="M187.74,67.72c0,.35-.23,1.97-.27,2.35-.1,1.1-.2,2.5-.2,3.85,0,4.05.98,8.25,2.65,8.25.7,0,1.45-1.5,1.92-2.65.73-1.7.85-2.07,1.65-2.07.72,0,1.72.5,1.72,1.5,0,.6-.75,2.32-1.25,3.32-1.17,2.25-2.37,3.62-4.22,3.62-3.3,0-5.75-4.7-5.75-12.25,0-2.65.3-5.07.4-5.62.12-.72.27-1.55,1.62-1.55.6,0,1.72.2,1.72,1.25ZM203.28,71.57c1.15,2.35,1.97,5.4,1.97,8.22,0,.73,0,2.12-1.75,2.12-1.42,0-1.5-.95-1.57-2.02-.3-3.95-1.27-6.5-2.5-8.52-.68-1.12-.73-1.2-.73-1.57,0-.7.73-1.42,1.6-1.42.5,0,1.37,0,2.97,3.2Z"/><path class="cls-2" d="M232.16,67.7c1.25,0,1.4.95,1.4,1.52,0,1.07-.55,1.57-1.12,1.57h-.67c-.17,3.1-.52,6.95-2.82,10.52.77.87,1.27,1.3,3.65,2.92.62.42.8.72.8,1.25,0,.9-.72,1.97-1.67,1.97-.35,0-.7,0-2.52-1.42-1.12-.87-1.85-1.7-2.27-2.2-1.95,2-4.8,3.65-5.62,3.65-.97,0-1.6-1-1.6-1.87,0-.77.48-1.05,1.05-1.32,1.6-.8,3.05-1.82,4.32-3.07-1.27-2.2-2.02-4.55-2.42-6.2-.45.6-.77.85-1.27.85-.38,0-.77-.15-1.07-.4,0,1.05-.08,7.55-.57,9.8-.45,2.12-1.8,2.22-3,2.22-.92,0-1.75-.07-1.95-.15-.47-.17-.8-.85-.8-1.5,0-1.45.88-1.45,1.45-1.45.65,0,1.12,0,1.38-.5.4-.82.57-4.87.57-6.97v-.42c0-.58-.17-.67-.67-.67h-1.55c-.07,1.65-.4,4.97-1.17,7.6-.32,1.15-.9,2.72-1.32,3.35-.25.4-.57.55-.97.55-.92,0-1.85-.77-1.85-1.62,0-.38.12-.65.4-1.17,1.23-2.32,2.1-5.3,2.1-9.87v-4.3h-.97c-.95,0-1.45-.55-1.45-1.45,0-1.27.9-1.45,1.55-1.45h2.57v-2.15c0-.88.47-1.35,1.4-1.35s1.62.22,1.62,1.35v2.15h2.6c.5,0,1.5.07,1.5,1.35,0,.97-.3,1.55-1.5,1.55h-4.47v2.7h2.72c.75,0,1.37.02,1.9.6.2-.4,1.2-2.05,1.4-2.42,1.15-2.25,1.75-4.55,2.07-5.92.23-.9.4-1.4,1.47-1.4.82,0,1.62.42,1.62,1.25,0,.55-.3,1.57-.57,2.55h6.37ZM224.73,70.8c-.05.12-.05.15-.1.25.43,2.62,1.17,5.2,2.4,7.55,1.25-2.3,1.67-4.67,1.8-7.8h-4.1Z"/><path class="cls-2" d="M249.86,71.42c0-2.45.58-2.8,2.95-2.8.12-.43.17-.65.27-1.3h-2.9c-.35,0-1.32,0-1.32-1.22s.87-1.25,1.32-1.25h9.32c.35,0,1.32,0,1.32,1.22s-.95,1.25-1.32,1.25h-3.47c-.08.45-.27,1.07-.33,1.3h1.5c2.27,0,2.8.5,2.8,2.8v6.2c0,2.27-.5,2.75-2.52,2.8,1.47,1.1,1.47,1.12,2.37,1.62.27.15.68.38.68.98,0,.3-.1.85-.62,1.22.52.1,1.15.25,1.15,1.3,0,.3-.05,1-.52,1.27-.25.12-.68.27-1.12.27h-11.8c-4.97,0-6.37-2.22-6.95-3.12-.17.92-.55,2.07-.75,2.57-.25.55-.52.92-1.2.92-.52,0-1.47-.3-1.47-1.2,0-.4.1-.62.35-1.2.83-2.05.98-3.95,1.12-6.32.05-.55.17-1.25,1.25-1.25s1.3.62,1.3,1.47c0,.67-.05,1.22-.1,1.7.42,1.07.8,1.65,1.37,2.22v-6.22h-3.85c-.35,0-1.32,0-1.32-1.25s.97-1.25,1.32-1.25h9.27c.33,0,1.32,0,1.32,1.25s-.97,1.25-1.32,1.25h-2.67v2.07h2.22c.32,0,1.32,0,1.32,1.23s-.98,1.22-1.32,1.22h-2.22v2.92c.62.07,1.37.1,1.7.1h2.52c-.6-.5-.6-1.07-.6-1.23,0-.6.27-.72,1.38-1.35.27-.15.77-.4,1.22-.77.42-.32.45-.37.57-.45-1.82-.1-2.22-.7-2.22-2.8v-6.2ZM248.29,70.3c0,2.27-.5,2.8-2.82,2.8h-4.45c-2.27,0-2.8-.47-2.8-2.8v-2.7c0-2.27.48-2.8,2.8-2.8h4.45c2.32,0,2.82.52,2.82,2.8v2.7ZM240.91,68h4.52v-.5c0-.42-.2-.62-.6-.62h-3.32c-.38,0-.6.18-.6.62v.5ZM240.91,70v.5c0,.4.2.6.6.6h3.32c.38,0,.6-.17.6-.6v-.5h-4.52ZM253.38,80.42c.67.42.67.97.67,1.1,0,.38-.17.65-.95,1.3-.33.27-1.32,1.02-2.02,1.4h7.32c-.58-.33-1.12-.73-1.62-1.12-1.17-.92-1.32-1.2-1.32-1.62,0-.12,0-.62.62-1.05h-2.7ZM252.63,71.92h4.55v-.6c0-.35-.15-.6-.6-.6h-3.35c-.5,0-.6.33-.6.6v.6ZM257.18,73.9h-4.55v1.17h4.55v-1.17ZM252.63,77.07v.62c0,.17,0,.62.6.62h3.35c.6,0,.6-.42.6-.62v-.62h-4.55Z"/><path class="cls-3" d="M317.5,57.59c0,27.2-22.5,49.46-50,49.46H58.5c-27.5,0-50-22.26-50-49.46S31,8.13,58.5,8.13h209c27.5,0,50,22.26,50,49.46Z"/><path class="cls-2" d="M500.48,27.92c.38,0,1.55,0,1.55,1.45,0,1.2-.55,1.6-1.55,1.6h-11.8v2.8c-.02.15-.05.72-.05.85h7.67c1.5,0,3.37.15,3.37,3,0,.7-.33,8.32-1.42,10.77-.95,2.1-2.7,2.1-4.97,2.1-2,0-2.27-.05-2.52-.12-.8-.27-.97-1.15-.97-1.6,0-1.52,1.12-1.52,1.67-1.52.33,0,1.75.05,2.05.05,1.65,0,1.97-1.02,2.25-2.5.4-2.3.58-6.07.58-6.12,0-.6-.08-1.07-1.1-1.07h-6.87c-.5,3.42-1.45,6.65-3.97,9.7-.27.33-2.67,3.15-4.02,3.15-.95,0-1.77-.98-1.77-1.9,0-.65.35-.95.9-1.35,5.05-3.57,5.95-8.72,5.95-13.5v-2.72h-5.55c-.35,0-1.55,0-1.55-1.42,0-1.17.47-1.62,1.55-1.62h20.6Z"/><path class="cls-2" d="M511.91,37.6c-.55,0-1.57-.1-1.52-1.52-1.75,1.07-2.4,1.35-3,1.35-.92,0-1.57-.9-1.57-1.87,0-.8.43-1.1.68-1.27.17-.1,2.15-1.1,2.52-1.3,2.17-1.1,5.17-3.97,5.75-4.55,1.05-1.1,1.6-1.62,2.92-1.62.97,0,1.6.25,2.5,1.15.95.95,1.42,1.45,2.25,2.15,2.35,2.05,3.57,2.7,6.3,4.1.7.35.85.9.85,1.37,0,.98-.67,1.85-1.6,1.85-.85,0-2.42-1-2.87-1.27-.02,1.38-.97,1.45-1.52,1.45h-4.25v2.87h6.25c.6,0,1.52.15,1.52,1.47,0,1.42-1.15,1.42-1.52,1.42h-6.25v3.52h8.62c1.1,0,1.52.48,1.52,1.6,0,1.42-1.12,1.42-1.52,1.42h-20.52c-1.12,0-1.52-.48-1.52-1.6,0-1.4,1.07-1.42,1.52-1.42h8.7v-3.52h-6.25c-1.02,0-1.52-.42-1.52-1.52,0-1.35,1.17-1.37,1.52-1.37h6.25v-2.87h-4.22ZM522.98,34.7c-.95-.67-3.05-2.22-4.55-3.92-.4-.42-.5-.55-.75-.55-.23,0-.38.12-.75.55-1.05,1.12-2.25,2.27-4.52,3.92h10.57Z"/><path class="cls-2" d="M544.04,43.54c-.95,2.55-2.2,4.55-4.45,4.55-2.77,0-5.4-3.7-5.4-8.2,0-6.65,4.95-11.05,11.5-11.05,7.05,0,10.35,5.05,10.35,9.87,0,7.47-6.77,10.45-8.05,10.45-1.07,0-1.65-.92-1.65-1.75,0-.65.27-1,.82-1.25,1.77-.8,5.5-2.52,5.5-7.47,0-1.95-.62-6.12-6-6.85-.4,3.45-1.05,7.55-2.62,11.7ZM537.31,39.97c0,2.45,1.05,4.67,2.17,4.67.77,0,1.27-1.37,1.67-2.45,1.2-3.27,1.87-6.75,2.32-10.22-4.37,1.12-6.17,4.65-6.17,8Z"/><path class="cls-2" d="M455.88,81.04c0,1.9.52,1.92,3.9,1.92,2.1,0,3.17-.02,4.1-.07.35-.03,1.85-.12,2.17-.12.97,0,1.55.5,1.55,1.57,0,1.6-1.35,1.7-1.85,1.75-1.15.07-3.32.12-5.47.12-4.1,0-7.7,0-7.7-4.67v-7.7l-4.25.3c-1.05.08-1.8-.32-1.8-1.67,0-1.12.67-1.5,1.6-1.55l4.45-.25v-4.6c0-.5.05-1.55,1.65-1.55,1.2,0,1.65.55,1.65,1.55v4.4l9.17-.55c.85-.05,2.65-.15,2.65,1.65,0,1.27-1.92,3.75-2.97,5.1-.98,1.22-1.9,2.45-2.87,2.45-.9,0-1.7-.67-1.7-1.47,0-.47.1-.6,1.1-1.75.52-.6,1.82-2.17,1.82-2.55,0-.23-.05-.2-.57-.17l-6.62.45v7.42Z"/><path class="cls-2" d="M480.81,66.72c-.02-.17-.07-.4-.07-.65,0-.97,1.12-1.32,1.82-1.32,1.2,0,1.37.8,1.47,1.37l.57,3.1,5.87-.92c1.7-.27,1.9,1.15,1.9,1.67,0,1.07-.8,1.37-1.42,1.47l-5.77.9.52,2.8,6.95-1.1c.23-.02.38-.05.55-.05.92,0,1.47.7,1.47,1.75,0,.97-.73,1.35-1.42,1.45l-6.95,1.07,1.25,6.62c.05.25.05.47.05.67,0,.95-1.12,1.32-1.88,1.32-1.2,0-1.35-.8-1.45-1.4l-1.25-6.7-8.2,1.27c-.15.03-.27.03-.45.03-.92,0-1.47-.7-1.47-1.7,0-1.12.9-1.4,1.42-1.47l8.12-1.27-.52-2.8-6.02.95c-.12.03-.3.03-.48.03-.87,0-1.45-.68-1.45-1.7s.73-1.38,1.42-1.47l5.95-.92-.55-3Z"/><path class="cls-2" d="M510.66,75.27c.02-.12.02-.4.02-.62,0-.58-.32-.6-.7-.6h-7.2c-.5,0-1.5-.15-1.5-1.45,0-1.12.67-1.47,1.5-1.47h8.82c1.6,0,2.3.85,2.3,2.37,0,.35-.03.7-.08,1.05l-1.15,7.67h3.3c.33,0,1.47,0,1.47,1.45,0,1.25-.82,1.47-1.47,1.47h-15.32c-.32,0-1.47,0-1.47-1.45,0-1.25.8-1.47,1.47-1.47h8.95l1.05-6.95Z"/><path class="cls-2" d="M526.84,77.67c0,.73-.23,1.55-1.67,1.55-1.12,0-1.7-.42-1.7-1.55v-10.75c0-.62.12-1.55,1.67-1.55,1.05,0,1.7.38,1.7,1.55v10.75ZM535.86,66.52c0-.6.12-1.55,1.65-1.55,1.1,0,1.7.42,1.7,1.55v6.85c0,3.62-.33,7.42-3.4,10.2-1.9,1.7-4.92,3.1-5.92,3.1-1.17,0-1.65-1.15-1.65-1.87,0-.8.27-.92,1.82-1.6,4.6-1.97,5.8-5.12,5.8-8.97v-7.7Z"/><path class="cls-2" d="M546.79,75.1c-.35,0-1.65,0-1.65-1.57s1.3-1.6,1.65-1.6h18.75c.35,0,1.65,0,1.65,1.57s-1.27,1.6-1.65,1.6h-7.17c-.12,4.75-1.7,7.15-3.12,8.7-1.47,1.57-4.02,3.02-5,3.02-1.05,0-1.75-1.05-1.75-1.85,0-.75.48-1,1.4-1.47,4.82-2.55,5-6.55,5.07-8.4h-8.17ZM562.66,65.85c.35,0,1.62,0,1.62,1.6s-1.25,1.62-1.62,1.62h-13.07c-.38,0-1.65,0-1.65-1.6s1.25-1.62,1.65-1.62h13.07Z"/><path class="cls-2" d="M582.31,85.84c0,.95-.52,1.4-1.5,1.4s-1.52-.38-1.52-1.4v-8.57c-2.87,1.52-5.77,2.62-6.45,2.62-.87,0-1.37-.87-1.37-1.62,0-.85.42-1,1.77-1.5,4.07-1.47,7.85-3.65,11.2-6.4,1.45-1.17,1.6-1.3,2.05-1.3.77,0,1.55.67,1.55,1.52,0,.52-.27.83-.62,1.12-.52.47-2.22,1.95-5.1,3.8v10.32Z"/><path class="cls-3" d="M673.5,57.59c0,27.2-22.5,49.46-50,49.46h-209c-27.5,0-50-22.26-50-49.46s22.5-49.46,50-49.46h209c27.5,0,50,22.26,50,49.46Z"/><path class="cls-2" d="M75.95,185.34c0,.37,0,1.35-1.4,1.35-1.32,0-1.52-.65-1.52-1.35v-.85c-2.85.5-6.32,1.1-7.3,1.1-.88,0-1.2-.7-1.2-1.5,0-1.1.58-1.15,1.92-1.27v-8.32h-.57c-.4,0-1.27-.02-1.27-1.2s.77-1.27,1.3-1.27h20.94c.92,0,1.32.4,1.32,1.22,0,.72-.25,1.25-1.32,1.25h-10.9v10.85ZM86.07,168.42c0,2.3-.5,2.8-2.8,2.8h-13.75c-2.3,0-2.8-.5-2.8-2.8v-2.05c0-2.27.5-2.8,2.8-2.8h13.75c2.27,0,2.8.48,2.8,2.8v2.05ZM73.02,174.5h-3.75v1.32h3.75v-1.32ZM73.02,177.75h-3.75v1.3h3.75v-1.3ZM69.27,182.52c1.32-.12,2.45-.27,3.75-.47v-1.05h-3.75v1.52ZM82.97,166.6v-.35c0-.38-.2-.6-.6-.6h-11.97c-.35,0-.58.17-.58.6v.35h13.15ZM82.97,168.25h-13.15v.45c0,.42.2.6.58.6h11.97c.33,0,.6-.12.6-.6v-.45ZM77.62,177.87c-.42,0-1.3-.07-1.3-1.15,0-.7.2-1.27,1.3-1.27h7.02c1.08,0,2.35,0,2.35,1.65,0,1.52-1.22,3.7-2.7,5.35.65.4,1.65.87,2.62,1.2.55.17,1.12.38,1.12,1.2s-.65,1.67-1.52,1.67c-.6,0-2.15-.47-4.45-2.1-1.42,1.02-3.47,2.05-4.42,2.05s-1.35-.82-1.35-1.55c0-.85.45-1.05,1.12-1.25.98-.3,1.55-.57,2.45-1.07-.35-.35-.65-.67-1.27-1.5-1.05-1.45-1.05-1.62-1.05-1.9,0-.62.52-1.2,1.4-1.2.67,0,1,.33,1.35.8,1.12,1.52,1.2,1.6,1.77,2.1.97-.97,1.72-2.27,1.72-2.67,0-.32-.23-.35-.7-.35h-5.47Z"/><path class="cls-2" d="M102.8,170.6c.4,0,1.42,0,1.42,1.32s-.82,1.4-1.52,1.4h-2.87v1.72h2.6c.62,0,1.52.12,1.52,1.35,0,1.05-.62,1.35-1.52,1.35h-2.07c1,1.27,1.82,2,1.97,2.12.87.77,1.12,1,1.12,1.5,0,.65-.6,1.55-1.45,1.55-.5,0-1.05-.45-2.17-2.1v4.32c0,.42-.02,1.52-1.32,1.52-.95,0-1.5-.32-1.5-1.52v-3.75c-.48.6-1.35,1.62-2.07,2.3-.52.5-.85.73-1.3.73-.92,0-1.6-.83-1.6-1.7,0-.67.15-.8,1.57-1.9,1.6-1.25,2.5-2.45,2.95-3.07h-2.65c-.6,0-1.5-.1-1.5-1.32,0-.98.55-1.38,1.5-1.38h3.1v-1.72h-3.35c-.6,0-1.52,0-1.52-1.3s.75-1.42,1.5-1.42h1.25c-.12-.85-.42-2.32-.55-2.92h-.58c-.72,0-1.17-.42-1.17-1.25,0-1.17.52-1.48,1.4-1.48h3.02v-.8c0-.87.65-1.2,1.37-1.2.57,0,1.52.1,1.52,1.2v.8h2.82c.38,0,1.42,0,1.42,1.35,0,.5-.1,1.37-1.15,1.37h-.55c-.12.72-.2,1.02-.6,2.92h.95ZM99.22,170.6c.28-1.3.3-1.37.5-2.92h-2.72c.23,1.17.32,1.85.5,2.92h1.72ZM113.25,173.55v11.6c0,1.22-.58,1.5-1.62,1.5-1.2,0-1.35-.85-1.35-1.5v-11.6h-2.67v1.45c0,4.72-1.1,8.02-2.02,9.7-.77,1.37-1.17,1.65-1.9,1.65-.92,0-1.7-.67-1.7-1.5,0-.38.12-.62.52-1.22,1.72-2.52,2.17-5.62,2.17-8.7v-7.67c0-1.35,0-2.15,1.12-2.57.6-.22,3.77-.52,4.47-.62.58-.1,3.35-.7,3.6-.7.88,0,1.45.77,1.45,1.65,0,.62-.3,1.17-1.1,1.4-1.52.45-3.6.65-5,.8-1.48.15-1.62.2-1.62,1.23v2.1h6.67c1.23,0,1.55.55,1.55,1.6,0,1.23-.8,1.42-1.55,1.42h-1.02Z"/><path class="cls-2" d="M124.55,179.57l-1.2,3.42c-.42,1.22-.62,1.75-1.8,1.75-.7,0-2.02-.35-2.02-1.45,0-.4.18-.82.4-1.42l5.8-15.4c.48-1.22.92-2.47,2.97-2.47s2.47,1.3,2.92,2.47l5.8,15.4c.3.77.4,1.08.4,1.42,0,1.1-1.27,1.45-2.05,1.45-1.15,0-1.35-.55-1.77-1.75l-1.2-3.42h-8.25ZM131.72,176.55l-3.05-8.65-3.05,8.65h6.1Z"/><path class="cls-2" d="M143.3,165.67c0-1.15.6-1.67,1.77-1.67.97,0,1.82.33,1.82,1.67v17.4c0,1.12-.6,1.67-1.77,1.67-.98,0-1.82-.3-1.82-1.67v-17.4Z"/><path class="cls-2" d="M158.02,171.82c.3.5.45.75.8,1.15-.02-.12-.05-.23-.05-.35,0-.77.47-.85.75-.87,1.22-1.57,1.35-1.75,1.9-2.47-.45-.5-.52-.55-1.8-1.67-.25-.22-.52-.47-.52-.97,0-.4.35-1.37,1.2-1.37.05,0,.12.02.3.07.3-.45.82-1.17,1.22-1.77.15-.23.33-.45.75-.45.72,0,1.3.57,1.3,1.02,0,.5-1.17,1.95-1.65,2.55.2.2.38.35.62.65.3-.42.77-1.1,1.1-1.52.2-.27.38-.45.73-.45.4,0,.75.2,1.02.47,0-.75-.02-1.87.1-2.2.1-.28.33-.7,1.22-.7.6,0,1.25.23,1.38.88.02.17.05,1.77.05,2.1.1-.23.4-.77,1.02-.77.15,0,.25.05.35.07.15-.22.9-1.42,1.07-1.7.12-.18.33-.43.77-.43.65,0,1.27.52,1.27,1.02,0,.23-.1.4-.15.5-.27.47-.92,1.42-1.42,2.1.32.37.42.5.6.7.38-.5.92-1.32,1.3-1.82.15-.17.35-.32.65-.32.7,0,1.37.7,1.37,1.2,0,.4-.57,1.1-.97,1.6-.82,1-2.12,2.5-2.6,2.97.5-.02,1.37-.1,1.67-.12-.05-.2-.17-.65-.17-.85,0-.58.6-.88,1.1-.88.6,0,.75.35.9.82.47,1.42.65,2.57.65,2.85,0,.7-.67.97-1.1.97-.75,0-.85-.55-.95-.92-.67.1-.85.1-1.5.17.77.83,1.07,1.15,1.07,1.55,0,.05,0,.1-.02.17h1.15c1.05,0,1.5.45,1.5,1.3,0,1-.65,1.3-1.5,1.3h-4.95c.12.62.3,1.37.68,2.45.2-.22,1.07-1.37,1.27-1.62.23-.27.45-.55.9-.55.77,0,1.45.72,1.45,1.3,0,.77-1.8,2.72-2.47,3.35.48.75,1.05,1.22,1.42,1.22.42,0,.55-.27.85-.92.45-1,.52-1.15,1.15-1.15.97,0,1.4.7,1.4,1.27,0,.7-.97,3.9-3.4,3.9-1.3,0-2.5-.77-3.57-2.5-1.7,1.17-3.8,2.2-4.45,2.2-.7,0-1.38-.77-1.38-1.57,0-.67.5-.9.9-1.07,1.6-.65,2.52-1.12,3.7-1.92-.67-1.65-1.15-3.6-1.3-4.37h-3.52c0,.3-.03.45-.05,1.12.8.33,1.42.6,2.12,1,1.05.57,1.22.7,1.22,1.35,0,.52-.25,1.47-1.1,1.47-.32,0-.42-.05-1.25-.55-.25-.15-.7-.4-1.17-.62-.12.95-.5,2.7-1.07,3.92-.4.87-.85,1.42-1.62,1.42-.73,0-1.55-.52-1.55-1.27,0-.38.8-2.07.95-2.47.48-1.37.77-3.42.77-5.37-1.15-.1-1.25-.75-1.27-1.12-.12.08-.2.12-.32.12-.4,0-.6-.25-.82-.55v9.32c0,.77-.15,1.52-1.42,1.52s-1.27-1.15-1.27-1.52v-7.15c-.65,2-1.1,2.37-1.72,2.37-.8,0-1.4-.9-1.4-1.6,0-.2.05-.42.23-.77,1.07-2.02,2.32-4.4,2.9-7.5h-1.25c-1.1,0-1.47-.55-1.47-1.45,0-1.15.85-1.35,1.47-1.35h1.25v-3.25c0-.75.12-1.5,1.42-1.5s1.27,1.05,1.27,1.5v3.25h.7c.82,0,1.37.42,1.37,1.42,0,1.15-.8,1.37-1.37,1.37h-.7v1.3ZM166.27,174.8c-.4-2.75-.5-6.15-.52-7.6-.52.8-2.1,2.9-3.57,4.47.25,0,1.37-.08,1.6-.08-.23-.8-.25-.9-.25-1.1,0-.55.48-.77.85-.77.6,0,.75.48.85.75.17.57.72,2.32.72,2.67,0,.55-.25.92-.92.92-.6,0-.7-.45-.77-.7-.85.1-4.05.5-4.62.42.38.45.38.8.32,1.1.18-.05.33-.1.7-.1h5.62ZM168.97,171.17c.65-.77,1.32-1.62,1.57-1.92-.35-.42-.45-.52-1.55-1.62-.3-.3-.38-.4-.5-.6.05,1.4.12,2.77.2,4.17.12,0,.15,0,.27-.02ZM171.17,174.8c-.1-.15-.72-.87-.82-1.05-.12-.27-.12-.35-.1-.47-.05,0-.88.08-1.35.1.08.77.12,1.1.18,1.42h2.1Z"/><path class="cls-2" d="M182.65,164.67c.55-1.37.67-1.72,1.6-1.72.82,0,1.6.45,1.6,1.15,0,.42-.17.75-.75,1.8-.35.67-.6,1.12-.77,1.42,1.75-.1,1.95-.12,3.72-.25-.85-1.45-.88-1.5-.88-1.9,0-.7.75-1.15,1.42-1.15s1,.4,1.85,1.82c1.67,2.8,1.72,3.07,1.72,3.45,0,.75-.8,1.37-1.55,1.37s-.97-.45-1.42-1.37c-4.02.55-7.75.82-8.1.82-1.1,0-1.22-.9-1.22-1.42,0-1.23.77-1.25,1.6-1.27.72-1.62,1-2.3,1.17-2.75ZM183.97,181.27v3.87c0,.45-.02,1.52-1.37,1.52-1.05,0-1.57-.37-1.57-1.52v-11.2c0-2.27.48-2.8,2.8-2.8h4.35c2.3,0,2.8.5,2.8,2.8v9.72c0,2.4-.6,2.82-3.02,2.82-.42,0-1.27,0-1.65-.1-.67-.2-.75-1.1-.75-1.37,0-1.3.8-1.3,1.57-1.3.62,0,.97,0,.97-.67v-1.77h-4.12ZM183.97,175.2h4.12v-.9c0-.38-.17-.6-.6-.6h-2.92c-.42,0-.6.23-.6.6v.9ZM188.1,177.37h-4.12v1.6h4.12v-1.6ZM195.85,170.55c0,.9.45.9,1.62.9.4,0,2.15,0,2.37-.05.48-.12.52-.4.7-1.6.15-1,.25-1.57,1.4-1.57.2,0,1.62,0,1.62,1.32,0,.57-.25,2.92-.9,3.82-.6.8-1.12.8-4.35.8-2.72,0-2.92-.02-3.3-.05-2.22-.15-2.27-2-2.27-2.67v-6.95c0-.52.08-1.52,1.45-1.52,1.12,0,1.65.35,1.65,1.52v1.6c1.4-.4,3.17-1.17,3.75-1.45,1.45-.72,1.52-.77,1.88-.77.7,0,1.35.75,1.35,1.55s-.52,1.12-1.95,1.67c-2.32.87-4.1,1.32-5.02,1.55v1.9ZM195.85,182.62c0,.92.48.92,1.52.92h.77c1.65,0,1.72-.02,1.9-.17.22-.18.27-.5.42-1.75.12-.88.23-1.6,1.42-1.6.15,0,1.62,0,1.62,1.3,0,.1-.15,3.32-.97,4.27-.6.7-1.4.77-4.5.77-3.4,0-3.77-.12-4.22-.4-1-.57-1.05-1.52-1.05-2.42v-7.5c0-.55.08-1.52,1.42-1.52,1,0,1.65.27,1.65,1.5v1.7c1.17-.42,2.65-.92,3.7-1.55,1.27-.75,1.42-.85,1.82-.85.87,0,1.42.98,1.42,1.6s-.27.95-2.05,1.72c-.6.25-2.22.95-4.9,1.72v2.25Z"/><path class="cls-2" d="M212.87,183.77c0,1.92-.25,2.8-2.82,2.8-.92,0-1.32-.03-1.67-.15-.7-.27-.92-1.02-.92-1.6,0-1.35.95-1.35,1.5-1.35.75,0,1.02,0,1.02-.72v-4.17c-.88.2-1.22.22-1.35.22-.92,0-1.32-.82-1.32-1.6,0-.82.45-1.15.62-1.22.4-.2,1.35-.38,2.05-.52v-5.02h-1.1c-.42,0-1.47-.03-1.47-1.45,0-1.32.82-1.5,1.47-1.5h1.1v-3.05c0-.4,0-1.35,1.42-1.35s1.47.83,1.47,1.35v3.05h.9c.35,0,1.27.03,1.27,1.38s-.5,1.57-1.27,1.57h-.9v4.27c.72-.25.9-.27,1.07-.27.95,0,1.15.97,1.15,1.55,0,.92-.32,1.17-2.22,1.77v6.02ZM218.82,176.15c-.37,0-1.32,0-1.32-1.22,0-.25.03-.35.05-.47-.23.1-1.27.62-1.8.62-1.1,0-1.32-1.22-1.32-1.55,0-.8.25-.88,2.3-1.8,1.47-.65,2.72-1.7,4.15-2.87.38-.33.75-.58,1.62-.58,1.05,0,1.5.35,2,.73,1.35,1.05,2.62,2.05,4.27,2.75,2.05.87,2.3.97,2.3,1.72,0,.2-.12,1.67-1.4,1.67-.62,0-1.75-.6-2.12-.8.02.12.07.27.07.52,0,1.1-.65,1.27-1.3,1.27h-7.5ZM224.7,164.75v-.67c0-.9.73-1.1,1.32-1.1.75,0,1.52.15,1.52,1.1v.67h2.15c.38,0,1.32.02,1.32,1.3s-.82,1.3-1.32,1.3h-2.15v.73c0,.8-.58,1.07-1.32,1.07-.97,0-1.52-.25-1.52-1.1v-.7h-4.37v.7c0,.72-.45,1.1-1.32,1.1-1.02,0-1.5-.3-1.5-1.1v-.7h-1.62c-.38,0-1.32,0-1.32-1.27s.9-1.32,1.32-1.32h1.62v-.65c0-.87.65-1.12,1.3-1.12.77,0,1.52.15,1.52,1.12v.65h4.37ZM229.35,183.49c0,2.15-.97,2.7-2.72,2.7h-8.17c-1.72,0-2.72-.55-2.72-2.7v-3.02c0-2.05.9-2.7,2.72-2.7h8.17c1.82,0,2.72.65,2.72,2.7v3.02ZM226.25,180.87c0-.45-.25-.73-.72-.73h-6.02c-.52,0-.72.3-.72.73v2.02c0,.48.25.73.72.73h6.02c.45,0,.72-.25.72-.73v-2.02ZM226.32,173.65c-1.27-.8-2.4-1.75-2.85-2.15-.12-.12-.7-.83-.9-.83-.12,0-.23.15-.45.38-.47.55-1.85,1.75-3.17,2.6h7.37Z"/><path class="cls-2" d="M243.72,184.17v1.22c0,.45-.05,1.3-1.42,1.3-1.2,0-1.42-.58-1.42-1.3v-1.22h-4.62c-.27,0-1.27-.03-1.27-1.12,0-.95.73-1.12,1.27-1.12h4.62v-.82h-2.65c-1.95,0-2.4-.45-2.4-2.4v-1.97c0-1.92.42-2.37,2.4-2.37h2.65v-.8h-4.45c-.38,0-1.2-.02-1.2-1.12,0-.88.5-1.12,1.2-1.12h4.45c0-.2.05-.75.75-.92h-5.4c-.33,0-1.3-.02-1.3-1.17,0-1.05.75-1.2,1.3-1.2h4.62v-.97h-3.7c-.38,0-1.3,0-1.3-1.1s.75-1.2,1.27-1.2h3.72v-.62c0-.8.55-1.1,1.32-1.1.82,0,1.55.15,1.55,1.07v.65h3.85c.27,0,1.27,0,1.27,1.15,0,1.08-.82,1.15-1.27,1.15h-3.85v.97h6.05c-.02-.9-.05-2.2-.05-2.72,0-1.45,0-2.22,1.45-2.22s1.47.9,1.47,1.4v3.55h4.65c.27,0,1.3,0,1.3,1.17,0,1-.67,1.2-1.3,1.2h-4.62c.08,3.65.23,4.85.52,6.92.92-1.82,1.12-2.42,1.85-4.62.22-.72.47-1.1,1.25-1.1.7,0,1.55.4,1.55,1.17,0,.7-1.47,5.25-3.72,8.57.35,1.05.92,1.77,1.45,1.77.57,0,.8-1.25.85-1.52.1-.55.2-1.17,1.02-1.17.15,0,1.4,0,1.4,1.25,0,.72-.52,2.55-1.15,3.57-.83,1.35-1.97,1.35-2.3,1.35-1.55,0-2.6-1.1-3.32-2.72-.57.65-1.3,1.4-2.17,2.15-.47.38-.8.48-1.12.48-.77,0-1.6-.77-1.6-1.7,0-.32.1-.5.2-.6h-3.65ZM240.87,176.95v-1h-2.02c-.32,0-.5.17-.5.5v.5h2.52ZM240.87,178.37h-2.52v.5c0,.3.15.5.5.5h2.02v-1ZM248,181.92c.32,0,.9,0,1.2.62.65-.57,1.27-1.2,1.8-1.87-1-4.45-1.1-7.8-1.15-10.3h-6.92c.72.17.77.73.77.92h4.35c.73,0,1.23.27,1.23,1.12,0,1.05-.77,1.12-1.23,1.12h-4.32v.8h2.45c1.97,0,2.4.45,2.4,2.37v1.97c0,1.95-.45,2.4-2.4,2.4h-2.45v.82h4.27ZM243.65,176.95h2.52v-.5c0-.3-.12-.5-.47-.5h-2.05v1ZM243.65,178.37v1h2.05c.32,0,.47-.18.47-.5v-.5h-2.52ZM256.7,164.4c.45.45,1.17,1.15,1.17,1.67,0,.7-.7,1.42-1.45,1.42-.42,0-.52-.1-1.4-1.05-.18-.2-1.02-1.05-1.17-1.22-.2-.2-.33-.43-.33-.73,0-.65.7-1.27,1.4-1.27.25,0,.57,0,1.77,1.17Z"/><path class="cls-2" d="M115.82,203.4c1.35,0,2.9,0,2.9,1.72,0,1.15-1.23,2.7-2.95,4.9-.67.85-2.45,3.07-5.55,6.45.55.58,1.4,1.42,1.65,1.7,1.07,1.17,1.15,1.52,1.15,1.92,0,.9-.95,1.75-1.82,1.75-.72,0-1.05-.35-1.72-1.12-1.57-1.77-3.42-3.65-5.95-5.8-1.62-1.37-1.8-1.52-1.8-2.15,0-.85.8-1.62,1.77-1.62.5,0,.8.15,1.82.97.77.6,1.8,1.5,2.57,2.17,3.25-3.45,6.02-7.05,6.02-7.45,0-.2-.18-.2-.58-.2h-14.2c-1.05,0-1.65-.55-1.65-1.65,0-1.3.88-1.6,1.65-1.6h16.67Z"/><path class="cls-2" d="M125.47,207c.45,0,.7,0,3.97,1.3,1.77.7,2.57,1.02,2.57,2.15,0,.75-.52,1.75-1.5,1.75-.2,0-.4,0-.92-.22-1.92-.82-2.22-.95-3.77-1.5-.9-.32-1.85-.67-1.85-1.8,0-.25.12-1.67,1.5-1.67ZM125.4,220.62c0-1.12,1.12-1.45,2.07-1.75.57-.17,4.47-1.37,8.7-4.87,2.87-2.37,3.97-3.9,5.65-6.25.6-.82,1.02-.85,1.37-.85,1.07,0,1.82.92,1.82,1.62,0,1.02-3.17,5.47-7.57,8.9-4.87,3.82-9.7,5.17-10.32,5.17-1.27,0-1.72-1.27-1.72-1.97ZM127.65,201.25c.83,0,3.17.98,4.17,1.38,1.4.57,2.22.92,2.22,2,0,.77-.55,1.72-1.5,1.72-.2,0-.42-.03-.92-.25-2.02-.88-2.25-.98-3.97-1.62-.62-.22-1.5-.57-1.5-1.6,0-.35.23-1.62,1.5-1.62Z"/><path class="cls-2" d="M170.72,208.92c0,1.1-3.37,5.72-8.05,8.97-4.57,3.2-9.27,4.4-10.2,4.4-1.15,0-1.8-.97-1.8-1.97,0-1.2.6-1.35,2.15-1.72,5.65-1.42,10.55-4.9,13.97-9.62,1.17-1.6,1.3-1.8,2.02-1.8s1.9.75,1.9,1.75ZM156.05,203.8c3.15,1.42,3.32,1.92,3.32,2.67,0,1-.77,1.87-1.65,1.87-.45,0-.85-.22-1.4-.52-1.37-.8-2.25-1.17-4.05-1.95-.9-.4-1.55-.67-1.55-1.57,0-.8.62-1.77,1.72-1.77.77,0,3.15,1.07,3.6,1.27Z"/><path class="cls-2" d="M191.12,219.49c0,.92.25.92,2.25.92.55,0,1.4-.02,1.6-.1.35-.15.38-.27.5-2.2.02-.5.1-1.4,1.4-1.4,1.6,0,1.6,1.12,1.6,1.7,0,2.87-.48,3.97-1.17,4.42-.58.35-.62.4-4.35.4-2.72,0-3.3-.02-3.95-.45-.97-.65-.97-1.85-.97-2.47v-6.15h-3.27c-.18,3.2-1.42,5.82-3.5,7.37-1.87,1.42-3.97,1.95-4.57,1.95-1.17,0-1.57-1.17-1.57-1.8,0-.45.33-1.07.88-1.23,3.15-.85,5.32-2.17,5.72-6.3h-5.22c-.35,0-1.52,0-1.52-1.35,0-1.07.45-1.5,1.52-1.5h20.5c.38,0,1.52,0,1.52,1.35,0,1.02-.45,1.5-1.52,1.5h-5.85v5.32ZM195.05,202.1c1.87,0,2.9.6,2.9,2.9v2.37c0,.62-.12,1.52-1.45,1.52-1.15,0-1.7-.33-1.7-1.52v-1.67c0-.55-.25-.88-.85-.88h-14.47c-.57,0-.85.32-.85.88v1.67c0,.58-.12,1.52-1.42,1.52-1.22,0-1.7-.4-1.7-1.52v-2.37c0-2.05.77-2.9,2.87-2.9h6.72v-.8c0-.9.55-1.27,1.47-1.27s1.72.17,1.72,1.27v.8h6.75ZM193.25,206.7c1,0,1.47.48,1.47,1.35,0,1-.55,1.4-1.47,1.4h-13.07c-.52,0-1.47-.1-1.47-1.38,0-.77.35-1.37,1.47-1.37h13.07Z"/><path class="cls-2" d="M207.12,222.37c0,.45-.02,1.35-1.4,1.35s-1.42-.77-1.42-1.35v-10.02c-.12.1-.33.28-.72.28-.88,0-1.42-.95-1.42-1.82,0-.62.02-.67,1.22-2.7.57-1,1.57-3.4,2-5.3.45-1.95.5-2.17.7-2.42.25-.3.67-.33.92-.33s1.45.05,1.45,1.25c0,.65-.52,3.02-1.32,5.35v15.72ZM218.85,201.97v-.85c0-.7.35-1.17,1.37-1.17,1.07,0,1.6.27,1.6,1.17v.85h2.27c.33,0,1.3,0,1.3,1.2,0,1.07-.7,1.25-1.3,1.25h-2.27v1.65h2.9c.45,0,1.3.05,1.3,1.23,0,1.05-.65,1.22-1.3,1.22h-13v4.57c0,1.1-.03,4.95-1.1,8.2-.47,1.45-.65,1.92-1.5,1.92-.55,0-1.62-.25-1.62-1.2,0-.32.05-.5.2-.95.83-2.65,1.35-4.32,1.35-7.85v-4.7h-.5c-.45,0-.88-.38-.88-1.17,0-1.25.85-1.27,1.35-1.27h3.2v-1.65h-2.25c-.3,0-1.3,0-1.3-1.22,0-1.1.77-1.22,1.3-1.22h2.25v-.83c0-.65.27-1.2,1.38-1.2s1.62.3,1.62,1.17v.85h3.62ZM215.07,222.39c0,.38,0,1.3-1.25,1.3s-1.3-.77-1.3-1.3v-10.15c0-2.15,1-2.7,2.72-2.7h7.05c1.7,0,2.72.52,2.72,2.7v8.82c0,2.4-.97,2.4-2.85,2.4-.72,0-1.72,0-1.72-1.27,0-.97.5-1.2,1.02-1.2.35,0,.8,0,.8-.72v-1.42h-2.4v3.3c0,.32,0,1.3-1.22,1.3s-1.25-.95-1.25-1.3v-3.3h-2.32v3.55ZM217.4,213.22v-1.52h-1.6c-.3,0-.72,0-.72.6v.92h2.32ZM217.4,215.27h-2.32v1.57h2.32v-1.57ZM218.85,204.42h-3.62v1.65h3.62v-1.65ZM219.87,213.22h2.37v-.92c0-.42-.2-.6-.6-.6h-1.77v1.52ZM219.87,215.27v1.57h2.37v-1.57h-2.37Z"/><path class="cls-3" d="M317.5,193.59c0,27.2-22.5,49.46-50,49.46H58.5c-27.5,0-50-22.26-50-49.46s22.5-49.46,50-49.46h209c27.5,0,50,22.26,50,49.46Z"/><path class="cls-2" d="M479.92,171.67c-.47,0-1.6-.02-1.6-1.45,0-1.12.4-1.62,1.6-1.62h4.52c1.7,0,2.87.07,2.87,2.3,0,.35-.12,6.8-5.02,12-1.25,1.32-1.8,1.57-2.35,1.57-.9,0-1.75-.95-1.75-1.87,0-.62.03-.65,2.05-2.47.82-.75,2.55-2.32,3.82-6.87.15-.52.22-.92.22-1.12,0-.27-.12-.45-.62-.45h-3.75ZM491.72,166c.12,1,.38,3.1,1.6,5.9,1.4-1.15,3.27-2.62,4.75-4.55.45-.6.85-1.05,1.52-1.05.82,0,1.8.87,1.8,1.77,0,.65-.37,1.1-1.92,2.57-2.25,2.17-3.77,3.25-4.75,3.95,1.67,2.87,4.02,4.6,6.5,6.57.42.33.77.7.77,1.35,0,1.07-.88,1.97-1.82,1.97-1.07,0-3.05-1.97-4.07-3.07-1.85-2-3.45-4.22-4.37-6.77v8.95c0,.5,0,1.85-.97,2.47-.67.42-1.47.42-3.7.42-1.5,0-1.95.02-2.32-.1-.87-.27-.95-1.2-.95-1.6,0-1.37.95-1.55,1.6-1.55.15,0,1.67.05,2,.05.42,0,1.17,0,1.17-.87v-17.85c0-1.2.52-1.52,1.7-1.52,1.37,0,1.47.95,1.47,1.52v1.42Z"/><path class="cls-2" d="M519.1,185.24c0,.57-.08,1.52-1.45,1.52-1.15,0-1.7-.35-1.7-1.52v-4.9c-2.65.1-6.15.23-8.8.23-.37,0-1.35,0-1.35-1.45,0-.73.38-1.07.88-1.17.27-.05.45-.05,2.07-.05h4.62c-1.4-.77-2.52-1.3-3.72-1.87-.47-.23-.75-.52-.75-1,0-.6.62-1.35,1.4-1.35.48,0,.77.15,2.07.77.72-.58,1.05-.88,1.47-1.27h-6.8c-.35,0-1.32,0-1.32-1.17s.95-1.22,1.32-1.22h8.97v-.95h-7.27c-.35,0-1.15-.02-1.15-1.05,0-.9.6-1.05,1.15-1.05h7.27v-.92h-8.3c-.3,0-1.3,0-1.3-1.17,0-1.1.8-1.2,1.3-1.2h8.3v-.52c0-.77.62-1,1.4-1,1.17,0,1.72.23,1.72,1v.52h8.37c.33,0,1.32.02,1.32,1.17,0,.98-.67,1.2-1.32,1.2h-8.37v.92h7.32c.3,0,1.15,0,1.15,1.05,0,.82-.5,1.05-1.15,1.05h-7.32v.95h9.02c.38,0,1.3,0,1.3,1.2s-.82,1.2-1.3,1.2h-10.55c-.62.62-1.72,1.62-2.87,2.5.62.32,1.07.62,1.67,1,1.17-.9,2.1-1.7,3.52-2.97.4-.35.67-.5,1.12-.5.72,0,1.57.5,1.57,1.17,0,.33-.05.67-1.32,1.7-.67.55-1.77,1.3-2.32,1.67,2.42-.07,2.67-.1,5.07-.25-.67-.75-.9-1.02-.9-1.52,0-.77.92-1.37,1.6-1.37.5,0,.9.12,2.7,2.37.6.72,1.65,2.07,1.65,2.77,0,.75-.75,1.45-1.6,1.45-.67,0-.87-.3-1.7-1.45-3.22.22-4.25.3-6.72.42v5.07ZM513.62,182.17c0,.45-.1.87-2.35,2.42-.97.65-2.47,1.65-3.37,1.65-1.02,0-1.35-1.02-1.35-1.57,0-.77.47-1.02,1.12-1.32,1.35-.62,2.52-1.52,2.75-1.7.77-.62,1.17-.92,1.8-.92.92,0,1.4.87,1.4,1.45ZM524.8,181.64c.85.67,2.15,1.4,3.1,1.92.57.3.72.65.72,1.02,0,.65-.57,1.67-1.45,1.67-.92,0-2.75-1.32-3.75-2.07-1.95-1.5-1.95-1.75-1.95-2.17,0-.75.57-1.47,1.45-1.47.5,0,.62.1,1.87,1.1Z"/><path class="cls-2" d="M534.92,171.67c-.47,0-1.6-.02-1.6-1.45,0-1.12.4-1.62,1.6-1.62h4.52c1.7,0,2.87.07,2.87,2.3,0,.35-.12,6.8-5.02,12-1.25,1.32-1.8,1.57-2.35,1.57-.9,0-1.75-.95-1.75-1.87,0-.62.03-.65,2.05-2.47.82-.75,2.55-2.32,3.82-6.87.15-.52.22-.92.22-1.12,0-.27-.12-.45-.62-.45h-3.75ZM546.72,166c.12,1,.38,3.1,1.6,5.9,1.4-1.15,3.27-2.62,4.75-4.55.45-.6.85-1.05,1.52-1.05.82,0,1.8.87,1.8,1.77,0,.65-.37,1.1-1.92,2.57-2.25,2.17-3.77,3.25-4.75,3.95,1.67,2.87,4.02,4.6,6.5,6.57.42.33.77.7.77,1.35,0,1.07-.88,1.97-1.82,1.97-1.07,0-3.05-1.97-4.07-3.07-1.85-2-3.45-4.22-4.37-6.77v8.95c0,.5,0,1.85-.97,2.47-.67.42-1.47.42-3.7.42-1.5,0-1.95.02-2.32-.1-.87-.27-.95-1.2-.95-1.6,0-1.37.95-1.55,1.6-1.55.15,0,1.67.05,2,.05.42,0,1.17,0,1.17-.87v-17.85c0-1.2.52-1.52,1.7-1.52,1.37,0,1.47.95,1.47,1.52v1.42Z"/><path class="cls-2" d="M458.6,201.85c.45,0,1.5.05,1.5,1.32,0,.77-.22,1.47-1.45,1.47h-.8v3.02h1.5c.6,0,1.5.1,1.5,1.32,0,.98-.32,1.5-1.5,1.5h-1.5v3.22h.95c.77,0,1.45.32,1.45,1.32s-.43,1.45-1.5,1.45h-19.54c-.42,0-1.52,0-1.52-1.38,0-1.25.85-1.4,1.52-1.4h1.8v-3.22h-2.37c-.4,0-1.52,0-1.52-1.32,0-.98.35-1.5,1.52-1.5h2.42v-2.2c-.58.55-1.67,1.6-2.47,1.6-.88,0-1.5-.88-1.5-1.62,0-.6.1-.67,1.7-1.92,1.12-.87,1.87-1.82,2.72-2.92.35-.45.72-.65,1.2-.65.7,0,1.62.5,1.62,1.25,0,.3-.12.47-.23.65h14.5ZM442.47,218.22c0,.92-1.22,3.1-1.32,3.27-.92,1.6-1.27,1.97-2.07,1.97-.88,0-1.8-.6-1.8-1.52,0-.42.02-.45.95-1.75.5-.67.83-1.4,1.35-2.5.15-.3.4-.77,1.22-.77.47,0,1.67.22,1.67,1.3ZM445.87,204.65h-2.1v3.02h2.1v-3.02ZM445.87,210.5h-2.1v3.22h2.1v-3.22ZM447.55,218.24c.1.8.18,2.4.18,3.45,0,.82,0,1.8-1.62,1.8-1.17,0-1.57-.52-1.57-1.42,0-.25.02-1.4.02-1.62,0-.32-.05-1.75-.05-2.05,0-.38.03-1.35,1.5-1.35,1.07,0,1.47.45,1.55,1.2ZM450.45,204.65h-2.12v3.02h2.12v-3.02ZM450.45,210.5h-2.12v3.22h2.12v-3.22ZM453.32,219.24c.22.7.7,2.15.7,2.8,0,1.15-1.4,1.3-1.85,1.3-1.22,0-1.32-.57-1.57-2-.1-.52-.35-1.57-.57-2.35-.08-.3-.17-.57-.17-.85,0-.82.85-1.15,1.65-1.15,1.07,0,1.17.3,1.82,2.25ZM455.05,204.65h-2.15v3.02h2.15v-3.02ZM455.05,210.5h-2.15v3.22h2.15v-3.22ZM458.92,218.32c1.2,1.87,1.82,2.92,1.82,3.52,0,1.15-1.37,1.52-1.92,1.52-.85,0-1.02-.35-1.65-1.65-.25-.52-.92-1.7-1.3-2.4-.23-.38-.42-.75-.42-1.12,0-1.05,1.25-1.32,1.6-1.32.95,0,1.02.1,1.87,1.45Z"/><path class="cls-2" d="M469,216.04c-.17.38-.55,1.1-1,1.8-.87,1.42-1.35,1.57-1.77,1.57-.8,0-1.57-.85-1.57-1.77,0-.55.1-.65,1.3-2.1.27-.32,1.82-2.27,3.05-4.87h-2.65c-1.1,0-1.55-.48-1.55-1.5,0-1.32,1.2-1.32,1.55-1.32h2.65v-6.35c0-1.12.5-1.52,1.57-1.52,1.37,0,1.4,1.1,1.4,1.52v6.35h2.32c.85,0,1.52.27,1.52,1.42,0,1.32-1,1.4-1.52,1.4h-2.32c.45.9,1.77,2.62,2.15,3.05,1.17,1.32,1.27,1.45,1.27,1.9,0,.7-.7,1.47-1.42,1.47-.65,0-1.1-.6-2-2.2v7.32c0,1.1-.47,1.52-1.55,1.52-1.42,0-1.42-1.15-1.42-1.52v-6.17ZM467.52,202.5c.42,1.22.87,2.87.87,3.35,0,1.1-1.42,1.12-1.57,1.12-.75,0-.85-.42-1.1-1.47-.15-.62-.57-2-.72-2.45-.08-.27-.12-.5-.12-.67,0-.73.82-1.07,1.47-1.07.7,0,.9.42,1.17,1.2ZM476.15,202.45c0,.52-.48,2.25-.85,3.27-.4,1.05-.67,1.3-1.22,1.3-.48,0-1.5-.28-1.5-1.15,0-.17.05-.38.45-1.6.17-.57.27-.82.52-1.92.1-.38.25-1.02,1-1.02,1.2,0,1.6.62,1.6,1.12ZM486.77,213.17c.1-.03.25-.03.4-.03,1.1,0,1.27,1.12,1.27,1.77,0,.6-.18,1.1-1.2,1.27l-1.17.2v5.75c0,.75-.2,1.55-1.47,1.55s-1.75-.35-1.75-1.55v-5.12l-5.92,1.15c-1.1.23-1.65-.6-1.65-1.6s.52-1.25,1.12-1.37l6.45-1.25v-12.5c0-.73.2-1.52,1.47-1.52s1.75.33,1.75,1.52v11.85l.7-.12ZM479.92,209.05c1.45,1.17,1.75,1.47,1.75,2.05,0,.85-.85,1.7-1.62,1.7-.42,0-.5-.05-1.65-1.07-.25-.25-1.5-1.25-1.72-1.47-.3-.3-.4-.52-.4-.85,0-.85.7-1.6,1.48-1.6.62,0,1.47.67,2.17,1.25ZM481.02,202.87c1.1.95,1.3,1.17,1.3,1.8,0,.82-.7,1.6-1.52,1.6-.47,0-.52-.02-1.67-1.1-.23-.23-1.37-1.22-1.6-1.42-.27-.25-.4-.55-.4-.9,0-.85.72-1.47,1.42-1.47s1.67.82,2.47,1.5Z"/><path class="cls-2" d="M507.37,209.1c0-.92.42-1.42,1.35-1.42.97,0,1.55.28,1.55,1.42v1.55c0,3.22,1.35,7.07,4.27,9.67.77.67,1.05.98,1.05,1.6,0,.8-.7,1.62-1.57,1.62-.52,0-1.22-.1-2.67-2.02-1.57-2.07-2.15-4.12-2.4-5.05-.52,1.72-1.15,3.35-2.17,4.82-.4.55-1.65,2.25-2.77,2.25-.62,0-1.22-.35-1.57-1.05-.12.02-.25.05-.42.05-.92,0-1.2-.72-1.45-1.47-.97.32-6.27,2.02-7.02,2.02-.83,0-1.27-.75-1.27-1.47,0-1.05.77-1.22,1.47-1.4v-10.35c0-1.75.27-2.05.67-2.37-.12.08-.38.2-.75.2-.9,0-1.45-.92-1.45-1.52s.27-.9,1.52-1.82c1.25-.92,2.3-2.3,3.15-3.4.42-.52.85-.88,1.85-.88,1.15,0,1.42.3,2.72,1.7.2.23.95,1.02,1.67,1.55.85.65,1.12.85,1.12,1.52,0,.92-.67,1.57-1.45,1.57-1.02,0-2.52-1.72-3.35-2.8-.5-.65-.57-.72-.7-.72-.15,0-.23.1-.4.37-1.02,1.57-2.7,3.35-3.72,4.07.52-.27,1.5-.27,1.9-.27h.85v-.85c0-.67.2-1.5,1.3-1.5.95,0,1.35.6,1.35,1.5v.85h.75c2.2,0,2.25,1.25,2.32,2.22,1.38-2.25,1.77-2.9,2.55-5.27.17-.5.72-3.02.8-3.2.12-.32.4-.82,1.3-.82.27,0,1.62.05,1.62,1.3,0,.52-.32,1.7-.5,2.27h3.65c1.45,0,2.97,0,2.97,2.32,0,.95-.22,2.17-1.02,4.37-.52,1.45-.8,2.22-1.82,2.22-.9,0-1.6-.58-1.6-1.3,0-.27.08-.4.65-1.65.38-.8.8-1.97.8-2.47,0-.42-.3-.57-.73-.57h-3.9c-1.12,2.8-1.7,3.85-2.47,4.82-.27.35-.65.57-1.1.57-.1,0-.67,0-1.2-.55v2.32c0,2.27-.47,2.8-2.8,2.8h-3.85v3.1c1.87-.5,2.1-.55,3.02-.83-.25-.52-.35-.77-.35-1.05,0-.65.7-1.15,1.5-1.15s.97.4,1.42,1.22c.85,1.6,1.02,1.9,1.32,2.65,2.75-2.3,4-6.17,4-9.77v-1.55ZM496.45,210.72h3.95v-.72c0-.4-.17-.6-.6-.6h-2.75c-.4,0-.6.23-.6.6v.72ZM500.4,212.77h-3.95v1.35h3.35c.42,0,.6-.23.6-.62v-.72Z"/><path class="cls-2" d="M537.32,208.5c.1-.83.45-1.45,1.45-1.45,1.57,0,1.75.95,1.75,1.55,0,.15-.03,2.07-.95,5.3,1.15.8,1.82,1.35,2.1,1.6.65.55.85.82.85,1.37,0,1-.77,1.9-1.55,1.9-.57,0-.77-.15-2.62-1.67-1.87,3.62-5,5.82-6.1,5.82-.83,0-1.67-.77-1.67-1.62,0-.6.12-.73,1.47-1.75.7-.55,2.47-1.92,3.62-4.37-1.45-.95-3.17-1.9-5-2.5-1.07,2.15-2.07,3.7-2.4,4.2-1.57,2.42-2.8,3.82-4.65,3.82-1.95,0-3.27-1.75-3.27-4.17,0-4.02,3.2-7.37,7.3-7.37.55,0,1.02.08,1.35.12.38-.87.95-2.12,1.75-4.37-1.9.15-4.3.27-5.2.27-.8,0-1.95,0-1.95-1.57s1.15-1.6,2.17-1.6c.38,0,2,.05,2.32.05.52,0,1.87,0,3.5-.22.22-.03,1.22-.2,1.42-.2.9,0,1.8.82,1.8,1.5,0,.27-.3.92-2.8,6.77,2.2.8,3.9,1.72,4.72,2.2.33-1.38.38-1.8.58-3.6ZM523.2,216.52c0,.2.02.87.5.87.9,0,2.92-3.65,3.75-5.25-2.82-.15-4.25,2.55-4.25,4.37Z"/><path class="cls-2" d="M569.05,203.7c1.25,0,1.4.95,1.4,1.52,0,1.07-.55,1.57-1.12,1.57h-.67c-.17,3.1-.52,6.95-2.82,10.52.77.87,1.27,1.3,3.65,2.92.62.42.8.72.8,1.25,0,.9-.72,1.97-1.67,1.97-.35,0-.7,0-2.52-1.42-1.12-.87-1.85-1.7-2.27-2.2-1.95,2-4.8,3.65-5.62,3.65-.97,0-1.6-1-1.6-1.87,0-.77.48-1.05,1.05-1.32,1.6-.8,3.05-1.82,4.32-3.07-1.27-2.2-2.02-4.55-2.42-6.2-.45.6-.77.85-1.27.85-.38,0-.77-.15-1.07-.4,0,1.05-.08,7.55-.57,9.8-.45,2.12-1.8,2.22-3,2.22-.92,0-1.75-.07-1.95-.15-.47-.17-.8-.85-.8-1.5,0-1.45.88-1.45,1.45-1.45.65,0,1.12,0,1.38-.5.4-.82.57-4.87.57-6.97v-.42c0-.58-.17-.67-.67-.67h-1.55c-.07,1.65-.4,4.97-1.17,7.6-.32,1.15-.9,2.72-1.32,3.35-.25.4-.58.55-.98.55-.92,0-1.85-.77-1.85-1.62,0-.38.12-.65.4-1.17,1.22-2.32,2.1-5.3,2.1-9.87v-4.3h-.97c-.95,0-1.45-.55-1.45-1.45,0-1.27.9-1.45,1.55-1.45h2.57v-2.15c0-.88.47-1.35,1.4-1.35s1.62.22,1.62,1.35v2.15h2.6c.5,0,1.5.07,1.5,1.35,0,.97-.3,1.55-1.5,1.55h-4.47v2.7h2.72c.75,0,1.37.02,1.9.6.2-.4,1.2-2.05,1.4-2.42,1.15-2.25,1.75-4.55,2.07-5.92.23-.9.4-1.4,1.47-1.4.82,0,1.62.42,1.62,1.25,0,.55-.3,1.57-.57,2.55h6.37ZM561.62,206.8c-.05.12-.05.15-.1.25.42,2.62,1.17,5.2,2.4,7.55,1.25-2.3,1.67-4.67,1.8-7.8h-4.1Z"/><path class="cls-2" d="M586.75,207.42c0-2.45.58-2.8,2.95-2.8.12-.43.17-.65.27-1.3h-2.9c-.35,0-1.32,0-1.32-1.22s.88-1.25,1.32-1.25h9.32c.35,0,1.32,0,1.32,1.22s-.95,1.25-1.32,1.25h-3.47c-.08.45-.27,1.07-.33,1.3h1.5c2.27,0,2.8.5,2.8,2.8v6.2c0,2.27-.5,2.75-2.52,2.8,1.47,1.1,1.47,1.12,2.37,1.62.28.15.67.38.67.98,0,.3-.1.85-.62,1.22.52.1,1.15.25,1.15,1.3,0,.3-.05,1-.52,1.27-.25.12-.67.27-1.12.27h-11.8c-4.97,0-6.37-2.22-6.95-3.12-.17.92-.55,2.07-.75,2.57-.25.55-.52.92-1.2.92-.52,0-1.47-.3-1.47-1.2,0-.4.1-.62.35-1.2.83-2.05.98-3.95,1.12-6.32.05-.55.17-1.25,1.25-1.25s1.3.62,1.3,1.47c0,.67-.05,1.22-.1,1.7.42,1.07.8,1.65,1.38,2.22v-6.22h-3.85c-.35,0-1.32,0-1.32-1.25s.97-1.25,1.32-1.25h9.27c.33,0,1.32,0,1.32,1.25s-.97,1.25-1.32,1.25h-2.67v2.07h2.22c.32,0,1.32,0,1.32,1.23s-.98,1.22-1.32,1.22h-2.22v2.92c.62.07,1.37.1,1.7.1h2.52c-.6-.5-.6-1.07-.6-1.23,0-.6.27-.72,1.38-1.35.27-.15.77-.4,1.22-.77.42-.32.45-.37.57-.45-1.82-.1-2.22-.7-2.22-2.8v-6.2ZM585.17,206.3c0,2.27-.5,2.8-2.82,2.8h-4.45c-2.27,0-2.8-.47-2.8-2.8v-2.7c0-2.27.48-2.8,2.8-2.8h4.45c2.32,0,2.82.52,2.82,2.8v2.7ZM577.8,204h4.52v-.5c0-.42-.2-.62-.6-.62h-3.32c-.38,0-.6.18-.6.62v.5ZM577.8,206v.5c0,.4.2.6.6.6h3.32c.38,0,.6-.17.6-.6v-.5h-4.52ZM590.27,216.42c.67.42.67.97.67,1.1,0,.38-.17.65-.95,1.3-.33.27-1.32,1.02-2.02,1.4h7.32c-.58-.33-1.12-.73-1.62-1.12-1.17-.92-1.32-1.2-1.32-1.62,0-.12,0-.62.62-1.05h-2.7ZM589.52,207.92h4.55v-.6c0-.35-.15-.6-.6-.6h-3.35c-.5,0-.6.33-.6.6v.6ZM594.07,209.9h-4.55v1.17h4.55v-1.17ZM589.52,213.07v.62c0,.17,0,.62.6.62h3.35c.6,0,.6-.42.6-.62v-.62h-4.55Z"/><path class="cls-3" d="M673.5,193.59c0,27.2-22.5,49.46-50,49.46h-209c-27.5,0-50-22.26-50-49.46s22.5-49.46,50-49.46h209c27.5,0,50,22.26,50,49.46Z"/></g></svg>