<?xml version="1.0" encoding="UTF-8"?><svg id="_レイヤー_2" xmlns="http://www.w3.org/2000/svg" viewBox="0 0 548.49 99.19"><defs><style>.cls-1{fill:#00b9ef;}.cls-1,.cls-2,.cls-3{stroke-width:0px;}.cls-2{fill:#fff;}.cls-3{fill:#4d4d4d;}</style></defs><g id="DESIGN"><path class="cls-3" d="M18.43,18.08c-.21,2.51-.81,4.68-1.78,6.5,2.4,1.18,6.11,3.66,6.11,5.17,0,.81-.68,1.54-1.44,1.54-.34,0-.68-.13-.99-.5-1.46-1.67-3.11-3.08-5.04-4.15-3.4,4.18-9.04,4.99-12.04,4.99-.94,0-1.44-.65-1.44-1.31s.44-1.23,1.38-1.23c4.05,0,7.39-1.04,9.64-3.58-1.15-.42-2.4-.73-3.74-.94l-.13.31c-.31.73-.94,1.07-1.51,1.07-.63,0-1.2-.39-1.2-1.07,0-.21.05-.44.16-.71.89-1.93,1.62-4.02,2.25-6.11l-5.64.03c-.84,0-1.23-.58-1.23-1.15,0-.63.44-1.28,1.23-1.28h6.3c.5-2.01.89-4,1.18-5.88.1-.71.65-1.02,1.23-1.02.73,0,1.49.47,1.49,1.23,0,.29-.65,3.63-1.2,5.67h11.34c.78,0,1.18.63,1.18,1.23s-.37,1.2-1.18,1.2l-4.91-.03ZM11.33,18.08c-.44,1.49-.92,2.98-1.44,4.44,1.44.18,2.87.55,4.28,1.04.78-1.49,1.31-3.29,1.54-5.49h-4.39Z"/><path class="cls-3" d="M26.77,19.52c0-.26.08-.55.26-.86.65-1.07.99-2.43.99-3.76,0-.73.5-1.04,1.04-1.04s1.23.34,1.23,1.17c0,1.02-.65,5.62-2.4,5.62-.6,0-1.12-.47-1.12-1.12ZM30.8,9.83c0-.81.63-1.2,1.25-1.2s1.28.42,1.28,1.2v3.37c.21-.13.44-.21.68-.21.71,0,2.43,1.75,2.43,2.64,0,.65-.63,1.18-1.2,1.18-.29,0-.57-.16-.76-.5-.34-.71-.81-1.31-1.15-1.7v15.96c0,.76-.63,1.12-1.28,1.12s-1.25-.37-1.25-1.12V9.83ZM35.97,30.68c-.84,0-1.23-.55-1.23-1.1s.44-1.18,1.23-1.18l5.75.03v-4.94l-3.42.03c-.84,0-1.23-.52-1.23-1.07s.44-1.18,1.23-1.18l3.42.03v-4.21l-2.87.03c-.55,1.31-1.23,2.53-2.04,3.74-.37.52-.78.71-1.2.71-.6,0-1.15-.5-1.15-1.12,0-.23.08-.52.29-.78,1.38-1.88,2.66-4.57,3.13-7.97.1-.81.65-1.15,1.2-1.15.65,0,1.31.47,1.31,1.23,0,.39-.34,1.83-.73,3.11l2.06.03v-4.99c0-.81.63-1.2,1.28-1.2s1.25.39,1.25,1.2v4.99l4.39-.03c.84,0,1.25.57,1.25,1.12s-.42,1.12-1.25,1.12l-4.39-.03v4.21l3.42-.03c.84,0,1.25.58,1.25,1.12s-.42,1.12-1.25,1.12l-3.42-.03v4.94l5.28-.03c.78,0,1.18.58,1.18,1.15s-.39,1.12-1.18,1.12h-13.56Z"/><path class="cls-3" d="M73.42,25.87l-4.62-.1v.65l.03,2.01v.05c0,1.36-.91,3.13-3.81,3.13-2.04,0-2.53-.5-2.53-1.31,0-.6.37-1.2,1.02-1.2.08,0,.16,0,.24.03.47.1.94.18,1.36.18.76,0,1.31-.29,1.31-1.31v-.05l-.03-2.22-13.09.13h-.03c-.71,0-1.04-.52-1.04-1.07s.37-1.12,1.07-1.12l13.09.03-.03-.89c0-.24.05-.44.16-.6-.81.03-1.65.03-2.48.03-1.99,0-4-.05-5.93-.08-1.78-.05-2.67-.94-2.72-2.19-.03-.76-.03-1.41-.03-2.04s0-1.25.03-1.88c.05-1.02.73-2.09,2.66-2.14.94-.03,2.4-.03,4-.03v-1.31l-7.58.03c-.76,0-1.15-.52-1.15-1.04s.39-1.04,1.15-1.04l7.58.03v-1.04c0-.76.63-1.15,1.25-1.15s1.25.39,1.25,1.15v1.04l7.76-.03c.73,0,1.07.52,1.07,1.04s-.34,1.04-1.07,1.04l-7.76-.03v1.31c1.57,0,3.11,0,4.23.03,1.46.03,2.46,1.02,2.53,1.99.03.57.05,1.18.05,1.78,0,.76-.03,1.51-.05,2.25-.05,1.17-1.04,2.19-2.67,2.25h-.08c.13.16.18.39.18.65l.03.89,4.65-.03c.73,0,1.1.52,1.1,1.07s-.37,1.12-1.07,1.12h-.03ZM60.41,29.42c-.81-.71-1.72-1.02-2.56-1.28-.39-.13-.55-.44-.55-.78,0-.57.44-1.23,1.12-1.23.47,0,3.87.73,3.87,2.25,0,.68-.57,1.31-1.2,1.31-.24,0-.47-.08-.68-.26ZM62.16,15.55c-1.38,0-2.66.03-3.5.05-.81.03-1.12.47-1.15.97,0,.18-.05.39-.05.57h4.7v-1.59ZM62.16,18.79h-4.7c0,.21.05.44.05.65.05.76.42.97,1.18.99.91.03,2.17.03,3.47.03v-1.67ZM69.11,17.14c0-.18-.03-.39-.03-.57-.05-1.02-.37-1.02-4.68-1.02v1.59h4.7ZM64.41,18.79v1.67c1.31,0,2.53,0,3.53-.03.68,0,1.1-.26,1.15-.99,0-.21.05-.44.05-.65h-4.73Z"/><path class="cls-3" d="M95.25,23.41h-5.83v6.48c0,.81-.63,1.23-1.25,1.23s-1.28-.42-1.28-1.23v-6.48h-5.51c-.34,3.45-1.49,8.12-3.58,8.12-.71,0-1.33-.52-1.33-1.2,0-.24.08-.5.26-.76,2.04-2.74,2.38-7.52,2.38-11.75,0-1.86-.05-3.58-.08-5.02v-.08c0-2.17,1.02-3.13,3.4-3.19,2.25-.05,4.31-.08,6.4-.08,1.83,0,3.68.03,5.75.08,1.54.03,3.08,1.1,3.11,2.9.08,3.84.03,9.04.08,11.91l.05,3.58v.05c0,1.83-1.1,3.5-4.26,3.5-1.72,0-3.06-.21-3.06-1.54,0-.63.39-1.2,1.12-1.2.08,0,.16,0,.26.03.65.13,1.2.18,1.65.18,1.33,0,1.72-.55,1.72-1.44v-4.1ZM86.92,17.61h-5.3c0,1.15-.03,2.38-.08,3.58h5.36l.03-3.58ZM86.92,11.71c-1.33,0-2.69.03-4.08.05-.91.03-1.25.52-1.25,1.28v2.35h5.33v-3.68ZM95.2,15.39c-.03-.76-.03-1.49-.05-2.12-.05-.99-.55-1.49-1.51-1.51-1.41-.05-2.82-.05-4.23-.05v3.68h5.8ZM95.25,17.61h-5.85l.03,3.58h5.83v-3.58Z"/><path class="cls-3" d="M116.69,22.13c-.97-.63-2.17-1.15-3.24-1.33-1.57-.26-1.07-2.74.84-2.38,1.23.24,2.64.65,3.81,1.31.84.44.94,1.36.6,1.96-.34.63-1.15.99-2.01.44ZM116.69,30.34c-2.06.68-2.93-2.14-.86-2.69,5.2-1.41,11-7.16,13.74-12.36.86-1.62,3.47-.55,2.33,1.51-3.34,5.98-9.27,11.57-15.2,13.53ZM119.72,17.48c-.81-.84-1.85-1.59-2.85-2.01-1.49-.6-.44-2.93,1.33-2.14,1.15.52,2.48,1.28,3.47,2.17.71.63.6,1.51.13,2.04-.47.52-1.38.68-2.09-.05ZM125.39,12.73c-1.33-.55-.29-2.12.91-1.67.71.26,2.01.94,2.59,1.57,1.02,1.1-.5,2.69-1.36,1.67-.34-.42-1.62-1.33-2.14-1.57ZM127.76,10.51c-1.33-.52-.39-2.12.84-1.72.71.24,2.04.89,2.64,1.49,1.04,1.04-.42,2.69-1.31,1.7-.37-.39-1.65-1.25-2.17-1.46Z"/><path class="cls-3" d="M135.06,29.94c-1.96.31-2.59-2.35-.5-2.64.42-.05.89-.1,1.33-.18,1.28-2.72,4.02-9.95,4.68-13.22.44-2.19,3.37-1.46,2.82.55-.78,2.85-2.98,8.62-4.49,12.15,2.72-.5,5.59-1.12,7.63-1.62-.68-.89-1.41-1.65-1.99-2.14-1.2-1.04.5-2.87,1.96-1.57,1.25,1.12,3.97,3.79,4.81,6.14.31.89-.23,1.65-.84,1.91-.63.26-1.44.05-1.78-.78-.18-.44-.42-.91-.68-1.38-3.37.94-8.91,2.12-12.96,2.8Z"/><path class="cls-3" d="M164.94,24.88c-1.1,0-2.12-.03-3.11-.03-.16,0-.16.05-.16.21,0,1.25,0,2.43.03,3.24v.05c0,.86-.68,1.31-1.36,1.31s-1.36-.44-1.36-1.33v-.03c0-1.15.05-2.22.05-3.27,0-.16-.05-.21-.21-.21-1.07,0-2.06,0-3.03.05-.47.03-1.33-.29-1.33-1.33,0-.65.42-1.31,1.23-1.31h.05c.73.03,1.91.05,3.16.05.1,0,.13-.08.13-.18,0-1.04,0-2.01-.05-2.95-.03-.86.6-1.33,1.36-1.33.68,0,1.36.42,1.36,1.23v.05c-.03.71-.03,1.8-.03,3,0,.13.05.18.18.18,1.2,0,2.3-.03,3.08-.05h.03c.89,0,1.33.65,1.33,1.33s-.44,1.31-1.33,1.31h-.03Z"/><path class="cls-3" d="M170.25,29.42c-1.91.71-2.79-1.85-.84-2.53,4.75-1.65,8.88-5.83,10.95-9.72.23-.44.13-.86-.44-.86-1.65-.03-5.25.1-7.55.16-1.57.05-1.67-2.46,0-2.53,1.91-.08,5.75-.13,8.39-.13,2.35,0,3.68,1.49,2.66,3.27-.89,1.54-1.83,3.03-2.9,4.44,2.17,1.31,5.49,3.5,6.69,5.17,1.04,1.46-.91,3.5-2.14,1.96-1.28-1.59-3.97-3.97-6.11-5.25-2.3,2.56-5.12,4.68-8.7,6.03Z"/><path class="cls-3" d="M194.45,30.68c-2.09.81-3.11-1.65-1.12-2.3,3.6-1.2,6.5-3.45,8.72-5.96-.94-.58-1.91-1.02-2.74-1.25-1.46-.39-.78-2.61,1.04-2.09.97.26,2.14.76,3.29,1.36.89-1.25,1.62-2.53,2.19-3.74.5-1.07.39-1.2-.29-1.17-1.04.03-3.74.29-4.62.39-1.83,2.4-4.23,5.15-5.98,6.37-1.75,1.2-3.29-1.07-1.52-2.17,2.53-1.57,6.04-5.98,6.98-8.23.91-2.22,3.6-.6,2.69.92-.13.21-.29.44-.47.71,1.28-.1,2.72-.24,3.97-.29,2.69-.08,3.16,1.8,2.14,3.66-.97,1.75-1.93,3.37-2.95,4.86.73.52,1.41,1.07,1.88,1.65.6.71.42,1.54-.05,1.99-.47.44-1.25.58-1.86-.08-.39-.42-.94-.91-1.57-1.41-2.33,2.79-5.25,5.07-9.74,6.79Z"/><path class="cls-3" d="M218.53,22.13c-.97-.63-2.17-1.15-3.24-1.33-1.57-.26-1.07-2.74.84-2.38,1.23.24,2.64.65,3.81,1.31.84.44.94,1.36.6,1.96-.34.63-1.15.99-2.01.44ZM218.53,30.34c-2.06.68-2.93-2.14-.86-2.69,5.2-1.41,11-7.16,13.74-12.36.86-1.62,3.47-.55,2.33,1.51-3.34,5.98-9.27,11.57-15.2,13.53ZM221.56,17.48c-.81-.84-1.85-1.59-2.85-2.01-1.49-.6-.44-2.93,1.33-2.14,1.15.52,2.48,1.28,3.47,2.17.71.63.6,1.51.13,2.04-.47.52-1.38.68-2.09-.05ZM227.23,12.73c-1.33-.55-.29-2.12.91-1.67.71.26,2.01.94,2.59,1.57,1.02,1.1-.5,2.69-1.36,1.67-.34-.42-1.62-1.33-2.14-1.57ZM229.61,10.51c-1.33-.52-.39-2.12.84-1.72.71.24,2.04.89,2.64,1.49,1.04,1.04-.42,2.69-1.31,1.7-.37-.39-1.65-1.25-2.17-1.46Z"/><path class="cls-3" d="M251,25.53c.05.81.05,1.25.08,1.96.05,2.01-1.07,3.66-5.17,2.95-2.38-.42-1.41-3.11.24-2.59,1.07.34,2.46.5,2.43-.89-.03-1.54-.1-4.26-.18-7-2.77,3.6-4.94,5.69-8.49,7.97-2.17,1.38-3.45-1.1-1.8-1.96,3.63-1.88,6.56-4.75,8.78-8.12-2.32.05-4.65.13-6.84.21-1.75.08-2.01-2.32-.08-2.4,2.61-.1,5.46-.16,8.28-.18-.05-1.49-.11-2.74-.13-3.42-.1-1.93,2.53-1.75,2.53-.1,0,.73.03,2.01.05,3.5,1.49,0,2.95-.03,4.34,0,2.01.03,1.88,2.59-.08,2.48-1.36-.05-2.79-.1-4.23-.1.05,2.74.16,5.75.29,7.71Z"/><path class="cls-3" d="M5.02,86.53c-.1,2.51,1.02,3.74,4.09,4.15,2.97.41,11.26-.1,14.89-1.38,3.89-1.33,6.09,4.2,1.07,5.53-4.61,1.23-12.44,1.38-17.81.72C2.77,94.97.06,92.05,0,87.86c-.05-5.12.31-16.53.36-22.62,0-3.58,5.27-2.87,5.22.15-.05,2.76-.15,6.6-.26,10.39,4.04-.77,12.28-3.07,16.12-4.76,3.74-1.64,6.29,3.58,1.89,5.12-4.86,1.64-12.33,3.99-18.17,4.66-.05,2.25-.1,4.3-.15,5.73ZM28.87,70.1c-2.97,0-5.37-2.41-5.37-5.37s2.41-5.42,5.37-5.42,5.42,2.46,5.42,5.42-2.46,5.37-5.42,5.37ZM28.87,62.06c-1.43,0-2.56,1.23-2.56,2.66s1.13,2.56,2.56,2.56,2.66-1.13,2.66-2.56-1.23-2.66-2.66-2.66Z"/><path class="cls-3" d="M63.92,89.03c3.17.1,2.92,4.61-.1,4.5-7.52-.26-17.76-.31-24.51.15-3.02.2-3.33-4.45-.15-4.55,3.43-.1,8.44-.21,13.61-.21.61-2.3,1.33-5.22,1.59-6.81.15-.77-.05-1.23-1.02-1.23-2.15,0-5.63-.05-9.01.1-3.28.15-3.33-4.3-.36-4.4,4.5-.15,9.16-.05,11.72.05,3.33.15,4.4,2.51,3.84,5.17-.51,2.25-1.18,4.91-1.84,7.11,2.2,0,4.3.05,6.24.1Z"/><path class="cls-3" d="M81.16,97.78c-2.05,1.28-3.94.72-4.81-.46-.87-1.18-.67-2.97,1.38-3.99,8.6-4.25,11.51-12.69,10.75-20.11-.2-2.15,1.18-3.12,2.82-3.12s3.12.77,3.07,2.92c0,.61,0,1.28-.05,1.89.15-.05.26-.15.41-.21,3.43-1.38,7.32-3.68,9.31-6.45.77-1.08.77-1.84-.56-1.84-5.73-.05-16.89.1-24.05.46-4.5.21-4.25-4.71-.41-4.91,7.42-.36,18.58-.31,26.25-.31,5.32,0,7.78,4.45,4.2,8.5-3.38,3.84-7.11,7.11-12.69,9.11-1.18.41-2.2.31-2.92-.15-1.28,7.83-5.12,13.92-12.69,18.68Z"/><path class="cls-3" d="M119.8,95.69c-3.74,1.38-5.48-3.63-1.64-4.96,9.31-3.22,17.4-11.41,21.44-19.04.46-.87.26-1.69-.87-1.69-3.22-.05-10.29.2-14.79.31-3.07.1-3.28-4.81,0-4.96,3.74-.15,11.26-.26,16.43-.26,4.61,0,7.22,2.92,5.22,6.4-1.74,3.02-3.58,5.94-5.68,8.7,4.25,2.56,10.75,6.86,13.1,10.13,2.05,2.87-1.79,6.86-4.2,3.84-2.51-3.12-7.78-7.78-11.98-10.29-4.5,5.02-10.03,9.16-17.04,11.82Z"/><path class="cls-3" d="M171.48,95.99c.1,4.15-5.73,4.3-5.53.21.36-8.29.51-28.35.31-35.72-.1-3.48,5.42-3.43,5.32.05-.05,2.51-.1,6.96-.15,11.98.26,0,.56,0,.87.05,2.87.46,9.52,2.1,12.28,4.45,2.66,2.25-.26,6.71-3.17,4.56-2.2-1.64-7.27-3.63-9.98-4.15-.05,7.06-.05,14.43.05,18.58Z"/><path class="cls-3" d="M206.33,93.74c-3.43,1.69-7.98.67-7.83-4.76.15-5.83.26-18.27.1-21.7-.15-3.94,5.27-3.53,5.37-.1.1,3.63-.05,15.1-.2,18.99-.05,1.43,1.28,1.95,2.51,1.28,7.88-4.09,15-11.31,18.48-16.89,2.15-3.43,6.76-.2,4.71,2.97-4.09,6.4-14.48,15.92-23.13,20.21Z"/><path class="cls-3" d="M249.27,74.96c-1.89-1.74-5.17-3.22-7.57-3.79-3.07-.72-1.79-5.89,2.1-4.81,2.71.77,6.55,2.15,9.01,3.89,1.59,1.13,1.48,3.07.67,4.25-.82,1.18-2.61,1.89-4.2.46ZM246.09,96.1c-4.35,1.38-5.99-4.45-1.74-5.53,10.29-2.61,20.62-13.2,25.79-23.23,1.64-3.17,6.91-1.02,4.66,3.02-6.35,11.51-16.94,22.01-28.71,25.74Z"/><path class="cls-3" d="M301.26,64.31c2.2-.15,4.71-.31,6.75-.41,3.94-.2,7.37,2.56,5.48,6.19-6.24,11.92-13.31,22.26-27.69,27.94-4.35,1.69-6.45-3.33-2.2-4.81,11.36-3.94,19.81-14.12,23.59-22.83.41-.97,0-1.94-1.23-1.89-2.15.05-5.89.41-8.19.67-3.48,4.61-7.98,9.98-11.51,12.39-3.43,2.3-6.45-2.15-2.97-4.3,4.91-3.02,11.57-12.38,13.92-16.43,1.69-2.87,6.81-.41,4.4,3.02l-.36.46ZM312,61.6c-2.61-1.07-.56-4.15,1.79-3.28,1.38.51,3.94,1.84,5.07,3.07,2,2.15-.97,5.27-2.66,3.28-.67-.82-3.17-2.61-4.2-3.07ZM316.66,57.2c-2.61-1.02-.77-4.09,1.64-3.33,1.38.46,3.99,1.74,5.17,2.92,2.05,2.05-.87,5.27-2.61,3.33-.72-.77-3.17-2.51-4.2-2.92Z"/><path class="cls-3" d="M326.54,95.69c-3.74,1.38-5.48-3.63-1.64-4.96,9.31-3.22,17.4-11.41,21.44-19.04.46-.87.26-1.69-.87-1.69-3.22-.05-10.29.2-14.79.31-3.07.1-3.28-4.81,0-4.96,3.74-.15,11.26-.26,16.43-.26,4.61,0,7.22,2.92,5.22,6.4-1.74,3.02-3.58,5.94-5.68,8.7,4.25,2.56,10.75,6.86,13.1,10.13,2.05,2.87-1.79,6.86-4.2,3.84-2.51-3.12-7.78-7.78-11.98-10.29-4.5,5.02-10.03,9.16-17.04,11.82Z"/><path class="cls-3" d="M388.2,92.41c11.31-3.58,18.01-12.9,20.32-20.42.41-1.38.26-2.66-1.64-2.71-5.02-.15-13.1.15-20.47.41-3.38.1-3.74-4.91-.1-5.07,6.75-.31,16.33-.36,22.83-.26,4.15.05,7.06,3.17,5.58,7.37-3.58,10.24-9.83,20.16-24.16,25.64-4.35,1.64-6.24-3.74-2.35-4.96Z"/><path class="cls-3" d="M432.51,97.58c-4.2,1.28-6.09-3.79-2-4.86,10.08-2.71,16.58-8.91,18.88-15.4.51-1.38.26-2.2-1.69-2.25-5.22-.1-14.74.05-20.21.26-3.63.15-4.09-4.71-.15-4.81,6.6-.15,15.2-.21,22.16-.15,5.12.05,7.63,2.92,5.53,7.93-3.58,8.55-9.83,15.4-22.52,19.29ZM448.79,65.64c-4.81,0-11.87.15-17.4,0-3.38-.1-3.58-4.81.36-4.76,4.91.05,12.08.05,17.25,0,1.74,0,2.76,1.13,2.76,2.35s-.87,2.41-2.97,2.41Z"/><path class="cls-3" d="M470.28,96.51c-.46-1.33.15-3.02,2.51-3.53,11.77-2.56,17.55-12.69,18.01-20.98.1-2.05-.67-2.92-2.66-3.02-3.63-.21-11.77-.05-14.28.05-1.64.1-2.71,1.13-2.76,2.46-.05,1.33.05,4.91.2,6.65.26,3.43-5.22,4.15-5.48.41-.15-2.15-.1-7.42,0-8.96.15-2.76,1.54-5.07,7.27-5.17,4.2-.1,10.24-.2,16.02-.15,5.94.05,7.78,2,7.32,7.93-.82,11.21-8.09,22.01-22.16,26.05-2,.56-3.53-.46-3.99-1.74Z"/><path class="cls-3" d="M507.53,79.72c-1.84,0-2.71-1.23-2.71-2.46s.97-2.61,2.71-2.61h32.14c1.74,0,2.61,1.28,2.61,2.56s-.87,2.51-2.61,2.51h-32.14Z"/><rect class="cls-1" x="277.12" y="0" width="271.37" height="35.67" rx="15.51" ry="15.51"/><path class="cls-2" d="M306.63,26c-1.53,0-1.85.02-2.56.1.15-1.3.29-1.97.59-2.73.55-1.43,1.47-2.71,2.81-3.91.71-.63,1.36-1.11,3.36-2.46s2.58-2.12,2.58-3.4c0-1.45-1.2-2.35-3.09-2.35-1.3,0-2.27.44-2.86,1.3-.36.54-.52,1.01-.67,2.02l-2.5-.34c.27-1.49.65-2.35,1.41-3.23.99-1.15,2.56-1.76,4.56-1.76,3.49,0,5.65,1.7,5.65,4.43,0,1.6-.61,2.71-2.12,3.86-.65.48-.94.69-2.81,1.95-2.35,1.58-3.4,2.77-3.95,4.41h6.26c1.22,0,2.14-.04,2.86-.15v2.37c-.92-.08-1.72-.12-2.94-.12h-6.57Z"/><path class="cls-2" d="M318.34,19.93q.5-.55,1.55-1.81l5.1-6.3c.84-1.03,1.18-1.49,1.66-2.25h2.35c-.13,1.22-.15,1.93-.15,3.55v6.89h.78c.86,0,1.37-.04,2.14-.15v2.31c-.8-.1-1.28-.15-2.14-.15h-.78v1.62c0,1.05.04,1.6.17,2.35h-2.56c.15-.71.19-1.37.19-2.37v-1.6h-5.73c-1.22,0-1.83.02-2.58.08v-2.18ZM326.65,15.31c0-1.05.02-1.72.1-2.65-.42.61-.74,1.01-1.45,1.93l-4.37,5.44h5.71v-4.72Z"/><path class="cls-2" d="M334.93,11.55c0-.9-.02-1.49-.08-2.08q.44.04,1.89.06h2.14c1.03,0,1.37-.02,1.85-.06-.04.48-.06.88-.06,2.06v11.8c0,1.09.02,1.6.06,2.1h-1.8v-1.07h-2.25v1.76h-1.87c.08-.63.12-1.41.12-2.41v-12.16ZM336.7,15.92h2.23v-4.72h-2.23v4.72ZM336.7,22.66h2.23v-5.12h-2.23v5.12ZM343.96,12.37c-.74,0-1.64.04-2.16.11v-1.87c.57.08,1.2.13,2.1.13h2.02v-.61c0-.61-.04-1.09-.13-1.62h2.08c-.08.5-.12.97-.12,1.62v.61h2.56c.88,0,1.53-.04,2.1-.13v1.87c-.59-.08-1.22-.11-2.08-.11h-2.58v2.31h3.23c.95,0,1.66-.04,2.21-.13v1.91c-.57-.08-1.13-.12-2.06-.12h-.48v2.06h.44c.95,0,1.57-.04,2.06-.1v1.93c-.59-.08-1.16-.13-2.06-.13h-.44v5.21c0,1.13-.21,1.57-.88,1.83-.46.17-1.09.25-1.97.25,0,0-.59-.02-1.72-.04-.04-.78-.17-1.3-.44-1.89.63.13,1.62.21,2.29.21.8,0,.92-.06.92-.57v-5h-5.4c-.78,0-1.53.04-2.18.13v-1.93c.53.06,1.18.1,2.23.1h5.35v-2.06h-5.35c-.88,0-1.6.04-2.23.12v-1.91c.53.08,1.28.13,2.25.13h2.42v-2.31h-1.95ZM345.1,25.05c-.88-1.41-1.72-2.44-2.79-3.46l1.49-1.01c1.09,1.01,1.91,1.95,2.86,3.3l-1.55,1.18Z"/><path class="cls-2" d="M358.5,24.99c0,1.24.04,1.95.13,2.5h-2.08c.08-.61.13-1.26.13-2.5v-13.65c0-1.09-.02-1.68-.08-2.35.57.06,1.11.08,2.16.08h3.44c1.07,0,1.55-.02,2.14-.08-.04.65-.06,1.16-.06,1.97v3c0,.9.02,1.43.06,1.91-.57-.04-1.22-.06-2.02-.06h-3.82v9.18ZM358.5,11.78h4.05v-1.28h-4.05v1.28ZM358.5,14.43h4.05v-1.3h-4.05v1.3ZM369.38,23.04c0,.8.02,1.34.06,1.87-.63-.04-1.22-.06-2.06-.06h-4.47v1.28h-1.85c.08-.61.1-1.2.1-2.04v-4.96c0-.76-.02-1.34-.06-1.93.57.06,1.11.08,2,.08h4.35c.9,0,1.43-.02,1.99-.08-.04.57-.06,1.11-.06,1.93v3.91ZM362.91,20.29h4.74v-1.53h-4.74v1.53ZM362.91,23.37h4.74v-1.64h-4.74v1.64ZM374,25.14c0,1.64-.55,2.1-2.58,2.1-.46,0-1.66-.04-2.02-.06-.13-.82-.23-1.22-.5-1.89,1.09.15,1.85.21,2.39.21.71,0,.88-.11.88-.57v-9.11h-4.2c-.8,0-1.45.02-2.02.06.04-.57.06-1.11.06-1.91v-3c0-.71-.02-1.37-.06-1.97.57.06,1.07.08,2.14.08h3.8c1.09,0,1.62-.02,2.2-.08-.08.8-.1,1.32-.1,2.33v13.82ZM367.74,11.78h4.43v-1.28h-4.43v1.28ZM367.74,14.43h4.43v-1.3h-4.43v1.3Z"/><path class="cls-2" d="M381.59,11.13c-.38-.76-.8-1.39-1.47-2.21l1.91-.44c.65.9,1.13,1.68,1.64,2.65h2.33c-.25-.67-.76-1.68-1.28-2.54l1.95-.34c.44.78.99,1.95,1.37,2.88h1.81c.59-.82,1.18-1.89,1.6-2.88l2.02.5c-.42.76-1.05,1.72-1.51,2.37h1.43c1.03,0,1.6-.02,2.27-.08-.04.57-.06,1.01-.06,1.83v1.7c0,.63.02,1.03.08,1.6h-1.93v-3.42h-13.98v3.42h-1.95c.06-.55.11-1.03.11-1.58v-1.7c0-.74-.02-1.16-.08-1.85.69.06,1.28.08,2.27.08h1.51ZM383.06,19.26c-1.22,0-1.55.02-2.22.08.06-.55.08-.97.08-1.81v-1.93c0-.69-.02-1.18-.08-1.58.5.06,1.05.08,1.78.08h8.25c.69,0,1.24-.02,1.72-.08-.04.36-.06.78-.06,1.62v1.89c0,1.05,0,1.32.06,1.81-.74-.06-1.18-.08-2.23-.08h-3.04c-.21.53-.65,1.45-.82,1.72h5.75c.94,0,1.41-.02,1.99-.08-.06.52-.08,1.03-.08,2v2.62c0,.9.02,1.43.11,2.04h-2v-.84h-11.15v.84h-1.99c.08-.67.13-1.34.13-2.06v-2.6c0-.92-.02-1.41-.1-2,.54.06,1.09.08,1.97.08h3.4c.29-.52.63-1.2.84-1.72h-2.31ZM381.13,25.05h11.17v-2.41h-11.17v2.41ZM382.74,17.75h7.96v-2.1h-7.96v2.1Z"/><path class="cls-2" d="M401.98,16.61c-.99,0-1.55.02-2.16.1v-1.74c.59.08,1.11.11,2.16.11h2.73c-.32-.82-.57-1.32-.9-1.91h-2.42c-1.01,0-1.76.04-2.41.1v-1.78c.59.08,1.26.13,2.33.13h.99c-.36-.65-.82-1.26-1.53-2.06l1.72-.69c.86,1.13,1.07,1.45,1.72,2.75h1.43v-1.53c0-.67-.04-1.26-.13-1.68h1.95c-.04.38-.06.88-.06,1.62v1.6h1.78v-1.6c0-.69-.04-1.22-.08-1.62h1.95c-.08.44-.1,1.01-.1,1.68v1.53h1.6c.69-.95,1.22-1.91,1.55-2.83l1.83.69c-.52.86-1.03,1.62-1.41,2.14h.84c1.11,0,1.74-.04,2.37-.13v1.78c-.67-.06-1.43-.1-2.46-.1h-2.25c-.34.76-.57,1.22-.92,1.91h2.64c1.07,0,1.6-.02,2.23-.11v1.74c-.63-.08-1.2-.1-2.23-.1h-5.58v1.2h4.43c.97,0,1.64-.02,2.21-.1v1.68c-.59-.08-1.24-.1-2.21-.1h-4.41v1.24h6.07c1.24,0,1.89-.04,2.5-.13v1.81c-.78-.08-1.53-.13-2.48-.13h-4.68c1.68,1.49,4.28,2.58,7.64,3.19-.53.65-.76,1.03-1.07,1.78-3.63-.99-5.94-2.2-8.06-4.3.06.8.06,1.13.06,1.6v1.2c0,.88.04,1.55.12,2.14h-2.04c.08-.61.13-1.28.13-2.16v-1.16c0-.48,0-.71.04-1.57-1.09,1.11-1.87,1.7-3.21,2.46-1.39.78-2.54,1.26-4.33,1.8-.36-.76-.54-1.05-1.11-1.7,1.87-.42,2.96-.76,4.18-1.36,1.24-.59,2.14-1.16,3-1.91h-4.37c-.97,0-1.7.04-2.46.13v-1.81c.61.08,1.28.13,2.46.13h5.77v-1.24h-4.2c-.94,0-1.6.02-2.16.1v-1.68c.61.08,1.22.1,2.16.1h4.2v-1.2h-5.38ZM410.17,15.08c.4-.76.63-1.3.84-1.91h-5.21c.36.76.48,1.07.78,1.91h3.59Z"/><path class="cls-2" d="M427.91,26.14h-2.06v-5.02h-5.02v-2.02h5.02v-5.02h2.06v5.02h5v2.02h-5v5.02Z"/><path class="cls-2" d="M439.46,16.51c0-.46-.02-.82-.06-1.22.46.04.92.06,1.47.06h4.6v-3h-4.64c-1.09,1.76-2.1,2.96-3.46,4.18-.46-.71-.73-1.03-1.32-1.51,2.12-1.81,3.21-3.23,4.14-5.42.27-.65.42-1.09.5-1.51l2.1.46c-.17.32-.19.36-.29.59q-.19.4-.44.97c-.13.25-.21.42-.25.53h10.08c.94,0,1.45-.02,2.02-.11v1.93c-.59-.08-1.11-.11-2.02-.11h-4.47v3h3.55c.9,0,1.47-.02,2.04-.1v1.89c-.57-.06-1.13-.08-1.99-.08h-3.59v3.7h5.04c.96,0,1.62-.04,2.22-.12v2.04c-.63-.08-1.3-.13-2.22-.13h-5.04v2.96c0,1.01.04,1.53.15,2.12h-2.21c.11-.59.13-1.09.13-2.14v-2.94h-7.29c-.92,0-1.58.04-2.23.13v-2.04c.63.08,1.28.12,2.23.12h1.28v-4.24ZM445.46,20.75v-3.7h-4.16v3.7h4.16Z"/><path class="cls-2" d="M465.72,10.52c0-1.09-.04-1.55-.15-2.25h2.27c-.11.63-.13,1.2-.13,2.18v1.55h5.88c.82,0,1.26-.02,1.78-.08-.06.59-.08,1.01-.08,1.76v6.15c0,.82.02,1.37.11,1.99h-2.08v-1.32h-5.61v4.51c0,1.24.02,1.83.15,2.52h-2.29c.11-.73.15-1.34.15-2.52v-4.51h-5.33v1.32h-2.1c.08-.71.12-1.18.12-1.99v-6.15c0-.73-.02-1.15-.1-1.76.57.06,1.01.08,1.76.08h5.65v-1.49ZM460.39,13.84v4.85h5.33v-4.85h-5.33ZM473.33,18.69v-4.85h-5.61v4.85h5.61Z"/><path class="cls-2" d="M481.95,12.81c-.61.63-.95.92-1.91,1.7-.63-.71-.8-.9-1.34-1.3,2.04-1.47,3.13-2.67,3.97-4.28.21-.4.36-.76.42-1.09l2.08.44c-.19.29-.19.31-.42.73s-.42.73-.8,1.28h10.35c1.3,0,2.04-.04,2.67-.13v1.93c-.69-.06-1.32-.08-2.18-.1v3.19h.95c.96,0,1.47-.02,2.06-.13v1.99c-.59-.1-1.11-.12-2.06-.12h-.95v3.19h.55c.94,0,1.49-.02,2.02-.11v1.95c-.59-.08-1.11-.13-2-.13h-14.05c-.8,0-1.32.04-1.91.13v-1.97c.57.08,1.13.13,2.04.13h.53v-3.19h-.97c-.92,0-1.41.02-2.06.12v-1.99c.57.11,1.07.13,2.06.13h.97v-2.37ZM478.97,26.19c1.3-1.24,1.93-2.16,2.65-3.95l1.6.84c-.86,2-1.45,2.92-2.71,4.33l-1.53-1.22ZM483.67,15.18h2.04v-3.19h-2.04v3.19ZM483.67,20.12h2.04v-3.19h-2.04v3.19ZM485.08,27.36c0-1.66-.13-3.07-.36-4.49l1.68-.23c.36,1.78.48,2.77.59,4.49l-1.91.23ZM489.36,15.18v-3.19h-2.06v3.19h2.06ZM489.36,20.12v-3.19h-2.06v3.19h2.06ZM489.95,27.3c-.19-1.41-.52-2.83-1.03-4.35l1.66-.42c.63,1.64.82,2.27,1.24,4.3l-1.87.46ZM493.06,15.18v-3.19h-2.1v3.19h2.1ZM493.06,20.12v-3.19h-2.1v3.19h2.1ZM495.91,27.28c-.78-1.72-1.3-2.62-2.54-4.28l1.51-.76c1.2,1.45,1.87,2.44,2.69,3.99l-1.66,1.05Z"/><path class="cls-2" d="M503.23,18.73c0-1.03.02-1.6.06-2.44-.67,1.11-1.05,1.66-1.93,2.67-.29-.86-.48-1.32-.9-2.02,1.51-1.62,2.58-3.21,3.51-5.23.61-1.34.96-2.39,1.2-3.65l2.02.61q-.36.92-.78,2.08c-.34.9-.69,1.72-1.26,2.86v11.44c0,.9.04,1.74.1,2.46h-2.14c.08-.8.13-1.43.13-2.48v-6.3ZM508.52,14.47c-.76,0-1.55.04-2.2.13v-2.06c.61.06,1.41.11,2.2.11h3.4v-2.14c0-.69-.04-1.32-.15-2.04h2.14c-.08.69-.12,1.3-.12,2.04v2.14h4.14c.84,0,1.64-.04,2.27-.13v2.08c-.61-.08-1.39-.13-2.23-.13h-3.57c1.34,3.25,3.4,5.96,6.21,8.12-.69.69-1.01,1.03-1.49,1.68-1.03-.94-1.66-1.6-2.41-2.54-.67-.88-1.41-1.95-1.93-2.9-.38-.65-.61-1.18-1.07-2.33.04.67.06,1.32.06,2.25v6.51c0,.88.04,1.55.15,2.27h-2.16c.11-.69.15-1.51.15-2.27v-6.32c0-.74.02-1.58.06-2.27-1.28,3.23-2.83,5.52-5.21,7.64-.46-.74-.84-1.22-1.36-1.7,1.72-1.41,2.96-2.81,4.18-4.75.8-1.28,1.24-2.16,1.7-3.4h-2.75Z"/></g></svg>