<?xml version="1.0" encoding="UTF-8"?><svg id="_レイヤー_2" xmlns="http://www.w3.org/2000/svg" viewBox="0 0 426.14 332.1"><defs><style>.cls-1{fill:#54c2f0;}.cls-1,.cls-2,.cls-3{stroke-width:0px;}.cls-2,.cls-4{fill:#fff100;}.cls-4{stroke:#54c2f0;stroke-miterlimit:10;stroke-width:1.31px;}.cls-3{fill:#54c2f0;}</style></defs><g id="DESIGN"><path class="cls-2" d="M355.28,269.39c-1.52-2.8-3.75-5.45-7-7.11-2.51-1.28-5.65-1.97-9.57-1.68-.3,3.97.42,7.15,1.73,9.68h0c1.71,3.29,4.44,5.52,7.3,7.03"/><path class="cls-2" d="M378.79,308.9c1.52,2.8,3.75,5.45,7,7.11,2.51,1.28,5.65,1.97,9.57,1.68.3-3.97-.42-7.15-1.73-9.68h0c-1.71-3.29-4.44-5.52-7.3-7.03"/><path class="cls-2" d="M372.66,267.63c.97-3.21,1.32-6.83.17-10.46-.89-2.8-2.68-5.62-5.78-8.28-3.19,2.75-5.04,5.65-5.97,8.51h0c-1.2,3.71-.86,7.39.11,10.62"/><path class="cls-2" d="M361.54,311.65c-.9,3.06-1.2,6.51-.07,9.98.87,2.68,2.61,5.39,5.58,7.95,3.02-2.6,4.76-5.35,5.62-8.07h0c1.12-3.53.76-7.04-.2-10.13"/><path class="cls-2" d="M345.26,283.74c-3.21-.97-6.83-1.32-10.46-.17-2.8.89-5.62,2.68-8.28,5.78,2.75,3.19,5.65,5.04,8.51,5.97h0c3.71,1.21,7.38.86,10.62-.11"/><path class="cls-2" d="M389.28,294.85c3.06.9,6.51,1.2,9.98.07,2.68-.87,5.39-2.61,7.95-5.58-2.6-3.02-5.35-4.76-8.07-5.62h0c-3.53-1.12-7.04-.76-10.13.19"/><path class="cls-2" d="M386.31,277.56c2.95-1.61,5.73-3.94,7.46-7.34,1.33-2.62,2.03-5.89,1.69-9.95-4.2-.27-7.55.49-10.22,1.88h0c-3.46,1.8-5.79,4.66-7.37,7.64"/><path class="cls-2" d="M347.51,301.16c-2.79,1.55-5.42,3.8-7.05,7.06-1.26,2.53-1.92,5.67-1.6,9.58,3.98.26,7.14-.48,9.66-1.81h0c3.27-1.73,5.48-4.49,6.96-7.36"/><path class="cls-2" d="M366.92,266.01c6.38,0,12.15,2.59,16.33,6.76,4.18,4.18,6.76,9.95,6.76,16.33s-2.59,12.15-6.76,16.33c-4.18,4.18-9.95,6.76-16.33,6.76s-12.15-2.59-16.33-6.76c-4.18-4.18-6.76-9.95-6.76-16.33s2.59-12.15,6.76-16.33c4.18-4.18,9.95-6.76,16.33-6.76Z"/><path class="cls-1" d="M319.61,184.95l-68.16,38.13s-36.18,26.69-84.44-1.1l-55-33.94c-10.96-4.73-9.23-14.99-9.23-14.99l-1.45-112.95c.47-11.83,10.69-16.18,10.69-16.18,33.01-18.04,53.72-33.46,53.72-33.46,0,0,36.14-23.12,80.12-.61l70.39,39.85s9.71,5.05,9.71,17.87v101.54s.03,11.96-6.35,15.84Z"/><path class="cls-2" d="M413.91,133.49l6.9-5.51c11.99-8.46,0-19.82,0-19.82l-7.39-5.51c-7.07-4.98-7.89,4.4-7.89,4.4l-.64,23.13s-.33,10.46,9.03,3.3Z"/><path class="cls-2" d="M373.75,152.1c.01,3.69,2.63,5.18,5.81,3.31l11.2-6.59c3.18-1.87,5.79-6.42,5.81-10.11l.16-41.15c.01-3.69-2.58-8.22-5.77-10.08l-11.69-6.79c-3.19-1.85-5.77-.35-5.73,3.34l.23,68.07Z"/><path class="cls-2" d="M339.92,172.14c0,3.69,2.6,5.17,5.78,3.3l10.97-6.47c3.18-1.87,5.79-6.42,5.8-10.11l.31-80.72c.01-3.69-2.59-8.21-5.79-10.06l-11.27-6.49c-3.2-1.84-5.81-.33-5.81,3.36v107.19Z"/><path class="cls-2" d="M12.23,133.49l-6.9-5.51c-11.99-8.46,0-19.82,0-19.82l7.39-5.51c7.07-4.98,7.89,4.4,7.89,4.4l.64,23.13s.33,10.46-9.03,3.3Z"/><path class="cls-2" d="M52.39,152.1c-.01,3.69-2.63,5.18-5.81,3.31l-11.2-6.59c-3.18-1.87-5.79-6.42-5.81-10.11l-.16-41.15c-.01-3.69,2.58-8.22,5.77-10.08l11.69-6.79c3.19-1.85,5.77-.35,5.73,3.34l-.23,68.07Z"/><path class="cls-2" d="M86.22,172.14c0,3.69-2.6,5.17-5.78,3.3l-10.97-6.47c-3.18-1.87-5.79-6.42-5.8-10.11l-.31-80.72c-.01-3.69,2.59-8.21,5.79-10.06l11.27-6.49c3.2-1.84,5.81-.33,5.81,3.36v107.19Z"/><path class="cls-2" d="M156.38,90.33c.83.83,1.25,1.84,1.25,3.01v11.75c0,1.17-.42,2.18-1.25,3.01-.83.83-1.84,1.25-3.01,1.25h-24.24l-1.17,1.18v12.56h-8.52v-29.75c0-1.18.42-2.18,1.25-3.01.83-.83,1.84-1.25,3.01-1.25h29.67c1.17,0,2.18.42,3.01,1.25ZM147.93,102.08l1.17-1.17v-3.38l-1.17-1.18h-18.8l-1.17,1.18v3.38l1.17,1.17h18.8Z"/><path class="cls-2" d="M206.1,89.16v29.67c0,1.17-.42,2.18-1.25,3.01-.83.83-1.84,1.25-3.01,1.25h-28.94c-1.13,0-2.13-.39-3.01-1.18-.83-.83-1.25-1.84-1.25-3.01v-29.75h8.52v25.56l1.17,1.18h18.07l1.17-1.18v-25.56h8.52Z"/><path class="cls-2" d="M247.38,114.28c1.27,1.13,2.82,2.44,4.63,3.93,1.81,1.49,3.84,3.12,6.1,4.88h-12.63l-15.5-13.88c-.49-.44-.89-.92-1.21-1.43-.32-.51-.48-1.19-.48-2.02,0-.24.02-.5.07-.77.05-.27.12-.53.22-.77.24-.64.66-1.15,1.25-1.54.59-.39,1.35-.59,2.28-.59h13.51l1.17-1.17v-3.31l-1.17-1.25h-18.73l-1.25,1.25v25.49h-8.45l-.07-29.67c0-1.18.42-2.18,1.25-3.01.83-.83,1.84-1.25,3.01-1.25h29.67c1.17,0,2.18.42,3.01,1.25.83.83,1.25,1.84,1.25,3.01v11.68c0,1.17-.42,2.18-1.25,3.01-.83.83-1.84,1.25-3.01,1.25h-7.78v1.47c1.22,1.03,2.59,2.18,4.11,3.45Z"/><path class="cls-2" d="M277.64,100.93l1.25,1.23h21.01v7.2h-21.01l-1.25,1.25v4.11l1.25,1.18h28.5v7.27h-34c-1.17,0-2.18-.42-3.01-1.25-.83-.83-1.25-1.84-1.25-3.01v-25.56c0-1.18.42-2.18,1.25-3.01.83-.83,1.84-1.25,3.01-1.25h34v7.34h-28.5v.07l-1.25,1.16v3.26Z"/><path class="cls-2" d="M137.93,136.53c.42.42.62.92.62,1.5v6.28c0,.59-.21,1.09-.62,1.5-.42.42-.92.62-1.5.62h-16.66v-3.63h13.95l.59-.59v-2.09l-.59-.59h-12.15c-.59,0-1.09-.21-1.5-.62-.42-.42-.62-.92-.62-1.5v-5.84c0-.59.21-1.09.62-1.5.42-.42.92-.62,1.5-.62h16.63v3.6h-13.91l-.59.62v1.65l.59.59h12.15c.59,0,1.09.21,1.5.62Z"/><path class="cls-2" d="M163.62,133.04h-7.96l-.62.62v12.74h-4.26v-12.74l-.59-.62h-7.96v-3.6h21.4v3.6Z"/><path class="cls-2" d="M182.41,142c.64.56,1.41,1.22,2.31,1.96.9.75,1.92,1.56,3.05,2.44h-6.31l-7.74-6.94c-.24-.22-.45-.46-.61-.72-.16-.26-.24-.59-.24-1.01,0-.12.01-.25.04-.39.02-.13.06-.26.11-.39.12-.32.33-.57.62-.77.29-.2.67-.29,1.14-.29h6.75l.59-.59v-1.65l-.59-.62h-9.36l-.62.62v12.74h-4.22l-.04-14.83c0-.59.21-1.09.62-1.5s.92-.62,1.5-.62h14.83c.59,0,1.09.21,1.51.62.42.42.62.92.62,1.5v5.84c0,.59-.21,1.09-.62,1.5s-.92.62-1.51.62h-3.89v.73c.61.51,1.3,1.09,2.06,1.73Z"/><path class="cls-2" d="M195.7,135.33l.62.62h10.5v3.6h-10.5l-.62.62v2.06l.62.59h14.24v3.63h-16.99c-.59,0-1.09-.21-1.5-.62-.42-.42-.62-.92-.62-1.5v-12.77c0-.59.21-1.09.62-1.5.42-.42.92-.62,1.5-.62h16.99v3.67h-14.24v.04l-.62.58v1.63Z"/><path class="cls-2" d="M233.87,129.45v14.83c0,.59-.21,1.09-.62,1.5-.42.42-.92.62-1.5.62h-1.03c-.64,0-1.17-.24-1.61-.73-1.71-1.84-3.18-3.41-4.4-4.73-1.22-1.32-2.24-2.41-3.05-3.27-.95-1-1.74-1.86-2.35-2.57h-.81v11.3h-4.26v-14.83c0-.59.21-1.09.62-1.5s.92-.62,1.5-.62h1.98c.34,0,.65.07.94.22.28.15.52.32.72.51,1.47,1.61,2.76,3.03,3.87,4.26,1.11,1.22,2.05,2.25,2.81,3.08.88.98,1.64,1.82,2.28,2.53h.66v-10.61h4.26Z"/><path class="cls-2" d="M252.4,134.37v-.73l-.62-.59h-9.4l-.59.59v8.55l.59.59h9.4l.59-.59v-2.08l-.59-.59h-6.06v-3.6h8.77c.59,0,1.09.21,1.51.62.42.42.62.92.62,1.5v6.24c0,.59-.21,1.09-.62,1.5-.42.42-.92.62-1.51.62h-14.83c-.59,0-1.09-.21-1.5-.62-.42-.42-.62-.92-.62-1.5v-12.74c0-.59.21-1.09.62-1.5s.92-.62,1.5-.62h14.86c.59,0,1.08.21,1.49.62.4.42.61.92.61,1.5v2.83h-4.22Z"/><path class="cls-2" d="M281.69,133.04h-7.96l-.62.62v12.74h-4.26v-12.74l-.59-.62h-7.96v-3.6h21.4v3.6Z"/><path class="cls-2" d="M304.41,129.45v16.96h-4.22v-6.28l-.62-.59h-9.36l-.59.62v6.24h-4.26v-16.96h4.26v5.87l.59.59h9.36l.62-.59v-5.87h4.22Z"/><path class="cls-4" d="M367.87,331.27c-.15.11-.24.15-.42.18h-.07s-.06,0-.06,0c-.18-.02-.27-.06-.42-.18-3.55-2.92-5.59-6.04-6.61-9.15-1.26-3.84-.94-7.65.05-11,.11-.4.53-.62.93-.51.4.11.62.53.51.93-.91,3.11-1.21,6.61-.06,10.13.89,2.72,2.65,5.47,5.67,8.07,3.04-2.62,4.81-5.38,5.69-8.12,1.14-3.54.82-7.07-.11-10.19-.12-.4.11-.81.5-.93.4-.12.81.11.93.5,1.01,3.37,1.35,7.2.1,11.08-1.01,3.13-3.06,6.27-6.63,9.2"/><path class="cls-4" d="M397.57,318.38c-.01.07-.01.11-.04.18-.03.08-.07.15-.12.22-.03.04-.09.1-.13.13-.07.05-.14.09-.22.12-.07.02-.11.03-.18.04-4.58.45-8.24-.32-11.16-1.8-3.61-1.84-6.08-4.77-7.75-7.85-.2-.36-.06-.82.3-1.01.36-.2.82-.06,1.01.3,1.55,2.85,3.82,5.55,7.12,7.23,2.56,1.3,5.75,2,9.73,1.7.3-4.04-.42-7.27-1.76-9.84h0c-1.73-3.34-4.52-5.61-7.42-7.15-.37-.19-.51-.65-.31-1.01.19-.37.65-.51,1.01-.31,3.14,1.66,6.16,4.13,8.06,7.78,1.53,2.94,2.32,6.64,1.87,11.28"/><path class="cls-4" d="M409.44,288.26c.11.15.15.24.18.42v.07s0,.06,0,.06c-.02.18-.06.27-.18.42-2.96,3.6-6.13,5.65-9.28,6.65-3.91,1.24-7.78.86-11.18-.18-.39-.12-.62-.54-.5-.93.12-.39.54-.62.93-.5,3.14.96,6.7,1.32,10.29.18,2.76-.88,5.55-2.64,8.19-5.71-3.03-3.52-6.25-5.33-9.41-6.04-3.3-.75-6.54-.31-9.41.62-.39.13-.81-.09-.94-.48-.13-.39.09-.81.48-.94,3.09-1,6.6-1.47,10.19-.66,3.59.81,7.25,2.9,10.62,7.01"/><path class="cls-4" d="M337.76,319.39c-.07-.01-.11-.01-.18-.04-.08-.03-.15-.07-.22-.12-.04-.03-.1-.09-.13-.13-.05-.07-.09-.14-.12-.22-.02-.07-.03-.11-.04-.18-.45-4.62.33-8.3,1.84-11.23,1.87-3.63,4.85-6.1,7.96-7.77.36-.19.82-.06,1.01.31.19.36.06.82-.31,1.01-2.88,1.54-5.62,3.81-7.34,7.14-1.32,2.57-2.03,5.78-1.73,9.79,4.01.3,7.22-.41,9.78-1.73,3.32-1.7,5.58-4.44,7.13-7.31.2-.36.65-.5,1.01-.3.36.2.5.65.3,1.01-1.67,3.11-4.13,6.07-7.77,7.93-2.93,1.5-6.6,2.28-11.21,1.83"/><path class="cls-4" d="M366.76,246.04c.15-.11.24-.15.42-.18h.07s.06,0,.06,0c.18.02.27.06.42.18,3.55,2.92,5.59,6.04,6.61,9.15,1.26,3.84.94,7.65-.05,11-.11.4-.53.62-.93.51-.4-.11-.62-.53-.51-.93.91-3.11,1.21-6.61.06-10.13-.89-2.72-2.65-5.47-5.67-8.07-3.04,2.62-4.81,5.38-5.69,8.12-1.14,3.54-.82,7.07.11,10.19.12.4-.11.81-.5.93-.4.12-.81-.11-.93-.5-1.01-3.37-1.35-7.2-.1-11.08,1.01-3.13,3.06-6.27,6.63-9.2"/><path class="cls-4" d="M337.07,258.93c.01-.07.01-.11.04-.18.03-.08.07-.15.12-.22.03-.04.09-.1.13-.13.07-.05.14-.09.22-.12.07-.02.11-.03.18-.04,4.58-.45,8.24.32,11.16,1.8,3.61,1.84,6.08,4.77,7.75,7.85.2.36.06.82-.3,1.01-.36.2-.82.06-1.01-.3-1.55-2.85-3.82-5.55-7.12-7.23-2.56-1.3-5.75-2-9.73-1.7-.3,4.04.42,7.27,1.76,9.84h0c1.73,3.34,4.52,5.61,7.42,7.15.37.19.51.65.31,1.01-.19.37-.65.51-1.01.31-3.14-1.66-6.16-4.13-8.06-7.78-1.53-2.94-2.32-6.64-1.87-11.28"/><path class="cls-4" d="M396.88,257.92c.07.01.11.01.18.04.08.03.15.07.22.12.04.03.1.09.13.13.05.07.09.14.12.22.02.07.03.11.04.18.45,4.62-.33,8.3-1.84,11.23-1.87,3.63-4.85,6.1-7.96,7.77-.36.19-.82.06-1.01-.31-.19-.36-.06-.82.31-1.01,2.88-1.54,5.62-3.81,7.34-7.14,1.32-2.57,2.03-5.78,1.73-9.79-4.01-.3-7.22.41-9.78,1.73-3.32,1.7-5.58,4.44-7.13,7.31-.2.36-.65.5-1.01.3-.36-.2-.5-.65-.3-1.01,1.67-3.11,4.13-6.07,7.77-7.93,2.93-1.5,6.6-2.28,11.21-1.83"/><path class="cls-4" d="M324.87,289.7c-.11-.15-.15-.24-.18-.42v-.06s0-.07,0-.07c.02-.18.06-.27.18-.42,2.99-3.64,6.19-5.69,9.38-6.68,3.97-1.23,7.88-.8,11.3.28.39.12.61.54.49.94s-.54.61-.94.49c-3.17-1-6.78-1.41-10.41-.28-2.79.87-5.61,2.64-8.28,5.74,2.65,3.08,5.46,4.85,8.24,5.73,3.61,1.13,7.2.75,10.35-.23.39-.12.81.1.94.49.12.39-.1.81-.49.94-3.41,1.06-7.3,1.47-11.24.23-3.17-.99-6.36-3.05-9.33-6.67"/><path class="cls-4" d="M382.7,273.87c-3.98-3.98-9.48-6.44-15.55-6.44s-11.57,2.46-15.55,6.44c-3.98,3.98-6.44,9.48-6.44,15.55s2.46,11.57,6.44,15.55c3.98,3.98,9.48,6.44,15.55,6.44s11.57-2.46,15.55-6.44c3.98-3.98,6.44-9.48,6.44-15.55s-2.46-11.57-6.44-15.55M367.16,265.93c6.48,0,12.36,2.63,16.61,6.88,4.25,4.25,6.88,10.12,6.88,16.61s-2.63,12.36-6.88,16.61c-4.25,4.25-10.12,6.88-16.61,6.88s-12.36-2.63-16.61-6.88c-4.25-4.25-6.88-10.12-6.88-16.61s2.63-12.36,6.88-16.61c4.25-4.25,10.12-6.88,16.61-6.88Z"/><path class="cls-4" d="M335.21,290.17c-.41,0-.75-.34-.75-.75s.34-.75.75-.75h9.21c.41,0,.75.34.75.75s-.34.75-.75.75h-9.21Z"/><path class="cls-4" d="M345,312.56c-.29.29-.77.29-1.06,0-.29-.29-.29-.77,0-1.06l6.51-6.51c.29-.29.77-.29,1.06,0s.29.77,0,1.06l-6.51,6.51Z"/><path class="cls-4" d="M367.91,321.47c0,.41-.34.75-.75.75s-.75-.34-.75-.75v-9.21c0-.41.34-.75.75-.75s.75.34.75.75v9.21Z"/><path class="cls-4" d="M390.41,311.4c.29.29.29.77,0,1.06-.29.29-.77.29-1.06,0l-6.51-6.51c-.29-.29-.29-.77,0-1.06.29-.29.77-.29,1.06,0l6.51,6.51Z"/><path class="cls-4" d="M399.14,288.67c.41,0,.75.34.75.75s-.34.75-.75.75h-9.21c-.41,0-.75-.34-.75-.75s.34-.75.75-.75h9.21Z"/><path class="cls-4" d="M366.41,253.19c0-.41.34-.75.75-.75s.75.34.75.75v12.07c0,.41-.34.75-.75.75s-.75-.34-.75-.75v-12.07Z"/><path class="cls-4" d="M390.73,263.64c.29-.29.77-.29,1.06,0,.29.29.29.77,0,1.06l-7.88,7.88c-.29.29-.77.29-1.06,0-.29-.29-.29-.77,0-1.06l7.88-7.88Z"/><path class="cls-4" d="M342.52,264.24c-.29-.29-.29-.77,0-1.06.29-.29.77-.29,1.06,0l7.88,7.88c.29.29.29.77,0,1.06-.29.29-.77.29-1.06,0l-7.88-7.88Z"/><path class="cls-3" d="M126.01,241.44c1.22,0,2.54.13,3.96.4,1.42.27,2.74.72,3.96,1.35,1.22.63,2.22,1.47,3.01,2.53.79,1.06,1.18,2.38,1.18,3.96,0,1.94-.56,3.7-1.7,5.27-1.13,1.58-2.72,2.93-4.76,4.06-2.04,1.13-4.49,2.01-7.35,2.64s-6,.94-9.45.94c-3.88,0-8.07-.27-12.59-.81-.83,2.58-1.44,5.47-1.86,8.67-.41,3.19-.64,6.75-.67,10.66,1.36-.04,2.75-.06,4.17-.08,1.42-.02,2.88-.03,4.39-.03,2.01,0,4.04.03,6.08.08s4.11.12,6.19.19c.61.04,1.08.26,1.43.67.34.41.51.89.51,1.43,0,.57-.2,1.04-.59,1.4-.39.36-.86.54-1.4.54-2.05,0-4.08-.04-6.11-.11-2.03-.07-4.03-.11-6-.11-1.51,0-2.98,0-4.41.03-1.44.02-2.85.05-4.25.08,0,.5,0,.99.03,1.45.02.47.03.95.03,1.45,0,5.6-.84,10.58-2.53,14.93s-4.15,8.03-7.4,11.01c-3.25,2.98-7.24,5.24-11.97,6.78-4.74,1.54-10.17,2.31-16.31,2.31-4.52,0-8.53-.4-12.03-1.21-3.5-.81-6.57-1.87-9.2-3.2-2.64-1.33-4.9-2.83-6.78-4.49-1.88-1.67-3.45-3.35-4.71-5.06-1.26-1.7-2.26-3.35-3.01-4.95-.75-1.6-1.31-2.97-1.67-4.12-.04-.11-.06-.21-.08-.3-.02-.09-.03-.19-.03-.3,0-.54.2-1.01.59-1.43.39-.41.9-.62,1.51-.62.43,0,.82.13,1.16.38.34.25.58.59.73,1.02.32,1,.81,2.21,1.45,3.61.65,1.4,1.53,2.84,2.66,4.33,1.13,1.49,2.53,2.97,4.2,4.44,1.67,1.47,3.7,2.78,6.08,3.93,2.39,1.15,5.15,2.08,8.29,2.8s6.75,1.08,10.84,1.08c11.27,0,19.78-2.62,25.54-7.86s8.64-12.97,8.64-23.2c0-.43,0-.87-.03-1.32-.02-.45-.03-.89-.03-1.32-3.62.14-6.96.31-10.01.51-3.05.2-5.71.4-7.99.59-2.28.2-4.12.36-5.52.48-1.4.13-2.26.19-2.58.19-.61,0-1.15-.17-1.61-.51-.47-.34-.7-.85-.7-1.53,0-.5.18-.94.54-1.32.36-.38.79-.6,1.29-.67.04,0,.73-.07,2.07-.22,1.34-.14,3.2-.31,5.57-.51,2.37-.2,5.17-.39,8.4-.59,3.23-.2,6.74-.37,10.55-.51.07-7.93.9-14.6,2.48-20.02-3.91-.57-7.89-1.26-11.95-2.07-4.05-.81-8.09-1.66-12.11-2.56-4.02-.9-7.97-1.78-11.87-2.66-3.89-.88-7.63-1.68-11.22-2.39s-6.96-1.29-10.12-1.72c-3.16-.43-6.03-.65-8.61-.65-3.62,0-7,.37-10.12,1.1-3.12.74-5.82,1.8-8.1,3.2-2.28,1.4-4.07,3.11-5.38,5.14-1.31,2.03-1.96,4.33-1.96,6.92,0,1.69.31,3.2.94,4.55.63,1.35,1.34,2.49,2.12,3.44.79.95,1.53,1.69,2.21,2.21.68.52,1.06.8,1.13.83.32.18.56.43.7.75.14.32.21.65.21.97,0,.61-.21,1.1-.62,1.48-.41.38-.87.56-1.37.56-.4,0-.77-.12-1.13-.38-.86-.57-1.78-1.33-2.75-2.26-.97-.93-1.86-2-2.66-3.2-.81-1.2-1.48-2.56-2.02-4.06s-.81-3.14-.81-4.9c0-3.23.76-6.1,2.29-8.61,1.52-2.51,3.61-4.65,6.27-6.4s5.79-3.09,9.39-4.01,7.51-1.37,11.71-1.37c2.48,0,5.29.22,8.45.67,3.16.45,6.56,1.03,10.2,1.75,3.64.72,7.46,1.53,11.46,2.42,4,.9,8.08,1.8,12.24,2.72,4.16.92,8.34,1.79,12.54,2.61,4.2.83,8.31,1.53,12.32,2.1,1-2.8,2.45-5.21,4.33-7.24,1.88-2.03,4.03-3.69,6.43-4.98,2.4-1.29,4.96-2.24,7.67-2.85,2.71-.61,5.37-.92,7.99-.92ZM134.03,249.57c0-.86-.28-1.55-.83-2.07-.56-.52-1.25-.93-2.07-1.24-.83-.3-1.7-.51-2.61-.62-.92-.11-1.75-.16-2.5-.16-1.72,0-3.63.18-5.73.54-2.1.36-4.18,1-6.24,1.94-2.06.93-4,2.21-5.81,3.82-1.81,1.61-3.29,3.68-4.44,6.19,3.98.43,7.66.65,11.03.65,2.76,0,5.32-.22,7.67-.67,2.35-.45,4.38-1.07,6.08-1.86s3.04-1.74,4.01-2.85c.97-1.11,1.45-2.33,1.45-3.66Z"/><path class="cls-3" d="M170.07,306.19c-.39.83-.89,1.8-1.48,2.93s-1.26,2.31-2.02,3.53c-.75,1.22-1.6,2.43-2.53,3.63-.93,1.2-1.95,2.28-3.04,3.23-1.09.95-2.26,1.72-3.5,2.31-1.24.59-2.56.89-3.96.89-2.15,0-4-.66-5.54-1.99-1.54-1.33-2.85-3.07-3.93-5.22-1.08-2.15-1.95-4.6-2.61-7.35-.66-2.74-1.18-5.54-1.53-8.4-.36-2.85-.6-5.62-.73-8.31-.13-2.69-.19-5.08-.19-7.16,0-3.01.1-6.13.3-9.36.2-3.23.51-6.39.94-9.47.43-3.08.98-6.01,1.64-8.77.66-2.76,1.45-5.18,2.37-7.27.92-2.08,1.96-3.73,3.15-4.95,1.18-1.22,2.53-1.83,4.04-1.83,1.18,0,2.25.28,3.2.83.95.56,1.75,1.46,2.39,2.72s1.15,2.89,1.51,4.9c.36,2.01.54,4.47.54,7.37,0,3.59-.38,7.29-1.13,11.11-.75,3.82-1.78,7.67-3.07,11.54-1.29,3.88-2.82,7.74-4.58,11.6-1.76,3.86-3.64,7.62-5.65,11.27.9,4.56,2.1,8.14,3.61,10.74s3.32,3.9,5.44,3.9c1.43,0,2.82-.57,4.14-1.7,1.33-1.13,2.55-2.47,3.66-4.01,1.11-1.54,2.09-3.11,2.93-4.71.84-1.6,1.5-2.88,1.96-3.85.18-.36.43-.64.75-.83.32-.2.68-.3,1.08-.3.61,0,1.1.21,1.48.65s.57.92.57,1.45c0,.21-.07.5-.22.86ZM143.11,284.55c0,2.3.05,4.5.16,6.62.11,2.12.25,4.14.43,6.08,1.51-2.91,2.94-6,4.31-9.28,1.36-3.28,2.56-6.6,3.61-9.96,1.04-3.35,1.87-6.69,2.5-10.01s.94-6.49.94-9.5c0-4.23-.34-7.27-1.02-9.1-.68-1.83-1.6-2.74-2.75-2.74-.75,0-1.48.52-2.18,1.56-.7,1.04-1.35,2.46-1.96,4.25-.61,1.79-1.17,3.91-1.67,6.35-.5,2.44-.92,5.06-1.26,7.86-.34,2.8-.61,5.72-.81,8.77-.2,3.05-.3,6.08-.3,9.1Z"/><path class="cls-3" d="M191.22,315.17c-.9,0-1.69-.07-2.37-.21-.54,1.08-1.18,2.07-1.94,2.99-.75.92-1.62,1.71-2.61,2.39-.99.68-2.09,1.22-3.31,1.62-1.22.39-2.55.59-3.98.59-1.69,0-3.23-.3-4.63-.89-1.4-.59-2.62-1.42-3.66-2.48-1.04-1.06-1.85-2.33-2.42-3.82-.57-1.49-.86-3.13-.86-4.92,0-2.29.41-4.3,1.24-6,.82-1.7,1.78-3.12,2.85-4.25,1.08-1.13,2.15-1.97,3.23-2.53,1.08-.56,1.88-.83,2.42-.83.61,0,1.07.16,1.37.48.3.32.46.75.46,1.29,0,.61-.19,1.07-.57,1.37s-.85.6-1.43.89c-.57.29-1.18.69-1.83,1.21-.65.52-1.25,1.18-1.8,1.96-.56.79-1.01,1.72-1.37,2.8s-.54,2.28-.54,3.61c0,1.18.18,2.29.54,3.31.36,1.02.88,1.9,1.56,2.64.68.74,1.49,1.31,2.42,1.72.93.41,1.97.62,3.12.62,2.04,0,3.74-.47,5.09-1.43,1.35-.95,2.38-2.16,3.09-3.63-2.12-1.11-3.86-2.69-5.22-4.74-1.36-2.04-2.04-4.34-2.04-6.89,0-2.04.49-3.71,1.48-5,.99-1.29,2.29-1.94,3.9-1.94.97,0,1.88.23,2.74.7.86.47,1.62,1.2,2.29,2.21.66,1,1.19,2.3,1.59,3.88.39,1.58.59,3.46.59,5.65,0,1.15-.14,2.35-.43,3.61.21.04.43.05.65.05h.7c1.22,0,2.31-.14,3.28-.43s1.85-.72,2.64-1.29c.79-.57,1.5-1.31,2.13-2.21.63-.9,1.23-1.94,1.8-3.12.11-.22.34-.42.7-.62.36-.2.72-.3,1.08-.3.47,0,.91.19,1.32.56.41.38.62.87.62,1.48,0,.29-.07.6-.22.94-.14.34-.29.66-.43.94-.61,1.08-1.32,2.11-2.13,3.09-.81.99-1.76,1.85-2.85,2.58-1.09.74-2.32,1.32-3.69,1.75-1.36.43-2.89.63-4.57.59ZM182.02,301.61c0,.68.09,1.4.27,2.15.18.75.46,1.5.83,2.23.38.74.84,1.44,1.4,2.1.56.66,1.21,1.23,1.96,1.7.11-.75.16-1.49.16-2.21,0-.97-.07-1.96-.21-2.96-.14-1-.35-1.93-.62-2.77-.27-.84-.6-1.52-1-2.04-.4-.52-.86-.78-1.4-.78-.22,0-.5.16-.86.48-.36.32-.54,1.02-.54,2.1Z"/><path class="cls-3" d="M238.95,306.13c-.11,1.87-.36,3.74-.75,5.62-.39,1.88-1.01,3.58-1.86,5.08-.84,1.51-1.95,2.74-3.31,3.69-1.36.95-3.05,1.43-5.06,1.43-1.26,0-2.36-.19-3.31-.57-.95-.38-1.78-.88-2.48-1.51-.7-.63-1.28-1.35-1.75-2.15-.47-.81-.86-1.66-1.18-2.56-1.26,2.08-2.74,3.69-4.44,4.82-1.7,1.13-3.4,1.7-5.09,1.7-1.36,0-2.59-.25-3.69-.75s-2.03-1.21-2.8-2.13c-.77-.92-1.37-2.02-1.8-3.31-.43-1.29-.65-2.75-.65-4.36,0-2.69.24-5.01.73-6.97.48-1.96,1.02-3.56,1.62-4.82.59-1.26,1.39-2.51,2.39-3.77.18-.21.4-.38.67-.48.27-.11.55-.16.83-.16.57,0,1.05.21,1.43.62.38.41.57.89.57,1.43,0,.4-.14.83-.43,1.29-.14.21-.42.63-.83,1.24-.41.61-.83,1.44-1.26,2.48-.43,1.04-.82,2.31-1.16,3.82-.34,1.51-.51,3.28-.51,5.33s.43,3.72,1.29,4.82c.86,1.09,2.06,1.64,3.61,1.64.75,0,1.58-.21,2.48-.62.9-.41,1.74-1.05,2.53-1.91.79-.86,1.47-1.96,2.04-3.28.57-1.33.93-2.89,1.08-4.68l.7-9.26c.04-.54.26-.99.67-1.35.41-.36.89-.54,1.43-.54.61,0,1.09.22,1.45.67.36.45.54.96.54,1.53l-.59,8.88c-.11,1.9-.05,3.54.19,4.9.23,1.36.62,2.49,1.16,3.36s1.2,1.53,1.99,1.94,1.67.62,2.64.62c1.29,0,2.39-.38,3.28-1.13.9-.75,1.62-1.78,2.15-3.07s.92-2.79,1.16-4.49c.23-1.7.35-3.51.35-5.41,0-2.26-.13-4.14-.38-5.65s-.38-2.51-.38-3.01c0-.54.2-1.01.59-1.43.39-.41.88-.62,1.45-.62.5,0,.93.15,1.29.46.36.31.59.71.7,1.21.04.14.14.56.32,1.24s.43,1.5.75,2.45c.32.95.74,1.96,1.26,3.01.52,1.06,1.15,2.04,1.88,2.93.73.9,1.58,1.64,2.53,2.23.95.59,2.04.89,3.26.89.68,0,1.26-.13,1.75-.4s.89-.58,1.21-.94c.32-.36.56-.7.73-1.02.16-.32.26-.52.3-.59.18-.39.44-.71.78-.94.34-.23.71-.35,1.1-.35.61,0,1.1.22,1.48.67s.57.92.57,1.43c0,.43-.19,1-.57,1.72-.38.72-.91,1.41-1.59,2.07-.68.66-1.52,1.24-2.5,1.72-.99.48-2.07.73-3.26.73-1.04,0-2.01-.15-2.91-.46-.9-.3-1.73-.71-2.5-1.21-.77-.5-1.48-1.08-2.13-1.72-.65-.65-1.24-1.33-1.78-2.04Z"/><path class="cls-3" d="M258.76,315.17c.75,1.04,1.72,1.88,2.91,2.5,1.18.63,2.64.94,4.36.94s3.35-.42,4.79-1.26c1.43-.84,2.74-1.95,3.93-3.31,1.18-1.36,2.24-2.89,3.17-4.58.93-1.69,1.78-3.37,2.53-5.06.18-.39.43-.69.75-.89s.68-.3,1.08-.3c.61,0,1.1.21,1.48.65.38.43.56.9.56,1.4,0,.18-.02.33-.05.46-.04.13-.09.26-.16.4-2.48,5.45-5.18,9.56-8.1,12.32-2.92,2.76-6.23,4.18-9.93,4.25-2.37,0-4.41-.46-6.13-1.37-1.72-.92-3.14-2.1-4.25-3.55-1.11-1.45-1.94-3.09-2.48-4.92-.54-1.83-.81-3.66-.81-5.49s.22-3.52.67-5.06c.45-1.54,1.09-2.89,1.94-4.04s1.85-2.05,3.01-2.69,2.45-.97,3.85-.97c.82,0,1.64.17,2.45.51s1.53.83,2.18,1.45,1.17,1.39,1.56,2.29c.39.9.59,1.92.59,3.07,0,1.47-.25,2.85-.75,4.14-.5,1.29-1.19,2.49-2.07,3.61-.88,1.11-1.93,2.13-3.15,3.07-1.22.93-2.53,1.74-3.93,2.42ZM257.15,311.68c1.11-.47,2.13-1.06,3.04-1.78.92-.72,1.7-1.51,2.34-2.37.65-.86,1.15-1.77,1.51-2.72.36-.95.54-1.91.54-2.88,0-1.08-.27-1.89-.81-2.45-.54-.56-1.17-.83-1.88-.83-.97,0-1.79.27-2.48.81-.68.54-1.24,1.24-1.67,2.1-.43.86-.75,1.82-.94,2.88-.2,1.06-.3,2.11-.3,3.15,0,.65.06,1.33.19,2.04.12.72.28,1.4.46,2.04Z"/><path class="cls-3" d="M286.1,298.98c-.14.97-.32,1.88-.54,2.72-.22.84-.42,1.58-.62,2.21-.2.63-.37,1.14-.51,1.53-.14.4-.23.61-.27.65-.36.83-.99,1.24-1.88,1.24-.5,0-.97-.19-1.4-.57-.43-.38-.65-.85-.65-1.43,0-.21.04-.38.11-.48.07-.11.18-.32.32-.65.14-.32.32-.86.54-1.62.21-.75.48-1.92.81-3.5-.61,0-1.24-.02-1.88-.05-.65-.04-1.25-.16-1.8-.38-.56-.21-1.01-.56-1.37-1.02-.36-.47-.54-1.11-.54-1.94,0-.61.17-1.43.51-2.48.34-1.04.8-2.06,1.37-3.07.57-1,1.22-1.87,1.94-2.61.72-.73,1.43-1.1,2.15-1.1.83,0,1.5.3,2.02.91.52.61.92,1.36,1.21,2.23.29.88.49,1.8.62,2.77s.19,1.81.19,2.53c.61,0,1.21,0,1.8-.03.59-.02,1.16-.03,1.7-.03,2.05,0,3.61.45,4.68,1.34,1.08.9,1.61,2.37,1.61,4.41,0,.83-.05,1.69-.16,2.58s-.23,1.82-.38,2.77c-.14.95-.27,1.89-.38,2.83-.11.93-.16,1.85-.16,2.75,0,1.29.18,2.36.54,3.2.36.84.81,1.52,1.35,2.02.54.5,1.11.85,1.72,1.05s1.17.3,1.67.3c1.54,0,3-.5,4.36-1.51,1.36-1,2.62-2.21,3.77-3.63,1.15-1.42,2.18-2.92,3.09-4.49.92-1.58,1.68-2.96,2.29-4.14.18-.32.43-.57.75-.75.32-.18.66-.27,1.02-.27.65,0,1.15.21,1.51.62.36.41.54.87.54,1.37,0,.36-.07.68-.21.97-.83,1.47-1.79,3.13-2.88,4.98-1.09,1.85-2.34,3.58-3.74,5.19-1.4,1.62-2.97,2.98-4.71,4.09-1.74,1.11-3.65,1.67-5.73,1.67-1.29,0-2.51-.24-3.66-.73s-2.14-1.18-2.99-2.1c-.84-.92-1.52-2.04-2.02-3.39-.5-1.35-.75-2.86-.75-4.55,0-1.79.18-3.58.54-5.35.36-1.78.54-3.47.54-5.09,0-.68-.15-1.19-.46-1.53-.3-.34-.98-.51-2.02-.51h-1.64c-.59,0-1.23.02-1.91.05ZM282.49,294.99c0-.25,0-.58-.03-1-.02-.41-.05-.82-.11-1.21-.05-.39-.13-.73-.22-1.02-.09-.29-.19-.43-.3-.43s-.24.13-.4.4c-.16.27-.33.59-.51.97s-.34.78-.48,1.21-.25.79-.32,1.08h2.37Z"/><path class="cls-3" d="M181.15,267.26c-.04.72-.14,1.44-.29,2.17-.15.73-.39,1.38-.72,1.96-.33.58-.75,1.05-1.28,1.42-.53.37-1.18.55-1.95.55-.48,0-.91-.07-1.28-.22s-.68-.34-.95-.58-.5-.52-.67-.83-.33-.64-.46-.99c-.48.8-1.05,1.42-1.71,1.86-.66.44-1.31.65-1.96.65-.53,0-1-.1-1.42-.29s-.78-.47-1.08-.82-.53-.78-.7-1.28-.25-1.06-.25-1.68c0-1.04.09-1.93.28-2.69s.39-1.37.62-1.86c.23-.48.54-.97.92-1.45.07-.08.16-.14.26-.19.1-.04.21-.06.32-.06.22,0,.4.08.55.24s.22.34.22.55c0,.15-.06.32-.17.5-.06.08-.16.24-.32.48-.16.24-.32.55-.49.96-.17.4-.31.89-.45,1.47-.13.58-.2,1.27-.2,2.05s.17,1.44.5,1.86.79.63,1.39.63c.29,0,.61-.08.96-.24.34-.16.67-.41.97-.74s.57-.75.79-1.27c.22-.51.36-1.11.41-1.8l.27-3.57c.01-.21.1-.38.26-.52.16-.14.34-.21.55-.21.24,0,.42.09.56.26.14.17.21.37.21.59l-.23,3.42c-.04.73-.02,1.36.07,1.89.09.53.24.96.45,1.3.21.34.46.59.77.75.3.16.64.24,1.02.24.5,0,.92-.15,1.27-.44s.62-.68.83-1.18c.21-.5.36-1.08.45-1.73.09-.66.13-1.35.13-2.08,0-.87-.05-1.6-.15-2.18s-.15-.97-.15-1.16c0-.21.08-.39.23-.55s.34-.24.56-.24c.19,0,.36.06.5.18.14.12.23.27.27.47.01.06.05.21.12.48s.17.58.29.94c.12.37.29.75.49,1.16.2.41.44.79.73,1.13.28.35.61.63.97.86s.79.34,1.26.34c.26,0,.49-.05.67-.16.19-.1.34-.22.47-.36.12-.14.22-.27.28-.39.06-.12.1-.2.11-.23.07-.15.17-.27.3-.36.13-.09.27-.13.42-.13.24,0,.43.09.57.26.14.17.22.36.22.55,0,.17-.07.39-.22.66-.15.28-.35.54-.61.8s-.58.48-.96.66c-.38.19-.8.28-1.25.28-.4,0-.78-.06-1.12-.18s-.67-.27-.96-.47c-.3-.19-.57-.42-.82-.66s-.48-.51-.68-.79Z"/><path class="cls-3" d="M195.86,270.74c-.35,0-.65-.03-.91-.08-.21.42-.46.8-.75,1.15-.29.35-.63.66-1.01.92-.38.26-.81.47-1.28.62-.47.15-.98.23-1.54.23-.65,0-1.25-.11-1.78-.34-.54-.23-1.01-.55-1.41-.95s-.71-.9-.93-1.47c-.22-.57-.33-1.21-.33-1.9,0-.88.16-1.66.48-2.31.32-.66.68-1.2,1.1-1.64s.83-.76,1.24-.98c.42-.21.73-.32.93-.32.23,0,.41.06.53.19.12.12.18.29.18.5,0,.24-.07.41-.22.53s-.33.23-.55.34c-.22.11-.46.27-.71.47-.25.2-.48.45-.69.76-.21.3-.39.66-.53,1.08-.14.42-.21.88-.21,1.39,0,.46.07.88.21,1.28.14.39.34.73.6,1.02s.57.5.93.66.76.24,1.2.24c.79,0,1.44-.18,1.96-.55.52-.37.92-.83,1.19-1.4-.82-.43-1.49-1.04-2.01-1.83-.53-.79-.79-1.67-.79-2.66,0-.79.19-1.43.57-1.93.38-.5.88-.75,1.5-.75.37,0,.73.09,1.06.27s.62.46.88.85c.26.39.46.89.61,1.49.15.61.23,1.33.23,2.18,0,.44-.06.91-.17,1.39.08.01.17.02.25.02h.27c.47,0,.89-.06,1.27-.17.37-.11.71-.28,1.02-.5.3-.22.58-.5.82-.85.24-.35.47-.75.69-1.2.04-.08.13-.16.27-.24.14-.08.28-.11.42-.11.18,0,.35.07.51.22.16.15.24.34.24.57,0,.11-.03.23-.08.36-.05.13-.11.25-.17.36-.24.42-.51.81-.82,1.19-.31.38-.68.71-1.1,1s-.9.51-1.42.67c-.53.17-1.11.24-1.76.23ZM192.32,265.51c0,.26.03.54.1.83.07.29.18.58.32.86.15.28.33.55.54.81.21.26.47.47.76.65.04-.29.06-.57.06-.85,0-.37-.03-.75-.08-1.14-.06-.39-.13-.74-.24-1.07-.1-.32-.23-.59-.38-.79-.15-.2-.33-.3-.54-.3-.08,0-.19.06-.33.19-.14.12-.21.39-.21.81Z"/><path class="cls-3" d="M204.52,271.18c.21-.42.47-.93.8-1.55.33-.62.66-1.23,1.02-1.86.35-.62.7-1.21,1.04-1.76.34-.55.62-.98.86-1.27.4-.48.82-.83,1.25-1.04.43-.21.82-.31,1.18-.31s.67.08.92.23c.26.15.47.36.63.61s.29.55.37.89.12.7.12,1.09c0,.22-.01.51-.03.87-.02.36-.04.75-.06,1.16s-.04.84-.06,1.29c-.02.44-.04.86-.05,1.24.21-.42.44-.87.71-1.38s.53-1.01.8-1.5c.27-.5.53-.96.78-1.4s.48-.79.68-1.07c.59-.82,1.15-1.36,1.67-1.64.52-.28.98-.42,1.38-.42.47,0,.86.09,1.16.26.3.17.54.39.72.66s.29.57.36.9.1.65.1.95c0,.47-.03.96-.1,1.47s-.1,1.12-.1,1.83c0,.29.01.58.04.87.03.29.09.55.18.77.09.22.23.4.43.54.19.14.46.21.79.21.36,0,.71-.09,1.06-.28s.68-.43,1-.74c.32-.3.62-.65.9-1.04.28-.39.54-.78.78-1.16.24-.39.44-.76.62-1.11.18-.35.32-.65.44-.9.07-.15.17-.27.29-.35.12-.08.26-.12.42-.12.24,0,.43.09.57.26.15.17.22.36.22.55,0,.1-.02.19-.06.29-.06.11-.17.34-.33.7s-.39.75-.66,1.2c-.28.45-.6.92-.96,1.42s-.77.96-1.21,1.38-.92.77-1.43,1.04-1.05.4-1.62.4c-.61,0-1.1-.11-1.48-.32-.38-.21-.68-.5-.91-.86-.23-.36-.38-.77-.47-1.25-.08-.47-.12-.96-.12-1.47,0-.68.04-1.3.1-1.88.07-.57.1-1.02.1-1.34,0-.35-.03-.61-.09-.79-.06-.18-.14-.31-.23-.38-.09-.08-.18-.12-.26-.12s-.15-.01-.19-.01c-.33,0-.68.18-1.05.55s-.74.85-1.13,1.46c-.39.61-.79,1.3-1.19,2.08s-.82,1.56-1.23,2.37c-.24.44-.43.81-.59,1.1-.16.29-.31.52-.46.68s-.29.28-.42.35c-.14.07-.29.1-.46.1-.36,0-.63-.12-.82-.37s-.28-.57-.28-.98c0-.21,0-.48.02-.83s.03-.73.04-1.14.03-.84.06-1.29c.03-.44.05-.87.06-1.28s.03-.77.04-1.09.02-.56.02-.73c0-.36-.06-.62-.19-.78-.12-.16-.27-.24-.44-.24-.15,0-.32.06-.51.17s-.4.33-.65.64c-.19.25-.44.61-.74,1.09-.3.48-.61,1.01-.94,1.59s-.66,1.18-.99,1.79c-.33.61-.61,1.15-.84,1.64-.29.58-.58.98-.87,1.19-.29.21-.57.32-.85.32-.4,0-.7-.12-.89-.36s-.29-.56-.29-.96c0-.04,0-.29.03-.75.02-.46.04-1.01.07-1.67.03-.66.06-1.36.09-2.11.03-.75.07-1.44.09-2.09.01-.35,0-.66-.04-.96-.04-.29-.1-.46-.17-.52-.11.03-.33.28-.65.77-.33.48-.74,1.33-1.24,2.53-.07.15-.17.27-.31.35-.14.08-.28.12-.44.12-.24,0-.42-.08-.56-.24-.14-.16-.21-.34-.21-.55,0-.1.02-.2.06-.31.62-1.48,1.22-2.57,1.78-3.27s1.12-1.05,1.66-1.05c.32,0,.58.07.8.22.21.14.38.33.51.56.12.23.21.49.27.78.05.29.08.57.08.85,0,1.23-.03,2.36-.09,3.38-.06,1.02-.13,2.05-.2,3.09Z"/><path class="cls-3" d="M229.37,270.74c.29.4.66.72,1.12.96.46.24,1.02.36,1.68.36s1.29-.16,1.85-.49c.55-.32,1.06-.75,1.51-1.28s.86-1.11,1.22-1.76c.36-.65.68-1.3.97-1.95.07-.15.17-.27.29-.34.12-.08.26-.11.42-.11.23,0,.42.08.57.25s.22.35.22.54c0,.07,0,.13-.02.18-.01.05-.04.1-.06.16-.95,2.1-2,3.69-3.12,4.75-1.13,1.06-2.4,1.61-3.83,1.64-.91,0-1.7-.18-2.37-.53-.66-.35-1.21-.81-1.64-1.37-.43-.56-.75-1.19-.95-1.9-.21-.71-.31-1.41-.31-2.12s.09-1.36.26-1.95.42-1.11.75-1.56c.33-.44.71-.79,1.16-1.04s.94-.37,1.48-.37c.32,0,.63.07.94.2.31.13.59.32.84.56.25.24.45.54.6.88.15.35.23.74.23,1.18,0,.57-.1,1.1-.29,1.6-.19.5-.46.96-.8,1.39s-.74.82-1.21,1.18c-.47.36-.98.67-1.51.93ZM228.75,269.39c.43-.18.82-.41,1.17-.68s.65-.58.9-.91.44-.68.58-1.05c.14-.37.21-.74.21-1.11,0-.42-.1-.73-.31-.94-.21-.21-.45-.32-.73-.32-.37,0-.69.1-.95.31s-.48.48-.64.81-.29.7-.36,1.11c-.08.41-.11.81-.11,1.21,0,.25.02.51.07.79.05.28.11.54.18.79Z"/><path class="cls-3" d="M242.34,271.16c.22-.46.48-.96.77-1.5.29-.55.6-1.1.93-1.66.33-.56.68-1.12,1.05-1.67.37-.55.75-1.08,1.15-1.58.4-.48.81-.83,1.21-1.05s.79-.32,1.15-.32c.72,0,1.25.26,1.6.79s.52,1.18.52,1.95c0,.18-.01.4-.03.65-.02.26-.04.53-.06.82-.02.29-.04.58-.06.88-.02.3-.03.58-.03.84,0,.33.02.65.05.95.04.3.1.57.2.8.1.23.24.41.42.54.18.13.42.2.71.2.53,0,1.04-.2,1.54-.61s.96-.89,1.38-1.45c.42-.56.79-1.13,1.1-1.71.31-.58.54-1.05.69-1.41.07-.15.17-.27.3-.35.13-.08.27-.12.42-.12.24,0,.43.09.57.26.15.17.22.36.22.55,0,.1-.02.19-.06.29-.06.11-.17.34-.33.68-.17.35-.38.74-.65,1.19-.27.45-.58.93-.94,1.43-.36.5-.76.96-1.19,1.38s-.91.76-1.41,1.04-1.03.42-1.59.42c-.62,0-1.13-.12-1.51-.36-.39-.24-.69-.56-.91-.95-.22-.39-.37-.83-.45-1.31-.08-.48-.11-.96-.11-1.44,0-.21,0-.44.03-.71.02-.26.05-.54.08-.83.04-.29.06-.58.08-.87.02-.29.03-.57.03-.83,0-.44-.07-.74-.21-.9-.14-.16-.26-.24-.37-.24-.22,0-.47.13-.76.38-.28.26-.58.59-.89,1.01-.31.42-.63.88-.95,1.4-.33.52-.63,1.03-.91,1.54-.28.51-.55,1-.79,1.46-.24.46-.43.85-.57,1.15-.28.58-.55.97-.83,1.17-.28.2-.56.3-.85.3-.4,0-.72-.12-.96-.36-.24-.24-.36-.58-.36-1.03,0-.1.01-.29.04-.57.03-.28.06-.62.1-1.02.04-.39.08-.82.12-1.28.04-.46.08-.91.12-1.36.04-.45.08-.87.1-1.26.03-.39.04-.71.04-.97,0-.35-.01-.68-.04-1-.03-.32-.08-.51-.17-.58-.12.04-.35.3-.66.78s-.73,1.32-1.22,2.52c-.07.15-.17.27-.31.35-.14.08-.28.12-.44.12-.24,0-.42-.08-.56-.24-.14-.16-.21-.34-.21-.55,0-.1.02-.2.06-.31.62-1.48,1.21-2.57,1.75-3.27.55-.7,1.09-1.05,1.63-1.05.32,0,.59.08.81.24.22.16.4.37.53.63.13.26.23.55.29.87.06.32.09.64.09.98,0,.25-.02.64-.05,1.16-.04.53-.08,1.09-.14,1.69-.05.6-.11,1.2-.16,1.79s-.09,1.09-.13,1.49Z"/><path class="cls-3" d="M275.54,270.74c-.35,0-.65-.03-.91-.08-.21.42-.46.8-.75,1.15-.29.35-.63.66-1.01.92-.38.26-.81.47-1.28.62-.47.15-.98.23-1.54.23-.65,0-1.25-.11-1.78-.34-.54-.23-1.01-.55-1.41-.95s-.71-.9-.93-1.47c-.22-.57-.33-1.21-.33-1.9,0-.88.16-1.66.48-2.31.32-.66.68-1.2,1.1-1.64s.83-.76,1.24-.98c.42-.21.73-.32.93-.32.23,0,.41.06.53.19.12.12.18.29.18.5,0,.24-.07.41-.22.53s-.33.23-.55.34c-.22.11-.46.27-.71.47-.25.2-.48.45-.69.76-.21.3-.39.66-.53,1.08-.14.42-.21.88-.21,1.39,0,.46.07.88.21,1.28.14.39.34.73.6,1.02s.57.5.93.66.76.24,1.2.24c.79,0,1.44-.18,1.96-.55.52-.37.92-.83,1.19-1.4-.82-.43-1.49-1.04-2.01-1.83-.53-.79-.79-1.67-.79-2.66,0-.79.19-1.43.57-1.93.38-.5.88-.75,1.5-.75.37,0,.73.09,1.06.27s.62.46.88.85c.26.39.46.89.61,1.49.15.61.23,1.33.23,2.18,0,.44-.06.91-.17,1.39.08.01.17.02.25.02h.27c.47,0,.89-.06,1.27-.17.37-.11.71-.28,1.02-.5.3-.22.58-.5.82-.85.24-.35.47-.75.69-1.2.04-.08.13-.16.27-.24.14-.08.28-.11.42-.11.18,0,.35.07.51.22.16.15.24.34.24.57,0,.11-.03.23-.08.36-.05.13-.11.25-.17.36-.24.42-.51.81-.82,1.19-.31.38-.68.71-1.1,1s-.9.51-1.42.67c-.53.17-1.11.24-1.76.23ZM271.99,265.51c0,.26.03.54.1.83.07.29.18.58.32.86.15.28.33.55.54.81.21.26.47.47.76.65.04-.29.06-.57.06-.85,0-.37-.03-.75-.08-1.14-.06-.39-.13-.74-.24-1.07-.1-.32-.23-.59-.38-.79-.15-.2-.33-.3-.54-.3-.08,0-.19.06-.33.19-.14.12-.21.39-.21.81Z"/><path class="cls-3" d="M284,271.16c.22-.46.48-.96.77-1.5.29-.55.6-1.1.93-1.66.33-.56.68-1.12,1.05-1.67.37-.55.75-1.08,1.15-1.58.4-.48.81-.83,1.21-1.05s.79-.32,1.15-.32c.72,0,1.25.26,1.6.79s.52,1.18.52,1.95c0,.18-.01.4-.03.65-.02.26-.04.53-.06.82-.02.29-.04.58-.06.88-.02.3-.03.58-.03.84,0,.33.02.65.05.95.04.3.1.57.2.8.1.23.24.41.42.54.18.13.42.2.71.2.53,0,1.04-.2,1.54-.61s.96-.89,1.38-1.45c.42-.56.79-1.13,1.1-1.71.31-.58.54-1.05.69-1.41.07-.15.17-.27.3-.35.13-.08.27-.12.42-.12.24,0,.43.09.57.26.15.17.22.36.22.55,0,.1-.02.19-.06.29-.06.11-.17.34-.33.68-.17.35-.38.74-.65,1.19-.27.45-.58.93-.94,1.43-.36.5-.76.96-1.19,1.38s-.91.76-1.41,1.04-1.03.42-1.59.42c-.62,0-1.13-.12-1.51-.36-.39-.24-.69-.56-.91-.95-.22-.39-.37-.83-.45-1.31-.08-.48-.11-.96-.11-1.44,0-.21,0-.44.03-.71.02-.26.05-.54.08-.83.04-.29.06-.58.08-.87.02-.29.03-.57.03-.83,0-.44-.07-.74-.21-.9-.14-.16-.26-.24-.37-.24-.22,0-.47.13-.76.38-.28.26-.58.59-.89,1.01-.31.42-.63.88-.95,1.4-.33.52-.63,1.03-.91,1.54-.28.51-.55,1-.79,1.46-.24.46-.43.85-.57,1.15-.28.58-.55.97-.83,1.17-.28.2-.56.3-.85.3-.4,0-.72-.12-.96-.36-.24-.24-.36-.58-.36-1.03,0-.1.01-.29.04-.57.03-.28.06-.62.1-1.02.04-.39.08-.82.12-1.28.04-.46.08-.91.12-1.36.04-.45.08-.87.1-1.26.03-.39.04-.71.04-.97,0-.35-.01-.68-.04-1-.03-.32-.08-.51-.17-.58-.12.04-.35.3-.66.78s-.73,1.32-1.22,2.52c-.07.15-.17.27-.31.35-.14.08-.28.12-.44.12-.24,0-.42-.08-.56-.24-.14-.16-.21-.34-.21-.55,0-.1.02-.2.06-.31.62-1.48,1.21-2.57,1.75-3.27.55-.7,1.09-1.05,1.63-1.05.32,0,.59.08.81.24.22.16.4.37.53.63.13.26.23.55.29.87.06.32.09.64.09.98,0,.25-.02.64-.05,1.16-.04.53-.08,1.09-.14,1.69-.05.6-.11,1.2-.16,1.79s-.09,1.09-.13,1.49Z"/><path class="cls-3" d="M310.1,267.28c-.15.32-.34.7-.57,1.13-.23.44-.49.89-.78,1.36-.29.47-.62.94-.97,1.4-.36.46-.75.88-1.17,1.25-.42.37-.87.66-1.35.89-.48.23-.99.34-1.52.34-.83,0-1.54-.26-2.14-.77-.6-.51-1.1-1.18-1.51-2.01-.42-.83-.75-1.77-1.01-2.83-.26-1.06-.45-2.14-.59-3.24-.14-1.1-.23-2.17-.28-3.21-.05-1.04-.07-1.96-.07-2.76,0-1.16.04-2.37.11-3.61.08-1.25.2-2.46.36-3.65.17-1.19.38-2.32.63-3.38.26-1.06.56-2,.91-2.8.35-.8.76-1.44,1.21-1.91.46-.47.97-.71,1.56-.71.46,0,.87.11,1.23.32.37.21.67.56.92,1.05.25.48.44,1.11.58,1.89.14.77.21,1.72.21,2.84,0,1.38-.14,2.81-.44,4.29-.29,1.47-.68,2.96-1.18,4.45s-1.09,2.98-1.76,4.47c-.68,1.49-1.4,2.94-2.18,4.35.35,1.76.81,3.14,1.39,4.14.58,1,1.28,1.5,2.1,1.5.55,0,1.08-.22,1.6-.65.51-.44.98-.95,1.41-1.54s.81-1.2,1.13-1.82c.33-.62.58-1.11.76-1.48.07-.14.17-.25.29-.32.12-.08.26-.11.42-.11.24,0,.43.08.57.25.15.17.22.35.22.56,0,.08-.03.19-.08.33ZM299.71,258.94c0,.88.02,1.74.06,2.55.04.82.1,1.6.17,2.34.58-1.12,1.13-2.31,1.66-3.58.53-1.27.99-2.54,1.39-3.84.4-1.29.72-2.58.96-3.86s.36-2.5.36-3.66c0-1.63-.13-2.8-.39-3.51s-.62-1.06-1.06-1.06c-.29,0-.57.2-.84.6-.27.4-.52.95-.76,1.64-.24.69-.45,1.51-.64,2.45-.19.94-.36,1.95-.49,3.03-.13,1.08-.24,2.21-.31,3.38s-.11,2.34-.11,3.51Z"/><path class="cls-3" d="M316.41,273.32c.48-.48.98-.98,1.47-1.48.5-.5.98-1.03,1.45-1.59.47-.55.91-1.13,1.32-1.73.41-.6.77-1.24,1.09-1.92.07-.15.17-.27.29-.34.12-.08.26-.11.42-.11.23,0,.42.08.57.25s.22.35.22.56c0,.11-.02.21-.06.31-.43.9-.92,1.72-1.47,2.47-.55.75-1.13,1.46-1.74,2.13s-1.22,1.32-1.85,1.95c-.62.63-1.22,1.26-1.78,1.9-.06.95-.06,1.91,0,2.87.05.96.08,1.98.08,3.06,0,.89-.03,1.77-.08,2.66-.06.88-.15,1.73-.27,2.54-.12.81-.29,1.57-.51,2.27s-.49,1.32-.82,1.84-.72.93-1.16,1.22c-.44.3-.96.45-1.56.45-.98,0-1.74-.34-2.26-1.02-.53-.68-.79-1.62-.79-2.84,0-.66.07-1.38.22-2.14.14-.76.35-1.55.61-2.35.26-.81.58-1.63.94-2.46s.76-1.64,1.19-2.43c.43-.79.88-1.54,1.37-2.25.48-.71.98-1.36,1.47-1.94.03-.66.06-1.35.09-2.06.03-.71.07-1.37.11-1.98-.36.64-.81,1.15-1.34,1.54-.53.39-1.12.58-1.75.58-1.05,0-1.87-.35-2.47-1.06-.59-.71-.89-1.67-.89-2.9,0-.9.09-1.72.26-2.46s.36-1.38.56-1.91c.2-.53.38-.94.55-1.22s.25-.42.25-.41c.15-.23.37-.35.64-.35.24,0,.43.08.57.24.14.16.22.34.22.55,0,.15-.04.29-.12.42.01-.01-.05.1-.2.34-.14.24-.3.59-.48,1.05-.17.46-.33,1-.48,1.64-.15.64-.22,1.33-.22,2.09s.14,1.36.42,1.79c.28.43.73.64,1.35.64.79,0,1.5-.58,2.14-1.75s1.18-2.87,1.62-5.09c.03-.18.11-.33.25-.45.14-.12.3-.18.5-.18.22,0,.41.08.56.23.15.15.23.34.23.56,0,.04-.03.29-.08.74-.06.45-.12,1.05-.2,1.79-.08.75-.16,1.62-.24,2.6-.08.99-.15,2.04-.21,3.16ZM314.75,277.71c-.62.9-1.19,1.85-1.71,2.84-.52,1-.96,1.99-1.34,2.97-.37.98-.66,1.92-.87,2.82-.21.9-.31,1.7-.31,2.41s.12,1.28.35,1.69.61.61,1.12.61c.46,0,.86-.22,1.21-.67.35-.45.65-1.09.89-1.92s.43-1.84.55-3.02c.12-1.18.19-2.51.19-3.97,0-.59,0-1.2-.03-1.8-.02-.61-.04-1.26-.05-1.95Z"/></g></svg>