<?xml version="1.0" encoding="UTF-8"?><svg id="_レイヤー_2" xmlns="http://www.w3.org/2000/svg" viewBox="0 0 154.7 154.7"><defs><style>.cls-1{fill:none;stroke:#54c2f0;stroke-miterlimit:10;}.cls-2{fill:#fff;}.cls-2,.cls-3{stroke-width:0px;}.cls-3{fill:#54c2f0;}</style></defs><g id="DESIGN"><circle class="cls-3" cx="77.35" cy="77.35" r="72.5"/><circle class="cls-1" cx="77.35" cy="77.35" r="76.85"/><path class="cls-2" d="M45.85,50.56c0,.66-.11,2.55-.48,4.27-.11.44-.2.88-.79.88-.46,0-.79-.26-.79-.73,0-.31.35-1.58.4-1.85.15-.81.18-1.01.31-2.46.07-.62.13-.95.77-.95.59,0,.59.59.59.84ZM51.61,47.04c1.23,0,2.18.18,2.18,1.92,0,1.56-.24,4.8-.79,6.27-.55,1.52-2.02,1.52-3.28,1.52-1.52,0-1.58-.02-1.85-.22-.31-.24-.46-.66-.46-1.17,0-1.03.59-1.14,1.25-1.14h1.54c.44,0,.86-.07,1.1-1.1.2-.77.35-2.86.35-3.32,0-.55-.18-.64-.64-.64h-3.94c-2.02,0-2.46-.42-2.46-2.46v-7.46c0-1.98.4-2.46,2.46-2.46h5.85c.31,0,1.17,0,1.17,1.14s-.84,1.17-1.17,1.17h-1.94v1.36h1.43c.31,0,1.06.02,1.06.9,0,.95-.73.99-1.06.99h-1.43v1.3h1.39c.24,0,1.08,0,1.08.95s-.81.95-1.08.95h-1.39v1.52h.62ZM47.56,50.47c.04.37.11,1.58.11,2.57,0,.75,0,1.25-.68,1.25-.57,0-.57-.48-.57-.62,0-.37.04-2,.04-2.33,0-.18-.02-.99,0-1.17.07-.37.46-.4.48-.4.53,0,.57.37.62.68ZM46.95,40.44h1.85v-1.36h-1.32c-.35,0-.53.18-.53.53v.84ZM48.8,42.33h-1.85v1.3h1.85v-1.3ZM46.95,45.52v.99c0,.33.18.53.53.53h1.32v-1.52h-1.85ZM49.17,50.47c.02.15.29,1.47.29,2.29,0,.35,0,.77-.57.77-.53,0-.53-.2-.59-1.45-.02-.29-.18-1.72-.18-1.8,0-.44.33-.48.51-.48.35,0,.46.18.55.68ZM50.75,50.41c.13.55.33,1.43.33,1.98,0,.26,0,.68-.51.68-.42,0-.44-.11-.55-1.08-.04-.29-.29-1.74-.29-1.89,0-.33.33-.37.42-.37.42,0,.44.13.59.68ZM60.26,46.82h2.11c.29,0,1.36,0,1.36,1.23s-1.06,1.28-1.36,1.28h-2.11v4.38h2.95c.33,0,1.36,0,1.36,1.28s-.92,1.32-1.36,1.32h-8.43c-.33,0-1.36,0-1.36-1.3,0-1.21.88-1.3,1.36-1.3h2.79v-4.38h-2.05c-.31,0-1.36,0-1.36-1.25s1.03-1.25,1.36-1.25h2.05v-3.81h-2.42c-.31,0-1.36,0-1.36-1.25,0-1.08.7-1.3,1.36-1.3h7.77c.31,0,1.36.02,1.36,1.28,0,1.1-.77,1.28-1.36,1.28h-2.66v3.81ZM60.3,37.49c.97.66,1.01.86,1.01,1.25,0,.9-.77,1.54-1.5,1.54-.46,0-.7-.18-1.28-.64-.29-.22-1.17-.79-1.91-1.25-.26-.15-.66-.42-.66-.95,0-.44.42-1.36,1.56-1.36.62,0,2.16.99,2.77,1.41Z"/><path class="cls-2" d="M76.03,41.32v-1.1h-7.44c-.55,0-1.32-.13-1.32-1.19,0-1.17,1.01-1.17,1.32-1.17h7.44v-.81c0-.95.75-1.06,1.45-1.06s1.25.24,1.25,1.06v.81h7.44c.46,0,1.32.09,1.32,1.19,0,1.17-1.01,1.17-1.32,1.17h-7.44v1.1h4.93c1.5,0,2.38.48,2.38,2.38v4.14c0,1.91-.88,2.4-2.38,2.4h-4.93v1.1h7.7c.68,0,1.32.2,1.32,1.21,0,1.12-.88,1.19-1.32,1.19h-7.7v1.89c0,1.03-.46,1.34-1.45,1.34-1.17,0-1.25-.86-1.25-1.34v-1.89h-7.75c-.7,0-1.32-.22-1.32-1.21,0-1.17.95-1.19,1.32-1.19h7.75v-1.1h-4.95c-1.56,0-2.38-.53-2.38-2.4v-4.14c0-1.87.84-2.38,2.38-2.38h4.95ZM76.03,43.39h-4.09c-.37,0-.53.2-.53.53v.75h4.62v-1.28ZM76.03,48.03v-1.36h-4.62v.84c0,.31.15.53.53.53h4.09ZM78.74,43.39v1.28h4.64v-.75c0-.33-.15-.53-.53-.53h-4.11ZM78.74,48.03h4.11c.37,0,.53-.22.53-.53v-.84h-4.64v1.36Z"/><path class="cls-2" d="M99.62,50.14c-.51.48-2.27,2.13-3.37,2.13-.64,0-.86-.42-.97-.62-.68.26-3.74,1.41-4.25,1.41-1.23,0-1.23-1.52-1.23-1.56,0-.73.51-.97.95-1.1.24-.09,1.32-.37,1.52-.44v-6.14h-1.03c-.99,0-1.28-.64-1.28-1.32,0-.84.42-1.34,1.28-1.34h1.03v-3.74c0-.33,0-1.34,1.32-1.34,1.17,0,1.32.75,1.32,1.34v3.74h.92c.24,0,1.03.13,1.03,1.19,0,.97-.35,1.47-1.03,1.47h-.92v5.32c.75-.26.9-.31,1.17-.31.64,0,.77.35.92.66,1.03-.77,1.58-1.58,2.02-2.22h-1.65c-.29,0-1.17,0-1.17-1.06s.81-1.1,1.17-1.1h12.34c.26,0,1.17,0,1.17,1.08s-.84,1.08-1.17,1.08h-8.01c-.24.46-.35.64-.53.92h6.56c.86,0,2.44,0,2.44,2.02,0,1.3-.18,4.25-.73,5.35-.53,1.1-1.52,1.17-2.9,1.17-1.06,0-2.07,0-2.07-1.19,0-.57.33-1.08.99-1.08.18,0,1.03.07,1.23.07.64,0,.77-.53.86-.97.2-.99.26-2.42.26-2.82,0-.62-.22-.62-.81-.62-.88,2.84-2.73,4.8-3.92,5.77-1.12.92-1.47.97-1.83.97-.75,0-1.19-.59-1.19-1.17,0-.48.11-.57,1.54-1.58.57-.42,2-1.58,3.06-3.98h-1.25c-1.01,1.87-2.44,3.41-4.38,4.67-.64.42-1.98,1.23-2.62,1.23s-1.08-.57-1.08-1.17.42-.79.77-.95c1.89-.88,3.83-2.2,4.77-3.79h-1.28ZM109.54,41.74c0,2.02-.44,2.46-2.46,2.46h-7.13c-2.02,0-2.46-.44-2.46-2.46v-2.46c0-1.98.4-2.46,2.46-2.46h7.13c2.02,0,2.46.44,2.46,2.46v2.46ZM106.97,39.67v-.46c0-.33-.15-.53-.53-.53h-5.88c-.42,0-.53.24-.53.53v.46h6.93ZM106.97,41.34h-6.93v.51c0,.29.11.53.53.53h5.88c.44,0,.53-.26.53-.53v-.51Z"/><path class="cls-2" d="M55.53,69.65c-.2.13-.57.4-.92.4-.73,0-1.32-.88-1.32-1.5,0-.53.42-.84.81-1.1l2.84-1.91c.33-.22.88-.59,1.58-.59,1.63,0,1.63,1.34,1.63,1.89v14.9c0,.62-.18,1.47-1.56,1.47-1.06,0-1.58-.42-1.58-1.47v-13.09l-1.47,1.01Z"/><path class="cls-2" d="M68.42,68.11c0-.99,0-2.82,2.66-2.82h6.16c.42,0,1.45.07,1.45,1.43s-1.01,1.43-1.45,1.43h-5.21c-.57,0-.73.2-.73.75v3.04c.84-.26,1.47-.46,2.46-.46,3.21,0,6.07,2.05,6.09,5.72,0,3.19-2.29,6.01-6.97,6.01-1.17,0-2.95-.2-4.42-.84-.7-.31-1.01-.64-1.01-1.34,0-.84.59-1.5,1.25-1.5.2,0,.55.11,1.25.33.62.2,1.47.48,2.77.48,3.43,0,3.98-2.07,3.98-3.1,0-1.74-1.28-2.93-3.21-2.93-1.21,0-1.78.42-2.4.88-.35.24-.84.4-1.28.4-1.41,0-1.41-1.01-1.41-1.61v-5.88Z"/><path class="cls-2" d="M88.79,65.42c.59-1.19.75-1.5,1.61-1.5s1.69.46,1.69,1.21c0,.35-.18.79-.77,1.83-.9,1.52-1.17,1.92-2.09,3.3,3.08-.09,5.35-.15,8.63-.42-.53-.62-.66-.75-1.83-1.94-.13-.13-.29-.48-.29-.79,0-.75.81-1.36,1.58-1.36.51,0,.75.24.88.35,1.32,1.23,1.94,1.94,2.62,2.75,1.58,1.89,2.44,2.99,2.44,3.63,0,.79-.81,1.52-1.74,1.52-.37,0-.62-.11-.81-.31-.15-.18-.77-1.12-.92-1.34-1.14.11-3.34.31-7.81.51-2.71.11-7.04.24-7.83.24-.55,0-1.56,0-1.56-1.43s.95-1.39,1.54-1.39c.29,0,1.63.02,1.91.02.66-1.03,1.41-2.18,2.75-4.88ZM101.38,81.66c0,2.18-.99,2.73-2.73,2.73h-11.29c-1.74,0-2.73-.55-2.73-2.73v-4.4c0-2.18.99-2.75,2.73-2.75h11.29c1.74,0,2.73.57,2.73,2.75v4.4ZM98.58,77.88c0-.51-.26-.79-.79-.79h-9.48c-.57,0-.79.33-.79.79v3.08c0,.57.33.79.79.79h9.48c.53,0,.79-.26.79-.79v-3.08Z"/><path class="cls-2" d="M51.08,93.69c.4,0,1.32.04,1.32,1.17,0,.68-.2,1.3-1.28,1.3h-.7v2.66h1.32c.53,0,1.32.09,1.32,1.17,0,.86-.29,1.32-1.32,1.32h-1.32v2.84h.84c.68,0,1.28.29,1.28,1.17s-.37,1.28-1.32,1.28h-17.21c-.37,0-1.34,0-1.34-1.21,0-1.1.75-1.23,1.34-1.23h1.58v-2.84h-2.09c-.35,0-1.34,0-1.34-1.17,0-.86.31-1.32,1.34-1.32h2.13v-1.94c-.51.48-1.47,1.41-2.18,1.41-.77,0-1.32-.77-1.32-1.43,0-.53.09-.59,1.5-1.69.99-.77,1.65-1.61,2.4-2.57.31-.4.64-.57,1.06-.57.62,0,1.43.44,1.43,1.1,0,.26-.11.42-.2.57h12.76ZM36.89,108.1c0,.81-1.08,2.73-1.17,2.88-.81,1.41-1.12,1.74-1.83,1.74-.77,0-1.58-.53-1.58-1.34,0-.37.02-.4.84-1.54.44-.59.73-1.23,1.19-2.2.13-.26.35-.68,1.08-.68.42,0,1.47.2,1.47,1.14ZM39.89,96.15h-1.85v2.66h1.85v-2.66ZM39.89,101.3h-1.85v2.84h1.85v-2.84ZM41.36,108.12c.09.7.15,2.11.15,3.04,0,.73,0,1.58-1.43,1.58-1.03,0-1.39-.46-1.39-1.25,0-.22.02-1.23.02-1.43,0-.29-.04-1.54-.04-1.8,0-.33.02-1.19,1.32-1.19.95,0,1.3.4,1.36,1.06ZM43.91,96.15h-1.87v2.66h1.87v-2.66ZM43.91,101.3h-1.87v2.84h1.87v-2.84ZM46.44,109c.2.62.62,1.89.62,2.46,0,1.01-1.23,1.14-1.63,1.14-1.08,0-1.17-.51-1.39-1.76-.09-.46-.31-1.39-.51-2.07-.07-.26-.15-.51-.15-.75,0-.73.75-1.01,1.45-1.01.95,0,1.03.26,1.61,1.98ZM47.96,96.15h-1.89v2.66h1.89v-2.66ZM47.96,101.3h-1.89v2.84h1.89v-2.84ZM51.37,108.19c1.06,1.65,1.61,2.57,1.61,3.1,0,1.01-1.21,1.34-1.69,1.34-.75,0-.9-.31-1.45-1.45-.22-.46-.81-1.5-1.14-2.11-.2-.33-.37-.66-.37-.99,0-.92,1.1-1.17,1.41-1.17.84,0,.9.09,1.65,1.28Z"/><path class="cls-2" d="M59.13,106.18c-.15.33-.48.97-.88,1.58-.77,1.25-1.19,1.39-1.56,1.39-.7,0-1.39-.75-1.39-1.56,0-.48.09-.57,1.14-1.85.24-.29,1.61-2,2.68-4.29h-2.33c-.97,0-1.36-.42-1.36-1.32,0-1.17,1.06-1.17,1.36-1.17h2.33v-5.59c0-.99.44-1.34,1.39-1.34,1.21,0,1.23.97,1.23,1.34v5.59h2.05c.75,0,1.34.24,1.34,1.25,0,1.17-.88,1.23-1.34,1.23h-2.05c.4.79,1.56,2.31,1.89,2.68,1.03,1.17,1.12,1.28,1.12,1.67,0,.62-.62,1.3-1.25,1.3-.57,0-.97-.53-1.76-1.94v6.45c0,.97-.42,1.34-1.36,1.34-1.25,0-1.25-1.01-1.25-1.34v-5.44ZM57.84,94.26c.37,1.08.77,2.53.77,2.95,0,.97-1.25.99-1.39.99-.66,0-.75-.37-.97-1.3-.13-.55-.51-1.76-.64-2.16-.07-.24-.11-.44-.11-.59,0-.64.73-.95,1.3-.95.62,0,.79.37,1.03,1.06ZM65.43,94.22c0,.46-.42,1.98-.75,2.88-.35.92-.59,1.14-1.08,1.14-.42,0-1.32-.24-1.32-1.01,0-.15.04-.33.4-1.41.15-.51.24-.73.46-1.69.09-.33.22-.9.88-.9,1.06,0,1.41.55,1.41.99ZM74.78,103.65c.09-.02.22-.02.35-.02.97,0,1.12.99,1.12,1.56,0,.53-.15.97-1.06,1.12l-1.03.18v5.06c0,.66-.18,1.36-1.3,1.36s-1.54-.31-1.54-1.36v-4.51l-5.21,1.01c-.97.2-1.45-.53-1.45-1.41s.46-1.1.99-1.21l5.68-1.1v-11c0-.64.18-1.34,1.3-1.34s1.54.29,1.54,1.34v10.43l.62-.11ZM68.75,100.02c1.28,1.03,1.54,1.3,1.54,1.8,0,.75-.75,1.5-1.43,1.5-.37,0-.44-.04-1.45-.95-.22-.22-1.32-1.1-1.52-1.3-.26-.26-.35-.46-.35-.75,0-.75.62-1.41,1.3-1.41.55,0,1.3.59,1.91,1.1ZM69.72,94.59c.97.84,1.14,1.03,1.14,1.58,0,.73-.62,1.41-1.34,1.41-.42,0-.46-.02-1.47-.97-.2-.2-1.21-1.08-1.41-1.25-.24-.22-.35-.48-.35-.79,0-.75.64-1.3,1.25-1.3s1.47.73,2.18,1.32Z"/><path class="cls-2" d="M92.73,109.22c0,.81.22.81,1.98.81.48,0,1.23-.02,1.41-.09.31-.13.33-.24.44-1.94.02-.44.09-1.23,1.23-1.23,1.41,0,1.41.99,1.41,1.5,0,2.53-.42,3.5-1.03,3.89-.51.31-.55.35-3.83.35-2.4,0-2.9-.02-3.48-.4-.86-.57-.86-1.63-.86-2.18v-5.41h-2.88c-.15,2.82-1.25,5.13-3.08,6.49-1.65,1.25-3.5,1.72-4.03,1.72-1.03,0-1.39-1.03-1.39-1.58,0-.4.29-.95.77-1.08,2.77-.75,4.69-1.91,5.04-5.54h-4.6c-.31,0-1.34,0-1.34-1.19,0-.95.4-1.32,1.34-1.32h18.04c.33,0,1.34,0,1.34,1.19,0,.9-.4,1.32-1.34,1.32h-5.15v4.69ZM96.18,93.91c1.65,0,2.55.53,2.55,2.55v2.09c0,.55-.11,1.34-1.28,1.34-1.01,0-1.5-.29-1.5-1.34v-1.47c0-.48-.22-.77-.75-.77h-12.74c-.51,0-.75.29-.75.77v1.47c0,.51-.11,1.34-1.25,1.34-1.08,0-1.5-.35-1.5-1.34v-2.09c0-1.8.68-2.55,2.53-2.55h5.92v-.7c0-.79.48-1.12,1.3-1.12s1.52.15,1.52,1.12v.7h5.94ZM94.6,97.96c.88,0,1.3.42,1.3,1.19,0,.88-.48,1.23-1.3,1.23h-11.51c-.46,0-1.3-.09-1.3-1.21,0-.68.31-1.21,1.3-1.21h11.51Z"/><path class="cls-2" d="M105.71,111.75c0,.4-.02,1.19-1.23,1.19s-1.25-.68-1.25-1.19v-8.82c-.11.09-.29.24-.64.24-.77,0-1.25-.84-1.25-1.61,0-.55.02-.59,1.08-2.38.51-.88,1.39-2.99,1.76-4.66.4-1.72.44-1.91.62-2.13.22-.26.59-.29.81-.29s1.28.04,1.28,1.1c0,.57-.46,2.66-1.17,4.71v13.84ZM116.03,93.8v-.75c0-.62.31-1.03,1.21-1.03s1.41.24,1.41,1.03v.75h2c.29,0,1.14,0,1.14,1.06,0,.95-.62,1.1-1.14,1.1h-2v1.45h2.55c.4,0,1.14.04,1.14,1.08,0,.92-.57,1.08-1.14,1.08h-11.44v4.03c0,.97-.02,4.36-.97,7.22-.42,1.28-.57,1.69-1.32,1.69-.48,0-1.43-.22-1.43-1.06,0-.29.04-.44.18-.84.73-2.33,1.19-3.81,1.19-6.91v-4.14h-.44c-.4,0-.77-.33-.77-1.03,0-1.1.75-1.12,1.19-1.12h2.82v-1.45h-1.98c-.26,0-1.14,0-1.14-1.08,0-.97.68-1.08,1.14-1.08h1.98v-.73c0-.57.24-1.06,1.21-1.06s1.43.26,1.43,1.03v.75h3.19ZM112.71,111.77c0,.33,0,1.14-1.1,1.14s-1.14-.68-1.14-1.14v-8.93c0-1.89.88-2.38,2.4-2.38h6.21c1.5,0,2.4.46,2.4,2.38v7.77c0,2.11-.86,2.11-2.51,2.11-.64,0-1.52,0-1.52-1.12,0-.86.44-1.06.9-1.06.31,0,.7,0,.7-.64v-1.25h-2.11v2.9c0,.29,0,1.14-1.08,1.14s-1.1-.84-1.1-1.14v-2.9h-2.05v3.12ZM114.75,103.7v-1.34h-1.41c-.26,0-.64,0-.64.53v.81h2.05ZM114.75,105.5h-2.05v1.39h2.05v-1.39ZM116.03,95.95h-3.19v1.45h3.19v-1.45ZM116.93,103.7h2.09v-.81c0-.37-.18-.53-.53-.53h-1.56v1.34ZM116.93,105.5v1.39h2.09v-1.39h-2.09Z"/></g></svg>