<?xml version="1.0" encoding="UTF-8"?><svg id="_レイヤー_2" xmlns="http://www.w3.org/2000/svg" viewBox="0 0 196.32 127.49"><defs><style>.cls-1{fill:#1a1a1a;}.cls-1,.cls-2,.cls-3{stroke-width:0px;}.cls-4{fill:none;stroke:#e7317d;stroke-linecap:round;stroke-linejoin:round;stroke-width:4px;}.cls-2{fill:#e7317d;}.cls-3{fill:#fff;}</style></defs><g id="BACK2"><circle class="cls-2" cx="148.26" cy="81.49" r="46"/></g><g id="DESIGN"><line class="cls-4" x1="149.66" y1="2" x2="149.66" y2="18.27"/><line class="cls-4" x1="138.34" y1="11.23" x2="140.51" y2="19.45"/><line class="cls-4" x1="118.66" y1="22.52" x2="124.64" y2="28.56"/><line class="cls-4" x1="180.66" y1="22.7" x2="174.63" y2="28.68"/><line class="cls-4" x1="161.04" y1="11.29" x2="158.81" y2="19.49"/><line class="cls-4" x1="123.84" y1="8.87" x2="131.98" y2="22.96"/><line class="cls-4" x1="104.92" y1="27.73" x2="119.01" y2="35.86"/><line class="cls-4" x1="194.32" y1="27.88" x2="180.23" y2="36.02"/><line class="cls-4" x1="175.46" y1="8.96" x2="167.32" y2="23.05"/><path class="cls-1" d="M2.16,101.51c-1.1,0-2.16-.84-2.16-1.89,0-.48.22-.97.7-1.45,3.56-3.48,4.75-7.75,4.93-11.66.04-1.01.88-1.5,1.76-1.5.97,0,1.94.57,1.94,1.63,0,.09,0,8.32-5.41,14.08-.53.57-1.14.79-1.76.79ZM30.98,93.68c0,1.14-1.01,1.72-1.98,1.72s-2.02-.62-2.02-1.76v-.04l.09-10.12c-1.67,3.08-3.83,5.76-4.88,6.21.84,1.01,1.85,2.9,1.85,3.56,0,.84-.84,1.45-1.58,1.45-.53,0-.97-.26-1.19-.88l-.09-.18c-2.82.88-5.81,1.14-5.94,1.14-.35,0-.66-.04-.88-.18v.53c.04,1.06.66,1.76,1.72,1.85,2.2.18,5.46.26,8.67.26s6.51-.09,8.76-.31c2.07-.22,2.64-1.32,2.64-2.82,0-1.23.97-1.76,1.98-1.76.57,0,2.46.18,2.46,2.16,0,6.51-6.16,6.56-15.45,6.56-3.87,0-7.75-.13-9.64-.26-3.3-.22-4.93-1.89-4.97-4.97,0-.92-.04-1.76-.04-2.55,0-3.39.13-5.9.22-8.71-8.01,0-8.1-.62-8.1-7.31,0-2.07.04-4.27.09-5.68.09-3.74,3.92-3.74,5.28-3.74.26-1.01.53-2.38.62-3.26.09-.92.92-1.36,1.76-1.36,1.01,0,2.11.66,2.11,1.85,0,.4-.22,1.41-.7,2.73,3.26,0,6.82.09,6.95,3.65.04,1.76.13,3.96.13,6.03,0,1.19-.04,2.29-.09,3.21-.13,2.02-1.32,3.48-4.18,3.74,0,2.82-.18,5.06-.22,7.83l.4-.13c.53-1.32,1.23-3.74,1.67-5.72.13-.7.75-1.01,1.36-1.01.75,0,1.54.48,1.54,1.32,0,.48-1.1,3.65-1.72,5.1.88-.13,1.76-.31,2.6-.44-.22-.4-.48-.7-.62-.92-.13-.22-.22-.4-.22-.57,0-.35.26-.66.62-.88-.18-.26-.26-.53-.26-.88,0-.4.18-.84.62-1.28,2.55-2.51,4.49-4.88,5.85-7.75l-4.93.13h-.04c-1.14,0-1.72-.84-1.72-1.67,0-.88.62-1.76,1.72-1.76h.04l5.9.04-.04-3.65-4.44.04h-.04c-1.14,0-1.72-.84-1.72-1.72s.57-1.76,1.72-1.76h.04l4.36.04-.04-3.52v-.04c0-1.23,1.01-1.89,2.02-1.89s1.98.66,1.98,1.89v.04s-.04,1.36-.09,3.52l5.02-.04h.04c1.1,0,1.67.88,1.67,1.76s-.53,1.72-1.67,1.72h-.04l-5.06-.04c0,1.14-.04,2.38-.04,3.65l7.04-.04c1.14,0,1.72.88,1.72,1.76s-.53,1.67-1.67,1.67h-.04l-6.16-.13c2.07,3.43,4.84,6.34,7.7,8.62.62.48.88,1.06.88,1.58,0,1.1-1.1,2.02-2.24,2.02-.48,0-1.01-.18-1.45-.62-1.8-1.8-4.05-4.71-5.72-7.53.04,5.28.13,10.43.13,10.43v.04ZM8.98,70.76c-.44,0-.88.04-1.19.04-1.36.04-1.63.57-1.63,3.74h2.82v-3.79ZM8.98,77.36h-2.82c0,3.83.09,3.96,1.41,4.05.31,0,.79.04,1.41.04v-4.09ZM15.09,74.54c0-.84-.04-1.63-.04-2.25-.04-1.1-.44-1.5-1.63-1.5h-1.14v3.74h2.82ZM12.28,77.36v4.09c.62,0,1.1-.04,1.36-.04,1.45-.09,1.5-.4,1.5-4.05h-2.86Z"/><path class="cls-1" d="M75.79,72.21c3.26.04,5.63,1.58,5.85,5.46.04,1.14.13,2.68.13,4.4,0,10.61-1.98,19.23-11.97,19.23-1.58,0-3.3-.22-5.1-.71-1.14-.31-1.72-1.28-1.72-2.24,0-1.14.75-2.2,2.07-2.2.22,0,.48,0,.75.09,1.41.4,2.73.62,3.96.62,3.26,0,7.53-1.32,7.53-14.61,0-4.71-.09-6.03-2.2-6.03-.79-.04-1.98-.04-3.39-.04s-3.04,0-4.75.04c-1.19,10.87-5.15,20.73-16.81,25.52-.35.13-.7.22-1.06.22-1.36,0-2.29-1.23-2.29-2.42,0-.79.44-1.63,1.45-2.02,9.95-4,13.2-12.1,14.17-21.25-5.94.04-11.53.13-11.53.13h-.04c-1.28,0-1.94-1.01-1.94-2.02s.66-2.02,1.98-2.02c0,0,5.72-.04,11.79-.09.09-2.16.09-4.4.09-6.6v-.04c0-1.41,1.19-2.16,2.38-2.16s2.24.7,2.24,2.07c0,2.24,0,4.44-.13,6.69h8.54Z"/><path class="cls-3" d="M119.18,90.31c-.22-2.49-.33-4.93-.33-7.37,0-2.2.11-4.47.28-6.84.77-10.09,6.01-15.66,13.5-15.66s12.56,5.34,13.44,15.02c.22,2.55.39,5.1.39,7.6,0,6.55-.5,22.33-13.83,22.33-7.33,0-12.56-5.34-13.44-15.08ZM139.68,90.54c.33-2.55.5-5.39.5-8.18,0-4.47,0-15.95-7.55-15.95-3.86,0-6.78,3.71-7.33,9.92-.17,2.15-.28,4.29-.28,6.38,0,2.44.11,4.87.39,7.25.66,5.92,3.64,9.34,7.22,9.34s6.28-3.25,7.05-8.76Z"/><path class="cls-3" d="M164.62,77.49c3.36-.12,4.96-2.44,4.96-5.86,0-2.9-2.37-5.22-5.73-5.22-2.64,0-4.41,1.45-5.84,3.02-.55.58-1.27.87-1.93.87-1.54,0-3.09-1.51-3.09-3.25,0-3.25,6.34-6.61,11.13-6.61,7,0,11.46,4.7,11.46,11.19,0,3.94-1.76,7.02-4.46,8.53,6.45,3.13,6.56,10.09,6.56,11.19,0,8.18-5.95,13.98-14.27,13.98s-13.17-5.1-13.17-7.83c0-1.86,1.6-3.48,3.25-3.48.72,0,1.49.35,2.15,1.1,2.48,2.9,4.24,4,8.04,4s7.93-3.07,7.93-7.89c0-5.92-3.36-7.71-7.27-7.71h-.5c-.33,0-.61.06-.83.06-1.71,0-2.92-1.57-2.92-3.07s1.16-3.02,2.87-3.02h1.65Z"/></g></svg>