<?xml version="1.0" encoding="UTF-8"?><svg id="_レイヤー_2" xmlns="http://www.w3.org/2000/svg" viewBox="0 0 526.22 100.55"><defs><style>.cls-1{fill:#000;}.cls-1,.cls-2,.cls-3,.cls-4{stroke-width:0px;}.cls-2{fill:#fff100;}.cls-3{fill:#1a1a1a;}.cls-4{fill:#fff;}</style></defs><g id="DESIGN"><rect class="cls-4" x="10.22" y="9.55" width="516" height="91" rx="45.5" ry="45.5"/><polygon class="cls-2" points="273.22 68.55 26.22 68.55 29.22 53.55 276.22 53.55 273.22 68.55"/><path class="cls-3" d="M45.74,36.7c1.45-.1,3.09-.24,4.44-.3,2.59-.13,4.84,1.68,3.6,4.07-4.1,7.84-8.74,14.66-18.19,18.4-2.86,1.11-4.24-2.19-1.45-3.16,7.47-2.59,13.02-9.32,15.5-15.03.27-.64,0-1.28-.81-1.25-1.41.03-3.87.27-5.38.44-2.29,3.03-5.25,6.56-7.57,8.14-2.25,1.51-4.24-1.38-1.95-2.79,3.23-1.98,7.6-8.17,9.15-10.83,1.11-1.88,4.47-.27,2.89,1.98l-.24.34Z"/><path class="cls-3" d="M70.29,56.03c-2.25,1.11-5.25.44-5.15-3.13.1-3.83.17-12.01.07-14.26-.1-2.59,3.46-2.32,3.53-.07.07,2.39-.03,9.92-.13,12.48-.03.94.84,1.28,1.65.84,5.18-2.69,9.85-7.43,12.14-11.1,1.41-2.25,4.44-.13,3.09,1.95-2.69,4.2-9.52,10.46-15.2,13.28Z"/><path class="cls-3" d="M96.05,43.09c-2.69.13-2.49-2.93-.24-3.03,1.92-.07,4.27-.13,6.69-.17.2-1.51.27-3.03.27-4.44-.03-2.56,3.56-2.29,3.53.13,0,1.28-.1,2.76-.34,4.27,1.38,0,2.69,0,3.87.03,2.62.07,4.51,1.45,4.44,4.17-.1,3.4-.74,8.27-2.15,10.79-2.08,3.7-6.62,4.74-9.92,2.02-1.72-1.41.07-4.34,2.15-2.76,1.82,1.38,3.53.77,4.71-.94,1.31-1.95,1.82-6.59,1.85-8.34.03-1.08-.64-1.95-1.85-1.98-1.04-.03-2.32,0-3.67,0-1.41,6.12-4.64,12.78-10.63,16.04-2.15,1.18-4.27-1.61-1.58-3.06,4.61-2.49,7.43-7.6,8.74-12.95-2.12.03-4.2.13-5.89.2Z"/><path class="cls-3" d="M128.98,31.38h5.35c1.41,0,2.19.47,2.56,1.14.17-.07.3-.07.47-.07.37,0,.77.13,1.04.54.47.64.94,1.31,1.48,1.92.91-.88,1.82-1.95,2.35-2.79.3-.47.71-.64,1.11-.64.87,0,1.75.77,1.75,1.65,0,.77-1.31,2.29-3.3,3.83.54.54,1.11,1.04,1.68,1.51,1.08-.91,2.25-2.05,2.86-2.89.3-.4.67-.57,1.08-.57.84,0,1.75.84,1.75,1.71,0,1.08-2.49,2.96-3.3,3.53,1.31.88,2.72,1.61,4.2,2.22.74.3,1.08.88,1.08,1.41,0,.87-.77,1.75-1.88,1.75-1.82,0-8.34-4.2-12.65-10.26-.03.07-.1.17-.17.24-4.81,6.73-11.6,10.49-12.75,10.49-.91,0-1.58-.81-1.58-1.65,0-.54.27-1.08.94-1.38,6.69-3.2,10.16-8.21,10.16-8.58,0-.24-.2-.34-.54-.34-1.24.03-1.82.07-3.73.07-.94,0-1.41-.71-1.41-1.41s.47-1.45,1.41-1.45h.03ZM123.8,59.3c-.98,0-1.48-.67-1.48-1.38s.5-1.41,1.48-1.41l7.8.07c-.3-.5-.64-.98-1.04-1.48-.17-.2-.24-.4-.24-.61,0-.57.61-1.08,1.28-1.21l-.84-.03c-2.02-.07-3.03-1.08-3.09-2.49,0-.47-.03-1.08-.03-1.71,0-.61.03-1.21.03-1.62.07-1.18.87-2.39,3.06-2.42,1.95-.07,3.93-.07,5.89-.07s3.93,0,5.85.07c1.85.03,2.83,1.11,2.93,2.22.03.44.07,1.08.07,1.71s-.03,1.31-.07,1.78c-.1,1.35-1.21,2.49-3.06,2.52l-1.01.03c.64.24,1.21.77,1.21,1.45,0,.37-.5,1.28-.87,1.85l7.4-.07c.94,0,1.45.74,1.45,1.45s-.44,1.35-1.45,1.35h-25.26ZM127,38.98c-1.08-.91-2.25-1.55-2.83-1.78-.57-.24-.81-.67-.81-1.11,0-.74.71-1.51,1.65-1.51.57,0,4.54,1.25,4.54,2.96,0,.91-.81,1.78-1.68,1.78-.3,0-.6-.1-.87-.34ZM142.37,49.07c0-.37,0-.77-.03-.94-.07-.81-.27-.81-5.04-.81-1.92,0-3.94,0-5.62.03-.94,0-1.04.34-1.04,1.71s.1,1.71,1.08,1.71c1.41.03,3.09.03,4.78.03s3.4,0,4.84-.03c1.01-.07,1.04-.61,1.04-1.71ZM133.12,43.15c-1.01,0-1.51-.71-1.51-1.38,0-.71.5-1.41,1.51-1.41h7.1c1.01,0,1.51.71,1.51,1.41s-.5,1.38-1.51,1.38h-7.1ZM138.33,56.57c.4-.81.77-1.75,1.01-2.46.13-.4.4-.67.71-.81-1.45.03-2.86.03-4.3.03-1.04,0-2.12,0-3.16-.03.13.03.3.1.4.2.6.5,1.61,1.98,2.05,3.06h3.3Z"/><path class="cls-3" d="M175.83,52.6c-.07.13-.17.27-.3.37-.47.47-4.51,4.17-6.29,4.17-.91,0-1.55-.74-1.55-1.48,0-.13.03-.27.07-.4-4.07,2.29-9.25,4-10.16,4-1.04,0-1.61-.77-1.61-1.55,0-.61.4-1.24,1.21-1.45,1.61-.4,3.03-.84,4.37-1.31v-8.88h-3.36c-.94,0-1.38-.61-1.38-1.24,0-.67.5-1.38,1.38-1.38h3.36v-2.39h-1.14c-.61,0-1.01-.27-1.21-.64-.71,1.04-1.28,1.21-1.75,1.21-.84,0-1.65-.61-1.65-1.38,0-.34.13-.67.44-1.01,1.48-1.65,3.16-4.27,4.24-6.59.57-1.24,1.51-1.88,2.46-1.88s1.98.64,2.72,1.88c.77,1.28,2.35,3.43,3.36,4.67.24.27.34.57.34.84,0,.81-.77,1.55-1.61,1.55-.2,0-.4-.03-.61-.13v.13c0,.67-.44,1.35-1.31,1.35h-1.31v2.39h3.09c.88,0,1.31.64,1.31,1.31s-.44,1.31-1.31,1.31h-3.09v7.7c.84-.37,1.65-.77,2.39-1.21.34-.2.67-.27.98-.27.77,0,1.38.54,1.38,1.24,0,.17-.03.34-.13.54,1.71-.87,3.16-1.98,4.61-3.3.3-.27.61-.37.91-.37.47,0,.91.3,1.14.71l-.03-8.37h-6.09c-.98,0-1.41-.61-1.41-1.24,0-.67.5-1.35,1.41-1.35h9.79c0-.54.07-1.21.07-1.88h-7.36c-.98,0-1.41-.61-1.41-1.21s.5-1.28,1.41-1.28h7.4v-.84c-.03-.94-.37-.94-2.15-.94h-5.75c-.87-.03-1.41-.71-1.41-1.41s.5-1.31,1.55-1.31c1.65,0,6.12,0,7.6.03,2.15.07,3.16,1.01,3.16,3.16,0,1.28-.07,3.93-.1,5.68h2.52c.91,0,1.35.64,1.35,1.28,0,.67-.44,1.31-1.35,1.31h-6.32c.3,1.68.84,3.36,1.61,4.98,1.18-.87,2.42-2.12,3.13-3.09.3-.4.67-.57,1.08-.57.84,0,1.68.81,1.68,1.68,0,1.31-3.33,3.6-4.57,4.34,1.24,1.95,2.86,3.7,4.67,5.04.37.27.54.64.54,1.01,0,.84-.81,1.71-1.75,1.71-1.58,0-4.67-4.04-6.39-8.74l.03,2.05.13,4.81v.17c0,1.75-.98,4.04-4.78,4.04-2.86,0-3.46-.64-3.46-1.71,0-.77.5-1.51,1.38-1.51.1,0,.2,0,.3.03.64.13,1.28.24,1.82.24,1.04,0,1.75-.4,1.75-1.95v-2.66ZM158.45,52.84c-.27-1.28-1.08-2.86-1.48-3.56-.13-.2-.17-.4-.17-.61,0-.67.77-1.11,1.51-1.11.4,0,.77.1,1.04.4.77.91,1.82,3.26,1.82,4.27s-.84,1.61-1.58,1.61c-.5,0-1.01-.3-1.14-1.01ZM166.05,38.45c-.98-1.38-1.95-3.2-2.52-4.1-.07-.13-.17-.2-.27-.2s-.2.07-.27.2c-.67,1.41-1.55,2.83-2.39,4.1h5.45ZM164.84,50.85c0-.24.1-.5.3-.81.4-.57.77-1.51,1.01-2.25.13-.5.57-.71,1.01-.71.77,0,1.65.57,1.65,1.35,0,.3-1.18,3.53-2.72,3.53-.64,0-1.24-.47-1.24-1.11ZM172.13,48.9c-.71-1.24-1.51-2.02-2.12-2.52-.3-.27-.44-.54-.44-.84,0-.67.77-1.31,1.51-1.31,1.01,0,3.8,2.46,3.8,3.7,0,.91-.84,1.68-1.65,1.68-.44,0-.84-.2-1.11-.71Z"/><path class="cls-3" d="M194.05,39.56c-2.05-.57-1.41-3.67.98-2.89,1.11.37,2.86.34,4.61-.1.34-1.11.5-2.19.67-3.4.3-1.98,3.26-1.61,3.2.3-.03.5-.24,1.24-.47,2.05.4-.2.77-.37,1.08-.57,1.51-1.08,3.63,1.01,1.48,2.56-.84.61-2.22,1.14-3.6,1.55-1.58,3.8-3.87,7.84-6.02,11.33-1.24,2.02-4.47.71-2.99-1.48,1.88-2.79,3.87-5.65,5.52-9.18-1.72.34-3.16.2-4.44-.17ZM199.84,58.49c-3.13-1.58-3.5-5.21-.03-6.76,2.09-.94,4.37-1.01,6.46-.64v-1.18c0-.84-.07-1.68-.1-2.52-.03-.67.03-1.61.17-2.25.4-1.85,3.36-1.41,3.03.61-.1.5-.2.87-.2,1.58,0,.77,0,1.61.03,2.59.03.64.1,1.34.13,2.08,1.78.74,3.26,1.78,4.1,2.69,1.92,2.12-.81,4.51-2.42,2.56-.5-.61-1.14-1.21-1.92-1.75-.98,2.69-5.18,5.04-9.25,2.99ZM200.91,54.08c-.91.47-.98,1.45.03,1.95,2.02,1.01,4.74.03,5.11-1.78.03-.1,0-.24.03-.34-1.72-.57-3.53-.64-5.18.17ZM208.41,41.67c-1.85.1-1.98-2.69.17-2.89,2.22-.2,4.57.2,6.19,1.18,2.29,1.38.54,4.17-1.11,3.13-1.58-1.01-3.3-1.51-5.25-1.41Z"/><path class="cls-3" d="M225.62,52.07c-.13-3.53.24-6.39.4-9.96.1-2.19.34-5.48.27-7.57-.07-2.49,3.73-2.29,3.67-.07-.07,2.12-.3,5.31-.47,7.57-.24,3.57-.74,6.63-.61,9.89.2,4.91,6.19,4.57,12.04-.03,2.19-1.72,4.24,1.38,2.32,2.93-6.56,5.35-17.32,6.32-17.62-2.76Z"/><path class="cls-3" d="M253.32,55.36c0-1.18.91-2.12,2.02-2.12s1.98.94,1.98,2.12-.91,2.12-1.98,2.12c-1.18,0-2.02-1.01-2.02-2.12ZM254.29,49.95l-.47-18.43h3.06l-.47,18.43h-2.12ZM267.61,55.36c0-1.18.91-2.12,1.98-2.12s2.02.94,2.02,2.12-.91,2.12-2.02,2.12-1.98-1.01-1.98-2.12ZM268.59,49.95l-.47-18.43h3.06l-.47,18.43h-2.12Z"/><path class="cls-3" d="M286.41,46.84c.25-.48.48-.88.81-1.31.4-.53.28-.5-.2-.35-1.89.61-1.46.61-3.18,1.26-.81.3-1.51.56-2.27.76-2.22.61-2.9-2.3-.88-2.73.53-.13,1.99-.4,2.8-.61,1.24-.3,3.46-.81,6.03-1.54,2.6-.73,4.64-1.34,6.86-1.49,1.56-.1,1.99,1.14,1.72,1.94-.15.43-.71.93-2.47.83-1.29-.08-2.88.4-3.73.71-1.41.5-2.7,2.02-3.26,2.95-2.22,3.71-.53,9.01,5.12,8.81,2.65-.1,2.83,2.88.15,2.85-7.62-.03-10.25-7.02-7.5-12.09ZM294.18,48.5c-1.34-.58-.33-2.14.91-1.69.71.25,2.07.96,2.65,1.59,1.03,1.11-.53,2.73-1.41,1.69-.35-.4-1.62-1.36-2.15-1.59ZM296.73,46.31c-1.36-.53-.38-2.15.86-1.74.71.23,2.07.91,2.68,1.51,1.06,1.06-.43,2.73-1.34,1.72-.35-.4-1.67-1.29-2.2-1.49Z"/><path class="cls-3" d="M307.39,43.09c-2.69.13-2.49-2.93-.24-3.03,1.92-.07,4.27-.13,6.69-.17.2-1.51.27-3.03.27-4.44-.03-2.56,3.56-2.29,3.53.13,0,1.28-.1,2.76-.34,4.27,1.38,0,2.69,0,3.87.03,2.62.07,4.51,1.45,4.44,4.17-.1,3.4-.74,8.27-2.15,10.79-2.08,3.7-6.62,4.74-9.92,2.02-1.71-1.41.07-4.34,2.15-2.76,1.82,1.38,3.53.77,4.71-.94,1.31-1.95,1.82-6.59,1.85-8.34.03-1.08-.64-1.95-1.85-1.98-1.04-.03-2.32,0-3.67,0-1.41,6.12-4.64,12.78-10.63,16.04-2.15,1.18-4.27-1.61-1.58-3.06,4.61-2.49,7.43-7.6,8.74-12.95-2.12.03-4.2.13-5.89.2Z"/><path class="cls-3" d="M340.78,43.69c-1.24-1.14-3.4-2.12-4.98-2.49-2.02-.47-1.18-3.87,1.38-3.16,1.78.5,4.3,1.41,5.92,2.56,1.04.74.98,2.02.44,2.79s-1.71,1.24-2.76.3ZM338.69,57.58c-2.86.91-3.93-2.93-1.14-3.63,6.76-1.71,13.55-8.68,16.95-15.27,1.08-2.08,4.54-.67,3.06,1.98-4.17,7.57-11.13,14.46-18.87,16.92Z"/><path class="cls-3" d="M366.12,58.93c-2.69,1.04-4-2.12-1.45-2.96,4.64-1.55,8.37-4.44,11.23-7.67-1.21-.74-2.46-1.31-3.53-1.61-1.88-.5-1.01-3.36,1.35-2.69,1.24.34,2.76.98,4.24,1.75,1.14-1.61,2.08-3.26,2.83-4.81.64-1.38.5-1.55-.37-1.51-1.35.03-4.81.37-5.95.5-2.35,3.09-5.45,6.62-7.7,8.21-2.25,1.55-4.24-1.38-1.95-2.79,3.26-2.02,7.77-7.7,8.98-10.59,1.18-2.86,4.64-.77,3.46,1.18-.17.27-.37.57-.61.91,1.65-.13,3.5-.3,5.11-.37,3.46-.1,4.07,2.32,2.76,4.71-1.24,2.25-2.49,4.34-3.8,6.25.94.67,1.82,1.38,2.42,2.12.77.91.54,1.98-.07,2.56-.61.57-1.61.74-2.39-.1-.5-.54-1.21-1.18-2.02-1.82-2.99,3.6-6.76,6.52-12.54,8.74Z"/><path class="cls-3" d="M401.04,43.69c-1.24-1.14-3.4-2.12-4.98-2.49-2.02-.47-1.18-3.87,1.38-3.16,1.78.5,4.3,1.41,5.92,2.56,1.04.74.98,2.02.44,2.79s-1.71,1.24-2.76.3ZM398.95,57.58c-2.86.91-3.93-2.93-1.14-3.63,6.76-1.71,13.55-8.68,16.95-15.27,1.08-2.08,4.54-.67,3.06,1.98-4.17,7.57-11.13,14.46-18.87,16.92Z"/><path class="cls-3" d="M440.14,55.56v.07c0,2.22-1.51,4.57-5.78,4.57-1.35,0-4.3-.03-4.3-2.05,0-.77.54-1.51,1.48-1.51.13,0,.3.03.47.07.91.2,1.68.3,2.32.3,1.75,0,2.49-.77,2.49-2.12v-10.02c-4.41.03-8.95.07-11.2.1h-.03c-.87,0-1.35-.71-1.35-1.41s.47-1.41,1.35-1.41c2.42-.03,7.63-.07,12.58-.1-1.45-1.04-3.53-2.12-4.88-2.66-.64-.24-.87-.67-.87-1.14,0-.71.67-1.48,1.61-1.48.81,0,3.19,1.14,4.34,1.75.07-.03,4.98-2.62,4.98-3.33,0-.17-.13-.24-3.06-.24-3.19,0-8.24.07-10.83.17h-.1c-1.08,0-1.65-.71-1.65-1.41s.57-1.48,1.72-1.51c1.58-.07,4-.07,6.49-.07,3.43,0,7.03.03,8.84.07,2.05.03,3.13,1.01,3.13,2.22,0,.67-.34,1.41-1.04,2.08-.91.91-3.6,2.66-5.72,3.73.07.07.13.13.2.17.37.34.5.74.5,1.14,0,.17,0,.34-.07.5,3.33,0,6.12,0,7.2.03,1.71.03,2.86,1.18,2.86,2.59,0,2.32-4.24,6.62-6.12,6.62-1.08,0-1.88-.77-1.88-1.58,0-.44.27-.91.87-1.28.74-.44,3.46-2.52,3.46-3.23,0-.2-.2-.34-.64-.34h-7.4v7.67l.03,3.03Z"/><path class="cls-3" d="M458.46,58.05c-.77,0-1.51-.54-1.51-1.35,0-.27.07-.54.24-.84.87-1.51,1.78-3.97,2.02-5.92.1-.81.71-1.18,1.35-1.18.77,0,1.55.54,1.55,1.48,0,.64-.94,4.94-2.25,7.03-.34.54-.84.77-1.38.77ZM462.83,58.69l.1-11.77s-3.73.5-4.14.5c-.81,0-1.24-.71-1.24-1.38,0-.61.37-1.21,1.08-1.25.44-.03.91-.07,1.48-.1.61-.71,1.28-1.58,1.95-2.52-1.01-1.11-2.82-2.49-3.77-3.09-.47-.3-.64-.71-.64-1.11,0-.67.54-1.35,1.31-1.35.24,0,.5.07.77.2l.17.07c.94-1.48,2.12-3.97,2.59-5.79.17-.67.74-.97,1.35-.97.81,0,1.68.57,1.68,1.38,0,.67-1.75,4.54-3.43,6.96.54.44,1.08.91,1.51,1.35,1.08-1.75,2.02-3.57,2.56-4.88.24-.61.74-.84,1.24-.84.84,0,1.68.61,1.68,1.48,0,.94-2.89,5.55-5.35,8.78,1.21-.13,2.35-.27,3.19-.37-.77-1.08-.84-1.18-.84-1.51,0-.61.61-1.08,1.24-1.08,1.68,0,3.53,3.97,3.53,4.84,0,.94-.71,1.58-1.41,1.58-.5,0-.98-.34-1.21-1.08-.07-.24-.13-.44-.24-.67-.5.1-1.24.24-2.08.37l.07,12.24c0,1.04-.81,1.58-1.61,1.58s-1.55-.5-1.55-1.55v-.03ZM468.45,54.62c-.27-1.45-1.01-3.16-1.61-4.17-.17-.27-.24-.5-.24-.74,0-.64.6-1.08,1.28-1.08.44,0,.88.17,1.21.54,1.28,1.41,2.29,4.3,2.29,5.01,0,1.01-.81,1.68-1.61,1.68-.57,0-1.14-.37-1.31-1.24ZM474.97,38.98c-2.32,4.3-3.06,4.41-3.73,4.41-.84,0-1.58-.57-1.58-1.38,0-.3.13-.67.44-1.04,2.02-2.39,3.67-6.36,4.37-9.18.2-.77.81-1.14,1.48-1.14.84,0,1.72.57,1.72,1.51,0,1.01-1.24,3.77-1.31,3.93,1.35-.03,3.13-.07,4.51-.07,1.61,0,4.91.03,5.15,3.97.07,1.18.13,2.76.13,4.51,0,10.49-2.42,15.37-8.51,15.37-1.01,0-2.08-.17-3.26-.44-.91-.24-1.35-1.01-1.35-1.75,0-.81.5-1.58,1.51-1.58.17,0,.34.03.54.07.94.24,1.82.37,2.56.37,3.23,0,5.21-2.86,5.21-12.07,0-4.41-.07-5.48-1.68-5.48h-6.19ZM476.65,49.17c-.91-1.18-2.42-2.32-3.83-3.03-.6-.3-.84-.77-.84-1.21,0-.74.64-1.48,1.58-1.48,1.14,0,5.99,2.52,5.99,4.54,0,.98-.84,1.78-1.71,1.78-.44,0-.84-.17-1.18-.61Z"/><path class="cls-1" d="M45.07,90.14h337.99c1.17,0,2.13-.95,2.13-2.12s-.95-2.13-2.13-2.13h0s-337.99,0-337.99,0c-11.22,0-21.42-4.59-28.83-11.99-7.41-7.41-11.99-17.6-11.99-28.83,0-11.23,4.59-21.42,11.99-28.83,7.41-7.41,17.6-11.99,28.83-11.99h426.3c11.22,0,21.42,4.59,28.83,11.99,7.41,7.41,11.99,17.6,11.99,28.83,0,11.22-4.59,21.42-11.99,28.83-7.41,7.41-17.6,11.99-28.83,11.99h-65.93c-1.17,0-2.13.95-2.13,2.13s.95,2.13,2.13,2.13h65.93c24.8,0,45.06-20.27,45.07-45.07,0-24.81-20.27-45.07-45.07-45.07H45.07C20.27,0,0,20.27,0,45.07c0,24.8,20.27,45.06,45.07,45.07Z"/><path class="cls-1" d="M384.64,99.14c.83.83,2.18.83,3.01,0l12.83-12.83c.83-.83.83-2.18,0-3.01-.83-.83-2.18-.83-3.01,0l-12.83,12.83c-.83.83-.83,2.18,0,3.01Z"/></g></svg>