<?xml version="1.0" encoding="UTF-8"?><svg id="_レイヤー_2" xmlns="http://www.w3.org/2000/svg" viewBox="0 0 345 89"><defs><style>.cls-1{fill:none;stroke:#00b9ef;stroke-miterlimit:10;stroke-width:2px;}.cls-2{fill:#00b9ef;}.cls-2,.cls-3{stroke-width:0px;}.cls-3{fill:#fff;}</style></defs><g id="DESIGN"><rect class="cls-2" x="9.5" y="9.13" width="327" height="70.93" rx="34.15" ry="34.15"/><rect class="cls-1" x="1" y="1" width="343" height="87" rx="38.74" ry="38.74"/><path class="cls-3" d="M54.43,53.11c-.09-.54-.32-1.51-.54-2.27l-2.41-8.37c-.25-.88-.45-1.73-.65-2.88-.25,1.28-.47,2.16-.68,2.88l-2.39,8.37c-.27,1.01-.45,1.73-.52,2.27h-2.99q-.11-.56-.61-2.32l-3.58-12.92c-.38-1.31-.61-2-.9-2.68h3.6c.04.77.16,1.44.41,2.43l2.09,8.58c.16.7.41,1.85.54,2.63.29-1.4.45-2.03.63-2.66l2.5-8.69c.27-.95.43-1.69.5-2.3h2.77c.07.54.27,1.42.52,2.25l2.52,8.67c.16.58.27,1.04.63,2.72q.11-.52.25-1.31c.07-.36.25-1.24.29-1.44l2.09-8.49c.22-.86.36-1.78.38-2.41h3.6c-.31.77-.52,1.37-.88,2.68l-3.6,12.9c-.16.63-.27,1.04-.32,1.24q-.18.63-.25,1.1h-3.02Z"/><path class="cls-3" d="M79.4,53.27c-.81-.11-1.53-.16-2.9-.16h-7.02c-1.35,0-1.96.02-2.86.07.13-.9.18-1.64.18-2.97v-12.18c0-1.17-.04-1.85-.18-2.9.9.04,1.49.07,2.86.07h6.8c1.13,0,1.87-.04,2.9-.16v2.97c-.86-.11-1.58-.16-2.9-.16h-6.48v4.64h5.47c1.17,0,1.94-.04,2.93-.16v2.95c-.92-.13-1.53-.16-2.93-.16h-5.49v5.31h6.75c1.26,0,1.91-.04,2.88-.16v2.99Z"/><path class="cls-3" d="M86.77,53.11c-1.31,0-1.96.02-2.88.07.16-.95.2-1.6.2-3.04v-12.22c0-1.04-.07-1.85-.18-2.77.95.04,1.31.04,2.84.04h5.31c3.49,0,5.45,1.58,5.45,4.39,0,1.37-.4,2.39-1.26,3.17-.5.47-.9.67-1.78.95,1.15.25,1.67.47,2.27,1.04.92.86,1.4,1.98,1.4,3.44,0,3.15-2.09,4.93-5.83,4.93h-5.54ZM91.75,42.53c1.71,0,2.72-.92,2.72-2.45,0-.72-.23-1.33-.59-1.67-.5-.45-1.26-.7-2.16-.7h-4.66v4.82h4.68ZM87.07,50.57h4.84c2,0,3.13-.99,3.13-2.81,0-.9-.23-1.51-.72-1.96-.56-.5-1.42-.76-2.45-.76h-4.79v5.54Z"/><path class="cls-3" d="M107.88,37.42c-.61,0-1.28.04-2.16.11v-2.7c.65.09,1.12.11,2.12.11h3.58c.92,0,1.53-.02,2.05-.11-.07.65-.07.86-.07,1.42,0,3.2.81,6.17,2.41,8.91.94,1.58,2.05,2.93,3.6,4.32,1.15,1.06,1.8,1.53,3.33,2.43-.85.83-1.28,1.42-1.91,2.54-2.25-1.58-3.94-3.22-5.47-5.29-.83-1.1-1.33-1.96-1.98-3.33-.58-1.24-.79-1.8-1.15-3.2-.81,2.88-1.71,4.79-3.22,6.8-1.44,1.87-3.13,3.44-5.58,5.09-.47-.99-.99-1.67-1.85-2.36,1.91-1.1,3.02-1.96,4.52-3.53,1.76-1.82,3.13-4.23,3.85-6.66.45-1.55.65-2.72.74-4.55h-2.81Z"/><path class="cls-3" d="M130.75,41.3c-1.4.9-2.03,1.24-3.6,1.94-.38-.9-.74-1.53-1.31-2.3,2.43-.97,3.94-1.8,5.65-3.13,1.49-1.15,2.63-2.34,3.56-3.78h2.68c1.19,1.67,2.09,2.54,3.8,3.74,1.91,1.35,3.74,2.29,5.78,3.04-.63.97-.92,1.6-1.24,2.52-1.42-.61-2.27-1.06-3.85-2.05v1.76c-.58-.07-1.17-.09-2.03-.09h-7.52c-.65,0-1.33.02-1.94.09v-1.73ZM129.51,47.1c-1.15,0-1.91.04-2.66.13v-2.61c.74.09,1.6.13,2.66.13h14.02c1.1,0,1.89-.04,2.63-.13v2.61c-.74-.09-1.51-.13-2.63-.13h-7.74c-.7,1.64-1.4,2.97-2.34,4.37q3.98-.22,7.13-.56c-.72-.79-1.1-1.19-2.36-2.5l2.23-.99c2.41,2.43,3.38,3.56,5.2,6.01l-2.16,1.42c-.74-1.1-.97-1.42-1.35-1.96-1.87.25-3.22.41-4.05.5-2.23.2-6.68.61-7.58.68-1.26.09-2.39.2-2.9.31l-.36-2.75c.61.05.99.07,1.31.07.16,0,.83-.02,1.98-.09,1.1-1.67,1.8-2.97,2.41-4.5h-3.42ZM140.18,40.6c.36,0,.56,0,.99-.02-2.07-1.42-3.35-2.59-4.7-4.37-1.19,1.6-2.59,2.9-4.68,4.37.38.02.52.02.92.02h7.47Z"/><path class="cls-3" d="M152.45,53.67c-.02-.23-.02-.36-.11-.88-.43-2.63-.61-4.79-.61-7.16,0-2.03.13-4.01.43-5.96q.11-.68.61-3.22c.16-.79.25-1.44.25-1.67v-.09l3.04.32c-.92,1.96-1.78,7.38-1.8,11.3q-.02.81-.02,1.17v.36c0,.18,0,.22-.02.47h.02q.11-.25.27-.65c.04-.16.16-.41.27-.76q.2-.47.43-1.01c.04-.07.07-.14.27-.7l1.87.83c-1.33,2.61-2.23,5.4-2.23,6.89,0,.16,0,.18.04.61l-2.7.16ZM157.54,38.93c1.06.27,2.23.36,4.07.36.79,0,1.28,0,2.07-.04,0-1.33-.02-2.45-.02-3.38,0-.5-.02-.83-.07-1.08l2.81-.07c-.11.63-.16,1.71-.16,3.31v1.04c1.17-.13,2.16-.31,3.04-.54q.13-.04.5-.18l.18-.04.09,2.54c-.23.02-.25.02-.65.11-.77.16-1.94.36-3.13.5v.5c0,1.26,0,1.31.23,5.09,1.62.77,2.18,1.08,3.53,2.05.29.2.4.27.63.38l-1.08,2.72c-.38-.45-1.06-1.04-1.69-1.44-.77-.5-1.28-.83-1.42-.92v.31c0,.5-.07.95-.18,1.26-.52,1.33-2.09,2.12-4.28,2.12-2.95,0-4.75-1.4-4.75-3.69s1.91-3.71,4.64-3.71c.83,0,1.4.09,2,.32-.07-.56-.09-1.67-.18-4.79-.9.02-1.44.04-2.03.04-.83,0-1.73-.02-2.79-.11-.31,0-.56-.02-.67-.02-.2-.02-.34-.02-.38-.02-.11-.02-.18-.02-.23-.02-.02,0-.07,0-.13.02l.04-2.59ZM162.11,48.36c-1.44,0-2.34.56-2.34,1.49,0,.83.81,1.4,2.07,1.4.83,0,1.49-.25,1.82-.7.2-.27.29-.61.29-1.21v-.61c-.74-.27-1.17-.36-1.85-.36Z"/><path class="cls-3" d="M178.82,51.74c-1.55,0-2.09.02-2.77.09v-2.9c.83.13,1.24.16,2.81.16h10.24v-9.81h-9.86c-1.6,0-2.07.02-2.88.11v-2.93c.83.13,1.26.16,2.9.16h10.83q1.17,0,1.96-.04c-.07.61-.07.83-.07,1.87v12.36c0,1.12.02,1.75.11,2.32h-3.02v-1.37h-10.26Z"/><path class="cls-3" d="M214.84,36.86q-.27.07-1.89.61c-1.28.41-2,.58-3.76.92q-.02,3.04-.07,3.8h4.77c1.53,0,1.91-.02,2.75-.16v2.7c-.83-.09-1.26-.11-2.7-.11h-4.97c-.25,2.09-.72,3.6-1.51,4.91s-2.09,2.57-3.67,3.58c-.63.4-1.06.65-2.09,1.12-.65-1.15-1.01-1.58-1.96-2.39,1.62-.58,2.48-1.06,3.49-1.89,1.35-1.08,2.21-2.36,2.59-3.83.09-.38.16-.77.25-1.51h-5.56c-1.44,0-1.87.02-2.7.11v-2.7c.83.13,1.22.16,2.75.16h5.76c.04-.95.04-1.82.04-3.4-1.82.27-2.52.34-6.23.52-.22-1.01-.34-1.35-.83-2.43.7.04,1.06.04,1.4.04,3.02,0,6.86-.52,9.63-1.31,1.31-.38,1.96-.63,2.72-1.06l1.8,2.3Z"/><path class="cls-3" d="M239.5,41.97c-.23.41-.36.72-.63,1.42-1.17,3.31-2.88,5.81-5.22,7.61-1.6,1.24-3.06,2-5.9,3.06-.5-1.13-.77-1.51-1.76-2.61,2.75-.7,4.52-1.53,6.26-2.97,1.67-1.4,2.63-2.77,3.62-5.27h-10.96c-1.51,0-2.07.02-2.88.11v-2.75c.86.14,1.35.16,2.93.16h10.71c1.4,0,1.85-.04,2.54-.2l1.28,1.44ZM223.95,35.15c.74.13,1.22.16,2.63.16h7.85c1.42,0,1.89-.02,2.63-.16v2.77c-.7-.09-1.13-.11-2.59-.11h-7.94c-1.46,0-1.89.02-2.59.11v-2.77Z"/><path class="cls-3" d="M252.82,34.68c-.07.2-.14.45-.18.7-.04.29-.07.4-.14.76q-.07.47-.38,2.16c-.09.5-.09.54-.16.83.65-.04.97-.07,1.4-.07,1.49,0,2.59.41,3.33,1.19.77.86,1.06,1.94,1.06,3.98,0,3.87-.65,6.96-1.73,8.19-.63.74-1.31,1.01-2.5,1.01-1.04,0-1.96-.18-3.47-.65.02-.45.04-.77.04-.99,0-.58-.04-1.04-.23-1.91,1.22.54,2.5.88,3.29.88.65,0,1.01-.43,1.35-1.53.36-1.17.58-3.22.58-5.13,0-2.07-.52-2.68-2.3-2.68-.45,0-.79.02-1.31.07-.68,2.75-.88,3.42-1.37,4.88-.79,2.25-1.4,3.69-2.7,6.32l-.34.67c-.07.13-.07.16-.18.38l-2.61-1.44c.68-.9,1.58-2.52,2.34-4.23.97-2.21,1.28-3.15,2.18-6.37-1.15.13-3.29.52-4.03.72l-.27-2.66c.83,0,3.56-.27,4.79-.45.41-2.43.58-3.8.58-4.55v-.43l2.93.31ZM260.27,37.56c2.25,2.63,3.67,5.31,4.64,8.78l-2.57,1.31c-.43-1.94-.95-3.42-1.8-5.11-.81-1.67-1.53-2.7-2.59-3.85l2.32-1.13Z"/><path class="cls-3" d="M274.09,38.89c-.34,1.24-.72,3.33-1.01,5.54q-.04.32-.11.65l.05.04c1.31-1.26,4.1-2.14,6.82-2.14,3.83,0,6.35,1.89,6.35,4.77,0,1.64-.88,3.31-2.32,4.34-1.46,1.06-3.33,1.53-5.94,1.53-1.94,0-3.17-.16-5.74-.79-.02-1.4-.07-1.85-.34-2.9,2.21.77,4.14,1.12,6.05,1.12,3.17,0,5.38-1.33,5.38-3.24,0-1.51-1.42-2.41-3.8-2.41-2,0-4.1.61-5.6,1.64-.41.29-.54.43-1.01.97l-2.84-.09c.07-.41.07-.5.18-1.35.18-1.4.54-3.89.95-6.55.09-.54.11-.81.13-1.3l2.81.16ZM274.38,34.48c1.55.86,5.85,2.14,8.4,2.5l-.92,2.59c-3.85-.88-6.21-1.62-8.78-2.81l1.31-2.27Z"/><path class="cls-3" d="M295.7,48.32c.02-.47.05-.7.05-.97q0-.25-.07-1.6l-.31-7.65c-.04-.99-.11-2.12-.2-2.75h3.69c-.07.61-.16,1.78-.2,2.75l-.32,7.65q-.04,1.31-.04,1.62c0,.27,0,.5.04.95h-2.63ZM295.38,53.25v-3.08h3.26v3.08h-3.26Z"/></g></svg>