<?xml version="1.0" encoding="UTF-8"?><svg id="_レイヤー_2" xmlns="http://www.w3.org/2000/svg" viewBox="0 0 1012.49 610.79"><defs><style>.cls-1{fill:#94d1ca;}.cls-1,.cls-2,.cls-3,.cls-4,.cls-5,.cls-6,.cls-7,.cls-8,.cls-9,.cls-10,.cls-11,.cls-12,.cls-13,.cls-14,.cls-15{stroke-width:0px;}.cls-2{fill:#f9c14b;}.cls-3{fill:#e4dcd2;}.cls-16{stroke-width:3.97px;}.cls-16,.cls-17,.cls-18,.cls-19,.cls-20,.cls-21,.cls-22,.cls-23{stroke:#333;}.cls-16,.cls-17,.cls-18,.cls-19,.cls-20,.cls-21,.cls-22,.cls-23,.cls-24{fill:none;stroke-miterlimit:10;}.cls-4{fill:#000;}.cls-5{fill:#f5b2b2;opacity:.3;}.cls-17{stroke-width:1.65px;}.cls-18{stroke-width:6.59px;}.cls-6{fill:#040000;}.cls-19{stroke-width:3.3px;}.cls-7{fill:#e1f2fa;}.cls-8{fill:#231815;}.cls-9{fill:#faf8f2;}.cls-10{fill:#fff100;}.cls-11{fill:#333;}.cls-20{stroke-width:4.94px;}.cls-21,.cls-24{stroke-width:1.15px;}.cls-12{fill:#fff;}.cls-13{fill:#fdf151;}.cls-22{stroke-width:.82px;}.cls-14{fill:#d61518;}.cls-15{fill:#a3caeb;}.cls-23{stroke-width:.87px;}.cls-24{stroke:#231815;}</style></defs><g id="BACK"><polyline class="cls-9" points="627.73 588.23 3.3 588.23 3.3 3.3 1009.19 3.3 1009.19 588.23 722.91 588.23"/><rect class="cls-3" x="737.08" y="3.3" width="272.12" height="127.92"/><polygon class="cls-7" points="827.2 195.6 827.2 408.41 1010.94 408.41 1010.94 407.82 1010.94 195.6 827.2 195.6"/><rect class="cls-12" x="968.49" y="218.49" width="38.38" height="74.42"/><rect class="cls-5" x="3.3" y="356.81" width="66.28" height="109.31"/><rect class="cls-13" x="962.41" y="305.07" width="44.45" height="40.7"/><rect class="cls-13" x="956.28" y="353.91" width="50.59" height="40.7"/><path class="cls-4" d="M957.36,314.42c-.13.34-.13.36-.34,1.07-.55,1.94-1.01,2.96-2.02,4.53-.75,1.14-1.45,1.92-2.43,2.75-.52-.62-.83-.9-1.51-1.35.93-.67,1.61-1.34,2.33-2.26.94-1.25,1.48-2.36,1.9-3.91h-2.02c-.63,0-1.22.03-1.6.1v-1.95c.42.07.85.08,1.69.08h1.68c.73,0,1.11-.02,1.42-.07l.9,1.01ZM965.2,313.42s-.29.33-.85.94c-.9.99-1.74,1.79-2.85,2.69.54.75,1.16,1.47,1.82,2.1.9.86,1.61,1.38,2.78,1.99-.55.54-.85.89-1.38,1.71-1.32-.93-1.92-1.45-2.72-2.36-1.08-1.24-1.89-2.59-2.52-4.18.06,1.6.08,1.95.08,2.49v3.81c0,.72-.1,1.04-.39,1.29-.31.26-.78.37-1.53.37-.6,0-1.45-.05-2.08-.1-.07-.75-.15-1.11-.44-1.84.85.13,1.55.2,2.07.2.49,0,.59-.07.59-.41v-10.53c0-.67-.05-1.2-.11-1.68h2.02c-.08.52-.11,1.01-.11,1.68v1.14c.18,1.01.41,1.61,1.04,2.88,1.53-1.33,2.51-2.47,2.96-3.47l1.63,1.29Z"/><path class="cls-4" d="M978.11,317.29c-.26.21-.31.26-.54.44-.73.64-1.21,1.01-2.05,1.63.96-.05,2.07-.11,3.34-.2-.28-.28-.44-.42-.93-.86l1.38-.85c1.3,1.24,1.94,1.94,2.91,3.19l-1.46.98c-.41-.6-.52-.77-.83-1.19q-2.18.2-4.25.33v2.08c0,.78.02,1.12.1,1.61h-2c.08-.47.1-.83.1-1.61v-1.99q-3.39.15-4.59.2c-.52.02-.8.03-1.12.1l-.28-1.73c.44.07.88.08,1.58.08q.47,0,3.19-.06c-.91-.62-2-1.22-3.08-1.69l1.03-1.22c.72.37.94.49,1.46.8.44-.36.68-.59,1.03-.96h-3.6c-.77,0-1.32.03-1.82.1v-1.53c.41.06.86.08,1.66.08h4.59v-.81h-3.53c-.6,0-1.08.02-1.5.06v-1.43c.42.05.85.07,1.5.07h3.53v-.75h-3.94c-.81,0-1.22.02-1.66.07v-1.51c.49.07,1.03.1,1.86.1h3.75c0-.57-.02-.78-.08-1.11h1.91c-.08.34-.1.55-.1,1.11h3.99c.83,0,1.43-.03,1.86-.1v1.51c-.47-.05-.88-.07-1.66-.07h-4.18v.75h3.73c.67,0,1.06-.02,1.48-.07v1.43c-.42-.05-.88-.06-1.48-.06h-3.73v.81h4.82c.8,0,1.24-.02,1.66-.08v1.53c-.54-.07-1.14-.1-1.82-.1h-3.42l1.22.93ZM972.85,321.98c-1.16,1.14-2.15,1.78-3.76,2.46-.44-.62-.7-.91-1.29-1.38.93-.29,1.35-.47,2-.85.73-.42,1.03-.65,1.55-1.16l1.5.93ZM975.13,316.36c-.5.59-1.22,1.29-1.76,1.74.49.31.57.36.83.54.99-.76,1.97-1.68,2.46-2.28h-1.53ZM978.06,320.82c.59.52.99.8,1.79,1.24.68.39,1.14.57,2.08.88-.47.52-.8.94-1.12,1.5-1.63-.7-2.9-1.51-4.14-2.67l1.38-.94Z"/><path class="cls-4" d="M989.92,314.42c-.13.34-.13.36-.34,1.07-.55,1.94-1.01,2.96-2.02,4.53-.75,1.14-1.45,1.92-2.43,2.75-.52-.62-.83-.9-1.51-1.35.93-.67,1.61-1.34,2.33-2.26.94-1.25,1.48-2.36,1.9-3.91h-2.02c-.63,0-1.22.03-1.6.1v-1.95c.42.07.85.08,1.69.08h1.68c.73,0,1.11-.02,1.42-.07l.9,1.01ZM997.76,313.42s-.29.33-.85.94c-.9.99-1.74,1.79-2.85,2.69.54.75,1.16,1.47,1.82,2.1.9.86,1.61,1.38,2.78,1.99-.55.54-.85.89-1.38,1.71-1.32-.93-1.92-1.45-2.72-2.36-1.08-1.24-1.89-2.59-2.52-4.18.06,1.6.08,1.95.08,2.49v3.81c0,.72-.1,1.04-.39,1.29-.31.26-.78.37-1.53.37-.6,0-1.45-.05-2.08-.1-.07-.75-.15-1.11-.44-1.84.85.13,1.55.2,2.07.2.49,0,.59-.07.59-.41v-10.53c0-.67-.05-1.2-.11-1.68h2.02c-.08.52-.11,1.01-.11,1.68v1.14c.18,1.01.41,1.61,1.04,2.88,1.53-1.33,2.51-2.47,2.96-3.47l1.63,1.29Z"/><path class="cls-4" d="M941.26,337.08h-1.94v-3.66h-3.04v-1.78h3.04v-3.01h1.94v3.01h3.89v-3.09h1.94v3.09h3.14v1.78h-3.14v.7c0,4.22-1.82,6.56-5.65,7.91l-1.06-1.68c3.42-1.14,4.77-2.82,4.77-6.33v-.6h-3.89v3.66Z"/><path class="cls-4" d="M965.59,334.05v2.05h-13.09v-2.05h13.09Z"/><path class="cls-4" d="M967.68,339.83c1.87-2.46,3.06-5.34,3.63-9.23l2.05.44c-.52,4-1.82,7.13-3.91,9.98l-1.77-1.19ZM978.05,330.21c1.81,2.82,3.34,6.25,4.28,9.95l-2.17.83c-.83-3.48-2.18-6.97-3.91-9.93l1.79-.85ZM979.63,327.85c.46.67.94,1.76,1.27,2.78l-1.19.44c-.31-1.11-.73-2.12-1.21-2.88l1.12-.34ZM981.52,327.23c.5.65.98,1.64,1.35,2.75l-1.19.41c-.28-1.03-.78-2.12-1.22-2.78l1.06-.38Z"/><path class="cls-4" d="M997.73,334.05v2.05h-13.09v-2.05h13.09Z"/><path class="cls-4" d="M917.52,366.76h-1.94v-3.66h-3.04v-1.77h3.04v-3.01h1.94v3.01h3.89v-3.09h1.94v3.09h3.14v1.77h-3.14v.7c0,4.22-1.82,6.56-5.65,7.91l-1.06-1.68c3.42-1.14,4.77-2.82,4.77-6.33v-.6h-3.89v3.66Z"/><path class="cls-4" d="M938.76,359.69c-.05-.18-.08-.36-.08-.55,0-1.03.83-1.86,1.87-1.86s1.84.83,1.84,1.86-.85,1.84-1.84,1.84c-.18,0-.34-.02-.49-.07-1.01,5.68-3.92,8.92-8.99,10.81l-1.12-1.77c4.36-1.48,7.15-4.35,7.83-8.38h-9.31v-1.87h10.29ZM939.56,359.14c0,.55.42.98.98.98s.98-.42.98-.98-.42-.98-.98-.98-.98.42-.98.98Z"/><path class="cls-4" d="M945.06,358.72h2.07v7.28h-2.07v-7.28ZM953.85,358.52v5.23c0,4.12-1.87,6.58-5.27,7.99l-1.25-1.69c3.19-1.19,4.46-3.03,4.46-6.51v-5.01h2.07Z"/><path class="cls-4" d="M968.31,358.91c-.68,2.15-1.55,4.04-2.61,5.68,1.16.94,2.26,1.95,3.19,2.98l-1.45,1.55c-.83-.98-1.84-1.95-2.9-2.88-1.64,2.07-3.63,3.68-5.94,4.9l-1.32-1.63c2.18-1.09,4.09-2.59,5.65-4.58-1.11-.85-2.23-1.58-3.26-2.15l1.14-1.4c1.03.5,2.13,1.19,3.24,1.97.91-1.48,1.68-3.16,2.26-5.08l1.99.63Z"/><path class="cls-4" d="M973.67,359.06c1.35.77,2.7,1.84,3.86,3.12l-1.48,1.56c-1.14-1.29-2.52-2.49-3.68-3.3l1.3-1.38ZM972.61,369.23c5.18-1.22,8.61-3.94,10.31-8.32l1.74,1.07c-1.89,4.95-6.01,7.96-11.35,9.15l-.7-1.9Z"/><path class="cls-4" d="M991.33,362.67c2,.62,4.33,1.61,6.45,2.87l-.88,1.76c-1.77-1.07-3.81-2.02-5.57-2.67v7h-2.04v-13.58h2.04v4.62Z"/><path class="cls-4" d="M941.26,384.76h-1.94v-3.66h-3.04v-1.77h3.04v-3.01h1.94v3.01h3.89v-3.09h1.94v3.09h3.14v1.77h-3.14v.7c0,4.22-1.82,6.56-5.65,7.91l-1.06-1.68c3.42-1.14,4.77-2.82,4.77-6.33v-.6h-3.89v3.66Z"/><path class="cls-4" d="M965.59,381.73v2.05h-13.09v-2.05h13.09Z"/><path class="cls-4" d="M967.68,387.51c1.87-2.46,3.06-5.34,3.63-9.23l2.05.44c-.52,4.01-1.82,7.13-3.91,9.98l-1.77-1.19ZM978.05,377.89c1.81,2.82,3.34,6.25,4.28,9.95l-2.17.83c-.83-3.48-2.18-6.97-3.91-9.93l1.79-.85ZM979.63,375.53c.46.67.94,1.76,1.27,2.79l-1.19.44c-.31-1.11-.73-2.12-1.21-2.88l1.12-.34ZM981.52,374.91c.5.65.98,1.64,1.35,2.75l-1.19.41c-.28-1.03-.78-2.12-1.22-2.79l1.06-.37Z"/><path class="cls-4" d="M997.73,381.73v2.05h-13.09v-2.05h13.09Z"/><rect class="cls-10" x="3.3" y="3.3" width="425.39" height="267.46"/><rect class="cls-15" x="773.13" y="454.5" width="225.6" height="122.1"/><path class="cls-6" d="M157.95,141.5c.06-.75-.16-1.4-.68-1.95l-5.21-5.34c-1.14-1.14-1.66-2.67-1.53-4.23.13-1.56.88-3,2.15-3.94s2.87-1.3,4.4-1.01c1.53.36,2.87,1.24,3.65,2.64.42.75.16,1.66-.59,2.15-.75.42-1.69.16-2.12-.59-.36-.59-.88-.98-1.56-1.14-.68-.13-1.33.03-1.89.46-.55.42-.88.98-.91,1.69-.06.68.16,1.3.65,1.79l5.18,5.34c1.14,1.17,1.73,2.77,1.6,4.36-.13,1.66-.94,3.06-2.21,4.07-1.3,1.01-2.93,1.33-4.53,1.04-1.6-.36-2.96-1.3-3.75-2.7-.49-.75-.2-1.73.55-2.15.75-.42,1.66-.16,2.15.59.36.62.91,1.04,1.66,1.21.75.13,1.43-.03,2.02-.49.62-.42.88-1.04.98-1.79Z"/><path class="cls-6" d="M163.85,132.48c0-.81.65-1.46,1.46-1.46h1.14v-5.18c0-.81.65-1.47,1.47-1.47s1.46.65,1.46,1.47v5.18h1.79c.81,0,1.47.65,1.47,1.46s-.65,1.47-1.47,1.47h-1.79v8.17c0,1.01.78,1.79,1.79,1.79.81,0,1.47.65,1.47,1.47s-.65,1.46-1.47,1.46c-2.6,0-4.72-2.12-4.72-4.72v-8.17h-1.14c-.81,0-1.46-.65-1.46-1.47Z"/><path class="cls-6" d="M176.25,141.99v-9.64c0-.81.65-1.46,1.47-1.46s1.46.65,1.46,1.46v9.64c0,1.01.78,1.79,1.79,1.79h1.79v-11.43c0-.81.65-1.46,1.46-1.46s1.47.65,1.47,1.46v12.89c0,.81-.65,1.46-1.47,1.46h-3.26c-2.61,0-4.72-2.12-4.72-4.72Z"/><path class="cls-6" d="M190.48,141.99v-6.25c0-2.61,2.12-4.72,4.72-4.72h1.79v-5.18c0-.81.65-1.47,1.46-1.47s1.46.65,1.46,1.47v19.41c0,.81-.65,1.46-1.46,1.46h-3.26c-2.61,0-4.72-2.12-4.72-4.72ZM193.41,135.73v6.25c0,1.01.78,1.79,1.79,1.79h1.79v-9.83h-1.79c-1.01,0-1.79.78-1.79,1.79Z"/><path class="cls-6" d="M204.77,127.46c0-1.01.78-1.79,1.79-1.79s1.79.78,1.79,1.79-.78,1.79-1.79,1.79-1.79-.78-1.79-1.79ZM206.57,146.84c-.81,0-1.46-.65-1.46-1.46v-13.03c0-.81.65-1.46,1.46-1.46s1.47.65,1.47,1.46v13.03c0,.81-.65,1.46-1.47,1.46Z"/><path class="cls-6" d="M212.82,142.12v-6.51c0-2.6,2.12-4.72,4.72-4.72s4.72,2.12,4.72,4.72v6.51c0,2.6-2.12,4.72-4.72,4.72s-4.72-2.12-4.72-4.72ZM215.75,135.6v6.51c0,1.01.78,1.79,1.79,1.79s1.79-.78,1.79-1.79v-6.51c0-1.01-.78-1.79-1.79-1.79s-1.79.78-1.79,1.79Z"/><path class="cls-6" d="M240.1,135.54c0-.68-.42-1.34-1.07-1.6-.65-.26-1.4-.13-1.89.39-.29.29-.62.42-1.04.42-.39,0-.72-.13-1.01-.42s-.46-.65-.46-1.04.16-.75.46-1.04c1.33-1.33,3.32-1.76,5.05-1.01,1.79.75,2.9,2.38,2.9,4.3v9.7c0,.81-.65,1.46-1.47,1.46h-3.26c-2.61,0-4.72-2.12-4.72-4.72s2.12-4.72,4.72-4.72h1.79v-1.73ZM236.52,141.99c0,1.01.78,1.79,1.79,1.79h1.79v-3.58h-1.79c-1.01,0-1.79.78-1.79,1.79Z"/><path class="cls-6" d="M247.95,145.37v-12.9c0-.81.65-1.46,1.46-1.46h3.26c.81,0,1.6.2,2.34.62.75.42.94,1.27.55,2.02-.42.68-1.27.94-2.02.52-.29-.16-.59-.23-.88-.23h-1.79v11.43c0,.81-.65,1.46-1.47,1.46s-1.46-.65-1.46-1.46Z"/><path class="cls-6" d="M258.89,142.12v-6.51c0-2.6,2.12-4.72,4.72-4.72s4.72,2.12,4.72,4.72v3.26c0,.81-.65,1.47-1.46,1.47h-5.05v1.79c0,.75.42,1.37,1.11,1.66.68.26,1.43.13,1.95-.39.29-.29.62-.46,1.01-.46.42,0,.78.16,1.07.46s.42.65.42,1.04-.13.75-.42,1.04c-1.4,1.33-3.35,1.76-5.14,1.01-1.82-.75-2.93-2.41-2.93-4.36ZM261.82,135.6v1.79h3.58v-1.79c0-1.01-.78-1.79-1.79-1.79s-1.79.78-1.79,1.79Z"/><path class="cls-6" d="M278.07,135.54c0-.68-.42-1.34-1.07-1.6-.65-.26-1.4-.13-1.89.39-.29.29-.62.42-1.04.42-.39,0-.72-.13-1.01-.42-.29-.29-.46-.65-.46-1.04s.16-.75.46-1.04c1.33-1.33,3.32-1.76,5.05-1.01,1.79.75,2.9,2.38,2.9,4.3v9.7c0,.81-.65,1.46-1.47,1.46h-3.26c-2.6,0-4.72-2.12-4.72-4.72s2.12-4.72,4.72-4.72h1.79v-1.73ZM274.49,141.99c0,1.01.78,1.79,1.79,1.79h1.79v-3.58h-1.79c-1.01,0-1.79.78-1.79,1.79Z"/><path class="cls-6" d="M834.29,71.8c.05-.74-.19-1.42-.72-1.97l-3.82-3.94c-.67-.7-1.01-1.63-.94-2.59.07-.94.55-1.82,1.3-2.4.77-.58,1.75-.79,2.69-.6.94.19,1.75.74,2.23,1.58.12.26.07.48-.17.65-.22.12-.5.05-.62-.17-.36-.6-.94-1.01-1.63-1.18-.67-.12-1.37,0-1.92.46-.55.41-.89,1.06-.96,1.73-.07.7.19,1.39.67,1.87l3.84,3.96c.7.7,1.03,1.68.96,2.67-.07.98-.58,1.9-1.37,2.5s-1.8.84-2.76.62c-.98-.19-1.82-.79-2.33-1.66-.12-.22-.07-.5.19-.62.22-.12.46-.05.62.17.38.65.94,1.06,1.68,1.22s1.46-.02,2.04-.48.94-1.08,1.01-1.82Z"/><path class="cls-6" d="M838.58,65.11c0-.26.17-.43.43-.43h1.49v-4.46c0-.26.17-.43.43-.43s.43.17.43.43v4.46h1.97c.26,0,.43.17.43.43s-.17.43-.43.43h-1.97v6.67c0,1.08.89,1.97,1.97,1.97.26,0,.43.17.43.43s-.17.43-.43.43c-1.54,0-2.83-1.3-2.83-2.83v-6.67h-1.49c-.26,0-.43-.17-.43-.43Z"/><path class="cls-6" d="M851.76,67.36c0-.77-.46-1.46-1.2-1.78-.74-.29-1.54-.14-2.09.41-.07.1-.19.14-.31.14s-.22-.05-.29-.14c-.07-.07-.12-.17-.12-.29s.05-.24.12-.31c.79-.79,1.99-1.06,3.02-.6,1.06.46,1.73,1.44,1.73,2.57v7.15c0,.26-.17.43-.43.43h-2.4c-1.54,0-2.83-1.3-2.83-2.83s1.3-2.83,2.83-2.83h1.97v-1.92ZM849.79,74.08h1.97v-3.94h-1.97c-1.13,0-1.97.89-1.97,1.97s.84,1.97,1.97,1.97Z"/><path class="cls-6" d="M856.48,65.11c0-.26.17-.43.43-.43h1.49v-2.06c0-1.54,1.3-2.83,2.83-2.83.26,0,.43.17.43.43s-.17.43-.43.43c-1.08,0-1.97.89-1.97,1.97v2.06h1.97c.26,0,.43.17.43.43s-.17.43-.43.43h-1.97v9.07c0,.26-.17.43-.43.43s-.43-.17-.43-.43v-9.07h-1.49c-.26,0-.43-.17-.43-.43Z"/><path class="cls-6" d="M864.76,65.11c0-.26.17-.43.43-.43h1.49v-2.06c0-1.54,1.3-2.83,2.83-2.83.26,0,.43.17.43.43s-.17.43-.43.43c-1.08,0-1.97.89-1.97,1.97v2.06h1.97c.26,0,.43.17.43.43s-.17.43-.43.43h-1.97v9.07c0,.26-.17.43-.43.43s-.43-.17-.43-.43v-9.07h-1.49c-.26,0-.43-.17-.43-.43Z"/><path class="cls-6" d="M885.67,74.61v-9.5c0-.26.17-.43.43-.43h2.4c.48,0,.96.12,1.42.38.22.12.29.38.17.58-.12.22-.38.29-.6.17-.31-.17-.62-.26-.98-.26h-1.97v9.07c0,.26-.17.43-.43.43s-.43-.17-.43-.43Z"/><path class="cls-6" d="M893.73,72.21v-4.8c0-1.54,1.3-2.83,2.83-2.83s2.83,1.3,2.83,2.83v4.8c0,1.54-1.3,2.83-2.83,2.83s-2.83-1.3-2.83-2.83ZM894.59,67.41v4.8c0,1.08.89,1.97,1.97,1.97s1.97-.89,1.97-1.97v-4.8c0-1.08-.89-1.97-1.97-1.97s-1.97.89-1.97,1.97Z"/><path class="cls-6" d="M903.93,72.21v-4.8c0-1.54,1.3-2.83,2.83-2.83s2.83,1.3,2.83,2.83v4.8c0,1.54-1.3,2.83-2.83,2.83s-2.83-1.3-2.83-2.83ZM904.79,67.41v4.8c0,1.08.89,1.97,1.97,1.97s1.97-.89,1.97-1.97v-4.8c0-1.08-.89-1.97-1.97-1.97s-1.97.89-1.97,1.97Z"/><path class="cls-6" d="M915.28,74.61c0,.26-.22.43-.43.43-.26,0-.43-.17-.43-.43v-9.5c0-.26.17-.43.43-.43h7.2c1.54,0,2.83,1.29,2.83,2.83v7.1c0,.26-.22.43-.43.43-.26,0-.43-.17-.43-.43v-7.1c0-1.08-.89-1.97-1.97-1.97h-1.97v9.07c0,.26-.22.43-.43.43-.26,0-.43-.17-.43-.43v-9.07h-3.94v9.07Z"/><path class="cls-14" d="M675.54,601.48l5.43,9.22-10.7.09,5.27-9.31Z"/><path class="cls-8" d="M721.76,586.08v4.29h-92.88v-4.29h92.88M722.91,584.93h-95.18v6.59h95.18v-6.59h0Z"/><polyline class="cls-18" points="627.73 588.23 3.3 588.23 3.3 3.3 1009.19 3.3 1009.19 588.23 722.91 588.23"/><polyline class="cls-20" points="428.69 4.87 428.69 268.43 420.77 268.43"/><line class="cls-20" x1="370.32" y1="268.43" x2="5.3" y2="268.43"/><polyline class="cls-19" points="5.62 356.81 69.58 356.81 69.58 491.71 76.56 491.71"/><polyline class="cls-19" points="69.36 418.49 121.91 418.49 121.91 503.34"/><line class="cls-19" x1="121.91" y1="538.22" x2="121.91" y2="587.06"/><polyline class="cls-19" points="772.92 587.37 772.92 576.6 998.73 576.6 998.73 410.31"/><polyline class="cls-19" points="1009.34 408.41 826.62 408.41 826.62 195.17 896.39 195.17 896.39 224.24"/><line class="cls-19" x1="896.39" y1="279.69" x2="896.39" y2="323.88"/><line class="cls-19" x1="896.39" y1="377.75" x2="896.39" y2="407.09"/><line class="cls-19" x1="896.74" y1="301.79" x2="827.75" y2="301.79"/><rect class="cls-17" x="968.49" y="218.49" width="38.38" height="74.42"/><line class="cls-20" x1="1006.49" y1="255.7" x2="992.33" y2="255.7"/><rect class="cls-17" x="977.56" y="228.31" width="22.33" height="54.66" rx="6.96" ry="6.96"/><rect class="cls-7" x="775.45" y="260.29" width="44.19" height="34.89" transform="translate(519.81 1075.28) rotate(-90)"/><rect class="cls-3" x="755.47" y="348.89" width="84.15" height="34.89" transform="translate(431.22 1163.88) rotate(-90)"/><rect class="cls-7" x="775.45" y="203.31" width="44.19" height="34.89" transform="translate(576.79 1018.3) rotate(-90)"/><rect class="cls-17" x="655.09" y="362.05" width="39.54" height="39.54"/><rect class="cls-17" x="633" y="377.16" width="13.95" height="13.95" rx="2.15" ry="2.15"/><rect class="cls-17" x="702.77" y="377.16" width="13.95" height="13.95" rx="2.15" ry="2.15"/><rect class="cls-17" x="655.09" y="412.05" width="39.54" height="39.54"/><rect class="cls-17" x="633" y="427.17" width="13.95" height="13.95" rx="2.15" ry="2.15"/><rect class="cls-17" x="702.77" y="427.17" width="13.95" height="13.95" rx="2.15" ry="2.15"/><path class="cls-17" d="M22.23,384.66s-.61-5.16.44-8.43c0,0,14.25-2.98,27.62.23,0,0,.98,4.86.06,8.49,0,0-13.32,6.81-28.13-.28Z"/><polygon class="cls-17" points="50.83 394.33 50.79 390.08 22.7 389.46 22.51 394.19 50.83 394.33"/><path class="cls-17" d="M49.8,394.38s3.5,27.71-12.01,29.86c0,0-16.49,1.88-14.16-29.41"/><path class="cls-17" d="M95.46,447.52c4.65,0,12.21-8.14,12.21-11.63v-8.14h-12.21"/><path class="cls-17" d="M95.46,447.52c-4.65,0-12.21-8.14-12.21-11.63,0-3.49,0-8.14,0-8.14h12.21"/><line class="cls-17" x1="83.24" y1="435.89" x2="107.67" y2="435.89"/><line class="cls-19" x1="111.44" y1="491.71" x2="120.75" y2="491.71"/><line class="cls-19" x1="69.58" y1="464.96" x2="50.97" y2="464.96"/><line class="cls-19" x1="14.93" y1="464.96" x2="3.3" y2="464.96"/><polyline class="cls-19" points="3.79 540.76 53.3 540.76 53.3 587.06"/><line class="cls-19" x1="791.73" y1="131.21" x2="1006.87" y2="131.21"/><polyline class="cls-19" points="737.39 4.21 737.39 131.21 754.87 131.21"/><path class="cls-21" d="M420.55,266.11v-52.33c-26.16,0-49.06,29.44-49.06,52.33"/><line class="cls-24" x1="675.32" y1="580.09" x2="675.32" y2="596.37"/><path class="cls-21" d="M15.51,466.12v37.21c18.61,0,34.89-20.93,34.89-37.21"/><path class="cls-8" d="M50.47,464.17v1.67H13.72v-1.67h36.74M51.28,463.35H12.91v3.3h38.38v-3.3h0Z"/><line class="cls-21" x1="32.09" y1="470.82" x2="32.09" y2="459.19"/><path class="cls-21" d="M75.98,492.87v37.21c18.61,0,34.89-20.93,34.89-37.21"/><path class="cls-8" d="M110.94,490.92v1.67h-36.74v-1.67h36.74M111.75,490.1h-38.38v3.3h38.38v-3.3h0Z"/><line class="cls-21" x1="92.56" y1="497.56" x2="92.56" y2="485.93"/><circle class="cls-15" cx="111.44" cy="311.46" r="27.91"/><circle class="cls-15" cx="45.16" cy="311.46" r="27.91"/><path class="cls-4" d="M856.94,234.92c-.78,0-1.25.02-1.79.07.03-.57.06-1.16.06-1.71v-3.17c0-.72-.03-1.22-.06-1.73.5.05.8.07,1.81.07h3.19v-1.11h-4.41c-.7,0-1.3.03-1.94.1v-1.73c.55.07,1.17.1,1.94.1h10.45c.72,0,1.37-.03,1.95-.1v1.73c-.59-.07-1.3-.1-1.95-.1h-4.28v1.11h3.14c1.01,0,1.33-.02,1.81-.05-.05.55-.07,1.07-.07,1.72v3.19c0,.65.02,1.12.07,1.68-.5-.05-.96-.07-1.77-.07h-3.53c-.26.91-.49,1.43-.94,2.12,1.73.78,3.58,1.14,6.06,1.14.5,0,.91-.02,1.76-.07-.33.73-.47,1.16-.62,1.82-3.61-.02-6.12-.52-8.3-1.71-1.33,1.09-2.7,1.61-5.11,1.95-.24-.73-.33-.9-.73-1.61,2.31-.26,3.24-.55,4.36-1.35-.6-.47-.73-.6-1.4-1.32l-.23-.23,1.42-.75h-.86ZM856.87,229.89v1.11h3.22l.02-1.11h-3.24ZM856.87,232.37v1.11h3.13c.03-.36.03-.52.07-1.11h-3.19ZM857.91,234.92c.29.41.7.81,1.21,1.22.31-.44.47-.73.62-1.22h-1.82ZM861.84,232.37c-.03.6-.05.76-.07,1.11h3.34v-1.11h-3.27ZM861.87,231h3.24v-1.11h-3.22l-.02,1.11Z"/><path class="cls-4" d="M867.37,247.36q-.13.13-.26.25t-1.11,1.07c-.49.47-1.22,1.07-1.82,1.5.54.81.99,1.32,1.71,1.92.94.8,1.58,1.22,2.69,1.79-.62.81-.78,1.06-1.14,1.78-1.48-.93-2.43-1.71-3.42-2.85-1.69-1.92-2.78-4.3-3.22-7-.36.62-1.16,1.68-1.77,2.34v5.24c1.29-.34,2.38-.68,3.84-1.22l.05,1.78c-2.59.89-4.22,1.33-6.94,1.94-.52.11-.55.11-.86.2l-.39-1.89c.55-.03,1.16-.13,2.54-.41v-4.09c-.76.6-1.64,1.16-3.01,1.9-.38-.8-.52-1.06-.99-1.69,1.22-.5,2.51-1.24,3.45-1.97.91-.72,1.74-1.63,2.28-2.51h-3.19c-.91,0-1.43.02-1.99.1v-1.86c.62.08,1.19.11,2.04.11h4.07v-.73c0-.46-.03-.85-.1-1.22h1.99c-.07.36-.1.73-.1,1.22v.73h4.36c.88,0,1.45-.03,2-.11v1.84c-.47-.07-1.04-.08-1.97-.08h-3.75c.23,1.37.47,2.18.99,3.3,1.19-.89,2.08-1.79,2.57-2.62l1.45,1.24Z"/><path class="cls-4" d="M859.97,266q-1.04.05-3.52.16c-.76.03-1.24.07-1.4.08l-.2-1.61c.41.05.67.07,1.17.07.29,0,.63,0,1.37-.03.36-.5.65-1.01.93-1.55h-.77c-1.06,0-1.45.02-1.9.07v-.77h-1.6q0-.24.03-.54c.02-.21.03-.59.03-.96v-.81c0-.49-.02-.78-.06-1.19.57.05,1.06.06,1.99.06h3.88v-.23c0-.37-.02-.7-.08-1.03h1.94c-.05.29-.08.63-.08,1.03v.23h4.14c.99,0,1.53-.02,2.02-.06-.03.37-.05.57-.05,1.24v.9c0,.5.03.91.08,1.3h-1.61v.83c-.47-.05-.78-.07-1.74-.07h-.38c1.04.86,1.3,1.11,2.87,2.67l-1.32,1.09c-.5-.62-.68-.83-.99-1.16q-1.03.07-3,.18v1.5h3.34c.81,0,1.12-.02,1.63-.07v1.64c-.5-.05-.88-.06-1.66-.06h-3.3v1.5h4.48c.99,0,1.5-.03,1.99-.1v1.74c-.55-.07-1.2-.1-2.2-.1h-10.06c-.96,0-1.6.03-2.15.1v-1.74c.5.08,1.01.1,1.99.1h4.22v-1.5h-3.01c-.81,0-1.19.02-1.69.06v-1.64c.47.05.77.07,1.71.07h3v-1.4ZM866.14,260.51h-10.35v1.09c.36.03.75.05,1.6.05h7.08c.93,0,1.33-.02,1.68-.05v-1.09ZM860.14,263.12c-.36.67-.52.95-.91,1.5q2.98-.1,4.23-.18c-.31-.31-.44-.41-.85-.75l.98-.57h-3.45Z"/><path class="cls-4" d="M858.1,343.07c-.78,0-1.25.02-1.79.07.03-.57.06-1.16.06-1.71v-3.17c0-.72-.03-1.22-.06-1.73.5.05.8.07,1.81.07h3.19v-1.11h-4.41c-.7,0-1.3.03-1.94.1v-1.73c.55.06,1.17.1,1.94.1h10.45c.72,0,1.37-.03,1.95-.1v1.73c-.59-.07-1.3-.1-1.95-.1h-4.28v1.11h3.14c1.01,0,1.33-.02,1.81-.05-.05.55-.07,1.07-.07,1.73v3.19c0,.65.02,1.12.07,1.68-.5-.05-.96-.07-1.77-.07h-3.53c-.26.91-.49,1.43-.94,2.12,1.73.78,3.58,1.14,6.06,1.14.5,0,.91-.02,1.76-.06-.33.73-.47,1.16-.62,1.82-3.61-.02-6.12-.52-8.3-1.71-1.33,1.09-2.7,1.61-5.11,1.96-.24-.73-.33-.9-.73-1.61,2.31-.26,3.24-.55,4.36-1.35-.6-.47-.73-.6-1.4-1.32l-.23-.23,1.42-.75h-.86ZM858.04,338.04v1.11h3.22l.02-1.11h-3.24ZM858.04,340.51v1.11h3.13c.03-.36.03-.52.07-1.11h-3.19ZM859.08,343.07c.29.41.7.81,1.21,1.22.31-.44.47-.73.62-1.22h-1.82ZM863,340.51c-.03.6-.05.76-.07,1.11h3.34v-1.11h-3.27ZM863.03,339.14h3.24v-1.11h-3.22l-.02,1.11Z"/><path class="cls-4" d="M868.54,355.51q-.13.13-.26.25t-1.11,1.07c-.49.47-1.22,1.08-1.82,1.5.54.81.99,1.32,1.71,1.92.94.8,1.58,1.22,2.69,1.79-.62.81-.78,1.06-1.14,1.78-1.48-.93-2.43-1.71-3.42-2.85-1.69-1.92-2.78-4.3-3.22-7-.36.62-1.16,1.68-1.77,2.34v5.24c1.29-.34,2.38-.68,3.84-1.22l.05,1.77c-2.59.9-4.22,1.33-6.94,1.94-.52.11-.55.11-.86.2l-.39-1.89c.55-.03,1.16-.13,2.54-.41v-4.09c-.76.6-1.64,1.16-3.01,1.9-.38-.8-.52-1.06-.99-1.69,1.22-.5,2.51-1.24,3.45-1.97.91-.72,1.74-1.63,2.28-2.51h-3.19c-.91,0-1.43.02-1.99.1v-1.86c.62.08,1.19.11,2.04.11h4.07v-.73c0-.46-.03-.85-.1-1.22h1.99c-.07.36-.1.73-.1,1.22v.73h4.36c.88,0,1.45-.03,2-.11v1.84c-.47-.07-1.04-.08-1.97-.08h-3.75c.23,1.37.47,2.18.99,3.3,1.19-.9,2.08-1.79,2.57-2.62l1.45,1.24Z"/><path class="cls-4" d="M861.13,374.15q-1.04.05-3.52.16c-.77.03-1.24.06-1.4.08l-.2-1.61c.41.05.67.07,1.17.07.29,0,.63,0,1.37-.03.36-.5.65-1.01.93-1.55h-.77c-1.06,0-1.45.02-1.9.07v-.76h-1.6q0-.25.03-.54c.02-.21.03-.59.03-.96v-.81c0-.49-.02-.78-.06-1.19.57.05,1.06.07,1.99.07h3.88v-.23c0-.38-.02-.7-.08-1.03h1.94c-.05.29-.08.63-.08,1.03v.23h4.13c.99,0,1.53-.02,2.02-.07-.03.37-.05.57-.05,1.24v.9c0,.5.03.91.08,1.3h-1.61v.83c-.47-.05-.78-.07-1.74-.07h-.38c1.04.86,1.3,1.11,2.87,2.67l-1.32,1.09c-.5-.62-.68-.83-.99-1.16q-1.03.06-3,.18v1.5h3.34c.81,0,1.12-.02,1.63-.07v1.64c-.5-.05-.88-.06-1.66-.06h-3.3v1.5h4.48c.99,0,1.5-.03,1.99-.1v1.74c-.55-.07-1.2-.1-2.2-.1h-10.06c-.96,0-1.6.03-2.15.1v-1.74c.5.08,1.01.1,1.99.1h4.22v-1.5h-3.01c-.81,0-1.19.02-1.69.06v-1.64c.47.05.77.07,1.71.07h3v-1.4ZM867.3,368.66h-10.35v1.09c.36.03.75.05,1.6.05h7.08c.93,0,1.33-.02,1.68-.05v-1.09ZM861.31,371.27c-.36.67-.52.94-.91,1.5q2.98-.1,4.23-.18c-.31-.31-.44-.41-.85-.75l.98-.57h-3.45Z"/><path class="cls-4" d="M735.38,228.11c0,.83.02,1.35.08,1.86h-1.89c.07-.6.1-1.06.1-1.87v-4.38c0-.86,0-1.11.03-1.81-.44.73-.75,1.16-1.25,1.71-.2-.8-.39-1.32-.7-1.94,1.76-1.92,2.88-4.09,3.35-6.53l1.76.47c-.57,1.66-.94,2.61-1.48,3.76v6.22c1.73-1.3,3.29-3.45,4.2-5.75h-1.73c-.55,0-1.17.03-1.69.08v-1.77c.49.05,1.11.08,1.73.08h2.34v-1.45c0-.54-.03-1.03-.1-1.51h1.87c-.06.51-.08.96-.08,1.51v1.45h2.95c.7,0,1.33-.03,1.86-.1v1.79c-.55-.05-1.19-.08-1.81-.08h-2.36c.54,1.22.98,1.97,1.87,3.21.67.89,1.55,1.74,2.73,2.65-.44.49-.7.86-1.11,1.64-.85-.78-1.22-1.17-1.79-1.86v1.51c-.34-.05-.68-.07-1.17-.07h-1.17v1.27c0,.64.02,1.17.08,1.74h-1.87c.08-.6.13-1.16.13-1.74v-1.27h-1.14c-.46,0-.81.02-1.14.07v-1.5c-.63.75-.89,1.03-1.69,1.74-.34-.62-.52-.88-.91-1.32v2.17ZM740.27,223.45c0-.83,0-1.16.03-1.91-.73,1.73-1.22,2.59-2.18,3.79.33.03.6.05,1.06.05h1.09v-1.94ZM743.07,225.39c.47,0,.72-.02,1.07-.05-.91-1.17-1.56-2.28-2.26-3.84.03.9.05,1.27.05,1.91v1.99h1.14Z"/><path class="cls-4" d="M750.49,224.38c-.23,2.43-.38,3.26-.83,4.69l-1.4-.63c.5-1.24.75-2.47.85-4.28l1.38.23ZM748.47,221.97c.24.03.5.05,1.04.05h.42c.39-.47.42-.52.73-.96-.83-1.09-1.58-1.91-2.31-2.52l.81-1.45c.34.33.44.42.7.7.5-.8,1.12-2.07,1.27-2.64l1.61.6c-.11.18-.16.26-.29.5q-.77,1.4-1.58,2.64c.33.34.39.42.7.81.93-1.42,1.4-2.26,1.66-2.93l1.43.8c-.11.16-.21.29-.42.65-.9,1.42-2.02,3.01-2.61,3.73.62-.03.83-.05,1.78-.15-.2-.47-.28-.65-.55-1.16l1.22-.54c.67,1.29,1.01,2.13,1.33,3.22l-1.3.6c-.1-.38-.13-.5-.23-.8-.37.03-.81.08-1.29.13v5c0,.81.02,1.21.1,1.71h-1.82c.08-.52.1-.93.1-1.71v-4.85c-.41.03-.8.05-1.16.08-.77.05-.81.05-1.16.11l-.2-1.64ZM754.25,224.17c.26.96.37,1.63.54,3.04l-1.3.29c-.11-1.37-.23-2.08-.46-3.04l1.22-.29ZM762.15,227.8c.37,0,.73-.03.99-.08v1.79c-.46-.07-1.06-.1-1.64-.1h-5.93c-.62,0-1.17.03-1.63.1v-1.79c.34.05.67.08,1.12.08h.46v-10.31c0-.62-.02-1.07-.06-1.63.5.03.94.05,1.61.05h3.34c.76,0,1.24-.02,1.66-.06-.03.55-.05.98-.05,1.76v10.19h.13ZM757.2,219.77h3.19v-2.25h-3.19v2.25ZM757.2,223.66h3.19v-2.31h-3.19v2.31ZM757.2,227.8h3.19v-2.56h-3.19v2.56Z"/><path class="cls-4" d="M778.33,220.78q-.11.24-.36.85c-.72,1.73-1.33,2.9-2.17,3.99.33.57.64,1.03.96,1.38.28.31.63.59.72.59s.15-.1.21-.31q.11-.38.31-1.89c.54.55.75.72,1.43,1.09-.37,2.15-.91,3.09-1.81,3.09-.81,0-2.07-1.07-3-2.57-1.19,1.19-2.43,2.08-3.86,2.78-.5-.73-.67-.93-1.21-1.38,1.66-.68,3.06-1.64,4.28-2.95-.67-1.63-1.03-3.53-1.21-6.35h-4.95q-.02,1.53-.02,2.1h2.93c.57,0,.8-.02,1.12-.05-.02.28-.05.72-.08,1.35-.16,2.87-.26,3.71-.54,4.4-.24.62-.81.86-2.05.86-.44,0-.7-.02-1.22-.05-.07-.7-.16-1.07-.41-1.69.85.11,1.09.13,1.55.13.49,0,.63-.1.73-.49.11-.57.2-1.59.23-2.9h-2.33c-.11,1.82-.25,2.91-.49,4-.29,1.27-.6,2-1.32,3.11-.5-.63-.8-.94-1.38-1.35.57-.86.9-1.61,1.11-2.52.31-1.35.47-3.47.47-6.3,0-1.22-.02-1.63-.1-2.26.59.05,1.24.08,2.05.08h4.62c0-.13-.02-.54-.03-1.24-.02-.59-.02-.65-.08-.99h1.9c-.05.34-.1.98-.1,1.51,0,.13,0,.55.02.72h2.1c-.44-.59-.75-.91-1.42-1.46l1.24-.77c.73.62,1.01.9,1.61,1.66l-.83.57h.49c.85,0,1.27-.02,1.68-.08v1.74c-.52-.05-1.12-.08-1.94-.08h-2.87c.13,2.08.36,3.55.72,4.75.8-1.29,1.35-2.6,1.55-3.71l1.71.63Z"/><path class="cls-4" d="M781.11,217.93c.41.05.76.08,1.35.08h4.12c.62,0,.96-.02,1.35-.07v1.58c-.37-.05-.68-.07-1.35-.07h-4.12c-.54,0-.9.02-1.35.07v-1.6ZM781.78,215.72c.41.05.73.07,1.38.07h2.77c.63,0,.94-.02,1.35-.07v1.53c-.44-.03-.75-.05-1.35-.05h-2.77c-.59,0-.98.02-1.38.05v-1.53ZM783.47,229.98h-1.69c.07-.47.08-.91.08-1.53v-2.43c0-.5-.02-.8-.07-1.24.31.03.52.05,1.12.05h3.42c.5,0,.75-.02,1.03-.05-.03.36-.05.68-.05,1.24v2.33c0,.62.02,1.01.08,1.4h-1.71v-.5h-2.21v.73ZM781.8,220.24c.34.03.52.05,1.06.05h3.39c.54,0,.68,0,1.03-.05v1.51c-.36-.05-.52-.05-1.03-.05h-3.39c-.54,0-.68,0-1.06.05v-1.51ZM781.8,222.51c.29.03.5.05,1.06.05h3.39c.54,0,.7,0,1.03-.05v1.51c-.31-.03-.54-.05-1.06-.05h-3.37c-.52,0-.7.02-1.04.05v-1.51ZM783.44,227.83h2.26v-1.55h-2.26v1.55ZM790.83,217.21c0-.89-.02-1.32-.1-1.92h1.97c-.07.55-.1,1.06-.1,1.92v2.88h1.12c.88,0,1.4-.03,1.94-.1v1.84c-.63-.07-1.17-.1-1.94-.1h-1.12v5.83c0,1.11.03,1.76.11,2.41h-2c.08-.63.11-1.24.11-2.41v-5.83h-.99c-.7,0-1.38.03-1.94.1v-1.84c.5.06,1.07.1,1.94.1h.99v-2.88Z"/><path class="cls-4" d="M746.17,263.48c-1.4.21-2.8.34-4.09.41l-.54-1.81c3.16-.13,6.89-.65,9.51-1.58l.98,1.66c-1.21.37-2.52.7-3.86.96v2.74h5.32v1.71h-5.39c-.33,3.17-1.97,5.23-5.28,6.51l-1.07-1.61c2.72-1.04,4.02-2.51,4.33-4.9h-5.83v-1.71h5.91v-2.38Z"/><path class="cls-4" d="M760.86,271.7v-5.11h-3.83v-1.69h9.57v1.69h-3.88v5.11h4.75v1.69h-11.3v-1.69h4.67Z"/><path class="cls-4" d="M772.53,264.01c.62,1.04,1.16,2.34,1.56,3.61l-1.76.62c-.39-1.29-.9-2.61-1.45-3.63l1.64-.6ZM781.69,263.93c-.81,5.03-3.09,8.45-7.18,10.32l-1.12-1.5c3.75-1.73,5.78-4.56,6.45-9.18l1.86.36ZM775.9,263.31c.65,1.11,1.21,2.39,1.55,3.57l-1.73.59c-.34-1.27-.9-2.61-1.45-3.66l1.63-.49Z"/><path class="cls-4" d="M795.21,262.55l1.09,1.21c-1.64,4.95-4.75,8.29-9.23,10.29l-1.3-1.61c4.05-1.74,6.92-4.69,8.11-8.17h-4.4c-1.03,1.4-2.21,2.64-3.48,3.6l-1.45-1.27c2.15-1.64,3.97-3.97,5.06-6.51l1.95.57c-.29.65-.62,1.29-.98,1.91h4.62Z"/><path class="cls-4" d="M760.45,283.07c-.8,2.07-2.23,3.83-3.99,4.97l-1.22-1.34c1.27-.81,2.25-1.9,2.8-2.98h-10.58v-1.79h12.08l.91,1.14ZM754.34,285.1v1.37c0,4.17-1.63,6.67-5.23,8.09l-1.09-1.68c3.11-1.17,4.25-2.91,4.25-6.5v-1.29h2.07Z"/><path class="cls-4" d="M764.54,284.62c.62,1.04,1.16,2.35,1.56,3.62l-1.76.62c-.39-1.29-.9-2.6-1.45-3.63l1.64-.6ZM773.7,284.53c-.81,5.03-3.09,8.45-7.18,10.32l-1.12-1.5c3.75-1.73,5.78-4.56,6.45-9.18l1.86.36ZM767.91,283.92c.65,1.11,1.21,2.39,1.55,3.57l-1.73.59c-.34-1.27-.9-2.6-1.45-3.66l1.63-.49Z"/><path class="cls-4" d="M786.94,282.61c-.05-.18-.08-.36-.08-.55,0-1.03.83-1.86,1.87-1.86s1.84.83,1.84,1.86-.85,1.84-1.84,1.84c-.18,0-.34-.02-.49-.07-1.01,5.68-3.92,8.92-8.99,10.81l-1.12-1.77c4.36-1.48,7.15-4.35,7.83-8.38h-9.31v-1.87h10.29ZM787.74,282.06c0,.55.42.98.98.98s.98-.42.98-.98-.42-.98-.98-.98-.98.42-.98.98Z"/><path class="cls-4" d="M792.01,354.17c0-.52,0-.94.03-1.71-.39.54-.68.86-1.32,1.42-.24-.75-.52-1.35-.78-1.73,1.12-.85,2.08-1.97,2.72-3.21.36-.7.55-1.21.65-1.68l1.64.68q-.1.15-.24.52c-.2.52-.5,1.14-.99,2v6.37c0,.65.02,1.16.1,1.79h-1.91c.07-.63.1-1.04.1-1.79v-2.67ZM794.09,344.65c0-.33-.02-.5-.06-.81h1.77c-.05.29-.05.47-.05.81v.34h3.37v-.34c0-.31-.02-.5-.07-.81h1.78c-.05.29-.05.46-.05.81v.34h2.17c.73,0,1.27-.03,1.76-.1v1.69c-.52-.07-.94-.08-1.76-.08h-2.17v.29c0,.33,0,.5.05.78h-1.76c.03-.24.05-.42.05-.77v-.31h-3.37v.2c0,.41,0,.52.05.8h-1.77c.05-.29.06-.46.06-.75v-.24h-1.95c-.78,0-1.27.03-1.74.08v-1.69c.5.07,1.03.1,1.74.1h1.95v-.34ZM794.99,356.63c.03-.34.07-.75.07-1.22v-3.32c0-.67-.02-1.04-.05-1.35.42.03.68.05,1.37.05h2.59c.67,0,.99-.02,1.37-.05-.05.33-.05.62-.05,1.3v2.47c0,.59,0,.85.05,1.14-.34-.03-.62-.05-1.22-.05h-2.46v1.03h-1.66ZM796.9,349.66c-.86,0-1.33.02-1.82.06v-1.68c.49.06,1.04.08,1.84.08h6.04c.81,0,1.35-.03,1.84-.08v1.68c-.46-.05-.73-.05-1.42-.06v7.05c0,.73-.21,1.2-.63,1.45-.34.2-.91.28-1.89.28-.49,0-.91-.02-1.53-.06-.07-.75-.16-1.14-.41-1.74.8.11,1.51.18,2.07.18.52,0,.63-.08.63-.44v-6.71h-4.72ZM796.64,354.19h2.1v-1.99h-2.1v1.99Z"/><path class="cls-4" d="M803.31,362.46c.67,0,1.03-.02,1.32-.07q-.05.5-.08,2.02c-.13,5.44-.33,7.83-.77,8.94-.37.96-1.04,1.32-2.46,1.32-.34,0-.73-.03-1.53-.11,0-.65-.13-1.19-.42-1.79.81.2,1.47.28,1.99.28.63,0,.88-.34,1.06-1.46.26-1.73.42-4.33.46-7.57h-.18c-.46,2.6-.94,4.23-1.71,5.8-.96,1.92-2.08,3.24-4.15,4.87-.37-.57-.63-.83-1.35-1.3,1.99-1.29,3.19-2.62,4.15-4.53.75-1.48,1.19-2.9,1.53-4.83h-.65c-.8,3.13-2.1,5.27-4.27,6.98-.31-.59-.6-.91-1.17-1.37.86-.55,1.29-.93,1.87-1.61.98-1.17,1.58-2.36,2.04-4h-.73c-.55,1.14-1.14,2-1.91,2.82-.5-.6-.8-.88-1.33-1.2.39-.34.55-.51.77-.77-.33-.03-.52-.03-.88-.03h-.39v2.98c.55-.2.8-.28,1.5-.59l.02,1.58c-.75.33-.98.42-1.51.63v3.63c0,.67.03,1.22.1,1.82h-1.87c.07-.55.1-1.12.1-1.82v-3.01c-.65.23-1.14.39-1.43.5-.42.13-.54.18-.85.33l-.37-1.89c.73-.06,1.12-.15,2.65-.63v-3.53h-.8c-.13.88-.28,1.5-.6,2.57-.52-.42-.85-.6-1.45-.86.29-.7.42-1.16.6-2.2.13-.81.21-1.63.21-2.26,0-.26,0-.39-.03-.67l1.58.16c-.07.98-.07,1.04-.11,1.64h.6v-1.81c0-.51-.03-.88-.1-1.32h1.87c-.06.41-.1.78-.1,1.32v1.81h.39c.5,0,.77-.02,1.03-.08v1.53c.47-.65.85-1.34,1.14-2.1.39-.99.63-1.81.7-2.46l1.84.33q-.13.33-.49,1.43c-.06.16-.11.33-.23.6h4.43Z"/><path class="cls-4" d="M796.38,385.82c-.16,2.39-.52,3.88-1.27,5.28-.44-.6-.76-.91-1.32-1.25.49-.83.67-1.4.9-2.78.18-1.12.2-1.24.28-3.52-.28.36-.52.78-.7,1.21-.37-.65-.47-.85-.76-1.69.03,1.27.05,1.37.05,1.89v4.35c0,.75.02,1.43.08,1.95h-1.76c.07-.55.1-1.21.1-1.95v-3.22c0-.33.02-1.03.07-2.1-.37,1.47-.73,2.39-1.25,3.27-.34-.77-.55-1.12-.9-1.55.52-.68.86-1.4,1.32-2.69.34-.96.49-1.45.62-2.18h-.52c-.49,0-.78.02-1.06.06v-1.64c.29.05.55.07,1.06.07h.65v-1.22c0-.75-.02-1.19-.08-1.64h1.74c-.05.47-.06.93-.06,1.64v1.22h.16c.41,0,.64-.02.94-.07v1.64c-.28-.05-.55-.06-.93-.06h-.13c.06.28.2.57.44,1.09.37.72.46.86.93,1.45.07-1.64.08-2.08.08-3.7,0-1.73-.02-2.07-.08-2.69.42.05.81.07,1.55.07h1.32c.68,0,1.06-.02,1.4-.07-.03.36-.03.65-.03,1.4v10.89l-.02.2c.29-.59.46-1.21.62-2.44.18-1.47.24-2.96.24-6.9,0-2.04-.02-2.62-.07-3.14.41.05.81.07,1.55.07h1.61c.68,0,1.06-.02,1.42-.07-.03.33-.05.78-.05,1.6v10.75c0,1.3-.42,1.69-1.81,1.69-.21,0-.29,0-1.11-.05-.03-.73-.1-1.09-.33-1.64.62.1.98.13,1.22.13.41,0,.49-.07.49-.46v-3.17h-1.53c-.18,2.7-.42,3.71-1.22,5.31-.34-.52-.67-.88-1.09-1.17-.08.34-.16.52-.36.7-.26.23-.57.29-1.33.29-.34,0-.5,0-.88-.03-.02-.78-.1-1.16-.36-1.64.73.1.86.11,1.11.11.34,0,.44-.1.44-.47v-3.09h-1.37ZM796.47,382.22c0,.37,0,.67-.02.86q0,.72-.02,1.25h1.3v-2.12h-1.27ZM797.74,378.57h-1.24v2l-.02.15h1.25v-2.15ZM802.97,384.34v-2.12h-1.43q-.02,1.48-.03,2.12h1.47ZM802.97,380.72v-2.15h-1.4v2l-.02.15h1.42Z"/><path class="cls-4" d="M41.73,308.53c-.41,0-.73.02-1.12.06v-1.69c.38.07.65.08,1.14.08h.55v-1.35c0-.75-.03-1.14-.1-1.61h1.84c-.07.49-.08.85-.08,1.61v1.35h.49c.36,0,.55-.02.83-.05v1.64c-.31-.03-.5-.05-.81-.05h-.5v2.41c.37-.16.6-.26,1.22-.57v1.61c-.65.34-.85.42-1.22.6v4.48c0,1.22-.41,1.56-1.86,1.56-.29,0-.39,0-1.16-.03-.08-.68-.15-.96-.37-1.64.46.05.98.1,1.29.1.36,0,.44-.08.44-.46v-3.32c-.55.21-.91.34-1.35.49-.08.03-.13.05-.24.1l-.24-1.76c.49-.08,1.03-.23,1.84-.5v-3.06h-.57ZM52,311.25c.15,1.09.21,1.33.42,2,.68-.47,1.09-.83,1.63-1.43l1.11,1.09q-.33.28-1.27,1.06c-.23.2-.47.38-.88.63.59,1.04,1.16,1.66,2.26,2.47-.49.52-.78.91-1.09,1.5-1.25-1.17-1.94-2.07-2.52-3.27-.62-1.3-.86-2.17-1.11-4.05h-.88v4.93c.73-.2,1.04-.28,1.94-.59l.02,1.55c-1.14.41-2.02.65-4.14,1.16-.33.08-.41.1-.73.21l-.39-1.78c.47,0,.85-.05,1.69-.21v-5.28h-.86c-.11,2.08-.24,3.08-.59,4.31-.29,1.09-.65,1.97-1.22,3-.49-.6-.75-.85-1.33-1.32,1.38-2.23,1.66-4,1.66-10.65,0-1.09-.02-1.53-.06-2.02.54.05,1.2.08,1.87.08h5.6c.75,0,1.29-.03,1.77-.1v1.71c-.36-.05-.83-.06-1.68-.06h-5.93v1.68c0,.72-.02,1.12-.03,1.91h6.42c.67,0,1.01-.02,1.38-.08v1.61c-.33-.05-.65-.06-1.19-.06h-1.87ZM54.25,308.76c-.33-.05-.65-.07-1.16-.07h-4.17c-.5,0-.73.02-1.06.05v-1.51c.28.03.54.05,1.07.05h4.15c.54,0,.85-.02,1.16-.07v1.55Z"/><path class="cls-4" d="M60.31,305.86c-1.09.1-1.55.13-2.73.2-.13-.46-.26-.75-.57-1.29,3.13-.02,5.86-.36,6.95-.86l.96,1.3c-.15.02-.67.11-.88.15-.59.11-1.38.24-2.17.36v.9h1.64c.75,0,1.12-.02,1.48-.06v1.42c-.24-.03-.46-.05-1.16-.05h-1.97v.68h1.56c.72,0,1.01-.02,1.33-.03-.03.31-.05.59-.05,1.38v2.17c.02.76.03,1.25.05,1.46-.37-.03-.7-.03-1.45-.03h-1.45v.7h1.38c.8,0,1.12-.02,1.5-.05v1.46c-.29-.05-.52-.07-1.11-.07h-1.77v.78c.83-.07,1.37-.13,2.85-.34v.68c.68-1.03,1.22-2.31,1.5-3.68.24-1.16.36-2.15.44-4.22-.67,0-.91.02-1.33.06v-1.73c.33.05.59.07,1.14.07h.24v-1.16c0-1.32-.02-1.6-.1-2.04h1.84q-.08.44-.11,3.19h1.38c.67,0,1.06-.02,1.48-.07-.05.59-.07.7-.1,3.01-.08,4.12-.29,6.37-.68,7.29-.29.7-.81.95-2,.95-.24,0-1.03-.03-1.27-.07-.05-.68-.11-1.03-.36-1.71-.41.81-.65,1.24-1.3,2.08-.33-.49-.7-.88-1.24-1.27-2.2.33-3.35.46-6.27.68-.29.03-.54.06-.94.11l-.28-1.69c.34.03.49.03.83.03.73,0,1.04-.02,2.72-.11v-.88h-1.64c-.5,0-1.06.02-1.5.07v-1.48c.44.05.8.07,1.51.07h1.63v-.7h-1.38c-.72,0-1.11.02-1.56.03.05-.39.06-.73.06-1.51v-2.07c0-.75-.02-1.04-.06-1.45.46.03.88.05,1.58.05h1.37v-.68h-1.95c-.67,0-1.04.02-1.48.06v-1.45c.44.07.83.08,1.5.08h1.94v-.75ZM58.92,309.8v.67h1.38v-.67h-1.38ZM58.92,311.62v.72h1.38v-.72h-1.38ZM61.87,310.47h1.37v-.67h-1.37v.67ZM61.87,312.34h1.37v-.72h-1.37v.72ZM68.28,308.82c-.16,3.79-.52,5.67-1.5,7.8.81.13,1.06.16,1.4.16.72,0,.85-.2,1.03-1.68.11-.85.16-1.53.23-3.32q.02-.55.03-1.84c.02-.49.02-.59.02-1.12h-1.2Z"/><path class="cls-4" d="M76.86,310.56c.81.55,1.66,1.27,2.51,2.08,1.53-1.14,3.08-2.75,4.07-4.3h-10.08v-1.84h11.59l1.17,1.38c-1.42,2.38-3.4,4.51-5.49,6.09.67.75,1.3,1.55,1.86,2.35l-1.66,1.32c-1.5-2.26-3.55-4.43-5.29-5.78l1.32-1.3Z"/><path class="cls-4" d="M89.4,308.69c1.32.44,2.92,1.24,4.15,2.08l-.99,1.76c-1.25-.86-2.83-1.68-4.07-2.18l.91-1.66ZM88.86,315.82c5.1-.75,8.61-2.91,10.78-7.67l1.69,1.27c-2.36,5.03-6.43,7.49-11.92,8.42l-.55-2.02ZM90.77,304.91c1.3.46,2.8,1.17,4.04,2.05l-.98,1.73c-1.27-.91-2.75-1.63-3.99-2.15l.93-1.63Z"/><path class="cls-4" d="M105,305.57c1.35.77,2.7,1.84,3.86,3.13l-1.48,1.56c-1.14-1.29-2.52-2.49-3.68-3.3l1.3-1.38ZM103.94,315.74c5.18-1.22,8.61-3.94,10.31-8.32l1.74,1.07c-1.89,4.95-6.01,7.96-11.35,9.15l-.7-1.91Z"/><polygon class="cls-2" points="566.13 571.95 209.13 571.95 209.13 411.81 166.1 411.81 166.1 285.88 365.87 285.88 365.87 394.81 566.13 394.81 566.13 571.95"/><polygon class="cls-1" points="638.23 371.81 447.52 371.81 447.52 20.74 721.96 20.74 721.96 131.21 638.23 131.21 638.23 371.81"/><path class="cls-6" d="M496.31,175.67c-.88.23-1.69-.26-1.92-1.07-.1-.26-.16-.59-.26-.94-.16-.62-.42-1.47-.68-2.47h-5.54c-.29,1.01-.52,1.86-.68,2.47-.1.36-.16.68-.26.94-.23.81-1.04,1.3-1.92,1.07-.81-.23-1.3-1.04-1.08-1.92l5.21-18.89c.16-.68.75-1.14,1.5-1.14s1.33.46,1.5,1.14l5.21,18.89c.23.88-.26,1.69-1.07,1.92ZM490.68,161.18c-.62,2.12-1.27,4.62-1.89,6.87h3.78c-.62-2.25-1.27-4.75-1.89-6.87Z"/><path class="cls-6" d="M501,174.17v-18.89c0-.88.68-1.56,1.56-1.56s1.56.68,1.56,1.56v18.89c0,.88-.68,1.56-1.56,1.56s-1.56-.68-1.56-1.56Z"/><path class="cls-6" d="M516.95,174.17v-18.89c0-.75.46-1.37,1.21-1.53.75-.16,1.46.2,1.76.88.42.94.88,1.89,1.33,2.83.75,1.66,1.73,3.61,2.47,5.21.75-1.6,1.69-3.55,2.44-5.21.42-.94.88-1.89,1.33-2.83.36-.68,1.01-1.04,1.76-.88.75.16,1.24.78,1.24,1.53v18.89c0,.88-.68,1.56-1.56,1.56s-1.56-.68-1.56-1.56v-11.88c-.55,1.17-1.11,2.34-1.53,3.22-.23.52-.49,1.01-.72,1.5-.26.55-.78.91-1.4.91-.68,0-1.14-.29-1.43-.91-.23-.49-.49-.98-.72-1.5-.42-.88-.98-2.05-1.5-3.22v11.88c0,.88-.68,1.56-1.56,1.56s-1.56-.68-1.56-1.56Z"/><path class="cls-6" d="M540.79,164.33c0-.68-.42-1.33-1.07-1.6-.65-.26-1.4-.13-1.89.39-.29.29-.62.42-1.04.42-.39,0-.72-.13-1.01-.42s-.46-.65-.46-1.04.16-.75.46-1.04c1.33-1.33,3.32-1.76,5.05-1.01,1.79.75,2.9,2.38,2.9,4.3v9.7c0,.81-.65,1.47-1.47,1.47h-3.26c-2.6,0-4.72-2.12-4.72-4.72s2.12-4.72,4.72-4.72h1.79v-1.73ZM537.2,170.78c0,1.01.78,1.79,1.79,1.79h1.79v-3.58h-1.79c-1.01,0-1.79.78-1.79,1.79Z"/><path class="cls-6" d="M548.24,170.91v-6.51c0-1.95,1.11-3.61,2.9-4.36,1.82-.75,3.81-.36,5.15,1.04.29.29.46.62.46,1.04,0,.39-.16.72-.46,1.01s-.62.46-1.04.46c-.39,0-.72-.16-1.01-.46-.52-.52-1.3-.65-1.95-.39-.68.29-1.11.91-1.11,1.66v6.51c0,.75.42,1.37,1.11,1.66.65.26,1.43.13,1.95-.39.29-.29.62-.46,1.01-.46.42,0,.75.16,1.04.46s.46.65.46,1.04-.16.75-.46,1.04c-1.33,1.34-3.32,1.76-5.15,1.01-1.79-.75-2.9-2.41-2.9-4.36Z"/><path class="cls-6" d="M560.91,174.17v-19.54c0-.81.65-1.46,1.46-1.46s1.47.65,1.47,1.46v5.18h1.79c2.6,0,4.72,2.12,4.72,4.72v9.64c0,.81-.65,1.47-1.47,1.47s-1.46-.65-1.46-1.47v-9.64c0-1.01-.78-1.79-1.79-1.79h-1.79v11.43c0,.81-.65,1.47-1.47,1.47s-1.46-.65-1.46-1.47Z"/><path class="cls-6" d="M574.94,156.26c0-1.01.78-1.79,1.79-1.79s1.79.78,1.79,1.79-.78,1.79-1.79,1.79-1.79-.78-1.79-1.79ZM576.73,175.63c-.81,0-1.46-.65-1.46-1.47v-13.02c0-.81.65-1.47,1.46-1.47s1.47.65,1.47,1.47v13.02c0,.81-.65,1.47-1.47,1.47Z"/><path class="cls-6" d="M583.37,174.17v-12.89c0-.81.65-1.46,1.46-1.46h3.26c2.6,0,4.72,2.12,4.72,4.72v9.64c0,.81-.68,1.47-1.47,1.47s-1.46-.65-1.46-1.47v-9.64c0-1.01-.78-1.79-1.79-1.79h-1.79v11.43c0,.81-.68,1.47-1.47,1.47s-1.46-.65-1.46-1.47Z"/><path class="cls-6" d="M597.34,170.91v-6.51c0-2.6,2.12-4.72,4.72-4.72s4.72,2.12,4.72,4.72v3.26c0,.81-.65,1.46-1.46,1.46h-5.05v1.79c0,.75.42,1.37,1.11,1.66.68.26,1.43.13,1.95-.39.29-.29.62-.46,1.01-.46.42,0,.78.16,1.07.46s.42.65.42,1.04-.13.75-.42,1.04c-1.4,1.34-3.35,1.76-5.14,1.01-1.82-.75-2.93-2.41-2.93-4.36ZM600.27,164.4v1.79h3.58v-1.79c0-1.01-.78-1.79-1.79-1.79s-1.79.78-1.79,1.79Z"/><path class="cls-6" d="M528.07,197.3c0-.68-.42-1.34-1.07-1.6-.65-.26-1.4-.13-1.89.39-.29.29-.62.42-1.04.42-.39,0-.72-.13-1.01-.42s-.46-.65-.46-1.04.16-.75.46-1.04c1.33-1.33,3.32-1.76,5.05-1.01,1.79.75,2.9,2.38,2.9,4.3v9.7c0,.81-.65,1.46-1.47,1.46h-3.26c-2.6,0-4.72-2.12-4.72-4.72s2.12-4.72,4.72-4.72h1.79v-1.73ZM524.49,203.75c0,1.01.78,1.79,1.79,1.79h1.79v-3.58h-1.79c-1.01,0-1.79.78-1.79,1.79Z"/><path class="cls-6" d="M535.92,207.13v-12.9c0-.81.65-1.46,1.46-1.46h3.26c.81,0,1.6.2,2.34.62.75.42.94,1.27.55,2.02-.42.68-1.27.94-2.02.52-.29-.16-.59-.23-.88-.23h-1.79v11.43c0,.81-.65,1.46-1.47,1.46s-1.46-.65-1.46-1.46Z"/><path class="cls-6" d="M546.86,203.88v-6.51c0-2.6,2.12-4.72,4.72-4.72s4.72,2.12,4.72,4.72v3.26c0,.81-.65,1.47-1.46,1.47h-5.05v1.79c0,.75.42,1.37,1.11,1.66.68.26,1.43.13,1.95-.39.29-.29.62-.46,1.01-.46.42,0,.78.16,1.07.46s.42.65.42,1.04-.13.75-.42,1.04c-1.4,1.33-3.35,1.76-5.14,1.01-1.82-.75-2.93-2.41-2.93-4.36ZM549.79,197.36v1.79h3.58v-1.79c0-1.01-.78-1.79-1.79-1.79s-1.79.78-1.79,1.79Z"/><path class="cls-6" d="M566.04,197.3c0-.68-.42-1.34-1.07-1.6-.65-.26-1.4-.13-1.89.39-.29.29-.62.42-1.04.42-.39,0-.72-.13-1.01-.42s-.46-.65-.46-1.04.16-.75.46-1.04c1.33-1.33,3.32-1.76,5.05-1.01,1.79.75,2.9,2.38,2.9,4.3v9.7c0,.81-.65,1.46-1.47,1.46h-3.26c-2.6,0-4.72-2.12-4.72-4.72s2.12-4.72,4.72-4.72h1.79v-1.73ZM562.45,203.75c0,1.01.78,1.79,1.79,1.79h1.79v-3.58h-1.79c-1.01,0-1.79.78-1.79,1.79Z"/><path class="cls-6" d="M851.2,510.06c.06-.75-.16-1.4-.68-1.95l-5.21-5.34c-1.14-1.14-1.66-2.67-1.53-4.23.13-1.56.88-3,2.15-3.94,1.27-.95,2.87-1.3,4.4-1.01,1.53.36,2.87,1.24,3.65,2.64.42.75.16,1.66-.59,2.15-.75.42-1.69.16-2.12-.59-.36-.59-.88-.98-1.56-1.14-.68-.13-1.33.03-1.89.46s-.88.98-.91,1.69c-.06.68.16,1.3.65,1.79l5.18,5.34c1.14,1.17,1.73,2.77,1.6,4.36-.13,1.66-.94,3.06-2.21,4.07-1.3,1.01-2.93,1.33-4.53,1.04-1.6-.36-2.96-1.3-3.75-2.7-.49-.75-.2-1.73.55-2.15s1.66-.16,2.15.59c.36.62.91,1.04,1.66,1.21.75.13,1.43-.03,2.02-.49.62-.42.88-1.04.98-1.79Z"/><path class="cls-6" d="M857.09,501.04c0-.81.65-1.46,1.46-1.46h1.14v-5.18c0-.81.65-1.47,1.47-1.47s1.46.65,1.46,1.47v5.18h1.79c.81,0,1.47.65,1.47,1.46s-.65,1.46-1.47,1.46h-1.79v8.17c0,1.01.78,1.79,1.79,1.79.81,0,1.47.65,1.47,1.46s-.65,1.46-1.47,1.46c-2.6,0-4.72-2.12-4.72-4.72v-8.17h-1.14c-.81,0-1.46-.65-1.46-1.46Z"/><path class="cls-6" d="M869.76,513.94v-12.89c0-.81.65-1.46,1.46-1.46h3.26c.81,0,1.6.2,2.34.62.75.42.94,1.27.55,2.02-.42.68-1.27.94-2.02.52-.29-.16-.59-.23-.88-.23h-1.79v11.43c0,.81-.65,1.46-1.47,1.46s-1.46-.65-1.46-1.46Z"/><path class="cls-6" d="M880.7,510.68v-6.51c0-2.61,2.12-4.72,4.72-4.72s4.72,2.12,4.72,4.72v3.26c0,.81-.65,1.47-1.46,1.47h-5.05v1.79c0,.75.42,1.37,1.11,1.66.68.26,1.43.13,1.95-.39.29-.29.62-.46,1.01-.46.42,0,.78.16,1.07.46s.42.65.42,1.04-.13.75-.42,1.04c-1.4,1.33-3.35,1.76-5.14,1.01-1.82-.75-2.93-2.41-2.93-4.36ZM883.63,504.17v1.79h3.58v-1.79c0-1.01-.78-1.79-1.79-1.79s-1.79.78-1.79,1.79Z"/><path class="cls-6" d="M893.24,501.04c0-.81.65-1.46,1.46-1.46h1.14v-5.18c0-.81.65-1.47,1.47-1.47s1.46.65,1.46,1.47v5.18h1.79c.81,0,1.47.65,1.47,1.46s-.65,1.46-1.47,1.46h-1.79v8.17c0,1.01.78,1.79,1.79,1.79.81,0,1.47.65,1.47,1.46s-.65,1.46-1.47,1.46c-2.6,0-4.72-2.12-4.72-4.72v-8.17h-1.14c-.81,0-1.46-.65-1.46-1.46Z"/><path class="cls-6" d="M905.51,510.68v-6.51c0-1.95,1.11-3.61,2.9-4.36,1.82-.75,3.81-.36,5.15,1.04.29.29.46.62.46,1.04,0,.39-.16.72-.46,1.01s-.62.46-1.04.46c-.39,0-.72-.16-1.01-.46-.52-.52-1.3-.65-1.95-.39-.68.29-1.11.91-1.11,1.66v6.51c0,.75.42,1.37,1.11,1.66.65.26,1.43.13,1.95-.39.29-.29.62-.46,1.01-.46.42,0,.75.16,1.04.46s.46.65.46,1.04-.16.75-.46,1.04c-1.33,1.33-3.32,1.76-5.15,1.01-1.79-.75-2.9-2.41-2.9-4.36Z"/><path class="cls-6" d="M918.18,513.94v-19.54c0-.81.65-1.47,1.46-1.47s1.47.65,1.47,1.47v5.18h1.79c2.6,0,4.72,2.12,4.72,4.72v9.64c0,.81-.65,1.46-1.47,1.46s-1.46-.65-1.46-1.46v-9.64c0-1.01-.78-1.79-1.79-1.79h-1.79v11.43c0,.81-.65,1.46-1.47,1.46s-1.46-.65-1.46-1.46Z"/><path class="cls-6" d="M868.22,537.07c0-.68-.42-1.33-1.07-1.6-.65-.26-1.4-.13-1.89.39-.29.29-.62.42-1.04.42-.39,0-.72-.13-1.01-.42-.29-.29-.46-.65-.46-1.04s.16-.75.46-1.04c1.33-1.34,3.32-1.76,5.05-1.01,1.79.75,2.9,2.38,2.9,4.3v9.7c0,.81-.65,1.46-1.47,1.46h-3.26c-2.6,0-4.72-2.12-4.72-4.72s2.12-4.72,4.72-4.72h1.79v-1.73ZM864.63,543.51c0,1.01.78,1.79,1.79,1.79h1.79v-3.58h-1.79c-1.01,0-1.79.78-1.79,1.79Z"/><path class="cls-6" d="M876.06,546.9v-12.89c0-.81.65-1.47,1.46-1.47h3.26c.81,0,1.6.2,2.34.62.75.42.94,1.27.55,2.02-.42.68-1.27.94-2.02.52-.29-.16-.59-.23-.88-.23h-1.79v11.43c0,.81-.65,1.47-1.47,1.47s-1.46-.65-1.46-1.47Z"/><path class="cls-6" d="M887,543.64v-6.51c0-2.61,2.12-4.72,4.72-4.72s4.72,2.12,4.72,4.72v3.26c0,.81-.65,1.46-1.46,1.46h-5.05v1.79c0,.75.42,1.37,1.11,1.66.68.26,1.43.13,1.95-.39.29-.29.62-.46,1.01-.46.42,0,.78.16,1.07.46s.42.65.42,1.04-.13.75-.42,1.04c-1.4,1.33-3.35,1.76-5.14,1.01-1.82-.75-2.93-2.41-2.93-4.36ZM889.93,537.13v1.79h3.58v-1.79c0-1.01-.78-1.79-1.79-1.79s-1.79.78-1.79,1.79Z"/><path class="cls-6" d="M906.18,537.07c0-.68-.42-1.33-1.07-1.6-.65-.26-1.4-.13-1.89.39-.29.29-.62.42-1.04.42-.39,0-.72-.13-1.01-.42-.29-.29-.46-.65-.46-1.04s.16-.75.46-1.04c1.33-1.34,3.32-1.76,5.05-1.01,1.79.75,2.9,2.38,2.9,4.3v9.7c0,.81-.65,1.46-1.47,1.46h-3.26c-2.6,0-4.72-2.12-4.72-4.72s2.12-4.72,4.72-4.72h1.79v-1.73ZM902.6,543.51c0,1.01.78,1.79,1.79,1.79h1.79v-3.58h-1.79c-1.01,0-1.79.78-1.79,1.79Z"/><path class="cls-6" d="M627.03,525.6h6.51c.88,0,1.56.68,1.56,1.56s-.68,1.56-1.56,1.56h-4.95v5.86h4.3c.88,0,1.56.68,1.56,1.56s-.68,1.56-1.56,1.56h-4.3v6.51h4.95c.88,0,1.56.68,1.56,1.56s-.68,1.56-1.56,1.56h-6.51c-.88,0-1.56-.68-1.56-1.56v-18.63c0-.88.68-1.56,1.56-1.56Z"/><path class="cls-6" d="M639.14,545.91v-12.89c0-.81.65-1.46,1.46-1.46h3.26c2.6,0,4.72,2.12,4.72,4.72v9.64c0,.81-.68,1.47-1.47,1.47s-1.46-.65-1.46-1.47v-9.64c0-1.01-.78-1.79-1.79-1.79h-1.79v11.43c0,.81-.68,1.47-1.47,1.47s-1.46-.65-1.46-1.47Z"/><path class="cls-6" d="M652.07,533.02c0-.81.65-1.46,1.46-1.46h1.14v-5.18c0-.81.65-1.46,1.47-1.46s1.46.65,1.46,1.46v5.18h1.79c.81,0,1.47.65,1.47,1.46s-.65,1.46-1.47,1.46h-1.79v8.17c0,1.01.78,1.79,1.79,1.79.81,0,1.47.65,1.47,1.46s-.65,1.47-1.47,1.47c-2.6,0-4.72-2.12-4.72-4.72v-8.17h-1.14c-.81,0-1.46-.65-1.46-1.46Z"/><path class="cls-6" d="M664.74,545.91v-12.89c0-.81.65-1.46,1.46-1.46h3.26c.81,0,1.6.2,2.34.62.75.42.94,1.27.55,2.02-.42.68-1.27.95-2.02.52-.29-.16-.59-.23-.88-.23h-1.79v11.43c0,.81-.65,1.47-1.47,1.47s-1.46-.65-1.46-1.47Z"/><path class="cls-6" d="M681.28,536.08c0-.68-.42-1.33-1.07-1.6-.65-.26-1.4-.13-1.89.39-.29.29-.62.42-1.04.42-.39,0-.72-.13-1.01-.42s-.46-.65-.46-1.04.16-.75.46-1.04c1.33-1.33,3.32-1.76,5.05-1.01,1.79.75,2.9,2.38,2.9,4.3v9.7c0,.81-.65,1.47-1.47,1.47h-3.26c-2.6,0-4.72-2.12-4.72-4.72s2.12-4.72,4.72-4.72h1.79v-1.73ZM677.7,542.53c0,1.01.78,1.79,1.79,1.79h1.79v-3.58h-1.79c-1.01,0-1.79.78-1.79,1.79Z"/><path class="cls-6" d="M689.12,545.91v-12.89c0-.81.65-1.46,1.46-1.46h3.26c2.6,0,4.72,2.12,4.72,4.72v9.64c0,.81-.68,1.47-1.47,1.47s-1.46-.65-1.46-1.47v-9.64c0-1.01-.78-1.79-1.79-1.79h-1.79v11.43c0,.81-.68,1.47-1.47,1.47s-1.46-.65-1.46-1.47Z"/><path class="cls-6" d="M703.09,542.66v-6.51c0-1.95,1.11-3.61,2.9-4.36,1.82-.75,3.81-.36,5.15,1.04.29.29.46.62.46,1.04,0,.39-.16.72-.46,1.01-.29.29-.62.46-1.04.46-.39,0-.72-.16-1.01-.46-.52-.52-1.3-.65-1.95-.39-.68.29-1.11.91-1.11,1.66v6.51c0,.75.42,1.37,1.11,1.66.65.26,1.43.13,1.95-.39.29-.29.62-.46,1.01-.46.42,0,.75.16,1.04.46.29.29.46.65.46,1.04s-.16.75-.46,1.04c-1.33,1.34-3.32,1.76-5.15,1.01-1.79-.75-2.9-2.41-2.9-4.36Z"/><path class="cls-6" d="M715.37,542.66v-6.51c0-2.6,2.12-4.72,4.72-4.72s4.72,2.12,4.72,4.72v3.26c0,.81-.65,1.46-1.46,1.46h-5.05v1.79c0,.75.42,1.37,1.11,1.66.68.26,1.43.13,1.95-.39.29-.29.62-.46,1.01-.46.42,0,.78.16,1.07.46s.42.65.42,1.04-.13.75-.42,1.04c-1.4,1.34-3.35,1.76-5.14,1.01-1.82-.75-2.93-2.41-2.93-4.36ZM718.3,536.15v1.79h3.58v-1.79c0-1.01-.78-1.79-1.79-1.79s-1.79.78-1.79,1.79Z"/><path class="cls-6" d="M315.96,466.42v-11.07c0-2.48,1.66-4.66,4.04-5.28,2.44-.65,4.88.36,6.15,2.54.49.75.2,1.66-.55,2.15-.75.42-1.66.16-2.15-.59-.52-.91-1.6-1.37-2.64-1.07-1.01.26-1.73,1.21-1.73,2.25v11.07c0,1.07.72,1.99,1.73,2.28,1.04.26,2.12-.2,2.64-1.11.49-.75,1.4-1.01,2.15-.59.75.49,1.04,1.4.55,2.15-1.27,2.18-3.71,3.19-6.15,2.54-2.38-.62-4.04-2.77-4.04-5.28Z"/><path class="cls-6" d="M335.79,460.49c0-.68-.42-1.33-1.07-1.6-.65-.26-1.4-.13-1.89.39-.29.29-.62.42-1.04.42-.39,0-.72-.13-1.01-.42-.29-.29-.46-.65-.46-1.04s.16-.75.46-1.04c1.33-1.34,3.32-1.76,5.05-1.01,1.79.75,2.9,2.38,2.9,4.3v9.7c0,.81-.65,1.46-1.47,1.46h-3.26c-2.6,0-4.72-2.12-4.72-4.72s2.12-4.72,4.72-4.72h1.79v-1.73ZM332.21,466.94c0,1.01.78,1.79,1.79,1.79h1.79v-3.58h-1.79c-1.01,0-1.79.78-1.79,1.79Z"/><path class="cls-6" d="M343.64,470.32v-12.89c0-.81.65-1.47,1.46-1.47h3.26c.81,0,1.6.2,2.34.62.75.42.94,1.27.55,2.02-.42.68-1.27.94-2.02.52-.29-.16-.59-.23-.88-.23h-1.79v11.43c0,.81-.65,1.47-1.47,1.47s-1.46-.65-1.46-1.47Z"/><path class="cls-6" d="M354.58,466.94v-6.25c0-2.6,2.12-4.72,4.72-4.72h1.79v-5.18c0-.81.65-1.46,1.46-1.46s1.46.65,1.46,1.46v19.41c0,.81-.65,1.46-1.46,1.46h-3.26c-2.61,0-4.72-2.12-4.72-4.72ZM357.51,460.68v6.25c0,1.01.78,1.79,1.79,1.79h1.79v-9.83h-1.79c-1.01,0-1.79.78-1.79,1.79Z"/><path class="cls-6" d="M368.87,452.41c0-1.01.78-1.79,1.79-1.79s1.79.78,1.79,1.79-.78,1.79-1.79,1.79-1.79-.78-1.79-1.79ZM370.66,471.79c-.81,0-1.46-.65-1.46-1.47v-13.02c0-.81.65-1.47,1.46-1.47s1.47.65,1.47,1.47v13.02c0,.81-.65,1.47-1.47,1.47Z"/><path class="cls-6" d="M376.92,467.07v-6.51c0-2.61,2.12-4.72,4.72-4.72s4.72,2.12,4.72,4.72v6.51c0,2.61-2.12,4.72-4.72,4.72s-4.72-2.12-4.72-4.72ZM379.85,460.55v6.51c0,1.01.78,1.79,1.79,1.79s1.79-.78,1.79-1.79v-6.51c0-1.01-.78-1.79-1.79-1.79s-1.79.78-1.79,1.79Z"/><path class="cls-6" d="M404.2,460.49c0-.68-.42-1.33-1.07-1.6-.65-.26-1.4-.13-1.89.39-.29.29-.62.42-1.04.42-.39,0-.72-.13-1.01-.42-.29-.29-.46-.65-.46-1.04s.16-.75.46-1.04c1.33-1.34,3.32-1.76,5.05-1.01,1.79.75,2.9,2.38,2.9,4.3v9.7c0,.81-.65,1.46-1.47,1.46h-3.26c-2.61,0-4.72-2.12-4.72-4.72s2.12-4.72,4.72-4.72h1.79v-1.73ZM400.62,466.94c0,1.01.78,1.79,1.79,1.79h1.79v-3.58h-1.79c-1.01,0-1.79.78-1.79,1.79Z"/><path class="cls-6" d="M412.05,470.32v-12.89c0-.81.65-1.47,1.46-1.47h3.26c.81,0,1.6.2,2.34.62.75.42.94,1.27.55,2.02-.42.68-1.27.94-2.02.52-.29-.16-.59-.23-.88-.23h-1.79v11.43c0,.81-.65,1.47-1.47,1.47s-1.46-.65-1.46-1.47Z"/><path class="cls-6" d="M422.99,467.07v-6.51c0-2.61,2.12-4.72,4.72-4.72s4.72,2.12,4.72,4.72v3.26c0,.81-.65,1.46-1.46,1.46h-5.05v1.79c0,.75.42,1.37,1.11,1.66.68.26,1.43.13,1.95-.39.29-.29.62-.46,1.01-.46.42,0,.78.16,1.07.46s.42.65.42,1.04-.13.75-.42,1.04c-1.4,1.33-3.35,1.76-5.14,1.01-1.82-.75-2.93-2.41-2.93-4.36ZM425.92,460.55v1.79h3.58v-1.79c0-1.01-.78-1.79-1.79-1.79s-1.79.78-1.79,1.79Z"/><path class="cls-6" d="M442.17,460.49c0-.68-.42-1.33-1.07-1.6-.65-.26-1.4-.13-1.89.39-.29.29-.62.42-1.04.42-.39,0-.72-.13-1.01-.42-.29-.29-.46-.65-.46-1.04s.16-.75.46-1.04c1.33-1.34,3.32-1.76,5.05-1.01,1.79.75,2.9,2.38,2.9,4.3v9.7c0,.81-.65,1.46-1.47,1.46h-3.26c-2.61,0-4.72-2.12-4.72-4.72s2.12-4.72,4.72-4.72h1.79v-1.73ZM438.59,466.94c0,1.01.78,1.79,1.79,1.79h1.79v-3.58h-1.79c-1.01,0-1.79.78-1.79,1.79Z"/><path class="cls-6" d="M45.92,527.06h-1.44l-2.77-14.12-2.74,14.12h-1.44l-2.56-16.56h1.51l1.77,14.09,2.67-14.09h1.56l2.72,14.09,1.74-14.09h1.49l-2.51,16.56Z"/><path class="cls-6" d="M56.82,526.45c-.56.51-1.3.79-2.28.79-1.07,0-1.91-.37-2.47-.98-1-1.07-1.16-2.23-1.16-7.49s.16-6.42,1.16-7.49c.56-.61,1.4-.98,2.47-.98s1.81.33,2.37.88c.72.72,1.05,1.84,1.07,3.09h-1.37c0-.84-.16-1.67-.65-2.19-.33-.35-.77-.56-1.42-.56s-1.14.23-1.47.6c-.67.79-.79,1.77-.79,6.63s.12,5.84.79,6.63c.33.37.81.6,1.47.6s1.12-.23,1.42-.56c.49-.51.65-1.37.65-2.19h1.37c-.02,1.3-.4,2.49-1.16,3.19Z"/><path class="cls-8" d="M122.74,502.28v36.74h-1.66v-36.74h1.66M123.55,501.47h-3.3v38.38h3.3v-38.38h0Z"/><line class="cls-21" x1="127.72" y1="520.65" x2="116.09" y2="520.65"/><line class="cls-22" x1="896.39" y1="223.08" x2="896.39" y2="283.55"/><line class="cls-22" x1="896.39" y1="320.76" x2="896.39" y2="381.23"/><line class="cls-16" x1="121.68" y1="565.14" x2="114.26" y2="565.14"/><path class="cls-17" d="M120.73,577.77h-11.96c-2.38,0-4.3-1.93-4.3-4.3v-16.81c0-2.38,1.93-4.3,4.3-4.3h11.96"/><rect class="cls-17" x="108.67" y="557.25" width="9.79" height="16.79" rx="3.39" ry="3.39"/><path class="cls-11" d="M419.63,267.09v2.65h-48.16v-2.65h48.16M420.77,265.95h-50.45v4.94h50.45v-4.94h0Z"/><line class="cls-21" x1="395.54" y1="262.6" x2="395.54" y2="274.23"/><line class="cls-19" x1="997.56" y1="195.17" x2="1006.99" y2="195.17"/><path class="cls-23" d="M792.78,129.21v-39.4c-19.7,0-36.94,22.16-36.94,39.4"/><path class="cls-11" d="M792.09,129.95v2h-36.26v-2h36.26M792.95,129.08h-37.99v3.72h37.99v-3.72h0Z"/><line class="cls-23" x1="773.96" y1="126.57" x2="773.96" y2="135.32"/></g></svg>