<?xml version="1.0" encoding="UTF-8"?><svg id="_レイヤー_2" xmlns="http://www.w3.org/2000/svg" viewBox="0 0 240.2 240.2"><defs><style>.cls-1{fill:#fff100;stroke-width:0px;}.cls-2{fill:none;stroke:#fff100;stroke-dasharray:0 0 6.94 18.52;stroke-linejoin:round;stroke-width:6.1px;}</style></defs><g id="DESIGN"><circle id="_グループ_" class="cls-2" cx="120.1" cy="120.1" r="117.05"/><path class="cls-1" d="M50.54,86.03l-1.9,5.49h-4.37l8.26-22.34h5.07l8.26,22.34h-4.37l-1.9-5.49h-9.04ZM58.4,82.64l-3.33-9.6-3.36,9.6h6.69Z"/><path class="cls-1" d="M73.64,69.17v22.34h-4.03v-22.34h4.03Z"/><path class="cls-1" d="M90.1,88.79c-.48-.41-1.18-1.01-2.54-1.66-.41,2.88-1.22,4.1-1.97,5.06l-2.06-1.94c1.27-2.11,1.54-3.53,1.61-6.7h-.7v-1.63l-.77,2.02c-.31-.5-.43-.7-.96-1.78v10.01h-2.69v-8.28c-.48,1.78-.96,2.64-1.39,3.46l-1.13-4.06c1.25-2.06,1.97-4.39,2.4-6.77h-2.11v-2.76h2.23v-4.2h2.69v4.2h1.44v2.76h-1.44v1.46c.5,1.08,1.15,2.04,1.92,3.02h6.46c-.38-2.57-.65-5.35-.74-8.3-.55.77-2.62,3.48-3.94,4.87.38,0,1.54-.05,1.85-.07-.19-.62-.26-.82-.43-1.18l1.7-.5c.72,1.58,1.03,3.14,1.15,3.79l-1.85.55c-.05-.46-.1-.6-.14-.94-1.2.14-3.62.34-4.78.43l-.26-2.06h.36c.46-.48,1.27-1.49,1.87-2.23-1.13-1.3-1.92-1.97-2.45-2.45l1.22-1.78c.12.1.34.26.48.38.89-1.22,1.06-1.56,1.3-2.06l2.02.62c-.43.7-.96,1.58-1.92,2.66.24.29.48.53.74.86.89-1.15,1.13-1.58,1.44-2.11l1.61.89c-.02-.72-.02-1.34-.02-2.83h2.71c0,.96,0,1.92.05,2.98l1.06-1.44.38.34c.89-1.34,1.01-1.61,1.2-1.99l1.99.58c-.7,1.22-1.54,2.33-1.87,2.76.26.26.46.48.72.79.98-1.34,1.1-1.49,1.49-2.11l1.8.79c-1.42,2.09-2.18,3.1-3.82,4.87.36-.02,1.97-.12,2.23-.14-.22-.65-.26-.77-.46-1.15l1.68-.53c.55,1.1.91,2.42,1.3,3.79l-1.85.62c-.1-.53-.14-.67-.19-.96-.38.05-1.2.14-1.63.19.5.41.65.55,1.39,1.34l-1.1.72h3.12v2.54h-6.22c.17.79.43,1.85.65,2.57.96-.94,1.44-1.66,1.87-2.35l2.35.98c-.41.72-1.2,2.06-3.12,3.79.19.29.62.94,1.22.94.26,0,.48-.22.6-.38.19-.29.72-1.08,1.15-2.3l1.73,2.16c-.62,1.58-1.44,3.29-3.46,3.29-1.75,0-2.76-.94-3.5-2.02-1.99,1.22-3.43,1.66-4.37,1.92l-1.08-2.4c.91-.26,2.4-.7,4.39-1.9-.24-.6-.72-1.92-1.2-4.3h-3.72c0,.53,0,.79-.02,1.22,1.97.62,3,1.34,3.5,1.68l-1.18,2.33ZM93.58,77.23c.24-.29.72-.84,1.61-1.94-.38-.5-1.22-1.46-2.11-2.21.05,1.7.17,3.05.29,4.15h.22ZM95.74,79.05c-.36.02-1.85.14-2.16.14.05.29.19,1.56.24,1.82h2.57c-.7-.7-1.27-1.15-1.54-1.37l.89-.6Z"/><path class="cls-1" d="M112.3,76.91c-.14-.38-.24-.7-.55-1.37-2.76.38-5.81.72-8.59.84l-.24-2.59h1.51c.22-.46,1.15-2.5,1.58-4.25l2.95.31c-.26.77-.53,1.46-1.75,3.86.38-.02,2.9-.26,3.48-.31-.5-.94-.84-1.42-1.18-1.94l2.35-1.08c1.32,1.87,2.23,3.29,3.07,5.35l-2.64,1.18ZM103.97,77.39h9.5v12.82c0,1.66-1.39,1.94-1.75,1.94h-3.17l-.48-2.71h2.18c.29,0,.46-.19.46-.46v-1.58h-3.96v4.75h-2.78v-14.76ZM106.76,79.77v1.68h3.96v-1.68h-3.96ZM106.76,83.49v1.78h3.96v-1.78h-3.96ZM118.42,69.54v2.98c1.34-.38,3.98-1.56,5.26-2.4l1.63,2.18c-1.7,1.03-4.42,2.02-6.89,2.64v1.97c0,.5.31.58.62.58h2.81c.58,0,.96,0,1.01-2.71l2.81.77c-.12,3.22-.72,4.61-2.62,4.61h-5.4c-2.14,0-2.26-1.7-2.26-1.97v-8.64h3.02ZM115.47,80.83h2.95v2.81c1.51-.55,3.24-1.3,4.99-2.52l1.75,2.23c-2.59,1.56-5.83,2.52-6.74,2.78v2.42c0,.34.12.72.67.72h2.71c.72,0,.84-.19,1.03-3.14l2.83.74c-.34,3.82-.7,5.09-2.95,5.09h-5.23c-1.25,0-2.02-.74-2.02-2.06v-9.07Z"/><path class="cls-1" d="M134.72,78.31c2.78-.79,5.16-2.21,6.58-3.94h2.83c2.06,2.35,5.47,3.5,7.06,3.94l-1.06,2.74c-1.08-.34-1.68-.6-2.69-1.1v1.85h-9.41v-1.82c-.6.31-.98.48-2.26.96l-.26-.65.17,2.16c-.77.34-1.15.48-2.14.84v6.89c0,1.22-.38,2.02-2.14,2.02h-2.71l-.34-3.05h1.68c.41,0,.65-.19.65-.72v-4.15c-.82.26-1.3.41-2.21.6l-.26-3c.86-.19,1.39-.31,2.47-.6v-4.75h-2.47v-2.78h2.47v-4.15h2.86v4.15h1.92v2.78h-1.92v3.91c.6-.19,1.15-.38,1.78-.62l-.6-1.49ZM140.55,69.57v1.46h4.39v-1.46h2.74v1.46h3.19v2.52h-3.19v1.37h-2.74v-1.37h-4.39v1.37h-2.71v-1.37h-2.76v-2.52h2.76v-1.46h2.71ZM149.33,91.72h-13.18v-8.45h13.18v8.45ZM146.48,85.67h-7.46v3.53h7.46v-3.53ZM146.33,79.34c-1.37-.82-2.33-1.54-3.6-2.88-.7.72-1.68,1.75-3.58,2.88h7.18Z"/><path class="cls-1" d="M163.97,90.09c.26-.14.34-.19.43-.26h-2.74v2.38h-2.64v-2.38h-5.57v-2.14h5.57v-.96h-4.78v-6.19h4.78v-.98h-5.38v-2.02h5.38v-1.03h-5.57v-2.35h5.47v-1.15h-4.63v-2.11h4.63v-1.34h2.81v1.34h4.92v2.11h-4.92v1.15h6.19c-.02-.72-.12-3.96-.12-4.61h2.86c0,.72.02,3.07.05,4.61h5.35v2.35h-5.33c0,1.87.02,3.46.36,5.83,1.08-2.18,1.44-3.94,1.66-4.92l2.62,1.22c-1.18,3.84-2.4,6.02-3.53,7.78.19.79.6,2.14,1.1,2.14.7,0,1.25-2.16,1.54-3.36l1.73,2.26c-.79,3.36-1.7,4.68-3.41,4.68-1.32,0-2.33-1.2-3.05-3.05-1.54,1.68-2.93,2.64-3.72,3.19l-2.06-2.18ZM156.72,81.88v1.13h2.3v-1.13h-2.3ZM156.72,84.21v1.13h2.3v-1.13h-2.3ZM161.62,81.88v1.13h2.33v-1.13h-2.33ZM161.62,84.21v1.13h2.33v-1.13h-2.33ZM166.76,88.15c.46-.43,1.13-1.01,2.11-2.26-.74-4.15-.82-6.14-.89-9.38h-6.31v1.03h5.38v2.02h-5.38v.98h4.75v6.19h-4.75v.96h5.09v.46ZM172.9,69.45c1.13.77,2.16,1.85,2.9,2.95l-2.09,1.7c-.84-1.15-1.73-2.16-2.88-3.07l2.06-1.58Z"/><path class="cls-1" d="M189.87,87.86c3.02-.29,7.49-1.44,7.49-7.27,0-3.74-2.02-6.14-5.79-6.41-.41,6.55-2.42,14.83-7.37,14.83-3.05,0-4.75-3.43-4.75-7.03,0-6.91,5.18-10.83,11.26-10.83,7.15,0,10.03,4.66,10.03,9.58,0,2.83-.91,5.81-3.31,7.82-1.68,1.42-4.1,2.14-6.53,2.38l-1.03-3.07ZM182.55,82.05c0,1.13.36,3.5,1.8,3.5,1.27,0,3.38-2.52,4.13-11.21-3.67.79-5.93,3.74-5.93,7.7Z"/><path class="cls-1" d="M52.23,117.1c-.38,6.19-1.51,15.99-15.46,18.82l-1.39-3c10.32-1.94,12.46-7.22,13.2-12.67h-15.03v-3.14h18.67Z"/><path class="cls-1" d="M67.27,136.27h-2.95v-8.06c-3.22,1.99-5.52,2.78-6.84,3.24l-1.32-2.62c8.86-2.69,13.47-8.88,13.97-9.55l2.5,1.85c-1.54,1.82-3.17,3.34-5.35,5.04v10.1Z"/><path class="cls-1" d="M78.6,128.02c-.36-2.06-.98-4.03-1.9-5.98l2.57-.7c1.2,2.26,1.82,4.9,2.06,6l-2.74.67ZM78.39,133.87c8.02-1.75,10.66-4.94,12.12-13.27l3.12.7c-1.3,5.98-3.31,12.62-13.23,15l-2.02-2.42ZM83.93,126.86c-.29-1.51-.7-3.62-1.66-5.9l2.54-.53c.86,1.78,1.51,4.25,1.78,5.83l-2.66.6Z"/><path class="cls-1" d="M112.37,129.65c-3.46-2.23-5.81-3.48-9.67-4.99v11.4h-3.46v-20.5h3.46v5.76c5.4,1.7,9.24,3.84,11.35,4.99l-1.68,3.34Z"/><path class="cls-1" d="M126.2,115.56h3.19v2.95h6.31v2.71c-1.99,2.23-3.7,3.94-6.31,5.93v8.93h-3.19v-6.86c-2.71,1.51-4.56,2.28-7.51,3.24l-1.51-2.9c4.06-1.06,9.67-3.12,14.4-8.11l-12.67.07v-3h7.3v-2.95ZM137.02,132.62c-2.9-2.3-5.26-3.46-6.58-4.08l1.78-2.4c2.16.91,4.68,2.28,6.5,3.62l-1.7,2.86Z"/><path class="cls-1" d="M159.63,116.71c-.98,4.87-2.76,7.85-4.3,9.98,3.65,2.88,4.94,3.94,7.8,6.77l-2.69,2.59c-1.46-1.63-3.5-3.86-7.08-6.98-2.26,2.52-5.69,5.33-9.34,6.94l-1.82-2.66c3.48-1.49,5.93-3.17,8.5-5.95,2.59-2.81,3.86-5.38,4.7-7.66h-11.88v-3.02h16.11Z"/><path class="cls-1" d="M178.49,133.78c-.48-.41-1.18-1.01-2.54-1.66-.41,2.88-1.22,4.1-1.97,5.06l-2.06-1.94c1.27-2.11,1.54-3.53,1.61-6.7h-.7v-1.63l-.77,2.02c-.31-.5-.43-.7-.96-1.78v10.01h-2.69v-8.28c-.48,1.78-.96,2.64-1.39,3.46l-1.13-4.06c1.25-2.06,1.97-4.39,2.4-6.77h-2.11v-2.76h2.23v-4.2h2.69v4.2h1.44v2.76h-1.44v1.46c.5,1.08,1.15,2.04,1.92,3.02h6.46c-.38-2.57-.65-5.35-.74-8.31-.55.77-2.62,3.48-3.94,4.87.38,0,1.54-.05,1.85-.07-.19-.62-.26-.82-.43-1.18l1.7-.5c.72,1.58,1.03,3.14,1.15,3.79l-1.85.55c-.05-.46-.1-.6-.14-.94-1.2.14-3.62.34-4.78.43l-.26-2.06h.36c.46-.48,1.27-1.49,1.87-2.23-1.13-1.3-1.92-1.97-2.45-2.45l1.22-1.78c.12.1.34.26.48.38.89-1.22,1.06-1.56,1.3-2.06l2.02.62c-.43.7-.96,1.58-1.92,2.66.24.29.48.53.74.86.89-1.15,1.13-1.58,1.44-2.11l1.61.89c-.02-.72-.02-1.34-.02-2.83h2.71c0,.96,0,1.92.05,2.98l1.06-1.44.38.34c.89-1.34,1.01-1.61,1.2-1.99l1.99.58c-.7,1.22-1.54,2.33-1.87,2.76.26.26.46.48.72.79.98-1.34,1.1-1.49,1.49-2.11l1.8.79c-1.42,2.09-2.18,3.1-3.82,4.87.36-.02,1.97-.12,2.23-.14-.22-.65-.26-.77-.46-1.15l1.68-.53c.55,1.1.91,2.42,1.3,3.79l-1.85.62c-.1-.53-.14-.67-.19-.96-.38.05-1.2.14-1.63.19.5.41.65.55,1.39,1.34l-1.1.72h3.12v2.54h-6.22c.17.79.43,1.85.65,2.57.96-.94,1.44-1.66,1.87-2.35l2.35.98c-.41.72-1.2,2.06-3.12,3.79.19.29.62.94,1.22.94.26,0,.48-.22.6-.38.19-.29.72-1.08,1.15-2.3l1.73,2.16c-.62,1.58-1.44,3.29-3.46,3.29-1.75,0-2.76-.94-3.5-2.02-1.99,1.22-3.43,1.66-4.37,1.92l-1.08-2.4c.91-.26,2.4-.7,4.39-1.9-.24-.6-.72-1.92-1.2-4.3h-3.72c0,.53,0,.79-.02,1.22,1.97.62,3,1.34,3.5,1.68l-1.18,2.33ZM181.97,122.21c.24-.29.72-.84,1.61-1.94-.38-.5-1.22-1.46-2.11-2.21.05,1.7.17,3.05.29,4.15h.22ZM184.13,124.03c-.36.02-1.85.14-2.16.14.05.29.19,1.56.24,1.82h2.57c-.7-.7-1.27-1.15-1.54-1.37l.89-.6Z"/><path class="cls-1" d="M201.65,128.78v7.9h-8.64v-5.21c-.19.07-.31.12-.72.26l-1.01-2.76c1.22-.38,3.43-1.06,5.62-2.74h-5.38v-2.57h7.78c.36-.58.65-1.06.96-1.87h-7.49v-6.58h8.76v6.58h-.22l1.92.38c-.26.67-.38.96-.65,1.49h11.4v2.57h-5.54c1.18.96,2.54,1.9,5.95,2.74l-1.18,2.69c-.24-.07-.58-.22-.74-.26v5.28h-8.9v-7.9h3.82c-.91-.65-1.63-1.22-2.83-2.54h-3.72c-1.27,1.42-2.5,2.3-2.86,2.54h3.67ZM198.89,117.53h-3.48v2.04h3.48v-2.04ZM199.06,131.04h-3.43v3.29h3.43v-3.29ZM212.76,115.22v6.58h-9v-6.58h9ZM209.86,131.04h-3.65v3.29h3.65v-3.29ZM210.1,117.53h-3.67v2.04h3.67v-2.04Z"/><path class="cls-1" d="M106.42,176.63h-6.91c-3.12,0-4.22-1.22-4.8-1.87-.7.67-2.11,1.85-3.17,2.54l-1.2-2.81c1.68-.89,2.54-1.51,3.07-1.92v-2.59h-2.54v-2.57h5.42v5.66c.36,1.56,2.95,1.56,3.46,1.56h13.92l-.46,1.99h-3.77v.98h3.7v2.18h-3.7v2.64c0,1.63-1.73,1.7-2.02,1.7h-4.3l-.48-2.47h3.38c.38,0,.38-.31.38-.5v-1.37h-9.12c1.32.77,2.04,1.34,3.17,2.4l-2.4,1.82c-1.51-1.46-3.36-2.54-3.96-2.88l1.8-1.34h-5.04v-2.18h15.55v-.98ZM92.35,161.53c1.97.77,2.98,1.27,4.34,2.14l-1.27,2.54c-.62-.43-1.54-1.06-4.39-2.21l1.32-2.47ZM97.25,162.78h3.43c-.17-.36-.48-.89-.72-1.25l2.88-.22c.14.29.36.65.67,1.46h3.53c.38-.86.48-1.18.55-1.46l2.98.24c-.17.43-.26.67-.58,1.22h3.14v1.97h-6.72c-.12.31-.24.6-.38.91h6.05v8.14h-13.73v-8.14h4.82c.22-.55.22-.58.29-.91h-6.22v-1.97ZM101.11,167.08v.98h8.18v-.98h-8.18ZM101.11,169.24v.98h8.18v-.98h-8.18ZM101.11,171.33v1.08h8.18v-1.08h-8.18Z"/><path class="cls-1" d="M119.38,162.3h9.43c-.17,8.38,1.8,14.57,9.98,18.79l-2.06,3c-5.28-3.14-8.04-6.86-9.6-11.74-1.54,5.16-5.04,9.34-9.55,11.74l-2.02-2.9c1.8-.89,4.92-2.45,7.61-6.84,2.54-4.18,2.54-7.49,2.52-9h-6.31v-3.05Z"/><path class="cls-1" d="M145.87,162.8l-.41,13.66h-2.78l-.41-13.66h3.6ZM142.32,178.53h3.48v3.43h-3.48v-3.43Z"/><path class="cls-1" d="M154.42,162.8l-.41,13.66h-2.78l-.41-13.66h3.6ZM150.87,178.53h3.48v3.43h-3.48v-3.43Z"/></g></svg>