<?xml version="1.0" encoding="UTF-8"?><svg id="_レイヤー_2" xmlns="http://www.w3.org/2000/svg" viewBox="0 0 393.19 83.37"><defs><style>.cls-1{fill:#00b9ef;}.cls-1,.cls-2{stroke-width:0px;}.cls-2{fill:#fff;}.cls-3{fill:none;stroke:#00b9ef;stroke-miterlimit:10;stroke-width:1.87px;}</style></defs><g id="DESIGN"><rect class="cls-1" x="8.9" y="8.55" width="376.33" height="66.44" rx="31.99" ry="31.99"/><rect class="cls-3" x=".94" y=".94" width="391.32" height="81.5" rx="36.29" ry="36.29"/><path class="cls-2" d="M47.04,34.02c-.08.54-.1,1.04-.12,2.02l-.1,11.42c2.08-.4,3.96-1.16,5.46-2.2,1.84-1.26,3.08-2.64,4.08-4.58.78,1.04,1.04,1.32,1.9,2.04-1.38,2.12-2.66,3.46-4.46,4.66-2,1.34-4.04,2.12-7.28,2.74-.54.1-.78.18-1.2.34l-1.28-1.54c.14-.54.18-.9.18-2.06l.08-10.8q0-1.4-.1-2.06l2.84.02Z"/><path class="cls-2" d="M74.6,50.93c-1.38-1.76-4.16-4.46-6.14-5.94-2,2.32-4.7,4.36-7.62,5.78-.54-1.02-.82-1.42-1.62-2.22,2.06-.74,4.68-2.46,6.56-4.32,1.8-1.76,3.18-3.78,4.16-6.02l.1-.22.06-.14s.02-.08.06-.18c-.22.02-.28.02-.44.02l-.18.02-6,.1c-1.08.02-1.58.06-2.18.14l-.08-2.54c.56.1.94.12,1.76.12h.48l6.68-.1c1.12-.02,1.28-.04,1.78-.22l1.48,1.78c-.2.22-.46.64-.64,1.08-.76,1.82-1.86,3.72-2.92,5.1,2.22,1.52,3.32,2.46,6.62,5.66l-1.92,2.1ZM73.84,33.32c.88.94,1.42,1.7,2.1,2.94l-1.34.74c-.66-1.22-1.22-2.02-2.1-2.98l1.34-.7ZM76.94,35.74c-.6-1.1-1.26-2.04-2.04-2.9l1.26-.64c.9.92,1.46,1.68,2.08,2.82l-1.3.72Z"/><path class="cls-2" d="M81.19,44.9c4.84.64,8.62,1.54,13.28,3.16l-.86,2.52c-2.08-.92-3.92-1.5-7.08-2.24-2.46-.58-4.1-.88-6.28-1.16l.94-2.28ZM82.79,39.26c3.2.4,6.4,1.12,10.42,2.32l-.78,2.46c-1.58-.62-3-1.04-5.5-1.6-1.7-.4-3-.62-5.06-.88l.92-2.3ZM83.09,33.74c3.86.46,6.36.96,10.82,2.16l-.8,2.46c-3.3-1.1-7.4-1.96-10.92-2.3l.9-2.32Z"/><path class="cls-2" d="M104.89,34.24q-.08.56-.2,4.48c-.14,3.9-.58,6.16-1.62,8.22-.68,1.38-1.44,2.4-2.76,3.7-.78-1-1.08-1.3-2.02-1.94.98-.8,1.46-1.34,2.06-2.3,1.44-2.3,1.9-4.88,1.9-10.48,0-1.1,0-1.28-.08-1.82l2.72.14ZM110.2,34c-.1.58-.12.92-.14,1.9l-.1,11.38c1.4-.66,2.2-1.26,3.06-2.28.92-1.08,1.5-2.18,1.96-3.66.7.9.96,1.16,1.88,1.88-.82,1.98-1.86,3.48-3.18,4.66-1.14.98-2.18,1.58-4.26,2.4-.44.16-.6.24-.86.36l-1.28-1.36c.14-.58.16-1.02.18-2.12l.1-11.28v-.6c0-.5-.02-.94-.08-1.32l2.72.04Z"/><path class="cls-2" d="M133.18,50.93c-1.38-1.76-4.16-4.46-6.14-5.94-2,2.32-4.7,4.36-7.62,5.78-.54-1.02-.82-1.42-1.62-2.22,2.06-.74,4.68-2.46,6.56-4.32,1.8-1.76,3.18-3.78,4.16-6.02l.1-.22.06-.14s.02-.08.06-.18c-.22.02-.28.02-.44.02l-.18.02-6,.1c-1.08.02-1.58.06-2.18.14l-.08-2.54c.56.1.94.12,1.76.12h.48l6.68-.1c1.12-.02,1.28-.04,1.78-.22l1.48,1.78c-.2.22-.46.64-.64,1.08-.76,1.82-1.86,3.72-2.92,5.1,2.22,1.52,3.32,2.46,6.62,5.66l-1.92,2.1ZM132.42,33.32c.88.94,1.42,1.7,2.1,2.94l-1.34.74c-.66-1.22-1.22-2.02-2.1-2.98l1.34-.7ZM135.52,35.74c-.6-1.1-1.26-2.04-2.04-2.9l1.26-.64c.9.92,1.46,1.68,2.08,2.82l-1.3.72Z"/><path class="cls-2" d="M143.51,34.02c-.08.54-.1,1.04-.12,2.02l-.1,11.42c2.08-.4,3.96-1.16,5.46-2.2,1.84-1.26,3.08-2.64,4.08-4.58.78,1.04,1.04,1.32,1.9,2.04-1.38,2.12-2.66,3.46-4.46,4.66-2,1.34-4.04,2.12-7.28,2.74-.54.1-.78.18-1.2.34l-1.28-1.54c.14-.54.18-.9.18-2.06l.08-10.8q0-1.4-.1-2.06l2.84.02Z"/><path class="cls-2" d="M160.51,38.24c.84,1.54,1.24,2.5,1.96,4.74l-2.26.72c-.52-2.02-.92-3.08-1.82-4.84l2.12-.62ZM171.99,38.38c-.12.3-.16.4-.28,1.02-.58,2.72-1.48,4.92-2.76,6.66-1.48,2.02-3.14,3.32-6.1,4.82-.52-.88-.76-1.18-1.6-1.98,1.4-.54,2.22-.98,3.4-1.84,2.34-1.7,3.68-3.74,4.54-6.94.26-.98.36-1.68.36-2.3l2.44.56ZM164.77,37.42c1.06,1.98,1.44,2.86,1.94,4.6l-2.22.7c-.38-1.52-.98-3.06-1.82-4.7l2.1-.6Z"/><path class="cls-2" d="M190.12,50.41c-1.66-2.04-3.96-4.28-6.14-5.94-2.26,2.52-4.56,4.28-7.62,5.78-.56-1.04-.8-1.36-1.62-2.22,1.54-.6,2.5-1.14,4-2.2,3.02-2.12,5.42-5.02,6.72-8.14l.22-.52q-.32.02-6.62.12c-.96.02-1.5.06-2.18.16l-.08-2.56c.56.1.94.12,1.76.12h.48l7.04-.1c1.12-.02,1.28-.04,1.78-.22l1.32,1.36c-.26.3-.42.58-.64,1.08-.92,2.14-1.9,3.88-3.12,5.52,1.26.84,2.34,1.68,3.7,2.9q.5.44,2.92,2.78l-1.92,2.08Z"/><path class="cls-2" d="M195.67,47.34c1.72-.1,4.1-.68,5.92-1.48,2.5-1.08,4.36-2.62,5.94-4.9.88-1.28,1.44-2.38,2.04-4,.78.94,1.1,1.24,2.12,1.96-1.7,3.66-3.6,6.02-6.34,7.84-2.04,1.36-4.52,2.34-7.62,3-.8.16-.86.18-1.32.34l-.74-2.76ZM197.37,34.92c2.38,1.48,3.62,2.4,5.16,3.86l-1.72,2.18c-1.6-1.7-3.24-3.02-5.1-4.06l1.66-1.98Z"/><path class="cls-2" d="M223.27,42.78c-.48.58-.66.76-1.46,1.5v4.12c1.54-.28,2.38-.48,4.14-.94v2.1c-1.5.42-1.96.52-4.18.98-1.36.26-1.44.28-2.54.46q-.48.08-.94.14c-.4.08-.78.16-.96.2l-.48-2.34c.8-.02,1.5-.08,2.76-.24v-2.74c-1.34.9-2.38,1.42-4.26,2.2-.36-.86-.66-1.38-1.24-2.14,2.66-.72,4.76-1.8,6.44-3.3h-3.78c-.92,0-1.66.04-2.34.12v-2.16c.6.1,1.14.12,2.32.12h5.48v-1.28h-3.9c-1.14,0-1.62.02-2.2.08v-2c.56.06,1.04.08,2.2.08h3.9v-1.22h-4.8c-1.1,0-1.7.02-2.24.1v-2.1c.6.08,1.32.12,2.34.12h4.7c0-.86-.02-1.24-.12-1.72h2.46c-.1.5-.12.82-.12,1.72h5.02c1.1,0,1.78-.04,2.38-.12v2.1c-.54-.08-1.16-.1-2.24-.1h-5.16v1.22h4.22c1.2,0,1.68-.02,2.22-.08v2c-.58-.06-1.06-.08-2.22-.08h-4.22v1.28h5.78c1.14,0,1.76-.02,2.3-.12v2.16c-.68-.08-1.4-.12-2.3-.12h-4.66c.38.86.82,1.56,1.56,2.46,1.02-.78,1.86-1.64,2.34-2.3l2,1.24q-.14.14-.46.46c-.58.58-1.44,1.36-2.36,2.08,1.42,1.06,2.54,1.64,4.38,2.26-.64.78-1,1.36-1.32,2.16-2.72-1.18-4.54-2.5-5.96-4.24-.92-1.14-1.7-2.5-2.36-4.12h-.12Z"/><path class="cls-2" d="M236.58,50.49c-.02-.2-.02-.32-.1-.78-.38-2.34-.54-4.26-.54-6.36,0-1.8.12-3.56.38-5.3q.1-.6.54-2.86c.14-.7.22-1.28.22-1.48v-.08l2.7.28c-.82,1.74-1.58,6.56-1.6,10.04q-.02.72-.02,1.04v.32c0,.16,0,.2-.02.42h.02q.1-.22.24-.58c.04-.14.14-.36.24-.68q.18-.42.38-.9c.04-.06.06-.12.24-.62l1.66.74c-1.18,2.32-1.98,4.8-1.98,6.12,0,.14,0,.16.04.54l-2.4.14ZM241.1,37.38c.94.24,1.98.32,3.62.32.7,0,1.14,0,1.84-.04,0-1.18-.02-2.18-.02-3,0-.44-.02-.74-.06-.96l2.5-.06c-.1.56-.14,1.52-.14,2.94v.92c1.04-.12,1.92-.28,2.7-.48q.12-.04.44-.16l.16-.04.08,2.26c-.2.02-.22.02-.58.1-.68.14-1.72.32-2.78.44v.44c0,1.12,0,1.16.2,4.52,1.44.68,1.94.96,3.14,1.82.26.18.36.24.56.34l-.96,2.42c-.34-.4-.94-.92-1.5-1.28-.68-.44-1.14-.74-1.26-.82v.28c0,.44-.06.84-.16,1.12-.46,1.18-1.86,1.88-3.8,1.88-2.62,0-4.22-1.24-4.22-3.28s1.7-3.3,4.12-3.3c.74,0,1.24.08,1.78.28-.06-.5-.08-1.48-.16-4.26-.8.02-1.28.04-1.8.04-.74,0-1.54-.02-2.48-.1-.28,0-.5-.02-.6-.02-.18-.02-.3-.02-.34-.02-.1-.02-.16-.02-.2-.02-.02,0-.06,0-.12.02l.04-2.3ZM245.16,45.76c-1.28,0-2.08.5-2.08,1.32,0,.74.72,1.24,1.84,1.24.74,0,1.32-.22,1.62-.62.18-.24.26-.54.26-1.08v-.54c-.66-.24-1.04-.32-1.64-.32Z"/><path class="cls-2" d="M259.04,48.76c-1.38,0-1.86.02-2.46.08v-2.58c.74.12,1.1.14,2.5.14h9.1v-8.72h-8.76c-1.42,0-1.84.02-2.56.1v-2.6c.74.12,1.12.14,2.58.14h9.62q1.04,0,1.74-.04c-.06.54-.06.74-.06,1.66v10.98c0,1,.02,1.56.1,2.06h-2.68v-1.22h-9.12Z"/><path class="cls-2" d="M290.08,35.54q-.24.06-1.68.54c-1.14.36-1.78.52-3.34.82q-.02,2.7-.06,3.38h4.24c1.36,0,1.7-.02,2.44-.14v2.4c-.74-.08-1.12-.1-2.4-.1h-4.42c-.22,1.86-.64,3.2-1.34,4.36s-1.86,2.28-3.26,3.18c-.56.36-.94.58-1.86,1-.58-1.02-.9-1.4-1.74-2.12,1.44-.52,2.2-.94,3.1-1.68,1.2-.96,1.96-2.1,2.3-3.4.08-.34.14-.68.22-1.34h-4.94c-1.28,0-1.66.02-2.4.1v-2.4c.74.12,1.08.14,2.44.14h5.12c.04-.84.04-1.62.04-3.02-1.62.24-2.24.3-5.54.46-.2-.9-.3-1.2-.74-2.16.62.04.94.04,1.24.04,2.68,0,6.1-.46,8.56-1.16,1.16-.34,1.74-.56,2.42-.94l1.6,2.04Z"/><path class="cls-2" d="M311.02,40.08c-.2.36-.32.64-.56,1.26-1.04,2.94-2.56,5.16-4.64,6.76-1.42,1.1-2.72,1.78-5.24,2.72-.44-1-.68-1.34-1.56-2.32,2.44-.62,4.02-1.36,5.56-2.64,1.48-1.24,2.34-2.46,3.22-4.68h-9.74c-1.34,0-1.84.02-2.56.1v-2.44c.76.12,1.2.14,2.6.14h9.52c1.24,0,1.64-.04,2.26-.18l1.14,1.28ZM297.19,34.02c.66.12,1.08.14,2.34.14h6.98c1.26,0,1.68-.02,2.34-.14v2.46c-.62-.08-1-.1-2.3-.1h-7.06c-1.3,0-1.68.02-2.3.1v-2.46Z"/><path class="cls-2" d="M321.87,33.6c-.06.18-.12.4-.16.62-.04.26-.06.36-.12.68q-.06.42-.34,1.92c-.08.44-.08.48-.14.74.58-.04.86-.06,1.24-.06,1.32,0,2.3.36,2.96,1.06.68.76.94,1.72.94,3.54,0,3.44-.58,6.18-1.54,7.28-.56.66-1.16.9-2.22.9-.92,0-1.74-.16-3.08-.58.02-.4.04-.68.04-.88,0-.52-.04-.92-.2-1.7,1.08.48,2.22.78,2.92.78.58,0,.9-.38,1.2-1.36.32-1.04.52-2.86.52-4.56,0-1.84-.46-2.38-2.04-2.38-.4,0-.7.02-1.16.06-.6,2.44-.78,3.04-1.22,4.34-.7,2-1.24,3.28-2.4,5.62l-.3.6c-.06.12-.06.14-.16.34l-2.32-1.28c.6-.8,1.4-2.24,2.08-3.76.86-1.96,1.14-2.8,1.94-5.66-1.02.12-2.92.46-3.58.64l-.24-2.36c.74,0,3.16-.24,4.26-.4.36-2.16.52-3.38.52-4.04v-.38l2.6.28ZM328.49,36.16c2,2.34,3.26,4.72,4.12,7.8l-2.28,1.16c-.38-1.72-.84-3.04-1.6-4.54-.72-1.48-1.36-2.4-2.3-3.42l2.06-1Z"/><path class="cls-2" d="M339.8,37.34c-.3,1.1-.64,2.96-.9,4.92q-.04.28-.1.58l.04.04c1.16-1.12,3.64-1.9,6.06-1.9,3.4,0,5.64,1.68,5.64,4.24,0,1.46-.78,2.94-2.06,3.86-1.3.94-2.96,1.36-5.28,1.36-1.72,0-2.82-.14-5.1-.7-.02-1.24-.06-1.64-.3-2.58,1.96.68,3.68,1,5.38,1,2.82,0,4.78-1.18,4.78-2.88,0-1.34-1.26-2.14-3.38-2.14-1.78,0-3.64.54-4.98,1.46-.36.26-.48.38-.9.86l-2.52-.08c.06-.36.06-.44.16-1.2.16-1.24.48-3.46.84-5.82.08-.48.1-.72.12-1.16l2.5.14ZM340.06,33.42c1.38.76,5.2,1.9,7.46,2.22l-.82,2.3c-3.42-.78-5.52-1.44-7.8-2.5l1.16-2.02Z"/></g></svg>