<?xml version="1.0" encoding="UTF-8"?><svg id="_レイヤー_2" xmlns="http://www.w3.org/2000/svg" viewBox="0 0 750 227"><defs><style>.cls-1{fill:#d0327e;}.cls-1,.cls-2,.cls-3,.cls-4{stroke-width:0px;}.cls-5{fill:#333;stroke:#1a1a1a;stroke-miterlimit:10;stroke-width:1.45px;}.cls-2{fill:#90d7f5;}.cls-3{fill:#1a1a1a;}.cls-4{fill:#fff;}.cls-6{fill:none;stroke:#d9437e;stroke-dasharray:0 0 3.76 10.02;stroke-linejoin:round;stroke-width:6.26px;}</style></defs><g id="BACK"><polygon class="cls-2" points="750 197.06 420.08 197.06 376.38 227 330.25 197.06 0 197.06 0 0 750 0 750 197.06"/></g><g id="DESIGN"><path class="cls-5" d="M129.27,106.52h-44.95c-3.19,0-5.79-2.6-5.79-5.79v-44.95c0-3.19,2.6-5.79,5.79-5.79h44.95c3.19,0,5.79,2.6,5.79,5.79v44.95c0,3.19-2.6,5.79-5.79,5.79ZM84.32,51.1c-2.59,0-4.69,2.1-4.69,4.69v44.95c0,2.59,2.1,4.69,4.69,4.69h44.95c2.59,0,4.69-2.1,4.69-4.69v-44.95c0-2.59-2.1-4.69-4.69-4.69h-44.95ZM122.82,98.49c-2.61,0-4.74-2.12-4.74-4.74s2.12-4.74,4.74-4.74,4.74,2.12,4.74,4.74-2.12,4.74-4.74,4.74ZM122.82,90.11c-2.01,0-3.64,1.63-3.64,3.64s1.63,3.64,3.64,3.64,3.64-1.63,3.64-3.64-1.63-3.64-3.64-3.64ZM90.77,98.49c-2.61,0-4.74-2.12-4.74-4.74s2.12-4.74,4.74-4.74,4.74,2.12,4.74,4.74-2.12,4.74-4.74,4.74ZM90.77,90.11c-2.01,0-3.64,1.63-3.64,3.64s1.63,3.64,3.64,3.64,3.64-1.63,3.64-3.64-1.63-3.64-3.64-3.64ZM122.82,76.8c-2.61,0-4.74-2.12-4.74-4.74s2.12-4.74,4.74-4.74,4.74,2.12,4.74,4.74-2.12,4.74-4.74,4.74ZM122.82,68.42c-2.01,0-3.64,1.63-3.64,3.64s1.63,3.64,3.64,3.64,3.64-1.63,3.64-3.64-1.63-3.64-3.64-3.64ZM90.77,76.8c-2.61,0-4.74-2.12-4.74-4.74s2.12-4.74,4.74-4.74,4.74,2.12,4.74,4.74-2.12,4.74-4.74,4.74ZM90.77,68.42c-2.01,0-3.64,1.63-3.64,3.64s1.63,3.64,3.64,3.64,3.64-1.63,3.64-3.64-1.63-3.64-3.64-3.64ZM113.07,62.13h-12.54c-.59,0-1.07-.48-1.07-1.07v-4.25c0-.59.48-1.07,1.07-1.07h12.54c.59,0,1.07.48,1.07,1.07v4.25c0,.59-.48,1.07-1.07,1.07ZM100.55,61.03h12.49v-4.21h-12.49v4.21Z"/><circle class="cls-4" cx="628.86" cy="97.35" r="72.14"/><circle id="_グループ_" class="cls-6" cx="628.87" cy="96.55" r="63.31"/><path class="cls-1" d="M624.13,77.93c.75,0,2.5.08,2.5,2.21,0,1.29-.38,2.46-2.42,2.46h-1.34v5.05h2.5c1,0,2.51.17,2.51,2.21,0,1.63-.54,2.51-2.51,2.51h-2.5v5.39h1.59c1.29,0,2.42.54,2.42,2.21s-.71,2.42-2.51,2.42h-32.66c-.71,0-2.55,0-2.55-2.3,0-2.09,1.42-2.34,2.55-2.34h3.01v-5.39h-3.97c-.67,0-2.55,0-2.55-2.21,0-1.63.58-2.51,2.55-2.51h4.05v-3.67c-.96.92-2.8,2.67-4.13,2.67-1.46,0-2.51-1.46-2.51-2.71,0-1,.17-1.13,2.84-3.22,1.88-1.46,3.13-3.05,4.55-4.89.58-.75,1.21-1.09,2-1.09,1.17,0,2.71.83,2.71,2.09,0,.5-.21.79-.38,1.09h24.22ZM597.19,105.29c0,1.55-2.05,5.18-2.21,5.47-1.54,2.67-2.13,3.3-3.47,3.3-1.46,0-3.01-1-3.01-2.55,0-.71.04-.75,1.59-2.92.83-1.13,1.38-2.34,2.25-4.18.25-.5.67-1.29,2.05-1.29.79,0,2.8.38,2.8,2.17ZM602.87,82.61h-3.51v5.05h3.51v-5.05ZM602.87,92.38h-3.51v5.39h3.51v-5.39ZM605.67,105.33c.17,1.34.29,4.01.29,5.76,0,1.38,0,3.01-2.71,3.01-1.96,0-2.63-.88-2.63-2.38,0-.42.04-2.34.04-2.71,0-.54-.08-2.92-.08-3.42,0-.63.04-2.26,2.51-2.26,1.8,0,2.46.75,2.59,2ZM610.51,82.61h-3.55v5.05h3.55v-5.05ZM610.51,92.38h-3.55v5.39h3.55v-5.39ZM615.31,107c.38,1.17,1.17,3.59,1.17,4.68,0,1.92-2.34,2.17-3.09,2.17-2.05,0-2.21-.96-2.63-3.34-.17-.88-.58-2.63-.96-3.93-.12-.5-.29-.96-.29-1.42,0-1.38,1.42-1.92,2.76-1.92,1.8,0,1.96.5,3.05,3.76ZM618.2,82.61h-3.59v5.05h3.59v-5.05ZM618.2,92.38h-3.59v5.39h3.59v-5.39ZM624.67,105.45c2,3.13,3.05,4.89,3.05,5.89,0,1.92-2.3,2.55-3.22,2.55-1.42,0-1.71-.58-2.76-2.76-.42-.88-1.54-2.84-2.17-4.01-.38-.63-.71-1.25-.71-1.88,0-1.75,2.09-2.21,2.67-2.21,1.59,0,1.71.17,3.13,2.42Z"/><path class="cls-1" d="M637.33,101.65c-.29.63-.92,1.84-1.67,3.01-1.46,2.38-2.25,2.63-2.96,2.63-1.34,0-2.63-1.42-2.63-2.96,0-.92.17-1.09,2.17-3.51.46-.54,3.05-3.8,5.1-8.14h-4.43c-1.84,0-2.59-.79-2.59-2.51,0-2.21,2-2.21,2.59-2.21h4.43v-10.61c0-1.88.83-2.55,2.63-2.55,2.3,0,2.34,1.84,2.34,2.55v10.61h3.88c1.42,0,2.55.46,2.55,2.38,0,2.21-1.67,2.34-2.55,2.34h-3.88c.75,1.5,2.96,4.38,3.59,5.09,1.96,2.21,2.13,2.42,2.13,3.17,0,1.17-1.17,2.46-2.38,2.46-1.09,0-1.84-1-3.34-3.68v12.24c0,1.84-.79,2.55-2.59,2.55-2.38,0-2.38-1.92-2.38-2.55v-10.32ZM634.86,79.02c.71,2.05,1.46,4.8,1.46,5.6,0,1.84-2.38,1.88-2.63,1.88-1.25,0-1.42-.71-1.84-2.46-.25-1.04-.96-3.34-1.21-4.09-.12-.46-.21-.84-.21-1.13,0-1.21,1.38-1.8,2.46-1.8,1.17,0,1.5.71,1.96,2ZM649.27,78.93c0,.88-.79,3.76-1.42,5.47-.67,1.75-1.13,2.17-2.05,2.17-.79,0-2.51-.46-2.51-1.92,0-.29.08-.63.75-2.67.29-.96.46-1.38.88-3.22.17-.63.42-1.71,1.67-1.71,2,0,2.67,1.04,2.67,1.88ZM667.02,96.85c.17-.04.42-.04.67-.04,1.84,0,2.13,1.88,2.13,2.96,0,1-.29,1.84-2,2.13l-1.96.33v9.61c0,1.25-.33,2.59-2.46,2.59s-2.92-.58-2.92-2.59v-8.56l-9.9,1.92c-1.84.38-2.76-1-2.76-2.67s.88-2.09,1.88-2.3l10.78-2.09v-20.88c0-1.21.33-2.55,2.46-2.55s2.92.54,2.92,2.55v19.79l1.17-.21ZM655.58,89.96c2.42,1.96,2.92,2.46,2.92,3.42,0,1.42-1.42,2.84-2.71,2.84-.71,0-.83-.08-2.76-1.8-.42-.42-2.51-2.09-2.88-2.46-.5-.5-.67-.88-.67-1.42,0-1.42,1.17-2.67,2.46-2.67,1.04,0,2.46,1.13,3.63,2.09ZM657.41,79.64c1.84,1.59,2.17,1.96,2.17,3.01,0,1.38-1.17,2.67-2.55,2.67-.79,0-.88-.04-2.8-1.84-.38-.38-2.3-2.05-2.67-2.38-.46-.42-.67-.92-.67-1.5,0-1.42,1.21-2.46,2.38-2.46s2.8,1.38,4.13,2.51Z"/><path class="cls-3" d="M192.98,57.74h-35.71v-3.95h15.39v-2.28h4.9v2.28h15.43v3.95ZM166.46,84.14v-9.35h17.52v8.25h2.05c.53,0,.84-.19.84-.91v-9.08h-23.37v14.36h-4.79v-17.93h32.9v14.55c0,2.13-1.18,3.38-2.81,3.38h-6l-.61-3.27h-15.73ZM188.15,67.81h-26.1v-8.66h26.1v8.66ZM183.44,62.22h-16.76v2.39h16.76v-2.39ZM179.53,78.03h-8.66v2.77h8.66v-2.77Z"/><path class="cls-3" d="M200.85,58.92c-.08,7.83-.61,10.41-1.18,12.46l-3.12-1.9c.91-2.89,1.22-7.87,1.25-10.6l3.04.04ZM212.4,70.31l-.08.15-3.76-2.93c.65-.95,1.48-2.2,2.24-3.99l-2.43,1.52c-.61-2.13-.99-3.23-1.86-5.13v27.55h-4.6v-35.87h4.6v7.26l2.43-1.48c1.37,2.36,2.2,4.83,2.28,5.01,1.44-3.95,1.71-7.6,1.82-9.31l4.52.72c-.11,1.33-.23,2.7-.87,5.58h2.93v-7.79h4.75v7.79h7.98v4.41h-7.98v6.38h7.07v4.33h-7.07v7.14h8.62v4.41h-24.32v-4.41h10.94v-7.14h-7.22v-4.22ZM219.62,70.2v-6.38h-4.22c-1.18,3.5-2.39,5.62-2.93,6.38h7.14Z"/><path class="cls-3" d="M251.65,63.29c-.23-.61-.38-1.1-.87-2.17-4.37.61-9.19,1.14-13.6,1.33l-.38-4.1h2.39c.34-.72,1.82-3.95,2.51-6.72l4.67.49c-.42,1.22-.84,2.32-2.77,6.12.61-.04,4.6-.42,5.51-.49-.8-1.48-1.33-2.24-1.86-3.08l3.72-1.71c2.09,2.96,3.53,5.21,4.86,8.47l-4.18,1.86ZM238.47,64.04h15.05v20.29c0,2.62-2.2,3.08-2.77,3.08h-5.01l-.76-4.29h3.46c.46,0,.72-.3.72-.72v-2.51h-6.27v7.52h-4.41v-23.37ZM242.88,67.81v2.66h6.27v-2.66h-6.27ZM242.88,73.7v2.81h6.27v-2.81h-6.27ZM261.34,51.62v4.71c2.13-.61,6.31-2.47,8.32-3.8l2.58,3.46c-2.7,1.63-6.99,3.19-10.9,4.18v3.12c0,.8.49.91.99.91h4.45c.91,0,1.52,0,1.6-4.29l4.45,1.22c-.19,5.09-1.14,7.29-4.14,7.29h-8.55c-3.38,0-3.57-2.7-3.57-3.12v-13.68h4.79ZM256.67,69.48h4.67v4.45c2.39-.88,5.13-2.05,7.9-3.99l2.77,3.53c-4.1,2.47-9.23,3.99-10.68,4.41v3.84c0,.53.19,1.14,1.06,1.14h4.29c1.14,0,1.33-.3,1.63-4.98l4.48,1.18c-.53,6.04-1.1,8.05-4.67,8.05h-8.28c-1.98,0-3.19-1.18-3.19-3.27v-14.36Z"/><path class="cls-3" d="M280.38,69.74c-1.25,1.56-1.75,2.01-2.47,2.66l-1.6-6.12c5.39-6.19,6.19-12.73,6.38-14.74l4.64.53c-.19,1.6-.53,4.6-2.39,9.27v26.1h-4.56v-17.71ZM285.4,76.73c4.86-3.95,7.9-8.4,10.49-14.36h-8.93v-4.63h10.18v-6.08h4.79v6.08h10.71v4.63h-9.35c.49,1.22,3.8,8.81,9.96,13.98l-2.43,5.05c-1.44-1.44-5.74-5.7-8.89-12.96v8.62h5.01v4.45h-5.01v5.93h-4.79v-5.93h-4.98v-4.45h4.98v-9c-2.09,5.09-5.13,9.76-9.12,13.56l-2.62-4.9Z"/><path class="cls-3" d="M321.42,74.49c-.15,4.79-.57,7.67-1.41,10.94l-3.65-1.67c.84-3,1.29-6.72,1.33-9.61l3.72.34ZM316.52,68.11c.65-.04,1.79-.08,3.12-.15.49-.61,1.33-1.71,1.9-2.55-1.79-2.24-3.15-3.69-5.13-5.13l2.2-3.76c.61.42.8.57,1.1.8,1.14-1.82,2.17-3.72,3.08-5.7l4.25,1.37c-1.86,3.5-3.65,5.93-4.45,6.99.27.3.57.61,1.52,1.79,1.82-2.66,2.96-4.64,3.88-6.19l4.1,1.56c-2.28,3.76-4.9,7.26-7.67,10.64.57-.04,3.46-.19,4.14-.23-.34-1.18-.49-1.63-.8-2.55l3.69-1.29c1.25,3.34,1.56,4.14,2.39,7.86l-4.1,1.29c-.11-.65-.11-.72-.34-1.75-.53.08-2.17.27-2.54.3v16.11h-4.22v-15.73c-4.18.3-4.64.34-6.04.46l-.08-4.14ZM331.26,73.62c.76,2.2,1.14,5.21,1.44,7.71l-3.65.8c-.46-4.98-.87-6.69-1.18-7.79l3.38-.72ZM334.04,52.88h16.68v29.18h1.79v4.45h-21.69v-4.45h3.23v-29.18ZM338.63,57.28v5.24h7.49v-5.24h-7.49ZM338.63,66.7v5.17h7.49v-5.17h-7.49ZM338.63,76.09v5.97h7.49v-5.97h-7.49Z"/><path class="cls-3" d="M369.19,83.5c2.96-1.25,6.5-3.12,9.65-6.38-2.05-6.08-2.32-11.93-2.51-15.5h-12.5v3.88h10.26c.04,3.27-.23,8.85-.57,12.12-.23,2.36-.95,5.28-4.67,5.28h-3.76l-.8-4.79h3.19c.49,0,1.03-.19,1.25-.91.57-1.75.61-6.35.61-7.45h-5.51v2.81c0,2.47-.42,5.47-.84,7.71-.57,3.04-1.67,5.24-2.81,7.26l-4.03-3.61c2.05-3.5,3.04-7.52,3.04-11.59v-15.2h16.95c-.04-.8-.23-4.71-.27-5.62h4.83c0,1.29,0,2.13.08,5.62h6c-1.94-1.71-2.66-2.32-4.48-3.34l3.19-2.66c1.82.99,2.89,1.75,5.51,3.99l-2.24,2.01h3.38v4.48h-11.17c.3,3.61.68,7.18,1.44,10.71.99-1.79,2.13-4.14,3.27-8.89l4.56,1.52c-1.56,5.39-3.5,9.42-6.04,13.03.68,1.41,1.86,3.95,2.89,3.95.68,0,1.18-.84,1.44-1.41.23-.49.95-3.23,1.18-4.1l3.38,3.04c-1.14,4.63-2.28,8.02-5.7,8.02s-5.59-3.95-6.5-5.62c-3.31,3.23-6.46,4.83-8.62,5.81l-3.08-4.18Z"/><path class="cls-3" d="M413.46,58v3.91h-16.91v-3.91h16.91ZM412.28,52.46v3.72h-14.48v-3.72h14.48ZM412.28,63.63v3.76h-14.48v-3.76h14.48ZM412.28,69.33v3.72h-14.48v-3.72h14.48ZM412.28,75.06v11.82h-14.48v-11.82h14.48ZM408.18,78.63h-6.16v4.37h6.16v-4.37ZM420.37,87.49v-20.67h-6.95v-4.79h6.95v-10.33h4.83v10.33h7.26v4.79h-7.26v20.67h-4.83Z"/><path class="cls-3" d="M170.18,142.56c-4.14-5.13-6.69-11.4-6.69-18.01s2.55-12.88,6.69-18.01h4.22c-4.1,5.09-6.46,11.44-6.46,18.01s2.36,12.88,6.46,18.01h-4.22Z"/><path class="cls-3" d="M192.37,138.99h-5.36v-25.42h-9.54v-4.9h24.43v4.9h-9.54v25.42Z"/><path class="cls-3" d="M213.08,131.54l-2.58,7.45h-5.93l11.21-30.32h6.88l11.21,30.32h-5.93l-2.58-7.45h-12.27ZM223.76,126.95l-4.52-13.03-4.56,13.03h9.08Z"/><path class="cls-3" d="M244.85,108.67l14.78,22.83v-22.83h5.36v30.32h-6.38l-14.78-22.83v22.83h-5.36v-30.32h6.38Z"/><path class="cls-3" d="M277.64,108.67v30.32h-5.47v-30.32h5.47Z"/><path class="cls-3" d="M297.78,138.99h-5.36v-25.42h-9.54v-4.9h24.43v4.9h-9.54v25.42Z"/><path class="cls-3" d="M318.49,131.54l-2.58,7.45h-5.93l11.21-30.32h6.88l11.21,30.32h-5.93l-2.58-7.45h-12.27ZM329.17,126.95l-4.52-13.03-4.56,13.03h9.08Z"/><path class="cls-3" d="M365.08,108.67v5.02l-14.67,25.3h-6l14.93-25.42h-16.38v-4.9h22.11Z"/><path class="cls-3" d="M391.94,129.99c0,5.74-4.98,9.61-10.94,9.61s-10.94-3.88-10.94-9.61c0-4.14,2.51-6.72,4.67-7.9-2.39-1.63-3.04-4.22-3.04-6,0-4.52,3.61-8.02,9.31-8.02s9.31,3.38,9.31,8.02c0,1.79-.68,4.37-3.04,6,2.17,1.18,4.67,3.76,4.67,7.9ZM386.59,129.83c0-2.17-1.63-4.83-5.58-4.83s-5.58,2.58-5.58,4.83c0,2.74,2.36,4.86,5.58,4.86s5.58-2.05,5.58-4.86ZM385.18,116.27c0-2.47-1.98-3.76-4.18-3.76s-4.18,1.29-4.18,3.76c0,1.82,1.18,3.8,4.18,3.8s4.18-1.9,4.18-3.8Z"/><path class="cls-3" d="M397.11,123.83c0-5.36.95-8.89,2.55-11.36,1.94-3.04,5.17-4.41,8.32-4.41,10.87,0,10.87,12.99,10.87,15.77s0,15.77-10.87,15.77-10.87-12.99-10.87-15.77ZM413.49,123.83c0-6.54-1.48-10.87-5.51-10.87-4.29,0-5.51,4.86-5.51,10.87,0,6.57,1.48,10.87,5.51,10.87s5.51-4.64,5.51-10.87Z"/><path class="cls-3" d="M423.14,142.56c4.1-5.13,6.46-11.44,6.46-18.01s-2.36-12.92-6.46-18.01h4.18c4.14,5.13,6.72,11.4,6.72,18.01s-2.58,12.88-6.69,18.01h-4.22Z"/><path class="cls-3" d="M444.5,123.45h35.64v4.56h-10.75v8.85c0,.84.49.84.99.84h4.18c.91,0,1.14-.08,1.18-5.77l4.52,1.37c-.15,6.69-.57,8.81-3.8,8.81h-8.51c-.65,0-3.34,0-3.34-2.77v-11.32h-5.24c-.76,11.25-9.23,13.79-13.11,14.74l-2.32-4.75c9.12-1.75,10.56-6.23,10.75-9.99h-10.18v-4.56ZM459.85,106.54h4.9v2.89h14.44v10.22h-4.79v-5.81h-24.2v5.81h-4.75v-10.22h14.4v-2.89ZM450.81,116.42h22.99v4.37h-22.99v-4.37Z"/><path class="cls-3" d="M491.39,138.8v3.57h-4.45v-17.06c-.76,1.06-1.06,1.41-1.82,2.2l-1.56-6.54c4.22-5.17,5.13-12.5,5.4-14.44l4.41.34c-.19,1.67-.49,4.79-1.98,9.23v22.26c2.62-4.03,2.66-8.32,2.66-10.26v-9.27h-1.25v-3.72h6.46v-2.51h-5.43v-3.8h5.43v-2.24h4.52v2.24h5.62v-2.24h4.48v2.24h5.47v3.8h-5.47v2.51h6.31v3.72h-21.92v9.04c0,5.24-.87,10.26-3.76,14.36l-3.12-3.46ZM518.94,120.75v18.54c0,1.9-.27,3.08-3.23,3.08h-3.5l-.68-3.88h2.01c1.06,0,1.25-.11,1.25-1.22v-2.17h-3.84v7.03h-3.8v-7.03h-3.84v7.26h-3.84v-21.62h19.45ZM503.32,124.17v2.28h3.84v-2.28h-3.84ZM503.32,129.61v2.36h3.84v-2.36h-3.84ZM503.78,112.62v2.51h5.62v-2.51h-5.62ZM510.96,124.17v2.28h3.84v-2.28h-3.84ZM510.96,129.61v2.36h3.84v-2.36h-3.84Z"/><path class="cls-3" d="M531.78,108.67l-.65,21.62h-4.41l-.65-21.62h5.7ZM526.16,133.56h5.51v5.43h-5.51v-5.43Z"/></g></svg>