<?xml version="1.0" encoding="UTF-8"?><svg id="_レイヤー_2" xmlns="http://www.w3.org/2000/svg" viewBox="0 0 750 210.5"><defs><style>.cls-1{fill:#d0327e;}.cls-1,.cls-2,.cls-3,.cls-4{stroke-width:0px;}.cls-2{fill:#fff659;}.cls-3{fill:#1a1a1a;}.cls-4{fill:#fff;}.cls-5{fill:none;stroke:#d9437e;stroke-dasharray:0 0 3.76 10.02;stroke-linejoin:round;stroke-width:6.26px;}</style></defs><g id="DESIGN"><polygon class="cls-2" points="750 180.56 420.08 180.56 376.38 210.5 330.25 180.56 0 180.56 0 0 750 0 750 180.56"/><circle class="cls-4" cx="617.86" cy="83.85" r="72.14"/><circle id="_グループ_" class="cls-5" cx="617.87" cy="83.05" r="63.31"/><path class="cls-1" d="M613.13,64.43c.75,0,2.5.08,2.5,2.21,0,1.29-.38,2.46-2.42,2.46h-1.34v5.05h2.5c1,0,2.51.17,2.51,2.21,0,1.63-.54,2.51-2.51,2.51h-2.5v5.39h1.59c1.29,0,2.42.54,2.42,2.21s-.71,2.42-2.51,2.42h-32.66c-.71,0-2.55,0-2.55-2.3,0-2.09,1.42-2.34,2.55-2.34h3.01v-5.39h-3.97c-.67,0-2.55,0-2.55-2.21,0-1.63.58-2.51,2.55-2.51h4.05v-3.67c-.96.92-2.8,2.67-4.13,2.67-1.46,0-2.51-1.46-2.51-2.71,0-1,.17-1.13,2.84-3.22,1.88-1.46,3.13-3.05,4.55-4.89.58-.75,1.21-1.09,2-1.09,1.17,0,2.71.83,2.71,2.09,0,.5-.21.79-.38,1.09h24.22ZM586.19,91.79c0,1.55-2.05,5.18-2.21,5.47-1.54,2.67-2.13,3.3-3.47,3.3-1.46,0-3.01-1-3.01-2.55,0-.71.04-.75,1.59-2.92.83-1.13,1.38-2.34,2.25-4.18.25-.5.67-1.29,2.05-1.29.79,0,2.8.38,2.8,2.17ZM591.87,69.11h-3.51v5.05h3.51v-5.05ZM591.87,78.88h-3.51v5.39h3.51v-5.39ZM594.67,91.83c.17,1.34.29,4.01.29,5.76,0,1.38,0,3.01-2.71,3.01-1.96,0-2.63-.88-2.63-2.38,0-.42.04-2.34.04-2.71,0-.54-.08-2.92-.08-3.42,0-.63.04-2.26,2.51-2.26,1.8,0,2.46.75,2.59,2ZM599.51,69.11h-3.55v5.05h3.55v-5.05ZM599.51,78.88h-3.55v5.39h3.55v-5.39ZM604.31,93.5c.38,1.17,1.17,3.59,1.17,4.68,0,1.92-2.34,2.17-3.09,2.17-2.05,0-2.21-.96-2.63-3.34-.17-.88-.58-2.63-.96-3.93-.12-.5-.29-.96-.29-1.42,0-1.38,1.42-1.92,2.76-1.92,1.8,0,1.96.5,3.05,3.76ZM607.2,69.11h-3.59v5.05h3.59v-5.05ZM607.2,78.88h-3.59v5.39h3.59v-5.39ZM613.67,91.95c2,3.13,3.05,4.89,3.05,5.89,0,1.92-2.3,2.55-3.22,2.55-1.42,0-1.71-.58-2.76-2.76-.42-.88-1.54-2.84-2.17-4.01-.38-.63-.71-1.25-.71-1.88,0-1.75,2.09-2.21,2.67-2.21,1.59,0,1.71.17,3.13,2.42Z"/><path class="cls-1" d="M626.33,88.15c-.29.63-.92,1.84-1.67,3.01-1.46,2.38-2.25,2.63-2.96,2.63-1.34,0-2.63-1.42-2.63-2.96,0-.92.17-1.09,2.17-3.51.46-.54,3.05-3.8,5.1-8.14h-4.43c-1.84,0-2.59-.79-2.59-2.51,0-2.21,2-2.21,2.59-2.21h4.43v-10.61c0-1.88.83-2.55,2.63-2.55,2.3,0,2.34,1.84,2.34,2.55v10.61h3.88c1.42,0,2.55.46,2.55,2.38,0,2.21-1.67,2.34-2.55,2.34h-3.88c.75,1.5,2.96,4.38,3.59,5.09,1.96,2.21,2.13,2.42,2.13,3.17,0,1.17-1.17,2.46-2.38,2.46-1.09,0-1.84-1-3.34-3.68v12.24c0,1.84-.79,2.55-2.59,2.55-2.38,0-2.38-1.92-2.38-2.55v-10.32ZM623.86,65.52c.71,2.05,1.46,4.8,1.46,5.6,0,1.84-2.38,1.88-2.63,1.88-1.25,0-1.42-.71-1.84-2.46-.25-1.04-.96-3.34-1.21-4.09-.12-.46-.21-.84-.21-1.13,0-1.21,1.38-1.8,2.46-1.8,1.17,0,1.5.71,1.96,2ZM638.27,65.43c0,.88-.79,3.76-1.42,5.47-.67,1.75-1.13,2.17-2.05,2.17-.79,0-2.51-.46-2.51-1.92,0-.29.08-.63.75-2.67.29-.96.46-1.38.88-3.22.17-.63.42-1.71,1.67-1.71,2,0,2.67,1.04,2.67,1.88ZM656.02,83.35c.17-.04.42-.04.67-.04,1.84,0,2.13,1.88,2.13,2.96,0,1-.29,1.84-2,2.13l-1.96.33v9.61c0,1.25-.33,2.59-2.46,2.59s-2.92-.58-2.92-2.59v-8.56l-9.9,1.92c-1.84.38-2.76-1-2.76-2.67s.88-2.09,1.88-2.3l10.78-2.09v-20.88c0-1.21.33-2.55,2.46-2.55s2.92.54,2.92,2.55v19.79l1.17-.21ZM644.58,76.46c2.42,1.96,2.92,2.46,2.92,3.42,0,1.42-1.42,2.84-2.71,2.84-.71,0-.83-.08-2.76-1.8-.42-.42-2.51-2.09-2.88-2.46-.5-.5-.67-.88-.67-1.42,0-1.42,1.17-2.67,2.46-2.67,1.04,0,2.46,1.13,3.63,2.09ZM646.41,66.14c1.84,1.59,2.17,1.96,2.17,3.01,0,1.38-1.17,2.67-2.55,2.67-.79,0-.88-.04-2.8-1.84-.38-.38-2.3-2.05-2.67-2.38-.46-.42-.67-.92-.67-1.5,0-1.42,1.21-2.46,2.38-2.46s2.8,1.38,4.13,2.51Z"/><path class="cls-3" d="M73.09,53.31v-4.79h17.21v-6.04h5.05v6.04h8.62v4.79h-8.59v16.34c0,5.05-4.18,5.05-5.89,5.05-.8,0-1.22,0-5.17-.19l-.68-4.98c2.89.27,3.91.34,4.83.34,1.29,0,1.9-.27,1.9-1.44l-.04-10.33c-1.56,2.09-6.19,8.21-15.69,13.26l-3.04-3.95c9.65-4.64,15.92-12.46,17.21-14.1h-15.73Z"/><path class="cls-3" d="M117.85,63.76h-5.28v-20.33h5.28v20.33ZM136.24,58.74c0,13.26-11.13,15.12-20.06,15.92l-1.82-4.86c10.26-.65,16.57-2.32,16.57-10.68v-16.3h5.32v15.92Z"/><path class="cls-3" d="M155.74,60.76c-2.2-1.33-5.7-3.04-11.02-4.56l1.82-4.26c2.77.65,6.99,1.9,11.17,4.29l-1.98,4.52ZM146.89,68.85c14.29-1.29,20.44-6.12,24.73-19.57l4.37,3.15c-5.32,14.63-12.96,19.91-27.96,21.88l-1.14-5.47ZM159.01,51.68c-4.67-2.47-8.78-3.65-11.28-4.33l1.86-4.14c4.83.95,8.93,2.81,11.47,3.99l-2.05,4.48ZM169.38,40.05c1.52,2.28,2.28,4.07,3.53,7.33l-2.96,1.44c-.99-3-1.6-4.52-3.34-7.45l2.77-1.33ZM175.53,39.9c1.6,2.54,2.43,4.6,3.38,7.41l-2.96,1.37c-.99-3.15-1.63-4.71-3.19-7.48l2.77-1.29Z"/><path class="cls-3" d="M216.04,50v4.9h-12.8c-.3,6.16-1.03,15.27-14.86,19.83l-2.93-4.33c12.01-3.57,12.31-9.95,12.54-15.5h-13.72v-4.9h13.75v-7.52h5.24v7.52h12.77Z"/><path class="cls-3" d="M232.92,52.66c0,14.13-3.88,19.26-6.95,22.26l-3.84-3.84c3.53-3.8,5.77-7.64,5.77-18.01v-9.23h5.02v8.81ZM243.06,67.9c3.8-1.67,7.64-3.34,9.35-13.26l4.79,2.05c-1.56,6.84-4.98,16.76-19.19,17.52v-31.35h5.05v25.04Z"/><path class="cls-3" d="M262.45,60.49v-8.74h4.22v-10.07h25.95v10.07h4.29v8.74h-4.52v12.73c0,2.28-.95,3.3-3.04,3.3h-7.86l-.8-4.29h6.27c.57,0,.87-.15.87-.95v-1.29h-16.38v6.54h-4.48v-16.03h-4.52ZM266.97,57.03h25.38v-1.86h-25.38v1.86ZM288.09,45.25h-16.98v6.5h5.02v-4.86h11.97v-1.63ZM287.83,60.38h-16.38v1.86h16.38v-1.86ZM287.83,65.12h-16.38v1.86h16.38v-1.86ZM288.09,49.7h-7.48v2.05h7.48v-2.05Z"/><path class="cls-3" d="M335.89,43.43v4.1c-1.44,2.28-2.66,3.88-5.36,6.42,2.55,1.22,4.41,1.94,7.6,2.74l-1.98,4.52c-4.25-1.44-6.57-2.7-9.38-4.45-2.74,1.71-4.79,2.85-8.97,4.48h17.44v14.44h-18.01v-14.21c-.3.11-.42.15-.76.27l-1.79-4.29c3.53-.83,5.66-1.75,8.55-3.34-.99-.84-2.43-2.05-3.69-3.91-.95.72-1.48,1.06-2.47,1.67l-2.39-3.8v3.65h-3.42v2.28c.57,1.37,1.98,4.22,4.79,7.33l-2.09,4.03c-1.18-1.67-1.79-2.66-2.7-4.56v15.69h-4.37v-16.3c-1.56,4.52-3.57,7.6-4.37,8.81l-1.6-6.12c3.42-4.29,4.79-7.9,5.7-11.17h-4.98v-4.37h5.24v-6.72h4.37v6.72h3.42v.61c2.09-1.25,4.98-2.93,7.33-7.37l4.75.57c-.34.72-.61,1.37-1.14,2.28h10.26ZM330.76,65.43h-9.08v6h9.08v-6ZM322.52,47.53c1.37,1.98,3.15,3.31,4.25,4.18,2.39-1.98,3.04-2.85,3.95-4.18h-8.21Z"/><path class="cls-3" d="M368.23,40.73c1.63,2.85,4.22,6.46,9.76,10.03l-2.51,4.41c-5.55-3.53-8.47-8.4-9.58-10.33-1.94,3.38-6.34,7.33-9.23,9.12l-2.05-2.96h-13.18v-3.91h14.02v2.05c2.58-1.67,5.58-4.41,8.09-8.4h4.67ZM354.56,41.57v3.88h-12.04v-3.88h12.04ZM354.56,52.66v3.91h-12.04v-3.91h12.04ZM354.56,58.44v3.84h-12.04v-3.84h12.04ZM354.56,64.1v11.82h-12.04v-11.82h12.04ZM350.79,67.82h-3.99v4.25h3.99v-4.25ZM377.77,65.66c-2.81,2.85-8.81,8.43-20.02,10.83l-2.2-4.37c6.72-.8,14.29-4.18,19.15-9.69l3.08,3.23ZM373.67,59.27c-5.58,5.85-12.23,8.21-15.2,9.19l-2.47-4.03c5.36-1.44,10.6-4.18,14.51-8.17l3.15,3ZM369.26,53.12c-3.15,3-6.27,5.24-10.94,7.29l-2.28-3.57c4.48-1.86,6.76-3.42,10.11-6.65l3.12,2.93Z"/><path class="cls-3" d="M402.81,43.17c5.09-.46,8.4-1.25,12.27-2.93l1.94,4.37c-3.08,1.37-6.73,2.2-9.84,2.58v4.63h10.03v4.86h-2.36v19.68h-4.45v-19.68h-3.23v2.81c0,5.32-.84,12.58-3.72,16.87l-3.31-2.47v1.56h-17.52v-33.55h4.33v21.43c1.18-1.29,3.23-3.57,5.32-7.41h-4.29v-4.07h4.9v-11.21h3.8v11.21h4.33v4.07h-3.91c.76,1.29,2.17,3.42,4.79,6.35l-2.24,3.61c-1.41-1.98-1.86-2.74-2.96-4.71v8.59h-3.8v-8.05c-1.75,3.19-3.12,4.71-3.95,5.7l-1.98-3.31v6.95h13.18v1.37c2.09-3.84,2.66-9.8,2.66-13.03v-16.22ZM389.02,50.42c-.3-2.43-.72-4.14-1.52-6.92l3.31-.84c.42,1.37,1.18,4.45,1.44,6.69l-3.23,1.06ZM397.12,49.21c.8-1.94,1.63-4.67,2.01-6.61l3.38.76c-.42,1.94-1.29,4.71-2.39,7.11l-3-1.25Z"/><path class="cls-3" d="M422.08,72.31c3.38-5.96,5.62-14.55,6.42-18.92l-5.47.04v-4.83h6.27c.34-2.43.49-3.88.68-6.61l5.32.27c-.27,2.05-.38,3-.91,6.34h3.42c5.62,0,8.28,2.58,8.28,10.68,0,2.77-.38,8.05-1.82,11.32-1.29,2.89-3.69,3.91-7.03,3.91-2.05,0-3.61-.19-4.18-.27l-.3-5.09c.68.15,2.24.46,3.8.46,2.51,0,3.04-1.14,3.61-3.19.53-1.98.99-5.01.99-7.71,0-4.33-.99-5.43-4.75-5.39l-2.89.04c-1.06,5.93-3.34,15.04-6.54,21.24l-4.9-2.28ZM450.81,63.07c-.19-5.51-1.52-11.02-4.83-15.43l4.29-2.13c3.88,4.63,5.4,10.64,5.81,16.64l-5.28.91Z"/><path class="cls-3" d="M469.2,48.64c-.68,2.55-.91,4.37-1.03,9,3.65-2.47,7.45-3.76,11.82-3.76,8.74,0,10.52,5.97,10.52,9.31,0,8.51-7.26,11.32-17.71,11.32-3.5,0-5.74-.23-7.07-.38l-.61-4.9c1.75.23,4.37.57,7.56.57,9.84,0,12.54-2.96,12.54-6.8,0-2.74-2.13-4.64-5.81-4.64-4.37,0-8.89,1.82-11.25,4.67-.04.46-.08.61-.11.95l-4.98-.19c.11-8.89.19-10.87.99-15.65l5.13.49ZM484.59,49.47c-1.06-.42-6-2.43-16.03-2.96l.87-4.71c7.75.27,12.23,1.14,16.41,2.39l-1.25,5.28Z"/><path class="cls-3" d="M514.23,69.65c4.79-.46,11.85-2.28,11.85-11.51,0-5.93-3.19-9.73-9.16-10.14-.65,10.37-3.84,23.48-11.66,23.48-4.83,0-7.52-5.43-7.52-11.13,0-10.94,8.21-17.13,17.82-17.13,11.32,0,15.88,7.37,15.88,15.16,0,4.48-1.44,9.19-5.24,12.39-2.66,2.24-6.5,3.38-10.33,3.76l-1.63-4.86ZM502.64,60.45c0,1.79.57,5.55,2.85,5.55,2.01,0,5.36-3.99,6.53-17.74-5.81,1.25-9.38,5.93-9.38,12.2Z"/><path class="cls-3" d="M96.19,119.59c-5.47-3.53-9.2-5.51-15.31-7.9v18.05h-5.47v-32.45h5.47v9.12c8.55,2.7,14.63,6.08,17.97,7.9l-2.66,5.28Z"/><path class="cls-3" d="M112.19,123.7c8.93-1.03,15.39-4.98,19.22-17.02l4.56,2.7c-4.83,12.96-12.01,19.34-29.14,19.91v-31.31h5.36v25.72Z"/><path class="cls-3" d="M174.39,110.93v5.28h-32.6v-5.28h32.6Z"/><path class="cls-3" d="M213.76,121.08v5.02h-31.84v-5.02h31.84ZM210.84,101.09v5.02h-26.06v-5.02h26.06Z"/><path class="cls-3" d="M233.22,109.37c-1.67-1.14-5.58-3.65-11.78-5.66l2.32-4.37c2.77.84,7.03,2.24,12.2,5.36l-2.74,4.67ZM222.17,123.62c11.28-.91,21.85-4.67,26.71-22.49l4.45,3.12c-4.52,14.02-12.35,22.95-30.02,24.89l-1.14-5.51Z"/><path class="cls-3" d="M259.71,125.71c16.03-2.58,20.37-12.39,22.11-21.05h-11.63c-1.86,2.92-4.63,6.5-9.23,9.38l-3.23-3.76c4.03-2.51,7.14-5.96,9.16-10.3h15.39l4.37,5.89c-2.17,9.46-6.54,21.01-24.85,24.54l-2.09-4.71ZM285.05,95.81c1.86,2.32,2.77,3.95,4.29,6.92l-2.58,1.75c-1.29-2.93-2.28-4.6-4.14-7.07l2.43-1.6ZM290.1,94.37c1.82,2.32,2.66,3.88,4.18,6.99l-2.58,1.67c-1.33-2.93-2.09-4.41-4.03-7.11l2.43-1.56Z"/><path class="cls-3" d="M296.49,113.7c2.62-3.95,4.33-7.9,4.67-18.05l4.33.15c0,.99-.04,2.05-.19,4.03h7.83c-.04,5.66-.65,14.86-4.22,21.69,4.1,4.6,9.42,4.6,12.54,4.6h11.89l-.87,4.63h-10.68c-3.38,0-10.11,0-15.27-5.47-2.62,3.34-5.17,5.21-6.61,6.23l-2.81-4.25c1.1-.72,4.03-2.66,6.54-6.19-.61-1.06-1.44-2.93-2.36-5.81-.53,1.1-1.1,1.98-1.75,3l-3.04-4.56ZM304.74,104.32c-.42,2.09-.61,3.04-.99,4.48.27,1.71.84,4.75,2.28,8.02,1.25-2.89,2.36-6.92,2.58-12.5h-3.88ZM327.76,96.76v21.62c0,.68.11.68,1.22.68.46,0,.49-.53.53-.76.08-.87.15-4.22.19-5.36l3.65.76c-.23,9.8-1.44,9.8-4.37,9.8h-2.09c-2.36,0-3.53-.57-3.53-3.53v-18.69h-3.88v6.16c0,4.67-.65,11.28-4.48,16.19l-3.8-2.74c3.38-3.88,3.91-9.46,3.91-13.34v-10.79h12.65Z"/><path class="cls-3" d="M351.59,114.05c-.99,6.42-3.88,12.54-12.39,17.4l-2.96-4.6c7.94-4.41,11.06-9.19,11.13-21.92h-10.45v-4.67h15.31v-4.6h5.05v4.6h15.54v4.67h-20.52c0,1.18-.04,2.58-.19,4.6h16.98c-.19,8.62-.99,16.19-2.17,18.81-1.18,2.66-2.89,3.04-5.74,3.04h-7.67l-.95-4.86h7.56c1.18,0,2.05,0,2.66-1.86.53-1.67,1.06-6.23,1.18-10.6h-12.39Z"/></g></svg>