<?xml version="1.0" encoding="UTF-8"?><svg id="_レイヤー_2" xmlns="http://www.w3.org/2000/svg" viewBox="0 0 1070 205"><defs><style>.cls-1{fill:#d0327e;}.cls-1,.cls-2,.cls-3,.cls-4{stroke-width:0px;}.cls-2{fill:#1a1a1a;}.cls-3,.cls-5{fill:none;}.cls-5{stroke:#d9437e;stroke-dasharray:0 0 3.96 10.55;stroke-linejoin:round;stroke-width:6.6px;}.cls-4{fill:#fff;}</style></defs><g id="BACK"><rect class="cls-3" width="1070" height="205"/></g><g id="DESIGN"><circle class="cls-4" cx="825" cy="105.6" r="76"/><circle id="_グループ_" class="cls-5" cx="825.01" cy="104.76" r="66.7"/><path class="cls-1" d="M820.02,83.03c.79,0,2.64.09,2.64,2.33,0,1.36-.4,2.6-2.55,2.6h-1.41v5.33h2.64c1.06,0,2.64.18,2.64,2.33,0,1.72-.57,2.64-2.64,2.64h-2.64v5.68h1.67c1.36,0,2.55.57,2.55,2.33s-.75,2.55-2.64,2.55h-34.41c-.75,0-2.68,0-2.68-2.42,0-2.2,1.5-2.46,2.68-2.46h3.17v-5.68h-4.18c-.7,0-2.68,0-2.68-2.33,0-1.72.62-2.64,2.68-2.64h4.27v-3.87c-1.01.97-2.95,2.82-4.36,2.82-1.54,0-2.64-1.54-2.64-2.86,0-1.06.18-1.19,2.99-3.39,1.98-1.54,3.3-3.21,4.8-5.15.62-.79,1.28-1.14,2.11-1.14,1.23,0,2.86.88,2.86,2.2,0,.53-.22.84-.4,1.14h25.52ZM791.64,111.85c0,1.63-2.16,5.46-2.33,5.76-1.63,2.82-2.24,3.48-3.65,3.48-1.54,0-3.17-1.06-3.17-2.68,0-.75.04-.79,1.67-3.08.88-1.19,1.45-2.46,2.38-4.4.26-.53.7-1.36,2.16-1.36.84,0,2.95.4,2.95,2.29ZM797.62,87.96h-3.7v5.33h3.7v-5.33ZM797.62,98.25h-3.7v5.68h3.7v-5.68ZM800.57,111.9c.18,1.41.31,4.22.31,6.07,0,1.45,0,3.17-2.86,3.17-2.07,0-2.77-.92-2.77-2.51,0-.44.04-2.46.04-2.86,0-.57-.09-3.08-.09-3.61,0-.66.04-2.38,2.64-2.38,1.89,0,2.6.79,2.73,2.11ZM805.68,87.96h-3.74v5.33h3.74v-5.33ZM805.68,98.25h-3.74v5.68h3.74v-5.68ZM810.74,113.66c.4,1.23,1.23,3.78,1.23,4.93,0,2.02-2.46,2.29-3.26,2.29-2.16,0-2.33-1.01-2.77-3.52-.18-.92-.62-2.77-1.01-4.14-.13-.53-.31-1.01-.31-1.5,0-1.45,1.5-2.02,2.9-2.02,1.89,0,2.07.53,3.21,3.96ZM813.77,87.96h-3.78v5.33h3.78v-5.33ZM813.77,98.25h-3.78v5.68h3.78v-5.68ZM820.6,112.03c2.11,3.3,3.21,5.15,3.21,6.21,0,2.02-2.42,2.68-3.39,2.68-1.5,0-1.8-.62-2.9-2.9-.44-.92-1.63-2.99-2.29-4.22-.4-.66-.75-1.32-.75-1.98,0-1.85,2.2-2.33,2.82-2.33,1.67,0,1.8.18,3.3,2.55Z"/><path class="cls-1" d="M833.92,108.02c-.31.66-.97,1.94-1.76,3.17-1.54,2.51-2.38,2.77-3.12,2.77-1.41,0-2.77-1.5-2.77-3.12,0-.97.18-1.14,2.29-3.7.48-.57,3.21-4,5.37-8.58h-4.66c-1.94,0-2.73-.84-2.73-2.64,0-2.33,2.11-2.33,2.73-2.33h4.66v-11.18c0-1.98.88-2.68,2.77-2.68,2.42,0,2.46,1.94,2.46,2.68v11.18h4.09c1.5,0,2.68.48,2.68,2.51,0,2.33-1.76,2.46-2.68,2.46h-4.09c.79,1.58,3.12,4.62,3.78,5.37,2.07,2.33,2.24,2.55,2.24,3.34,0,1.23-1.23,2.6-2.51,2.6-1.14,0-1.94-1.06-3.52-3.87v12.89c0,1.94-.84,2.68-2.73,2.68-2.51,0-2.51-2.02-2.51-2.68v-10.87ZM831.33,84.17c.75,2.16,1.54,5.06,1.54,5.9,0,1.94-2.51,1.98-2.77,1.98-1.32,0-1.5-.75-1.94-2.6-.26-1.1-1.01-3.52-1.28-4.31-.13-.48-.22-.88-.22-1.19,0-1.28,1.45-1.89,2.6-1.89,1.23,0,1.58.75,2.07,2.11ZM846.51,84.08c0,.92-.84,3.96-1.5,5.76-.7,1.85-1.19,2.29-2.16,2.29-.84,0-2.64-.48-2.64-2.02,0-.31.09-.66.79-2.82.31-1.01.48-1.45.92-3.39.18-.66.44-1.8,1.76-1.8,2.11,0,2.82,1.1,2.82,1.98ZM865.21,102.96c.18-.04.44-.04.7-.04,1.94,0,2.24,1.98,2.24,3.12,0,1.06-.31,1.94-2.11,2.24l-2.07.35v10.12c0,1.32-.35,2.73-2.6,2.73s-3.08-.62-3.08-2.73v-9.02l-10.43,2.02c-1.94.4-2.9-1.06-2.9-2.82s.92-2.2,1.98-2.42l11.35-2.2v-22c0-1.28.35-2.68,2.6-2.68s3.08.57,3.08,2.68v20.86l1.23-.22ZM853.15,95.7c2.55,2.07,3.08,2.6,3.08,3.61,0,1.5-1.5,2.99-2.86,2.99-.75,0-.88-.09-2.9-1.89-.44-.44-2.64-2.2-3.04-2.6-.53-.53-.71-.92-.71-1.5,0-1.5,1.23-2.82,2.6-2.82,1.1,0,2.6,1.19,3.83,2.2ZM855.09,84.83c1.94,1.67,2.29,2.07,2.29,3.17,0,1.45-1.23,2.82-2.68,2.82-.84,0-.92-.04-2.95-1.94-.4-.4-2.42-2.16-2.82-2.51-.48-.44-.7-.97-.7-1.58,0-1.5,1.28-2.6,2.51-2.6s2.95,1.45,4.36,2.64Z"/><path class="cls-2" d="M178.52,66.63v-5.8h20.84v-7.32h6.12v7.32h10.44v5.8h-10.4v19.78c0,6.12-5.06,6.12-7.13,6.12-.97,0-1.47,0-6.26-.23l-.83-6.03c3.5.32,4.74.41,5.84.41,1.56,0,2.3-.32,2.3-1.75l-.05-12.51c-1.89,2.53-7.5,9.94-19,16.06l-3.68-4.78c11.69-5.61,19.28-15.09,20.84-17.07h-19.05Z"/><path class="cls-2" d="M232.71,79.28h-6.39v-24.61h6.39v24.61ZM254.98,73.21c0,16.06-13.48,18.31-24.29,19.28l-2.21-5.89c12.42-.78,20.06-2.81,20.06-12.93v-19.74h6.44v19.28Z"/><path class="cls-2" d="M278.57,75.64c-2.67-1.61-6.9-3.68-13.34-5.52l2.21-5.15c3.36.78,8.46,2.3,13.53,5.2l-2.39,5.47ZM267.85,85.44c17.3-1.56,24.75-7.41,29.95-23.69l5.29,3.82c-6.44,17.71-15.69,24.11-33.86,26.5l-1.38-6.62ZM282.53,64.65c-5.66-2.99-10.63-4.42-13.66-5.25l2.25-5.01c5.84,1.15,10.81,3.4,13.89,4.83l-2.48,5.43ZM295.09,50.57c1.84,2.76,2.76,4.92,4.28,8.88l-3.59,1.75c-1.2-3.63-1.93-5.47-4.05-9.02l3.36-1.61ZM302.54,50.39c1.93,3.08,2.94,5.57,4.09,8.97l-3.59,1.66c-1.2-3.82-1.98-5.71-3.86-9.06l3.36-1.56Z"/><path class="cls-2" d="M351.58,62.62v5.94h-15.5c-.37,7.45-1.24,18.49-17.99,24.01l-3.54-5.25c14.54-4.32,14.91-12.05,15.18-18.77h-16.61v-5.94h16.65v-9.11h6.35v9.11h15.46Z"/><path class="cls-2" d="M372,65.85c0,17.11-4.69,23.33-8.42,26.96l-4.65-4.65c4.28-4.6,6.99-9.25,6.99-21.81v-11.18h6.07v10.67ZM384.28,84.29c4.6-2.02,9.25-4.05,11.32-16.06l5.8,2.48c-1.89,8.28-6.03,20.29-23.23,21.21v-37.96h6.12v30.32Z"/><path class="cls-2" d="M407.74,75.32v-10.58h5.11v-12.19h31.42v12.19h5.2v10.58h-5.47v15.41c0,2.76-1.15,4-3.68,4h-9.52l-.97-5.2h7.59c.69,0,1.06-.18,1.06-1.15v-1.56h-19.83v7.91h-5.43v-19.41h-5.47ZM413.22,71.14h30.73v-2.25h-30.73v2.25ZM438.79,56.88h-20.56v7.87h6.07v-5.89h14.49v-1.98ZM438.47,75.19h-19.83v2.25h19.83v-2.25ZM438.47,80.94h-19.83v2.25h19.83v-2.25ZM438.79,62.26h-9.06v2.48h9.06v-2.48Z"/><path class="cls-2" d="M496.66,54.67v4.97c-1.75,2.76-3.22,4.69-6.49,7.78,3.08,1.47,5.34,2.35,9.2,3.31l-2.39,5.47c-5.15-1.75-7.96-3.27-11.36-5.38-3.31,2.07-5.8,3.45-10.86,5.43h21.12v17.48h-21.81v-17.21c-.37.14-.51.18-.92.32l-2.16-5.2c4.28-1.01,6.85-2.12,10.35-4.05-1.2-1.01-2.94-2.48-4.46-4.74-1.15.88-1.79,1.29-2.99,2.02l-2.9-4.6v4.42h-4.14v2.76c.69,1.66,2.39,5.11,5.8,8.88l-2.53,4.88c-1.43-2.02-2.16-3.22-3.27-5.52v19h-5.29v-19.74c-1.89,5.47-4.32,9.2-5.29,10.67l-1.93-7.41c4.14-5.2,5.8-9.57,6.9-13.53h-6.03v-5.29h6.35v-8.14h5.29v8.14h4.14v.74c2.53-1.52,6.03-3.54,8.88-8.92l5.75.69c-.41.88-.74,1.66-1.38,2.76h12.42ZM490.45,81.3h-11v7.27h11v-7.27ZM480.47,59.63c1.66,2.39,3.82,4,5.15,5.06,2.9-2.39,3.68-3.45,4.79-5.06h-9.94Z"/><path class="cls-2" d="M535.81,51.4c1.98,3.45,5.11,7.82,11.82,12.15l-3.04,5.34c-6.72-4.28-10.26-10.17-11.59-12.51-2.35,4.09-7.68,8.88-11.18,11.04l-2.48-3.59h-15.96v-4.74h16.98v2.48c3.13-2.02,6.76-5.34,9.8-10.17h5.66ZM519.25,52.41v4.69h-14.58v-4.69h14.58ZM519.25,65.85v4.74h-14.58v-4.74h14.58ZM519.25,72.84v4.65h-14.58v-4.65h14.58ZM519.25,79.69v14.31h-14.58v-14.31h14.58ZM514.69,84.2h-4.83v5.15h4.83v-5.15ZM547.35,81.58c-3.4,3.45-10.67,10.21-24.24,13.11l-2.67-5.29c8.14-.97,17.3-5.06,23.19-11.73l3.73,3.91ZM542.39,73.85c-6.76,7.08-14.81,9.94-18.4,11.13l-2.99-4.88c6.49-1.75,12.83-5.06,17.57-9.89l3.82,3.63ZM537.05,66.4c-3.82,3.63-7.59,6.35-13.25,8.83l-2.76-4.32c5.43-2.25,8.19-4.14,12.24-8.05l3.77,3.54Z"/><path class="cls-2" d="M577.67,54.34c6.16-.55,10.17-1.52,14.86-3.54l2.35,5.29c-3.73,1.66-8.14,2.67-11.92,3.13v5.61h12.15v5.89h-2.85v23.83h-5.38v-23.83h-3.91v3.4c0,6.44-1.01,15.23-4.51,20.43l-4-2.99v1.89h-21.21v-40.62h5.24v25.95c1.43-1.56,3.91-4.32,6.44-8.97h-5.2v-4.92h5.93v-13.57h4.6v13.57h5.24v4.92h-4.74c.92,1.56,2.62,4.14,5.8,7.68l-2.71,4.37c-1.7-2.39-2.25-3.31-3.59-5.7v10.4h-4.6v-9.75c-2.12,3.87-3.77,5.71-4.78,6.9l-2.39-4v8.42h15.96v1.66c2.53-4.65,3.22-11.87,3.22-15.78v-19.64ZM560.97,63.13c-.37-2.94-.87-5.01-1.84-8.37l4-1.01c.51,1.66,1.43,5.38,1.75,8.1l-3.91,1.29ZM570.77,61.66c.97-2.35,1.98-5.66,2.44-8.01l4.09.92c-.51,2.35-1.56,5.71-2.9,8.6l-3.63-1.52Z"/><path class="cls-2" d="M600.99,89.63c4.09-7.22,6.81-17.62,7.78-22.91l-6.62.04v-5.84h7.59c.41-2.95.6-4.69.83-8.01l6.44.32c-.32,2.48-.46,3.63-1.1,7.68h4.14c6.81,0,10.03,3.13,10.03,12.93,0,3.36-.46,9.75-2.21,13.71-1.56,3.5-4.46,4.74-8.51,4.74-2.48,0-4.37-.23-5.06-.32l-.37-6.16c.83.18,2.71.55,4.6.55,3.04,0,3.68-1.38,4.37-3.86.64-2.39,1.2-6.07,1.2-9.34,0-5.25-1.2-6.58-5.75-6.53l-3.5.05c-1.29,7.18-4.05,18.22-7.91,25.72l-5.93-2.76ZM635.77,78.45c-.23-6.67-1.84-13.34-5.84-18.68l5.2-2.58c4.69,5.61,6.53,12.88,7.04,20.15l-6.39,1.1Z"/><path class="cls-2" d="M658.03,60.97c-.83,3.08-1.1,5.29-1.24,10.9,4.42-2.99,9.02-4.55,14.31-4.55,10.58,0,12.74,7.22,12.74,11.27,0,10.3-8.79,13.71-21.44,13.71-4.23,0-6.95-.28-8.56-.46l-.74-5.93c2.12.28,5.29.69,9.16.69,11.92,0,15.18-3.59,15.18-8.23,0-3.31-2.58-5.61-7.04-5.61-5.29,0-10.77,2.21-13.62,5.66-.05.55-.09.74-.14,1.15l-6.03-.23c.14-10.77.23-13.16,1.2-18.96l6.21.6ZM676.66,61.98c-1.29-.51-7.27-2.94-19.41-3.59l1.06-5.7c9.39.32,14.81,1.38,19.87,2.9l-1.52,6.39Z"/><path class="cls-2" d="M712.54,86.41c5.8-.55,14.35-2.76,14.35-13.94,0-7.18-3.86-11.78-11.09-12.28-.78,12.56-4.65,28.43-14.12,28.43-5.84,0-9.11-6.58-9.11-13.48,0-13.25,9.94-20.75,21.58-20.75,13.71,0,19.23,8.93,19.23,18.36,0,5.43-1.75,11.13-6.35,15-3.22,2.71-7.87,4.09-12.51,4.55l-1.98-5.89ZM698.51,75.28c0,2.16.69,6.72,3.45,6.72,2.44,0,6.49-4.83,7.91-21.48-7.04,1.52-11.36,7.18-11.36,14.77Z"/><path class="cls-2" d="M303.32,148.29c-6.62-4.28-11.13-6.67-18.54-9.57v21.85h-6.62v-39.29h6.62v11.04c10.35,3.27,17.71,7.36,21.76,9.57l-3.22,6.39Z"/><path class="cls-2" d="M322.69,153.26c10.81-1.24,18.63-6.03,23.28-20.61l5.52,3.27c-5.84,15.69-14.54,23.42-35.29,24.11v-37.91h6.49v31.14Z"/><path class="cls-2" d="M397.99,137.8v6.39h-39.47v-6.39h39.47Z"/><path class="cls-2" d="M445.65,150.09v6.07h-38.55v-6.07h38.55ZM442.11,125.89v6.07h-31.56v-6.07h31.56Z"/><path class="cls-2" d="M469.2,135.92c-2.02-1.38-6.76-4.42-14.26-6.85l2.81-5.29c3.36,1.01,8.51,2.71,14.77,6.49l-3.31,5.66ZM455.81,153.17c13.66-1.1,26.45-5.66,32.34-27.23l5.38,3.77c-5.47,16.98-14.95,27.79-36.34,30.13l-1.38-6.67Z"/><path class="cls-2" d="M501.26,155.7c19.41-3.13,24.66-15,26.77-25.49h-14.08c-2.25,3.54-5.61,7.87-11.18,11.36l-3.91-4.55c4.88-3.04,8.65-7.22,11.09-12.47h18.63l5.29,7.13c-2.62,11.46-7.91,25.44-30.09,29.72l-2.53-5.7ZM531.94,119.49c2.25,2.81,3.36,4.79,5.2,8.37l-3.13,2.12c-1.56-3.54-2.76-5.57-5.01-8.56l2.94-1.93ZM538.06,117.74c2.21,2.81,3.22,4.69,5.06,8.46l-3.13,2.02c-1.61-3.54-2.53-5.34-4.88-8.6l2.94-1.89Z"/><path class="cls-2" d="M545.79,141.16c3.17-4.78,5.24-9.57,5.66-21.85l5.24.18c0,1.2-.05,2.48-.23,4.88h9.48c-.05,6.85-.78,17.99-5.11,26.27,4.97,5.57,11.41,5.57,15.18,5.57h14.4l-1.06,5.61h-12.93c-4.09,0-12.24,0-18.49-6.62-3.17,4.05-6.26,6.3-8,7.54l-3.4-5.15c1.33-.87,4.88-3.22,7.91-7.5-.74-1.29-1.75-3.54-2.85-7.04-.64,1.33-1.33,2.39-2.12,3.63l-3.68-5.52ZM555.77,129.8c-.51,2.53-.74,3.68-1.2,5.43.32,2.07,1.01,5.75,2.76,9.71,1.52-3.5,2.85-8.37,3.13-15.14h-4.69ZM583.65,120.64v26.18c0,.83.14.83,1.47.83.55,0,.6-.64.64-.92.09-1.06.18-5.11.23-6.49l4.42.92c-.28,11.87-1.75,11.87-5.29,11.87h-2.53c-2.85,0-4.28-.69-4.28-4.28v-22.63h-4.69v7.45c0,5.66-.78,13.66-5.43,19.6l-4.6-3.31c4.09-4.69,4.74-11.46,4.74-16.15v-13.07h15.32Z"/><path class="cls-2" d="M612.49,141.58c-1.2,7.77-4.69,15.18-15,21.07l-3.59-5.57c9.62-5.34,13.39-11.13,13.48-26.54h-12.65v-5.66h18.54v-5.57h6.12v5.57h18.82v5.66h-24.84c0,1.43-.05,3.13-.23,5.57h20.56c-.23,10.44-1.2,19.6-2.62,22.77-1.43,3.22-3.5,3.68-6.95,3.68h-9.29l-1.15-5.89h9.16c1.43,0,2.48,0,3.22-2.25.64-2.02,1.29-7.54,1.43-12.83h-15Z"/></g></svg>