<?xml version="1.0" encoding="UTF-8"?><svg id="_レイヤー_2" xmlns="http://www.w3.org/2000/svg" viewBox="0 0 750 227"><defs><style>.cls-1{fill:#d0327e;}.cls-1,.cls-2,.cls-3,.cls-4,.cls-5{stroke-width:0px;}.cls-2{fill:#fff659;}.cls-3{fill:#1a1a1a;}.cls-4{fill:#595757;}.cls-5{fill:#fff;}.cls-6{fill:none;stroke:#d9437e;stroke-dasharray:0 0 3.76 10.02;stroke-linejoin:round;stroke-width:6.26px;}</style></defs><g id="BACK"><polygon class="cls-2" points="750 197.06 420.08 197.06 376.38 227 330.25 197.06 0 197.06 0 0 750 0 750 197.06"/></g><g id="DESIGN"><path class="cls-3" d="M184.57,63.01h-35.71v-3.95h15.39v-2.28h4.9v2.28h15.43v3.95ZM158.05,89.42v-9.35h17.52v8.25h2.05c.53,0,.84-.19.84-.91v-9.08h-23.37v14.36h-4.79v-17.93h32.9v14.55c0,2.13-1.18,3.38-2.81,3.38h-6l-.61-3.27h-15.73ZM179.75,73.08h-26.1v-8.66h26.1v8.66ZM175.04,67.49h-16.76v2.39h16.76v-2.39ZM171.12,83.3h-8.66v2.77h8.66v-2.77Z"/><path class="cls-3" d="M196.74,79.46c-1.18,4.52-2.74,8.97-5.32,12.8l-3.61-3.72c1.9-3.04,3.61-6.38,5.05-11.25l3.88,2.17ZM190.62,67.04c2.66,1.37,3.8,2.01,6.04,3.8l-2.74,3.76c-2.24-1.98-3.08-2.51-5.77-3.95l2.47-3.61ZM191.95,57.12c2.81,1.1,4.83,2.55,6.12,3.53l-2.85,3.91c-1.22-1.1-2.13-1.82-5.89-3.8l2.62-3.65ZM201.29,88.81c.49-.04,2.24-.15,2.89-.19v-6.08h-1.98c-.72,6.04-2.93,8.97-3.88,10.18l-3.8-2.74c2.51-3.46,3.57-6.46,3.57-13.49v-4.94h26.41v2.96h-22.08v5.09h22.15v2.92h-4.18l3.08,2.05c-.53.49-1.9,1.52-3.04,2.24,1.44.65,2.74,1.14,4.83,1.75l-2.09,4.1c-6.16-2.17-10.83-5.66-13.11-10.14h-1.82v5.78c3.84-.3,4.64-.46,5.85-.65l.04,3.46c-3.12.57-9.2,1.14-12.65,1.44l-.19-3.76ZM223.52,58.72v11.44h-24.81v-11.44h6.92v-1.9h3.76v1.9h3.46v-1.9h3.72v1.9h6.95ZM202.55,61.68v1.75h3.08v-1.75h-3.08ZM202.55,65.74v1.75h3.08v-1.75h-3.08ZM222.5,75.89v2.39h-18.69v-2.39h18.69ZM209.39,61.68v1.75h3.46v-1.75h-3.46ZM209.39,65.74v1.75h3.46v-1.75h-3.46ZM214.63,82.54c.68.8,1.37,1.52,2.77,2.58,1.71-1.44,2.05-1.71,2.89-2.58h-5.66ZM216.57,61.68v1.75h3.12v-1.75h-3.12ZM216.57,65.74v1.75h3.12v-1.75h-3.12Z"/><path class="cls-3" d="M231.09,59.44h13.53v-2.62h4.9v2.62h14.78v4.18h-5.47v2.39h5.66v3.65h-5.66v5.78h-18.43v-5.78h-4.67v6.99c0,3.19-.23,10.26-3.5,15.96l-3.99-3.53c2.13-3.88,2.85-8.17,2.85-12.65v-16.98ZM242.64,81.21h-6v-3.99h24.28v3.99c-.68,1.1-1.9,3.15-5.66,5.55,4.18,1.06,7.26,1.33,9.38,1.48l-1.86,4.52c-2.28-.27-7.07-.87-12.8-3.23-5.89,2.43-11.63,3-13.6,3.19l-1.71-4.22c1.94-.15,5.28-.46,9.99-1.71-2.7-1.75-3.57-2.62-4.52-3.65l2.51-1.94ZM235.69,63.62v2.39h4.67v-2.39h-4.67ZM244.23,81.21c2.09,1.9,4.1,2.92,5.55,3.65,3.04-1.48,3.88-2.47,4.86-3.65h-10.41ZM244.84,63.62v2.39h9.54v-2.39h-9.54ZM244.84,69.66v2.39h9.54v-2.39h-9.54Z"/><path class="cls-3" d="M149.01,120.55h13.56v4.71c-.84,5.28-3.3,13.79-11.59,19.04l-2.7-4.52c5.81-3.8,8.59-8.09,9.69-14.51h-8.97v-4.71ZM169.11,116.26c0,.23,0,.49.04.72.08.49,2.39,7.94,2.43,8.05,5.17-4.1,7.67-7.22,8.78-8.62l4.26,3.19c-3.19,3.69-6.88,6.69-10.83,9.5,1.67,2.62,4.6,6.8,11.32,10.94l-2.89,4.64c-5.85-3.95-10.98-9.61-13.11-15.69v14.48c0,3.57-1.9,4.14-3.76,4.14h-6.88l-.99-4.83h5.74c.72,0,1.1-.34,1.1-1.03v-29.9h4.79v4.41Z"/><path class="cls-3" d="M215.47,129.14c-1.18,1.06-2.7,2.39-6.8,5.24,5.93-.15,6.57-.19,8.09-.27-.91-1.25-1.25-1.63-1.9-2.39l3.61-2.28c3.23,3.23,5.47,6.8,6.23,8.02l-3.88,2.51c-.46-.72-.91-1.44-1.56-2.39-1.33.08-8.13.46-10.26.57v9.69h-4.86v-9.5c-1.1.08-3.91.23-5.21.23-3.31,0-8.13.19-10.14.19l-.34-4.14c1.56.08,3.15.11,4.29.11,2.89,0,5.28-.08,7.29-.11-2.66-1.44-5.13-2.7-7.52-3.61l2.77-3.04c.87.3,1.33.46,3.04,1.25,1.6-1.33,1.75-1.48,2.36-2.13h-12.04v-3.5h15.58v-1.71h-12.58v-2.93h12.58v-1.67h-14.29v-3.5h14.29v-1.97h4.79v1.97h14.51v3.5h-14.51v1.67h12.61v2.93h-12.61v1.71h15.58v3.5h-12.65l3.53,2.05ZM200.61,141.53c-1.48,1.67-4.98,4.22-9.27,5.93l-2.7-3.91c4.1-1.48,6.57-2.93,8.74-4.83l3.23,2.81ZM206.5,127.09c-1.22,1.1-3.08,2.66-4.63,3.95,1.86.99,2.51,1.41,2.96,1.67,1.98-1.52,4.52-3.5,6.72-5.62h-5.05ZM221.55,147.68c-3.34-1.52-6.8-3.8-9.19-6.19l3.04-2.96c2.89,2.55,6.5,4.29,9,5.24l-2.85,3.91Z"/><path class="cls-3" d="M228.81,120.55h13.56v4.71c-.84,5.28-3.31,13.79-11.59,19.04l-2.7-4.52c5.81-3.8,8.59-8.09,9.69-14.51h-8.97v-4.71ZM248.91,116.26c0,.23,0,.49.04.72.08.49,2.39,7.94,2.43,8.05,5.17-4.1,7.67-7.22,8.78-8.62l4.26,3.19c-3.19,3.69-6.88,6.69-10.83,9.5,1.67,2.62,4.6,6.8,11.32,10.94l-2.89,4.64c-5.85-3.95-10.98-9.61-13.11-15.69v14.48c0,3.57-1.9,4.14-3.76,4.14h-6.88l-.99-4.83h5.74c.72,0,1.1-.34,1.1-1.03v-29.9h4.79v4.41Z"/><path class="cls-3" d="M302.94,120.33v4.79h-6.08v3.84c0,12.92-9.92,15.96-18.16,17.14l-1.9-4.75c12.04-1.18,14.93-6.19,14.93-12.42v-3.8h-10.94v9.35h-5.09v-9.35h-5.85v-4.79h5.85v-6.57h5.09v6.57h10.94v-6.69h5.13v6.69h6.08Z"/><path class="cls-3" d="M342.61,127.17v5.28h-32.6v-5.28h32.6Z"/><path class="cls-3" d="M362.76,115.92c-1.37,12.5-4.67,21.77-9.27,29.33l-5.05-2.58c2.17-3.38,7.29-11.59,9.08-27.47l5.24.72ZM376.28,144.53c-2.05-11.36-4.86-19.42-8.81-27.51l4.71-2.09c3.53,6.65,7.67,16.72,9.61,28.19l-5.51,1.41ZM376.78,112.65c1.67,2.54,2.66,4.82,3.57,7.29l-2.77,1.48c-1.06-3.15-1.79-4.75-3.42-7.45l2.62-1.33ZM381.64,110.6c1.56,2.32,2.36,4.1,3.61,7.29l-2.77,1.48c-.99-3.04-1.79-4.75-3.42-7.41l2.58-1.37Z"/><path class="cls-3" d="M422.22,127.17v5.28h-32.6v-5.28h32.6Z"/><path class="cls-3" d="M428,128.72h35.64v4.56h-10.75v8.85c0,.84.49.84.99.84h4.18c.91,0,1.14-.08,1.18-5.77l4.52,1.37c-.15,6.69-.57,8.81-3.8,8.81h-8.51c-.65,0-3.34,0-3.34-2.77v-11.32h-5.24c-.76,11.25-9.23,13.79-13.11,14.74l-2.32-4.75c9.12-1.75,10.56-6.23,10.75-9.99h-10.18v-4.56ZM443.35,111.82h4.9v2.89h14.44v10.22h-4.79v-5.81h-24.2v5.81h-4.75v-10.22h14.4v-2.89ZM434.31,121.69h22.99v4.37h-22.99v-4.37Z"/><path class="cls-3" d="M474.9,144.07v3.57h-4.45v-17.06c-.76,1.06-1.06,1.41-1.82,2.2l-1.56-6.54c4.22-5.17,5.13-12.5,5.4-14.44l4.41.34c-.19,1.67-.49,4.79-1.98,9.23v22.26c2.62-4.03,2.66-8.32,2.66-10.26v-9.27h-1.25v-3.72h6.46v-2.51h-5.43v-3.8h5.43v-2.24h4.52v2.24h5.62v-2.24h4.48v2.24h5.47v3.8h-5.47v2.51h6.31v3.72h-21.92v9.04c0,5.24-.87,10.26-3.76,14.36l-3.12-3.46ZM502.44,126.03v18.54c0,1.9-.27,3.08-3.23,3.08h-3.5l-.68-3.88h2.01c1.06,0,1.25-.11,1.25-1.22v-2.17h-3.84v7.03h-3.8v-7.03h-3.84v7.26h-3.84v-21.62h19.45ZM486.83,129.45v2.28h3.84v-2.28h-3.84ZM486.83,134.88v2.36h3.84v-2.36h-3.84ZM487.28,117.89v2.51h5.62v-2.51h-5.62ZM494.46,129.45v2.28h3.84v-2.28h-3.84ZM494.46,134.88v2.36h3.84v-2.36h-3.84Z"/><path class="cls-4" d="M115.97,69.6h-2.15s0-.01,0-.02c.02-2.6-1.79-4.75-4.32-5.12-.91-.13-1.81-.27-2.72-.41-.66-.1-1.32-.2-1.97-.3-.21-.03-.42-.06-.64-.09,0-.73,0-1.45,0-2.18,0-1.58-.95-2.86-2.39-3.26-.31-.09-.65-.13-1.04-.13-.98,0-1.95,0-2.93,0h-.2c-.98,0-1.95,0-2.93,0-.38,0-.72.04-1.04.13-1.44.4-2.38,1.68-2.39,3.26,0,.73,0,1.45,0,2.18-.22.03-.43.06-.64.09-.66.1-1.31.2-1.97.3-.91.14-1.81.28-2.72.41-2.53.36-4.35,2.51-4.32,5.12.02,2.19.02,4.43.01,6.59,0,1.27,0,2.53,0,3.8,0,1.56.63,2.88,1.83,3.84.45.36.95.6,1.36.78,0,.04,0,.03,0,.03-.2.53-.43,1.03-.7,1.5-.34.59-.7,1.17-1.06,1.75-.49.79-.99,1.61-1.46,2.45-1.06,1.89-1.59,3.88-1.59,5.92,0,10.51,0,30.83,0,41.34,0,.71.07,1.4.21,2.05,1.01,4.74,4.88,7.92,9.61,7.92h7.98s7.79,0,7.79,0c4.74,0,8.6-3.19,9.61-7.92.14-.65.21-1.34.21-2.05.01-10.51,0-30.83,0-41.34,0-2.04-.54-4.03-1.59-5.92-.47-.84-.97-1.66-1.46-2.45-.36-.58-.71-1.16-1.06-1.75-.27-.46-.51-.97-.69-1.46,0,0,0-.03,0-.07.41-.19.91-.42,1.36-.78.68-.55,1.17-1.22,1.48-1.98h2.51c3.32,0,6.01-2.74,6.01-6.11s-2.7-6.11-6.01-6.11ZM84.91,76.18c0-.68,0-1.38,0-2.07h25.6c0,.71,0,1.42,0,2.12,0,.16,0,.32,0,.48h-25.6c0-.17,0-.35,0-.52ZM94.56,61.39s.07,0,.13,0c.97,0,1.95,0,2.92,0h.2c.97,0,1.95,0,2.92,0,.06,0,.11,0,.13,0,0,.02.01.06.01.11,0,.72,0,1.43,0,2.15h-6.32c0-.72,0-1.43,0-2.15,0-.05,0-.08.01-.11ZM86.39,67.72c.92-.13,1.84-.27,2.76-.42.65-.1,1.3-.2,1.95-.3.25-.04.51-.07.79-.11v.04h11.79v-.02c.22.03.44.06.64.09.65.1,1.3.2,1.95.3.92.14,1.84.29,2.76.42,1.04.15,1.5,1.05,1.49,1.83,0,.42,0,.84,0,1.27h-25.61c0-.42,0-.85,0-1.27,0-.78.46-1.68,1.49-1.83ZM110.96,91.92c.78,1.39,1.17,2.84,1.17,4.32,0,10.5,0,30.83,0,41.34,0,.49-.05.95-.14,1.37-.68,3.18-3.25,5.32-6.4,5.32h-7.78s-7.98,0-7.98,0c-3.15,0-5.72-2.14-6.4-5.32-.09-.42-.14-.88-.14-1.37-.01-10.51,0-30.83,0-41.34,0-1.47.4-2.92,1.17-4.32.44-.78.9-1.53,1.39-2.32.37-.6.74-1.21,1.1-1.82.36-.63.68-1.3.95-2.01.24-.64.21-1.3.18-1.74-.05-.61-.36-1.74-1.82-2.39-.29-.13-.59-.26-.75-.39-.39-.32-.58-.71-.59-1.24h25.6c0,.54-.19.92-.59,1.24-.16.13-.46.26-.75.39-1.46.65-1.77,1.78-1.82,2.39-.04.44-.06,1.1.18,1.74.26.71.58,1.39.95,2.01.36.61.73,1.21,1.1,1.81.49.8.95,1.55,1.39,2.33ZM115.97,78.53h-2.16c0-.77,0-1.54,0-2.31,0-1.1,0-2.21,0-3.33h2.16c1.5,0,2.72,1.27,2.72,2.82s-1.22,2.82-2.72,2.82Z"/><circle class="cls-5" cx="597.86" cy="103.35" r="72.14"/><circle id="_グループ_" class="cls-6" cx="597.87" cy="102.55" r="63.31"/><path class="cls-1" d="M593.13,83.93c.75,0,2.5.08,2.5,2.21,0,1.29-.38,2.46-2.42,2.46h-1.34v5.05h2.5c1,0,2.51.17,2.51,2.21,0,1.63-.54,2.51-2.51,2.51h-2.5v5.39h1.59c1.29,0,2.42.54,2.42,2.21s-.71,2.42-2.51,2.42h-32.66c-.71,0-2.55,0-2.55-2.3,0-2.09,1.42-2.34,2.55-2.34h3.01v-5.39h-3.97c-.67,0-2.55,0-2.55-2.21,0-1.63.58-2.51,2.55-2.51h4.05v-3.67c-.96.92-2.8,2.67-4.13,2.67-1.46,0-2.51-1.46-2.51-2.71,0-1,.17-1.13,2.84-3.22,1.88-1.46,3.13-3.05,4.55-4.89.58-.75,1.21-1.09,2-1.09,1.17,0,2.71.83,2.71,2.09,0,.5-.21.79-.38,1.09h24.22ZM566.19,111.29c0,1.55-2.05,5.18-2.21,5.47-1.54,2.67-2.13,3.3-3.47,3.3-1.46,0-3.01-1-3.01-2.55,0-.71.04-.75,1.59-2.92.83-1.13,1.38-2.34,2.25-4.18.25-.5.67-1.29,2.05-1.29.79,0,2.8.38,2.8,2.17ZM571.87,88.61h-3.51v5.05h3.51v-5.05ZM571.87,98.38h-3.51v5.39h3.51v-5.39ZM574.67,111.33c.17,1.34.29,4.01.29,5.76,0,1.38,0,3.01-2.71,3.01-1.96,0-2.63-.88-2.63-2.38,0-.42.04-2.34.04-2.71,0-.54-.08-2.92-.08-3.42,0-.63.04-2.26,2.51-2.26,1.8,0,2.46.75,2.59,2ZM579.51,88.61h-3.55v5.05h3.55v-5.05ZM579.51,98.38h-3.55v5.39h3.55v-5.39ZM584.31,113c.38,1.17,1.17,3.59,1.17,4.68,0,1.92-2.34,2.17-3.09,2.17-2.05,0-2.21-.96-2.63-3.34-.17-.88-.58-2.63-.96-3.93-.12-.5-.29-.96-.29-1.42,0-1.38,1.42-1.92,2.76-1.92,1.8,0,1.96.5,3.05,3.76ZM587.2,88.61h-3.59v5.05h3.59v-5.05ZM587.2,98.38h-3.59v5.39h3.59v-5.39ZM593.67,111.45c2,3.13,3.05,4.89,3.05,5.89,0,1.92-2.3,2.55-3.22,2.55-1.42,0-1.71-.58-2.76-2.76-.42-.88-1.54-2.84-2.17-4.01-.38-.63-.71-1.25-.71-1.88,0-1.75,2.09-2.21,2.67-2.21,1.59,0,1.71.17,3.13,2.42Z"/><path class="cls-1" d="M606.33,107.65c-.29.63-.92,1.84-1.67,3.01-1.46,2.38-2.25,2.63-2.96,2.63-1.34,0-2.63-1.42-2.63-2.96,0-.92.17-1.09,2.17-3.51.46-.54,3.05-3.8,5.1-8.14h-4.43c-1.84,0-2.59-.79-2.59-2.51,0-2.21,2-2.21,2.59-2.21h4.43v-10.61c0-1.88.83-2.55,2.63-2.55,2.3,0,2.34,1.84,2.34,2.55v10.61h3.88c1.42,0,2.55.46,2.55,2.38,0,2.21-1.67,2.34-2.55,2.34h-3.88c.75,1.5,2.96,4.38,3.59,5.09,1.96,2.21,2.13,2.42,2.13,3.17,0,1.17-1.17,2.46-2.38,2.46-1.09,0-1.84-1-3.34-3.68v12.24c0,1.84-.79,2.55-2.59,2.55-2.38,0-2.38-1.92-2.38-2.55v-10.32ZM603.86,85.02c.71,2.05,1.46,4.8,1.46,5.6,0,1.84-2.38,1.88-2.63,1.88-1.25,0-1.42-.71-1.84-2.46-.25-1.04-.96-3.34-1.21-4.09-.12-.46-.21-.84-.21-1.13,0-1.21,1.38-1.8,2.46-1.8,1.17,0,1.5.71,1.96,2ZM618.27,84.93c0,.88-.79,3.76-1.42,5.47-.67,1.75-1.13,2.17-2.05,2.17-.79,0-2.51-.46-2.51-1.92,0-.29.08-.63.75-2.67.29-.96.46-1.38.88-3.22.17-.63.42-1.71,1.67-1.71,2,0,2.67,1.04,2.67,1.88ZM636.02,102.85c.17-.04.42-.04.67-.04,1.84,0,2.13,1.88,2.13,2.96,0,1-.29,1.84-2,2.13l-1.96.33v9.61c0,1.25-.33,2.59-2.46,2.59s-2.92-.58-2.92-2.59v-8.56l-9.9,1.92c-1.84.38-2.76-1-2.76-2.67s.88-2.09,1.88-2.3l10.78-2.09v-20.88c0-1.21.33-2.55,2.46-2.55s2.92.54,2.92,2.55v19.79l1.17-.21ZM624.58,95.96c2.42,1.96,2.92,2.46,2.92,3.42,0,1.42-1.42,2.84-2.71,2.84-.71,0-.83-.08-2.76-1.8-.42-.42-2.51-2.09-2.88-2.46-.5-.5-.67-.88-.67-1.42,0-1.42,1.17-2.67,2.46-2.67,1.04,0,2.46,1.13,3.63,2.09ZM626.41,85.64c1.84,1.59,2.17,1.96,2.17,3.01,0,1.38-1.17,2.67-2.55,2.67-.79,0-.88-.04-2.8-1.84-.38-.38-2.3-2.05-2.67-2.38-.46-.42-.67-.92-.67-1.5,0-1.42,1.21-2.46,2.38-2.46s2.8,1.38,4.13,2.51Z"/></g></svg>