<?xml version="1.0" encoding="UTF-8"?><svg id="_レイヤー_2" xmlns="http://www.w3.org/2000/svg" viewBox="0 0 1070 142"><defs><style>.cls-1{fill:#d0327e;}.cls-1,.cls-2,.cls-3,.cls-4{stroke-width:0px;}.cls-2{fill:#1a1a1a;}.cls-3,.cls-5{fill:none;}.cls-4{fill:#fff;}.cls-5{stroke:#d9437e;stroke-dasharray:0 0 3.56 9.5;stroke-linejoin:round;stroke-width:5.94px;}</style></defs><g id="BACK"><rect class="cls-3" width="1070" height="142"/></g><g id="DESIGN"><path class="cls-2" d="M253.2,86.3c-2.58-2.35-4.14-4.28-4.46-4.74v16.88h-5.52v-16.88c-2.48,2.12-3.68,2.9-4.97,3.77l-2.02-6.26c2.16-1.2,8.79-4.88,11.73-12.15h-10.9v-5.38h6.17v-6.44h5.52v6.44h5.15v5.38c-1.33,3.27-2.76,5.89-4.92,8.56.23.28,3.5,3.63,7.36,6.03l-3.13,4.78ZM279.47,57.08c0,11.18-.09,23.97-.97,32.85-.78,7.87-3.36,8.51-8,8.51h-5.38l-1.24-5.89h4.88c2.67,0,3.31-.28,3.96-4.05.87-4.92.97-18.95.97-25.81h-5.98c.05,19.6-3.31,28.06-12.65,35.88l-4-4.97c9.25-8.05,10.72-15.6,10.9-30.92h-6.58v-5.61h24.11ZM259.23,72.77c-1.61,2.9-2.58,4.37-3.96,5.98l-3.82-2.62c2.02-2.48,3.41-5.2,3.77-5.93l4,2.58Z"/><path class="cls-2" d="M329.15,57.18v39.84h-39.75v-39.84h39.75ZM295.06,62.51v28.98h28.38v-28.98h-28.38ZM319.58,66.56v20.7h-20.75v-20.7h20.75ZM303.94,71.3v11.13h10.44v-11.13h-10.44Z"/><path class="cls-2" d="M354.03,56.85v38.83h-14.72v-38.83h14.72ZM349.11,62.28h-4.6v11.18h4.6v-11.18ZM349.11,78.43h-4.6v11.91h4.6v-11.91ZM377.31,93.61c0,2.99-1.2,4.74-4.42,4.74h-7.91l-1.01-5.61h6.44c.78,0,1.2-.37,1.2-1.15v-8.56h-15.92v-5.43h15.92v-3.82h-16.33v-5.38h10.26v-4.42h-8.79v-5.2h8.79v-3.73h5.66v3.73h9.06v5.2h-9.06v4.42h10.4v5.38h-4.28v3.82h3.91v5.43h-3.91v10.58ZM361.58,94.12c-1.84-3.31-2.81-4.79-5.52-8.05l4.74-2.71c2.3,2.44,3.91,4.32,5.8,7.73l-5.01,3.04Z"/><path class="cls-2" d="M390.88,70.38v-5.8h20.84v-7.32h6.12v7.32h10.44v5.8h-10.4v19.78c0,6.12-5.06,6.12-7.13,6.12-.97,0-1.47,0-6.26-.23l-.83-6.03c3.5.32,4.74.41,5.84.41,1.56,0,2.3-.32,2.3-1.75l-.05-12.51c-1.89,2.53-7.5,9.94-19,16.06l-3.68-4.78c11.69-5.61,19.28-15.09,20.84-17.07h-19.05Z"/><path class="cls-2" d="M447.37,83.03h-6.39v-24.61h6.39v24.61ZM469.63,76.96c0,16.06-13.48,18.31-24.29,19.28l-2.21-5.89c12.42-.78,20.06-2.81,20.06-12.93v-19.74h6.44v19.28Z"/><path class="cls-2" d="M504.82,87.13h16.01v5.98h-38.18v-5.98h15.83v-20.61h-13.53v-5.98h33.58v5.98h-13.71v20.61Z"/><path class="cls-2" d="M546.77,71.67c-2.02-1.38-6.76-4.42-14.26-6.85l2.81-5.29c3.36,1.01,8.51,2.71,14.77,6.49l-3.31,5.66ZM533.39,88.92c13.66-1.1,26.45-5.66,32.34-27.23l5.38,3.77c-5.47,16.98-14.95,27.79-36.34,30.13l-1.38-6.67Z"/><path class="cls-2" d="M582.24,91.17c12.33-2.02,14.58-6.49,15.04-15.32h-16.93v-5.7h37.72v5.7h-14.49c-.64,10.86-3.91,17.94-18.86,20.84l-2.48-5.52ZM614.44,58.65v5.71h-30.46v-5.71h30.46Z"/><path class="cls-2" d="M668.54,73.55v6.39h-39.47v-6.39h39.47Z"/><path class="cls-2" d="M692.68,79.35c-5.01-3.04-9.29-4.46-13.25-5.61l2.21-5.11c2.71.64,7.59,1.84,13.48,5.25l-2.44,5.47ZM682.06,89.1c16.98-1.61,24.98-6.99,30.55-25.4l5.24,3.87c-6.3,18.59-15.27,25.67-34.5,28.15l-1.29-6.62ZM696.69,68.4c-4.83-2.67-8.7-3.91-13.66-5.38l2.3-4.97c5.01,1.06,8.7,2.35,13.85,4.88l-2.48,5.47Z"/><path class="cls-2" d="M729.02,82.94v-5.06h19.97v-6.16h-20.56v-5.15h26.36v28.39h-26.77v-5.34h20.98v-6.67h-19.97Z"/><path class="cls-2" d="M781.51,71.67c-2.02-1.38-6.76-4.42-14.26-6.85l2.81-5.29c3.36,1.01,8.51,2.71,14.77,6.49l-3.31,5.66ZM768.12,88.92c13.66-1.1,26.45-5.66,32.34-27.23l5.38,3.77c-5.47,16.98-14.95,27.79-36.34,30.13l-1.38-6.67Z"/><circle class="cls-4" cx="898" cy="71.35" r="68.4"/><circle id="_グループ_" class="cls-5" cx="898.01" cy="70.59" r="60.03"/><path class="cls-1" d="M893.51,51.04c.71,0,2.38.08,2.38,2.1,0,1.23-.36,2.34-2.3,2.34h-1.27v4.79h2.38c.95,0,2.38.16,2.38,2.1,0,1.54-.51,2.38-2.38,2.38h-2.38v5.11h1.5c1.23,0,2.3.51,2.3,2.1s-.67,2.3-2.38,2.3h-30.96c-.67,0-2.42,0-2.42-2.18,0-1.98,1.35-2.22,2.42-2.22h2.85v-5.11h-3.76c-.63,0-2.42,0-2.42-2.1,0-1.54.55-2.38,2.42-2.38h3.84v-3.49c-.91.87-2.65,2.53-3.92,2.53-1.39,0-2.38-1.39-2.38-2.57,0-.95.16-1.07,2.69-3.05,1.78-1.38,2.97-2.89,4.32-4.63.55-.71,1.15-1.03,1.9-1.03,1.11,0,2.57.79,2.57,1.98,0,.47-.2.75-.36,1.03h22.97ZM867.97,76.97c0,1.46-1.94,4.91-2.1,5.19-1.46,2.53-2.02,3.13-3.29,3.13-1.39,0-2.85-.95-2.85-2.42,0-.67.04-.71,1.5-2.77.79-1.07,1.31-2.22,2.14-3.96.24-.47.63-1.23,1.94-1.23.75,0,2.65.36,2.65,2.06ZM873.36,55.47h-3.33v4.79h3.33v-4.79ZM873.36,64.74h-3.33v5.11h3.33v-5.11ZM876.01,77.01c.16,1.27.28,3.8.28,5.46,0,1.31,0,2.85-2.57,2.85-1.86,0-2.49-.83-2.49-2.26,0-.4.04-2.22.04-2.57,0-.51-.08-2.77-.08-3.25,0-.59.04-2.14,2.38-2.14,1.7,0,2.34.71,2.46,1.9ZM880.61,55.47h-3.37v4.79h3.37v-4.79ZM880.61,64.74h-3.37v5.11h3.37v-5.11ZM885.16,78.6c.36,1.11,1.11,3.41,1.11,4.44,0,1.82-2.22,2.06-2.93,2.06-1.94,0-2.1-.91-2.49-3.17-.16-.83-.55-2.49-.91-3.72-.12-.48-.28-.91-.28-1.35,0-1.31,1.35-1.82,2.61-1.82,1.7,0,1.86.47,2.89,3.56ZM887.89,55.47h-3.41v4.79h3.41v-4.79ZM887.89,64.74h-3.41v5.11h3.41v-5.11ZM894.03,77.13c1.9,2.97,2.89,4.63,2.89,5.58,0,1.82-2.18,2.42-3.05,2.42-1.35,0-1.62-.55-2.61-2.61-.4-.83-1.47-2.69-2.06-3.8-.36-.59-.67-1.19-.67-1.78,0-1.66,1.98-2.1,2.53-2.1,1.5,0,1.62.16,2.97,2.3Z"/><path class="cls-1" d="M906.03,73.53c-.28.59-.87,1.74-1.58,2.85-1.39,2.26-2.14,2.49-2.81,2.49-1.27,0-2.49-1.35-2.49-2.81,0-.87.16-1.03,2.06-3.33.44-.52,2.89-3.6,4.83-7.72h-4.2c-1.74,0-2.46-.75-2.46-2.38,0-2.1,1.9-2.1,2.46-2.1h4.2v-10.06c0-1.78.79-2.42,2.49-2.42,2.18,0,2.22,1.74,2.22,2.42v10.06h3.68c1.35,0,2.42.44,2.42,2.26,0,2.1-1.58,2.22-2.42,2.22h-3.68c.71,1.42,2.81,4.16,3.41,4.83,1.86,2.1,2.02,2.3,2.02,3.01,0,1.11-1.11,2.34-2.26,2.34-1.03,0-1.74-.95-3.17-3.48v11.6c0,1.74-.75,2.42-2.46,2.42-2.26,0-2.26-1.82-2.26-2.42v-9.78ZM903.69,52.07c.67,1.94,1.39,4.55,1.39,5.31,0,1.74-2.26,1.78-2.5,1.78-1.19,0-1.35-.67-1.74-2.34-.24-.99-.91-3.17-1.15-3.88-.12-.44-.2-.79-.2-1.07,0-1.15,1.31-1.7,2.34-1.7,1.11,0,1.42.67,1.86,1.9ZM917.35,51.99c0,.83-.75,3.56-1.35,5.19-.63,1.66-1.07,2.06-1.94,2.06-.75,0-2.38-.44-2.38-1.82,0-.28.08-.59.71-2.53.28-.91.44-1.31.83-3.05.16-.59.4-1.62,1.58-1.62,1.9,0,2.53.99,2.53,1.78ZM934.18,68.97c.16-.04.4-.04.63-.04,1.74,0,2.02,1.78,2.02,2.81,0,.95-.28,1.74-1.9,2.02l-1.86.32v9.11c0,1.19-.32,2.46-2.34,2.46s-2.77-.55-2.77-2.46v-8.12l-9.38,1.82c-1.74.36-2.61-.95-2.61-2.53s.83-1.98,1.78-2.18l10.22-1.98v-19.8c0-1.15.32-2.42,2.34-2.42s2.77.51,2.77,2.42v18.77l1.11-.2ZM923.33,62.44c2.3,1.86,2.77,2.34,2.77,3.25,0,1.35-1.35,2.69-2.57,2.69-.67,0-.79-.08-2.61-1.7-.4-.4-2.38-1.98-2.73-2.34-.48-.48-.63-.83-.63-1.35,0-1.35,1.11-2.53,2.34-2.53.99,0,2.34,1.07,3.45,1.98ZM925.08,52.66c1.74,1.5,2.06,1.86,2.06,2.85,0,1.31-1.11,2.53-2.42,2.53-.75,0-.83-.04-2.65-1.74-.36-.36-2.18-1.94-2.53-2.26-.44-.4-.63-.87-.63-1.43,0-1.35,1.15-2.34,2.26-2.34s2.65,1.31,3.92,2.38Z"/></g></svg>