<?xml version="1.0" encoding="UTF-8"?><svg id="_レイヤー_2" xmlns="http://www.w3.org/2000/svg" viewBox="0 0 1070 142"><defs><style>.cls-1{fill:#d0327e;}.cls-1,.cls-2,.cls-3,.cls-4,.cls-5{stroke-width:0px;}.cls-2{fill:#1a1a1a;}.cls-3,.cls-6{fill:none;}.cls-4{fill:#595757;}.cls-5{fill:#fff;}.cls-6{stroke:#d9437e;stroke-dasharray:0 0 3.56 9.5;stroke-linejoin:round;stroke-width:5.94px;}</style></defs><g id="BACK"><rect class="cls-3" width="1070" height="142"/></g><g id="DESIGN"><circle class="cls-5" cx="929" cy="73.35" r="68.4"/><circle id="_グループ_" class="cls-6" cx="929.01" cy="72.59" r="60.03"/><path class="cls-1" d="M924.51,53.04c.71,0,2.38.08,2.38,2.1,0,1.23-.36,2.34-2.3,2.34h-1.27v4.79h2.38c.95,0,2.38.16,2.38,2.1,0,1.54-.51,2.38-2.38,2.38h-2.38v5.11h1.5c1.23,0,2.3.52,2.3,2.1s-.67,2.3-2.38,2.3h-30.96c-.67,0-2.42,0-2.42-2.18,0-1.98,1.35-2.22,2.42-2.22h2.85v-5.11h-3.76c-.63,0-2.42,0-2.42-2.1,0-1.54.55-2.38,2.42-2.38h3.84v-3.48c-.91.87-2.65,2.53-3.92,2.53-1.39,0-2.38-1.39-2.38-2.57,0-.95.16-1.07,2.69-3.05,1.78-1.39,2.97-2.89,4.32-4.63.55-.71,1.15-1.03,1.9-1.03,1.11,0,2.57.79,2.57,1.98,0,.48-.2.75-.36,1.03h22.97ZM898.97,78.97c0,1.47-1.94,4.91-2.1,5.19-1.46,2.53-2.02,3.13-3.29,3.13-1.39,0-2.85-.95-2.85-2.42,0-.67.04-.71,1.5-2.77.79-1.07,1.31-2.22,2.14-3.96.24-.48.63-1.23,1.94-1.23.75,0,2.65.36,2.65,2.06ZM904.36,57.47h-3.33v4.79h3.33v-4.79ZM904.36,66.74h-3.33v5.11h3.33v-5.11ZM907.01,79.01c.16,1.27.28,3.8.28,5.46,0,1.31,0,2.85-2.57,2.85-1.86,0-2.49-.83-2.49-2.26,0-.4.04-2.22.04-2.57,0-.52-.08-2.77-.08-3.25,0-.59.04-2.14,2.38-2.14,1.7,0,2.34.71,2.46,1.9ZM911.61,57.47h-3.37v4.79h3.37v-4.79ZM911.61,66.74h-3.37v5.11h3.37v-5.11ZM916.16,80.6c.36,1.11,1.11,3.41,1.11,4.44,0,1.82-2.22,2.06-2.93,2.06-1.94,0-2.1-.91-2.49-3.17-.16-.83-.55-2.49-.91-3.72-.12-.48-.28-.91-.28-1.35,0-1.31,1.35-1.82,2.61-1.82,1.7,0,1.86.48,2.89,3.56ZM918.89,57.47h-3.41v4.79h3.41v-4.79ZM918.89,66.74h-3.41v5.11h3.41v-5.11ZM925.03,79.13c1.9,2.97,2.89,4.63,2.89,5.58,0,1.82-2.18,2.42-3.05,2.42-1.35,0-1.62-.55-2.61-2.61-.4-.83-1.47-2.69-2.06-3.8-.36-.59-.67-1.19-.67-1.78,0-1.66,1.98-2.1,2.53-2.1,1.5,0,1.62.16,2.97,2.3Z"/><path class="cls-1" d="M937.03,75.53c-.28.59-.87,1.74-1.58,2.85-1.39,2.26-2.14,2.49-2.81,2.49-1.27,0-2.49-1.35-2.49-2.81,0-.87.16-1.03,2.06-3.33.44-.51,2.89-3.6,4.83-7.72h-4.2c-1.74,0-2.46-.75-2.46-2.38,0-2.1,1.9-2.1,2.46-2.1h4.2v-10.06c0-1.78.79-2.42,2.49-2.42,2.18,0,2.22,1.74,2.22,2.42v10.06h3.68c1.35,0,2.42.44,2.42,2.26,0,2.1-1.58,2.22-2.42,2.22h-3.68c.71,1.43,2.81,4.16,3.41,4.83,1.86,2.1,2.02,2.3,2.02,3.01,0,1.11-1.11,2.34-2.26,2.34-1.03,0-1.74-.95-3.17-3.48v11.6c0,1.74-.75,2.42-2.46,2.42-2.26,0-2.26-1.82-2.26-2.42v-9.78ZM934.69,54.07c.67,1.94,1.39,4.55,1.39,5.31,0,1.74-2.26,1.78-2.5,1.78-1.19,0-1.35-.67-1.74-2.34-.24-.99-.91-3.17-1.15-3.88-.12-.44-.2-.79-.2-1.07,0-1.15,1.31-1.7,2.34-1.7,1.11,0,1.42.67,1.86,1.9ZM948.35,53.99c0,.83-.75,3.56-1.35,5.19-.63,1.66-1.07,2.06-1.94,2.06-.75,0-2.38-.44-2.38-1.82,0-.28.08-.59.71-2.53.28-.91.44-1.31.83-3.05.16-.59.4-1.62,1.58-1.62,1.9,0,2.53.99,2.53,1.78ZM965.18,70.97c.16-.04.4-.04.63-.04,1.74,0,2.02,1.78,2.02,2.81,0,.95-.28,1.74-1.9,2.02l-1.86.32v9.11c0,1.19-.32,2.46-2.34,2.46s-2.77-.55-2.77-2.46v-8.12l-9.38,1.82c-1.74.36-2.61-.95-2.61-2.53s.83-1.98,1.78-2.18l10.22-1.98v-19.8c0-1.15.32-2.42,2.34-2.42s2.77.51,2.77,2.42v18.77l1.11-.2ZM954.33,64.44c2.3,1.86,2.77,2.34,2.77,3.25,0,1.35-1.35,2.69-2.57,2.69-.67,0-.79-.08-2.61-1.7-.4-.4-2.38-1.98-2.73-2.34-.48-.48-.63-.83-.63-1.35,0-1.35,1.11-2.53,2.34-2.53.99,0,2.34,1.07,3.45,1.98ZM956.08,54.66c1.74,1.5,2.06,1.86,2.06,2.85,0,1.31-1.11,2.53-2.42,2.53-.75,0-.83-.04-2.65-1.74-.36-.36-2.18-1.94-2.53-2.26-.44-.4-.63-.87-.63-1.43,0-1.35,1.15-2.34,2.26-2.34s2.65,1.31,3.92,2.38Z"/><path class="cls-2" d="M274.34,58.47h-43.25v-4.78h18.63v-2.76h5.93v2.76h18.68v4.78ZM242.23,90.44v-11.32h21.21v9.98h2.48c.64,0,1.01-.23,1.01-1.1v-11h-28.29v17.39h-5.8v-21.71h39.84v17.62c0,2.58-1.43,4.09-3.4,4.09h-7.27l-.74-3.96h-19.05ZM268.5,70.66h-31.61v-10.49h31.61v10.49ZM262.8,63.9h-20.29v2.9h20.29v-2.9ZM258.06,83.03h-10.49v3.36h10.49v-3.36Z"/><path class="cls-2" d="M291.36,78.39c-1.43,5.47-3.31,10.86-6.44,15.5l-4.37-4.51c2.3-3.68,4.37-7.73,6.12-13.62l4.69,2.62ZM283.95,63.34c3.22,1.66,4.6,2.44,7.31,4.6l-3.31,4.55c-2.71-2.39-3.73-3.04-6.99-4.78l2.99-4.37ZM285.56,51.34c3.41,1.33,5.84,3.08,7.41,4.28l-3.45,4.74c-1.47-1.33-2.58-2.21-7.13-4.6l3.17-4.42ZM296.88,89.7c.6-.05,2.71-.18,3.5-.23v-7.36h-2.39c-.87,7.31-3.54,10.86-4.69,12.33l-4.6-3.31c3.04-4.19,4.32-7.82,4.32-16.33v-5.98h31.97v3.59h-26.73v6.16h26.82v3.54h-5.06l3.73,2.48c-.64.6-2.3,1.84-3.68,2.71,1.75.78,3.31,1.38,5.84,2.12l-2.53,4.97c-7.45-2.62-13.11-6.85-15.87-12.28h-2.21v6.99c4.65-.37,5.61-.55,7.08-.78l.05,4.19c-3.77.69-11.13,1.38-15.32,1.75l-.23-4.55ZM323.79,53.27v13.85h-30.04v-13.85h8.37v-2.3h4.55v2.3h4.19v-2.3h4.51v2.3h8.42ZM298.4,56.86v2.12h3.73v-2.12h-3.73ZM298.4,61.78v2.12h3.73v-2.12h-3.73ZM322.55,74.06v2.9h-22.63v-2.9h22.63ZM306.68,56.86v2.12h4.19v-2.12h-4.19ZM306.68,61.78v2.12h4.19v-2.12h-4.19ZM313.03,82.11c.83.97,1.66,1.84,3.36,3.13,2.07-1.75,2.48-2.07,3.5-3.13h-6.85ZM315.37,56.86v2.12h3.77v-2.12h-3.77ZM315.37,61.78v2.12h3.77v-2.12h-3.77Z"/><path class="cls-2" d="M335.24,54.14h16.38v-3.17h5.93v3.17h17.9v5.06h-6.62v2.9h6.85v4.42h-6.85v6.99h-22.31v-6.99h-5.66v8.46c0,3.86-.28,12.42-4.23,19.32l-4.83-4.28c2.58-4.69,3.45-9.89,3.45-15.32v-20.56ZM349.23,80.5h-7.27v-4.83h29.4v4.83c-.83,1.33-2.3,3.82-6.85,6.72,5.06,1.29,8.79,1.61,11.36,1.79l-2.25,5.47c-2.76-.32-8.56-1.06-15.5-3.91-7.13,2.94-14.08,3.63-16.47,3.86l-2.07-5.11c2.35-.18,6.39-.55,12.1-2.07-3.27-2.12-4.32-3.17-5.47-4.42l3.04-2.35ZM340.81,59.2v2.9h5.66v-2.9h-5.66ZM351.16,80.5c2.53,2.3,4.97,3.54,6.72,4.42,3.68-1.79,4.69-2.99,5.89-4.42h-12.61ZM351.9,59.2v2.9h11.55v-2.9h-11.55ZM351.9,66.52v2.9h11.55v-2.9h-11.55Z"/><path class="cls-2" d="M383.08,61.55h16.42v5.7c-1.01,6.39-4,16.7-14.03,23.05l-3.27-5.47c7.04-4.6,10.4-9.8,11.73-17.57h-10.86v-5.7ZM407.42,56.35c0,.28,0,.6.05.87.09.6,2.9,9.62,2.94,9.75,6.26-4.97,9.29-8.74,10.63-10.44l5.15,3.86c-3.86,4.46-8.33,8.1-13.11,11.5,2.02,3.17,5.57,8.23,13.71,13.25l-3.5,5.61c-7.08-4.78-13.29-11.64-15.87-19v17.53c0,4.32-2.3,5.01-4.55,5.01h-8.33l-1.2-5.84h6.95c.87,0,1.33-.41,1.33-1.24v-36.21h5.8v5.34Z"/><path class="cls-2" d="M465.84,71.95c-1.43,1.29-3.27,2.9-8.23,6.35,7.18-.18,7.96-.23,9.8-.32-1.1-1.52-1.52-1.98-2.3-2.9l4.37-2.76c3.91,3.91,6.62,8.23,7.54,9.71l-4.69,3.04c-.55-.87-1.1-1.75-1.89-2.9-1.61.09-9.84.55-12.42.69v11.73h-5.89v-11.5c-1.33.09-4.74.28-6.3.28-4,0-9.85.23-12.28.23l-.41-5.01c1.89.09,3.82.14,5.2.14,3.5,0,6.39-.09,8.83-.14-3.22-1.75-6.21-3.27-9.11-4.37l3.36-3.68c1.06.37,1.61.55,3.68,1.52,1.93-1.61,2.12-1.79,2.85-2.58h-14.58v-4.23h18.86v-2.07h-15.23v-3.54h15.23v-2.02h-17.3v-4.23h17.3v-2.39h5.8v2.39h17.57v4.23h-17.57v2.02h15.27v3.54h-15.27v2.07h18.86v4.23h-15.32l4.28,2.48ZM447.85,86.94c-1.79,2.02-6.03,5.11-11.22,7.18l-3.27-4.74c4.97-1.79,7.96-3.54,10.58-5.84l3.91,3.4ZM454.98,69.46c-1.47,1.33-3.73,3.22-5.61,4.78,2.25,1.2,3.04,1.7,3.59,2.02,2.39-1.84,5.47-4.23,8.14-6.81h-6.12ZM473.2,94.4c-4.05-1.84-8.24-4.6-11.13-7.5l3.68-3.59c3.5,3.08,7.87,5.2,10.9,6.35l-3.45,4.74Z"/><path class="cls-2" d="M484.28,61.55h16.42v5.7c-1.01,6.39-4,16.7-14.03,23.05l-3.27-5.47c7.04-4.6,10.4-9.8,11.73-17.57h-10.86v-5.7ZM508.62,56.35c0,.28,0,.6.05.87.09.6,2.9,9.62,2.94,9.75,6.26-4.97,9.29-8.74,10.63-10.44l5.15,3.86c-3.86,4.46-8.33,8.1-13.11,11.5,2.02,3.17,5.57,8.23,13.71,13.25l-3.5,5.61c-7.08-4.78-13.29-11.64-15.87-19v17.53c0,4.32-2.3,5.01-4.55,5.01h-8.33l-1.2-5.84h6.95c.87,0,1.33-.41,1.33-1.24v-36.21h5.8v5.34Z"/><path class="cls-2" d="M576.33,61.27v5.8h-7.36v4.65c0,15.64-12.01,19.32-21.99,20.75l-2.3-5.75c14.58-1.43,18.08-7.5,18.08-15.04v-4.6h-13.25v11.32h-6.17v-11.32h-7.08v-5.8h7.08v-7.96h6.17v7.96h13.25v-8.1h6.21v8.1h7.36Z"/><path class="cls-2" d="M626.66,69.55v6.39h-39.47v-6.39h39.47Z"/><path class="cls-2" d="M653.33,55.94c-1.66,15.14-5.66,26.36-11.22,35.52l-6.12-3.13c2.62-4.09,8.83-14.03,11-33.26l6.35.87ZM669.71,90.58c-2.48-13.76-5.89-23.51-10.67-33.31l5.7-2.53c4.28,8.05,9.29,20.24,11.64,34.14l-6.67,1.7ZM670.31,51.98c2.02,3.08,3.22,5.84,4.32,8.83l-3.36,1.79c-1.29-3.82-2.16-5.75-4.14-9.02l3.17-1.61ZM676.2,49.5c1.89,2.81,2.85,4.97,4.37,8.83l-3.36,1.79c-1.2-3.68-2.16-5.75-4.14-8.97l3.13-1.66Z"/><path class="cls-2" d="M727.63,69.55v6.39h-39.47v-6.39h39.47Z"/><path class="cls-2" d="M736.91,71.44h43.15v5.52h-13.02v10.72c0,1.01.6,1.01,1.2,1.01h5.06c1.1,0,1.38-.09,1.43-6.99l5.47,1.66c-.18,8.1-.69,10.67-4.6,10.67h-10.3c-.78,0-4.05,0-4.05-3.36v-13.71h-6.35c-.92,13.62-11.18,16.7-15.87,17.85l-2.81-5.75c11.04-2.12,12.79-7.54,13.02-12.1h-12.33v-5.52ZM755.5,50.97h5.93v3.5h17.48v12.38h-5.8v-7.04h-29.3v7.04h-5.75v-12.38h17.44v-3.5ZM744.55,62.93h27.83v5.29h-27.83v-5.29Z"/><path class="cls-2" d="M795.98,90.03v4.32h-5.38v-20.66c-.92,1.29-1.29,1.7-2.21,2.67l-1.89-7.91c5.11-6.26,6.21-15.14,6.53-17.48l5.34.41c-.23,2.02-.6,5.8-2.39,11.18v26.96c3.17-4.88,3.22-10.07,3.22-12.42v-11.23h-1.52v-4.51h7.82v-3.04h-6.58v-4.6h6.58v-2.71h5.47v2.71h6.81v-2.71h5.43v2.71h6.62v4.6h-6.62v3.04h7.64v4.51h-26.54v10.95c0,6.35-1.06,12.42-4.55,17.39l-3.77-4.19ZM829.33,68.17v22.45c0,2.3-.32,3.73-3.91,3.73h-4.23l-.83-4.69h2.44c1.29,0,1.52-.14,1.52-1.47v-2.62h-4.65v8.51h-4.6v-8.51h-4.65v8.79h-4.65v-26.18h23.55ZM810.42,72.32v2.76h4.65v-2.76h-4.65ZM810.42,78.89v2.85h4.65v-2.85h-4.65ZM810.98,58.33v3.04h6.81v-3.04h-6.81ZM819.67,72.32v2.76h4.65v-2.76h-4.65ZM819.67,78.89v2.85h4.65v-2.85h-4.65Z"/><path class="cls-4" d="M188.08,38.53h-2.27s0-.01,0-.02c.03-2.75-1.89-5.02-4.56-5.4-.96-.14-1.91-.28-2.87-.43-.69-.11-1.39-.22-2.08-.32-.22-.03-.44-.06-.68-.09,0-.77,0-1.54,0-2.3,0-1.67-1-3.02-2.53-3.44-.33-.09-.69-.14-1.09-.14-1.03,0-2.06,0-3.09,0h-.21c-1.03,0-2.06,0-3.09,0-.4,0-.76.05-1.1.14-1.52.42-2.51,1.77-2.52,3.44,0,.77,0,1.54,0,2.3-.23.03-.46.06-.68.09-.69.1-1.39.21-2.08.32-.96.15-1.91.3-2.87.43-2.67.38-4.59,2.65-4.56,5.4.02,2.32.02,4.68.01,6.96,0,1.34,0,2.67,0,4.01,0,1.64.67,3.04,1.93,4.05.48.38,1,.63,1.44.83,0,.04,0,.04,0,.03-.21.56-.46,1.09-.74,1.58-.36.62-.74,1.24-1.12,1.85-.51.83-1.04,1.7-1.54,2.58-1.11,1.99-1.68,4.1-1.68,6.25,0,11.1,0,32.56,0,43.66,0,.75.07,1.48.22,2.17,1.07,5,5.15,8.37,10.15,8.37h8.43s8.22,0,8.22,0c5,0,9.08-3.36,10.15-8.37.15-.68.22-1.41.22-2.17.01-11.1,0-32.56,0-43.66,0-2.15-.57-4.26-1.68-6.25-.5-.89-1.03-1.75-1.54-2.59-.38-.61-.75-1.22-1.12-1.85-.29-.49-.53-1.02-.73-1.54,0,0,0-.03,0-.07.44-.2.96-.44,1.44-.83.72-.58,1.24-1.29,1.56-2.1h2.65c3.5,0,6.35-2.9,6.35-6.46s-2.85-6.46-6.35-6.46ZM155.29,45.48c0-.72,0-1.45,0-2.19h27.03c0,.75,0,1.5,0,2.23,0,.17,0,.34,0,.51h-27.04c0-.18,0-.37,0-.55ZM165.48,29.87s.07,0,.14,0c1.03,0,2.06,0,3.08,0h.21c1.03,0,2.06,0,3.08,0,.07,0,.11,0,.14,0,0,.03.01.06.01.11,0,.76,0,1.51,0,2.27h-6.68c0-.76,0-1.51,0-2.27,0-.05,0-.09.01-.11ZM156.85,36.55c.97-.14,1.94-.29,2.91-.44.69-.11,1.37-.21,2.06-.32.26-.04.54-.08.84-.11v.04h12.45v-.02c.24.03.46.06.68.09.69.1,1.38.21,2.06.32.97.15,1.94.3,2.91.44,1.1.16,1.59,1.11,1.58,1.93,0,.44,0,.89,0,1.34h-27.05c0-.45,0-.89,0-1.34,0-.82.48-1.77,1.58-1.93ZM182.8,62.11c.82,1.47,1.24,3,1.24,4.56,0,11.09,0,32.56,0,43.65,0,.51-.05,1-.14,1.44-.72,3.36-3.43,5.62-6.75,5.62h-8.22s-8.43,0-8.43,0c-3.32,0-6.04-2.26-6.75-5.62-.1-.45-.14-.93-.14-1.44-.01-11.09-.01-32.56,0-43.65,0-1.55.42-3.09,1.24-4.56.46-.82.95-1.61,1.47-2.46.39-.64.78-1.27,1.16-1.92.39-.66.72-1.38,1-2.13.25-.68.22-1.37.19-1.83-.06-.65-.38-1.84-1.93-2.53-.3-.14-.62-.28-.79-.41-.42-.33-.61-.75-.62-1.31h27.03c0,.57-.2.98-.62,1.31-.17.14-.49.28-.79.41-1.54.69-1.87,1.88-1.93,2.53-.04.46-.06,1.16.19,1.83.28.75.61,1.46,1,2.13.38.65.77,1.28,1.16,1.92.52.84,1.01,1.64,1.47,2.46ZM188.08,47.97h-2.28c0-.81,0-1.63,0-2.44,0-1.16,0-2.33,0-3.52h2.28c1.59,0,2.87,1.34,2.87,2.98s-1.29,2.98-2.87,2.98Z"/></g></svg>