<?xml version="1.0" encoding="UTF-8"?><svg id="_レイヤー_2" xmlns="http://www.w3.org/2000/svg" viewBox="0 0 750 227"><defs><style>.cls-1{fill:#90d7f5;}.cls-1,.cls-2,.cls-3{stroke-width:0px;}.cls-2{fill:#474747;}.cls-3{fill:#1a1a1a;}</style></defs><g id="DESIGN"><polygon class="cls-1" points="750 197.06 420.08 197.06 376.38 227 330.25 197.06 0 197.06 0 0 750 0 750 197.06"/><path class="cls-3" d="M225.9,66.52v-4.79h17.21v-6.04h5.05v6.04h8.62v4.79h-8.59v16.34c0,5.05-4.18,5.05-5.89,5.05-.8,0-1.22,0-5.17-.19l-.68-4.98c2.89.27,3.91.34,4.83.34,1.29,0,1.9-.27,1.9-1.44l-.04-10.33c-1.56,2.09-6.19,8.21-15.69,13.26l-3.04-3.95c9.65-4.64,15.92-12.46,17.21-14.1h-15.73Z"/><path class="cls-3" d="M296.61,69.14v5.28h-32.6v-5.28h32.6Z"/><path class="cls-3" d="M304.82,83.89c8.4-1.71,12.88-5.78,15.2-7.98-3.57-2.77-5.62-4.18-9.99-6.42-1.03.99-2.2,2.09-4.37,3.46l-3.31-3.88c4.94-2.96,7.83-6.73,9.8-11.13h15.08l4.6,5.77c-1.03,4.29-4.79,20.02-24.47,24.77l-2.55-4.6ZM315.54,62.57c-.8,1.25-1.33,1.98-2.58,3.65,4.29,1.94,7.9,4.29,10.11,6,2.39-3.61,3.5-8.05,3.91-9.65h-11.44ZM330.05,54.21c1.86,2.13,2.93,3.84,4.56,6.73l-2.51,1.86c-1.41-2.81-2.32-4.37-4.41-6.88l2.36-1.71ZM334.92,52.58c1.94,2.2,2.81,3.69,4.52,6.76l-2.51,1.82c-1.41-2.89-2.47-4.56-4.37-6.92l2.36-1.67Z"/><path class="cls-3" d="M376.41,69.14v5.28h-32.6v-5.28h32.6Z"/><path class="cls-3" d="M390.32,61.39c3.61,1.79,7.26,4.07,10.49,6.38,1.75-2.96,3.72-6.95,5.28-11.97l5.32,1.63c-1.37,3.57-3.15,8.13-6.54,13.41.72.53,3.61,2.85,7.98,7.18l-4.1,4.37c-1.06-1.22-3.27-3.76-7.11-7.1-2.7,3.42-7.83,8.51-16.53,12.5l-3.15-4.1c3.38-1.48,10.3-4.48,15.84-11.55-4.22-3.15-6.57-4.71-10.64-6.95l3.15-3.8Z"/><path class="cls-3" d="M440.17,87.91h-5.4v-16.07c-6.12,3.8-11.13,5.51-13.26,6.19l-2.51-4.48c16.15-5.05,24.81-15.54,27.13-18.39l4.56,3.15c-1.48,1.63-5.09,5.7-10.52,9.8v19.8Z"/><path class="cls-3" d="M481.21,77.88c-5.93-3.84-9.31-5.58-15.27-7.9v18.05h-5.47v-32.45h5.47v9.16c8.05,2.7,12.58,4.79,17.97,7.86l-2.7,5.28ZM475.52,56.68c1.82,2.32,3.04,4.9,4.07,7.22l-3.15,1.75c-1.14-2.96-2.13-4.83-3.88-7.37l2.96-1.6ZM480.91,54.14c1.63,2.09,2.74,4.14,4.14,7.18l-3.12,1.71c-1.29-3.15-2.13-4.67-3.99-7.33l2.96-1.56Z"/><path class="cls-3" d="M258.65,117.31v4.79h-6.08v3.84c0,12.92-9.92,15.96-18.16,17.14l-1.9-4.75c12.04-1.18,14.93-6.19,14.93-12.42v-3.8h-10.94v9.35h-5.09v-9.35h-5.85v-4.79h5.85v-6.57h5.09v6.57h10.94v-6.69h5.13v6.69h6.08Z"/><path class="cls-3" d="M288.06,113.24l5.51,6.42c-1.03,5.21-2.28,9.84-6.19,14.32-3.15,3.61-8.78,7.45-16.57,8.81l-2.32-4.75c15.81-2.77,18.66-11.66,19.87-19.83h-22.53v-4.98h22.23ZM300.71,112.78c0,2.89-2.32,5.21-5.21,5.21s-5.21-2.32-5.21-5.21,2.36-5.21,5.21-5.21,5.21,2.28,5.21,5.21ZM292.81,112.78c0,1.52,1.22,2.7,2.7,2.7s2.7-1.14,2.7-2.7-1.25-2.7-2.7-2.7-2.7,1.14-2.7,2.7Z"/><path class="cls-3" d="M311.74,131.97h-5.28v-20.33h5.28v20.33ZM330.13,126.96c0,13.26-11.13,15.12-20.06,15.92l-1.82-4.86c10.26-.65,16.57-2.32,16.57-10.68v-16.3h5.32v15.92Z"/><path class="cls-3" d="M345.41,116.39c3.61,1.79,7.26,4.07,10.49,6.38,1.75-2.96,3.72-6.95,5.28-11.97l5.32,1.63c-1.37,3.57-3.15,8.13-6.54,13.41.72.53,3.61,2.85,7.98,7.18l-4.1,4.37c-1.06-1.22-3.27-3.76-7.11-7.1-2.7,3.42-7.83,8.51-16.53,12.5l-3.15-4.1c3.38-1.48,10.3-4.48,15.84-11.55-4.22-3.15-6.57-4.71-10.64-6.95l3.15-3.8Z"/><path class="cls-3" d="M387.36,122.59c-1.67-1.14-5.58-3.65-11.78-5.66l2.32-4.37c2.77.84,7.03,2.24,12.2,5.36l-2.74,4.67ZM376.3,136.83c11.28-.91,21.85-4.67,26.71-22.49l4.45,3.12c-4.52,14.02-12.35,22.95-30.02,24.89l-1.14-5.51Z"/><path class="cls-3" d="M436.53,132.81c-5.47-3.53-9.2-5.51-15.31-7.9v18.05h-5.47v-32.45h5.47v9.12c8.55,2.7,14.63,6.08,17.97,7.9l-2.66,5.28Z"/><path class="cls-3" d="M477.87,117.31v4.79h-6.08v3.84c0,12.92-9.92,15.96-18.16,17.14l-1.9-4.75c12.04-1.18,14.93-6.19,14.93-12.42v-3.8h-10.94v9.35h-5.09v-9.35h-5.85v-4.79h5.85v-6.57h5.09v6.57h10.94v-6.69h5.13v6.69h6.08Z"/><path class="cls-3" d="M517.54,124.14v5.28h-32.6v-5.28h32.6Z"/><path class="cls-3" d="M537.69,112.9c-1.37,12.5-4.67,21.77-9.27,29.33l-5.05-2.58c2.17-3.38,7.29-11.59,9.08-27.47l5.24.72ZM551.21,141.51c-2.05-11.36-4.86-19.42-8.81-27.51l4.71-2.09c3.53,6.65,7.67,16.72,9.61,28.19l-5.51,1.41ZM551.71,109.63c1.67,2.55,2.66,4.83,3.57,7.29l-2.77,1.48c-1.06-3.15-1.79-4.75-3.42-7.45l2.62-1.33ZM556.57,107.58c1.56,2.32,2.36,4.1,3.61,7.29l-2.77,1.48c-.99-3.04-1.79-4.75-3.42-7.41l2.58-1.37Z"/><path class="cls-3" d="M597.15,124.14v5.28h-32.6v-5.28h32.6Z"/><path class="cls-2" d="M184.19,147.88h-35.45c-.77,0-1.43-.57-1.54-1.34l-9.77-69.85c-.12-.85.47-1.63,1.32-1.75.85-.12,1.63.47,1.75,1.32l9.58,68.51h32.75l9.58-68.51c.12-.85.9-1.44,1.75-1.32.85.12,1.44.9,1.32,1.75l-9.77,69.85c-.11.77-.76,1.34-1.54,1.34Z"/><path class="cls-2" d="M189.63,68.39h-46.33c-.86,0-1.55-.69-1.55-1.55v-3.06c0-3.96,3.22-7.19,7.19-7.19h35.07c3.96,0,7.19,3.22,7.19,7.19v3.06c0,.86-.7,1.55-1.55,1.55ZM144.85,65.29h43.23v-1.51c0-2.25-1.83-4.08-4.08-4.08h-35.07c-2.25,0-4.08,1.83-4.08,4.08v1.51Z"/><path class="cls-2" d="M170.3,59.7h-7.68c-.86,0-1.55-.69-1.55-1.55v-8.7c0-.86.7-1.55,1.55-1.55h7.68c.86,0,1.55.69,1.55,1.55v8.7c0,.86-.7,1.55-1.55,1.55ZM164.17,56.59h4.58v-5.59h-4.58v5.59Z"/><path class="cls-2" d="M189.63,65.63c-.86,0-1.55-.69-1.55-1.55v-7.85c0-2.88-2.35-5.23-5.23-5.23h-25.86c-.86,0-1.55-.69-1.55-1.55s.7-1.55,1.55-1.55h25.86c4.6,0,8.34,3.74,8.34,8.34v7.85c0,.86-.7,1.55-1.55,1.55Z"/><path class="cls-2" d="M198.3,78.03h-63.68c-.86,0-1.55-.7-1.55-1.55v-9.63c0-.86.7-1.55,1.55-1.55h63.68c.86,0,1.55.69,1.55,1.55v9.63c0,.86-.7,1.55-1.55,1.55ZM136.17,74.92h60.58v-6.53h-60.58v6.53Z"/><path class="cls-2" d="M142.13,78.03c-.86,0-1.55-.7-1.55-1.55v-9.63c0-.86.7-1.55,1.55-1.55s1.55.69,1.55,1.55v9.63c0,.86-.7,1.55-1.55,1.55Z"/><path class="cls-2" d="M150.19,78.03c-.86,0-1.55-.7-1.55-1.55v-9.63c0-.86.7-1.55,1.55-1.55s1.55.69,1.55,1.55v9.63c0,.86-.7,1.55-1.55,1.55Z"/><path class="cls-2" d="M158.25,78.03c-.86,0-1.55-.7-1.55-1.55v-9.63c0-.86.7-1.55,1.55-1.55s1.55.69,1.55,1.55v9.63c0,.86-.7,1.55-1.55,1.55Z"/><path class="cls-2" d="M166.31,78.03c-.86,0-1.55-.7-1.55-1.55v-9.63c0-.86.7-1.55,1.55-1.55s1.55.69,1.55,1.55v9.63c0,.86-.7,1.55-1.55,1.55Z"/><path class="cls-2" d="M174.37,78.03c-.86,0-1.55-.7-1.55-1.55v-9.63c0-.86.7-1.55,1.55-1.55s1.55.69,1.55,1.55v9.63c0,.86-.7,1.55-1.55,1.55Z"/><path class="cls-2" d="M182.44,78.03c-.86,0-1.55-.7-1.55-1.55v-9.63c0-.86.7-1.55,1.55-1.55s1.55.69,1.55,1.55v9.63c0,.86-.7,1.55-1.55,1.55Z"/><path class="cls-2" d="M190.5,78.03c-.86,0-1.55-.7-1.55-1.55v-9.63c0-.86.7-1.55,1.55-1.55s1.55.69,1.55,1.55v9.63c0,.86-.7,1.55-1.55,1.55Z"/><path class="cls-2" d="M186.11,86.96h-3.45c-.86,0-1.55-.69-1.55-1.55s.7-1.55,1.55-1.55h3.45c.86,0,1.55.69,1.55,1.55s-.7,1.55-1.55,1.55Z"/><path class="cls-2" d="M184.66,97.47h-3.45c-.86,0-1.55-.69-1.55-1.55s.7-1.55,1.55-1.55h3.45c.86,0,1.55.7,1.55,1.55s-.7,1.55-1.55,1.55Z"/><path class="cls-2" d="M183.21,107.97h-3.45c-.86,0-1.55-.69-1.55-1.55s.7-1.55,1.55-1.55h3.45c.86,0,1.55.7,1.55,1.55s-.7,1.55-1.55,1.55Z"/><path class="cls-2" d="M181.97,118.48h-3.45c-.86,0-1.55-.69-1.55-1.55s.7-1.55,1.55-1.55h3.45c.86,0,1.55.69,1.55,1.55s-.7,1.55-1.55,1.55Z"/><path class="cls-2" d="M180.31,128.98h-3.45c-.86,0-1.55-.69-1.55-1.55s.7-1.55,1.55-1.55h3.45c.86,0,1.55.69,1.55,1.55s-.7,1.55-1.55,1.55Z"/><path class="cls-2" d="M178.86,139.49h-3.45c-.86,0-1.55-.69-1.55-1.55s.7-1.55,1.55-1.55h3.45c.86,0,1.55.69,1.55,1.55s-.7,1.55-1.55,1.55Z"/></g></svg>