<?xml version="1.0" encoding="UTF-8"?><svg id="_レイヤー_2" xmlns="http://www.w3.org/2000/svg" viewBox="0 0 1070 142"><defs><style>.cls-1{fill:#d0327e;}.cls-1,.cls-2,.cls-3,.cls-4{stroke-width:0px;}.cls-2{fill:#1a1a1a;}.cls-3,.cls-5{fill:none;}.cls-4{fill:#fff;}.cls-5{stroke:#d9437e;stroke-dasharray:0 0 3.56 9.5;stroke-linejoin:round;stroke-width:5.94px;}</style></defs><g id="BACK"><rect class="cls-3" width="1070" height="142"/></g><g id="DESIGN"><path class="cls-2" d="M113.77,73.11c1.56,1.1,4,2.85,7.87,6.21,6.3-4.28,9.66-7.96,12.51-12.84h-30.41v-5.89h39.47c-1.1,4.46-3.77,13.39-17.3,22.68,3.22,3.22,4.78,4.92,7.13,7.78l-5.38,4.42c-6.72-9.38-15.41-15.92-18.54-18.26l4.65-4.09Z"/><path class="cls-2" d="M166.86,79c-5.01-3.04-9.29-4.46-13.25-5.61l2.21-5.11c2.71.64,7.59,1.84,13.48,5.25l-2.44,5.47ZM156.23,88.75c16.98-1.61,24.98-6.99,30.55-25.4l5.24,3.87c-6.3,18.59-15.27,25.67-34.5,28.15l-1.29-6.62ZM170.86,68.05c-4.83-2.67-8.7-3.91-13.66-5.38l2.3-4.97c5.01,1.06,8.7,2.35,13.85,4.88l-2.48,5.47Z"/><path class="cls-2" d="M216.49,71.32c-2.02-1.38-6.76-4.42-14.26-6.85l2.81-5.29c3.36,1.01,8.51,2.71,14.77,6.49l-3.31,5.66ZM203.1,88.57c13.66-1.1,26.45-5.66,32.34-27.23l5.38,3.77c-5.47,16.98-14.95,27.79-36.34,30.13l-1.38-6.67Z"/><path class="cls-2" d="M266.26,62.67v4.65h-17.99v-4.65h17.99ZM264.7,56.13v4.46h-15.09v-4.46h15.09ZM264.7,69.43v4.55h-15.09v-4.55h15.09ZM264.7,76.15v4.55h-15.09v-4.55h15.09ZM264.7,83.05v14.26h-15.09v-14.26h15.09ZM260.01,87.33h-5.34v5.52h5.34v-5.52ZM284.71,56.13v9.34c0,.41,0,.96.87.96h.78c.78,0,.87-.69.92-1.1.18-1.43.32-3.4.32-4.88l4.69,1.15c-.28,6.67-.69,10.26-4.74,10.26h-4.65c-3.04,0-3.4-2.07-3.4-3.04v-7.41h-4.97c-.51,6.21-2.3,9.11-5.34,11.73l-4.23-4.05c3.22-2.07,4.46-5.89,4.46-10.81,0-.92-.05-1.52-.09-2.16h15.37ZM290,98.09c-2.35-.64-6.62-1.89-11.64-5.01-.64.51-4.6,3.45-10.81,4.97l-2.53-5.47c4-.69,6.35-1.7,8.7-2.99-3.22-2.99-4.51-4.92-5.66-7.13l4.42-2.21c.87,1.56,2.07,3.68,5.57,6.35,2.71-2.39,4.05-4.28,5.24-6.81h-16.61v-5.38h22.54v5.38c-1.1,2.44-2.71,5.66-6.53,9.62,4.46,2.02,7.77,2.71,9.71,3.13l-2.39,5.57Z"/><path class="cls-2" d="M317.69,73.16h-10.49v-5.34h26.82v5.34h-10.54v5.66h13.75v5.34h-13.75v7.31c.83.05,1.1.05,1.93.05h17.3l-1.2,5.52h-16.1c-8,0-12.83-2.44-16.79-7.45-2.12,4.05-3.82,6.12-6.49,8.42l-3.73-4.88c2.48-2.12,6.95-6.58,8.7-17.76l5.61.78c-.64,3.63-1.24,5.75-1.98,8.19,1.56,2.25,3.5,4.69,6.95,5.94v-17.12ZM323.49,54.66v3.68h17.67v11.27h-5.66v-6.03h-29.77v6.03h-5.7v-11.27h17.57v-3.68h5.89Z"/><path class="cls-2" d="M363.18,59.91h4.92v13.2h13.2v4.92h-13.2v13.16h-4.92v-13.16h-13.16v-4.92h13.16v-13.2Z"/><path class="cls-2" d="M391.1,70.03v-5.8h20.84v-7.32h6.12v7.32h10.44v5.8h-10.4v19.78c0,6.12-5.06,6.12-7.13,6.12-.97,0-1.47,0-6.26-.23l-.83-6.03c3.5.32,4.74.41,5.84.41,1.56,0,2.3-.32,2.3-1.75l-.05-12.51c-1.89,2.53-7.5,9.94-19,16.06l-3.68-4.78c11.69-5.61,19.28-15.09,20.84-17.07h-19.05Z"/><path class="cls-2" d="M447.59,82.68h-6.39v-24.61h6.39v24.61ZM469.86,76.61c0,16.06-13.48,18.31-24.29,19.28l-2.21-5.89c12.42-.78,20.06-2.81,20.06-12.93v-19.74h6.44v19.28Z"/><path class="cls-2" d="M505.05,86.77h16.01v5.98h-38.18v-5.98h15.83v-20.61h-13.53v-5.98h33.58v5.98h-13.71v20.61Z"/><path class="cls-2" d="M547,71.32c-2.02-1.38-6.76-4.42-14.26-6.85l2.81-5.29c3.36,1.01,8.51,2.71,14.77,6.49l-3.31,5.66ZM533.61,88.57c13.66-1.1,26.45-5.66,32.34-27.23l5.38,3.77c-5.47,16.98-14.95,27.79-36.34,30.13l-1.38-6.67Z"/><path class="cls-2" d="M582.47,90.82c12.33-2.02,14.58-6.49,15.04-15.32h-16.93v-5.7h37.72v5.7h-14.49c-.64,10.86-3.91,17.94-18.86,20.84l-2.48-5.52ZM614.67,58.3v5.71h-30.46v-5.71h30.46Z"/><path class="cls-2" d="M668.77,73.2v6.39h-39.47v-6.39h39.47Z"/><path class="cls-2" d="M692.91,79c-5.01-3.04-9.29-4.46-13.25-5.61l2.21-5.11c2.71.64,7.59,1.84,13.48,5.25l-2.44,5.47ZM682.29,88.75c16.98-1.61,24.98-6.99,30.55-25.4l5.24,3.87c-6.3,18.59-15.27,25.67-34.5,28.15l-1.29-6.62ZM696.92,68.05c-4.83-2.67-8.7-3.91-13.66-5.38l2.3-4.97c5.01,1.06,8.7,2.35,13.85,4.88l-2.48,5.47Z"/><path class="cls-2" d="M729.25,82.59v-5.06h19.97v-6.16h-20.56v-5.15h26.36v28.39h-26.77v-5.34h20.98v-6.67h-19.97Z"/><path class="cls-2" d="M781.74,71.32c-2.02-1.38-6.76-4.42-14.26-6.85l2.81-5.29c3.36,1.01,8.51,2.71,14.77,6.49l-3.31,5.66ZM768.35,88.57c13.66-1.1,26.45-5.66,32.34-27.23l5.38,3.77c-5.47,16.98-14.95,27.79-36.34,30.13l-1.38-6.67Z"/><circle class="cls-4" cx="900.94" cy="71" r="68.4"/><circle id="_グループ_" class="cls-5" cx="900.95" cy="70.24" r="60.03"/><path class="cls-1" d="M896.46,50.68c.71,0,2.38.08,2.38,2.1,0,1.23-.36,2.34-2.3,2.34h-1.27v4.79h2.38c.95,0,2.38.16,2.38,2.1,0,1.54-.51,2.38-2.38,2.38h-2.38v5.11h1.5c1.23,0,2.3.51,2.3,2.1s-.67,2.3-2.38,2.3h-30.96c-.67,0-2.42,0-2.42-2.18,0-1.98,1.35-2.22,2.42-2.22h2.85v-5.11h-3.76c-.63,0-2.42,0-2.42-2.1,0-1.54.55-2.38,2.42-2.38h3.84v-3.49c-.91.87-2.65,2.53-3.92,2.53-1.39,0-2.38-1.39-2.38-2.57,0-.95.16-1.07,2.69-3.05,1.78-1.38,2.97-2.89,4.32-4.63.55-.71,1.15-1.03,1.9-1.03,1.11,0,2.57.79,2.57,1.98,0,.47-.2.75-.36,1.03h22.97ZM870.92,76.62c0,1.46-1.94,4.91-2.1,5.19-1.46,2.53-2.02,3.13-3.29,3.13-1.39,0-2.85-.95-2.85-2.42,0-.67.04-.71,1.5-2.77.79-1.07,1.31-2.22,2.14-3.96.24-.47.63-1.23,1.94-1.23.75,0,2.65.36,2.65,2.06ZM876.3,55.12h-3.33v4.79h3.33v-4.79ZM876.3,64.39h-3.33v5.11h3.33v-5.11ZM878.95,76.66c.16,1.27.28,3.8.28,5.46,0,1.31,0,2.85-2.57,2.85-1.86,0-2.49-.83-2.49-2.26,0-.4.04-2.22.04-2.57,0-.51-.08-2.77-.08-3.25,0-.59.04-2.14,2.38-2.14,1.7,0,2.34.71,2.46,1.9ZM883.55,55.12h-3.37v4.79h3.37v-4.79ZM883.55,64.39h-3.37v5.11h3.37v-5.11ZM888.1,78.24c.36,1.11,1.11,3.41,1.11,4.44,0,1.82-2.22,2.06-2.93,2.06-1.94,0-2.1-.91-2.49-3.17-.16-.83-.55-2.49-.91-3.72-.12-.48-.28-.91-.28-1.35,0-1.31,1.35-1.82,2.61-1.82,1.7,0,1.86.47,2.89,3.56ZM890.83,55.12h-3.41v4.79h3.41v-4.79ZM890.83,64.39h-3.41v5.11h3.41v-5.11ZM896.97,76.78c1.9,2.97,2.89,4.63,2.89,5.58,0,1.82-2.18,2.42-3.05,2.42-1.35,0-1.62-.55-2.61-2.61-.4-.83-1.47-2.69-2.06-3.8-.36-.59-.67-1.19-.67-1.78,0-1.66,1.98-2.1,2.53-2.1,1.5,0,1.62.16,2.97,2.3Z"/><path class="cls-1" d="M908.97,73.18c-.28.59-.87,1.74-1.58,2.85-1.39,2.26-2.14,2.49-2.81,2.49-1.27,0-2.49-1.35-2.49-2.81,0-.87.16-1.03,2.06-3.33.44-.52,2.89-3.6,4.83-7.72h-4.2c-1.74,0-2.46-.75-2.46-2.38,0-2.1,1.9-2.1,2.46-2.1h4.2v-10.06c0-1.78.79-2.42,2.49-2.42,2.18,0,2.22,1.74,2.22,2.42v10.06h3.68c1.35,0,2.42.44,2.42,2.26,0,2.1-1.58,2.22-2.42,2.22h-3.68c.71,1.42,2.81,4.16,3.41,4.83,1.86,2.1,2.02,2.3,2.02,3.01,0,1.11-1.11,2.34-2.26,2.34-1.03,0-1.74-.95-3.17-3.48v11.6c0,1.74-.75,2.42-2.46,2.42-2.26,0-2.26-1.82-2.26-2.42v-9.78ZM906.63,51.71c.67,1.94,1.39,4.55,1.39,5.31,0,1.74-2.26,1.78-2.5,1.78-1.19,0-1.35-.67-1.74-2.34-.24-.99-.91-3.17-1.15-3.88-.12-.44-.2-.79-.2-1.07,0-1.15,1.31-1.7,2.34-1.7,1.11,0,1.42.67,1.86,1.9ZM920.29,51.64c0,.83-.75,3.56-1.35,5.19-.63,1.66-1.07,2.06-1.94,2.06-.75,0-2.38-.44-2.38-1.82,0-.28.08-.59.71-2.53.28-.91.44-1.31.83-3.05.16-.59.4-1.62,1.58-1.62,1.9,0,2.53.99,2.53,1.78ZM937.12,68.62c.16-.04.4-.04.63-.04,1.74,0,2.02,1.78,2.02,2.81,0,.95-.28,1.74-1.9,2.02l-1.86.32v9.11c0,1.19-.32,2.46-2.34,2.46s-2.77-.55-2.77-2.46v-8.12l-9.38,1.82c-1.74.36-2.61-.95-2.61-2.53s.83-1.98,1.78-2.18l10.22-1.98v-19.8c0-1.15.32-2.42,2.34-2.42s2.77.51,2.77,2.42v18.77l1.11-.2ZM926.27,62.09c2.3,1.86,2.77,2.34,2.77,3.25,0,1.35-1.35,2.69-2.57,2.69-.67,0-.79-.08-2.61-1.7-.4-.4-2.38-1.98-2.73-2.34-.48-.48-.63-.83-.63-1.35,0-1.35,1.11-2.53,2.34-2.53.99,0,2.34,1.07,3.45,1.98ZM928.02,52.31c1.74,1.5,2.06,1.86,2.06,2.85,0,1.31-1.11,2.53-2.42,2.53-.75,0-.83-.04-2.65-1.74-.36-.36-2.18-1.94-2.53-2.26-.44-.4-.63-.87-.63-1.43,0-1.35,1.15-2.34,2.26-2.34s2.65,1.31,3.92,2.38Z"/></g></svg>