<?xml version="1.0" encoding="UTF-8"?><svg id="_レイヤー_2" xmlns="http://www.w3.org/2000/svg" viewBox="0 0 750 210.5"><defs><style>.cls-1{fill:#d0327e;}.cls-1,.cls-2,.cls-3,.cls-4{stroke-width:0px;}.cls-2{fill:#fff659;}.cls-3{fill:#1a1a1a;}.cls-4{fill:#fff;}.cls-5{fill:none;stroke:#d9437e;stroke-dasharray:0 0 3.76 10.02;stroke-linejoin:round;stroke-width:6.26px;}</style></defs><g id="DESIGN"><polygon class="cls-2" points="750 180.56 420.08 180.56 376.38 210.5 330.25 180.56 0 180.56 0 0 750 0 750 180.56"/><circle class="cls-4" cx="660.86" cy="86.85" r="72.14"/><circle id="_グループ_" class="cls-5" cx="660.87" cy="86.05" r="63.31"/><path class="cls-1" d="M656.13,67.43c.75,0,2.5.08,2.5,2.21,0,1.29-.38,2.46-2.42,2.46h-1.34v5.05h2.5c1,0,2.51.17,2.51,2.21,0,1.63-.54,2.51-2.51,2.51h-2.5v5.39h1.59c1.29,0,2.42.54,2.42,2.21s-.71,2.42-2.51,2.42h-32.66c-.71,0-2.55,0-2.55-2.3,0-2.09,1.42-2.34,2.55-2.34h3.01v-5.39h-3.97c-.67,0-2.55,0-2.55-2.21,0-1.63.58-2.51,2.55-2.51h4.05v-3.67c-.96.92-2.8,2.67-4.13,2.67-1.46,0-2.51-1.46-2.51-2.71,0-1,.17-1.13,2.84-3.22,1.88-1.46,3.13-3.05,4.55-4.89.58-.75,1.21-1.09,2-1.09,1.17,0,2.71.83,2.71,2.09,0,.5-.21.79-.38,1.09h24.22ZM629.19,94.79c0,1.55-2.05,5.18-2.21,5.47-1.54,2.67-2.13,3.3-3.47,3.3-1.46,0-3.01-1-3.01-2.55,0-.71.04-.75,1.59-2.92.83-1.13,1.38-2.34,2.25-4.18.25-.5.67-1.29,2.05-1.29.79,0,2.8.38,2.8,2.17ZM634.87,72.11h-3.51v5.05h3.51v-5.05ZM634.87,81.88h-3.51v5.39h3.51v-5.39ZM637.67,94.83c.17,1.34.29,4.01.29,5.76,0,1.38,0,3.01-2.71,3.01-1.96,0-2.63-.88-2.63-2.38,0-.42.04-2.34.04-2.71,0-.54-.08-2.92-.08-3.42,0-.63.04-2.26,2.51-2.26,1.8,0,2.46.75,2.59,2ZM642.51,72.11h-3.55v5.05h3.55v-5.05ZM642.51,81.88h-3.55v5.39h3.55v-5.39ZM647.31,96.5c.38,1.17,1.17,3.59,1.17,4.68,0,1.92-2.34,2.17-3.09,2.17-2.05,0-2.21-.96-2.63-3.34-.17-.88-.58-2.63-.96-3.93-.12-.5-.29-.96-.29-1.42,0-1.38,1.42-1.92,2.76-1.92,1.8,0,1.96.5,3.05,3.76ZM650.2,72.11h-3.59v5.05h3.59v-5.05ZM650.2,81.88h-3.59v5.39h3.59v-5.39ZM656.67,94.95c2,3.13,3.05,4.89,3.05,5.89,0,1.92-2.3,2.55-3.22,2.55-1.42,0-1.71-.58-2.76-2.76-.42-.88-1.54-2.84-2.17-4.01-.38-.63-.71-1.25-.71-1.88,0-1.75,2.09-2.21,2.67-2.21,1.59,0,1.71.17,3.13,2.42Z"/><path class="cls-1" d="M669.33,91.15c-.29.63-.92,1.84-1.67,3.01-1.46,2.38-2.25,2.63-2.96,2.63-1.34,0-2.63-1.42-2.63-2.96,0-.92.17-1.09,2.17-3.51.46-.54,3.05-3.8,5.1-8.14h-4.43c-1.84,0-2.59-.79-2.59-2.51,0-2.21,2-2.21,2.59-2.21h4.43v-10.61c0-1.88.83-2.55,2.63-2.55,2.3,0,2.34,1.84,2.34,2.55v10.61h3.88c1.42,0,2.55.46,2.55,2.38,0,2.21-1.67,2.34-2.55,2.34h-3.88c.75,1.5,2.96,4.38,3.59,5.09,1.96,2.21,2.13,2.42,2.13,3.17,0,1.17-1.17,2.46-2.38,2.46-1.09,0-1.84-1-3.34-3.68v12.24c0,1.84-.79,2.55-2.59,2.55-2.38,0-2.38-1.92-2.38-2.55v-10.32ZM666.86,68.52c.71,2.05,1.46,4.8,1.46,5.6,0,1.84-2.38,1.88-2.63,1.88-1.25,0-1.42-.71-1.84-2.46-.25-1.04-.96-3.34-1.21-4.09-.12-.46-.21-.84-.21-1.13,0-1.21,1.38-1.8,2.46-1.8,1.17,0,1.5.71,1.96,2ZM681.27,68.43c0,.88-.79,3.76-1.42,5.47-.67,1.75-1.13,2.17-2.05,2.17-.79,0-2.51-.46-2.51-1.92,0-.29.08-.63.75-2.67.29-.96.46-1.38.88-3.22.17-.63.42-1.71,1.67-1.71,2,0,2.67,1.04,2.67,1.88ZM699.02,86.35c.17-.04.42-.04.67-.04,1.84,0,2.13,1.88,2.13,2.96,0,1-.29,1.84-2,2.13l-1.96.33v9.61c0,1.25-.33,2.59-2.46,2.59s-2.92-.58-2.92-2.59v-8.56l-9.9,1.92c-1.84.38-2.76-1-2.76-2.67s.88-2.09,1.88-2.3l10.78-2.09v-20.88c0-1.21.33-2.55,2.46-2.55s2.92.54,2.92,2.55v19.79l1.17-.21ZM687.58,79.46c2.42,1.96,2.92,2.46,2.92,3.42,0,1.42-1.42,2.84-2.71,2.84-.71,0-.83-.08-2.76-1.8-.42-.42-2.51-2.09-2.88-2.46-.5-.5-.67-.88-.67-1.42,0-1.42,1.17-2.67,2.46-2.67,1.04,0,2.46,1.13,3.63,2.09ZM689.41,69.14c1.84,1.59,2.17,1.96,2.17,3.01,0,1.38-1.17,2.67-2.55,2.67-.79,0-.88-.04-2.8-1.84-.38-.38-2.3-2.05-2.67-2.38-.46-.42-.67-.92-.67-1.5,0-1.42,1.21-2.46,2.38-2.46s2.8,1.38,4.13,2.51Z"/><path class="cls-3" d="M31.15,84.85c1.29.91,3.3,2.36,6.5,5.13,5.21-3.53,7.98-6.57,10.33-10.6h-25.11v-4.86h32.6c-.91,3.69-3.12,11.06-14.29,18.73,2.66,2.66,3.95,4.07,5.89,6.42l-4.45,3.65c-5.55-7.75-12.73-13.15-15.31-15.08l3.84-3.38Z"/><path class="cls-3" d="M73.1,89.72c-4.14-2.51-7.67-3.69-10.94-4.63l1.82-4.22c2.24.53,6.27,1.52,11.13,4.33l-2.01,4.52ZM64.32,97.77c14.02-1.33,20.63-5.78,25.23-20.97l4.33,3.19c-5.21,15.35-12.61,21.2-28.5,23.25l-1.06-5.47ZM76.4,80.68c-3.99-2.2-7.18-3.23-11.28-4.45l1.9-4.1c4.14.87,7.18,1.94,11.44,4.03l-2.05,4.52Z"/><path class="cls-3" d="M112.2,83.37c-1.67-1.14-5.58-3.65-11.78-5.66l2.32-4.37c2.77.84,7.03,2.24,12.2,5.36l-2.74,4.67ZM101.14,97.62c11.28-.91,21.85-4.67,26.71-22.49l4.45,3.12c-4.52,14.02-12.35,22.95-30.02,24.89l-1.14-5.51Z"/><path class="cls-3" d="M151.41,76.23v3.84h-14.86v-3.84h14.86ZM150.12,70.83v3.69h-12.46v-3.69h12.46ZM150.12,81.82v3.76h-12.46v-3.76h12.46ZM150.12,87.36v3.76h-12.46v-3.76h12.46ZM150.12,93.06v11.78h-12.46v-11.78h12.46ZM146.25,96.59h-4.41v4.56h4.41v-4.56ZM166.65,70.83v7.71c0,.34,0,.8.72.8h.65c.65,0,.72-.57.76-.91.15-1.18.27-2.81.27-4.03l3.88.95c-.23,5.51-.57,8.47-3.91,8.47h-3.84c-2.51,0-2.81-1.71-2.81-2.51v-6.12h-4.1c-.42,5.13-1.9,7.52-4.41,9.69l-3.5-3.34c2.66-1.71,3.69-4.86,3.69-8.93,0-.76-.04-1.25-.08-1.79h12.69ZM171.02,105.49c-1.94-.53-5.47-1.56-9.61-4.14-.53.42-3.8,2.85-8.93,4.1l-2.09-4.52c3.31-.57,5.24-1.41,7.18-2.47-2.66-2.47-3.72-4.07-4.67-5.89l3.65-1.82c.72,1.29,1.71,3.04,4.6,5.24,2.24-1.98,3.34-3.53,4.33-5.62h-13.72v-4.45h18.62v4.45c-.91,2.01-2.24,4.67-5.4,7.94,3.69,1.67,6.42,2.24,8.02,2.58l-1.98,4.6Z"/><path class="cls-3" d="M192,84.89h-8.66v-4.41h22.15v4.41h-8.7v4.67h11.36v4.41h-11.36v6.04c.68.04.91.04,1.6.04h14.29l-.99,4.56h-13.3c-6.61,0-10.6-2.01-13.87-6.16-1.75,3.34-3.15,5.05-5.36,6.95l-3.08-4.03c2.05-1.75,5.74-5.43,7.18-14.67l4.63.65c-.53,3-1.03,4.75-1.63,6.76,1.29,1.86,2.89,3.88,5.74,4.9v-14.13ZM196.79,69.62v3.04h14.59v9.31h-4.67v-4.98h-24.58v4.98h-4.71v-9.31h14.51v-3.04h4.86Z"/><path class="cls-3" d="M227.68,73.95h4.07v10.9h10.9v4.07h-10.9v10.87h-4.07v-10.87h-10.87v-4.07h10.87v-10.9Z"/><path class="cls-3" d="M248.85,82.31v-4.79h17.21v-6.04h5.05v6.04h8.62v4.79h-8.59v16.34c0,5.05-4.18,5.05-5.89,5.05-.8,0-1.22,0-5.17-.19l-.68-4.98c2.89.27,3.91.34,4.83.34,1.29,0,1.9-.27,1.9-1.44l-.04-10.33c-1.56,2.09-6.19,8.21-15.69,13.26l-3.04-3.95c9.65-4.64,15.92-12.46,17.21-14.1h-15.73Z"/><path class="cls-3" d="M293.61,92.76h-5.28v-20.33h5.28v20.33ZM312,87.74c0,13.26-11.13,15.12-20.06,15.92l-1.82-4.86c10.26-.65,16.57-2.32,16.57-10.68v-16.3h5.32v15.92Z"/><path class="cls-3" d="M339.17,96.14h13.22v4.94h-31.54v-4.94h13.07v-17.02h-11.17v-4.94h27.74v4.94h-11.32v17.02Z"/><path class="cls-3" d="M371.93,83.37c-1.67-1.14-5.58-3.65-11.78-5.66l2.32-4.37c2.77.84,7.03,2.24,12.2,5.36l-2.74,4.67ZM360.87,97.62c11.28-.91,21.85-4.67,26.71-22.49l4.45,3.12c-4.52,14.02-12.35,22.95-30.02,24.89l-1.14-5.51Z"/><path class="cls-3" d="M399.33,99.48c10.18-1.67,12.04-5.36,12.42-12.65h-13.98v-4.71h31.16v4.71h-11.97c-.53,8.97-3.23,14.82-15.58,17.21l-2.05-4.56ZM425.93,72.62v4.71h-25.15v-4.71h25.15Z"/><path class="cls-3" d="M468.71,84.93v5.28h-32.6v-5.28h32.6Z"/><path class="cls-3" d="M486.77,89.72c-4.14-2.51-7.67-3.69-10.94-4.63l1.82-4.22c2.24.53,6.27,1.52,11.13,4.33l-2.01,4.52ZM477.99,97.77c14.02-1.33,20.63-5.78,25.23-20.97l4.33,3.19c-5.21,15.35-12.61,21.2-28.5,23.25l-1.06-5.47ZM490.07,80.68c-3.99-2.2-7.18-3.23-11.28-4.45l1.9-4.1c4.14.87,7.18,1.94,11.44,4.03l-2.05,4.52Z"/><path class="cls-3" d="M514.89,92.68v-4.18h16.49v-5.09h-16.98v-4.26h21.77v23.44h-22.11v-4.41h17.33v-5.51h-16.49Z"/><path class="cls-3" d="M556.35,83.37c-1.67-1.14-5.58-3.65-11.78-5.66l2.32-4.37c2.77.84,7.03,2.24,12.2,5.36l-2.74,4.67ZM545.29,97.62c11.28-.91,21.85-4.67,26.71-22.49l4.45,3.12c-4.52,14.02-12.35,22.95-30.02,24.89l-1.14-5.51Z"/></g></svg>