<?xml version="1.0" encoding="UTF-8"?><svg id="_レイヤー_2" xmlns="http://www.w3.org/2000/svg" viewBox="0 0 1070 142"><defs><style>.cls-1{fill:#474747;}.cls-1,.cls-2,.cls-3{stroke-width:0px;}.cls-2{fill:#1a1a1a;}.cls-3{fill:none;}</style></defs><g id="BACK"><rect class="cls-3" width="1070" height="142"/></g><g id="DESIGN"><path class="cls-1" d="M151.78,111.43h-30.64c-.67,0-1.24-.49-1.33-1.16l-8.44-60.37c-.1-.73.41-1.41,1.14-1.51.73-.1,1.41.41,1.51,1.14l8.28,59.21h28.31l8.28-59.21c.1-.73.78-1.24,1.51-1.14.73.1,1.25.78,1.14,1.51l-8.44,60.37c-.09.66-.66,1.16-1.33,1.16Z"/><path class="cls-1" d="M156.48,42.74h-40.04c-.74,0-1.34-.6-1.34-1.34v-2.65c0-3.42,2.79-6.21,6.21-6.21h30.31c3.42,0,6.21,2.79,6.21,6.21v2.65c0,.74-.6,1.34-1.34,1.34ZM117.78,40.05h37.36v-1.31c0-1.94-1.58-3.53-3.53-3.53h-30.31c-1.94,0-3.53,1.58-3.53,3.53v1.31Z"/><path class="cls-1" d="M139.78,35.22h-6.64c-.74,0-1.34-.6-1.34-1.34v-7.52c0-.74.6-1.34,1.34-1.34h6.64c.74,0,1.34.6,1.34,1.34v7.52c0,.74-.6,1.34-1.34,1.34ZM134.48,32.54h3.95v-4.83h-3.95v4.83Z"/><path class="cls-1" d="M156.48,40.35c-.74,0-1.34-.6-1.34-1.34v-6.78c0-2.49-2.03-4.52-4.52-4.52h-22.35c-.74,0-1.34-.6-1.34-1.34s.6-1.34,1.34-1.34h22.35c3.97,0,7.21,3.23,7.21,7.21v6.78c0,.74-.6,1.34-1.34,1.34Z"/><path class="cls-1" d="M163.98,51.06h-55.04c-.74,0-1.34-.6-1.34-1.34v-8.33c0-.74.6-1.34,1.34-1.34h55.04c.74,0,1.34.6,1.34,1.34v8.33c0,.74-.6,1.34-1.34,1.34ZM110.28,48.38h52.36v-5.64h-52.36v5.64Z"/><path class="cls-1" d="M115.43,51.06c-.74,0-1.34-.6-1.34-1.34v-8.33c0-.74.6-1.34,1.34-1.34s1.34.6,1.34,1.34v8.33c0,.74-.6,1.34-1.34,1.34Z"/><path class="cls-1" d="M122.4,51.06c-.74,0-1.34-.6-1.34-1.34v-8.33c0-.74.6-1.34,1.34-1.34s1.34.6,1.34,1.34v8.33c0,.74-.6,1.34-1.34,1.34Z"/><path class="cls-1" d="M129.37,51.06c-.74,0-1.34-.6-1.34-1.34v-8.33c0-.74.6-1.34,1.34-1.34s1.34.6,1.34,1.34v8.33c0,.74-.6,1.34-1.34,1.34Z"/><path class="cls-1" d="M136.33,51.06c-.74,0-1.34-.6-1.34-1.34v-8.33c0-.74.6-1.34,1.34-1.34s1.34.6,1.34,1.34v8.33c0,.74-.6,1.34-1.34,1.34Z"/><path class="cls-1" d="M143.3,51.06c-.74,0-1.34-.6-1.34-1.34v-8.33c0-.74.6-1.34,1.34-1.34s1.34.6,1.34,1.34v8.33c0,.74-.6,1.34-1.34,1.34Z"/><path class="cls-1" d="M150.27,51.06c-.74,0-1.34-.6-1.34-1.34v-8.33c0-.74.6-1.34,1.34-1.34s1.34.6,1.34,1.34v8.33c0,.74-.6,1.34-1.34,1.34Z"/><path class="cls-1" d="M157.23,51.06c-.74,0-1.34-.6-1.34-1.34v-8.33c0-.74.6-1.34,1.34-1.34s1.34.6,1.34,1.34v8.33c0,.74-.6,1.34-1.34,1.34Z"/><path class="cls-1" d="M153.44,58.78h-2.98c-.74,0-1.34-.6-1.34-1.34s.6-1.34,1.34-1.34h2.98c.74,0,1.34.6,1.34,1.34s-.6,1.34-1.34,1.34Z"/><path class="cls-1" d="M152.19,67.86h-2.98c-.74,0-1.34-.6-1.34-1.34s.6-1.34,1.34-1.34h2.98c.74,0,1.34.6,1.34,1.34s-.6,1.34-1.34,1.34Z"/><path class="cls-1" d="M150.93,76.94h-2.98c-.74,0-1.34-.6-1.34-1.34s.6-1.34,1.34-1.34h2.98c.74,0,1.34.6,1.34,1.34s-.6,1.34-1.34,1.34Z"/><path class="cls-1" d="M149.86,86.02h-2.98c-.74,0-1.34-.6-1.34-1.34s.6-1.34,1.34-1.34h2.98c.74,0,1.34.6,1.34,1.34s-.6,1.34-1.34,1.34Z"/><path class="cls-1" d="M148.43,95.1h-2.98c-.74,0-1.34-.6-1.34-1.34s.6-1.34,1.34-1.34h2.98c.74,0,1.34.6,1.34,1.34s-.6,1.34-1.34,1.34Z"/><path class="cls-1" d="M147.18,104.18h-2.98c-.74,0-1.34-.6-1.34-1.34s.6-1.34,1.34-1.34h2.98c.74,0,1.34.6,1.34,1.34s-.6,1.34-1.34,1.34Z"/><path class="cls-2" d="M197.08,66.38v-5.8h20.84v-7.31h6.12v7.31h10.44v5.8h-10.4v19.78c0,6.12-5.06,6.12-7.13,6.12-.97,0-1.47,0-6.26-.23l-.83-6.03c3.5.32,4.74.41,5.84.41,1.56,0,2.3-.32,2.3-1.75l-.05-12.51c-1.89,2.53-7.5,9.94-19,16.06l-3.68-4.78c11.69-5.61,19.28-15.09,20.84-17.07h-19.05Z"/><path class="cls-2" d="M281.54,69.55v6.39h-39.47v-6.39h39.47Z"/><path class="cls-2" d="M290.32,87.4c10.17-2.07,15.6-6.99,18.4-9.66-4.32-3.36-6.81-5.06-12.1-7.77-1.24,1.2-2.67,2.53-5.29,4.19l-4-4.69c5.98-3.59,9.48-8.14,11.87-13.48h18.26l5.57,6.99c-1.24,5.2-5.8,24.25-29.63,30l-3.08-5.57ZM303.29,61.6c-.97,1.52-1.61,2.39-3.13,4.42,5.2,2.35,9.57,5.2,12.24,7.27,2.9-4.37,4.23-9.75,4.74-11.69h-13.85ZM320.86,51.47c2.25,2.58,3.54,4.65,5.52,8.14l-3.04,2.25c-1.7-3.4-2.81-5.29-5.34-8.33l2.85-2.07ZM326.75,49.5c2.35,2.67,3.4,4.46,5.47,8.19l-3.04,2.21c-1.7-3.5-2.99-5.52-5.29-8.37l2.85-2.02Z"/><path class="cls-2" d="M375.84,69.55v6.39h-39.47v-6.39h39.47Z"/><path class="cls-2" d="M391.52,60.17c4.37,2.16,8.79,4.92,12.7,7.73,2.12-3.59,4.51-8.42,6.39-14.49l6.44,1.98c-1.66,4.32-3.82,9.85-7.91,16.24.87.64,4.37,3.45,9.66,8.7l-4.97,5.29c-1.29-1.47-3.96-4.55-8.6-8.6-3.27,4.14-9.48,10.31-20.01,15.14l-3.82-4.97c4.09-1.79,12.47-5.43,19.18-13.99-5.11-3.82-7.96-5.7-12.88-8.42l3.82-4.6Z"/><path class="cls-2" d="M450.72,92.28h-6.53v-19.46c-7.41,4.6-13.48,6.67-16.06,7.5l-3.04-5.43c19.55-6.12,30.04-18.82,32.85-22.27l5.52,3.82c-1.79,1.98-6.16,6.9-12.74,11.87v23.97Z"/><path class="cls-2" d="M499.26,80.14c-7.18-4.65-11.27-6.76-18.49-9.57v21.85h-6.62v-39.29h6.62v11.09c9.75,3.27,15.23,5.8,21.76,9.52l-3.27,6.4ZM492.35,54.46c2.21,2.81,3.68,5.93,4.92,8.74l-3.82,2.12c-1.38-3.59-2.58-5.84-4.69-8.92l3.59-1.93ZM498.89,51.38c1.98,2.53,3.31,5.01,5.01,8.69l-3.77,2.07c-1.56-3.82-2.58-5.66-4.83-8.88l3.59-1.89Z"/><path class="cls-2" d="M548.98,61.27v5.8h-7.36v4.65c0,15.64-12.01,19.32-21.99,20.75l-2.3-5.75c14.58-1.43,18.08-7.5,18.08-15.04v-4.6h-13.25v11.32h-6.17v-11.32h-7.08v-5.8h7.08v-7.96h6.17v7.96h13.25v-8.1h6.21v8.1h7.36Z"/><path class="cls-2" d="M583.43,56.35l6.67,7.77c-1.24,6.3-2.76,11.92-7.5,17.34-3.82,4.37-10.63,9.02-20.06,10.67l-2.81-5.75c19.14-3.36,22.59-14.12,24.06-24.02h-27.28v-6.03h26.91ZM598.75,55.8c0,3.5-2.81,6.3-6.3,6.3s-6.3-2.81-6.3-6.3,2.85-6.3,6.3-6.3,6.3,2.76,6.3,6.3ZM589.18,55.8c0,1.84,1.47,3.27,3.27,3.27s3.27-1.38,3.27-3.27-1.52-3.27-3.27-3.27-3.27,1.38-3.27,3.27Z"/><path class="cls-2" d="M610.94,79.03h-6.39v-24.61h6.39v24.61ZM633.21,72.96c0,16.06-13.48,18.31-24.29,19.28l-2.21-5.89c12.42-.78,20.06-2.81,20.06-12.93v-19.74h6.44v19.28Z"/><path class="cls-2" d="M650.55,60.17c4.37,2.16,8.79,4.92,12.7,7.73,2.12-3.59,4.51-8.42,6.39-14.49l6.44,1.98c-1.66,4.32-3.82,9.85-7.91,16.24.87.64,4.37,3.45,9.66,8.7l-4.97,5.29c-1.29-1.47-3.96-4.55-8.6-8.6-3.27,4.14-9.48,10.31-20.01,15.14l-3.82-4.97c4.09-1.79,12.47-5.43,19.18-13.99-5.11-3.82-7.96-5.7-12.88-8.42l3.82-4.6Z"/><path class="cls-2" d="M700.18,67.67c-2.02-1.38-6.76-4.42-14.26-6.85l2.81-5.29c3.36,1.01,8.51,2.71,14.77,6.49l-3.31,5.66ZM686.79,84.92c13.66-1.1,26.45-5.66,32.34-27.24l5.38,3.77c-5.47,16.98-14.95,27.79-36.34,30.13l-1.38-6.67Z"/><path class="cls-2" d="M758.56,80.04c-6.62-4.28-11.13-6.67-18.54-9.57v21.85h-6.62v-39.29h6.62v11.04c10.35,3.27,17.71,7.36,21.76,9.57l-3.22,6.39Z"/><path class="cls-2" d="M807.46,61.27v5.8h-7.36v4.65c0,15.64-12.01,19.32-21.99,20.75l-2.3-5.75c14.58-1.43,18.08-7.5,18.08-15.04v-4.6h-13.25v11.32h-6.17v-11.32h-7.08v-5.8h7.08v-7.96h6.17v7.96h13.25v-8.1h6.21v8.1h7.36Z"/><path class="cls-2" d="M854.33,69.55v6.39h-39.47v-6.39h39.47Z"/><path class="cls-2" d="M877.56,55.94c-1.66,15.14-5.66,26.36-11.22,35.52l-6.12-3.13c2.62-4.09,8.83-14.03,11-33.26l6.35.87ZM893.94,90.58c-2.48-13.76-5.89-23.51-10.67-33.31l5.7-2.53c4.28,8.05,9.29,20.24,11.64,34.14l-6.67,1.7ZM894.53,51.98c2.02,3.08,3.22,5.84,4.32,8.83l-3.36,1.79c-1.29-3.82-2.16-5.75-4.14-9.02l3.17-1.61ZM900.42,49.5c1.89,2.81,2.85,4.97,4.37,8.83l-3.36,1.79c-1.2-3.68-2.16-5.75-4.14-8.97l3.13-1.66Z"/><path class="cls-2" d="M948.4,69.55v6.39h-39.47v-6.39h39.47Z"/></g></svg>