<?xml version="1.0" encoding="UTF-8"?><svg id="_レイヤー_2" xmlns="http://www.w3.org/2000/svg" viewBox="0 0 1070 142"><defs><style>.cls-1{fill:#d0327e;}.cls-1,.cls-2,.cls-3,.cls-4{stroke-width:0px;}.cls-2{fill:#1a1a1a;}.cls-3,.cls-5{fill:none;}.cls-6{fill:#333;stroke:#1a1a1a;stroke-miterlimit:10;stroke-width:2px;}.cls-4{fill:#fff;}.cls-5{stroke:#d9437e;stroke-dasharray:0 0 3.56 9.5;stroke-linejoin:round;stroke-width:5.94px;}</style></defs><g id="BACK"><rect class="cls-3" width="1070" height="142"/></g><g id="DESIGN"><path class="cls-2" d="M176.94,56.74h-43.25v-4.78h18.63v-2.76h5.93v2.76h18.68v4.78ZM144.83,88.71v-11.32h21.21v9.98h2.48c.64,0,1.01-.23,1.01-1.1v-11h-28.29v17.39h-5.8v-21.71h39.84v17.62c0,2.58-1.43,4.09-3.4,4.09h-7.27l-.74-3.96h-19.05ZM171.1,68.93h-31.61v-10.49h31.61v10.49ZM165.4,62.16h-20.29v2.9h20.29v-2.9ZM160.66,81.3h-10.49v3.36h10.49v-3.36Z"/><path class="cls-2" d="M188.76,58.16c-.09,9.48-.74,12.61-1.43,15.09l-3.77-2.3c1.1-3.5,1.47-9.52,1.52-12.84l3.68.05ZM202.75,71.96l-.09.18-4.55-3.54c.78-1.15,1.79-2.67,2.71-4.83l-2.94,1.84c-.74-2.58-1.2-3.91-2.25-6.21v33.35h-5.57v-43.43h5.57v8.79l2.94-1.79c1.66,2.85,2.67,5.84,2.76,6.07,1.75-4.78,2.07-9.2,2.21-11.27l5.47.87c-.14,1.61-.28,3.27-1.06,6.76h3.54v-9.43h5.75v9.43h9.66v5.34h-9.66v7.73h8.56v5.24h-8.56v8.65h10.44v5.34h-29.44v-5.34h13.25v-8.65h-8.74v-5.11ZM211.49,71.82v-7.73h-5.11c-1.43,4.23-2.9,6.81-3.54,7.73h8.65Z"/><path class="cls-2" d="M252.56,63.45c-.28-.74-.46-1.33-1.06-2.62-5.29.74-11.13,1.38-16.47,1.61l-.46-4.97h2.9c.41-.87,2.21-4.78,3.04-8.14l5.66.6c-.51,1.47-1.01,2.81-3.36,7.41.74-.05,5.57-.51,6.67-.6-.97-1.79-1.61-2.71-2.25-3.73l4.51-2.07c2.53,3.59,4.28,6.3,5.89,10.26l-5.06,2.25ZM236.6,64.37h18.22v24.57c0,3.17-2.67,3.73-3.36,3.73h-6.07l-.92-5.2h4.19c.55,0,.87-.37.87-.87v-3.04h-7.59v9.11h-5.34v-28.29ZM241.94,68.93v3.22h7.59v-3.22h-7.59ZM241.94,76.06v3.4h7.59v-3.4h-7.59ZM264.3,49.33v5.7c2.58-.74,7.64-2.99,10.08-4.6l3.13,4.19c-3.27,1.98-8.47,3.86-13.2,5.06v3.77c0,.97.6,1.1,1.2,1.1h5.38c1.1,0,1.84,0,1.93-5.2l5.38,1.47c-.23,6.17-1.38,8.83-5.01,8.83h-10.35c-4.09,0-4.33-3.27-4.33-3.77v-16.56h5.8ZM258.64,70.95h5.66v5.38c2.9-1.06,6.21-2.48,9.57-4.83l3.36,4.28c-4.97,2.99-11.18,4.83-12.93,5.34v4.65c0,.64.23,1.38,1.29,1.38h5.2c1.38,0,1.61-.37,1.98-6.03l5.43,1.43c-.64,7.31-1.33,9.75-5.66,9.75h-10.03c-2.39,0-3.86-1.43-3.86-3.96v-17.39Z"/><path class="cls-2" d="M289.64,71.27c-1.52,1.89-2.12,2.44-2.99,3.22l-1.93-7.41c6.53-7.5,7.5-15.41,7.73-17.85l5.61.64c-.23,1.93-.64,5.57-2.9,11.23v31.61h-5.52v-21.44ZM295.71,79.74c5.89-4.78,9.57-10.17,12.7-17.39h-10.81v-5.61h12.33v-7.36h5.8v7.36h12.97v5.61h-11.32c.6,1.47,4.6,10.67,12.05,16.93l-2.94,6.12c-1.75-1.75-6.95-6.9-10.77-15.69v10.44h6.07v5.38h-6.07v7.18h-5.8v-7.18h-6.03v-5.38h6.03v-10.9c-2.53,6.17-6.21,11.82-11.04,16.42l-3.17-5.93Z"/><path class="cls-2" d="M341.62,77.02c-.18,5.8-.69,9.29-1.7,13.25l-4.42-2.02c1.01-3.63,1.56-8.14,1.61-11.64l4.51.41ZM335.68,69.29c.78-.05,2.16-.09,3.77-.18.6-.74,1.61-2.07,2.3-3.08-2.16-2.71-3.82-4.46-6.21-6.21l2.67-4.55c.74.51.97.69,1.33.97,1.38-2.21,2.62-4.51,3.73-6.9l5.15,1.66c-2.25,4.23-4.42,7.18-5.38,8.46.32.37.69.74,1.84,2.16,2.21-3.22,3.59-5.61,4.69-7.5l4.97,1.89c-2.76,4.55-5.93,8.79-9.29,12.88.69-.05,4.19-.23,5.01-.28-.41-1.43-.6-1.98-.97-3.08l4.46-1.56c1.52,4.05,1.89,5.01,2.9,9.52l-4.97,1.56c-.14-.78-.14-.87-.41-2.12-.64.09-2.62.32-3.08.37v19.51h-5.11v-19.05c-5.06.37-5.61.41-7.31.55l-.09-5.01ZM353.54,75.96c.92,2.67,1.38,6.3,1.75,9.34l-4.42.97c-.55-6.03-1.06-8.1-1.43-9.43l4.09-.87ZM356.89,50.85h20.2v35.33h2.16v5.38h-26.27v-5.38h3.91v-35.33ZM362.46,56.18v6.35h9.06v-6.35h-9.06ZM362.46,67.59v6.26h9.06v-6.26h-9.06ZM362.46,78.96v7.22h9.06v-7.22h-9.06Z"/><path class="cls-2" d="M401.74,87.93c3.59-1.52,7.87-3.77,11.69-7.73-2.48-7.36-2.81-14.45-3.04-18.77h-15.14v4.69h12.42c.05,3.96-.28,10.72-.69,14.68-.28,2.85-1.15,6.4-5.66,6.4h-4.55l-.97-5.8h3.86c.6,0,1.24-.23,1.52-1.1.69-2.12.74-7.68.74-9.02h-6.67v3.4c0,2.99-.51,6.62-1.01,9.34-.69,3.68-2.02,6.35-3.4,8.79l-4.88-4.37c2.48-4.23,3.68-9.11,3.68-14.03v-18.4h20.52c-.05-.97-.28-5.7-.32-6.81h5.84c0,1.56,0,2.58.09,6.81h7.27c-2.35-2.07-3.22-2.81-5.43-4.05l3.86-3.22c2.21,1.2,3.5,2.12,6.67,4.83l-2.71,2.44h4.09v5.43h-13.53c.37,4.37.83,8.69,1.75,12.97,1.2-2.16,2.58-5.01,3.96-10.77l5.52,1.84c-1.89,6.53-4.23,11.41-7.32,15.78.83,1.7,2.25,4.78,3.5,4.78.83,0,1.43-1.01,1.75-1.7.28-.6,1.15-3.91,1.43-4.97l4.09,3.68c-1.38,5.61-2.76,9.71-6.9,9.71s-6.76-4.78-7.87-6.81c-4,3.91-7.82,5.84-10.44,7.04l-3.73-5.06Z"/><path class="cls-2" d="M457.63,57.06v4.74h-20.47v-4.74h20.47ZM456.21,50.34v4.51h-17.53v-4.51h17.53ZM456.21,63.87v4.55h-17.53v-4.55h17.53ZM456.21,70.77v4.51h-17.53v-4.51h17.53ZM456.21,77.71v14.31h-17.53v-14.31h17.53ZM451.24,82.04h-7.45v5.29h7.45v-5.29ZM466.01,92.76v-25.03h-8.42v-5.8h8.42v-12.51h5.84v12.51h8.79v5.8h-8.79v25.03h-5.84Z"/><path class="cls-2" d="M500.63,89.12c-4.16-5.15-6.71-11.44-6.71-18.07s2.55-12.93,6.71-18.07h4.23c-4.12,5.11-6.48,11.48-6.48,18.07s2.36,12.93,6.48,18.07h-4.23Z"/><path class="cls-2" d="M524.8,85.53h-5.38v-25.51h-9.57v-4.92h24.52v4.92h-9.57v25.51Z"/><path class="cls-2" d="M547.48,78.06l-2.59,7.47h-5.95l11.25-30.43h6.9l11.25,30.43h-5.95l-2.59-7.47h-12.32ZM558.2,73.44l-4.54-13.08-4.58,13.08h9.11Z"/><path class="cls-2" d="M581.27,55.1l14.83,22.92v-22.92h5.38v30.43h-6.41l-14.83-22.92v22.92h-5.38v-30.43h6.41Z"/><path class="cls-2" d="M616.08,55.1v30.43h-5.49v-30.43h5.49Z"/><path class="cls-2" d="M638.19,85.53h-5.38v-25.51h-9.57v-4.92h24.52v4.92h-9.57v25.51Z"/><path class="cls-2" d="M660.87,78.06l-2.59,7.47h-5.95l11.25-30.43h6.9l11.25,30.43h-5.95l-2.59-7.47h-12.32ZM671.59,73.44l-4.54-13.08-4.58,13.08h9.11Z"/><path class="cls-2" d="M709.53,55.1v5.03l-14.72,25.4h-6.02l14.99-25.51h-16.43v-4.92h22.19Z"/><path class="cls-2" d="M738.39,76.5c0,5.76-5,9.65-10.98,9.65s-10.98-3.89-10.98-9.65c0-4.16,2.52-6.75,4.69-7.93-2.4-1.64-3.05-4.23-3.05-6.02,0-4.54,3.62-8.05,9.34-8.05s9.34,3.39,9.34,8.05c0,1.79-.69,4.39-3.05,6.02,2.17,1.18,4.69,3.78,4.69,7.93ZM733.01,76.34c0-2.17-1.64-4.84-5.61-4.84s-5.6,2.59-5.6,4.84c0,2.75,2.36,4.88,5.6,4.88s5.61-2.06,5.61-4.88ZM731.6,62.73c0-2.48-1.98-3.77-4.2-3.77s-4.19,1.3-4.19,3.77c0,1.83,1.18,3.81,4.19,3.81s4.2-1.91,4.2-3.81Z"/><path class="cls-2" d="M745.48,70.32c0-5.38.95-8.92,2.55-11.4,1.95-3.05,5.19-4.42,8.35-4.42,10.91,0,10.91,13.04,10.91,15.82s0,15.82-10.91,15.82-10.91-13.04-10.91-15.82ZM761.91,70.32c0-6.56-1.49-10.91-5.53-10.91-4.31,0-5.53,4.88-5.53,10.91,0,6.6,1.49,10.91,5.53,10.91s5.53-4.65,5.53-10.91Z"/><path class="cls-2" d="M773.5,89.12c4.12-5.15,6.48-11.48,6.48-18.07s-2.36-12.96-6.48-18.07h4.19c4.16,5.15,6.75,11.44,6.75,18.07s-2.59,12.93-6.71,18.07h-4.23Z"/><path class="cls-2" d="M797.08,69.71h43.15v5.52h-13.02v10.72c0,1.01.6,1.01,1.2,1.01h5.06c1.1,0,1.38-.09,1.43-6.99l5.47,1.66c-.18,8.1-.69,10.67-4.6,10.67h-10.3c-.78,0-4.05,0-4.05-3.36v-13.71h-6.35c-.92,13.62-11.18,16.7-15.87,17.85l-2.81-5.75c11.04-2.12,12.79-7.54,13.02-12.1h-12.33v-5.52ZM815.67,49.24h5.93v3.5h17.48v12.38h-5.8v-7.04h-29.3v7.04h-5.75v-12.38h17.44v-3.5ZM804.72,61.2h27.83v5.29h-27.83v-5.29Z"/><path class="cls-2" d="M856.14,88.29v4.32h-5.38v-20.66c-.92,1.29-1.29,1.7-2.21,2.67l-1.89-7.91c5.11-6.26,6.21-15.14,6.53-17.48l5.34.41c-.23,2.02-.6,5.8-2.39,11.18v26.96c3.17-4.88,3.22-10.07,3.22-12.42v-11.23h-1.52v-4.51h7.82v-3.04h-6.58v-4.6h6.58v-2.71h5.47v2.71h6.81v-2.71h5.43v2.71h6.62v4.6h-6.62v3.04h7.64v4.51h-26.54v10.95c0,6.35-1.06,12.42-4.55,17.39l-3.77-4.19ZM889.5,66.44v22.45c0,2.3-.32,3.73-3.91,3.73h-4.23l-.83-4.69h2.44c1.29,0,1.52-.14,1.52-1.47v-2.62h-4.65v8.51h-4.6v-8.51h-4.65v8.79h-4.65v-26.18h23.55ZM870.59,70.58v2.76h4.65v-2.76h-4.65ZM870.59,77.16v2.85h4.65v-2.85h-4.65ZM871.14,56.6v3.04h6.81v-3.04h-6.81ZM879.84,70.58v2.76h4.65v-2.76h-4.65ZM879.84,77.16v2.85h4.65v-2.85h-4.65Z"/><path class="cls-2" d="M907.35,51.81l-.78,26.18h-5.34l-.78-26.18h6.9ZM900.54,81.95h6.67v6.58h-6.67v-6.58Z"/><circle class="cls-4" cx="996" cy="70.35" r="68.4"/><circle id="_グループ_" class="cls-5" cx="996.01" cy="69.59" r="60.03"/><path class="cls-1" d="M991.51,50.04c.71,0,2.38.08,2.38,2.1,0,1.23-.36,2.34-2.3,2.34h-1.27v4.79h2.38c.95,0,2.38.16,2.38,2.1,0,1.54-.51,2.38-2.38,2.38h-2.38v5.11h1.5c1.23,0,2.3.52,2.3,2.1s-.67,2.3-2.38,2.3h-30.96c-.67,0-2.42,0-2.42-2.18,0-1.98,1.35-2.22,2.42-2.22h2.85v-5.11h-3.76c-.63,0-2.42,0-2.42-2.1,0-1.54.55-2.38,2.42-2.38h3.84v-3.48c-.91.87-2.65,2.53-3.92,2.53-1.39,0-2.38-1.39-2.38-2.57,0-.95.16-1.07,2.69-3.05,1.78-1.39,2.97-2.89,4.32-4.63.55-.71,1.15-1.03,1.9-1.03,1.11,0,2.57.79,2.57,1.98,0,.48-.2.75-.36,1.03h22.97ZM965.97,75.98c0,1.47-1.94,4.91-2.1,5.19-1.46,2.53-2.02,3.13-3.29,3.13-1.39,0-2.85-.95-2.85-2.42,0-.67.04-.71,1.5-2.77.79-1.07,1.31-2.22,2.14-3.96.24-.48.63-1.23,1.94-1.23.75,0,2.65.36,2.65,2.06ZM971.36,54.48h-3.33v4.79h3.33v-4.79ZM971.36,63.74h-3.33v5.11h3.33v-5.11ZM974.01,76.02c.16,1.27.28,3.8.28,5.46,0,1.31,0,2.85-2.57,2.85-1.86,0-2.49-.83-2.49-2.26,0-.4.04-2.22.04-2.57,0-.52-.08-2.77-.08-3.25,0-.59.04-2.14,2.38-2.14,1.7,0,2.34.71,2.46,1.9ZM978.61,54.48h-3.37v4.79h3.37v-4.79ZM978.61,63.74h-3.37v5.11h3.37v-5.11ZM983.16,77.6c.36,1.11,1.11,3.41,1.11,4.44,0,1.82-2.22,2.06-2.93,2.06-1.94,0-2.1-.91-2.49-3.17-.16-.83-.55-2.49-.91-3.72-.12-.48-.28-.91-.28-1.35,0-1.31,1.35-1.82,2.61-1.82,1.7,0,1.86.48,2.89,3.56ZM985.89,54.48h-3.41v4.79h3.41v-4.79ZM985.89,63.74h-3.41v5.11h3.41v-5.11ZM992.03,76.14c1.9,2.97,2.89,4.63,2.89,5.58,0,1.82-2.18,2.42-3.05,2.42-1.35,0-1.62-.55-2.61-2.61-.4-.83-1.47-2.69-2.06-3.8-.36-.59-.67-1.19-.67-1.78,0-1.66,1.98-2.1,2.53-2.1,1.5,0,1.62.16,2.97,2.3Z"/><path class="cls-1" d="M1004.03,72.53c-.28.59-.87,1.74-1.58,2.85-1.39,2.26-2.14,2.49-2.81,2.49-1.27,0-2.49-1.35-2.49-2.81,0-.87.16-1.03,2.06-3.33.44-.51,2.89-3.6,4.83-7.72h-4.2c-1.74,0-2.46-.75-2.46-2.38,0-2.1,1.9-2.1,2.46-2.1h4.2v-10.06c0-1.78.79-2.42,2.49-2.42,2.18,0,2.22,1.74,2.22,2.42v10.06h3.68c1.35,0,2.42.44,2.42,2.26,0,2.1-1.58,2.22-2.42,2.22h-3.68c.71,1.43,2.81,4.16,3.41,4.83,1.86,2.1,2.02,2.3,2.02,3.01,0,1.11-1.11,2.34-2.26,2.34-1.03,0-1.74-.95-3.17-3.48v11.6c0,1.74-.75,2.42-2.46,2.42-2.26,0-2.26-1.82-2.26-2.42v-9.78ZM1001.69,51.07c.67,1.94,1.39,4.55,1.39,5.31,0,1.74-2.26,1.78-2.5,1.78-1.19,0-1.35-.67-1.74-2.34-.24-.99-.91-3.17-1.15-3.88-.12-.44-.2-.79-.2-1.07,0-1.15,1.31-1.7,2.34-1.7,1.11,0,1.42.67,1.86,1.9ZM1015.35,50.99c0,.83-.75,3.56-1.35,5.19-.63,1.66-1.07,2.06-1.94,2.06-.75,0-2.38-.44-2.38-1.82,0-.28.08-.59.71-2.53.28-.91.44-1.31.83-3.05.16-.59.4-1.62,1.58-1.62,1.9,0,2.53.99,2.53,1.78ZM1032.18,67.98c.16-.04.4-.04.63-.04,1.74,0,2.02,1.78,2.02,2.81,0,.95-.28,1.74-1.9,2.02l-1.86.32v9.11c0,1.19-.32,2.46-2.34,2.46s-2.77-.55-2.77-2.46v-8.12l-9.38,1.82c-1.74.36-2.61-.95-2.61-2.53s.83-1.98,1.78-2.18l10.22-1.98v-19.8c0-1.15.32-2.42,2.34-2.42s2.77.51,2.77,2.42v18.77l1.11-.2ZM1021.33,61.45c2.3,1.86,2.77,2.34,2.77,3.25,0,1.35-1.35,2.69-2.57,2.69-.67,0-.79-.08-2.61-1.7-.4-.4-2.38-1.98-2.73-2.34-.48-.48-.63-.83-.63-1.35,0-1.35,1.11-2.53,2.34-2.53.99,0,2.34,1.07,3.45,1.98ZM1023.08,51.67c1.74,1.5,2.06,1.86,2.06,2.85,0,1.31-1.11,2.53-2.42,2.53-.75,0-.83-.04-2.65-1.74-.36-.36-2.18-1.94-2.53-2.26-.44-.4-.63-.87-.63-1.43,0-1.35,1.15-2.34,2.26-2.34s2.65,1.31,3.92,2.38Z"/><path class="cls-6" d="M104.55,109.88h-62.03c-4.4,0-7.99-3.58-7.99-7.99v-62.03c0-4.4,3.58-7.99,7.99-7.99h62.03c4.4,0,7.99,3.58,7.99,7.99v62.03c0,4.4-3.58,7.99-7.99,7.99ZM42.52,33.39c-3.57,0-6.47,2.9-6.47,6.47v62.03c0,3.57,2.9,6.47,6.47,6.47h62.03c3.57,0,6.47-2.9,6.47-6.47v-62.03c0-3.57-2.9-6.47-6.47-6.47h-62.03ZM95.65,98.78c-3.6,0-6.54-2.93-6.54-6.54s2.93-6.54,6.54-6.54,6.54,2.93,6.54,6.54-2.93,6.54-6.54,6.54ZM95.65,87.22c-2.77,0-5.02,2.25-5.02,5.02s2.25,5.02,5.02,5.02,5.02-2.25,5.02-5.02-2.25-5.02-5.02-5.02ZM51.42,98.78c-3.6,0-6.54-2.93-6.54-6.54s2.93-6.54,6.54-6.54,6.54,2.93,6.54,6.54-2.93,6.54-6.54,6.54ZM51.42,87.22c-2.77,0-5.02,2.25-5.02,5.02s2.25,5.02,5.02,5.02,5.02-2.25,5.02-5.02-2.25-5.02-5.02-5.02ZM95.65,68.86c-3.6,0-6.54-2.93-6.54-6.54s2.93-6.54,6.54-6.54,6.54,2.93,6.54,6.54-2.93,6.54-6.54,6.54ZM95.65,57.3c-2.77,0-5.02,2.25-5.02,5.02s2.25,5.02,5.02,5.02,5.02-2.25,5.02-5.02-2.25-5.02-5.02-5.02ZM51.42,68.86c-3.6,0-6.54-2.93-6.54-6.54s2.93-6.54,6.54-6.54,6.54,2.93,6.54,6.54-2.93,6.54-6.54,6.54ZM51.42,57.3c-2.77,0-5.02,2.25-5.02,5.02s2.25,5.02,5.02,5.02,5.02-2.25,5.02-5.02-2.25-5.02-5.02-5.02ZM82.19,48.61h-17.31c-.82,0-1.48-.66-1.48-1.48v-5.87c0-.82.66-1.48,1.48-1.48h17.31c.82,0,1.48.66,1.48,1.48v5.87c0,.82-.66,1.48-1.48,1.48ZM64.91,47.1h17.24v-5.8h-17.24v5.8Z"/></g></svg>