<?xml version="1.0" encoding="UTF-8"?><svg id="_レイヤー_2" xmlns="http://www.w3.org/2000/svg" viewBox="0 0 934 300.68"><defs><style>.cls-1{fill:#d0327e;}.cls-1,.cls-2{stroke-width:0px;}.cls-2{fill:#fff;}.cls-3{fill:none;stroke:#d0327e;stroke-dasharray:0 0 8.02 21.38;stroke-linejoin:round;stroke-width:7.04px;}</style></defs><g id="DESIGN"><ellipse class="cls-2" cx="142.5" cy="144.07" rx="142.5" ry="144.07"/><circle id="_グループ_" class="cls-3" cx="140.73" cy="143.27" r="135.14"/><ellipse class="cls-2" cx="469.5" cy="152.61" rx="142.5" ry="144.07"/><circle id="_グループ_-2" class="cls-3" cx="467.73" cy="151.81" r="135.14"/><ellipse class="cls-2" cx="791.5" cy="156.61" rx="142.5" ry="144.07"/><circle id="_グループ_-3" class="cls-3" cx="789.73" cy="155.82" r="135.14"/><path class="cls-1" d="M89.2,89.26v3.47h-9.03v3.42h8.11v3.39h-8.11v4.63h10.1v3.47h-10.1v6.31h-3.65v-6.31h-13.52v-3.47h4.02v-7.5c-.84.87-1.27,1.24-2,1.85l-2.4-3.13c3.04-2.34,5.18-5.38,6.19-8.94l3.85.72c-.26.75-.41,1.19-.78,2.08h17.31ZM70.07,92.73c-1.19,1.85-1.91,2.69-2.55,3.42h9v-3.42h-6.46ZM76.52,99.53h-5.85v4.63h5.85v-4.63Z"/><path class="cls-1" d="M105.14,91.4v-4.75h3.68v4.75h10.77v14.65h-10.77v7.9h-3.68v-7.9h-10.59v-14.65h10.59ZM105.14,94.96h-6.95v7.55h6.95v-7.55ZM115.91,94.96h-7.09v7.55h7.09v-7.55Z"/><path class="cls-1" d="M140.94,107.58v3.73h-17.42c2.55-2.61,5.33-5.47,8.25-9,3.5-4.2,4.11-5.73,4.11-7.35,0-1.85-1.22-3.47-3.47-3.47-3.33,0-5.09,3.04-5.64,4l-1.77-3.97c1.79-2.34,4.54-3.76,7.47-3.76,3.73,0,7.53,2.23,7.53,7.09,0,3.5-1.68,6.08-7.82,12.74h8.77Z"/><path class="cls-1" d="M154.68,111.31v-4.75h-10.19v-3.42l10.19-14.94h4.05v14.73h2.89v3.62h-2.89v4.75h-4.05ZM148.55,102.95h6.14v-9.12l-6.14,9.12Z"/><path class="cls-1" d="M174.8,87.78v24.43h-9.26v-24.43h9.26ZM171.7,91.2h-2.89v7.03h2.89v-7.03ZM171.7,101.36h-2.89v7.5h2.89v-7.5ZM189.44,110.91c0,1.88-.75,2.98-2.78,2.98h-4.98l-.64-3.53h4.05c.49,0,.75-.23.75-.72v-5.38h-10.02v-3.42h10.02v-2.4h-10.28v-3.39h6.45v-2.78h-5.53v-3.27h5.53v-2.34h3.56v2.34h5.7v3.27h-5.7v2.78h6.54v3.39h-2.69v2.4h2.46v3.42h-2.46v6.66ZM179.54,111.23c-1.16-2.08-1.77-3.01-3.47-5.07l2.98-1.71c1.45,1.53,2.46,2.72,3.65,4.86l-3.16,1.91Z"/><path class="cls-1" d="M196.21,87.72h11.4v10.85h-7.99v15.37h-3.42v-26.22ZM199.62,90.39v1.65h4.63v-1.65h-4.63ZM199.62,94.24v1.68h4.63v-1.68h-4.63ZM215.46,110.5h1.97c.7,0,.72-.43.72-.84v-11.09h-8.34v-10.85h11.75v23.33c0,1.04-.29,2.89-2.2,2.89h-4.95l-.46-2.81h-11.72v-11h13.23v10.36ZM205.47,102.77v1.71h6.71v-1.71h-6.71ZM205.47,106.62v1.79h6.71v-1.79h-6.71ZM213.14,90.39v1.65h5.01v-1.65h-5.01ZM213.14,94.24v1.68h5.01v-1.68h-5.01Z"/><path class="cls-1" d="M72.99,137.22h11.38c-.2,10.1,2.17,17.57,12.04,22.67l-2.49,3.62c-6.37-3.79-9.7-8.28-11.58-14.15-1.85,6.22-6.08,11.26-11.52,14.15l-2.43-3.5c2.17-1.07,5.93-2.95,9.18-8.25,3.07-5.04,3.07-9.03,3.04-10.85h-7.61v-3.68Z"/><path class="cls-1" d="M99.21,147.2h6.46v8.31c0,2.78,3.01,3.97,5.67,3.97h15.37l-.72,3.44h-14.21c-1.79,0-5.21-.49-7.21-3.18-.52.58-1.45,1.68-4.08,3.91l-1.62-3.68c1.33-.93,2.17-1.53,3.24-2.66v-6.72h-2.89v-3.39ZM101.9,136.44c2.23,1.77,3.39,2.72,4.95,4.98l-2.81,2.55c-.84-1.39-1.91-2.89-4.52-5.04l2.37-2.49ZM107.08,154.87c.72-.09.75-.09,1.53-.17v-17.74h16.38v11.29h-1.1l2.37,1.59c-.72.81-2.03,2.26-4.17,3.73.43.29,1.88,1.19,4.54,2.23l-1.85,3.33c-5.96-2.6-8.92-6.08-10.36-10.88h-2.29v6.05c2.66-.38,3.71-.61,4.54-.78l.14,3.21c-2.37.55-6.74,1.27-9,1.53l-.75-3.39ZM112.15,139.73v1.71h9.32v-1.71h-9.32ZM112.15,143.79v1.74h9.32v-1.74h-9.32ZM117.62,148.24c.29.87.67,1.88,2,3.3,1.19-.96,1.97-1.65,3.47-3.3h-5.47Z"/><path class="cls-1" d="M139.84,139.3c.35-.9.55-1.48,1.01-3.18l4.08.2c-.23.78-.78,2.29-1.16,2.98h10.77v23.76h-23.1v-23.76h8.39ZM150.87,142.6h-15.78v3.42h15.78v-3.42ZM150.87,149.17h-15.78v3.65h15.78v-3.65ZM150.87,155.97h-15.78v3.76h15.78v-3.76Z"/><path class="cls-1" d="M185.33,140.14v22.67h-24.37v-22.67h10.28v-3.88h3.68v3.88h10.42ZM171.24,143.61h-6.63v6.11h6.63v-6.11ZM171.24,153.08h-6.63v6.25h6.63v-6.25ZM181.72,143.61h-6.8v6.11h6.8v-6.11ZM181.72,153.08h-6.8v6.25h6.8v-6.25Z"/><path class="cls-1" d="M215.4,142.6c-1.13-.06-1.94-.09-2.61-.09-1.13,0-2.23.06-3.24.38-4,1.19-9.15,5.56-9.15,10.04,0,2.87,1.88,4.98,10.65,4.98.87,0,1.36-.03,1.88-.06l-.61,4.17c-5.47-.12-15.92-.26-15.92-8.89,0-5.15,4.49-8.66,7.06-10.3-2.92.2-9.75.72-12.36,1.04l-.26-4.17c1.91,0,2.89-.06,5.99-.26,7.03-.46,12.56-.61,18.44-.72l.12,3.88ZM209.47,145.7c1.3,1.62,2.2,3.27,3.24,5.44l-2.37,1.39c-.98-2.32-1.74-3.71-3.1-5.53l2.23-1.3ZM213.55,143.85c1.36,1.68,2.2,3.18,3.3,5.41l-2.37,1.33c-1.01-2.32-1.74-3.62-3.16-5.5l2.23-1.25Z"/><path class="cls-1" d="M60.53,188.68c-.29,1.94-.75,5.01-.75,8.86,0,3.01.14,9.15,2.78,9.15,1.65,0,3.07-3.18,3.96-5.79l3.13,1.85c-1.53,4.37-3.85,8.34-7.29,8.34-5.38,0-6.4-7.93-6.4-14.1,0-3.1.29-6.28.52-8.68l4.05.38ZM76.16,208.36c.14-3.71.38-12.71-5.04-17.17l3.07-2.11c4.31,4,6.17,7.9,6.17,19.08l-4.2.2Z"/><path class="cls-1" d="M92.97,206.77c5.12-.03,13.55-.64,13.55-7.79,0-3.21-1.79-5.59-5.93-5.59-2.2,0-5.44.43-14.39,2.63l-.93-4.2c1.27-.17,6.95-1.19,8.11-1.39,2.55-.46,5.24-.84,7.5-.84,6.37,0,9.78,4.17,9.78,9.32,0,3.56-1.56,7.73-6.86,9.9-2.84,1.16-6.14,1.59-9.67,1.68l-1.16-3.73Z"/><path class="cls-1" d="M140.38,192.21c-1.13-.06-1.94-.09-2.61-.09-1.13,0-2.23.06-3.24.38-4,1.19-9.15,5.56-9.15,10.04,0,2.87,1.88,4.98,10.65,4.98.87,0,1.36-.03,1.88-.06l-.61,4.17c-5.47-.12-15.92-.26-15.92-8.89,0-5.15,4.49-8.66,7.06-10.3-2.92.2-9.75.72-12.36,1.04l-.26-4.17c1.91,0,2.89-.06,5.99-.26,7.03-.46,12.56-.61,18.44-.72l.12,3.88ZM134.44,195.31c1.3,1.62,2.2,3.27,3.24,5.44l-2.37,1.39c-.98-2.32-1.74-3.71-3.1-5.53l2.23-1.3ZM138.53,193.45c1.36,1.68,2.2,3.18,3.3,5.41l-2.37,1.33c-1.01-2.32-1.74-3.62-3.16-5.5l2.23-1.25Z"/><path class="cls-1" d="M163.56,190.62v3.5h-8.34l-.12,4.28h1.74c3.65,0,5.21-.17,6.37-.46l.2,3.47c-1.42.43-3.27.55-6.51.55h-1.88c-.09,5.09-.12,6.08,5.12,6.08,2.98,0,6.22-.12,6.22-4.63,0-2.2-.67-4.05-1.53-5.96l3.53-.96c1.07,2.06,1.97,4.31,1.97,7.32,0,7.84-6.28,7.96-10.3,7.96s-6.6-.58-8.08-3.24c-.72-1.33-.9-3.39-.84-6.57h-4.98v-3.56h5.07l.06-4.28h-4.86v-3.5h4.92l.09-3.5,4.02.03-.09,3.47h8.22Z"/><path class="cls-1" d="M175.12,198.98c0-7.18,5.36-12.01,11.96-12.01s11.93,4.83,11.93,12.01-5.36,12.01-11.93,12.01-11.96-4.83-11.96-12.01ZM194.95,198.98c0-4.2-3.04-8.28-7.87-8.28s-7.9,4.08-7.9,8.28,2.98,8.28,7.9,8.28,7.87-4.17,7.87-8.28Z"/><path class="cls-1" d="M207.48,197.39l8.42-9.96h4.98l-9.32,10.65,10.13,12.45h-5.15l-9.06-11.72v11.72h-4.08v-23.1h4.08v9.96Z"/><path class="cls-1" d="M229.77,187.43l-.49,16.47h-3.36l-.49-16.47h4.34ZM225.48,206.39h4.2v4.14h-4.2v-4.14Z"/><path class="cls-1" d="M389.49,117.19c.75.52,2.72,1.82,6.28,1.82,3.91,0,5.18-2.08,5.18-3.82,0-1.85-1.51-3.36-4.98-3.36h-2.46v-3.47h2.29c2.89,0,3.88-1.68,3.88-3.04,0-2.03-1.82-2.87-3.44-2.87-2.29,0-4.2,1.07-5.64,2.66l-1.45-3.59c2.03-1.82,4.46-2.81,7.18-2.81,4.17,0,7.38,2.46,7.38,6.28,0,3.07-2.03,4.25-2.87,4.75,1.25.55,4.23,1.88,4.23,5.85,0,3.27-2.46,7.15-9.29,7.15-4.05,0-6.54-1.39-7.47-1.88l1.19-3.68Z"/><path class="cls-1" d="M411.34,121.04c7.99-1.59,8.97-5.79,9.26-10.28h-5.04c-.67,1.16-1.65,2.92-4.31,4.95l-2.4-2.52c2.75-2.06,4.69-4.63,5.53-9.87l3.65.29c-.29,1.42-.49,2.26-1.01,3.79h12.59v3.36h-5.47c-.55,8.13-4.37,11.69-11.23,13.26l-1.56-2.98Z"/><path class="cls-1" d="M457.67,122.02c0,2.17-1.5,2.87-2.72,2.87h-6.17l-.58-3.79h4.8c.67,0,.93-.35.93-.93v-4.49h-13.52c-.41,3.39-1.48,6.66-3.59,9.29l-3.27-2.66c1.33-1.85,3.36-4.69,3.36-11.55v-12.04h20.75v23.3ZM440.65,102.22v3.21h13.29v-3.21h-13.29ZM440.65,108.76v3.53h13.29v-3.53h-13.29Z"/><path class="cls-1" d="M470.46,112.18c-1.07,1.36-1.27,2.49-1.27,3.3,0,3.07,3.94,3.47,7.5,3.47,4.28,0,6.89-.23,9.44-.49l.09,3.94c-2.03.14-4.57.32-7.96.32-4.98,0-13.03,0-13.03-6.86,0-2.23.84-3.73,2.03-5.41l3.21,1.74ZM482.56,104.36c-2.66.75-4.57,1.62-7.24,3.68l-2.98-2c1.04-.75,1.85-1.16,3.24-1.79-2.63.03-6.43.12-8.97.23v-3.79c1.97.06,4.72.03,8.02.03,2.23,0,6.8,0,7.93-.03v3.68ZM484.06,97.65c1.19,1.77,1.88,3.3,2.75,5.56l-2.11,1.13c-.78-2.34-1.36-3.62-2.6-5.67l1.97-1.01ZM488.15,96.58c1.22,1.77,1.88,3.3,2.75,5.56l-2.11,1.13c-.78-2.34-1.39-3.65-2.61-5.64l1.97-1.04Z"/><path class="cls-1" d="M515.12,109.28c-2.37.23-16.7,1.88-16.7,7.29,0,2.81,3.3,3.01,8.22,3.01s7.82-.32,9.38-.46v3.97c-1.68.12-4.11.29-8.25.29-4.81,0-13.46,0-13.46-6.63,0-4.81,5.5-7.38,7.38-8.25-1.13-1.82-1.19-4.08-1.19-9.55h4.14c-.03.9-.06,1.85-.06,3.42,0,2.58.09,3.85.64,4.83,1.65-.52,3.76-1.13,9.44-1.97l.46,4.05Z"/><path class="cls-1" d="M527.12,99.59c-.38,1.77-1.22,5.93-1.22,13.29,0,5.85.55,8.89.81,10.28l-4.05.29c-.26-1.59-.69-4.37-.69-9.93,0-7.61.72-12.19,1.07-14.21l4.08.29ZM534.53,112.18c-1.16,1.53-1.39,2.87-1.39,3.5,0,2.14,2.46,2.43,5.21,2.43,2.14,0,4.66-.12,6.8-.35v3.97c-1.1.12-2.87.26-5.41.26-5.33,0-10.16-.67-10.16-5.76,0-.69.06-2.58,1.51-5.01l3.44.96ZM544.61,101.41v3.76h-14.15v-3.76h14.15Z"/><path class="cls-1" d="M382.33,150.56l4.2,4.89c-.78,3.97-1.74,7.5-4.72,10.91-2.4,2.75-6.69,5.67-12.62,6.71l-1.77-3.62c12.04-2.11,14.21-8.89,15.14-15.11h-17.17v-3.79h16.93ZM391.97,150.21c0,2.2-1.77,3.97-3.96,3.97s-3.97-1.77-3.97-3.97,1.79-3.97,3.97-3.97,3.96,1.74,3.96,3.97ZM385.95,150.21c0,1.16.93,2.06,2.06,2.06s2.05-.87,2.05-2.06-.96-2.05-2.05-2.05-2.06.87-2.06,2.05Z"/><path class="cls-1" d="M418.39,150.44v21.3h-22v-21.3h22ZM414.48,154.09h-14.18v14.01h14.18v-14.01Z"/><path class="cls-1" d="M425.42,170.12c12.22-1.97,15.52-9.44,16.85-16.04h-8.86c-1.42,2.23-3.53,4.95-7.03,7.15l-2.46-2.87c3.07-1.91,5.44-4.54,6.98-7.84h11.72l3.33,4.49c-1.65,7.21-4.98,16.01-18.93,18.7l-1.59-3.59ZM444.72,147.34c1.42,1.77,2.11,3.01,3.27,5.27l-1.97,1.33c-.98-2.23-1.74-3.5-3.16-5.38l1.85-1.22ZM448.57,146.24c1.39,1.77,2.03,2.95,3.18,5.33l-1.97,1.27c-1.01-2.23-1.59-3.36-3.07-5.41l1.85-1.19Z"/><path class="cls-1" d="M478.32,156.29c-.43,4.63-2.05,10.1-6.14,13-1.74,1.22-5.24,3.13-12.65,3.82l-1.16-3.65c7.55-.43,13.78-2.26,15.4-9.61h-18.55v-3.56h23.1ZM476.53,149.43v3.53h-19.22v-3.53h19.22Z"/><path class="cls-1" d="M483.99,168.16h2.78c.17-.43,3.04-8.1,5.85-19.54l4.14.75c-2.52,9.9-5.3,16.64-6.17,18.7,5.85-.17,6.46-.23,11.93-.67-1.68-3.36-3.21-5.62-4.23-7.09l3.33-1.59c3.3,4.34,5.18,7.79,7.18,12.85l-3.82,1.71c-.49-1.33-.67-1.82-.98-2.61-6.57.72-9.44,1.04-19.54,1.48l-.46-4Z"/><path class="cls-1" d="M517.67,164.65v9.84h-3.62v-23.3h10.48v-3.97h3.68v3.97h10.39v20.7c0,.75-.23,2.61-2.58,2.61h-5.3l-.61-3.68h4.11c.43,0,.75-.12.75-.69v-5.44l-2,2.84c-3.5-2.58-5.36-5.07-6.6-8.57-1.48,4.2-4.66,7.21-6.75,8.54l-1.97-2.84ZM517.67,154.67v9.52c3.39-2.14,5.79-5.59,6.57-9.52h-6.57ZM534.98,154.67h-6.6c.35,2.17,1.27,5.96,6.6,9.58v-9.58Z"/><path class="cls-1" d="M566.84,174.09h-20.32v-8.54c-.75.26-1.07.38-2.14.72l-1.56-3.56c2.84-.55,7.76-1.74,12.04-5.76h3.73c1.13,1.1,4.37,4.26,12.07,5.82l-1.65,3.44c-.58-.17-.75-.23-2.17-.72v8.6ZM543.8,157.13c3.24-.87,5.88-2.05,8.22-4.37l2.69,1.94c-2.43,2.37-5.15,4-9.26,5.56l-1.65-3.13ZM558.48,147.2v2.08h11.12v6.34h-3.56v-3.13h-18.67v3.13h-3.5v-6.34h11v-2.08h3.62ZM563.25,166.68h-13.17v4.25h13.17v-4.25ZM562.5,163.61c-2.34-1.27-3.88-2.4-5.79-4.11-.78.72-2.81,2.58-5.76,4.11h11.55ZM561.32,152.81c2.98,2.52,4.92,3.27,8.45,4.14l-1.68,3.27c-4.02-1.36-6.83-2.95-9.67-5.41l2.89-2Z"/><path class="cls-1" d="M441.71,200.46v3.27h-12.19c-.52,1.33-.84,2-1.48,3.13,1.82-.93,2.55-1.27,3.94-1.27,2.63,0,3.85,1.16,4.49,2.95,3.62-1.36,5.24-1.94,6.8-2.37l.78,3.59c-1.53.35-3.73.9-6.98,2.03.03.61.12,1.5.12,2.89,0,.96-.03,1.62-.06,2.11h-3.65c.14-1.68.12-2.89.09-3.56-2.98,1.36-4.2,2.63-4.2,3.94,0,2.11,2.49,2.11,5.62,2.11.52,0,4.17,0,7.38-.38l.06,3.62c-2.29.12-4.6.2-6.46.2-4.08,0-10.51-.14-10.51-5.12,0-3.94,4.92-6.37,7.61-7.64-.2-.52-.52-1.36-2.14-1.36-.81,0-2.69.29-5.09,2.66-.61.87-2.84,3.94-3.94,5.04l-2.61-2.69c2.72-2.63,4.75-5.47,6.37-9.87h-5.35v-3.27h6.34c.26-1.13.38-1.74.55-2.89l3.99.2c-.2,1.1-.35,1.65-.61,2.69h11.12Z"/><path class="cls-1" d="M473.98,224.08c-3.53-.03-9.7-.35-15.69-3.04-1.53,1.16-4.52,2.6-8.92,3.16l-1.56-3.65c2.26-.2,4.89-.67,6.89-1.53-.98-.67-1.71-1.25-2.98-2.66l2.61-1.56h-4.26v-12.19h9.73v-1.71h-11.75v-3.16h27.04v3.16h-11.81v1.71h9.75v12.19h-10.42c-.09.23-.58,1.97-1.85,3.79,3.76,1.33,8.05,1.79,12.36,1.79.96,0,1.59-.03,2.2-.06l-1.33,3.76ZM459.8,207.26v-1.91h-6.25v1.91h6.25ZM459.68,211.86c.12-.72.12-1.27.12-2h-6.25v2h6.14ZM454.65,214.78c1.39,1.3,2.14,1.74,2.89,2.2.38-.46.87-1.13,1.36-2.2h-4.25ZM463.27,209.86c0,.67,0,1.25-.09,2h6.37v-2h-6.28ZM463.27,205.35v1.91h6.28v-1.91h-6.28Z"/><path class="cls-1" d="M477.76,219.01c1.97-1.3,3.97-2.84,5.44-4.69h-4.63v-3.16h5.59v-2.26h-5.73v-3.16h2.95c-.17-1.19-.38-2.49-.75-3.62h-1.65v-3.15h5.18v-2.17h3.33v2.17h4.8v3.15h-1.36c-.43,1.94-.52,2.32-.9,3.62h2.55v3.16h-5.15v2.26h4.69v3.16h-3.82c1.65,1.91,2.46,2.49,3.42,3.13l-1.71,3.1c-1.33-1.3-1.82-1.88-2.58-3.04v6.69h-3.27v-6.57c-2.08,2.87-3.73,4.11-4.75,4.83l-1.65-3.44ZM483.73,202.13c.35,1.16.58,2.4.78,3.62h2.46c.32-1.01.64-2.69.75-3.62h-3.99ZM505.49,200.05c-2.58,1.16-5.73,1.85-8.6,1.97v3.79h8.6v3.42h-2.55v14.97h-3.53v-14.97h-2.52v.96c0,8.74-2.4,12.16-3.71,14.01l-3.21-2.2c1.97-2.52,3.53-5.38,3.53-11.75v-11.46c1.33,0,5.59.06,10.3-2.05l1.68,3.33Z"/><path class="cls-1" d="M514.49,198.4l-.49,16.47h-3.36l-.49-16.47h4.34ZM510.21,217.36h4.2v4.14h-4.2v-4.14Z"/><path class="cls-1" d="M716.6,103.44v-3.65h3.62v3.65h3.07c.38-.67.84-1.53,1.82-3.73l3.5,1.19c-.35.87-.87,1.91-1.25,2.55h4.08v7.38h-3.56v-4.43h-18.79v4.43h-3.56v-7.38h4.14c-.41-.84-1.27-2.34-1.42-2.55l3.53-1.07c.61.98,1.53,2.87,1.85,3.62h2.95ZM720.24,119.62v7.53h-3.65v-7.53h-6.19v6.43h-3.68v-9.35h9.87v-1.62h-6.8v-7.32h17.4v7.32h-6.95v1.62h9.93v6.46c0,1.21-.03,2.89-2.37,2.89h-4l-.78-3.3h2.55c.72,0,.96-.2.96-.81v-2.32h-6.28ZM723.72,110.33h-10.45v2.2h10.45v-2.2Z"/><path class="cls-1" d="M742.09,101.79c-.38,1.77-1.22,5.93-1.22,13.29,0,5.85.55,8.89.81,10.28l-4.05.29c-.26-1.59-.69-4.37-.69-9.93,0-7.61.72-12.19,1.07-14.21l4.08.29ZM749.5,114.38c-1.16,1.53-1.39,2.87-1.39,3.5,0,2.14,2.46,2.43,5.21,2.43,2.14,0,4.66-.12,6.8-.35v3.97c-1.1.12-2.87.26-5.41.26-5.33,0-10.16-.67-10.16-5.76,0-.69.06-2.58,1.51-5.01l3.44.96ZM759.57,103.61v3.76h-14.15v-3.76h14.15Z"/><path class="cls-1" d="M791.7,104.48h-27.21v-3.01h11.72v-1.74h3.73v1.74h11.75v3.01ZM771.49,124.6v-7.12h13.34v6.28h1.56c.41,0,.64-.14.64-.69v-6.92h-17.8v10.94h-3.65v-13.66h25.07v11.09c0,1.62-.9,2.58-2.14,2.58h-4.57l-.46-2.49h-11.98ZM788.02,112.15h-19.89v-6.6h19.89v6.6ZM784.43,107.9h-12.77v1.82h12.77v-1.82ZM781.45,119.94h-6.6v2.11h6.6v-2.11Z"/><path class="cls-1" d="M807.2,113.28v13.23h-11.49v-13.23h11.49ZM818.49,100.69v10.54h-20.03v-10.54h20.03ZM799.07,116.49v6.77h4.75v-6.77h-4.75ZM801.94,103.87v4.23h13.11v-4.23h-13.11ZM821.16,113.28v13.23h-11.96v-13.23h11.96ZM812.59,116.49v6.77h5.21v-6.77h-5.21Z"/><path class="cls-1" d="M839.9,110.07l-2.14-1.91c1.53-1.3,2-2.92,2-4.2v-3.44c6.37-.03,9.03-.52,10.97-.98l1.25,2.63c-3.01.72-8.66.84-9,.84v1.07h9.44v2.43h-3.85v2.98h-3.27v-2.98h-2.72c-.26,1.07-.67,2.32-1.88,3.56h9.06v12.56h-5.24c2.81,1.01,4.81,1.42,7.99,1.48l-1.42,3.1c-.93-.09-5.44-.43-9.47-2.66l1.77-1.91h-9.32l1.79,1.94c-3.16,1.45-5.44,2.05-9.47,2.55l-1.36-3.04c4.69-.26,7.06-1.04,8.02-1.45h-5.27v-11.32c-.09.09-.14.14-.38.35l-2.43-2.43c1.5-1.39,2.08-3.33,2.08-4.89v-3.79c3.27,0,7.09-.14,10.39-.98l1.16,2.66c-1.19.23-3.24.67-8.37.72v1.13h8.39v2.43h-3.24v2.98h-3.3v-2.98h-2.11c-.09.87-.52,2.49-1.27,3.56h11.2ZM846.21,112.44h-14.91v1.33h14.91v-1.33ZM846.21,115.57h-14.91v1.39h14.91v-1.39ZM846.21,118.78h-14.91v1.5h14.91v-1.5Z"/><path class="cls-1" d="M870.81,104.34v3.62h-5.99c-1.42,6.86-3.18,11.32-4.54,14.68l-3.94-1.48c.81-1.5,3.07-5.7,4.6-13.2h-4.14v-3.62h4.81c.17-1.39.29-2.2.38-3.44l4.02.14c-.23,1.82-.29,2.17-.49,3.3h5.3ZM876.6,116.09c2.05.98,4.25,2.63,5.59,3.97l-2.2,3.59c-1.42-1.68-2.52-2.55-3.65-3.33v.64c0,2.89-2.29,4.8-6.02,4.8-4.28,0-6.75-2.32-6.75-5.38,0-2.49,1.88-5.67,6.92-5.67,1.04,0,1.79.12,2.29.2l-.12-5.62h3.82l.12,6.8ZM872.9,118.35c-.52-.17-1.19-.46-2.4-.46-2.11,0-3.47.98-3.47,2.4,0,.38.14,2.2,3.24,2.2,1.74,0,2.63-.67,2.63-2.52v-1.62ZM880.33,110.07c-2.98-1.77-5.21-2.81-8.19-3.88l1.62-3.24c3.01.98,5.15,1.94,8.28,3.71l-1.71,3.42Z"/><path class="cls-1" d="M724.05,152.76l4.2,4.89c-.78,3.97-1.74,7.5-4.72,10.91-2.4,2.75-6.69,5.67-12.62,6.71l-1.77-3.62c12.04-2.11,14.21-8.89,15.14-15.11h-17.17v-3.79h16.93ZM733.69,152.41c0,2.2-1.77,3.97-3.96,3.97s-3.97-1.77-3.97-3.97,1.79-3.97,3.97-3.97,3.96,1.74,3.96,3.97ZM727.67,152.41c0,1.16.93,2.06,2.06,2.06s2.05-.87,2.05-2.06-.96-2.05-2.05-2.05-2.06.87-2.06,2.05Z"/><path class="cls-1" d="M760.11,152.64v21.3h-22v-21.3h22ZM756.2,156.29h-14.18v14.01h14.18v-14.01Z"/><path class="cls-1" d="M767.14,172.33c12.21-1.97,15.51-9.44,16.85-16.04h-8.86c-1.42,2.23-3.53,4.95-7.03,7.15l-2.46-2.87c3.07-1.91,5.44-4.54,6.98-7.84h11.72l3.33,4.49c-1.65,7.21-4.98,16.01-18.93,18.7l-1.59-3.59ZM786.44,149.55c1.42,1.77,2.11,3.01,3.27,5.27l-1.97,1.33c-.98-2.23-1.74-3.5-3.16-5.38l1.85-1.22ZM790.29,148.44c1.39,1.77,2.03,2.95,3.18,5.33l-1.97,1.27c-1.01-2.23-1.59-3.36-3.07-5.41l1.85-1.19Z"/><path class="cls-1" d="M820.04,158.49c-.43,4.63-2.05,10.1-6.14,13-1.74,1.22-5.24,3.13-12.65,3.82l-1.16-3.65c7.55-.43,13.78-2.26,15.4-9.61h-18.55v-3.56h23.1ZM818.25,151.63v3.53h-19.22v-3.53h19.22Z"/><path class="cls-1" d="M825.71,170.36h2.78c.17-.43,3.04-8.1,5.85-19.54l4.14.75c-2.52,9.9-5.3,16.64-6.17,18.7,5.85-.17,6.46-.23,11.93-.67-1.68-3.36-3.21-5.62-4.23-7.09l3.33-1.59c3.3,4.34,5.18,7.79,7.18,12.85l-3.82,1.71c-.49-1.33-.67-1.82-.98-2.61-6.57.72-9.44,1.04-19.54,1.48l-.46-4Z"/><path class="cls-1" d="M854.93,173.31c2.95-5.12,4.08-10.54,4.8-14.04l-4.25.03v-3.65h4.83c.2-1.48.32-2.52.49-5.15l4,.32c-.17,1.36-.38,3.01-.64,4.83h2.32c4.17,0,5.96,1.88,5.96,7.96,0,10.54-3.3,11.61-6.22,11.61-1.45,0-2.46-.2-3.16-.35l-.17-3.73c.81.17,1.71.38,2.55.38,1.45,0,2.29-.72,2.72-2.37.52-2.08.69-4.37.69-6.19,0-2.03-.03-3.76-2.75-3.73l-2.58.03c-1.01,5.24-2.43,10.97-5.04,16.04l-3.56-1.97ZM875.57,167.49c-.46-7.58-3.18-10.59-4.17-11.69l2.58-1.82c3.53,3.91,4.89,8.31,5.44,13l-3.85.52ZM876.01,150.47c1.48,1.68,2.43,3.24,3.45,5.15l-1.94,1.39c-1.07-2.23-1.85-3.44-3.33-5.24l1.82-1.3ZM879.22,148.44c1.39,1.56,2.2,2.87,3.47,5.15l-1.94,1.39c-1.1-2.23-1.85-3.42-3.36-5.24l1.82-1.3Z"/><path class="cls-1" d="M739.2,210.44c-2.6,1.94-5.82,3.15-6.77,3.53l-.96-3.68c3.82-1.24,5.85-2.6,6.75-3.21l.98,3.36ZM743.71,213.16h-4.2v-12.33h3.47c.23-.43.29-.58.67-1.85h3.91c-.2.67-.43,1.27-.69,1.85h4.72v12.33h-4.34v1.42h11.81v3.3h-8.94c1.91,1.36,5.07,3.04,9.35,4.4l-2.03,3.47c-1.5-.67-6.28-2.78-10.19-6.57v7.06h-3.53v-6.74c-3.68,3.39-7.76,5.24-10.3,6.31l-1.85-3.56c5.33-1.48,8.45-3.56,9.58-4.37h-9.23v-3.3h11.81v-1.42ZM733.87,200.08c1.79.87,3.68,2.08,5.21,3.44l-2.06,2.92c-1.53-1.48-3.1-2.55-5.04-3.56l1.88-2.81ZM742.79,203.64v2.06h5.5v-2.06h-5.5ZM742.79,208.1v2.2h5.5v-2.2h-5.5ZM753.55,206.77c1.39.64,4.11,2.17,6.17,4.02l-2.26,3.27c-1.19-1.25-2.72-2.58-5.82-4.28l1.91-3.01ZM759.08,202.25c-1.24,1.53-3.18,3.36-4.66,4.46l-2.32-2.63c2.87-2.26,3.88-3.47,4.46-4.2l2.52,2.37Z"/><path class="cls-1" d="M769.32,200.57c-.29,6.4-.41,13.6-.41,14.3,0,3.33.29,6.34,4.86,6.34,6.8,0,7.76-5.24,8.45-9.12l3.62,1.59c-1.48,7.56-5.07,11.26-12.04,11.26-7.96,0-8.86-4.92-8.86-10.25,0-2.23.14-12.16.14-14.18l4.23.06Z"/><path class="cls-1" d="M795.71,201.79c.17,1.45.32,2.46.81,4.66,3.01-1.56,5.15-1.71,6.02-1.77.14-1.74.17-2.63.23-4.4l3.94.26c-.17,2.26-.23,3.04-.38,4.2,8.65,1.1,8.65,9.03,8.65,10.02,0,9.32-9.06,10.02-11.38,10.19l-1.1-3.5c4.6-.17,8.77-1.74,8.77-6.92,0-5.5-4.08-6.25-5.53-6.46-2.03,11.72-7.06,15.02-10.33,15.02-3.5,0-5.3-3.16-5.3-6.57,0-2.55.93-5.7,3.56-8.13-.58-1.85-.96-3.76-1.3-5.73l3.33-.87ZM794.9,212.04c-.41.58-1.42,2.11-1.42,4.49,0,1.68.72,3.01,2.14,3.01,1.07,0,1.79-.58,2.69-1.56-.32-.32-1.82-1.91-3.42-5.93ZM802.28,207.98c-2.52.41-4.02,1.19-4.86,1.71.58,1.94,1.56,4.25,2.63,5.67.78-1.5,1.65-4.25,2.23-7.38Z"/><path class="cls-1" d="M839.12,203.81c-1.56,1.07-4.63,3.47-6.92,5.27,1.36-.38,2.69-.58,3.68-.58,3.45,0,7.9,1.91,7.9,7.61s-4.49,8.92-10.68,8.92c-5.36,0-7.76-2.49-7.76-5.07s2.29-4.52,5.36-4.52c2.63,0,5.82,1.56,6.98,5.01,1.68-1.04,2.32-2.75,2.32-4.23,0-2.66-1.79-4.6-5.67-4.6-4.49,0-7.79,2.43-12.19,6.6l-2.17-3.24c1.19-.87,6.25-4.75,12.88-10.57-3.1.2-6.05.35-9.73.41v-3.73c6.34.03,9.15,0,16.01-.29v3.01ZM830.62,218.43c-1.19,0-1.91.75-1.91,1.36,0,1.36,1.62,2.23,4.05,2.23.98,0,1.59-.14,1.85-.2-.72-2.11-2-3.39-3.99-3.39Z"/><path class="cls-1" d="M854.23,200.6l-.49,16.47h-3.36l-.49-16.47h4.34ZM849.95,219.56h4.2v4.14h-4.2v-4.14Z"/></g></svg>