<?xml version="1.0" encoding="UTF-8"?><svg id="_レイヤー_2" xmlns="http://www.w3.org/2000/svg" viewBox="0 0 590.71 79"><defs><style>.cls-1{fill:#fff;stroke-width:0px;}</style></defs><g id="DESIGN"><path class="cls-1" d="M22.2,58.77L30.96,0H10.73L.04,69.68c-.4,3.46,2.14,9.32,8.54,9.32h65.08l2.77-17.51-51.82.02c-1.66,0-2.54-1.54-2.4-2.74h0Z"/><path class="cls-1" d="M387.92,59.17l7.11-49.16h-19.12l-9.37,61.57c-.34,3.81,3.08,7.42,7.44,7.42h56.39l2.7-17.46h-42.98c-1.47,0-2.25-1.47-2.17-2.37h0Z"/><path class="cls-1" d="M461.24,59.17l7.11-49.16h-19.12l-9.37,61.57c-.34,3.81,3.08,7.42,7.44,7.42h56.4l2.7-17.46h-42.99c-1.46,0-2.25-1.47-2.17-2.37h0Z"/><polygon class="cls-1" points="347.78 10 337.14 79 357 79 367.64 10 347.78 10 347.78 10"/><path class="cls-1" d="M309.28,0c-3.36,0-4.34,2.26-4.52,2.64,0,0-15.24,38.73-15.36,39.06-.13.33-.26.5-.55.5-.36,0-.38-.23-.42-.5-.03-.26-4.09-38.5-4.09-38.5-.02-.56-.77-3.2-3.84-3.2h-30.07l-12.35,79h20.4l7.69-51.67,6.88,47.24c.51,3.94,3.44,4.43,4.54,4.43h10.31c1.87,0,3.49-1.16,4.5-3.46l22.86-48.21-7.74,51.67h21.21L341.47,0h-32.19Z"/><path class="cls-1" d="M105.33,54.18c.12-.85.67-1.05,1.04-1.05h43.96c4.4,0,7.5-2.34,8.37-8.08l4.46-28.68c.28-1.97-.7-6.38-6.03-6.37h-56.04c-3.6,0-8.91,2.55-9.75,9.54l-8.02,51.56c-.9,5.11,2.69,7.89,6.63,7.89h63.53l2.72-17.43h-50.88c-.53,0-1.08-.47-.96-1.2l.98-6.18h0ZM108.36,34.75l.99-6.56c.07-.49.5-.85.99-.85h31.3c.63,0,1.12.58,1.03,1.19l-1.01,6.43c-.09.57-.53.94-1.03.94h-31.28c-.61,0-1.09-.54-.99-1.15h0Z"/><path class="cls-1" d="M188.69,28.18c.07-.5.5-.86.99-.86h47.98l2.83-17.3h-59.19c-6.51,0-9.56,4.57-9.99,7.79l-4.51,29.03c-.46,3.56,2.55,6.3,5.58,6.3h41.15c.71,0,1.11.6,1.03,1.16l-.99,6.35c-.1.66-.65.9-1.07.9h-47.94l-2.74,17.43h60.69c4.25,0,7.63-2.64,8.19-6.22l4.77-30.48c.42-2.75-1.34-6.42-6.1-6.42h-40.67c-.62,0-1.09-.54-.99-1.15l.99-6.55h0Z"/><path class="cls-1" d="M538.92,28.18c.07-.5.5-.86.99-.86h47.97l2.83-17.3h-59.19c-6.51,0-9.55,4.57-9.98,7.79l-4.52,29.03c-.46,3.56,2.55,6.3,5.58,6.3h41.15c.72,0,1.11.6,1.03,1.16l-1,6.35c-.1.66-.64.9-1.07.9h-47.94l-2.75,17.43h60.69c4.25,0,7.63-2.64,8.19-6.22l4.77-30.48c.41-2.75-1.34-6.42-6.1-6.42h-40.67c-.62,0-1.09-.54-.99-1.15l.99-6.55h0Z"/></g></svg>