<?xml version="1.0" encoding="UTF-8"?><svg id="_レイヤー_2" xmlns="http://www.w3.org/2000/svg" viewBox="0 0 32 32"><defs><style>.cls-1{fill:#54c2f0;}.cls-1,.cls-2,.cls-3,.cls-4{stroke-width:0px;}.cls-2{fill:none;}.cls-3,.cls-5{fill:#fff100;}.cls-5{stroke:#54c2f0;stroke-miterlimit:10;stroke-width:1.31px;}.cls-4{fill:#54c2f0;}</style></defs><g id="DESIGN"><path class="cls-1" d="M24,17.44l-5.12,2.86s-2.72,2-6.34-.08l-4.13-2.55c-.82-.36-.69-1.13-.69-1.13l-.11-8.48c.04-.89.8-1.22.8-1.22,2.48-1.35,4.03-2.51,4.03-2.51,0,0,2.71-1.74,6.02-.05l5.29,2.99s.73.38.73,1.34v7.62s0,.9-.48,1.19Z"/><path class="cls-3" d="M31.08,13.58l.52-.41c.9-.64,0-1.49,0-1.49l-.56-.41c-.53-.37-.59.33-.59.33l-.05,1.74s-.03.79.68.25Z"/><path class="cls-3" d="M28.06,12.42c0,1.68.4,2.83.87,2.56s.86-1.42.86-2.55-.39-2.28-.87-2.56-.87.87-.86,2.55Z"/><path class="cls-3" d="M25.53,12.46c0,2.49.38,4.3.85,4.03s.85-2.09.86-4.03-.37-3.76-.85-4.03-.86,1.54-.86,4.03Z"/><path class="cls-3" d="M.92,13.58l-.52-.41c-.9-.64,0-1.49,0-1.49l.56-.41c.53-.37.59.33.59.33l.05,1.74s.03.79-.68.25Z"/><path class="cls-3" d="M3.94,12.42c0,1.68-.4,2.83-.87,2.56s-.86-1.42-.86-2.55.39-2.28.87-2.56.87.87.86,2.55Z"/><path class="cls-3" d="M6.47,12.46c0,2.49-.38,4.3-.85,4.03s-.85-2.09-.86-4.03.37-3.76.85-4.03.86,1.54.86,4.03Z"/><path class="cls-3" d="M11.74,10.34c.06.06.09.14.09.23v.88c0,.09-.03.16-.09.23-.06.06-.14.09-.23.09h-1.82l-.09.09v.94h-.64v-2.23c0-.09.03-.16.09-.23.06-.06.14-.09.23-.09h2.23c.09,0,.16.03.23.09ZM11.11,11.22l.09-.09v-.25l-.09-.09h-1.41l-.09.09v.25l.09.09h1.41Z"/><path class="cls-3" d="M15.48,10.25v2.23c0,.09-.03.16-.09.23-.06.06-.14.09-.23.09h-2.17c-.08,0-.16-.03-.23-.09-.06-.06-.09-.14-.09-.23v-2.23h.64v1.92l.09.09h1.36l.09-.09v-1.92h.64Z"/><path class="cls-3" d="M18.58,12.14c.1.08.21.18.35.3.14.11.29.23.46.37h-.95l-1.16-1.04s-.07-.07-.09-.11c-.02-.04-.04-.09-.04-.15,0-.02,0-.04,0-.06,0-.02,0-.04.02-.06.02-.05.05-.09.09-.12.04-.03.1-.04.17-.04h1.01l.09-.09v-.25l-.09-.09h-1.41l-.09.09v1.91h-.63v-2.23c0-.09.03-.16.09-.23.06-.06.14-.09.23-.09h2.23c.09,0,.16.03.23.09.06.06.09.14.09.23v.88c0,.09-.03.16-.09.23-.06.06-.14.09-.23.09h-.58v.11c.09.08.19.16.31.26Z"/><path class="cls-3" d="M20.85,11.13l.09.09h1.58v.54h-1.58l-.09.09v.31l.09.09h2.14v.55h-2.55c-.09,0-.16-.03-.23-.09-.06-.06-.09-.14-.09-.23v-1.92c0-.09.03-.16.09-.23.06-.06.14-.09.23-.09h2.55v.55h-2.14s-.09.09-.09.09v.25Z"/><path class="cls-3" d="M10.36,13.81s.05.07.05.11v.47s-.02.08-.05.11c-.03.03-.07.05-.11.05h-1.25v-.27h1.05l.04-.04v-.16l-.04-.04h-.91s-.08-.02-.11-.05c-.03-.03-.05-.07-.05-.11v-.44s.02-.08.05-.11.07-.05.11-.05h1.25v.27h-1.04l-.04.05v.12l.04.04h.91s.08.02.11.05Z"/><path class="cls-3" d="M12.29,13.55h-.6l-.05.05v.96h-.32v-.96l-.04-.05h-.6v-.27h1.61v.27Z"/><path class="cls-3" d="M13.7,14.22s.11.09.17.15c.07.06.14.12.23.18h-.47l-.58-.52s-.03-.03-.05-.05-.02-.04-.02-.08c0,0,0-.02,0-.03,0-.01,0-.02,0-.03,0-.02.02-.04.05-.06.02-.01.05-.02.09-.02h.51l.04-.04v-.12l-.04-.05h-.7l-.05.05v.96h-.32v-1.11s.01-.08.04-.11.07-.05.11-.05h1.11s.08.02.11.05c.03.03.05.07.05.11v.44s-.02.08-.05.11-.07.05-.11.05h-.29v.06s.1.08.15.13Z"/><path class="cls-3" d="M14.7,13.72l.05.05h.79v.27h-.79l-.05.05v.15l.05.04h1.07v.27h-1.28s-.08-.02-.11-.05c-.03-.03-.05-.07-.05-.11v-.96s.02-.08.05-.11.07-.05.11-.05h1.28v.28h-1.07s-.05.05-.05.05v.12Z"/><path class="cls-3" d="M17.56,13.28v1.11s-.02.08-.05.11c-.03.03-.07.05-.11.05h-.08s-.09-.02-.12-.06c-.13-.14-.24-.26-.33-.36-.09-.1-.17-.18-.23-.25-.07-.08-.13-.14-.18-.19h-.06v.85h-.32v-1.11s.02-.08.05-.11.07-.05.11-.05h.15s.05,0,.07.02c.02.01.04.02.05.04.11.12.21.23.29.32.08.09.15.17.21.23.07.07.12.14.17.19h.05v-.8h.32Z"/><path class="cls-3" d="M18.95,13.65v-.06l-.05-.04h-.71l-.04.04v.64l.04.04h.71l.04-.04v-.16l-.04-.04h-.45v-.27h.66s.08.02.11.05c.03.03.05.07.05.11v.47s-.02.08-.05.11c-.03.03-.07.05-.11.05h-1.11s-.08-.02-.11-.05c-.03-.03-.05-.07-.05-.11v-.96s.02-.08.05-.11.07-.05.11-.05h1.12s.08.02.11.05c.03.03.05.07.05.11v.21h-.32Z"/><path class="cls-3" d="M21.15,13.55h-.6l-.05.05v.96h-.32v-.96l-.04-.05h-.6v-.27h1.61v.27Z"/><path class="cls-3" d="M22.86,13.28v1.27h-.32v-.47l-.05-.04h-.7l-.04.05v.47h-.32v-1.27h.32v.44l.04.04h.7l.05-.04v-.44h.32Z"/><path class="cls-5" d="M27.62,28.43s-.02.01-.03.01h0s0,0,0,0c-.01,0-.02,0-.03-.01-.27-.22-.42-.45-.5-.69-.09-.29-.07-.57,0-.83,0-.03.04-.05.07-.04.03,0,.05.04.04.07-.07.23-.09.5,0,.76.07.2.2.41.43.61.23-.2.36-.4.43-.61.09-.27.06-.53,0-.77,0-.03,0-.06.04-.07.03,0,.06,0,.07.04.08.25.1.54,0,.83-.08.23-.23.47-.5.69"/><path class="cls-5" d="M29.85,27.46s0,0,0,.01c0,0,0,.01,0,.02,0,0,0,0,0,0,0,0-.01,0-.02,0,0,0,0,0-.01,0-.34.03-.62-.02-.84-.14-.27-.14-.46-.36-.58-.59-.01-.03,0-.06.02-.08.03-.01.06,0,.08.02.12.21.29.42.53.54.19.1.43.15.73.13.02-.3-.03-.55-.13-.74h0c-.13-.25-.34-.42-.56-.54-.03-.01-.04-.05-.02-.08.01-.03.05-.04.08-.02.24.12.46.31.6.58.11.22.17.5.14.85"/><path class="cls-5" d="M30.75,25.2s.01.02.01.03h0s0,0,0,0c0,.01,0,.02-.01.03-.22.27-.46.42-.7.5-.29.09-.58.06-.84-.01-.03,0-.05-.04-.04-.07,0-.03.04-.05.07-.04.24.07.5.1.77.01.21-.07.42-.2.62-.43-.23-.26-.47-.4-.71-.45-.25-.06-.49-.02-.71.05-.03,0-.06,0-.07-.04,0-.03,0-.06.04-.07.23-.08.5-.11.77-.05.27.06.54.22.8.53"/><path class="cls-5" d="M25.36,27.54s0,0-.01,0c0,0-.01,0-.02,0,0,0,0,0,0,0,0,0,0-.01,0-.02,0,0,0,0,0-.01-.03-.35.02-.62.14-.84.14-.27.36-.46.6-.58.03-.01.06,0,.08.02.01.03,0,.06-.02.08-.22.12-.42.29-.55.54-.1.19-.15.43-.13.74.3.02.54-.03.73-.13.25-.13.42-.33.54-.55.01-.03.05-.04.08-.02.03.01.04.05.02.08-.13.23-.31.46-.58.6-.22.11-.5.17-.84.14"/><path class="cls-5" d="M27.54,22.03s.02-.01.03-.01h0s0,0,0,0c.01,0,.02,0,.03.01.27.22.42.45.5.69.09.29.07.57,0,.83,0,.03-.04.05-.07.04-.03,0-.05-.04-.04-.07.07-.23.09-.5,0-.76-.07-.2-.2-.41-.43-.61-.23.2-.36.4-.43.61-.09.27-.06.53,0,.77,0,.03,0,.06-.04.07-.03,0-.06,0-.07-.04-.08-.25-.1-.54,0-.83.08-.23.23-.47.5-.69"/><path class="cls-5" d="M25.31,23s0,0,0-.01c0,0,0-.01,0-.02,0,0,0,0,0,0,0,0,.01,0,.02,0,0,0,0,0,.01,0,.34-.03.62.02.84.14.27.14.46.36.58.59.01.03,0,.06-.02.08-.03.01-.06,0-.08-.02-.12-.21-.29-.42-.53-.54-.19-.1-.43-.15-.73-.13-.02.3.03.55.13.74h0c.13.25.34.42.56.54.03.01.04.05.02.08-.01.03-.05.04-.08.02-.24-.12-.46-.31-.6-.58-.11-.22-.17-.5-.14-.85"/><path class="cls-5" d="M29.8,22.92s0,0,.01,0c0,0,.01,0,.02,0,0,0,0,0,0,0,0,0,0,.01,0,.02,0,0,0,0,0,.01.03.35-.02.62-.14.84-.14.27-.36.46-.6.58-.03.01-.06,0-.08-.02-.01-.03,0-.06.02-.08.22-.12.42-.29.55-.54.1-.19.15-.43.13-.74-.3-.02-.54.03-.73.13-.25.13-.42.33-.54.55-.01.03-.05.04-.08.02-.03-.01-.04-.05-.02-.08.13-.23.31-.46.58-.6.22-.11.5-.17.84-.14"/><path class="cls-5" d="M24.4,25.31s-.01-.02-.01-.03h0s0,0,0,0c0-.01,0-.02.01-.03.22-.27.47-.43.7-.5.3-.09.59-.06.85.02.03,0,.05.04.04.07s-.04.05-.07.04c-.24-.08-.51-.11-.78-.02-.21.07-.42.2-.62.43.2.23.41.36.62.43.27.09.54.06.78-.02.03,0,.06,0,.07.04,0,.03,0,.06-.04.07-.26.08-.55.11-.84.02-.24-.07-.48-.23-.7-.5"/><path class="cls-5" d="M28.74,24.12c-.3-.3-.71-.48-1.17-.48s-.87.18-1.17.48c-.3.3-.48.71-.48,1.17s.18.87.48,1.17c.3.3.71.48,1.17.48s.87-.18,1.17-.48c.3-.3.48-.71.48-1.17s-.18-.87-.48-1.17M27.57,23.52c.49,0,.93.2,1.25.52.32.32.52.76.52,1.25s-.2.93-.52,1.25c-.32.32-.76.52-1.25.52s-.93-.2-1.25-.52c-.32-.32-.52-.76-.52-1.25s.2-.93.52-1.25c.32-.32.76-.52,1.25-.52Z"/><path class="cls-5" d="M25.17,25.34s-.06-.03-.06-.06.03-.06.06-.06h.69s.06.03.06.06-.03.06-.06.06h-.69Z"/><path class="cls-5" d="M25.91,27.03s-.06.02-.08,0c-.02-.02-.02-.06,0-.08l.49-.49s.06-.02.08,0,.02.06,0,.08l-.49.49Z"/><path class="cls-5" d="M27.63,27.7s-.03.06-.06.06-.06-.03-.06-.06v-.69s.03-.06.06-.06.06.03.06.06v.69Z"/><path class="cls-5" d="M29.32,26.94s.02.06,0,.08c-.02.02-.06.02-.08,0l-.49-.49s-.02-.06,0-.08c.02-.02.06-.02.08,0l.49.49Z"/><path class="cls-5" d="M29.97,25.23s.06.03.06.06-.03.06-.06.06h-.69s-.06-.03-.06-.06.03-.06.06-.06h.69Z"/><path class="cls-5" d="M27.51,22.57s.03-.06.06-.06.06.03.06.06v.91s-.03.06-.06.06-.06-.03-.06-.06v-.91Z"/><path class="cls-5" d="M29.34,23.35s.06-.02.08,0c.02.02.02.06,0,.08l-.59.59s-.06.02-.08,0c-.02-.02-.02-.06,0-.08l.59-.59Z"/><path class="cls-5" d="M25.72,23.4s-.02-.06,0-.08c.02-.02.06-.02.08,0l.59.59s.02.06,0,.08-.06.02-.08,0l-.59-.59Z"/><path class="cls-4" d="M9.46,21.69c.09,0,.19.01.3.03.11.02.21.05.3.1.09.05.17.11.23.19.06.08.09.18.09.3,0,.15-.04.28-.13.4-.08.12-.2.22-.36.31-.15.08-.34.15-.55.2s-.45.07-.71.07c-.29,0-.61-.02-.95-.06-.06.19-.11.41-.14.65-.03.24-.05.51-.05.8.1,0,.21,0,.31,0,.11,0,.22,0,.33,0,.15,0,.3,0,.46,0s.31,0,.46.01c.05,0,.08.02.11.05.03.03.04.07.04.11,0,.04-.01.08-.04.11-.03.03-.06.04-.11.04-.15,0-.31,0-.46,0-.15,0-.3,0-.45,0-.11,0-.22,0-.33,0-.11,0-.21,0-.32,0,0,.04,0,.07,0,.11,0,.04,0,.07,0,.11,0,.42-.06.79-.19,1.12s-.31.6-.56.83c-.24.22-.54.39-.9.51-.36.12-.76.17-1.22.17-.34,0-.64-.03-.9-.09-.26-.06-.49-.14-.69-.24-.2-.1-.37-.21-.51-.34-.14-.13-.26-.25-.35-.38-.09-.13-.17-.25-.23-.37-.06-.12-.1-.22-.13-.31,0,0,0-.02,0-.02,0,0,0-.01,0-.02,0-.04.01-.08.04-.11.03-.03.07-.05.11-.05.03,0,.06,0,.09.03.03.02.04.04.05.08.02.08.06.17.11.27.05.11.12.21.2.33.08.11.19.22.32.33.13.11.28.21.46.3.18.09.39.16.62.21s.51.08.81.08c.85,0,1.49-.2,1.92-.59s.65-.97.65-1.74c0-.03,0-.07,0-.1,0-.03,0-.07,0-.1-.27.01-.52.02-.75.04-.23.01-.43.03-.6.04-.17.01-.31.03-.41.04-.11,0-.17.01-.19.01-.05,0-.09-.01-.12-.04-.04-.03-.05-.06-.05-.12,0-.04.01-.07.04-.1.03-.03.06-.05.1-.05,0,0,.05,0,.16-.02.1-.01.24-.02.42-.04.18-.01.39-.03.63-.04.24-.01.51-.03.79-.04,0-.6.07-1.1.19-1.5-.29-.04-.59-.09-.9-.16-.3-.06-.61-.12-.91-.19-.3-.07-.6-.13-.89-.2-.29-.07-.57-.13-.84-.18s-.52-.1-.76-.13c-.24-.03-.45-.05-.65-.05-.27,0-.53.03-.76.08-.23.06-.44.14-.61.24-.17.11-.31.23-.4.39-.1.15-.15.33-.15.52,0,.13.02.24.07.34.05.1.1.19.16.26.06.07.11.13.17.17.05.04.08.06.08.06.02.01.04.03.05.06.01.02.02.05.02.07,0,.05-.02.08-.05.11-.03.03-.07.04-.1.04-.03,0-.06,0-.08-.03-.06-.04-.13-.1-.21-.17-.07-.07-.14-.15-.2-.24-.06-.09-.11-.19-.15-.31s-.06-.24-.06-.37c0-.24.06-.46.17-.65.11-.19.27-.35.47-.48s.43-.23.71-.3.56-.1.88-.1c.19,0,.4.02.63.05.24.03.49.08.77.13.27.05.56.11.86.18.3.07.61.14.92.2.31.07.63.13.94.2.32.06.62.11.93.16.08-.21.18-.39.33-.54.14-.15.3-.28.48-.37.18-.1.37-.17.58-.21.2-.05.4-.07.6-.07ZM10.06,22.3c0-.06-.02-.12-.06-.16-.04-.04-.09-.07-.16-.09-.06-.02-.13-.04-.2-.05-.07,0-.13-.01-.19-.01-.13,0-.27.01-.43.04-.16.03-.31.08-.47.15-.15.07-.3.17-.44.29-.14.12-.25.28-.33.46.3.03.58.05.83.05.21,0,.4-.02.58-.05.18-.03.33-.08.46-.14s.23-.13.3-.21c.07-.08.11-.18.11-.27Z"/><path class="cls-4" d="M12.77,26.55c-.03.06-.07.14-.11.22s-.09.17-.15.26c-.06.09-.12.18-.19.27-.07.09-.15.17-.23.24-.08.07-.17.13-.26.17-.09.04-.19.07-.3.07-.16,0-.3-.05-.42-.15-.12-.1-.21-.23-.3-.39-.08-.16-.15-.35-.2-.55-.05-.21-.09-.42-.12-.63-.03-.21-.05-.42-.05-.62,0-.2-.01-.38-.01-.54,0-.23,0-.46.02-.7.01-.24.04-.48.07-.71.03-.23.07-.45.12-.66.05-.21.11-.39.18-.55.07-.16.15-.28.24-.37.09-.09.19-.14.3-.14.09,0,.17.02.24.06.07.04.13.11.18.2s.09.22.11.37c.03.15.04.34.04.55,0,.27-.03.55-.08.83-.06.29-.13.58-.23.87-.1.29-.21.58-.34.87-.13.29-.27.57-.42.85.07.34.16.61.27.81s.25.29.41.29c.11,0,.21-.04.31-.13.1-.08.19-.19.27-.3.08-.12.16-.23.22-.35.06-.12.11-.22.15-.29.01-.03.03-.05.06-.06.02-.01.05-.02.08-.02.05,0,.08.02.11.05s.04.07.04.11c0,.02,0,.04-.02.06ZM10.75,24.92c0,.17,0,.34.01.5,0,.16.02.31.03.46.11-.22.22-.45.32-.7.1-.25.19-.5.27-.75.08-.25.14-.5.19-.75s.07-.49.07-.71c0-.32-.03-.55-.08-.68-.05-.14-.12-.21-.21-.21-.06,0-.11.04-.16.12-.05.08-.1.18-.15.32-.05.13-.09.29-.13.48-.04.18-.07.38-.09.59-.03.21-.05.43-.06.66-.01.23-.02.46-.02.68Z"/><path class="cls-4" d="M14.36,27.22c-.07,0-.13,0-.18-.02-.04.08-.09.16-.15.22-.06.07-.12.13-.2.18-.07.05-.16.09-.25.12-.09.03-.19.04-.3.04-.13,0-.24-.02-.35-.07-.11-.04-.2-.11-.27-.19-.08-.08-.14-.18-.18-.29-.04-.11-.06-.24-.06-.37,0-.17.03-.32.09-.45.06-.13.13-.23.21-.32.08-.08.16-.15.24-.19.08-.04.14-.06.18-.06.05,0,.08.01.1.04.02.02.03.06.03.1,0,.05-.01.08-.04.1s-.06.05-.11.07c-.04.02-.09.05-.14.09-.05.04-.09.09-.14.15-.04.06-.08.13-.1.21s-.04.17-.04.27c0,.09.01.17.04.25.03.08.07.14.12.2.05.06.11.1.18.13.07.03.15.05.23.05.15,0,.28-.04.38-.11.1-.07.18-.16.23-.27-.16-.08-.29-.2-.39-.36-.1-.15-.15-.33-.15-.52,0-.15.04-.28.11-.38.07-.1.17-.15.29-.15.07,0,.14.02.21.05.06.03.12.09.17.17.05.08.09.17.12.29.03.12.04.26.04.42,0,.09-.01.18-.03.27.02,0,.03,0,.05,0h.05c.09,0,.17-.01.25-.03s.14-.05.2-.1c.06-.04.11-.1.16-.17.05-.07.09-.15.14-.23,0-.02.03-.03.05-.05.03-.01.05-.02.08-.02.03,0,.07.01.1.04.03.03.05.07.05.11,0,.02,0,.05-.02.07-.01.03-.02.05-.03.07-.05.08-.1.16-.16.23-.06.07-.13.14-.21.19-.08.06-.17.1-.28.13-.1.03-.22.05-.34.04ZM13.67,26.2c0,.05,0,.11.02.16.01.06.03.11.06.17.03.06.06.11.11.16.04.05.09.09.15.13,0-.06.01-.11.01-.17,0-.07,0-.15-.02-.22-.01-.08-.03-.14-.05-.21-.02-.06-.05-.11-.07-.15-.03-.04-.06-.06-.11-.06-.02,0-.04.01-.06.04-.03.02-.04.08-.04.16Z"/><path class="cls-4" d="M17.94,26.54c0,.14-.03.28-.06.42-.03.14-.08.27-.14.38-.06.11-.15.21-.25.28-.1.07-.23.11-.38.11-.09,0-.18-.01-.25-.04-.07-.03-.13-.07-.19-.11-.05-.05-.1-.1-.13-.16-.04-.06-.06-.12-.09-.19-.09.16-.21.28-.33.36-.13.08-.26.13-.38.13-.1,0-.19-.02-.28-.06s-.15-.09-.21-.16c-.06-.07-.1-.15-.14-.25-.03-.1-.05-.21-.05-.33,0-.2.02-.38.05-.52.04-.15.08-.27.12-.36.04-.09.1-.19.18-.28.01-.02.03-.03.05-.04.02,0,.04-.01.06-.01.04,0,.08.02.11.05.03.03.04.07.04.11,0,.03-.01.06-.03.1-.01.02-.03.05-.06.09-.03.05-.06.11-.09.19-.03.08-.06.17-.09.29-.03.11-.04.25-.04.4s.03.28.1.36c.06.08.15.12.27.12.06,0,.12-.02.19-.05.07-.03.13-.08.19-.14.06-.06.11-.15.15-.25.04-.1.07-.22.08-.35l.05-.7s.02-.07.05-.1c.03-.03.07-.04.11-.04.05,0,.08.02.11.05.03.03.04.07.04.12l-.04.67c0,.14,0,.27.01.37.02.1.05.19.09.25s.09.11.15.15.13.05.2.05c.1,0,.18-.03.25-.08.07-.06.12-.13.16-.23s.07-.21.09-.34c.02-.13.03-.26.03-.41,0-.17,0-.31-.03-.42s-.03-.19-.03-.23c0-.04.01-.08.04-.11.03-.03.07-.05.11-.05.04,0,.07.01.1.03.03.02.04.05.05.09,0,.01.01.04.02.09s.03.11.06.18c.02.07.06.15.09.23.04.08.09.15.14.22.06.07.12.12.19.17.07.04.15.07.24.07.05,0,.09-.01.13-.03s.07-.04.09-.07c.02-.03.04-.05.05-.08.01-.02.02-.04.02-.04.01-.03.03-.05.06-.07.03-.02.05-.03.08-.03.05,0,.08.02.11.05s.04.07.04.11c0,.03-.01.08-.04.13-.03.05-.07.11-.12.16-.05.05-.11.09-.19.13-.07.04-.16.05-.24.05-.08,0-.15-.01-.22-.03-.07-.02-.13-.05-.19-.09-.06-.04-.11-.08-.16-.13-.05-.05-.09-.1-.13-.15Z"/><path class="cls-4" d="M19.43,27.22c.06.08.13.14.22.19.09.05.2.07.33.07s.25-.03.36-.09c.11-.06.21-.15.3-.25.09-.1.17-.22.24-.34.07-.13.13-.25.19-.38.01-.03.03-.05.06-.07s.05-.02.08-.02c.05,0,.08.02.11.05.03.03.04.07.04.11,0,.01,0,.02,0,.03,0,0,0,.02-.01.03-.19.41-.39.72-.61.93-.22.21-.47.31-.75.32-.18,0-.33-.03-.46-.1-.13-.07-.24-.16-.32-.27-.08-.11-.15-.23-.19-.37-.04-.14-.06-.27-.06-.41s.02-.26.05-.38c.03-.12.08-.22.15-.3s.14-.15.23-.2.18-.07.29-.07c.06,0,.12.01.18.04s.12.06.16.11.09.1.12.17c.03.07.04.14.04.23,0,.11-.02.21-.06.31-.04.1-.09.19-.16.27-.07.08-.14.16-.24.23-.09.07-.19.13-.3.18ZM19.31,26.96c.08-.03.16-.08.23-.13.07-.05.13-.11.18-.18.05-.06.09-.13.11-.2.03-.07.04-.14.04-.22,0-.08-.02-.14-.06-.18-.04-.04-.09-.06-.14-.06-.07,0-.13.02-.19.06-.05.04-.09.09-.13.16-.03.06-.06.14-.07.22-.01.08-.02.16-.02.24,0,.05,0,.1.01.15,0,.05.02.11.03.15Z"/><path class="cls-4" d="M21.48,26.01c-.01.07-.02.14-.04.2-.02.06-.03.12-.05.17-.01.05-.03.09-.04.12-.01.03-.02.05-.02.05-.03.06-.07.09-.14.09-.04,0-.07-.01-.11-.04-.03-.03-.05-.06-.05-.11,0-.02,0-.03,0-.04,0,0,.01-.02.02-.05.01-.02.02-.06.04-.12.02-.06.04-.14.06-.26-.05,0-.09,0-.14,0-.05,0-.09-.01-.14-.03-.04-.02-.08-.04-.1-.08-.03-.03-.04-.08-.04-.15,0-.05.01-.11.04-.19.03-.08.06-.15.1-.23.04-.08.09-.14.15-.2.05-.06.11-.08.16-.08.06,0,.11.02.15.07.04.05.07.1.09.17.02.07.04.14.05.21s.01.14.01.19c.05,0,.09,0,.14,0,.04,0,.09,0,.13,0,.15,0,.27.03.35.1.08.07.12.18.12.33,0,.06,0,.13-.01.19s-.02.14-.03.21c-.01.07-.02.14-.03.21,0,.07-.01.14-.01.21,0,.1.01.18.04.24.03.06.06.11.1.15.04.04.08.06.13.08s.09.02.13.02c.12,0,.22-.04.33-.11.1-.08.2-.17.28-.27.09-.11.16-.22.23-.34.07-.12.13-.22.17-.31.01-.02.03-.04.06-.06.02-.01.05-.02.08-.02.05,0,.09.02.11.05.03.03.04.07.04.1,0,.03,0,.05-.02.07-.06.11-.13.24-.22.37-.08.14-.18.27-.28.39-.11.12-.22.22-.35.31-.13.08-.27.13-.43.13-.1,0-.19-.02-.27-.05s-.16-.09-.22-.16c-.06-.07-.11-.15-.15-.25-.04-.1-.06-.21-.06-.34,0-.13.01-.27.04-.4.03-.13.04-.26.04-.38,0-.05-.01-.09-.03-.12-.02-.03-.07-.04-.15-.04h-.12s-.09,0-.14,0ZM21.21,25.71s0-.04,0-.07c0-.03,0-.06,0-.09,0-.03,0-.06-.02-.08,0-.02-.01-.03-.02-.03s-.02.01-.03.03c-.01.02-.02.04-.04.07s-.03.06-.04.09-.02.06-.02.08h.18Z"/><path class="cls-4" d="M13.6,23.62c0,.05-.01.11-.02.16-.01.05-.03.1-.05.15-.02.04-.06.08-.1.11-.04.03-.09.04-.15.04-.04,0-.07,0-.1-.02s-.05-.03-.07-.04-.04-.04-.05-.06-.02-.05-.03-.07c-.04.06-.08.11-.13.14-.05.03-.1.05-.15.05-.04,0-.08,0-.11-.02s-.06-.04-.08-.06-.04-.06-.05-.1-.02-.08-.02-.13c0-.08,0-.15.02-.2s.03-.1.05-.14c.02-.04.04-.07.07-.11,0,0,.01-.01.02-.01,0,0,.02,0,.02,0,.02,0,.03,0,.04.02s.02.03.02.04c0,.01,0,.02-.01.04,0,0-.01.02-.02.04-.01.02-.02.04-.04.07-.01.03-.02.07-.03.11,0,.04-.01.1-.01.15s.01.11.04.14.06.05.1.05c.02,0,.05,0,.07-.02.03-.01.05-.03.07-.06s.04-.06.06-.1c.02-.04.03-.08.03-.14l.02-.27s0-.03.02-.04c.01-.01.03-.02.04-.02.02,0,.03,0,.04.02.01.01.02.03.02.04l-.02.26c0,.06,0,.1,0,.14,0,.04.02.07.03.1.02.03.03.04.06.06.02.01.05.02.08.02.04,0,.07-.01.1-.03s.05-.05.06-.09c.02-.04.03-.08.03-.13,0-.05.01-.1.01-.16,0-.07,0-.12-.01-.16s-.01-.07-.01-.09c0-.02,0-.03.02-.04s.03-.02.04-.02c.01,0,.03,0,.04.01.01,0,.02.02.02.04,0,0,0,.02,0,.04s.01.04.02.07c0,.03.02.06.04.09.02.03.03.06.05.08.02.03.05.05.07.06s.06.03.09.03c.02,0,.04,0,.05-.01.01,0,.03-.02.04-.03,0-.01.02-.02.02-.03,0,0,0-.02,0-.02,0-.01.01-.02.02-.03,0,0,.02-.01.03-.01.02,0,.03,0,.04.02.01.01.02.03.02.04,0,.01,0,.03-.02.05-.01.02-.03.04-.05.06s-.04.04-.07.05c-.03.01-.06.02-.09.02-.03,0-.06,0-.08-.01s-.05-.02-.07-.04c-.02-.01-.04-.03-.06-.05s-.04-.04-.05-.06Z"/><path class="cls-4" d="M14.71,23.89s-.05,0-.07,0c-.02.03-.03.06-.06.09-.02.03-.05.05-.08.07-.03.02-.06.04-.1.05-.04.01-.07.02-.12.02-.05,0-.09,0-.13-.03-.04-.02-.08-.04-.11-.07s-.05-.07-.07-.11c-.02-.04-.02-.09-.02-.14,0-.07.01-.12.04-.17.02-.05.05-.09.08-.12s.06-.06.09-.07c.03-.02.05-.02.07-.02.02,0,.03,0,.04.01,0,0,.01.02.01.04,0,.02,0,.03-.02.04s-.02.02-.04.03c-.02,0-.03.02-.05.04-.02.02-.04.03-.05.06-.02.02-.03.05-.04.08-.01.03-.02.07-.02.1,0,.03,0,.07.02.1.01.03.03.06.05.08s.04.04.07.05.06.02.09.02c.06,0,.11-.01.15-.04.04-.03.07-.06.09-.11-.06-.03-.11-.08-.15-.14-.04-.06-.06-.13-.06-.2,0-.06.01-.11.04-.14.03-.04.07-.06.11-.06.03,0,.05,0,.08.02s.05.03.07.06c.02.03.03.07.05.11.01.05.02.1.02.16,0,.03,0,.07-.01.1,0,0,.01,0,.02,0h.02s.07,0,.1-.01c.03,0,.05-.02.08-.04.02-.02.04-.04.06-.06.02-.03.04-.06.05-.09,0,0,0-.01.02-.02.01,0,.02,0,.03,0,.01,0,.03,0,.04.02.01.01.02.03.02.04,0,0,0,.02,0,.03,0,0,0,.02-.01.03-.02.03-.04.06-.06.09-.02.03-.05.05-.08.07s-.07.04-.11.05c-.04.01-.08.02-.13.02ZM14.44,23.49s0,.04,0,.06c0,.02.01.04.02.06.01.02.02.04.04.06.02.02.04.04.06.05,0-.02,0-.04,0-.06,0-.03,0-.06,0-.09,0-.03-.01-.06-.02-.08,0-.02-.02-.04-.03-.06-.01-.02-.02-.02-.04-.02,0,0-.01,0-.02.01-.01,0-.02.03-.02.06Z"/><path class="cls-4" d="M15.36,23.92s.04-.07.06-.12c.02-.05.05-.09.08-.14.03-.05.05-.09.08-.13.03-.04.05-.07.06-.1.03-.04.06-.06.09-.08.03-.02.06-.02.09-.02s.05,0,.07.02c.02.01.04.03.05.05s.02.04.03.07,0,.05,0,.08c0,.02,0,.04,0,.07,0,.03,0,.06,0,.09s0,.06,0,.1c0,.03,0,.06,0,.09.02-.03.03-.07.05-.1s.04-.08.06-.11c.02-.04.04-.07.06-.11s.04-.06.05-.08c.04-.06.09-.1.13-.12.04-.02.07-.03.1-.03.04,0,.06,0,.09.02.02.01.04.03.05.05s.02.04.03.07,0,.05,0,.07c0,.04,0,.07,0,.11s0,.08,0,.14c0,.02,0,.04,0,.07,0,.02,0,.04.01.06,0,.02.02.03.03.04.01.01.03.02.06.02.03,0,.05,0,.08-.02s.05-.03.07-.06c.02-.02.05-.05.07-.08.02-.03.04-.06.06-.09.02-.03.03-.06.05-.08.01-.03.02-.05.03-.07,0-.01.01-.02.02-.03,0,0,.02,0,.03,0,.02,0,.03,0,.04.02.01.01.02.03.02.04,0,0,0,.01,0,.02,0,0-.01.03-.02.05s-.03.06-.05.09c-.02.03-.04.07-.07.11s-.06.07-.09.1-.07.06-.11.08-.08.03-.12.03c-.05,0-.08,0-.11-.02-.03-.02-.05-.04-.07-.06-.02-.03-.03-.06-.04-.09,0-.04,0-.07,0-.11,0-.05,0-.1,0-.14,0-.04,0-.08,0-.1,0-.03,0-.05,0-.06,0-.01-.01-.02-.02-.03,0,0-.01,0-.02,0s-.01,0-.01,0c-.02,0-.05.01-.08.04s-.06.06-.08.11c-.03.05-.06.1-.09.16s-.06.12-.09.18c-.02.03-.03.06-.04.08-.01.02-.02.04-.03.05s-.02.02-.03.03c-.01,0-.02,0-.03,0-.03,0-.05,0-.06-.03s-.02-.04-.02-.07c0-.02,0-.04,0-.06s0-.05,0-.09,0-.06,0-.1c0-.03,0-.07,0-.1s0-.06,0-.08,0-.04,0-.05c0-.03,0-.05-.01-.06,0-.01-.02-.02-.03-.02-.01,0-.02,0-.04.01s-.03.02-.05.05c-.01.02-.03.05-.06.08-.02.04-.05.08-.07.12s-.05.09-.07.13c-.02.05-.05.09-.06.12-.02.04-.04.07-.07.09-.02.02-.04.02-.06.02-.03,0-.05,0-.07-.03s-.02-.04-.02-.07c0,0,0-.02,0-.06,0-.03,0-.08,0-.13,0-.05,0-.1,0-.16,0-.06,0-.11,0-.16,0-.03,0-.05,0-.07,0-.02,0-.03-.01-.04,0,0-.02.02-.05.06-.02.04-.06.1-.09.19,0,.01-.01.02-.02.03-.01,0-.02,0-.03,0-.02,0-.03,0-.04-.02-.01-.01-.02-.03-.02-.04,0,0,0-.02,0-.02.05-.11.09-.19.13-.25s.08-.08.12-.08c.02,0,.04,0,.06.02.02.01.03.02.04.04,0,.02.02.04.02.06,0,.02,0,.04,0,.06,0,.09,0,.18,0,.25,0,.08,0,.15-.01.23Z"/><path class="cls-4" d="M17.22,23.89s.05.05.08.07c.03.02.08.03.13.03s.1-.01.14-.04c.04-.02.08-.06.11-.1s.06-.08.09-.13c.03-.05.05-.1.07-.15,0-.01.01-.02.02-.03,0,0,.02,0,.03,0,.02,0,.03,0,.04.02s.02.03.02.04c0,0,0,0,0,.01,0,0,0,0,0,.01-.07.16-.15.28-.23.36-.08.08-.18.12-.29.12-.07,0-.13-.01-.18-.04-.05-.03-.09-.06-.12-.1-.03-.04-.06-.09-.07-.14-.02-.05-.02-.11-.02-.16s0-.1.02-.15.03-.08.06-.12c.02-.03.05-.06.09-.08s.07-.03.11-.03c.02,0,.05,0,.07.01.02,0,.04.02.06.04.02.02.03.04.05.07.01.03.02.06.02.09,0,.04,0,.08-.02.12-.01.04-.03.07-.06.1s-.06.06-.09.09c-.04.03-.07.05-.11.07ZM17.18,23.78s.06-.03.09-.05.05-.04.07-.07.03-.05.04-.08c.01-.03.02-.06.02-.08,0-.03,0-.05-.02-.07-.02-.02-.03-.02-.05-.02-.03,0-.05,0-.07.02s-.04.04-.05.06-.02.05-.03.08c0,.03,0,.06,0,.09,0,.02,0,.04,0,.06,0,.02,0,.04.01.06Z"/><path class="cls-4" d="M18.2,23.92s.04-.07.06-.11c.02-.04.05-.08.07-.12.02-.04.05-.08.08-.13.03-.04.06-.08.09-.12.03-.04.06-.06.09-.08s.06-.02.09-.02c.05,0,.09.02.12.06s.04.09.04.15c0,.01,0,.03,0,.05,0,.02,0,.04,0,.06,0,.02,0,.04,0,.07,0,.02,0,.04,0,.06,0,.02,0,.05,0,.07,0,.02,0,.04.01.06,0,.02.02.03.03.04.01,0,.03.01.05.01.04,0,.08-.02.12-.05s.07-.07.1-.11c.03-.04.06-.08.08-.13.02-.04.04-.08.05-.11,0-.01.01-.02.02-.03,0,0,.02,0,.03,0,.02,0,.03,0,.04.02.01.01.02.03.02.04,0,0,0,.01,0,.02,0,0-.01.03-.02.05-.01.03-.03.06-.05.09-.02.03-.04.07-.07.11-.03.04-.06.07-.09.1s-.07.06-.11.08-.08.03-.12.03c-.05,0-.08,0-.11-.03-.03-.02-.05-.04-.07-.07-.02-.03-.03-.06-.03-.1,0-.04,0-.07,0-.11,0-.02,0-.03,0-.05,0-.02,0-.04,0-.06,0-.02,0-.04,0-.07,0-.02,0-.04,0-.06,0-.03,0-.06-.02-.07-.01-.01-.02-.02-.03-.02-.02,0-.04,0-.06.03-.02.02-.04.04-.07.08-.02.03-.05.07-.07.11-.02.04-.05.08-.07.12-.02.04-.04.08-.06.11-.02.03-.03.06-.04.09-.02.04-.04.07-.06.09-.02.02-.04.02-.06.02-.03,0-.05,0-.07-.03-.02-.02-.03-.04-.03-.08,0,0,0-.02,0-.04,0-.02,0-.05,0-.08,0-.03,0-.06,0-.1,0-.03,0-.07,0-.1,0-.03,0-.07,0-.09,0-.03,0-.05,0-.07,0-.03,0-.05,0-.07,0-.02,0-.04-.01-.04,0,0-.03.02-.05.06s-.05.1-.09.19c0,.01-.01.02-.02.03-.01,0-.02,0-.03,0-.02,0-.03,0-.04-.02-.01-.01-.02-.03-.02-.04,0,0,0-.02,0-.02.05-.11.09-.19.13-.25.04-.05.08-.08.12-.08.02,0,.04,0,.06.02.02.01.03.03.04.05,0,.02.02.04.02.07,0,.02,0,.05,0,.07,0,.02,0,.05,0,.09,0,.04,0,.08-.01.13,0,.05,0,.09-.01.13s0,.08-.01.11Z"/><path class="cls-4" d="M20.69,23.89s-.05,0-.07,0c-.02.03-.03.06-.06.09-.02.03-.05.05-.08.07-.03.02-.06.04-.1.05-.04.01-.07.02-.12.02-.05,0-.09,0-.13-.03-.04-.02-.08-.04-.11-.07s-.05-.07-.07-.11c-.02-.04-.02-.09-.02-.14,0-.07.01-.12.04-.17.02-.05.05-.09.08-.12s.06-.06.09-.07c.03-.02.05-.02.07-.02.02,0,.03,0,.04.01,0,0,.01.02.01.04,0,.02,0,.03-.02.04s-.02.02-.04.03c-.02,0-.03.02-.05.04-.02.02-.04.03-.05.06-.02.02-.03.05-.04.08-.01.03-.02.07-.02.1,0,.03,0,.07.02.1.01.03.03.06.05.08s.04.04.07.05.06.02.09.02c.06,0,.11-.01.15-.04.04-.03.07-.06.09-.11-.06-.03-.11-.08-.15-.14-.04-.06-.06-.13-.06-.2,0-.06.01-.11.04-.14.03-.04.07-.06.11-.06.03,0,.05,0,.08.02s.05.03.07.06c.02.03.03.07.05.11.01.05.02.1.02.16,0,.03,0,.07-.01.1,0,0,.01,0,.02,0h.02s.07,0,.1-.01c.03,0,.05-.02.08-.04.02-.02.04-.04.06-.06.02-.03.04-.06.05-.09,0,0,0-.01.02-.02.01,0,.02,0,.03,0,.01,0,.03,0,.04.02.01.01.02.03.02.04,0,0,0,.02,0,.03,0,0,0,.02-.01.03-.02.03-.04.06-.06.09-.02.03-.05.05-.08.07s-.07.04-.11.05c-.04.01-.08.02-.13.02ZM20.42,23.49s0,.04,0,.06c0,.02.01.04.02.06.01.02.02.04.04.06.02.02.04.04.06.05,0-.02,0-.04,0-.06,0-.03,0-.06,0-.09,0-.03-.01-.06-.02-.08,0-.02-.02-.04-.03-.06-.01-.02-.02-.02-.04-.02,0,0-.01,0-.02.01-.01,0-.02.03-.02.06Z"/><path class="cls-4" d="M21.33,23.92s.04-.07.06-.11c.02-.04.05-.08.07-.12.02-.04.05-.08.08-.13.03-.04.06-.08.09-.12.03-.04.06-.06.09-.08s.06-.02.09-.02c.05,0,.09.02.12.06s.04.09.04.15c0,.01,0,.03,0,.05,0,.02,0,.04,0,.06,0,.02,0,.04,0,.07,0,.02,0,.04,0,.06,0,.02,0,.05,0,.07,0,.02,0,.04.01.06,0,.02.02.03.03.04.01,0,.03.01.05.01.04,0,.08-.02.12-.05s.07-.07.1-.11c.03-.04.06-.08.08-.13.02-.04.04-.08.05-.11,0-.01.01-.02.02-.03,0,0,.02,0,.03,0,.02,0,.03,0,.04.02.01.01.02.03.02.04,0,0,0,.01,0,.02,0,0-.01.03-.02.05-.01.03-.03.06-.05.09-.02.03-.04.07-.07.11-.03.04-.06.07-.09.1s-.07.06-.11.08-.08.03-.12.03c-.05,0-.08,0-.11-.03-.03-.02-.05-.04-.07-.07-.02-.03-.03-.06-.03-.1,0-.04,0-.07,0-.11,0-.02,0-.03,0-.05,0-.02,0-.04,0-.06,0-.02,0-.04,0-.07,0-.02,0-.04,0-.06,0-.03,0-.06-.02-.07-.01-.01-.02-.02-.03-.02-.02,0-.04,0-.06.03-.02.02-.04.04-.07.08-.02.03-.05.07-.07.11-.02.04-.05.08-.07.12-.02.04-.04.08-.06.11-.02.03-.03.06-.04.09-.02.04-.04.07-.06.09-.02.02-.04.02-.06.02-.03,0-.05,0-.07-.03-.02-.02-.03-.04-.03-.08,0,0,0-.02,0-.04,0-.02,0-.05,0-.08,0-.03,0-.06,0-.1,0-.03,0-.07,0-.1,0-.03,0-.07,0-.09,0-.03,0-.05,0-.07,0-.03,0-.05,0-.07,0-.02,0-.04-.01-.04,0,0-.03.02-.05.06s-.05.1-.09.19c0,.01-.01.02-.02.03-.01,0-.02,0-.03,0-.02,0-.03,0-.04-.02-.01-.01-.02-.03-.02-.04,0,0,0-.02,0-.02.05-.11.09-.19.13-.25.04-.05.08-.08.12-.08.02,0,.04,0,.06.02.02.01.03.03.04.05,0,.02.02.04.02.07,0,.02,0,.05,0,.07,0,.02,0,.05,0,.09,0,.04,0,.08-.01.13,0,.05,0,.09-.01.13s0,.08-.01.11Z"/><path class="cls-4" d="M23.29,23.63s-.03.05-.04.08c-.02.03-.04.07-.06.1-.02.04-.05.07-.07.11-.03.03-.06.07-.09.09-.03.03-.07.05-.1.07-.04.02-.07.03-.11.03-.06,0-.12-.02-.16-.06-.04-.04-.08-.09-.11-.15-.03-.06-.06-.13-.08-.21-.02-.08-.03-.16-.04-.24-.01-.08-.02-.16-.02-.24,0-.08,0-.15,0-.21,0-.09,0-.18,0-.27,0-.09.01-.18.03-.27.01-.09.03-.17.05-.25.02-.08.04-.15.07-.21.03-.06.06-.11.09-.14.03-.04.07-.05.12-.05.03,0,.07,0,.09.02.03.02.05.04.07.08.02.04.03.08.04.14.01.06.02.13.02.21,0,.1-.01.21-.03.32-.02.11-.05.22-.09.33s-.08.22-.13.34c-.05.11-.11.22-.16.33.03.13.06.24.1.31.04.08.1.11.16.11.04,0,.08-.02.12-.05.04-.03.07-.07.11-.12s.06-.09.08-.14c.02-.05.04-.08.06-.11,0-.01.01-.02.02-.02,0,0,.02,0,.03,0,.02,0,.03,0,.04.02.01.01.02.03.02.04,0,0,0,.01,0,.02ZM22.51,23c0,.07,0,.13,0,.19,0,.06,0,.12.01.18.04-.08.09-.17.12-.27.04-.1.07-.19.1-.29.03-.1.05-.19.07-.29s.03-.19.03-.27c0-.12,0-.21-.03-.26s-.05-.08-.08-.08c-.02,0-.04.02-.06.05-.02.03-.04.07-.06.12-.02.05-.03.11-.05.18-.01.07-.03.15-.04.23,0,.08-.02.17-.02.25s0,.18,0,.26Z"/><path class="cls-4" d="M23.76,24.08s.07-.07.11-.11c.04-.04.07-.08.11-.12.04-.04.07-.08.1-.13.03-.05.06-.09.08-.14,0-.01.01-.02.02-.03,0,0,.02,0,.03,0,.02,0,.03,0,.04.02s.02.03.02.04c0,0,0,.02,0,.02-.03.07-.07.13-.11.19-.04.06-.09.11-.13.16s-.09.1-.14.15c-.05.05-.09.09-.13.14,0,.07,0,.14,0,.22,0,.07,0,.15,0,.23,0,.07,0,.13,0,.2,0,.07-.01.13-.02.19,0,.06-.02.12-.04.17s-.04.1-.06.14-.05.07-.09.09c-.03.02-.07.03-.12.03-.07,0-.13-.03-.17-.08-.04-.05-.06-.12-.06-.21,0-.05,0-.1.02-.16.01-.06.03-.12.05-.18.02-.06.04-.12.07-.18s.06-.12.09-.18c.03-.06.07-.12.1-.17.04-.05.07-.1.11-.15,0-.05,0-.1,0-.16,0-.05,0-.1,0-.15-.03.05-.06.09-.1.12-.04.03-.08.04-.13.04-.08,0-.14-.03-.19-.08-.04-.05-.07-.13-.07-.22,0-.07,0-.13.02-.18s.03-.1.04-.14c.02-.04.03-.07.04-.09s.02-.03.02-.03c.01-.02.03-.03.05-.03.02,0,.03,0,.04.02.01.01.02.03.02.04,0,.01,0,.02,0,.03,0,0,0,0-.01.03-.01.02-.02.04-.04.08-.01.03-.02.08-.04.12-.01.05-.02.1-.02.16s.01.1.03.13c.02.03.05.05.1.05.06,0,.11-.04.16-.13s.09-.22.12-.38c0-.01,0-.02.02-.03.01,0,.02-.01.04-.01.02,0,.03,0,.04.02.01.01.02.03.02.04,0,0,0,.02,0,.06,0,.03,0,.08-.01.13,0,.06-.01.12-.02.2,0,.07-.01.15-.02.24ZM23.64,24.41c-.05.07-.09.14-.13.21-.04.07-.07.15-.1.22-.03.07-.05.14-.07.21-.02.07-.02.13-.02.18s0,.1.03.13.05.05.08.05c.03,0,.06-.02.09-.05.03-.03.05-.08.07-.14s.03-.14.04-.23c0-.09.01-.19.01-.3,0-.04,0-.09,0-.14,0-.05,0-.09,0-.15Z"/><rect class="cls-2" x="0" width="32" height="32"/></g></svg>