<svg xmlns="http://www.w3.org/2000/svg" viewBox="0 0 313.138 222.549"><path d="M95.112 222.35H67.055c-.74 0-1.064-.353-1.064-1.205v-39.969c0-.554.185-.854.695-.854h3.01c.416 0 .647.3.647.854v36.703h24.816c.416 0 .647.252.647.755v3.01c0 .453-.231.705-.694.705Zm17.135.05h-3.01c-.463 0-.695-.201-.695-.705v-40.62c0-.453.186-.703.695-.703h3.01c.509 0 .74.25.74.804v40.519c0 .504-.278.705-.74.705Zm46.022-.05h-29.862c-.787 0-1.111-.353-1.111-1.154v-39.568c0-.804.324-1.156 1.111-1.156h30.001c.509 0 .741.201.741.705v3.113c0 .552-.279.754-.741.754h-26.761v32.837h23.38v-14.26h-11.944c-.463 0-.648-.3-.648-.802v-2.813c0-.552.185-.752.602-.752h15.232c.741 0 1.112.401 1.112 1.205v20.688c0 .852-.371 1.205-1.112 1.205Zm46.35.199h-2.917c-.463 0-.788-.2-.788-.703v-18.979h-23.103v18.979c0 .504-.185.703-.647.703h-3.01c-.417 0-.695-.2-.695-.703v-40.821c0-.504.185-.754.695-.754h3.01c.463 0 .647.351.647.754v17.323h23.103v-17.323c0-.504.232-.754.695-.754h2.917c.463 0 .695.351.695.754v40.821c0 .504-.139.703-.602.703Zm45.376-37.456h-13.796v36.602c0 .504-.185.755-.695.755h-2.963c-.509 0-.694-.201-.694-.755v-36.602H218.42c-.463 0-.695-.252-.695-.804v-3.012c0-.554.186-.806.648-.806h31.621c.51 0 .695.252.695.806v3.012c0 .552-.185.804-.695.804Z" fill="#00cbbb"/><path d="M17.309 92.166 3.517 84.702c-8.542-4.271 1.165-10.095 1.165-10.095l12.519-6.668.109 24.227Zm20.81 10.925-14.233-7.833-.191-29.994 14.328-7.833s-.198 45.66.096 45.66Zm20.538 10.699-14.295-8.408V54.503l14.295-7.579v66.866zm240.208-21.92 10.994-6.78c7.377-4.659 0-9.707 0-9.707l-10.439-6.472-.554 22.958Zm-20.585 10.841 14.004-7.377.127-30.051-14.328-7.451s.49 44.879.197 44.879Zm-20.83 11.038 13.862-7.312.221-51.847-14.083-7.265v66.424z" fill="#d8c8ac"/><path d="M252.634 45.902 170.859 4.33c-11.648-7.765-23.296-2.718-23.296-2.718L64.941 43.828l.115 73.591 77.071 40.664s17.084 9.707 30.285.388l80.538-42.103-.316-70.467Z" fill="#00cbbb"/><path d="M112.758 62.368a3.336 3.336 0 0 1 1.015 2.448v9.553c0 .955-.338 1.771-1.015 2.448a3.336 3.336 0 0 1-2.448 1.015H90.608l-.955.955v10.209h-6.926v-24.18c0-.955.338-1.771 1.015-2.448a3.34 3.34 0 0 1 2.448-1.015h24.12a3.34 3.34 0 0 1 2.448 1.015Zm-6.866 9.553.955-.955V68.22l-.955-.955H90.608l-.955.955v2.746l.955.955h15.284Zm47.286-10.509v24.12c0 .955-.338 1.772-1.015 2.448a3.336 3.336 0 0 1-2.448 1.015h-23.523c-.916 0-1.731-.318-2.448-.955a3.334 3.334 0 0 1-1.015-2.448v-24.18h6.926v20.777l.955.955h14.687l.955-.955V61.412h6.926Zm33.553 20.419c1.034.916 2.289 1.98 3.761 3.194a246.5 246.5 0 0 0 4.955 3.971h-10.269L172.58 77.712a5.342 5.342 0 0 1-.985-1.164c-.26-.418-.388-.965-.388-1.642a3.5 3.5 0 0 1 .239-1.254 2.6 2.6 0 0 1 1.015-1.254c.478-.318 1.095-.478 1.851-.478h10.985l.955-.955v-2.687l-.955-1.015h-15.224l-1.015 1.015v20.717h-6.866l-.06-24.12c0-.955.338-1.771 1.015-2.448a3.34 3.34 0 0 1 2.448-1.015h24.12a3.34 3.34 0 0 1 2.448 1.015 3.336 3.336 0 0 1 1.015 2.448v9.493c0 .955-.338 1.771-1.015 2.448a3.336 3.336 0 0 1-2.448 1.015h-6.328v1.194c.994.836 2.109 1.771 3.343 2.806Zm24.597-10.853 1.015 1.002h17.075v5.851h-17.075l-1.015 1.015v3.343l1.015.955h23.165v5.911h-27.643a3.336 3.336 0 0 1-2.448-1.015 3.334 3.334 0 0 1-1.015-2.448V64.815c0-.955.338-1.771 1.015-2.448a3.34 3.34 0 0 1 2.448-1.015h27.643v5.97h-23.165v.059l-1.015.943v2.653ZM97.764 99.921c.338.338.507.746.507 1.223v5.102c0 .477-.169.885-.507 1.223a1.667 1.667 0 0 1-1.223.507H82.996v-2.954h11.337l.477-.477v-1.701l-.477-.477h-9.875c-.477 0-.885-.169-1.223-.507a1.667 1.667 0 0 1-.507-1.223v-4.744c0-.477.169-.885.507-1.223a1.667 1.667 0 0 1 1.223-.507h13.515v2.924H86.666l-.477.507v1.342l.477.478h9.875c.477 0 .885.169 1.223.507Zm20.884-2.834h-6.474l-.507.507v10.353h-3.461V97.594l-.477-.507h-6.474v-2.924h17.393v2.924Zm15.275 7.28c.517.458 1.143.99 1.88 1.596.735.607 1.561 1.268 2.476 1.984h-5.132l-6.295-5.639c-.199-.179-.363-.373-.493-.582s-.194-.482-.194-.82a1.732 1.732 0 0 1 .12-.626c.1-.258.268-.467.507-.627.238-.159.547-.239.925-.239h5.49l.477-.478v-1.342l-.477-.507h-7.608l-.507.507v10.353h-3.431l-.03-12.053c0-.477.169-.885.507-1.223s.746-.507 1.223-.507h12.053c.478 0 .885.169 1.224.507.338.338.507.746.507 1.223v4.744c0 .478-.169.885-.507 1.223s-.746.507-1.224.507h-3.162v.596l1.671 1.402Zm10.799-5.424.507.501h8.533v2.924h-8.533l-.507.507v1.671l.507.477h11.576v2.954h-13.813c-.477 0-.885-.169-1.223-.507a1.667 1.667 0 0 1-.507-1.223V95.865c0-.477.169-.885.507-1.223a1.667 1.667 0 0 1 1.223-.507h13.813v2.983h-11.576v.029l-.507.471v1.326Zm31.028-4.78v12.053c0 .477-.169.885-.507 1.223a1.663 1.663 0 0 1-1.223.507h-.835c-.517 0-.955-.199-1.313-.597a1356.003 1356.003 0 0 1-3.58-3.849 405.567 405.567 0 0 0-2.477-2.655 58.334 58.334 0 0 1-1.909-2.088h-.657v9.189h-3.461V95.893c0-.477.169-.885.507-1.223s.746-.507 1.223-.507h1.611c.278 0 .532.06.76.179.229.119.423.259.582.418a4766.08 4766.08 0 0 0 5.429 5.967l1.85 2.059h.537v-8.622h3.461Zm15.066 3.998v-.597l-.507-.477h-7.638l-.477.477v6.952l.477.477h7.638l.477-.483v-1.689l-.477-.483h-4.923v-2.924h7.13c.478 0 .885.169 1.224.507.338.338.507.746.507 1.223v5.072c0 .477-.169.885-.507 1.223a1.664 1.664 0 0 1-1.224.507h-12.053c-.477 0-.885-.169-1.223-.507a1.667 1.667 0 0 1-.507-1.223V95.863c0-.477.169-.885.507-1.223s.746-.507 1.223-.507h12.083c.477 0 .88.169 1.208.507.328.338.493.746.493 1.223v2.297h-3.431Zm23.808-1.074h-6.474l-.507.507v10.353h-3.461V97.594l-.477-.507h-6.474v-2.924h17.393v2.924Zm18.467-2.924v13.784h-3.431v-5.102l-.505-.477h-7.611l-.476.507v5.072h-3.461V94.163h3.461v4.773l.476.478h7.611l.505-.478v-4.773h3.431Z" fill="#fff" stroke="#00cbbb" stroke-miterlimit="10" stroke-width=".009"/></svg>