<?xml version="1.0" encoding="UTF-8"?><svg id="_レイヤー_2" xmlns="http://www.w3.org/2000/svg" viewBox="0 0 579.9 202.64"><defs><style>.cls-1{fill:#00a99d;stroke-width:0px;}</style></defs><g id="DESIGN"><path class="cls-1" d="M90.45,43.92c4.98-.06,7.68-1.44,10.14-5.34l9.72-15.06h-19.02v-9.3h28.92V3.54h10.8v10.68h11.58v9.3h-11.58v32.16h-10.8v-27.96l-10.5,16.08c-4.68,7.68-9.42,10.32-19.26,10.74v-10.62Z"/><path class="cls-1" d="M201.45,24.18v10.2h-49.14v-10.2h49.14Z"/><path class="cls-1" d="M210.45,23.94c5.76-1.26,8.88-6.9,9.48-17.28h30v4.44h11.22v14.4c-.06,13.62-1.62,18.6-7.2,23.88-4.98,4.32-8.82,5.34-20.64,5.4h-20.64v-9.78h19.26c8.22-.06,11.22-.54,13.32-2.04,2.58-1.86,3.6-3.6,4.2-7.26h-23.82v-9.48h24.78v-10.5h-21.54c-2.16,11.04-8.82,17.76-18.42,18.66v-10.44ZM257.37.06v9.24h-5.58V.06h5.58ZM264.99,0v9.3h-5.7V0h5.7Z"/><path class="cls-1" d="M321.45,24.18v10.2h-49.14v-10.2h49.14Z"/><path class="cls-1" d="M332.91,10.26c10.8,3.54,15.72,5.52,25.98,10.56,4.56-11.76,4.68-12.06,6.18-17.1h11.94c-3,7.92-3.66,9.78-4.74,12.36l-2.52,6.24c-.48,1.14-1.02,2.34-1.5,3.54,7.74,4.02,8.94,4.62,12.9,6.84v12.48c-4.68-3.06-4.86-3.18-9.36-5.82-2.4-1.44-4.74-2.82-6.96-4.14-5.58,11.88-7.32,14.22-12.6,17.16-4.8,2.46-8.76,3.12-19.8,3.24v-10.8c16.02-.24,17.76-1.38,22.92-14.46-5.4-3.12-13.92-6.78-22.44-9.66v-10.44Z"/><path class="cls-1" d="M390.39,27.54l33.12-15.54c4.38-2.1,5.28-3.36,5.28-7.32v-1.62h10.98v2.34c.18,6-2.28,10.26-7.56,12.96l-9.18,4.62v32.7h-11.1v-27.06l-21.54,10.74v-11.82Z"/><path class="cls-1" d="M462.81,3.6v16.08l5.04,1.38c3.3.96,6.6,1.86,9.9,2.76,2.52.66,5.22,1.5,12.3,3.66v11.34c-6.42-2.52-15-5.22-27.24-8.64v25.56h-11.1V3.6h11.1ZM483.21,3.3v9.12h-5.64V3.3h5.64ZM490.71,3.3v9.12h-5.58V3.3h5.58Z"/><path class="cls-1" d="M9.96,86.86v-10.2h10.26v10.2h14.88v-10.2h10.68v10.2h10.38v9.72h-10.38v7.02c.3,15.72-8.46,24.6-23.82,24.18h-12.72v-9.66h13.56c8.7.12,12.42-4.26,12.3-14.46v-7.08h-14.88v12.78h-10.26v-12.78H0v-9.72h9.96Z"/><path class="cls-1" d="M63.24,80.26h38.28c.06,5.94,3.18,9.24,8.88,9.54v11.7c-.12,18.36-8.82,26.76-28.02,26.82h-16.8v-9.9h15.12c14.04,0,18.96-5.28,18.84-20.1v-8.04h-36.3v-10.02ZM117.12,81.1c0,3.9-3.18,7.08-7.08,7.08s-7.08-3.18-7.08-7.08,3.24-7.02,7.2-7.02,6.96,3.24,6.96,7.02ZM107.28,81.1c0,1.5,1.26,2.76,2.7,2.76,1.56,0,2.76-1.2,2.76-2.76s-1.26-2.7-2.76-2.7-2.7,1.26-2.7,2.7Z"/><path class="cls-1" d="M142.26,117.1c11.22-.12,15-4.32,14.76-16.32v-24.96h10.92v22.92c.06,11.4-1.08,16.68-4.74,21.18-4.02,4.98-10.74,7.44-20.16,7.44h-19.62v-10.26h18.84ZM123.48,76.06h10.92v32.64h-10.92v-32.64Z"/><path class="cls-1" d="M180.06,83.26c10.8,3.54,15.72,5.52,25.98,10.56,4.56-11.76,4.68-12.06,6.18-17.1h11.94c-3,7.92-3.66,9.78-4.74,12.36l-2.52,6.24c-.48,1.14-1.02,2.34-1.5,3.54,7.74,4.02,8.94,4.62,12.9,6.84v12.48c-4.68-3.06-4.86-3.18-9.36-5.82-2.4-1.44-4.74-2.82-6.96-4.14-5.58,11.88-7.32,14.22-12.6,17.16-4.8,2.46-8.76,3.12-19.8,3.24v-10.8c16.02-.24,17.76-1.38,22.92-14.46-5.4-3.12-13.92-6.78-22.44-9.66v-10.44Z"/><path class="cls-1" d="M288.96,81.94v18.06c-.06,10.5-2.82,17.1-9.12,21.78-5.28,4.08-11.94,5.64-24.66,5.76h-16.62v-10.38h16.8c7.14-.06,12.96-1.02,15.78-2.64,4.38-2.16,7.08-6.84,7.14-12.36v-20.22h10.68ZM239.04,76.96c10.68,2.76,22.14,6.18,27.48,8.22v10.8c-9.3-3.18-19.68-6.36-27.48-8.4v-10.62Z"/><path class="cls-1" d="M311.7,75.7v16.02c13.98,3.36,19.08,4.8,27.9,7.86v11.1c-8.04-2.94-15.6-5.16-27.9-8.16v26.34h-10.98v-53.16h10.98Z"/><path class="cls-1" d="M357.06,86.86v-10.2h10.26v10.2h14.88v-10.2h10.68v10.2h10.38v9.72h-10.38v7.02c.3,15.72-8.46,24.6-23.82,24.18h-12.72v-9.66h13.56c8.7.12,12.42-4.26,12.3-14.46v-7.08h-14.88v12.78h-10.26v-12.78h-9.96v-9.72h9.96Z"/><path class="cls-1" d="M459.9,97.18v10.2h-49.14v-10.2h49.14Z"/><path class="cls-1" d="M467.7,117.04c2.82-.9,4.32-2.1,5.7-4.68.78-1.38,1.38-3.84,2.52-10.32l4.02-23.76h10.56l-4.56,27c-2.76,15.48-7.68,21.66-18.24,23.16v-11.4ZM510.72,78.28c.42,1.5.84,2.82,1.2,4.2l2.64,9.42c3.24,12.24,4.44,18.12,7.08,35.88h-11.34c-2.28-18.72-5.4-34.56-9.84-49.5h10.26ZM517.8,74.02v9.18h-5.22v-9.18h5.22ZM524.52,74.02v9.18h-5.34v-9.18h5.34Z"/><path class="cls-1" d="M579.9,97.18v10.2h-49.14v-10.2h49.14Z"/><path class="cls-1" d="M219.06,192.98c5.7-.36,7.38-.84,9.84-2.64,2.7-2.16,3.9-4.86,4.08-8.88h-12.18v-8.28h51.96v8.28h-13.5v10.5h8.46c2.34,0,3.54-.42,6.12-1.98v9.66c-1.38,1.38-3.54,2.1-6.48,2.16h-9.12c-7.26-.18-9.54-2.16-9.3-8.4v-11.94h-5.64c-.66,8.1-2.4,11.82-7.62,16.32-4.32,3.36-8.94,4.62-16.62,4.62v-9.42ZM220.5,150.86h21.06v-3.3h10.8v3.3h21.6v13.44h-6.06v6h-42.24v-6h-5.16v-13.44ZM262.98,162.5v-3.06h-32.4v3.06h32.4Z"/><path class="cls-1" d="M278.64,167.42c4.68-5.16,7.62-11.16,9.54-19.26h9.6l-.42,2.4h5.94v-2.4h9.18v2.4h6.42v-2.4h9.12v2.4h6.3v7.8h-6.3v1.92h6.24l.06,7.44h-29.28v2.16h28.32v24.3c.12,5.76-1.68,7.68-7.38,8.16h-4.92v-3.18h-8.76v-7.92h-3.96v11.4h-8.1v-8.46c-2.34,4.68-4.2,6.66-7.14,7.5v-11.94c1.98-2.16,2.82-5.04,2.82-9.9v-19.56h7.38v-1.92h-8.4c-1.02,2.7-1.38,3.54-2.58,5.46v38.58h-9.36v-25.98c-1.92,1.8-2.64,2.34-4.32,3.36v-12.36ZM312.3,178.46v-1.92h-3.96v1.92h3.96ZM312.3,185.24v-1.86h-3.96v1.86h3.96ZM318.9,160.28v-1.92h-6.42v1.92h6.42ZM324.48,178.46v-1.92h-3.72v1.92h3.72ZM324.48,185.24v-1.86h-3.72v1.86h3.72ZM324.48,191.24h-3.72v2.16h3.72v-2.16Z"/><path class="cls-1" d="M358.38,148.76l-2.58,36.6h-8.34l-2.34-36.6h13.26ZM356.82,187.94v10.26h-10.5v-10.26h10.5Z"/></g></svg>