<svg xmlns="http://www.w3.org/2000/svg" viewBox="0 0 34.632 34.632"><g fill="#fff"><path d="M17.316 3.12c4.624 0 5.171.018 6.997.101 1.688.077 2.605.359 3.215.596a5.365 5.365 0 0 1 1.991 1.295 5.365 5.365 0 0 1 1.295 1.991c.237.61.519 1.527.596 3.215.083 1.826.101 2.374.101 6.997s-.018 5.171-.101 6.997c-.077 1.688-.359 2.605-.596 3.215a5.365 5.365 0 0 1-1.295 1.991 5.365 5.365 0 0 1-1.991 1.295c-.61.237-1.527.519-3.215.596-1.826.083-2.373.101-6.997.101s-5.171-.018-6.997-.101c-1.688-.077-2.605-.359-3.215-.596a5.365 5.365 0 0 1-1.991-1.295 5.365 5.365 0 0 1-1.295-1.991c-.237-.61-.519-1.527-.596-3.215-.083-1.826-.101-2.374-.101-6.997s.018-5.171.101-6.997c.077-1.688.359-2.605.596-3.215a5.365 5.365 0 0 1 1.295-1.991 5.365 5.365 0 0 1 1.991-1.295c.61-.237 1.527-.519 3.215-.596 1.826-.083 2.374-.101 6.997-.101m0-3.12c-4.703 0-5.292.02-7.139.104-1.843.084-3.102.377-4.203.805a8.502 8.502 0 0 0-3.067 1.997A8.476 8.476 0 0 0 .91 5.973C.481 7.075.188 8.333.104 10.177.02 12.024 0 12.614 0 17.316s.02 5.292.104 7.139c.084 1.843.377 3.102.805 4.203a8.502 8.502 0 0 0 1.997 3.067 8.476 8.476 0 0 0 3.067 1.997c1.101.428 2.36.721 4.203.805 1.847.084 2.437.104 7.139.104s5.292-.02 7.139-.104c1.843-.084 3.102-.377 4.203-.805a8.502 8.502 0 0 0 3.067-1.997 8.476 8.476 0 0 0 1.997-3.067c.428-1.101.721-2.36.805-4.203.084-1.847.104-2.437.104-7.139s-.02-5.292-.104-7.139c-.084-1.843-.377-3.102-.805-4.203a8.502 8.502 0 0 0-1.997-3.067A8.476 8.476 0 0 0 28.657.91c-1.101-.428-2.36-.721-4.203-.805-1.847-.084-2.437-.104-7.139-.104Z"/><path d="M17.316 8.424a8.892 8.892 0 1 0 0 17.784 8.892 8.892 0 1 0 0-17.784Zm0 14.664a5.772 5.772 0 1 1 0-11.543 5.772 5.772 0 0 1 0 11.543Z"/><circle cx="26.559" cy="8.073" r="2.078"/></g></svg>