<?xml version="1.0" encoding="UTF-8"?><svg id="_レイヤー_2" xmlns="http://www.w3.org/2000/svg" viewBox="0 0 558.7 38.7"><defs><style>.cls-1{fill:#000;}.cls-1,.cls-2,.cls-3{stroke-width:0px;}.cls-2{fill:none;}.cls-3{fill:#333a46;}</style></defs><g id="_レイヤー_1-2"><path class="cls-1" d="M11.14,25.66c0,1.25.13,1.29,3.23,1.29,1.58,0,3.46-.02,4.73-.07.33-.02,1.7-.11,1.99-.11s1.12,0,1.12,1.14c0,1.03-.76,1.23-1.78,1.31-1.09.09-4.57.07-5.95.07-.91,0-2.67,0-3.46-.11-1.9-.25-2.38-1.49-2.38-2.85v-11.06c0-.56.15-1.12,1.23-1.12.91,0,1.25.36,1.25,1.12v4.48c2.28-.56,4.52-1.34,6.65-2.36,1.05-.49,1.4-.63,1.83-.63.6,0,1.18.67,1.18,1.32,0,.47-.2.82-1.85,1.49-2.54,1.03-5.13,1.96-7.82,2.52v3.57ZM21.78,17.21c-1.11,0-2-.89-2-1.99s.89-1.98,2-1.98,1.99.89,1.99,1.98-.91,1.99-1.99,1.99ZM21.78,14.29c-.51,0-.93.42-.93.92s.42.94.93.94.92-.42.92-.94-.42-.92-.92-.92Z"/><path class="cls-1" d="M37.99,26.77c.24,0,1.11,0,1.11,1.09s-.76,1.09-1.11,1.09h-11.06c-.25,0-1.11,0-1.11-1.09,0-1,.69-1.09,1.11-1.09h6.53c.29-1.83.62-5.49.62-6.07,0-.42-.16-.51-.56-.51h-5.19c-.25,0-1.11-.04-1.11-1.09,0-.87.54-1.11,1.11-1.11h6.42c.49,0,1.74.07,1.74,1.78,0,.38-.15,2.7-.73,7h2.23Z"/><path class="cls-1" d="M43.54,17c-.25,0-1.2-.02-1.2-1.14,0-.87.53-1.16,1.2-1.16h12.53c.82,0,1.85.18,1.85,1.51,0,.63-.49,2.41-1.7,3.95-1.2,1.52-3.12,2.76-3.75,2.76-.71,0-1.25-.67-1.25-1.29,0-.47.22-.6,1.12-1.12,1.74-1.02,2.72-2.7,2.72-3.23,0-.27-.22-.27-.56-.27h-10.95ZM50.9,19.9c0,1.21-.07,4.35-2.5,7.25-1.25,1.49-3.01,2.68-3.94,2.68-.65,0-1.2-.65-1.2-1.32,0-.53.16-.62,1.47-1.36,1.74-.98,3.63-2.57,3.74-6.44.05-1.72.05-1.83.33-2.1.18-.18.47-.29.93-.29,1.18,0,1.18.87,1.18,1.58Z"/><path class="cls-1" d="M62.93,17c-.38,0-1.2-.09-1.2-1.14,0-.85.51-1.16,1.2-1.16h9.01c.83,0,1.98.15,1.98,1.56,0,1.27-1.38,4.17-2.96,6.33,1.02.76,2.38,1.8,4.53,3.81,1,.92,1.16,1.23,1.16,1.7,0,.76-.69,1.36-1.4,1.36-.58,0-.82-.27-1.45-1-1.43-1.63-3.46-3.48-4.26-4.12-2.56,2.88-6.17,5.22-7.24,5.22-.62,0-1.16-.63-1.16-1.34,0-.56.18-.65,1.47-1.32,5.62-2.94,8.4-8.83,8.4-9.61,0-.27-.2-.29-.51-.29h-7.58Z"/><path class="cls-1" d="M83.96,28.8c0,.42-.04,1.25-1.27,1.25s-1.31-.78-1.31-1.25v-13.73c0-.42.02-1.27,1.27-1.27s1.31.78,1.31,1.27v3.37c2.45.73,4.84,1.7,7.13,2.87,1.32.69,1.61.96,1.61,1.58s-.45,1.49-1.27,1.49c-.42,0-.82-.24-1.56-.67-1.03-.62-2.54-1.36-3.57-1.83-1.16-.53-1.81-.73-2.34-.91v7.83Z"/><path class="cls-1" d="M96.42,15.29c0-.53.14-1.21,1.25-1.21.87,0,1.29.38,1.29,1.21v11.1c0,.29,0,.6.47.6.62,0,3.7-.56,5.82-2.68,1.36-1.36,1.9-2.54,2.56-3.95.22-.47.44-.73.94-.73s1.45.34,1.45,1.14c0,.63-.96,2.67-2.18,4.12-1.87,2.25-4.08,3.39-7.22,4.26-.8.22-1.61.44-2.45.44-1.27,0-1.94-.45-1.94-1.72v-12.57Z"/><path class="cls-1" d="M114.26,14.86c.34,0,.67.13,2.01.85,4.04,2.21,4.04,2.54,4.04,3.08s-.6,1.34-1.22,1.34c-.47,0-.87-.27-1.94-1.02-.94-.65-2.09-1.27-3.21-1.87-.42-.22-.91-.49-.91-1.11,0-.69.58-1.16.98-1.27.11-.02.2-.02.24-.02ZM128.35,17.65c0,.92-1.6,4.71-3.43,6.84-2.36,2.76-5.06,3.75-7.24,4.33-1.09.29-2.41.54-2.96.54-1.14,0-1.27-1.02-1.27-1.38,0-.91.51-1.09,1.36-1.2,5.13-.6,8.79-2.57,10.99-9.01.33-.94.44-1.27,1.14-1.27.13,0,.29.02.45.05.4.11.94.38.94,1.09Z"/><path class="cls-1" d="M143.73,16.47c1.34,0,1.81.67,1.81,1.6,0,1.02-.93,5.75-4.84,8.85-2.88,2.28-6.75,3.01-7.34,3.01-1.09,0-1.2-.98-1.2-1.25,0-.78.34-.89,1.69-1.21,3.41-.85,6.17-2.14,7.98-5.62.58-1.14,1-2.41,1-2.79s-.24-.36-.67-.36h-5.4c-1.09,1.4-3.19,3.66-4.35,3.66-.63,0-1.18-.62-1.18-1.21,0-.49.14-.6.98-1.21,2.1-1.56,3.52-3.84,3.79-4.41.67-1.34.8-1.65,1.56-1.65.54,0,1.29.31,1.29.94,0,.49-.38,1.2-.63,1.67h5.53ZM143.33,14.15c-.05-.13-.07-.27-.07-.4,0-.4.45-.51.65-.51.34,0,.49.24.76.89.22.54.44,1.25.44,1.49,0,.58-.62.58-.65.58-.25,0-.42-.11-.53-.38-.05-.15-.25-.76-.31-.92-.09-.25-.24-.6-.29-.74ZM145.45,13.93c-.04-.11-.05-.24-.05-.31,0-.42.47-.53.67-.53.38,0,.49.25.76.91.33.78.44,1.25.44,1.45,0,.53-.54.58-.65.58-.22,0-.36-.09-.49-.31-.04-.05-.29-.82-.34-.98-.05-.13-.29-.71-.33-.82Z"/><path class="cls-1" d="M151.31,17c-.38,0-1.2-.09-1.2-1.14,0-.85.51-1.16,1.2-1.16h9.01c.83,0,1.98.15,1.98,1.56,0,1.27-1.38,4.17-2.96,6.33,1.02.76,2.38,1.8,4.53,3.81,1,.92,1.16,1.23,1.16,1.7,0,.76-.69,1.36-1.4,1.36-.58,0-.82-.27-1.45-1-1.43-1.63-3.46-3.48-4.26-4.12-2.56,2.88-6.17,5.22-7.24,5.22-.62,0-1.16-.63-1.16-1.34,0-.56.18-.65,1.47-1.32,5.62-2.94,8.4-8.83,8.4-9.61,0-.27-.2-.29-.51-.29h-7.58Z"/><path class="cls-1" d="M169.19,21.37c-.25,0-1.14,0-1.14-1.11,0-1.03.74-1.12,1.14-1.12h12.02c.54,0,1.78.05,1.78,1.56,0,.49-.38,3.43-2.52,5.68-1.89,1.99-4.12,2.67-5.48,3.01-1.4.36-2.56.51-3.01.51-.42,0-.69-.07-.89-.25-.25-.2-.42-.58-.42-.98,0-.89.67-.98,1.38-1.09,2.01-.29,5.26-.74,7.14-3.28.71-.96,1.12-2.19,1.12-2.52,0-.34-.22-.4-.58-.4h-10.55ZM180.97,14.71c.25,0,1.12,0,1.12,1.12s-.83,1.12-1.12,1.12h-10.44c-.25,0-1.12,0-1.12-1.11,0-1.03.69-1.14,1.12-1.14h10.44Z"/><path class="cls-1" d="M196.32,28.84c0,.47-.09,1.2-1.27,1.2-.89,0-1.29-.38-1.29-1.2v-7.76c-2.43,1.2-5.57,2.3-6.46,2.3-1,0-1.2-.96-1.2-1.36,0-.76.47-.91,1.03-1.05,4.79-1.27,8.79-3.66,10.35-5l1.87-1.61c.49-.42.71-.47.94-.47.65,0,1.36.56,1.36,1.31,0,.38-.13.65-.56,1.05-1.03.94-2.57,2.18-4.79,3.46v9.14Z"/><path class="cls-1" d="M208.97,28.8c0,.42-.04,1.25-1.27,1.25s-1.31-.78-1.31-1.25v-13.73c0-.42.02-1.27,1.27-1.27s1.31.78,1.31,1.27v3.37c2.45.73,4.84,1.7,7.13,2.87,1.32.69,1.61.96,1.61,1.58s-.45,1.49-1.27,1.49c-.42,0-.82-.24-1.56-.67-1.03-.62-2.54-1.36-3.57-1.83-1.16-.53-1.81-.73-2.34-.91v7.83Z"/><path class="cls-1" d="M221.32,19.93c-.38,0-1.22-.07-1.22-1.09,0-.78.34-1.18,1.22-1.18h6.11v-3.19c0-.69.34-1.09,1.11-1.09s1.27.24,1.27,1.09v3.19h6.29c.47,0,1.21.13,1.21,1.09,0,.8-.36,1.18-1.21,1.18h-5.93c.91,4.01,2.5,6.07,6.09,7.96.34.18.78.42.78,1.09,0,.76-.65,1.34-1.21,1.34-.93,0-2.97-1.61-3.95-2.59-1.89-1.85-2.68-3.68-3.14-4.81-1.4,3.57-3.41,5.13-4.68,6.07-.76.58-1.79,1.32-2.47,1.32-.76,0-1.22-.76-1.22-1.34s.29-.82.89-1.12c4.73-2.45,5.51-5.82,5.95-7.92h-5.89Z"/><path class="cls-1" d="M244.1,29.42c0,.27,0,1.12-1.07,1.12-.96,0-1.18-.47-1.18-1.12v-7.92c-.4.54-.8,1.09-1.34,1.09-.63,0-1.09-.8-1.09-1.43,0-.53.07-.62,1-1.8,1.23-1.6,1.94-3.25,2.54-4.91.27-.76.44-1.07,1.11-1.07.16,0,1.22.02,1.22.92,0,.65-.65,2.3-1.18,3.37v11.75ZM246.06,29.49c-.36,0-1.2-.04-1.2-1.09,0-.87.33-1.21,1.2-1.21h9.47c.36,0,1.2.02,1.2,1.07,0,.89-.33,1.23-1.2,1.23h-9.47ZM246.67,17.25c-.38,0-1.21-.02-1.21-1.07,0-.87.31-1.25,1.21-1.25h8.43c.38,0,1.2.04,1.2,1.09,0,.85-.29,1.23-1.2,1.23h-8.43Z"/><path class="cls-3" d="M265.2,18.25c1.82-1.79,2.93-2.93,2.93-3.92,0-.69-.37-1.16-1.11-1.16-.52,0-.94.33-1.29.73l-.58-.57c.56-.6,1.14-.98,1.99-.98,1.2,0,1.97.76,1.97,1.92s-1.06,2.34-2.42,3.76c.33-.04.75-.06,1.07-.06h1.66v.87h-4.22v-.6Z"/><path class="cls-3" d="M273.34,17.16h-2.84v-.68l2.61-3.99h1.19v3.89h.83v.79h-.83v1.69h-.96v-1.69ZM273.34,16.37v-1.61c0-.36.03-.93.04-1.28h-.04c-.16.32-.34.62-.52.95l-1.29,1.94h1.81Z"/><path class="cls-3" d="M279.13,17.83h-1.85v.75h-.77v-6.63h2.62v5.88ZM277.28,12.69v1.79h1.07v-1.79h-1.07ZM278.35,17.09v-1.88h-1.07v1.88h1.07ZM283.35,14.82v.89h.95v.73h-.95v2.19c0,.43-.1.65-.39.77-.31.12-.76.13-1.46.13-.04-.22-.15-.54-.27-.77.5.02.99.02,1.12.02.14,0,.19-.04.19-.17v-2.17h-3.24v-.73h3.24v-.89h-3.26v-.73h2.12v-.98h-1.78v-.72h1.78v-1.01h.83v1.01h1.83v.72h-1.83v.98h2.16v.73h-1.03ZM280.44,16.66c.43.44.92,1.05,1.11,1.48l-.7.43c-.19-.43-.65-1.06-1.08-1.52l.67-.38Z"/><path class="cls-3" d="M286.79,14.84v4.71h-.82v-7.81h3.28v3.1h-2.46ZM286.79,12.37v.61h1.68v-.61h-1.68ZM288.47,14.22v-.66h-1.68v.66h1.68ZM293.32,18.52c0,.47-.1.74-.42.88-.31.13-.8.14-1.55.14-.04-.22-.15-.58-.26-.81h-2.4v.44h-.76v-3.73h3.34v3.26c.44.02.86,0,1,0,.16,0,.2-.05.2-.2v-3.66h-2.53v-3.11h3.36v6.78ZM288.7,16.07v.69h1.81v-.69h-1.81ZM290.5,18.11v-.74h-1.81v.74h1.81ZM290.75,12.37v.61h1.73v-.61h-1.73ZM292.49,14.24v-.68h-1.73v.68h1.73Z"/><path class="cls-3" d="M302.7,12.77v1.8h-.79v-1.09h-5.82v1.09h-.76v-1.8h1.17c-.16-.3-.43-.68-.67-.96l.72-.3c.3.34.66.81.81,1.14l-.28.12h1.57c-.12-.34-.39-.81-.63-1.17l.72-.25c.28.36.58.88.69,1.21l-.53.2h1.56c.29-.37.65-.93.85-1.33l.88.28c-.28.36-.57.74-.84,1.05h1.32ZM299.3,16.15c-.09.22-.18.44-.26.64h3.04v2.77h-.83v-.31h-4.46v.32h-.79v-2.78h2.22c.06-.2.12-.44.17-.64h-1.73v-2.09h4.65v2.09h-2.03ZM301.25,17.51h-4.46v1.02h4.46v-1.02ZM297.44,15.52h3.08v-.85h-3.08v.85Z"/><path class="cls-3" d="M309.41,17.49c.78.55,1.93,1.01,3.02,1.21-.19.18-.43.52-.55.74-1.16-.31-2.35-.91-3.18-1.67v1.79h-.81v-1.73c-.84.71-2.05,1.29-3.16,1.6-.12-.21-.36-.52-.54-.7,1.06-.22,2.21-.68,3-1.24h-2.75v-.69h3.45v-.54h-2.62v-.62h2.62v-.53h-3.06v-.66h1.82c-.08-.25-.23-.57-.37-.81l.21-.04h-2.02v-.69h1.32c-.13-.35-.4-.84-.65-1.2l.72-.24c.28.38.59.93.71,1.27l-.45.17h.98v-1.52h.77v1.52h.88v-1.52h.78v1.52h.96l-.34-.11c.21-.36.49-.92.62-1.32l.85.21c-.24.44-.51.88-.74,1.21h1.28v.69h-1.72c-.17.3-.35.6-.5.84h1.89v.66h-3.15v.53h2.73v.62h-2.73v.54h3.5v.69h-2.78ZM307.12,13.59c.16.26.32.58.38.79l-.26.05h1.88c.13-.24.28-.56.39-.84h-2.39Z"/><path class="cls-3" d="M316.44,15.47c0,.57-.46,1.03-1.03,1.03s-1.03-.46-1.03-1.03.46-1.03,1.03-1.03,1.03.46,1.03,1.03Z"/><path class="cls-3" d="M326.54,17.59h-3.12v1.97h-.85v-1.97h-4.05v-.8h1.43v-2.35h2.62v-1.23h-2.04c-.38.66-.83,1.25-1.28,1.69-.16-.14-.52-.41-.72-.53.82-.7,1.53-1.83,1.94-3.02l.84.22c-.11.28-.23.57-.35.84h5.15v.8h-2.69v1.23h2.48v.77h-2.48v1.57h3.12v.8ZM322.56,16.79v-1.57h-1.79v1.57h1.79Z"/><path class="cls-3" d="M335.45,12.94v4.25h-.86v-.48h-2.31v2.83h-.86v-2.83h-2.3v.52h-.83v-4.3h3.13v-1.55h.86v1.55h3.18ZM331.41,15.91v-2.15h-2.3v2.15h2.3ZM334.58,15.91v-2.15h-2.31v2.15h2.31Z"/><path class="cls-3" d="M338.47,13.51c-.22.24-.45.45-.68.64-.15-.15-.48-.41-.68-.54.76-.52,1.46-1.37,1.87-2.22l.81.23c-.12.26-.27.51-.43.75h5.47v.73h-.87v1.33h1.2v.75h-1.2v1.33h1.08v.75h-7.64v-.75h1.08v-1.33h-1.21v-.75h1.21v-.92ZM337.18,19.23c.44-.36.84-1.04,1.05-1.68l.8.2c-.22.67-.6,1.37-1.07,1.81l-.78-.33ZM339.22,14.43h.83v-1.33h-.83v1.33ZM339.22,16.51h.83v-1.33h-.83v1.33ZM340.55,17.73c.12.52.21,1.21.22,1.62l-.81.12c0-.42-.07-1.12-.18-1.65l.76-.08ZM341.6,14.43v-1.33h-.86v1.33h.86ZM340.74,15.18v1.33h.86v-1.33h-.86ZM342.34,17.69c.23.51.46,1.19.54,1.62l-.82.16c-.07-.43-.28-1.12-.5-1.65l.77-.12ZM343.18,13.1h-.88v1.33h.88v-1.33ZM343.18,15.18h-.88v1.33h.88v-1.33ZM344.12,17.52c.43.53.94,1.27,1.17,1.75l-.84.29c-.21-.47-.69-1.24-1.12-1.8l.78-.25Z"/><path class="cls-3" d="M349.44,11.7c-.26.64-.58,1.28-.94,1.89v5.94h-.82v-4.76c-.28.37-.6.71-.91,1.01-.09-.2-.34-.66-.49-.85.94-.83,1.81-2.13,2.34-3.48l.82.26ZM352.51,14.39c.53,1.33,1.39,2.67,2.27,3.4-.2.16-.48.44-.62.67-.79-.75-1.52-1.96-2.07-3.25v4.34h-.82v-4.12c-.57,1.24-1.32,2.35-2.13,3.08-.13-.2-.43-.5-.61-.66.94-.73,1.82-2.09,2.37-3.46h-2v-.81h2.37v-2.06h.82v2.06h2.45v.81h-2.02Z"/><path class="cls-3" d="M268.06,28.11l-.52.79c-.46-.34-1.41-.94-1.97-1.25l.5-.76c.56.3,1.57.93,1.99,1.22ZM268.95,30.2c1.49-.84,2.69-2.04,3.41-3.3l.54.94c-.8,1.21-2.04,2.35-3.48,3.19-.9.52-2.14.94-2.95,1.09l-.52-.92c.99-.17,2.07-.5,3.01-1.01ZM269.4,26.14l-.53.76c-.45-.33-1.41-.95-1.95-1.26l.51-.77c.55.31,1.55.97,1.97,1.27ZM272.07,26.41l-.62.27c-.23-.51-.49-.97-.8-1.4l.6-.26c.24.35.61.97.82,1.39ZM273.29,25.95l-.62.28c-.25-.51-.52-.95-.84-1.37l.61-.26c.25.33.62.94.84,1.35Z"/><path class="cls-3" d="M278.08,25.98c-.27.84-1.08,3.36-1.52,4.54,1.21-.11,2.71-.28,3.66-.4-.34-.68-.7-1.33-1.01-1.73l.86-.37c.62.93,1.57,2.7,1.96,3.66l-.94.43c-.12-.31-.28-.7-.46-1.11-1.41.17-4.26.48-5.42.59-.22.03-.52.07-.78.11l-.16-1.03c.28,0,.62,0,.89-.02.11,0,.23,0,.36-.02.5-1.27,1.34-3.93,1.59-4.83.12-.43.16-.67.2-.93l1.11.23c-.1.24-.2.51-.34.9Z"/><path class="cls-3" d="M289.28,26.22c-.31.73-.84,1.73-1.46,2.53.92.78,1.99,1.93,2.54,2.61l-.78.69c-.59-.8-1.48-1.78-2.36-2.6-.95,1.01-2.15,1.97-3.42,2.56l-.72-.76c1.44-.55,2.78-1.62,3.66-2.61.6-.68,1.2-1.65,1.41-2.35h-3.26c-.35,0-.83.04-.97.05v-1.01c.18.03.69.06.97.06h3.3c.33,0,.62-.04.77-.09l.58.43c-.06.09-.2.31-.26.46Z"/><path class="cls-3" d="M295.19,25.53c-.04.06-.06.12-.1.18h2.14c.25,0,.5-.04.67-.1l.72.44c-.08.15-.18.37-.24.55-.25.77-.71,1.78-1.36,2.69.37.27.72.53,1,.76l-.66.78c-.25-.23-.59-.51-.95-.8-.79.86-1.85,1.65-3.3,2.2l-.81-.71c1.52-.46,2.6-1.24,3.36-2.05-.61-.44-1.25-.88-1.77-1.21l.61-.63c.53.31,1.16.71,1.75,1.12.52-.72.94-1.59,1.11-2.24h-2.81c-.59.81-1.4,1.67-2.35,2.33l-.76-.59c1.54-.95,2.42-2.24,2.85-3.03.11-.19.27-.54.34-.8l1.01.32c-.18.27-.37.61-.46.79Z"/><path class="cls-3" d="M301.54,29.03l-.84.31c-.15-.47-.61-1.68-.81-2.03l.84-.3c.2.41.65,1.53.82,2.02ZM305.87,27.65c-.24.95-.62,1.89-1.25,2.69-.82,1.05-1.92,1.77-2.93,2.15l-.74-.76c1-.28,2.18-.96,2.92-1.88.61-.76,1.06-1.92,1.18-3.04l.98.31c-.08.22-.13.38-.17.52ZM303.5,28.48l-.84.3c-.11-.42-.51-1.53-.71-1.96l.84-.28c.16.37.6,1.54.71,1.93Z"/><path class="cls-3" d="M313.77,26.35c-.2.91-.6,2.32-1.33,3.26-.81,1.06-1.92,1.9-3.54,2.41l-.77-.84c1.74-.43,2.75-1.18,3.48-2.12.61-.77,1-1.91,1.11-2.73h-4.37c-.38,0-.74.02-.96.04v-1c.25.04.67.07.96.07h4.31c.15,0,.37,0,.57-.06l.69.44c-.07.14-.12.34-.16.52Z"/><path class="cls-3" d="M318.6,26.77c-.17,1.01-.41,1.89-.74,2.68.4.54.74,1.06.95,1.49l-.67.56c-.16-.35-.4-.76-.69-1.2-.48.85-1.11,1.55-1.92,2.09-.11-.16-.39-.49-.56-.64.87-.52,1.51-1.25,1.97-2.17-.48-.65-1.01-1.3-1.52-1.85l.58-.47c.43.44.87.96,1.3,1.48.21-.62.37-1.31.49-2.06l.81.11ZM323.2,27.13h-1v4.24c0,.51-.12.75-.4.9-.3.13-.78.17-1.53.17-.04-.24-.15-.63-.27-.88.53.02,1.01.02,1.16,0,.15,0,.21-.04.21-.2v-4.24h-2.33v-.67h-3.86v-.76h1.62v-1.41h.8v1.41h1.72v.63h2.05v-2.05h.82v2.05h1v.8ZM320,30.23c-.13-.52-.53-1.34-.93-1.95l.68-.32c.42.59.84,1.38.97,1.91l-.71.36Z"/><path class="cls-3" d="M325.93,27.63c0,1.39-.13,3.45-.91,4.81-.15-.13-.52-.38-.7-.47.72-1.26.78-3.07.78-4.34v-2.26h3.2v-1.09h.86v1.09h3.3v.8h-6.54v1.46ZM325.86,31.31c.42-.68.63-1.73.72-2.69l.76.17c-.11.97-.31,2.14-.74,2.85l-.74-.33ZM329.96,31.53c.32,0,.36-.22.41-1.48.17.13.52.28.73.34-.08,1.48-.29,1.89-1.08,1.89h-1.16c-.84,0-1.05-.27-1.05-1.11v-3.26h.81v3.26c0,.31.06.36.36.36h.97ZM329.97,28.25c-.43-.4-1.33-1-2.05-1.37l.56-.54c.7.34,1.62.89,2.09,1.3l-.6.61ZM331.4,28.41c.57.91,1.11,2.09,1.25,2.89l-.81.34c-.12-.78-.62-2-1.17-2.94l.73-.29Z"/><path class="cls-3" d="M336.66,30.72h-1.85v.75h-.77v-6.63h2.62v5.88ZM334.81,25.59v1.79h1.07v-1.79h-1.07ZM335.87,29.99v-1.88h-1.07v1.88h1.07ZM340.88,27.72v.89h.95v.73h-.95v2.19c0,.43-.1.65-.39.77-.31.12-.76.13-1.46.13-.04-.22-.15-.54-.27-.77.5.02.99.02,1.12.02.14,0,.19-.04.19-.17v-2.17h-3.24v-.73h3.24v-.89h-3.26v-.73h2.12v-.98h-1.78v-.72h1.78v-1.01h.83v1.01h1.83v.72h-1.83v.98h2.16v.73h-1.03ZM337.96,29.56c.43.44.92,1.05,1.11,1.48l-.7.43c-.19-.43-.65-1.06-1.08-1.52l.67-.38Z"/><path class="cls-3" d="M344.32,27.74v4.71h-.82v-7.81h3.28v3.1h-2.46ZM344.32,25.26v.61h1.68v-.61h-1.68ZM346,27.12v-.66h-1.68v.66h1.68ZM350.85,31.42c0,.47-.1.74-.42.88-.31.13-.8.14-1.55.14-.04-.22-.15-.58-.26-.81h-2.4v.44h-.76v-3.73h3.34v3.26c.44.02.86,0,1,0,.16,0,.2-.05.2-.2v-3.66h-2.53v-3.11h3.36v6.78ZM346.22,28.97v.69h1.81v-.69h-1.81ZM348.03,31.01v-.74h-1.81v.74h1.81ZM348.28,25.26v.61h1.73v-.61h-1.73ZM350.01,27.14v-.68h-1.73v.68h1.73Z"/><path class="cls-3" d="M354.62,24.64h.71l-2.47,8.71h-.71l2.47-8.71Z"/><path class="cls-3" d="M356.72,30.9h1.43v-4.38h-1.17v-.65c.61-.11,1.05-.27,1.42-.5h.77v5.52h1.28v.84h-3.74v-.84Z"/><path class="cls-3" d="M362.23,30.9h1.43v-4.38h-1.17v-.65c.61-.11,1.05-.27,1.42-.5h.77v5.52h1.28v.84h-3.74v-.84Z"/><path class="cls-3" d="M367.62,27.66c0-.42.3-.73.69-.73s.69.31.69.73-.3.71-.69.71-.69-.3-.69-.71ZM367.62,31.15c0-.43.3-.73.69-.73s.69.3.69.73-.3.71-.69.71-.69-.29-.69-.71Z"/><path class="cls-3" d="M370.49,28.54c0-2.14.82-3.28,2.12-3.28s2.12,1.15,2.12,3.28-.81,3.33-2.12,3.33-2.12-1.18-2.12-3.33ZM373.75,28.54c0-1.83-.47-2.47-1.14-2.47s-1.14.64-1.14,2.47.47,2.52,1.14,2.52,1.14-.68,1.14-2.52Z"/><path class="cls-3" d="M376.01,28.54c0-2.14.82-3.28,2.12-3.28s2.12,1.15,2.12,3.28-.81,3.33-2.12,3.33-2.12-1.18-2.12-3.33ZM379.26,28.54c0-1.83-.47-2.47-1.14-2.47s-1.14.64-1.14,2.47.47,2.52,1.14,2.52,1.14-.68,1.14-2.52Z"/><path class="cls-3" d="M383.81,27.98c-.65,0-1.21.45-1.57,1.13l-.78-.43c.58-1.05,1.41-1.59,2.36-1.59.83,0,1.43.33,2.05.96.44.44.79.69,1.42.69s1.21-.45,1.57-1.13l.78.43c-.58,1.05-1.41,1.59-2.36,1.59-.83,0-1.43-.33-2.05-.96-.44-.44-.79-.69-1.42-.69Z"/><path class="cls-3" d="M390.83,31.15c1.82-1.79,2.93-2.93,2.93-3.92,0-.69-.37-1.16-1.11-1.16-.52,0-.94.33-1.29.73l-.58-.57c.56-.6,1.14-.98,1.99-.98,1.2,0,1.97.76,1.97,1.92s-1.06,2.34-2.42,3.76c.33-.04.75-.06,1.07-.06h1.66v.87h-4.22v-.6Z"/><path class="cls-3" d="M396.37,28.54c0-2.14.82-3.28,2.12-3.28s2.12,1.15,2.12,3.28-.81,3.33-2.12,3.33-2.12-1.18-2.12-3.33ZM399.63,28.54c0-1.83-.47-2.47-1.14-2.47s-1.14.64-1.14,2.47.47,2.52,1.14,2.52,1.14-.68,1.14-2.52Z"/><path class="cls-3" d="M402.11,27.66c0-.42.3-.73.69-.73s.69.31.69.73-.3.71-.69.71-.69-.3-.69-.71ZM402.11,31.15c0-.43.3-.73.69-.73s.69.3.69.73-.3.71-.69.71-.69-.29-.69-.71Z"/><path class="cls-3" d="M404.98,28.54c0-2.14.82-3.28,2.12-3.28s2.12,1.15,2.12,3.28-.81,3.33-2.12,3.33-2.12-1.18-2.12-3.33ZM408.23,28.54c0-1.83-.47-2.47-1.14-2.47s-1.14.64-1.14,2.47.47,2.52,1.14,2.52,1.14-.68,1.14-2.52Z"/><path class="cls-3" d="M410.49,28.54c0-2.14.82-3.28,2.12-3.28s2.12,1.15,2.12,3.28-.81,3.33-2.12,3.33-2.12-1.18-2.12-3.33ZM413.75,28.54c0-1.83-.47-2.47-1.14-2.47s-1.14.64-1.14,2.47.47,2.52,1.14,2.52,1.14-.68,1.14-2.52Z"/><path class="cls-3" d="M418.46,24.75l.57.27c-.82.86-1.39,1.95-1.39,3.34s.57,2.48,1.39,3.34l-.57.27c-.86-.87-1.5-2.08-1.5-3.62s.64-2.75,1.5-3.62Z"/><path class="cls-3" d="M425.99,30.88c0,.45-.12.67-.42.79-.32.13-.83.14-1.62.14-.05-.2-.18-.54-.3-.74.59.03,1.19.02,1.38.02.17,0,.23-.06.23-.22v-1.32h-3.43c-.2.85-.57,1.69-1.29,2.3-.11-.15-.38-.41-.54-.51,1.18-1.01,1.29-2.5,1.29-3.68v-2.37h4.71v5.61ZM425.25,28.87v-1.12h-3.25c0,.35-.02.73-.07,1.12h3.32ZM421.99,25.95v1.12h3.25v-1.12h-3.25Z"/><path class="cls-3" d="M434.94,31.57h-3.41v.23h-.64v-2.57c-.14.15-.29.29-.43.4-.05-.06-.11-.15-.19-.23v1.01h-1.38v.64h-.61v-5.68h2v3.6c.43-.41.82-.96,1.04-1.46h-.77v-.49h1.32v-.45h-1.2v-.46h1.2v-.44h-1.32v-.49h1.92v2.34h-.67l.23.07c-.08.16-.17.33-.26.49h.94c.08-.19.16-.39.21-.56h-.17v-.49h1.35v-.45h-1.25v-.46h1.25v-.44h-1.34v-.49h1.96v2.34h-1.37l.29.06c-.09.17-.18.34-.27.5h1.39v.54h-1.57v.48h1.4v.47h-1.4v.49h1.4v.47h-1.4v.52h1.76v.54ZM428.89,25.98v1.55h.76v-1.55h-.76ZM429.65,29.79v-1.65h-.76v1.65h.76ZM432.56,28.6h-1.04v.48h1.04v-.48ZM432.56,29.55h-1.04v.49h1.04v-.49ZM431.53,31.04h1.04v-.52h-1.04v.52Z"/><path class="cls-3" d="M438.39,28.37c0,.48-.39.88-.88.88s-.88-.39-.88-.88.39-.88.88-.88.88.39.88.88Z"/><path class="cls-3" d="M444.22,27.4c.66,1.23,1.78,2.43,2.9,3.06-.17.14-.41.42-.52.61-1-.63-1.96-1.71-2.66-2.89v3.67h-.75v-3.65c-.69,1.21-1.65,2.27-2.67,2.9-.11-.17-.36-.45-.52-.6,1.14-.62,2.24-1.83,2.88-3.09h-2.57v-.7h2.88v-1.8h.75v1.8h2.9v.7h-2.61Z"/><path class="cls-3" d="M454.97,31.57h-3.41v.23h-.64v-2.57c-.14.15-.29.29-.43.4-.05-.06-.11-.15-.19-.23v1.01h-1.38v.64h-.61v-5.68h2v3.6c.43-.41.82-.96,1.04-1.46h-.77v-.49h1.32v-.45h-1.2v-.46h1.2v-.44h-1.32v-.49h1.92v2.34h-.67l.23.07c-.08.16-.17.33-.26.49h.94c.08-.19.16-.39.21-.56h-.17v-.49h1.35v-.45h-1.25v-.46h1.25v-.44h-1.34v-.49h1.96v2.34h-1.37l.29.06c-.09.17-.18.34-.27.5h1.39v.54h-1.57v.48h1.4v.47h-1.4v.49h1.4v.47h-1.4v.52h1.76v.54ZM448.92,25.98v1.55h.76v-1.55h-.76ZM449.68,29.79v-1.65h-.76v1.65h.76ZM452.59,28.6h-1.04v.48h1.04v-.48ZM452.59,29.55h-1.04v.49h1.04v-.49ZM451.56,31.04h1.04v-.52h-1.04v.52Z"/><path class="cls-3" d="M458.42,28.37c0,.48-.39.88-.88.88s-.88-.39-.88-.88.39-.88.88-.88.88.39.88.88Z"/><path class="cls-3" d="M462.2,30.46h.9v.64h-2.13v.42h-.61v-6.19h2.73v.63h-.89v.98h.68,0c.43-.51.79-1.28,1-2.05l.67.17c-.06.2-.12.39-.2.58h2.59v.63h-2.86c-.08.17-.15.32-.23.47h2.68v1.84h-2.76v-1.7c-.11.2-.24.38-.36.53-.08-.09-.26-.26-.41-.39v2.29h-.79v1.16ZM460.97,25.95v.98h.61v-.98h-.61ZM462.36,27.56h-1.39v1.11h1.39v-1.11ZM460.97,30.46h.61v-1.16h-.61v1.16ZM463.25,28.99h1.67v2.72h-.53v-.33h-.63v.42h-.51v-2.81ZM463.76,29.56v1.26h.63v-1.26h-.63ZM464.35,28.02h1.55v-.73h-1.55v.73ZM466.97,28.99v2.75h-.54v-.36h-.67v.44h-.51v-2.83h1.72ZM466.43,30.82v-1.26h-.67v1.26h.67Z"/><path class="cls-3" d="M470.54,30.37h-1.57v.64h-.65v-5.63h2.22v5ZM468.97,26.01v1.52h.91v-1.52h-.91ZM469.88,29.74v-1.6h-.91v1.6h.91ZM474.14,27.81v.76h.81v.62h-.81v1.86c0,.36-.08.55-.33.66-.26.11-.65.11-1.24.11-.03-.19-.13-.46-.23-.66.42.02.84.02.95.02.12,0,.16-.04.16-.14v-1.85h-2.75v-.62h2.75v-.76h-2.78v-.62h1.8v-.83h-1.51v-.61h1.51v-.86h.7v.86h1.56v.61h-1.56v.83h1.84v.62h-.88ZM471.66,29.38c.36.38.78.89.95,1.26l-.6.36c-.16-.36-.55-.9-.92-1.29l.57-.33Z"/><path class="cls-3" d="M481.25,26.54c-.26.62-.71,1.47-1.24,2.16.78.67,1.69,1.64,2.16,2.22l-.67.59c-.5-.68-1.26-1.51-2-2.21-.81.86-1.83,1.67-2.91,2.18l-.61-.64c1.22-.47,2.36-1.38,3.11-2.22.51-.57,1.02-1.41,1.2-2h-2.78c-.29,0-.7.04-.82.05v-.85c.15.02.59.05.82.05h2.81c.28,0,.53-.03.66-.08l.49.36c-.05.08-.17.26-.22.39Z"/><path class="cls-3" d="M486.27,25.95c-.03.05-.05.1-.08.15h1.82c.21,0,.42-.03.57-.08l.61.38c-.07.13-.15.32-.2.47-.21.66-.61,1.51-1.16,2.28.32.23.61.45.85.64l-.56.67c-.21-.2-.5-.43-.81-.68-.67.73-1.57,1.4-2.81,1.87l-.69-.61c1.29-.39,2.21-1.05,2.86-1.74-.52-.38-1.07-.75-1.5-1.03l.52-.54c.45.26.98.61,1.49.95.45-.61.8-1.35.95-1.91h-2.39c-.5.69-1.19,1.42-2,1.98l-.64-.5c1.31-.81,2.06-1.91,2.42-2.58.09-.16.23-.46.29-.68l.86.27c-.15.23-.31.52-.39.67Z"/><path class="cls-3" d="M491.67,28.93l-.72.26c-.13-.4-.52-1.43-.69-1.72l.71-.26c.17.35.55,1.3.7,1.72ZM495.35,27.75c-.2.81-.53,1.61-1.06,2.28-.7.89-1.63,1.51-2.49,1.83l-.63-.64c.85-.24,1.85-.82,2.48-1.6.52-.65.9-1.63,1.01-2.59l.83.26c-.07.19-.11.33-.14.45ZM493.34,28.46l-.71.26c-.09-.36-.43-1.3-.61-1.66l.71-.23c.14.32.51,1.31.61,1.64Z"/><path class="cls-3" d="M502.07,26.65c-.17.77-.51,1.97-1.13,2.78-.69.9-1.63,1.62-3.01,2.05l-.65-.71c1.48-.36,2.34-1.01,2.96-1.8.52-.66.85-1.63.95-2.32h-3.71c-.33,0-.63.02-.82.03v-.85c.21.03.57.06.82.06h3.67c.13,0,.32,0,.48-.05l.58.38c-.06.12-.1.29-.14.44Z"/><path class="cls-3" d="M507.51,26.13c-.16.26-.32.52-.5.78v4.92h-.76v-3.97c-.73.81-1.6,1.53-2.58,2.04-.11-.19-.33-.48-.48-.63,1.44-.7,2.68-1.91,3.4-3.15h-3.19v-.72h6.47v.72h-2.36ZM507.57,27.28c.85.57,2,1.42,2.55,2l-.59.54c-.51-.58-1.63-1.48-2.49-2.1l.53-.45Z"/><path class="cls-3" d="M517.87,26v.67h-4.07c-.26.54-.55,1.05-.9,1.52v3.63h-.7v-2.81c-.24.23-.51.46-.79.66-.08-.19-.23-.49-.35-.66.83-.57,1.47-1.41,1.94-2.34h-1.74v-.67h2.04c.16-.37.27-.74.37-1.11l.73.18c-.1.31-.2.62-.33.93h3.78ZM515.97,31h1.9v.66h-4.52v-.66h1.91v-1.95h-1.62v-.65h1.62v-1.36h.71v1.36h1.61v.65h-1.61v1.95Z"/><path class="cls-3" d="M525.05,25.38v6.35h-.75v-.46h-3.56v.49h-.72v-6.38h5.03ZM520.73,26.09v1.85h3.56v-1.85h-3.56ZM524.3,30.55v-1.92h-3.56v1.92h3.56Z"/><path class="cls-3" d="M529.93,26.04c.74-.03,1.54-.1,2.22-.22v.7c-.74.11-1.67.17-2.49.2-.17.36-.37.71-.58,1,.25-.14.67-.23.97-.23.48,0,.87.22,1.01.64.47-.22.85-.38,1.21-.54.26-.11.48-.21.72-.33l.31.7c-.22.07-.54.19-.77.28-.39.15-.88.35-1.41.59,0,.43.02,1.04.02,1.4h-.72c.01-.26.02-.7.03-1.07-.65.36-1.06.7-1.06,1.15,0,.51.49.62,1.26.62.61,0,1.44-.08,2.1-.2l-.02.76c-.54.07-1.42.14-2.1.14-1.13,0-2-.26-2-1.2s.91-1.52,1.78-1.97c-.1-.26-.34-.38-.62-.38-.46,0-.94.24-1.26.54-.22.21-.44.49-.69.81l-.65-.48c.88-.83,1.4-1.57,1.71-2.21h-.22c-.32,0-.84-.02-1.26-.05v-.71c.4.06.94.08,1.3.08.14,0,.3,0,.45,0,.1-.31.16-.63.17-.9l.79.06c-.05.21-.11.49-.2.82Z"/><path class="cls-3" d="M536.86,25.45c-.21.64-.48,1.42-.72,2.01.51.6.63,1.12.63,1.57s-.09.75-.31.9c-.11.08-.26.13-.41.15-.14.02-.33.02-.5,0,0-.17-.06-.44-.17-.61.16.02.29.02.39,0,.09,0,.17-.02.23-.07.11-.08.14-.26.14-.48,0-.38-.12-.87-.61-1.41.19-.51.39-1.18.53-1.69h-.81v5.99h-.62v-6.63h1.66l.11-.02.46.26ZM538.02,29.58c-.24.69-.66,1.38-1.08,1.81-.11-.11-.36-.31-.51-.4.42-.39.77-.97.98-1.55l.61.14ZM539.25,29.08v1.99c0,.34-.06.53-.28.64-.22.11-.54.12-1,.12-.02-.18-.13-.48-.23-.66.32.02.62,0,.72,0,.09,0,.12-.03.12-.12v-1.98h-1.58v-.61h1.58v-.82h-1.1v-.55c-.2.17-.41.32-.62.45-.07-.17-.23-.42-.36-.57.85-.47,1.66-1.34,2.06-2.07h.63c.54.81,1.38,1.6,2.16,2.01-.12.15-.28.4-.38.6-.2-.12-.39-.26-.59-.42v.55h-1.13v.82h1.7v.61h-1.7ZM540.34,27.07c-.56-.45-1.1-1.01-1.44-1.53-.31.49-.8,1.06-1.37,1.53h2.81ZM540.21,29.42c.4.51.84,1.2,1.02,1.65l-.58.29c-.16-.45-.59-1.16-.97-1.69l.53-.25Z"/><path class="cls-3" d="M545.75,26.19c-.51.42-1.55,1.25-2.09,1.7-.43.37-.43.47.02.85.64.53,2.02,1.63,2.81,2.41l-.69.63c-.18-.2-.38-.42-.57-.61-.51-.51-1.63-1.48-2.34-2.07-.73-.61-.66-.98.06-1.57.58-.48,1.68-1.36,2.19-1.87.17-.18.39-.41.49-.57l.7.63c-.19.14-.43.35-.58.47Z"/><path class="cls-3" d="M548.44,31.98l-.58-.27c.82-.86,1.39-1.95,1.39-3.34s-.57-2.48-1.39-3.34l.58-.27c.86.87,1.5,2.08,1.5,3.62s-.64,2.75-1.5,3.62Z"/><rect class="cls-2" width="558.7" height="38.7"/></g></svg>