<svg xmlns="http://www.w3.org/2000/svg" viewBox="0 0 49.911 44.85"><path d="M31.681 7.674C31.681 3.436 35.116 0 39.355 0s7.674 3.436 7.674 7.674-3.435 7.674-7.674 7.674-7.674-3.435-7.674-7.674Zm18.184 34.65-5.457-21.079c0-.866 2.699-1.573 1.834-1.573H32.468c-.866 0 1.834.708 1.834 1.573l-5.457 21.079c-.239 1.364.475 2.527 1.595 2.527h17.83c1.121 0 1.834-1.163 1.595-2.527Z" fill="#c67bac"/><path d="M.787 7.674C.787 3.436 4.222 0 8.461 0s7.674 3.436 7.674 7.674-3.435 7.674-7.674 7.674S.787 11.912.787 7.674Zm14.561 11.997H1.574c-.866 0-1.574.708-1.574 1.573v22.032c0 .866.708 1.574 1.574 1.574h13.774c.865 0 1.574-.708 1.574-1.574V21.245c0-.866-.708-1.573-1.574-1.573Z" fill="#2eafbf"/></svg>