<?xml version="1.0" encoding="UTF-8"?><svg id="_レイヤー_2" xmlns="http://www.w3.org/2000/svg" viewBox="0 0 1023 621.87"><defs><style>.cls-1{fill:#1a1a1a;}.cls-1,.cls-2,.cls-3,.cls-4,.cls-5{stroke-width:0px;}.cls-6{opacity:.8;}.cls-2{fill:#f4901e;}.cls-3{fill:#e27eaa;}.cls-4{fill:#cddc46;}.cls-5{fill:#fff;}</style></defs><g id="DESIGN"><rect class="cls-4" y="69.87" width="1023" height="169.78"/><path class="cls-5" d="M435,115.87c0,11-9,20-20,20H63c-11,0-20-9-20-20h0c0-11,9-20,20-20h352c11,0,20,9,20,20h0Z"/><g class="cls-6"><rect class="cls-3" x="1.49" y="451.89" width="1020.85" height="169.98"/></g><g class="cls-6"><rect class="cls-2" y="263.68" width="1022.85" height="169.98"/></g><path class="cls-1" d="M637.41,195.08v-45.68l-10.57,9.27v-8.59l10.57-9.12h7.75v54.12h-7.75Z"/><path class="cls-1" d="M666.14,206.86v-20.6h8.82v13.38l-8.82,7.22Z"/><path class="cls-1" d="M702.69,195.54c-9.35,0-16.04-6.16-16.04-16.19,0-4.41,1.67-8.59,4.03-13.3l12.31-25.08h8.29l-11.63,23.26c1.44-.61,3.12-.84,4.79-.84,7.83,0,14.21,6.16,14.21,15.66s-6.61,16.49-15.96,16.49ZM702.62,169.85c-4.86,0-8.21,3.5-8.21,9.35s3.34,9.42,8.21,9.42,8.29-3.65,8.29-9.42c0-5.32-3.12-9.35-8.29-9.35Z"/><path class="cls-1" d="M756.27,191.36c-2.43,2.43-6.16,4.26-11.4,4.26s-9.2-1.82-11.55-4.18c-2.89-2.89-3.8-6.46-4.1-10.34h7.75c.61,4.79,3.04,7.52,7.9,7.52,2.28,0,4.26-.76,5.62-2.13,2.28-2.28,2.58-5.85,2.58-9.5,0-6.46-1.67-11.32-7.9-11.32-4.41,0-6.84,2.2-7.68,4.86h-7.07v-29.57h29.19v6.92h-22.19v14.29c1.82-1.9,5.02-3.12,8.97-3.12,4.26,0,7.52,1.29,9.73,3.5,4.1,4.1,4.71,9.35,4.71,14.44,0,5.78-.61,10.41-4.56,14.36Z"/><path class="cls-1" d="M786.67,195.54c-8.59,0-15.58-5.85-15.58-15.5v-24.02c0-9.65,6.99-15.5,15.58-15.5s15.66,5.85,15.66,15.5v24.02c0,9.65-6.99,15.5-15.66,15.5ZM794.58,156.25c0-5.17-2.96-8.82-7.9-8.82s-7.83,3.65-7.83,8.82v23.56c0,5.17,2.96,8.82,7.83,8.82s7.9-3.65,7.9-8.82v-23.56Z"/><path class="cls-1" d="M813.33,189.94c0,1.79.03,2.41.14,3.05h-2.52c.11-.78.17-1.65.17-3.14v-18.12c0-1.09-.03-1.79-.11-2.55.81.08,1.48.11,2.74.11h17.02c1.34,0,2.04-.03,2.72-.11-.08.81-.11,1.43-.11,2.72v18.26c0,1.9-.7,2.35-3.53,2.35-1.09,0-2.66-.06-3.95-.14-.11-.84-.22-1.34-.53-2.18,1.9.22,3.28.34,4.37.34,1.2,0,1.43-.11,1.43-.67v-8.18h-17.84v8.26ZM820.94,171.37h-7.62v8.26h7.62v-8.26ZM831.16,179.63v-8.26h-8.06v8.26h8.06Z"/><path class="cls-1" d="M849.61,169.5l-10.08,25.87h-2.49l10.11-25.87h2.46Z"/><path class="cls-1" d="M857.68,184.03c-.25,1.51-.59,2.8-1.06,4.03-.73,1.93-1.57,3.28-3.14,5.04-.53-.73-1.01-1.2-1.82-1.79,1.71-1.68,2.58-3.08,3.25-5.32.78-2.66,1.09-6.02,1.09-12.52,0-2.41-.03-3.64-.14-4.65,1.04.11,1.79.14,3.02.14h10.86c1.32,0,2.04-.03,3-.14-.08.81-.11,1.43-.11,2.97v18.26c0,1.2-.25,1.85-.84,2.24-.53.31-1.18.42-2.77.42-.81,0-1.68-.03-3.08-.11-.11-.9-.25-1.4-.56-2.27,1.43.22,2.72.31,3.92.31.95,0,1.15-.14,1.15-.81v-5.8h-12.77ZM870.45,181.98v-4.62h-12.26c0,1.15-.08,2.44-.25,4.62h12.52ZM870.45,175.32v-4.31h-12.24v4.31h12.24Z"/><path class="cls-1" d="M887.05,193.41c-1.65-1.96-2.41-3.11-3.25-4.9-1.2-2.58-1.79-5.21-1.79-8.06s.59-5.49,1.79-8.06c.84-1.79,1.6-2.94,3.25-4.9h2.86c-2.1,2.21-2.97,3.44-3.89,5.38-1.12,2.35-1.65,4.84-1.65,7.59s.53,5.24,1.65,7.59c.92,1.93,1.79,3.16,3.89,5.38h-2.86Z"/><path class="cls-1" d="M897.38,171.18c-1.15.28-1.71.36-3.3.64-.17-.62-.36-1.09-.84-1.79,3.95-.53,6.86-1.4,8.34-2.46l1.26,1.74c-.25.11-.36.17-.73.31-1.01.45-1.65.7-2.69,1.04v4.28h1.2c.9,0,1.37-.03,1.93-.11v2.07c-.56-.08-1.09-.11-1.93-.11h-1.09c.28.73.62,1.43,1.23,2.49.53.98,1.01,1.6,2.02,2.66-.45.59-.67.98-1.06,1.85-1.18-1.57-1.68-2.46-2.46-4.51.11,1.34.17,2.88.17,3.89v6.75c0,1.57.03,2.52.17,3.3h-2.38c.11-.95.17-1.79.17-3.3v-6.19c0-.87.08-2.97.14-4.2-.87,3.08-2.07,5.43-4,7.81-.36-.87-.64-1.34-1.15-1.99,2.13-2.38,3.86-5.57,4.7-8.57h-1.74c-1.12,0-1.68.03-2.32.14v-2.13c.67.11,1.2.14,2.32.14h2.04v-3.75ZM911.07,173.3c1.2-2.13,1.71-3.28,2.44-5.54l2.18.76c-.98,2.18-1.54,3.28-2.49,4.79h1.46c.98,0,1.51-.03,2.3-.11-.08.56-.11,1.06-.11,1.88v4.7c0,.78.03,1.34.11,2.04-.67-.08-1.37-.11-2.3-.11h-1.6v8.46c0,.64.2.73,1.71.73.98,0,1.37-.14,1.57-.53.22-.5.34-1.6.39-3.7.76.53,1.26.76,1.93.92-.25,3.08-.5,4.09-1.18,4.68-.53.45-1.34.59-3.44.59-2.46,0-3.05-.42-3.05-2.16v-8.99h-2.38c-.14,2.74-.45,4.45-1.18,6.19-1.04,2.49-2.52,4.06-5.12,5.43-.45-.73-.84-1.15-1.54-1.74,2.41-1.12,3.78-2.41,4.68-4.4.7-1.48,1.04-3.28,1.06-5.49h-.87c-.9,0-1.43.03-2.16.11.06-.7.08-1.32.08-2.07v-4.59c0-.64-.03-1.26-.08-1.96.78.08,1.26.11,2.18.11h5.4ZM906.85,173.08c-.7-1.79-1.34-3-2.44-4.4l1.93-.9c1.18,1.71,1.85,2.91,2.46,4.42l-1.96.87ZM905.56,179.83h9.27v-4.65h-9.27v4.65Z"/><path class="cls-1" d="M921.52,178.46c.67.11,1.12.14,2.21.14h1.88c.84,0,1.46-.03,2.16-.14-.11.92-.14,1.57-.14,2.97v5.57c.56,1.23.95,1.62,2.16,2.3,1.32.76,2.88.95,7.2.95s7.76-.17,10.39-.56c-.39.98-.56,1.57-.7,2.44-2.52.11-6.05.2-8.12.2-4.68,0-6.72-.14-8.12-.56-1.71-.53-2.83-1.37-3.95-3.02-.92.92-1.76,1.68-2.91,2.55q-.73.56-1.48,1.23l-1.06-2.27c1.23-.53,3.25-1.96,4.51-3.19v-6.52h-1.99c-.9,0-1.34.03-2.02.14v-2.21ZM923.93,168.32c1.88,1.71,3.28,3.22,4.68,5.04l-1.68,1.57c-1.71-2.41-2.52-3.33-4.54-5.21l1.54-1.4ZM933.19,170.95c-.95,0-1.65.03-2.27.14v-2.18c.62.11,1.2.14,2.3.14h3.16c.95,0,1.57-.03,2.1-.11-.08.5-.11.98-.11,1.48,0,3,.76,6.02,2.24,8.88.87,1.65,1.9,3.16,3.08,4.4.92.98,1.6,1.51,3.02,2.49-.59.62-.98,1.18-1.43,1.99-2.04-1.48-3.3-2.8-4.9-5.1-1.51-2.18-2.21-3.89-3.02-7.34-.42,2.27-.67,3.22-1.32,4.65-.84,1.93-2.02,3.75-3.42,5.26-.62.67-1.12,1.12-2.27,2.07-.5-.67-.81-1.01-1.6-1.68,1.6-1.15,2.46-2.02,3.64-3.58,2.38-3.16,3.58-6.83,3.75-11.51h-2.97Z"/><path class="cls-1" d="M949.6,193.41c2.1-2.21,2.97-3.44,3.89-5.38,1.12-2.35,1.65-4.79,1.65-7.59s-.53-5.24-1.65-7.59c-.92-1.93-1.79-3.16-3.89-5.38h2.88c1.62,1.96,2.38,3.11,3.22,4.9,1.2,2.58,1.79,5.18,1.79,8.06s-.59,5.49-1.79,8.06c-.84,1.79-1.6,2.94-3.22,4.9h-2.88Z"/><path class="cls-1" d="M622.97,395.08v-6.92l20.83-25.31c2.05-2.51,2.89-4.48,2.89-7.22,0-4.86-2.89-8.21-7.91-8.21-4.1,0-7.98,2.28-7.98,8.36h-7.75c0-9.2,6.54-15.28,15.73-15.28s15.66,5.85,15.66,15.2c0,4.79-1.75,7.6-5.09,11.71l-16.95,20.75h22.04v6.92h-31.47Z"/><path class="cls-1" d="M666.14,406.86v-20.6h8.82v13.38l-8.82,7.22Z"/><path class="cls-1" d="M701.33,395.08h-8.36l18.17-47.2h-16.49v8.51h-7.45v-15.43h32.23v6.92l-18.09,47.2Z"/><path class="cls-1" d="M756.27,391.36c-2.43,2.43-6.16,4.26-11.4,4.26s-9.2-1.82-11.55-4.18c-2.89-2.89-3.8-6.46-4.1-10.34h7.75c.61,4.79,3.04,7.52,7.9,7.52,2.28,0,4.26-.76,5.62-2.13,2.28-2.28,2.58-5.85,2.58-9.5,0-6.46-1.67-11.32-7.9-11.32-4.41,0-6.84,2.2-7.68,4.86h-7.07v-29.57h29.19v6.92h-22.19v14.29c1.82-1.9,5.02-3.12,8.97-3.12,4.26,0,7.52,1.29,9.73,3.5,4.1,4.1,4.71,9.35,4.71,14.44,0,5.78-.61,10.41-4.56,14.36Z"/><path class="cls-1" d="M786.67,395.54c-8.59,0-15.58-5.85-15.58-15.5v-24.02c0-9.65,6.99-15.5,15.58-15.5s15.66,5.85,15.66,15.5v24.02c0,9.65-6.99,15.5-15.66,15.5ZM794.58,356.25c0-5.17-2.96-8.82-7.9-8.82s-7.83,3.65-7.83,8.82v23.56c0,5.17,2.96,8.82,7.83,8.82s7.9-3.65,7.9-8.82v-23.56Z"/><path class="cls-1" d="M813.33,389.94c0,1.79.03,2.41.14,3.05h-2.52c.11-.78.17-1.65.17-3.14v-18.12c0-1.09-.03-1.79-.11-2.55.81.08,1.48.11,2.74.11h17.02c1.34,0,2.04-.03,2.72-.11-.08.81-.11,1.43-.11,2.72v18.26c0,1.9-.7,2.35-3.53,2.35-1.09,0-2.66-.06-3.95-.14-.11-.84-.22-1.34-.53-2.18,1.9.22,3.28.34,4.37.34,1.2,0,1.43-.11,1.43-.67v-8.18h-17.84v8.26ZM820.94,371.37h-7.62v8.26h7.62v-8.26ZM831.16,379.63v-8.26h-8.06v8.26h8.06Z"/><path class="cls-1" d="M849.61,369.5l-10.08,25.87h-2.49l10.11-25.87h2.46Z"/><path class="cls-1" d="M857.68,384.03c-.25,1.51-.59,2.8-1.06,4.03-.73,1.93-1.57,3.28-3.14,5.04-.53-.73-1.01-1.2-1.82-1.79,1.71-1.68,2.58-3.08,3.25-5.32.78-2.66,1.09-6.02,1.09-12.52,0-2.41-.03-3.64-.14-4.65,1.04.11,1.79.14,3.02.14h10.86c1.32,0,2.04-.03,3-.14-.08.81-.11,1.43-.11,2.97v18.26c0,1.2-.25,1.85-.84,2.24-.53.31-1.18.42-2.77.42-.81,0-1.68-.03-3.08-.11-.11-.9-.25-1.4-.56-2.27,1.43.22,2.72.31,3.92.31.95,0,1.15-.14,1.15-.81v-5.8h-12.77ZM870.45,381.98v-4.62h-12.26c0,1.15-.08,2.44-.25,4.62h12.52ZM870.45,375.32v-4.31h-12.24v4.31h12.24Z"/><path class="cls-1" d="M887.05,393.41c-1.65-1.96-2.41-3.11-3.25-4.9-1.2-2.58-1.79-5.21-1.79-8.06s.59-5.49,1.79-8.06c.84-1.79,1.6-2.94,3.25-4.9h2.86c-2.1,2.21-2.97,3.44-3.89,5.38-1.12,2.35-1.65,4.84-1.65,7.59s.53,5.24,1.65,7.59c.92,1.93,1.79,3.16,3.89,5.38h-2.86Z"/><path class="cls-1" d="M897.38,371.18c-1.15.28-1.71.36-3.3.64-.17-.62-.36-1.09-.84-1.79,3.95-.53,6.86-1.4,8.34-2.46l1.26,1.74c-.25.11-.36.17-.73.31-1.01.45-1.65.7-2.69,1.04v4.28h1.2c.9,0,1.37-.03,1.93-.11v2.07c-.56-.08-1.09-.11-1.93-.11h-1.09c.28.73.62,1.43,1.23,2.49.53.98,1.01,1.6,2.02,2.66-.45.59-.67.98-1.06,1.85-1.18-1.57-1.68-2.46-2.46-4.51.11,1.34.17,2.88.17,3.89v6.75c0,1.57.03,2.52.17,3.3h-2.38c.11-.95.17-1.79.17-3.3v-6.19c0-.87.08-2.97.14-4.2-.87,3.08-2.07,5.43-4,7.81-.36-.87-.64-1.34-1.15-1.99,2.13-2.38,3.86-5.57,4.7-8.57h-1.74c-1.12,0-1.68.03-2.32.14v-2.13c.67.11,1.2.14,2.32.14h2.04v-3.75ZM911.07,373.3c1.2-2.13,1.71-3.28,2.44-5.54l2.18.76c-.98,2.18-1.54,3.28-2.49,4.79h1.46c.98,0,1.51-.03,2.3-.11-.08.56-.11,1.06-.11,1.88v4.7c0,.78.03,1.34.11,2.04-.67-.08-1.37-.11-2.3-.11h-1.6v8.46c0,.64.2.73,1.71.73.98,0,1.37-.14,1.57-.53.22-.5.34-1.6.39-3.7.76.53,1.26.76,1.93.92-.25,3.08-.5,4.09-1.18,4.68-.53.45-1.34.59-3.44.59-2.46,0-3.05-.42-3.05-2.16v-8.99h-2.38c-.14,2.74-.45,4.45-1.18,6.19-1.04,2.49-2.52,4.06-5.12,5.43-.45-.73-.84-1.15-1.54-1.74,2.41-1.12,3.78-2.41,4.68-4.4.7-1.48,1.04-3.28,1.06-5.49h-.87c-.9,0-1.43.03-2.16.11.06-.7.08-1.32.08-2.07v-4.59c0-.64-.03-1.26-.08-1.96.78.08,1.26.11,2.18.11h5.4ZM906.85,373.08c-.7-1.79-1.34-3-2.44-4.4l1.93-.9c1.18,1.71,1.85,2.91,2.46,4.42l-1.96.87ZM905.56,379.83h9.27v-4.65h-9.27v4.65Z"/><path class="cls-1" d="M921.52,378.46c.67.11,1.12.14,2.21.14h1.88c.84,0,1.46-.03,2.16-.14-.11.92-.14,1.57-.14,2.97v5.57c.56,1.23.95,1.62,2.16,2.3,1.32.76,2.88.95,7.2.95s7.76-.17,10.39-.56c-.39.98-.56,1.57-.7,2.44-2.52.11-6.05.2-8.12.2-4.68,0-6.72-.14-8.12-.56-1.71-.53-2.83-1.37-3.95-3.02-.92.92-1.76,1.68-2.91,2.55q-.73.56-1.48,1.23l-1.06-2.27c1.23-.53,3.25-1.96,4.51-3.19v-6.52h-1.99c-.9,0-1.34.03-2.02.14v-2.21ZM923.93,368.32c1.88,1.71,3.28,3.22,4.68,5.04l-1.68,1.57c-1.71-2.41-2.52-3.33-4.54-5.21l1.54-1.4ZM933.19,370.95c-.95,0-1.65.03-2.27.14v-2.18c.62.11,1.2.14,2.3.14h3.16c.95,0,1.57-.03,2.1-.11-.08.5-.11.98-.11,1.48,0,3,.76,6.02,2.24,8.88.87,1.65,1.9,3.16,3.08,4.4.92.98,1.6,1.51,3.02,2.49-.59.62-.98,1.18-1.43,1.99-2.04-1.48-3.3-2.8-4.9-5.1-1.51-2.18-2.21-3.89-3.02-7.34-.42,2.27-.67,3.22-1.32,4.65-.84,1.93-2.02,3.75-3.42,5.26-.62.67-1.12,1.12-2.27,2.07-.5-.67-.81-1.01-1.6-1.68,1.6-1.15,2.46-2.02,3.64-3.58,2.38-3.16,3.58-6.83,3.75-11.51h-2.97Z"/><path class="cls-1" d="M949.6,393.41c2.1-2.21,2.97-3.44,3.89-5.38,1.12-2.35,1.65-4.79,1.65-7.59s-.53-5.24-1.65-7.59c-.92-1.93-1.79-3.16-3.89-5.38h2.88c1.62,1.96,2.38,3.11,3.22,4.9,1.2,2.58,1.79,5.18,1.79,8.06s-.59,5.49-1.79,8.06c-.84,1.79-1.6,2.94-3.22,4.9h-2.88Z"/><path class="cls-1" d="M49.31,175.86c5.11-5.31,9.19-12.18,10.53-17.85h9.81c-1.19,3.71-4.54,11.09-6.19,13.57v32.82h-8.57v-22.19c-3.04,2.84-3.46,3.2-5.57,4.64v-10.99ZM65.97,171.32l7.74-.1v-13.21h8.93v12.95l13.52-.41v8.1l-12.95.41c.52,3.97,1.91,7.17,4.59,10.58,2.79,3.25,5.06,4.59,8.98,5.32v9.34c-6.45-.36-11.51-3.25-16.41-9.24-3.51-4.59-5.42-9.39-6.19-15.69l-8.21.21v-8.26ZM92.76,159.14c1.5,3.77,2.32,5.93,3.4,9.24h-8.1c-1.19-3.56-1.86-5.62-3.25-9.24h7.95Z"/><path class="cls-1" d="M118.76,166.47v5.99h-15.74v-5.99h15.74ZM117.32,188.71v11.2c.05,2.37-1.44,3.56-4.33,3.51h-8.62v-14.71h12.95ZM117.32,173.85v5.93h-12.69v-5.93h12.69ZM104.62,181.33h12.69v5.73h-12.69v-5.73ZM117.32,159.04v5.93h-12.49v-5.93h12.49ZM111.95,197.02v-2.94h-2.12v2.94h2.12ZM118.25,183.7l1.55-.05v-21.73h4.08c.62-1.81.72-2.06,1.08-3.92h7.48c-.62,1.96-.72,2.22-1.45,3.92h4.8v14.14h2.43c-.77,2.89-1.29,4.49-2.43,7.53v15.38c.05,3.92-1.6,5.52-5.52,5.37h-4.13v-6.76c-1.34,1.86-5.57,5.52-7.79,6.76v-8.05c2.84-2.27,4.95-4.64,6.04-6.66l-6.14.21v-6.14ZM129.45,170.03v-2.27h-3.46v2.27h3.46ZM129.45,176.74v-1.91h-3.46v1.91h3.46ZM129.45,183.24v-1.86h-3.46v1.96l3.46-.1ZM129.45,197.58v-4.75c-1.03,1.81-1.24,2.12-3.2,4.75h3.2ZM141.83,167.24v-8.88h6.81v8.88h2.79v7.17h-2.79v24.56c-.21,3.87-1.45,5.01-5.57,5.11h-5.11v-6.86h3.87v-7.33l-3.97-2.01v-8.31l3.97,2.37v-7.53h-5.01v-7.17h5.01Z"/><path class="cls-1" d="M160.04,160.02h42.16v11.35c.16,8.57-4.75,13.37-13.98,13.57h-3.71c-.21,7.84-.93,10.53-3.56,13.83-2.74,3.25-6.66,4.95-11.25,4.9h-9.6v-8.36h6.55c6.91.05,8.62-1.7,8.62-8.93v-9.75h12.54c4.03-.15,5.52-1.65,5.57-5.57v-2.27h-33.34v-8.77Z"/><path class="cls-1" d="M220.47,165.64c1.96,7.17,2.94,11.2,4.39,17.91h-8.88c-.98-6.4-2.06-11.92-3.66-17.91h8.15ZM253.19,165.38v14.97c.46,15.58-5.78,22.76-19.56,22.55h-19.2v-7.84h19.2c8.36-.31,11.4-4.13,11.1-13.83v-15.84h8.46ZM234.09,165.64c1.86,6.45,3.46,13,4.39,17.91h-8.82c-1.39-7.69-2.12-10.94-3.92-17.91h8.36Z"/><path class="cls-1" d="M265.36,162.24h32.92c.05,5.11,2.73,7.95,7.64,8.21v10.06c-.1,15.79-7.59,23.02-24.1,23.07h-14.45v-8.52h13.01c12.07,0,16.31-4.54,16.2-17.29v-6.92h-31.22v-8.62ZM311.7,162.96c0,3.35-2.74,6.09-6.09,6.09s-6.09-2.74-6.09-6.09,2.79-6.04,6.19-6.04,5.99,2.79,5.99,6.04ZM303.24,162.96c0,1.29,1.08,2.37,2.32,2.37,1.34,0,2.37-1.03,2.37-2.37s-1.08-2.32-2.37-2.32-2.32,1.08-2.32,2.32Z"/><path class="cls-1" d="M317.78,195.75h22.6v-12.56c0-2.45-.67-3.23-2.73-3.23h-19.65v-6.17h21.04c4.61-.14,7.59,2.59,7.56,6.95v21.04h-28.81v-6.03Z"/><path class="cls-1" d="M384.05,184.29v6.03h-29.06v-6.03h29.06Z"/><path class="cls-1" d="M393.52,178.68v-5.85h25.65c-1.92,6.17-3.51,10.22-5.75,14.47,3.94,5.5,6.53,9.83,9.15,15.22h-7.7c-1.56-3.72-2.66-5.82-4.75-9.19-3.37,6.1-8.05,9.15-14.58,9.58h-4.47v-6h2.23c5.39.04,8.16-1.31,10.79-5.25,1.74-2.45,4.47-8.12,6.24-12.98h-16.82Z"/><circle class="cls-5" cx="554.55" cy="117.82" r="7.93" transform="translate(20.88 309.14) rotate(-31.72)"/><path class="cls-5" d="M585.84,124.29c-.95-1.9-3.17-2.79-5.17-2.08-7.49,2.68-24.93,8.48-31.13,6.7-2.86-.82-6.85-5.83-9.51-11.1-1.86-3.67-4.64-13.48-6.15-19.08-.61-2.24-2.92-3.56-5.16-2.95l-.44.12c-2.17.59-3.48,2.78-2.99,4.97.97,4.31,2.61,11.15,4.09,15.1,2.28,6.09,4.95,12.93,4.95,12.93,0,0-8.42,17.68-11.41,27.14-1.27,4.02-10.63,29.91-14.95,41.82-1.06,2.91,1.1,5.99,4.2,5.99h.14c1.82,0,3.45-1.1,4.14-2.78l14.85-36.41,7.99,2.66,14.13,33.78c.69,1.66,2.32,2.74,4.12,2.74h0c3.12,0,5.28-3.11,4.18-6.03-4.39-11.7-13.5-36.76-12.92-41.78.76-6.59,9.13-16.87,9.13-16.87l25.58-9.07c2.38-.84,3.48-3.58,2.35-5.83Z"/><path class="cls-5" d="M585.44,325.11c-.8-1.72-1.49-3.2-2.05-4.51-4.12-9.49-1.34-15.34.89-20.03.48-1,.93-1.95,1.28-2.87.44-1.15-.14-2.45-1.29-2.89-1.15-.44-2.45.14-2.89,1.29-.29.75-.7,1.62-1.14,2.54-2.34,4.93-5.88,12.38-.95,23.73.59,1.36,1.29,2.87,2.1,4.61,1.66,3.57,3.68,7.92,5.58,12.86-16.57,7.3-46.04,6.43-63.06.65,1.98-5.2,4.1-9.78,5.83-13.51.81-1.75,1.51-3.26,2.1-4.61,4.93-11.35,1.39-18.8-.95-23.73-.44-.92-.85-1.79-1.14-2.54-.44-1.15-1.73-1.73-2.89-1.29-1.15.44-1.73,1.73-1.29,2.89.35.92.8,1.87,1.28,2.87,2.23,4.7,5.01,10.55.89,20.04-.57,1.31-1.26,2.79-2.05,4.51-6.79,14.62-19.43,41.84-7.4,69.39.37.84,1.19,1.34,2.05,1.34.3,0,.6-.06.89-.19,1.13-.49,1.65-1.81,1.15-2.94-5.98-13.7-5.34-27.49-2.45-39.51,6.1,1.48,12.91,3.98,18.64,6.88,7.4,3.74,12.56,7.91,14.52,11.72v21.8c0,1.24,1,2.24,2.24,2.24s2.24-1,2.24-2.24v-21.25c.19-.14.35-.31.46-.53,1.96-3.82,7.12-7.99,14.53-11.74,5.73-2.9,12.54-5.4,18.64-6.88,2.89,12.01,3.53,25.81-2.45,39.51-.49,1.13.02,2.45,1.15,2.94.29.13.59.19.89.19.86,0,1.68-.5,2.05-1.34,12.02-27.55-.61-54.76-7.4-69.39Z"/><path class="cls-5" d="M555.56,336.93c.82,0,1.49-.67,1.49-1.49v-3.31c0-.82-.67-1.49-1.49-1.49s-1.49.67-1.49,1.49v3.31c0,.82.67,1.49,1.49,1.49Z"/><path class="cls-5" d="M588.05,489.23c-4.66.93-6.99,6.99-6.06,9.75.93,2.75,9.79,2.84,12.12,6.57,2.33,3.73-.47,6.53,0,9.33-2.8-.47-5.6,1.4-7.93,3.73,0,0-1.4-1.87-6.06-3.26-4.66-1.4-6.99,3.26-12.22,3.26-3.1,0-3.14-1.14-3.15-4.11-.01-4.94-4.03-8.95-8.97-8.95h0c-4.94,0-8.95,4-8.97,8.95,0,2.97-.06,4.11-3.15,4.11-5.23,0-7.56-4.66-12.22-3.26-4.66,1.4-6.06,3.26-6.06,3.26-2.33-2.33-5.13-4.2-7.93-3.73.47-2.8-2.33-5.6,0-9.33,2.33-3.73,11.19-3.82,12.12-6.57.93-2.75-1.4-8.82-6.06-9.75-4.66-.93-25.18,16.32-24.71,34.04,4.2,8.86,16.41,17.72,28.49,13.06,2.29,9.33,7.88,13.52,9.75,16.32,1.87,2.8.47,19.58.47,19.58,6.06,5.13,11.39,7.46,18.28,7.46s12.22-2.33,18.28-7.46c0,0-1.4-16.79.47-19.58s7.46-6.99,9.75-16.32c12.08,4.66,24.29-4.2,28.49-13.06.47-17.72-20.05-34.97-24.71-34.04ZM569.06,569.46c-1.86,2.2-4.05,3.38-6.35,3.4-.02,0-.04,0-.06,0-2.32,0-4.56-1.17-6.5-3.38-.2-.23-.32-.51-.36-.8-.04.29-.16.57-.36.8-1.94,2.21-4.18,3.38-6.5,3.38-.02,0-.04,0-.06,0-2.3-.02-4.49-1.2-6.35-3.4-.54-.64-.46-1.59.18-2.13.64-.54,1.59-.46,2.13.18,1.27,1.51,2.68,2.32,4.07,2.33,1.44.01,2.91-.8,4.26-2.35.55-.63,1.5-.69,2.13-.14.3.26.46.61.5.98.04-.36.21-.72.5-.98.63-.55,1.58-.49,2.13.14,1.36,1.55,2.84,2.37,4.26,2.35,1.39-.01,2.8-.82,4.07-2.33.54-.64,1.49-.72,2.13-.18.64.54.72,1.49.18,2.13ZM568.99,560.21c-1.46,1.53-4.27,2.59-7.24,2.59-2.05,0-4.17-.51-5.98-1.73-1.81,1.22-3.93,1.73-5.98,1.73-2.97,0-5.78-1.07-7.24-2.59-.58-.6-.56-1.56.05-2.14.6-.58,1.56-.56,2.14.05,1.77,1.85,7.08,2.57,10.02-.08.02-.02.04-.03.06-.04.04-.03.08-.07.13-.09.04-.03.08-.05.12-.07.05-.02.09-.05.14-.06.04-.02.09-.03.13-.05.05-.01.1-.03.15-.03.05,0,.09-.02.14-.02.05,0,.1,0,.15,0,.05,0,.09,0,.14,0,.05,0,.1.01.15.02.05,0,.09.02.14.03.05.01.09.03.14.05.05.02.09.04.13.06.04.02.08.05.12.07.04.03.09.06.13.09.02.02.04.03.06.04,2.94,2.65,8.25,1.93,10.02.08.58-.6,1.53-.62,2.14-.05.6.58.62,1.53.05,2.14ZM568.99,551.82c-2.09,2.17-5.85,3.43-9.41,3.43-1.33,0-2.63-.18-3.8-.55-1.17.37-2.47.55-3.8.55-3.56,0-7.32-1.27-9.41-3.43-.58-.6-.56-1.56.04-2.14.6-.58,1.56-.56,2.14.04,2.17,2.25,7.27,3.21,10.49,1.97.03-.01.06-.02.1-.03.05-.02.1-.03.15-.04.05,0,.1-.01.15-.02.05,0,.1,0,.15,0,.05,0,.1,0,.15.01.05,0,.09,0,.14.02.05.01.11.03.16.04.03,0,.06.01.09.03,3.22,1.24,8.32.28,10.49-1.97.58-.6,1.54-.62,2.14-.04.6.58.62,1.54.04,2.14Z"/><path class="cls-1" d="M621.81,116.15h3.54v-10.83h-2.9v-1.61c1.52-.26,2.6-.66,3.52-1.23h1.91v13.66h3.17v2.09h-9.24v-2.09Z"/><path class="cls-1" d="M635.45,116.15h3.54v-10.83h-2.9v-1.61c1.52-.26,2.6-.66,3.52-1.23h1.91v13.66h3.17v2.09h-9.24v-2.09Z"/><path class="cls-1" d="M655.38,113.42c-.33-.62-1.06-1.65-1.72-2.55v9.07h-1.98v-8.89c-.81,2-1.83,3.89-2.82,5.13-.2-.57-.68-1.41-.99-1.89,1.3-1.5,2.71-4.11,3.54-6.45h-3.12v-1.94h3.39v-2.99c-1.01.22-2.02.37-2.97.51-.09-.46-.35-1.14-.59-1.58,2.44-.4,5.21-1.03,6.87-1.76l1.41,1.56c-.79.31-1.74.59-2.73.86v3.41h2.57v1.94h-2.57v1.01c.64.55,2.51,2.46,2.9,2.97l-1.19,1.61ZM668.38,117.91v1.65h-13.14v-1.65h5.81v-1.43h-4.58v-1.58h4.58v-1.32h-4.38v-7.13h4.38v-1.23h-5.19v-1.63h5.19v-1.23c-1.52.09-3.01.15-4.42.18-.04-.42-.26-1.12-.46-1.52,3.63-.13,8.01-.48,10.52-.99l1.21,1.5c-1.36.31-3.06.53-4.86.68v1.39h4.91v1.63h-4.91v1.23h4.51v7.13h-4.51v1.32h4.58v1.58h-4.58v1.43h5.35ZM658.48,109.37h2.57v-1.47h-2.57v1.47ZM661.06,112.12v-1.47h-2.57v1.47h2.57ZM663.04,107.9v1.47h2.64v-1.47h-2.64ZM665.68,110.65h-2.64v1.47h2.64v-1.47Z"/><path class="cls-1" d="M679.36,118.54c-.66-.68-1.91-1.65-3.08-2.51-.66,1.34-1.87,2.62-4.16,3.61-.2-.46-.75-1.19-1.08-1.54,2.93-1.25,3.78-2.93,4-4.49h-3.54v-1.78h3.63v-1.69h1.85v1.69h3.85v1.78h-3.89c-.02.24-.07.46-.11.7,1.32.86,2.95,2.07,3.83,2.84l-1.3,1.39ZM675.2,106.91c-.86,1.19-1.91,2.25-2.93,2.91-.26-.4-.81-1.01-1.21-1.34,1.28-.66,2.64-1.96,3.54-3.26h-3.1v-1.63h3.7v-3.56h1.78v3.56h3.72v1.63h-3.72v.15c.86.46,3.32,2,3.92,2.44l-1.1,1.43c-.57-.53-1.8-1.5-2.82-2.24v2.71h-1.78v-2.79ZM672.94,103.36c-.15-.7-.64-1.78-1.12-2.57l1.39-.51c.55.77,1.06,1.78,1.21,2.46l-1.47.62ZM680.61,100.68c-.53.99-1.06,1.98-1.52,2.66l-1.34-.48c.4-.73.88-1.89,1.14-2.66l1.72.48ZM685.21,116.96c-1.1,1.14-2.95,2.33-4.51,3.01-.33-.4-.92-.99-1.36-1.36,1.56-.62,3.32-1.74,4.18-2.68l1.69,1.03ZM684.4,104.27c.15-.57.31-1.21.44-1.78h-3.96v-1.76h10.36v1.76h-4.22c-.22.62-.44,1.23-.64,1.78h4.2v11.4h-9.02v-11.4h2.84ZM688.65,105.81h-5.24v1.78h5.24v-1.78ZM688.65,109.04h-5.24v1.8h5.24v-1.8ZM688.65,112.3h-5.24v1.83h5.24v-1.83ZM688.05,116.04c1.25.79,2.86,1.98,3.7,2.79l-1.56,1.12c-.77-.79-2.35-2.05-3.61-2.9l1.47-1.01Z"/><path class="cls-1" d="M704.9,119.07l-1.3-2.07c.75-.07,1.41-.18,1.96-.31,2.82-.64,5.33-2.71,5.33-6.25,0-3.19-1.94-5.72-5.33-6.14-.31,1.98-.68,4.11-1.32,6.18-1.32,4.49-3.15,6.97-5.32,6.97s-4.18-2.42-4.18-6.09c0-4.93,4.31-9.15,9.83-9.15s8.63,3.7,8.63,8.3-2.95,7.79-8.3,8.56ZM698.98,114.85c.99,0,2.02-1.43,3.04-4.82.55-1.74.95-3.74,1.21-5.68-3.96.64-6.27,4.07-6.27,6.8,0,2.53,1.08,3.7,2.02,3.7Z"/><path class="cls-1" d="M721.4,103.58v4.6c2.6-.64,5.9-1.67,8.03-2.57.73-.29,1.41-.62,2.13-1.08l.97,2.22c-.73.29-1.61.68-2.31.95-2.35.95-6.05,2.05-8.82,2.77v4.49c0,1.06.46,1.32,1.5,1.54.66.11,1.69.15,2.75.15,2.31,0,5.76-.24,7.59-.73v2.53c-2,.29-5.3.44-7.72.44-1.36,0-2.68-.07-3.61-.22-1.78-.33-2.79-1.21-2.79-3.06v-12.04c0-.53-.04-1.43-.15-2.02h2.58c-.07.59-.13,1.39-.13,2.02ZM733.02,103.76l-1.43.62c-.44-.88-1.17-2.2-1.76-3.04l1.43-.59c.55.79,1.32,2.16,1.76,3.01ZM735.55,102.81l-1.43.62c-.46-.95-1.17-2.2-1.78-3.01l1.41-.59c.57.81,1.41,2.18,1.8,2.99Z"/><path class="cls-1" d="M746.92,102.86c-.09.15-.15.29-.24.44h5.3c.62,0,1.23-.09,1.65-.24l1.78,1.1c-.2.37-.44.92-.59,1.36-.62,1.91-1.76,4.4-3.37,6.64.92.66,1.78,1.32,2.46,1.87l-1.63,1.94c-.62-.57-1.45-1.25-2.35-1.98-1.96,2.13-4.58,4.07-8.16,5.44l-2-1.76c3.76-1.14,6.42-3.06,8.32-5.06-1.52-1.1-3.1-2.18-4.38-2.99l1.52-1.56c1.32.77,2.86,1.76,4.33,2.77,1.3-1.78,2.33-3.94,2.75-5.54h-6.95c-1.45,2-3.46,4.14-5.81,5.76l-1.87-1.45c3.81-2.35,5.99-5.54,7.04-7.5.26-.46.66-1.34.84-1.98l2.51.79c-.44.66-.9,1.52-1.14,1.96Z"/><path class="cls-1" d="M773.19,116.83l-.97,2.16c-2.93-1.25-9.66-2.75-13.2-3.28l.88-2.16c3.72.57,10.28,2.11,13.29,3.28ZM772.33,109.85l-.86,2.13c-2.55-.97-8.03-2.22-11.22-2.71l.81-2.09c3.06.51,8.52,1.67,11.27,2.66ZM773.81,103.91l-.9,2.16c-2.62-.97-8.58-2.29-11.66-2.68l.81-2.07c2.88.38,8.98,1.63,11.75,2.6Z"/><path class="cls-1" d="M786.83,113.48c3.54-2.18,6.29-5.48,7.63-8.29l1.34,2.4c-1.58,2.86-4.29,5.85-7.72,7.96-2.22,1.36-5.02,2.66-8.43,3.28l-1.47-2.27c3.67-.55,6.54-1.78,8.65-3.08ZM786.08,106.44l-1.74,1.78c-1.14-1.17-3.87-3.56-5.5-4.66l1.61-1.72c1.54,1.03,4.4,3.32,5.63,4.6Z"/><path class="cls-1" d="M805.25,109.88c0,1.41-1.14,2.55-2.55,2.55s-2.55-1.14-2.55-2.55,1.14-2.55,2.55-2.55,2.55,1.14,2.55,2.55Z"/><path class="cls-1" d="M825.18,116.83l-.97,2.16c-2.93-1.25-9.66-2.75-13.2-3.28l.88-2.16c3.72.57,10.28,2.11,13.29,3.28ZM824.32,109.85l-.86,2.13c-2.55-.97-8.03-2.22-11.22-2.71l.81-2.09c3.06.51,8.52,1.67,11.27,2.66ZM825.8,103.91l-.9,2.16c-2.62-.97-8.58-2.29-11.66-2.68l.81-2.07c2.88.38,8.98,1.63,11.75,2.6Z"/><path class="cls-1" d="M840.38,102.44v1.3h3.21c.57,0,1.14-.07,1.56-.18l1.45,1.39c-.46.48-1.03,1.1-1.43,1.54-1.12,1.3-2.9,3.08-4.84,4.47v5.76c0,.81.07,1.92.11,2.6h-2.51c.09-.64.15-1.78.15-2.6v-4.33c-2.05,1.12-4.42,2.09-7.13,2.88l-1.34-2.05c4.2-.97,7-2.44,8.96-3.72,1.85-1.19,3.43-2.71,4.14-3.7h-8.62c-.79,0-2.09.04-2.77.09v-2.29c.75.09,1.98.13,2.73.13h4.09v-1.3c0-.66-.04-1.47-.13-1.98h2.51c-.07.51-.13,1.34-.13,1.98ZM842.05,112.1l1.43-1.65c2.05,1.1,3.21,1.76,5.3,3.17l-1.45,1.92c-1.91-1.45-3.3-2.35-5.28-3.43Z"/><path class="cls-1" d="M868.36,108.47c-.62,2.13-1.61,4.36-3.23,6.16-2.27,2.51-5.06,3.89-7.88,4.69l-1.72-1.98c3.21-.66,5.9-2.09,7.7-3.96,1.25-1.3,2.05-2.95,2.44-4.4h-11.2c-.53,0-1.5.02-2.33.09v-2.29c.86.09,1.69.15,2.33.15h11.27c.59,0,1.12-.09,1.41-.2l1.56.97c-.13.24-.31.57-.35.77ZM856.26,101.76h8.56c.7,0,1.61-.04,2.16-.11v2.27c-.55-.04-1.43-.07-2.18-.07h-8.54c-.7,0-1.5.02-2.11.07v-2.27c.57.07,1.39.11,2.11.11Z"/><path class="cls-1" d="M874.81,112.21c.64-1.96.64-6.25.64-8.78,0-.75-.04-1.28-.18-1.78h2.55c-.02.18-.11.99-.11,1.76,0,2.51-.09,7.2-.68,9.4-.66,2.42-2.05,4.58-3.92,6.16l-2.11-1.41c1.91-1.32,3.17-3.32,3.81-5.35ZM881.3,116.37v-13.03c0-.9-.13-1.63-.13-1.76h2.55c-.02.13-.11.86-.11,1.76v12.17c1.91-.86,4.4-2.73,5.99-5.06l1.34,1.89c-1.87,2.49-4.97,4.8-7.5,6.07-.4.22-.66.42-.84.55l-1.45-1.21c.09-.37.15-.88.15-1.39Z"/><path class="cls-1" d="M903.08,111.72v7.11h-5.43v1.14h-1.87v-5.41c-.37.53-.77,1.03-1.23,1.5-.2-.42-.92-1.23-1.32-1.61,1.28-1.19,2.11-2.79,2.71-4.71h-1.36v-1.76h1.8c.13-.59.24-1.19.33-1.83h-3.17v-1.72h3.37c.07-.62.11-1.23.15-1.87h-2.38v-1.74h8.1v3.61h1.19v1.72h-1.19v3.59h-4.86c-.2.68-.42,1.34-.66,1.98h5.83ZM897.65,113.51v3.56h3.45v-3.56h-3.45ZM898.64,106.16c-.09.64-.2,1.23-.31,1.83h2.53v-1.83h-2.22ZM899.01,102.57c-.04.64-.11,1.25-.18,1.87h2.02v-1.87h-1.85ZM913.73,115h-4.16v4.97h-1.96v-4.97h-3.92v-1.91h3.92v-2.82h-3.15v-1.87h3.15v-2.55h-3.43v-1.87h1.58c-.2-.99-.77-2.42-1.43-3.5l1.65-.55c.7,1.08,1.34,2.53,1.54,3.54l-1.39.51h7.13v1.87h-3.7v2.55h3.28v1.87h-3.28v2.82h4.16v1.91ZM912.89,100.22c-.57,1.32-1.21,2.79-1.74,3.76l-1.67-.46c.51-1.01,1.12-2.62,1.45-3.76l1.96.46Z"/><path class="cls-1" d="M85.48,115.36c.55.09.92.11,1.74.11h1.43c.64,0,1.12-.02,1.67-.11-.09.68-.11,1.19-.11,2.38v4.69c.51.9.86,1.28,1.65,1.63,1.01.46,2.27.64,4.84.64,4.53,0,7.02-.09,9.22-.35-.37.9-.48,1.3-.62,2.02-2.88.11-4.71.15-7.06.15-1.41,0-3.28-.04-4.07-.11-2.35-.15-3.74-.86-4.95-2.51-.97.92-1.61,1.47-2.38,2.05-.42.29-.57.4-.9.7l-.95-2.07c.92-.42,1.96-1.17,3.3-2.35v-4.97h-1.28c-.64,0-.99.02-1.54.11v-2ZM87.2,107.15c1.58,1.65,2.11,2.27,3.26,3.92l-1.47,1.54c-1.17-1.89-1.94-2.86-3.28-4.14l1.5-1.32ZM94,112.01c-.73,0-1.19.02-1.69.09v-.88h-1.41c.07-.48.09-.79.09-1.34v-.95c0-.53-.02-.99-.09-1.41.66.07,1.17.09,2.11.09h10.12c.88,0,1.41-.02,2.07-.09-.07.44-.09.79-.09,1.39v.9c0,.59.02,1.01.09,1.41h-1.47v.88c-.53-.07-.88-.09-1.65-.09h-3.3v1.14h3.48c.86,0,1.19-.02,1.76-.07-.07.51-.09.88-.09,1.54v3.5c0,.7.02,1.03.09,1.54-.68-.04-1.1-.07-1.78-.07h-3.46v1.19h4.53c.88,0,1.3-.02,1.8-.11v1.78c-.59-.09-.99-.11-1.85-.11h-4.49c0,.68.04,1.39.11,1.85h-2c.07-.44.11-1.1.11-1.85h-4.14c-.77,0-1.23.02-1.8.11v-1.78c.53.07,1.12.11,1.78.11h4.16v-1.19h-3.17c-.77,0-1.14.02-1.74.07.07-.51.07-.7.07-1.54v-3.5c0-.88,0-1.03-.07-1.54.53.04.95.07,1.74.07h3.17v-1.14h-2.99ZM96.99,110.52c0-.37-.02-.62-.09-.86h1.98c-.09.35-.11.57-.11.86h3.46c.51,0,.68,0,1.01-.02v-1.3h-10.41v1.28c.37.04.57.04,1.08.04h3.08ZM93.93,114.54v1.14h3.06v-1.14h-3.06ZM93.93,117.01v1.19h3.06v-1.19h-3.06ZM98.77,115.69h3.34v-1.14h-3.34v1.14ZM98.77,118.2h3.34v-1.19h-3.34v1.19Z"/><path class="cls-1" d="M112.43,109.33c-1.58.15-2.24.2-3.87.31-.18-.55-.31-.81-.7-1.5,3.98-.04,7.92-.59,9.44-1.32l1.14,1.5q-.22.04-1.12.22c-1.43.31-2.07.42-3.1.57v1.45h2.44c1.01,0,1.56-.02,2-.11v1.72c-.37-.07-.64-.09-1.65-.09h-2.79v1.14h2.24c.92,0,1.34-.02,1.87-.07-.04.44-.07.81-.07,1.94v2.79c.02,1.1.04,1.78.04,2.02-.64-.04-.97-.04-1.98-.04h-2.11v1.19h2.07c1.1,0,1.54-.02,2.02-.09v1.74c-.42-.07-.73-.09-1.63-.09h-2.46v1.25c1.23-.11,2-.22,4.03-.51v1.19c1.01-1.39,1.83-3.21,2.27-5.17.4-1.72.53-2.97.68-6.05h-.24c-.84,0-1.3.02-1.92.09v-2c.46.07.92.09,1.72.09h.51c.02-.7.02-1.21.02-1.91,0-1.65-.02-2-.15-2.62h2.18q-.13.57-.18,4.53h2c.9,0,1.43-.02,2.02-.09-.07.68-.07.84-.15,4.05-.13,5.68-.42,8.71-.99,9.95-.37.81-1.06,1.12-2.46,1.12-.46,0-1.41-.07-1.98-.11-.04-.77-.15-1.28-.4-2.02,1.08.2,1.58.26,2.07.26.75,0,.99-.13,1.17-.62.26-.7.48-2.51.62-5.04.09-1.8.11-2.44.15-5.68h-2.09c-.13,3.19-.4,5.33-.86,7.15-.64,2.51-1.47,4.22-3.17,6.4-.42-.4-1.19-.9-1.85-1.21.31-.31.42-.42.64-.66-3.23.51-3.61.55-8.78,1.03-.55.04-.79.09-1.25.18l-.35-2.02c.44.04.66.04,1.01.04.86,0,2.29-.07,3.96-.2v-1.43h-2.31c-.68,0-1.47.04-2.05.09v-1.76c.55.09,1.1.11,2.05.11h2.31v-1.19h-1.98c-.92,0-1.45.02-2.09.07.04-.51.07-.99.07-2.07v-2.73c0-1.06-.02-1.41-.07-1.98.59.04,1.19.07,2.11.07h1.96v-1.14h-2.79c-.95,0-1.41.02-2.02.11v-1.74c.59.09,1.14.11,2.02.11h2.79v-1.23ZM110.17,114.65v1.17h2.27v-1.17h-2.27ZM110.17,117.21v1.23h2.27v-1.23h-2.27ZM114.21,115.82h2.33v-1.17h-2.33v1.17ZM114.21,118.44h2.33v-1.23h-2.33v1.23Z"/><path class="cls-1" d="M132.36,110.05c-.88,0-2,.04-2.77.13v-2.2c.86.09,1.65.13,2.71.13h14.28c1.21,0,2.05-.04,2.71-.13v2.2c-.77-.09-1.76-.13-2.66-.13h-4.91c-.53,1.06-.77,1.43-1.5,2.46v11.79c0,.99.04,1.76.15,2.6h-2.42c.09-.77.15-1.72.15-2.62v-7.11c0-.88,0-1.39.04-2.22-.79,1.03-1.89,2.18-3.28,3.37-1.19.99-2.42,1.87-4.42,3.12-.31-.66-.64-1.12-1.32-1.87,2.84-1.52,4.86-3.01,6.89-5.1,1.5-1.56,2.29-2.62,3.28-4.42h-6.93ZM142.18,113.36c1.14,1.36,1.98,2.2,3.28,3.23,1.58,1.28,2.86,2.07,4.47,2.79-.53.62-.86,1.12-1.3,1.98-3.32-1.87-5.72-3.89-7.83-6.58l1.39-1.43Z"/><path class="cls-1" d="M160.68,115.09h-4.18c-.99,0-1.65.02-2.31.09.07-.62.09-1.06.09-1.76v-4c0-.73-.02-1.19-.09-1.76.66.09,1.43.11,2.49.11h9.75c1.25,0,1.89-.02,2.49-.11-.07.55-.09.99-.09,1.76v4c0,.77.02,1.19.09,1.76-.68-.07-1.3-.09-2.29-.09h-3.96v3.28h5.06c1.17,0,1.67-.02,2.22-.11v2.05c-.66-.09-1.19-.11-2.22-.11h-5.06v4c1.34.2,2.68.31,4.27.31,1.21,0,2.97-.07,4.4-.18-.33.77-.44,1.14-.59,2.11-.95.02-3.15.07-3.87.07-3.28,0-5.76-.44-7.48-1.36-1.43-.75-2.62-1.89-3.48-3.32-.88,2.07-1.78,3.52-3.08,5-.57-.66-.9-.95-1.61-1.41,1.39-1.39,2.22-2.66,2.99-4.49.66-1.58,1.14-3.54,1.17-4.71l2.07.42c-.09.33-.15.57-.31,1.21-.15.73-.26,1.14-.44,1.74,1.01,2.05,2.27,3.32,3.98,4.07v-8.56ZM156.26,109.59v3.74h10.58v-3.74h-10.58Z"/><path class="cls-1" d="M179.51,109.94c.62-1.36.88-2.13.95-2.84l2.42.31c-.13.2-.18.29-.26.51q-.24.57-.68,1.61c-.07.13-.13.29-.18.37q.07,0,.18-.02h.11c.11,0,.51-.02,1.1-.07,2.35-.09,4.69-.4,5.85-.75l.13,2.09q-.48.04-1.72.2c-1.54.2-4.38.4-6.54.44-.77,1.5-1.45,2.49-2.38,3.43l.02.04q.15-.13.46-.35c.97-.75,2.16-1.14,3.34-1.14.84,0,1.63.26,2.13.7.48.42.75.88.9,1.67,1.78-.66,2.97-1.1,3.56-1.3,1.12-.37,1.21-.42,1.56-.64l.9,2.11c-1.23.22-2.71.68-5.79,1.83q.02.79.02,1.19v1.03c-.02.37-.02.62-.02.77,0,.42.02.75.07,1.08l-2.13.04c.07-.44.13-1.67.13-2.86v-.53c-2.71,1.23-3.7,2.11-3.7,3.28,0,1.32,1.14,1.8,4.22,1.8,2.31,0,4.71-.35,6.09-.9l.22,2.38c-.37.02-.48.02-.97.11-1.63.24-3.7.4-5.48.4-2.22,0-3.67-.26-4.75-.88-.97-.55-1.54-1.54-1.54-2.71,0-2.05,1.83-3.81,5.63-5.43-.11-.95-.59-1.41-1.5-1.41-1.32,0-2.95.79-4.69,2.29-.88.75-1.39,1.3-1.8,1.94l-1.69-1.69c1.03-.77,2.35-2.29,3.54-4,.26-.42.73-1.17,1.36-2.22h-.37l-2.13-.02c-.55-.02-.97-.04-1.28-.04h-.13c-.07,0-.18,0-.33.02l.04-2.09c1.1.2,2.29.26,4.29.26h.79Z"/><path class="cls-1" d="M201.07,112.12c.95,0,1.43-.02,2.07-.09-.04.53-.07.95-.07,1.85v10.94c0,1.39-.57,1.78-2.57,1.78-.02,0-.53-.02-1.54-.04-.04-.7-.15-1.17-.4-1.85.92.11,1.54.18,1.96.18.7,0,.88-.11.88-.46v-3.1h-4.82c-.24,2.64-.51,3.74-1.32,5.48-.7-.79-.88-.95-1.56-1.36,1.1-2,1.34-3.87,1.34-10.67v-.97c-.4-.48-.79-.79-1.52-1.19,1.17-1.12,2.11-2.49,2.79-4.09.33-.81.53-1.36.64-1.98l1.98.42c-.09.15-.13.24-.22.48-.11.31-.13.33-.31.79h1.98c.68,0,.95-.02,1.21-.07l.88.97c-.22.31-.29.44-.73,1.3-.26.46-.62,1.12-.97,1.69h.29ZM198.89,112.12c.44-.73.79-1.41,1.19-2.27h-2.4c-.48.97-.77,1.47-1.32,2.27h2.53ZM198.3,119.74v-2.29h-1.56c-.02.35-.02.62-.02.79q0,.73-.04,1.5h1.63ZM196.76,113.75v2.16h1.54v-2.16h-1.54ZM201.4,113.75h-1.58v2.16h1.58v-2.16ZM201.4,117.45h-1.58v2.29h1.58v-2.29ZM205.6,109.35c-.9,0-1.5.04-2,.11v-1.94c.59.09,1.21.13,2.27.13h5.26c.86,0,1.43-.02,1.98-.09-.02.24-.04.31-.07.64-.18,2.44-.46,4.22-.77,4.93-.33.68-.84.9-2.13.9-.46,0-.55,0-1.76-.07-.04-.68-.13-1.06-.42-1.78.66.11,1.39.18,1.78.18.64,0,.84-.11.95-.51.2-.57.26-1.08.37-2.51h-2.68c-.24,1.32-.44,1.87-.99,2.75-.7,1.14-1.36,1.74-3.01,2.71-.29-.53-.64-.99-1.25-1.56,1.36-.68,2.09-1.23,2.6-1.94.4-.55.55-1.01.73-1.96h-.84ZM205.91,118.26c-.26.7-.42,1.03-.84,1.85-.75-.48-1.12-.68-1.65-.86.77-1.21,1.12-2.05,1.41-3.39.11-.55.15-.84.15-1.08l1.83.4q-.29,1.03-.37,1.34h1.56v-.33c0-.66-.04-1.17-.13-1.67h2.07c-.07.55-.09,1.08-.09,1.67v.33h1.5c1.03,0,1.54-.02,2-.13v1.96c-.53-.07-1.12-.09-2-.09h-1.5v2.27h1.94c.9,0,1.45-.02,2.09-.11v1.96c-.55-.07-1.06-.09-2.05-.09h-1.98v2.53c0,.9.04,1.45.13,2.07h-2.11c.09-.66.13-1.17.13-2.07v-2.53h-2.44c-.84,0-1.3.02-1.96.11v-1.98c.62.09,1.12.11,1.98.11h2.42v-2.27h-2.09Z"/><path class="cls-1" d="M217.02,112.32c1.52.92,2.42,1.58,3.89,2.86l-1.17,1.69c-1.47-1.5-2.42-2.25-3.87-3.1l1.14-1.45ZM220.98,119.76c-.86,2.38-1.5,3.89-2.38,5.54-.11.24-.18.33-.48.9q-.15.24-.26.48l-1.8-1.56c.26-.31.48-.59.75-1.01,1.06-1.72,1.69-3.12,2.51-5.52l1.67,1.17ZM218.08,107.06c1.47.95,2.27,1.58,3.65,2.95l-1.25,1.58c-1.19-1.32-2.11-2.13-3.63-3.12l1.23-1.41ZM223.55,107.35c1.03,1.41,1.61,2.38,2.42,4.14l-1.76.88c-.77-1.8-1.23-2.6-2.42-4.16l1.76-.86ZM227.34,108.76c0-.86-.04-1.5-.13-2.13h2.2c-.09.66-.13,1.25-.13,2.13v4h3.21c.97,0,1.5-.02,2.05-.09-.07.48-.09,1.23-.09,2.18v9.97c0,1.45-.59,1.87-2.62,1.87-.46,0-1.67-.07-2.38-.13-.07-.73-.15-1.12-.44-1.94.99.15,2.05.24,2.66.24s.79-.11.79-.51v-2.2h-7.94v2.18c0,1.01.04,1.96.13,2.53h-2.22c.07-.64.11-1.47.11-2.53v-9.59c0-1.01-.02-1.63-.07-2.07.53.07,1.06.09,2.05.09h2.82v-4ZM232.47,114.52h-7.94v2.05h7.94v-2.05ZM224.52,120.42h7.94v-2.11h-7.94v2.11ZM234.84,108.07c-.9,2-1.41,2.93-2.35,4.36l-1.67-.88c1.03-1.56,1.61-2.71,2.13-4.27l1.89.79Z"/><path class="cls-1" d="M244.63,116.85c0,1.25-1.03,2.29-2.29,2.29s-2.29-1.03-2.29-2.29,1.03-2.29,2.29-2.29,2.29,1.01,2.29,2.29Z"/><path class="cls-1" d="M250.61,118.28c0-1.21.02-1.98.07-2.95-.66,1.25-1.06,1.89-1.63,2.71-.29-.95-.37-1.1-.86-2.05,1.34-1.83,2.07-3.17,3.01-5.63.48-1.25.92-2.84,1.03-3.67l1.94.55c-.2.48-.22.57-.37,1.08-.4,1.36-.79,2.44-1.39,3.83v12.08c0,1.21.02,1.83.11,2.68h-2.05c.09-.81.13-1.54.13-2.66v-5.96ZM254.6,117.01c.2,1.23.44,1.94,1.1,3.3.42-1.36.64-2.42.84-4.29h-2.07c-.57,0-.64,0-1.63.04,1.08-1.52,2.35-3.85,3.28-6.01h-1.1c-.46,0-.79.02-1.14.09v-1.83c.35.04.77.07,1.34.07h1.12c.66,0,.95-.02,1.25-.07l.81.9c-.11.15-.18.31-.33.66-.59,1.41-1.56,3.28-2.38,4.55h.92c.97,0,1.39-.02,1.76-.07-.07.46-.07.55-.13,1.01-.33,2.82-.77,4.84-1.41,6.62,1.76,1.94,3.87,2.58,8.45,2.58,1.23,0,2.18-.04,4-.2-.35.84-.48,1.23-.55,1.94-1.41.04-2,.07-2.73.07-5.3,0-7.83-.7-9.88-2.75-.64,1.19-1.12,1.87-2.35,3.3-.4-.68-.73-1.08-1.25-1.56,1.06-.99,1.72-1.87,2.42-3.21-.79-1.23-1.17-2.02-2.07-4.53l1.72-.62ZM261.77,110.08h-1.06c-.77,0-1.08.02-1.65.07v-1.69c.48.09.9.11,1.65.11h1.06v-.11c0-.64-.02-1.03-.11-1.5h1.94c-.07.46-.09.84-.09,1.5v.11h2.55c.79,0,1.28-.02,1.63-.07-.04.48-.04.64-.04,1.47v1.61c.75,0,1.03-.02,1.52-.11v1.83c-.66-.09-.99-.11-1.52-.11v1.76c0,.64.02.97.04,1.36-.46-.02-.92-.04-1.67-.04h-2.51v1.41h2.49c.92,0,1.41-.02,1.98-.09v1.69c-.62-.07-1.23-.09-2-.09h-2.46v1.47h3.12c.86,0,1.52-.04,2.11-.11v1.78c-.7-.07-1.25-.09-2.11-.09h-3.12v.11c0,.59.02,1.01.11,1.56h-1.96c.09-.51.11-.86.11-1.54v-.13h-2.02c-.9,0-1.43.02-2.02.09v-1.76c.59.07,1.23.09,2.02.09h2.02v-1.47h-1.28c-.79,0-1.39.02-1.87.09v-1.69c.48.07,1.01.09,1.87.09h1.28v-1.41h-1.21c-.64,0-1.03.02-1.54.07v-1.65c.53.07.9.09,1.58.09h1.17v-1.58h-1.96c-.73,0-1.21.02-1.65.09v-1.8c.53.09,1.06.11,2.11.11h1.5v-1.5ZM265.95,111.57v-1.5h-2.44v1.5h2.44ZM263.51,114.76h2.44v-1.58h-2.44v1.58Z"/><path class="cls-1" d="M280.45,107.96c0-.59-.04-.92-.13-1.32h2.22c-.09.37-.13.7-.13,1.36v.4h5.85c1.08,0,1.87-.04,2.46-.13v1.91c-.7-.09-1.21-.11-2-.11h-14.26c-.02,6.49-.18,9.2-.7,12.06-.4,2.02-.81,3.26-1.63,4.73-.64-.79-.86-1.01-1.58-1.58.66-1.25.99-2.38,1.32-4.22.48-2.84.68-5.68.68-10.12,0-1.43-.02-1.94-.11-2.64.66.09,1.32.11,2.66.11h5.35v-.44ZM281.08,113.03h-3.65c-.64,0-1.17.02-1.67.09v-1.72c.44.07.84.09,1.65.09h3.67c-.02-.46-.04-.66-.11-.97h1.96c-.07.29-.07.4-.09.97h4.09c.88,0,1.21-.02,1.85-.09-.04.46-.07.9-.07,1.61v1.28h.55c.84,0,1.21-.02,1.63-.11v1.83c-.55-.09-.97-.11-1.65-.11h-.53v1.39c0,.92,0,1.14.04,1.56-.24,0-.29,0-.57-.02l1.61,1.01c-1.25,1.19-1.87,1.67-3.17,2.57,1.32,1.08,2.4,1.72,4.4,2.6-.44.46-.79.9-1.3,1.72-1.98-1.06-3.1-1.8-4.33-2.95-1.12-1.03-1.52-1.56-2.64-3.5q.02.35.04.81c0,.15,0,.31.02.46,0,.31.02.53.02.66v2.66c0,1.5-.57,1.94-2.51,1.94-.42,0-1.19-.02-2.02-.07-.09-.84-.2-1.36-.44-2.07.79.15,1.58.24,2.4.24.26,0,.51-.04.66-.09.11-.04.15-.18.15-.44v-1.63c-2.27,1.25-2.95,1.58-5.46,2.62-.37.15-.55.24-.77.35l-.9-1.87c.66-.13,1.08-.24,2-.57,1.72-.59,2.51-.95,5.13-2.31v-2.18h-3.78c-.75,0-1.23.02-1.69.09v-1.72c.46.07.9.09,1.65.09h3.83v-1.36h-4.44c-.75,0-1.14.02-1.69.09v-1.78c.48.07.81.09,1.65.09h4.49v-1.25ZM276.88,118.83c1.03.64,1.72,1.19,2.66,2.11l-1.21,1.23c-1.12-1.14-1.72-1.63-2.73-2.27l1.28-1.08ZM286.92,113.03h-4.07v1.25h4.07v-1.25ZM282.85,115.89v1.36h4.07v-1.36h-4.07ZM283.57,118.79c.53.95.99,1.56,1.78,2.42,1.3-.84,2.07-1.52,2.79-2.4-.42-.02-.64-.02-.9-.02h-3.67Z"/><path class="cls-1" d="M292.88,116.28c.33.04.55.04,1.01.04h.73q.84-1.1,1.41-1.91c-1.1-1.41-1.87-2.27-3.01-3.37l1.03-1.52c.37.37.48.48.79.81.99-1.45,1.58-2.62,1.83-3.56l1.78.73c-.2.26-.26.4-.7,1.23-.51.92-1.1,1.89-1.76,2.84.48.57.66.77,1.08,1.32,1.06-1.61,1.91-3.1,2.16-3.78l1.69.88q-.2.31-.97,1.5c-.97,1.5-2.38,3.48-3.39,4.78,1.67-.11,2.02-.13,2.77-.24-.29-.66-.42-.95-.81-1.63l1.28-.68c.77,1.41,1.3,2.57,1.87,4.18l-1.47.75c-.13-.53-.2-.73-.31-1.06-.59.07-.81.11-1.56.18v6.95c0,1.01.02,1.58.13,2.27h-2.05c.09-.68.13-1.28.13-2.29v-6.78q-.51.04-2.27.13c-.48.02-.92.09-1.17.13l-.22-1.89ZM295.67,119.25c-.33,3.32-.59,4.69-1.19,6.58l-1.58-.75c.68-1.98.79-2.57,1.1-6.07l1.67.24ZM300.53,118.94c.44,1.96.64,3.17.88,5.3l-1.61.4c-.13-2.16-.37-3.89-.75-5.32l1.47-.37ZM308.98,123.87h1.78c1.21,0,1.61-.02,2.16-.11v1.98c-.55-.07-1.25-.11-2.18-.11h-6.49v1.28h-1.96c.09-.62.13-1.32.13-2.29v-7.75c0-.79.02-1.69.09-2.6-.29.46-.46.73-.92,1.3-.31-.59-.7-1.14-1.14-1.56,1.03-1.12,1.91-2.46,2.71-4.16.55-1.21.95-2.29,1.06-3.06l2,.55q-.04.13-.81,1.87c-.33.75-.55,1.19-.79,1.69h2.62c.75-1.5,1.25-2.75,1.52-3.87l1.96.55q-.18.35-.51,1.12c-.31.7-.57,1.28-1.06,2.2h1.39c.95,0,1.65-.04,2.2-.13v2c-.53-.09-1.21-.11-2.2-.11h-1.54v2.35h1.36c.86,0,1.43-.02,1.89-.11v1.92c-.44-.07-.95-.09-1.89-.09h-1.36v2.42h1.36c.88,0,1.41-.02,1.89-.11v1.91c-.31-.04-.48-.07-.68-.07-.18,0-.59,0-1.23-.02h-1.34v2.99ZM307.18,115.03v-2.35h-2.93v2.35h2.93ZM304.25,119.16h2.93v-2.42h-2.93v2.42ZM304.25,123.87h2.93v-2.99h-2.93v2.99Z"/><path class="cls-1" d="M324.29,119.27c-1.01,0-1.65.04-2.38.13v-1.91c-1.03.51-1.14.55-2.11.95v6.49c0,1.54-.55,1.94-2.68,1.94-.44,0-.77-.02-1.47-.07-.04-.75-.15-1.17-.42-1.89.88.09,1.39.13,1.89.13.62,0,.77-.13.77-.64v-5.19c-1.54.59-2.38.9-2.51.95l-.37-2.05c.7-.11,1.45-.33,2.88-.81v-4.47h-1.12c-.62,0-1.1.02-1.61.09v-1.98c.55.09,1.01.13,1.65.13h1.08v-1.94c0-1.01-.02-1.5-.13-2.22h2.18c-.09.68-.13,1.23-.13,2.2v1.96h.7c.62,0,.92-.02,1.34-.09v1.91c-.42-.04-.77-.07-1.32-.07h-.73v3.74c.92-.37,1.23-.51,2.11-.92l.02,1.76c.66.09,1.3.11,2.35.11h5.81v-2.2h-6.05c-.95,0-1.85.04-2.38.11v-1.98c.57.09,1.43.13,2.35.13h2.93v-2.46h-2.22c-.95,0-1.54.02-2.18.11v-1.98c.59.09,1.21.13,2.18.13h2.22v-.75c0-.62-.04-1.14-.13-1.69h2.18c-.11.57-.13,1.01-.13,1.69v.75h2.84c.99,0,1.58-.04,2.2-.13v1.98c-.64-.09-1.21-.11-2.18-.11h-2.86v2.46h3.45c1.01,0,1.8-.04,2.4-.13v1.98c-.59-.07-1.39-.11-2.4-.11h-.29v2.2h.51c.92,0,1.54-.04,2.16-.11v2c-.68-.09-1.28-.13-2.16-.13h-.51v5.68c0,1.41-.68,1.89-2.75,1.89-.53,0-1.08-.02-2.11-.09-.11-.81-.24-1.34-.53-2,.95.15,1.74.24,2.46.24.79,0,.99-.13.99-.59v-5.13h-5.81ZM324.6,119.82c1.41,1.43,1.65,1.74,2.82,3.34l-1.63,1.21c-.88-1.5-1.45-2.2-2.75-3.5l1.56-1.06Z"/><path class="cls-1" d="M341.69,107.83c-.11.62-.18,1.23-.24,2.84-.09,1.89-.22,6.75-.22,8.25,0,2.05.13,2.86.59,3.56.53.79,1.63,1.23,3.1,1.23,2.42,0,4.38-1.36,5.5-3.81.51-1.1.77-2.05,1.03-3.61.97.81,1.32,1.03,2.22,1.45-.88,2.84-1.52,4.2-2.53,5.37-1.63,1.85-3.76,2.77-6.4,2.77-1.52,0-2.88-.35-3.76-.97-1.43-1.01-2.02-2.57-2.02-5.41,0-1.28.02-2.46.18-8.91.02-.68.02-1.1.02-1.5,0-.53-.02-.81-.09-1.32l2.62.04Z"/><path class="cls-1" d="M356.52,110.85c.81.15,1.43.2,2.71.2.48,0,.81,0,1.3-.02.26-1.36.46-2.88.46-3.54,0-.07,0-.18-.02-.31l2.44.22q-.15.51-.42,2.09c-.11.66-.13.88-.24,1.45,1.67-.18,2.79-.37,3.83-.7l.11,2.11q-.18.02-.66.11c-1.03.22-2.58.42-3.65.48-.26,1.5-.86,3.92-1.43,5.92-.66,2.29-1.19,3.81-2.49,7.06l-2.31-.92c1.56-2.84,3.17-7.64,4.03-11.97-.2,0-1.32.02-1.78.02-.15,0-.33,0-.64-.02-.33-.02-.7-.02-1.01-.02h-.24l.02-2.16ZM367.02,119.19c-.57.7-.75.95-.9,1.28-.18.37-.29.81-.29,1.17,0,1.14,1.23,1.78,3.52,1.78,1.63,0,3.67-.33,4.93-.79l.18,2.29c-.35.07-.48.07-1.03.15-1.74.29-2.75.37-4,.37-1.87,0-3.23-.26-4.25-.84-.97-.55-1.54-1.54-1.54-2.66,0-1.06.4-1.94,1.58-3.52l1.8.77ZM373.64,115.93c-1.06-.11-1.67-.13-2.71-.13-2.09,0-3.52.18-5.68.66l-.18-2.05c2.93-.57,4.03-.7,6.25-.7.62,0,.97,0,2.27.02l.04,2.2Z"/><path class="cls-1" d="M380.17,109.26c-.13.79-.18,1.63-.18,2.93,0,2.24.2,5.02.46,6.4.44,2.29,1.21,3.74,1.98,3.74.35,0,.68-.35.99-1.01.51-1.17.88-2.4,1.14-3.89.64.75.92,1.01,1.83,1.69-1.12,4.11-2.27,5.76-4.03,5.76-1.45,0-2.77-1.41-3.54-3.76-.73-2.24-1.03-5.17-1.14-10.52,0-.75-.02-.88-.07-1.34h2.55ZM390.65,110.32c2.77,3.32,4.22,6.73,4.91,11.46l-2.27.88c-.15-2.02-.66-4.22-1.45-6.18-.75-1.94-1.78-3.63-3.1-5.21l1.91-.95Z"/><path class="cls-5" d="M437,309.87c0,11-9,20-20,20H65c-11,0-20-9-20-20h0c0-11,9-20,20-20h352c11,0,20,9,20,20h0Z"/><path class="cls-1" d="M86.47,305.29c-.26.35-.31.51-.66,1.45-.62,1.67-1.78,4.18-2.75,5.72-2.22,3.54-5.24,6.05-9.9,8.21-.57-.97-.81-1.3-1.52-1.91,1.89-.75,3.01-1.34,4.4-2.27,1.61-1.08,2.57-1.91,3.67-3.23-1.56-1.36-2.99-2.4-4.69-3.32l1.43-1.61c1.85,1.06,2.88,1.76,4.6,3.15,1.1-1.72,2-3.59,2.66-5.59l-7.15.07c-1.54,2.35-3.04,4.05-5.17,5.81-.62-.68-.88-.9-1.85-1.47,2.38-1.76,4.18-3.78,5.57-6.29.66-1.19,1.1-2.22,1.28-3.01l2.42.57q-.24.4-.7,1.34c-.29.59-.44.88-.59,1.1.13,0,.44-.02.9-.04l6.6-.09c-.55-.95-1.1-1.72-1.85-2.57l1.36-.68c1.03,1.17,1.52,1.87,2.29,3.3l-.97.53.62.86ZM87.48,299.9c1.06,1.17,1.52,1.83,2.27,3.21l-1.34.77c-.68-1.28-1.3-2.2-2.24-3.3l1.32-.68Z"/><path class="cls-1" d="M106.45,303c-.37.33-.42.35-.99.95-1.43,1.52-3.21,3.06-5.06,4.38v8.87c0,1.52.04,2.22.13,2.9h-2.62c.11-.84.13-1.3.13-2.9v-7.42c-2.71,1.65-4.07,2.27-8.1,3.67-.4-.95-.59-1.28-1.23-2.11,4.25-1.12,7.99-2.97,11.49-5.7,1.98-1.54,3.5-3.06,4.14-4.14l2.11,1.5Z"/><path class="cls-1" d="M118.61,315.5h5.57c1.45,0,1.92-.02,2.75-.15v2.35c-.77-.09-1.36-.11-2.71-.11h-13.16c-1.34,0-1.94.02-2.71.11v-2.35c.84.13,1.3.15,2.75.15h5.17v-9.31h-3.54c-1.36,0-1.94.02-2.71.11v-2.35c.81.13,1.32.15,2.75.15h9.73c1.41,0,1.94-.02,2.75-.15v2.35c-.77-.09-1.36-.11-2.71-.11h-3.94v9.31Z"/><path class="cls-1" d="M131.88,306.78c.92,1.61,1.34,2.64,2.18,5.08l-2.09.68c-.55-2.09-1.06-3.41-2.02-5.15l1.94-.62ZM144.42,306.83c-.13.33-.15.42-.29,1.06-.64,2.99-1.67,5.44-3.12,7.35-1.56,2.09-3.45,3.56-6.49,5.08-.46-.79-.7-1.08-1.5-1.8,1.52-.59,2.4-1.08,3.67-2,2.57-1.87,4.07-4.16,5.04-7.68.31-1.06.44-1.83.44-2.51l2.24.51ZM136.5,305.9c1.17,2.13,1.56,3.08,2.13,4.93l-2.05.66c-.42-1.63-1.08-3.3-2-5.02l1.91-.57Z"/><path class="cls-1" d="M150.16,320.07c.11-.95.13-1.5.13-2.82v-13.09c0-1.52-.02-2.02-.13-2.64h2.6c-.09.7-.13,1.45-.13,2.68v3.72c3.15,1.1,6.23,2.55,9.9,4.64l-1.28,2.18c-.99-.68-1.56-1.03-2.73-1.67-1.67-.9-4.07-2.09-5.26-2.6q-.37-.15-.7-.37,0,.31.04.86c0,.2.02.88.02,1.1v5.19c0,1.17.04,2,.13,2.82h-2.6Z"/><path class="cls-1" d="M172.07,310.85c0,1.25-1.03,2.29-2.29,2.29s-2.29-1.03-2.29-2.29,1.03-2.29,2.29-2.29,2.29,1.01,2.29,2.29Z"/><path class="cls-1" d="M183.53,305.66c.09-1.06.13-2.2.13-3.15,0-.55,0-.7-.07-1.14l2.46.07c-.09.46-.09.62-.2,2.75-.02.37-.02.66-.09,1.47l5.13-.02c.99-.02,1.14-.02,1.63-.2l1.08.97c-.15.35-.2.62-.22,1.39-.13,4.84-.53,8.36-1.12,9.92-.55,1.41-1.36,1.91-3.08,1.91-.81,0-1.56-.09-2.75-.31-.02-1.12-.07-1.47-.4-2.33,1.28.37,2.13.55,2.88.55.99,0,1.32-.51,1.69-2.53.31-1.61.53-4.62.53-7.37l-5.54.02c-.18,1.54-.2,1.67-.37,2.49-.62,2.84-1.78,5.04-3.74,7.06-1.12,1.17-2.05,1.89-3.52,2.79-.62-.92-.86-1.21-1.63-1.89,2.71-1.43,4.53-3.23,5.72-5.65.7-1.45.97-2.42,1.28-4.8l-3.78.02c-1.36,0-1.61,0-2.35.11l-.02-2.29c.77.13,1.3.18,2.4.18l3.96-.02Z"/><path class="cls-1" d="M197.09,307.46c.99.11,1.61.15,3.04.15h10.52c1.14,0,1.5-.02,2.05-.18l1.08,1.23c-.2.35-.31.59-.59,1.39-1.21,3.28-2.86,5.63-5.21,7.39-1.56,1.14-2.99,1.87-5.57,2.79-.4-.9-.59-1.21-1.41-2.13,2.71-.66,4.51-1.52,6.23-3.01,1.67-1.43,2.62-2.84,3.61-5.46h-10.74c-1.74,0-2.22.02-2.99.11v-2.29ZM198.96,302.25c.95.13,1.19.15,2.75.15h6.98c1.32,0,1.76-.02,2.77-.15v2.31c-.86-.09-1.45-.11-2.75-.11h-7.02c-1.17,0-1.65.02-2.73.11v-2.31Z"/><path class="cls-1" d="M232.79,305.29c-.26.35-.31.51-.66,1.45-.62,1.67-1.78,4.18-2.75,5.72-2.22,3.54-5.24,6.05-9.9,8.21-.57-.97-.81-1.3-1.52-1.91,1.89-.75,3.01-1.34,4.4-2.27,1.61-1.08,2.57-1.91,3.67-3.23-1.56-1.36-2.99-2.4-4.69-3.32l1.43-1.61c1.85,1.06,2.88,1.76,4.6,3.15,1.1-1.72,2-3.59,2.66-5.59l-7.15.07c-1.54,2.35-3.04,4.05-5.17,5.81-.62-.68-.88-.9-1.85-1.47,2.38-1.76,4.18-3.78,5.57-6.29.66-1.19,1.1-2.22,1.28-3.01l2.42.57q-.24.4-.7,1.34c-.29.59-.44.88-.59,1.1.13,0,.44-.02.9-.04l6.6-.09c-.55-.95-1.1-1.72-1.85-2.57l1.36-.68c1.03,1.17,1.52,1.87,2.29,3.3l-.97.53.62.86ZM233.81,299.9c1.06,1.17,1.52,1.83,2.27,3.21l-1.34.77c-.68-1.28-1.3-2.2-2.24-3.3l1.32-.68Z"/><path class="cls-1" d="M236.82,306.32c.55-.04.88-.09,2.44-.44,4.49-.99,6.47-1.3,8.36-1.3,2.07,0,3.72.4,4.91,1.19,1.54,1.06,2.4,2.73,2.4,4.73,0,2.88-1.67,5.3-4.75,6.82-2,.97-3.79,1.39-7.55,1.76-.24-.99-.4-1.39-.95-2.38,2.66-.09,4.33-.33,5.94-.86,3.1-1.01,4.88-2.95,4.88-5.33s-1.72-3.74-4.6-3.74c-2.33,0-5.19.51-8.85,1.54-1.03.31-1.25.37-1.69.59l-.55-2.6ZM252.48,301.15c1.03,1.17,1.52,1.87,2.29,3.3l-1.36.75c-.73-1.36-1.34-2.29-2.29-3.37l1.36-.68ZM255.06,299.9c1.06,1.17,1.52,1.83,2.27,3.21l-1.34.77c-.68-1.28-1.3-2.2-2.24-3.3l1.32-.68Z"/><path class="cls-1" d="M270.83,302.78c-.35.26-.7.57-2.73,2.46-1.12,1.06-2.55,2.22-5.17,4.2-.7.55-.88.75-.88,1.01,0,.35.07.42,1.96,1.87,3.45,2.62,3.92,3.01,7,5.83.26.26.37.35.62.57l-1.89,1.92c-.55-.79-1.39-1.67-2.86-3.04-1.5-1.39-2.38-2.11-5.63-4.64-1.36-1.06-1.74-1.61-1.74-2.51,0-.62.24-1.17.68-1.65.26-.29.29-.31,1.91-1.54,3.23-2.49,5.77-4.82,6.6-6.1l2.13,1.61Z"/><path class="cls-1" d="M280.49,301.35c-.29.75-.35,1.14-.86,4.62-.18,1.23-.24,1.83-.29,2.46h.07q.04-.15.15-.55c.29-1.14.7-2.05,1.32-2.9,1.21-1.65,2.62-2.46,4.27-2.46,1.52,0,2.79.66,3.72,1.96,1.03,1.45,1.47,3.15,1.47,5.68,0,4.11-1.89,7.22-5.43,8.87-1.12.51-2.53.95-4.16,1.25-.42-1.08-.59-1.45-1.14-2.16,2.18-.26,3.37-.59,4.71-1.3,2.57-1.36,3.74-3.54,3.74-6.97s-1.12-5.17-3.1-5.17c-.97,0-1.74.4-2.57,1.28-1.67,1.8-2.75,4.6-2.75,7.15q0,.07.02.51l-2.22.04c.02-.11.02-.2.02-.24v-.44c-.02-.57-.07-2.24-.07-2.62,0-1.74.13-4.16.33-5.63l.35-2.79c.04-.37.07-.46.07-.75l2.35.18Z"/><path class="cls-1" d="M300.07,303.94c.62-1.36.88-2.13.95-2.84l2.42.31c-.13.2-.18.29-.26.51q-.24.57-.68,1.61c-.07.13-.13.29-.18.37q.07,0,.18-.02h.11c.11,0,.51-.02,1.1-.07,2.35-.09,4.69-.4,5.85-.75l.13,2.09q-.48.04-1.72.2c-1.54.2-4.38.4-6.54.44-.77,1.5-1.45,2.49-2.38,3.43l.02.04q.15-.13.46-.35c.97-.75,2.16-1.14,3.34-1.14.84,0,1.63.26,2.13.7.48.42.75.88.9,1.67,1.78-.66,2.97-1.1,3.56-1.3,1.12-.37,1.21-.42,1.56-.64l.9,2.11c-1.23.22-2.71.68-5.79,1.83q.02.79.02,1.19v1.03c-.02.37-.02.62-.02.77,0,.42.02.75.07,1.08l-2.13.04c.07-.44.13-1.67.13-2.86v-.53c-2.71,1.23-3.7,2.11-3.7,3.28,0,1.32,1.14,1.8,4.22,1.8,2.31,0,4.71-.35,6.09-.9l.22,2.38c-.37.02-.48.02-.97.11-1.63.24-3.7.4-5.48.4-2.22,0-3.67-.26-4.75-.88-.97-.55-1.54-1.54-1.54-2.71,0-2.05,1.83-3.81,5.63-5.43-.11-.95-.59-1.41-1.5-1.41-1.32,0-2.95.79-4.69,2.29-.88.75-1.39,1.3-1.8,1.94l-1.69-1.69c1.03-.77,2.35-2.29,3.54-4,.26-.42.73-1.17,1.36-2.22h-.37l-2.13-.02c-.55-.02-.97-.04-1.28-.04h-.13c-.07,0-.18,0-.33.02l.04-2.09c1.1.2,2.29.26,4.29.26h.79Z"/><path class="cls-1" d="M328.74,301.81c1.03,0,1.69-.02,2.33-.11-.07.75-.11,1.39-.11,2.16v14.39c0,1.1.04,1.83.13,2.55h-2.22v-1.34h-10.72v1.34h-2.22c.09-.7.13-1.41.13-2.42v-14.41c0-.88-.04-1.58-.11-2.27.7.09,1.41.11,2.42.11h10.36ZM328.87,306.94v-3.19h-10.72v3.19h10.72ZM318.15,312.09h10.72v-3.23h-10.72v3.23ZM318.15,317.52h10.72v-3.52h-10.72v3.52Z"/><path class="cls-1" d="M337.8,303c0-.92-.04-1.56-.13-2.22h2.24c-.09.66-.13,1.25-.13,2.2v1.98h.62c.59,0,1.12-.02,1.72-.11v1.98c-.66-.07-1.12-.09-1.74-.09h-.59v3.89q.66-.22,2.35-.77l.04,1.78c-1.06.42-1.39.55-2.4.88v6.38c0,1.41-.64,1.83-2.73,1.83-.62,0-.97-.02-1.76-.07-.07-.86-.15-1.25-.42-2,.92.15,1.56.22,2.22.22.57,0,.7-.13.7-.59v-5.17q-.75.22-1.32.37c-.13.04-.46.13-.99.26-.13.04-.24.09-.48.18l-.37-2.13q.75-.07,3.17-.64v-4.42h-1.23c-.59,0-1.1.02-1.74.11v-2.02c.55.09,1.1.13,1.74.13h1.23v-1.96ZM344.93,303.46c3.41-.51,6.25-1.34,7.46-2.16l1.47,1.69c-3.19,1.08-5.61,1.65-8.93,2.07v1.28c0,.79.33.88,3.83.88s3.67-.04,3.81-2.64c.68.33,1.25.51,1.91.64-.22,2-.48,2.73-1.21,3.19-.75.46-1.74.57-5.52.57-1.83,0-3.21-.13-3.72-.33-.77-.31-1.06-.77-1.06-1.69v-4.03c0-.95-.02-1.47-.11-2.11h2.18c-.07.55-.11,1.14-.11,2.02v.62ZM343.01,312.22c0-.86-.02-1.36-.07-1.8.55.07,1.01.09,1.96.09h6.42c1.01,0,1.43-.02,1.98-.09-.07.46-.09.99-.09,1.85v6.4c0,1.19.02,1.65.11,2.22h-2.05v-1.08h-6.36v1.1h-2.02c.09-.59.11-1.08.11-2.18v-6.51ZM344.93,314.24h6.36v-2.02h-6.36v2.02ZM344.93,318.09h6.36v-2.16h-6.36v2.16Z"/><path class="cls-1" d="M361.45,301.83c-.11.62-.18,1.23-.24,2.84-.09,1.89-.22,6.75-.22,8.25,0,2.05.13,2.86.59,3.56.53.79,1.63,1.23,3.1,1.23,2.42,0,4.38-1.36,5.5-3.81.51-1.1.77-2.05,1.03-3.61.97.81,1.32,1.03,2.22,1.45-.88,2.84-1.52,4.2-2.53,5.37-1.63,1.85-3.76,2.77-6.4,2.77-1.52,0-2.88-.35-3.76-.97-1.43-1.01-2.02-2.57-2.02-5.41,0-1.28.02-2.46.18-8.91.02-.68.02-1.1.02-1.5,0-.53-.02-.81-.09-1.32l2.62.04Z"/><path class="cls-1" d="M376.28,304.85c.81.15,1.43.2,2.71.2.48,0,.81,0,1.3-.02.26-1.36.46-2.88.46-3.54,0-.07,0-.18-.02-.31l2.44.22q-.15.51-.42,2.09c-.11.66-.13.88-.24,1.45,1.67-.18,2.79-.37,3.83-.7l.11,2.11q-.18.02-.66.11c-1.03.22-2.58.42-3.65.48-.26,1.5-.86,3.92-1.43,5.92-.66,2.29-1.19,3.81-2.49,7.06l-2.31-.92c1.56-2.84,3.17-7.64,4.03-11.97-.2,0-1.32.02-1.78.02-.15,0-.33,0-.64-.02-.33-.02-.7-.02-1.01-.02h-.24l.02-2.16ZM386.77,313.19c-.57.7-.75.95-.9,1.28-.18.37-.29.81-.29,1.17,0,1.14,1.23,1.78,3.52,1.78,1.63,0,3.67-.33,4.93-.79l.18,2.29c-.35.07-.48.07-1.03.15-1.74.29-2.75.37-4,.37-1.87,0-3.23-.26-4.25-.84-.97-.55-1.54-1.54-1.54-2.66,0-1.06.4-1.94,1.58-3.52l1.8.77ZM393.39,309.93c-1.06-.11-1.67-.13-2.71-.13-2.09,0-3.52.18-5.68.66l-.18-2.05c2.93-.57,4.03-.7,6.25-.7.62,0,.97,0,2.27.02l.04,2.2Z"/><path class="cls-1" d="M399.93,303.26c-.13.79-.18,1.63-.18,2.93,0,2.24.2,5.02.46,6.4.44,2.29,1.21,3.74,1.98,3.74.35,0,.68-.35.99-1.01.51-1.17.88-2.4,1.14-3.89.64.75.92,1.01,1.83,1.69-1.12,4.11-2.27,5.76-4.03,5.76-1.45,0-2.77-1.41-3.54-3.76-.73-2.24-1.03-5.17-1.14-10.52,0-.75-.02-.88-.07-1.34h2.55ZM410.4,304.32c2.77,3.32,4.22,6.73,4.91,11.46l-2.27.88c-.15-2.02-.66-4.22-1.45-6.18-.75-1.94-1.78-3.63-3.1-5.21l1.91-.95Z"/><path class="cls-5" d="M437,503.87c0,11-9,20-20,20H65c-11,0-20-9-20-20h0c0-11,9-20,20-20h352c11,0,20,9,20,20h0Z"/><path class="cls-1" d="M98.21,504.43c-.19,2.17-.61,4.23-1.18,5.71-.68,1.75-1.65,3.16-3.26,4.79-.45-.52-1.04-1.06-1.58-1.44-.28.92-.85,1.16-2.81,1.16-.5,0-1.13-.02-1.72-.07-.05-.85-.14-1.27-.4-2.03,1.06.17,1.68.21,2.36.21.54,0,.73-.12.73-.45v-2.86h-4.08c-.31,2.38-.76,3.66-1.91,5.55-.57-.61-.97-.92-1.79-1.44,1.63-2.34,2.08-4.67,2.08-10.72,0-1.32-.02-1.94-.09-2.67l-.28.26c-.47-.52-.85-.83-1.56-1.25,1.82-1.65,3.09-3.66,3.73-5.92l2.1.61c-.47.99-.47,1.02-.78,1.61h3.21c1.09,0,1.68-.02,2.31-.14v2.01c-.68-.07-1.2-.09-2.08-.09h-1.25c.45.68.73,1.16,1.16,2.05l-1.89.54c-.4-1.11-.64-1.58-1.23-2.6h-1.25c-.78,1.25-1.42,2.08-2.17,2.88.59.07,1.13.09,2.31.09h3.28c1.11,0,1.68-.02,2.22-.09-.05.5-.07,1.04-.07,2.01v10.58c0,.19-.02.33-.07.64,1.11-1.01,1.53-1.49,2.1-2.41,1.06-1.7,1.61-3.61,1.87-6.52h-1.11c-.92,0-1.37.02-1.98.12v-2.1c.52.07,1.06.09,1.98.09h1.23q.02-.83.02-1.3c0-.71-.02-1.09-.12-1.53h2.27q-.07.54-.17,2.83h3.38c.97,0,1.44-.02,1.91-.09-.07.61-.09.94-.12,1.68-.12,3.73-.54,7.41-1.04,8.85-.43,1.25-1.18,1.65-3.09,1.65-.54,0-.92-.02-1.65-.07-.05-.73-.17-1.27-.45-2.05.99.14,1.63.19,2.31.19.73,0,.99-.26,1.2-1.18.31-1.37.52-3.73.64-7.08h-3.21ZM86.55,505.68c-.02.66-.05,1.09-.12,2.05h3.92v-2.05h-3.8ZM90.35,501.93h-3.75v2.03h3.75v-2.03ZM95.78,497.26c-.64,1.06-1.09,1.68-2.01,2.76-.47-.45-.97-.78-1.6-1.09,1.68-1.72,2.67-3.47,3.16-5.55l2.05.57c-.43.97-.45,1.04-.68,1.53h4.84c1.2,0,1.79-.02,2.55-.14v2.03c-.75-.09-1.42-.12-2.55-.12h-2.12c.54.8.85,1.35,1.3,2.27l-1.87.66c-.31-.94-.68-1.72-1.42-2.93h-1.65Z"/><path class="cls-1" d="M117.76,498.63c1.37,2.01,3.56,3.56,6.44,4.63-.45.64-.73,1.11-1.16,2.01-2.62-1.2-4.89-2.93-6.21-4.72-.43.78-.83,1.3-1.46,1.98-1.02,1.06-1.94,1.72-3.82,2.79-.54-.8-.87-1.16-1.44-1.65,3.14-1.51,4.58-2.83,5.45-5.03h-5.76v13.74c0,1.49.02,2.08.12,2.71h-2.46c.12-.8.17-1.58.17-2.64v-13.67c0-.94-.02-1.49-.09-2.2.73.07,1.35.09,2.5.09h6.02c.14-.94.21-1.91.21-2.76,0-.21,0-.24-.02-.42l2.36.14c-.12.54-.17.8-.28,1.79-.05.45-.09.66-.17,1.25h6.33c1.2,0,1.77-.02,2.38-.09-.07.71-.09,1.25-.09,2.41v13.81c0,1.58-.61,1.98-3.04,1.98-.52,0-1.75-.05-2.46-.12-.05-.83-.14-1.18-.45-2.1,1.3.21,2.2.28,3.07.28.59,0,.71-.09.71-.59v-13.62h-6.85ZM118.47,503.09q-.17.5-.38,1.25c-.07.28-.14.5-.28.9.52.71,1.2,1.37,2.24,2.2,1.11.87,2.05,1.37,3.97,2.12-.61.73-.83,1.06-1.27,1.91-1.87-.87-2.86-1.49-4.01-2.48-.73-.61-1.32-1.2-1.79-1.82-1.23,2.17-2.67,3.49-5.24,4.82-.5-.73-.87-1.18-1.53-1.72,1.49-.61,2.71-1.39,3.71-2.34,1.35-1.28,2.34-3.38,2.46-5.15l2.15.31Z"/><path class="cls-1" d="M132.54,496.27c0-1.13-.05-1.94-.14-2.6h2.31c-.09.68-.14,1.42-.14,2.6v3.33h.38c.8,0,1.25-.02,1.79-.09v2.08c-.68-.07-1.2-.09-1.79-.09h-.38v6.8c1.09-.45,1.46-.61,2.5-1.09l.12,1.94c-1.75.85-4.25,1.96-6.63,2.88-.12.05-.21.09-.47.21l-.47-2.31c.47-.05,1.13-.26,2.93-.87v-7.55h-.68c-.71,0-1.32.05-1.98.12v-2.12c.61.07,1.25.12,2.03.12h.64v-3.33ZM140.49,496.36c-.42-.85-.83-1.49-1.51-2.41l2.05-.59c.61.99,1.2,2.1,1.61,3h2.62c.59-.9.97-1.65,1.49-2.97l2.03.61c-.57,1.13-.92,1.7-1.39,2.36h1.32c.9,0,1.58-.02,2.12-.09-.07.52-.09,1.18-.09,2.08v4.25c0,.92.02,1.53.09,2.05-.59-.05-1.01-.07-2.1-.07h-9.42c-1.13,0-1.56.02-2.08.07.05-.47.07-.97.07-1.98v-4.39c0-.97-.02-1.27-.07-2.01.54.07,1.2.09,2.1.09h1.16ZM138.25,507.53c0-.87-.02-1.25-.07-1.7.64.07,1.13.09,2.1.09h7.29c.99,0,1.61-.02,2.12-.09-.07.57-.09,1.04-.09,1.94v4.93c0,1.2.02,1.77.12,2.38h-2.15v-.99h-7.32v.99h-2.12c.09-.64.12-1.18.12-2.38v-5.17ZM139.24,499.71h3.71v-1.7h-3.71v1.7ZM139.24,502.99h3.71v-1.72h-3.71v1.72ZM140.25,509.15h7.32v-1.56h-7.32v1.56ZM140.25,512.41h7.32v-1.63h-7.32v1.63ZM144.86,499.71h3.94v-1.7h-3.94v1.7ZM144.86,502.99h3.94v-1.72h-3.94v1.72Z"/><path class="cls-1" d="M158.88,504.83c.8,0,1.27-.02,1.72-.07-.05.45-.05.61-.07,1.13-.09,3.02-.19,4.08-.54,5.85-.45,2.27-1.2,2.97-3.14,2.97h-.19s-.28-.02-.61-.02c-.45,0-.8-.02-1.6-.07-.09-.92-.17-1.34-.4-2.17.94.14,1.82.21,2.43.21.85,0,1.13-.14,1.3-.64.42-1.13.64-2.88.68-5.36h-2.88c-.66,0-1.09.02-1.63.05.42-1.94.68-4.46.73-7.15.59.07.87.09,2.08.09h1.82v-3.26h-2.5c-.97,0-1.58.02-2.1.09v-2.15c.52.09,1.13.14,2.2.14h2.81c.68,0,1.18-.02,1.7-.07-.05.59-.07,1.06-.07,1.77v3.33c0,.73.02,1.42.07,2.08-.5-.05-.94-.07-1.68-.07h-2.36c-.07,1.06-.24,2.43-.38,3.3h2.62ZM166.79,499.97c-.75.05-1.46.09-2.69.17-1.79.09-2.12.09-2.62.19l-.26-2.1c.33.05.78.07,1.13.07.07,0,.68-.02.87-.02,1.13-1.84,1.77-3.14,2.34-4.74l2.27.47c-1.42,2.69-1.56,2.9-2.43,4.2q3.64-.19,5.71-.35c-.68-.87-1.04-1.3-2.05-2.38l1.61-.92c1.68,1.72,2.95,3.28,4.39,5.36l-1.7,1.23c-.54-.92-.75-1.23-1.04-1.63-1.37.14-2.55.26-3.56.33v2.24h3.33c.83,0,1.25-.02,1.87-.09-.07.5-.09.92-.09,1.61v3.26c0,.8.02,1.25.09,1.84-.64-.07-1.2-.09-1.96-.09h-3.23v3.09c1.25-.14,1.72-.21,2.93-.38-.24-.42-.45-.73-1.01-1.61l1.65-.73c1.56,2.24,2.12,3.26,3.07,5.31l-1.84.8c-.4-1.04-.54-1.35-.97-2.17-3.56.64-6.54,1.01-10.74,1.44-.31.02-.47.05-.78.12l-.38-2.27c.31.02.45.02.68.02.94,0,3.75-.17,5.43-.33v-3.3h-2.9c-.92,0-1.46.02-2.08.09.07-.57.09-1.13.09-1.89v-3.07c0-.66-.02-1.25-.09-1.75.54.07,1.11.09,2.03.09h2.95v-2.1ZM163.79,503.82v3h3v-3h-3ZM168.75,506.82h3.19v-3h-3.19v3Z"/><path class="cls-1" d="M183.6,496.83c.66-1.46.94-2.29,1.02-3.04l2.6.33c-.14.21-.19.31-.28.54q-.26.61-.73,1.72c-.07.14-.14.31-.19.4q.07,0,.19-.02h.12c.12,0,.54-.02,1.18-.07,2.53-.09,5.03-.42,6.28-.8l.14,2.24q-.52.05-1.84.21c-1.65.21-4.7.42-7.01.47-.83,1.61-1.56,2.67-2.55,3.68l.02.05q.17-.14.5-.38c1.04-.8,2.31-1.23,3.59-1.23.9,0,1.75.28,2.29.75.52.45.8.94.97,1.79,1.91-.71,3.19-1.18,3.82-1.39,1.2-.4,1.3-.45,1.68-.68l.97,2.27c-1.32.24-2.9.73-6.21,1.96q.02.85.02,1.27v1.11c-.02.4-.02.66-.02.83,0,.45.02.8.07,1.16l-2.29.05c.07-.47.14-1.79.14-3.07v-.57c-2.9,1.32-3.97,2.27-3.97,3.52,0,1.42,1.23,1.94,4.53,1.94,2.48,0,5.05-.38,6.54-.97l.24,2.55c-.4.02-.52.02-1.04.12-1.75.26-3.97.42-5.88.42-2.38,0-3.94-.28-5.1-.94-1.04-.59-1.65-1.65-1.65-2.9,0-2.2,1.96-4.08,6.04-5.83-.12-1.01-.64-1.51-1.61-1.51-1.42,0-3.16.85-5.03,2.46-.94.8-1.49,1.39-1.94,2.08l-1.82-1.82c1.11-.83,2.53-2.46,3.8-4.3.28-.45.78-1.25,1.46-2.38h-.4l-2.29-.02c-.59-.02-1.04-.05-1.37-.05h-.14c-.07,0-.19,0-.35.02l.05-2.24c1.18.21,2.46.28,4.6.28h.85Z"/><path class="cls-1" d="M201.33,504.01c-1.01,0-1.61.02-2.31.14v-1.98c.61.12,1.18.14,2.34.14h16.81c1.16,0,1.68-.02,2.34-.14v1.98c-.71-.12-1.3-.14-2.36-.14h-8.52v8.8c0,1.11.02,1.68.14,2.31h-2.22c.12-.57.14-1.18.14-2.29v-.38c-2.67.47-2.88.52-5.12.83-1.75.26-2.27.33-3.12.5l-.45-2.05h.42c.4,0,1.06-.05,2.05-.12v-7.6h-.14ZM217.85,499.36c0,.87.02,1.42.09,1.96-.64-.05-1.42-.07-2.29-.07h-11.52c-1.06,0-1.7.02-2.48.09.07-.59.09-1.16.09-1.98v-3.23c0-.85-.02-1.42-.09-1.98.8.07,1.46.09,2.55.09h11.21c1.08,0,1.75-.02,2.53-.09-.07.54-.09,1.11-.09,1.98v3.23ZM203.43,505.33h4.25v-1.32h-4.25v1.32ZM203.43,508.19h4.25v-1.37h-4.25v1.37ZM203.43,511.42c1.35-.14,2.5-.31,4.25-.59v-1.16h-4.25v1.75ZM203.78,497.02h12.04v-1.2h-12.04v1.2ZM203.78,499.74h12.04v-1.23h-12.04v1.23ZM219.29,506.32c-.17.24-.21.35-.4.68-.92,1.77-1.68,2.88-2.76,4.04,1.23.9,2.41,1.44,4.34,1.98-.47.61-.75,1.13-1.09,1.89-2.2-.85-3.3-1.46-4.63-2.57-1.23,1.01-2.27,1.68-3.85,2.41-.35-.78-.66-1.23-1.18-1.75,1.51-.57,2.41-1.06,3.64-2.01-.87-.94-1.39-1.7-2.31-3.28l1.72-.76h-.73c-.71,0-1.09.02-1.72.09v-1.86c.54.07,1.06.09,2.01.09h4.13c.83,0,1.42-.02,1.79-.09l1.04,1.13ZM212.8,506.96c.64,1.32,1.02,1.89,1.91,2.86.87-.9,1.37-1.58,2.03-2.86h-3.94Z"/><path class="cls-1" d="M234.4,501.32c.59,2.29,1.7,4.46,3.26,6.37,1.86,2.27,3.82,3.68,6.8,4.91-.68.78-.92,1.16-1.46,2.27-2.69-1.42-4.46-2.74-6.16-4.7-1.49-1.7-2.57-3.59-3.42-5.95-.71,2.79-2.08,5.1-4.2,7.15-1.51,1.46-3.16,2.53-5.41,3.52-.45-.97-.68-1.3-1.39-2.08,2.86-1.16,4.79-2.46,6.35-4.3,1.65-1.94,2.5-4.06,2.93-7.2h-5.9c-1.39,0-2.1.05-2.83.17v-2.53c.68.12,1.51.17,2.86.17h6.09c.05-1.16.07-1.75.07-2.67,0-1.13-.05-1.94-.17-2.6h2.64c-.12.83-.17,1.27-.17,2.67-.02,1.11-.02,1.7-.07,2.6h6.61c1.3,0,2.12-.05,2.83-.17v2.53c-.8-.12-1.56-.17-2.81-.17h-6.44Z"/><path class="cls-1" d="M247.24,496.15c0-.66-.02-1.23-.07-2.01.38.05.87.07,1.65.07h3.47c.85,0,1.35-.05,1.63-.12l1.13,1.39q-.17.31-.75,1.77c-.52,1.32-1.13,2.67-1.94,4.2,1.06,1.35,1.46,2.03,1.82,3.05.24.73.4,1.63.4,2.34,0,2.17-.9,2.93-3.52,2.93h-.71c-.05-.92-.14-1.42-.45-2.08.54.09.83.12,1.18.12,1.09,0,1.42-.26,1.42-1.11,0-.8-.19-1.68-.52-2.48-.38-.85-.78-1.42-1.82-2.57,1.16-2.22,1.44-2.9,2.38-5.55h-3.26v16.43c0,.94.02,1.68.12,2.5h-2.31c.09-.68.14-1.46.14-2.5v-16.38ZM257.53,504.62v7.27c1.91-.45,2.81-.71,4.08-1.13l.07,1.98c-2.5.75-4.01,1.13-7.51,1.94-.57.14-.87.21-1.16.33l-.45-2.22c.59-.02,1.44-.17,2.93-.47v-15.48c0-.99-.02-1.63-.09-2.5.54.09,1.11.12,2.29.12h6.47c1.18,0,1.63-.02,2.22-.12-.05.61-.07,1.11-.07,2.6v5.26c0,1.39.02,1.79.09,2.5-.71-.05-1.3-.07-2.05-.07h-2.95c.35,1.42.57,2.01,1.11,3.07,1.58-1.09,2.97-2.29,3.47-2.95l1.63,1.44c-.12.07-.19.12-1.39,1.11-.59.47-1.87,1.42-2.69,2.01,1.25,1.58,2.64,2.69,4.72,3.71-.57.64-.85,1.06-1.3,1.96-2.55-1.58-4.04-2.97-5.36-5.05-.97-1.53-1.53-2.95-2.08-5.29h-1.98ZM257.51,498.6h6.82v-2.29h-6.82v2.29ZM257.51,502.85h6.82v-2.46h-6.82v2.46Z"/><path class="cls-1" d="M275.05,494.8c-.5,1.2-1.02,3.47-1.3,5.76-.26,1.89-.42,4.39-.45,6.44v2.12h.05c.21-1.04.35-1.49,1.28-3.63l1.63.73c-1.2,2.53-2.03,5.33-2.03,6.87,0,.09,0,.28.02.52l-2.43.17c-.02-.4-.05-.54-.12-1.04-.45-2.74-.61-4.49-.61-6.96,0-3.14.28-5.69,1.01-9.21.24-1.23.28-1.49.33-2.1l2.62.33ZM281.26,504.55c-1.18,1.37-1.7,2.41-1.7,3.45,0,1.46,1.39,2.24,4.06,2.24,2.1,0,4.13-.31,5.55-.87l.21,2.53c-.31.05-.38.05-.9.14-1.79.31-3.28.45-4.86.45-2.83,0-4.67-.64-5.67-1.94-.47-.59-.73-1.46-.73-2.31,0-1.42.68-2.9,2.12-4.63l1.91.94ZM277.72,497.07c1.25.28,2.22.38,4.01.38,2.9,0,5.26-.24,6.61-.66l.12,2.41c-.17,0-.31.02-1.65.19-1.46.19-3.28.31-5,.31-1.35,0-2.41-.05-3.45-.19-.33-.02-.4-.05-.66-.07l.02-2.36Z"/><path class="cls-1" d="M303.45,501.41c-.02.68-.02.73-.07,1.61h4.51c1.11,0,1.49-.02,2.08-.09v1.91c-.57-.07-1.01-.09-2.08-.09h-4.63c-.09.8-.12,1.06-.26,1.7h7.62c1.11,0,1.7-.02,2.36-.12v2.1c-.78-.09-1.46-.14-2.43-.14h-6.44c1.02,1.27,1.96,2.1,3.28,2.79,1.65.87,3.4,1.42,5.95,1.84-.47.68-.8,1.3-1.08,2.12-5.24-1.32-7.79-2.88-10.08-6.16-.8,1.75-1.86,2.93-3.54,3.99-1.6,1.04-3.07,1.61-5.62,2.15-.35-.94-.5-1.23-1.08-2.05,2.45-.4,3.68-.78,5.1-1.56,1.51-.8,2.5-1.79,3.21-3.12h-5.55c-.9,0-1.63.05-2.41.14v-2.1c.64.09,1.2.12,2.29.12h6.3c.14-.64.21-1.02.28-1.7h-4.11c-1.06,0-1.53.02-2.1.09v-1.91c.59.07.99.09,2.1.09h4.23c.05-.68.05-.83.07-1.61h-4.46c-1.09,0-1.65.02-2.27.12v-1.04h-2.12c.07-.52.09-.97.09-1.7v-1.61c0-.61-.02-1.11-.09-1.7.8.07,1.42.09,2.53.09h6.28v-.68c0-.57-.05-.97-.14-1.49h2.48c-.09.5-.14.9-.14,1.49v.68h6.63c1.11,0,1.75-.02,2.53-.09-.07.57-.09,1.04-.09,1.68v1.63c0,.68.02,1.18.09,1.7h-2.15v1.04c-.66-.09-1.16-.12-2.24-.12h-4.82ZM308.26,499.67c1.08,0,1.68-.02,2.24-.12v-2.12h-15.86v2.12c.61.09,1.16.12,2.24.12h4.48c-.02-.87-.05-1.18-.12-1.68h2.34c-.07.31-.09.9-.12,1.68h4.79Z"/><path class="cls-1" d="M327.34,505.35c0,.28,0,.5.02.9,1.06-.73,1.82-1.39,2.64-2.31-.9-1.82-1.35-3.42-1.77-6.51h-8.95c-.05,6.42-.54,9.09-2.08,11.45-.54-.66-.94-.97-1.79-1.42.73-1.09,1.09-1.91,1.37-3.12.33-1.44.5-3.33.5-5.45,0-1.87-.02-2.55-.12-3.38.8.07,1.72.12,2.83.12h8.05c-.02-.52-.05-.66-.05-.78-.05-.21-.07-.52-.09-.85,0-.12-.02-.26-.09-.61h2.27c-.02.38-.05.73-.05,1.16,0,.26.02.66.05,1.09h3.12c-.57-.47-1.13-.83-2.17-1.37l1.49-1.01c1.11.61,1.51.87,2.46,1.63l-1.06.76c1.37,0,1.98-.02,2.64-.14v2.05c-.8-.09-1.51-.12-2.79-.12h-3.52c.24,1.96.57,3.42,1.13,4.82.8-1.2,1.44-2.53,1.79-3.73l1.87.75q-.21.38-.54,1.06c-.73,1.53-1.37,2.57-2.22,3.71.4.64.71,1.02,1.13,1.42.4.4.87.71,1.09.71.35,0,.68-1.02.9-2.83.59.59.92.85,1.65,1.27-.54,2.62-1.25,3.64-2.46,3.64-1.09,0-2.48-1.04-3.59-2.67-.97,1.02-1.75,1.68-3.02,2.57-.42-.59-.75-.97-1.32-1.42h-4.98c-.66,0-1.16.02-1.53.07.05-.28.07-.85.07-1.42v-2.31c0-.59-.02-1.01-.07-1.39.42.05.9.07,1.56.07h4.16c.68,0,1.11-.02,1.56-.07-.05.4-.07.75-.07,1.37v2.31ZM320.09,509.18c-.87,2.67-1.39,3.61-2.81,5.29l-1.77-1.27c1.56-1.63,2.01-2.41,2.74-4.84l1.84.83ZM327.85,500.56c-.47-.07-.94-.09-1.6-.09h-4.75c-.66,0-1.11.02-1.63.09v-1.87c.5.07.9.09,1.63.09h4.75c.68,0,1.16-.02,1.6-.09v1.87ZM323.28,512.34c0,.33.09.42.52.5.21.05,1.72.09,2.76.09,1.13,0,2.38-.09,2.74-.21.42-.14.59-.33.68-.85.05-.35.09-.8.09-1.35.71.35,1.13.52,2.01.71-.14,1.32-.24,1.72-.54,2.34-.24.52-.75.83-1.65.99-.52.09-2.76.21-4.23.21-3.66,0-4.41-.33-4.41-1.86v-2.79c0-.73-.02-1.13-.14-1.68h2.29c-.09.47-.12.85-.12,1.46v2.43ZM322,505.12h3.54v-1.79h-3.54v1.79ZM327.6,511.54c-1.06-1.16-1.56-1.58-3.35-2.79l1.37-1.11c1.3.78,2.46,1.65,3.42,2.6l-1.44,1.3ZM333.61,508.59c1.3,1.56,2.01,2.62,3.12,4.58l-1.84,1.04c-1.23-2.46-1.35-2.64-3.02-4.84l1.75-.78Z"/><path class="cls-1" d="M344.24,494.57c-.12.66-.19,1.32-.26,3.04-.09,2.03-.24,7.25-.24,8.85,0,2.2.14,3.07.64,3.82.57.85,1.75,1.32,3.33,1.32,2.6,0,4.7-1.46,5.9-4.08.54-1.18.83-2.2,1.11-3.87,1.04.87,1.42,1.11,2.38,1.56-.94,3.04-1.63,4.51-2.71,5.76-1.75,1.98-4.04,2.97-6.87,2.97-1.63,0-3.09-.38-4.04-1.04-1.53-1.09-2.17-2.76-2.17-5.81,0-1.37.02-2.64.19-9.56.02-.73.02-1.18.02-1.61,0-.57-.02-.87-.09-1.42l2.81.05Z"/><path class="cls-1" d="M360.15,497.8c.87.17,1.53.21,2.9.21.52,0,.87,0,1.39-.02.28-1.46.5-3.09.5-3.8,0-.07,0-.19-.02-.33l2.62.24q-.17.54-.45,2.24c-.12.71-.14.94-.26,1.56,1.79-.19,3-.4,4.11-.75l.12,2.27q-.19.02-.71.12c-1.11.24-2.76.45-3.92.52-.28,1.61-.92,4.2-1.53,6.35-.71,2.46-1.28,4.08-2.67,7.58l-2.48-.99c1.68-3.04,3.4-8.19,4.32-12.84-.21,0-1.42.02-1.91.02-.17,0-.35,0-.68-.02-.35-.02-.76-.02-1.09-.02h-.26l.02-2.31ZM371.41,506.75c-.61.75-.8,1.01-.97,1.37-.19.4-.31.87-.31,1.25,0,1.23,1.32,1.91,3.78,1.91,1.75,0,3.94-.35,5.29-.85l.19,2.46c-.38.07-.52.07-1.11.17-1.86.31-2.95.4-4.3.4-2.01,0-3.47-.28-4.56-.9-1.04-.59-1.65-1.65-1.65-2.86,0-1.13.42-2.08,1.7-3.78l1.94.83ZM378.52,503.25c-1.13-.12-1.79-.14-2.9-.14-2.24,0-3.78.19-6.09.71l-.19-2.2c3.14-.61,4.32-.76,6.7-.76.66,0,1.04,0,2.43.02l.05,2.36Z"/><path class="cls-1" d="M385.53,496.1c-.14.85-.19,1.75-.19,3.14,0,2.41.21,5.38.5,6.87.47,2.46,1.3,4.01,2.12,4.01.38,0,.73-.38,1.06-1.08.54-1.25.94-2.57,1.23-4.18.68.8.99,1.09,1.96,1.82-1.2,4.42-2.43,6.18-4.32,6.18-1.56,0-2.97-1.51-3.8-4.04-.78-2.41-1.11-5.55-1.23-11.28,0-.8-.02-.94-.07-1.44h2.74ZM396.76,497.23c2.97,3.56,4.53,7.22,5.26,12.3l-2.43.94c-.17-2.17-.71-4.53-1.56-6.63-.8-2.08-1.91-3.9-3.33-5.59l2.05-1.01Z"/><path class="cls-1" d="M65.73,373.21v6.24c0,5.21-.88,8.93-2.63,11.46-2.58,3.66-6.09,5.62-10.47,5.83v-8.88c3.15-.52,4.59-2.94,4.7-8v-6.66h8.41ZM54.01,360.87h17.34v-8h9.03v8h17.39v8.36h-17.39v28.33h-9.03v-28.33h-17.34v-8.36ZM93.54,373.21v6.86c0,4.28,1.6,6.61,5.47,7.69v8.98c-9.44-.98-13.73-5.99-13.78-16v-7.53h8.31ZM86.37,351.27h4.9v7.9h-4.9v-7.9ZM97.62,351.27v7.9h-4.85v-7.9h4.85Z"/><path class="cls-1" d="M105.15,368.41h43.92v8.05h-17.13v5.42c-.1,10.01-5.62,15.53-15.33,15.33h-8.93v-8.51h6.35c6.14.21,8.62-1.81,8.72-7.02v-5.21h-17.6v-8.05ZM137.71,355.45v4.08h7.89v3.82h-37.57v-7.9h29.67ZM139.11,350.09h4.9v7.84h-4.9v-7.84ZM150.51,350.09v7.84h-4.85v-7.84h4.85Z"/><path class="cls-1" d="M194.99,356.9v2.48c.15,5.11-1.55,7.59-6.61,9.81l-7.69,3.15v24.41h-8.82v-21l-16.51,5.78v-8.05l27.71-10.27c2.32-1.03,2.99-1.96,3.04-4.49v-1.81h8.88Z"/><path class="cls-1" d="M203.09,358.55c9.29,3.04,13.52,4.75,22.35,9.08,3.92-10.11,4.02-10.37,5.31-14.71h10.27c-2.58,6.81-3.15,8.41-4.08,10.63l-2.17,5.37c-.41.98-.88,2.01-1.29,3.04,6.66,3.46,7.69,3.97,11.1,5.88v10.73c-4.03-2.63-4.18-2.74-8.05-5.01-2.06-1.24-4.08-2.43-5.99-3.56-4.8,10.22-6.29,12.23-10.84,14.76-4.13,2.12-7.54,2.68-17.03,2.79v-9.29c13.78-.21,15.28-1.19,19.71-12.44-4.64-2.68-11.97-5.83-19.3-8.31v-8.98Z"/><path class="cls-1" d="M252.52,373.41l28.49-13.37c3.77-1.81,4.54-2.89,4.54-6.3v-1.39h9.44v2.01c.15,5.16-1.96,8.82-6.5,11.15l-7.9,3.97v28.12h-9.55v-23.27l-18.53,9.24v-10.17Z"/><path class="cls-1" d="M302.89,369.65c5.78-1.13,8.15-5.73,8.26-16h34.73v20.59c-.1,7.48-1.13,11.51-3.92,15.22-3.61,4.8-8.36,6.86-16,7.02h-21.16v-8.46h17.75c10.37.05,13.78-3.25,14.04-13.52v-12.02h-17.54c-1.29,9.8-6.35,14.86-16.15,16.1v-8.93Z"/><path class="cls-1" d="M353.71,389.48h22.6v-12.56c0-2.45-.67-3.23-2.73-3.23h-19.65v-6.17h21.04c4.61-.14,7.59,2.59,7.56,6.95v21.04h-28.81v-6.03Z"/><path class="cls-1" d="M418.2,378.02v6.03h-29.06v-6.03h29.06Z"/><path class="cls-1" d="M425.9,372.42v-5.85h25.65c-1.92,6.17-3.51,10.22-5.75,14.47,3.94,5.5,6.53,9.83,9.15,15.22h-7.7c-1.56-3.72-2.66-5.82-4.75-9.19-3.37,6.1-8.05,9.15-14.58,9.58h-4.47v-6h2.24c5.39.04,8.16-1.31,10.78-5.25,1.74-2.45,4.47-8.12,6.24-12.98h-16.81Z"/><path class="cls-1" d="M634.05,300.76h5.02c3.32,0,5.72,1.08,5.72,4,0,1.54-.86,3.01-2.31,3.5v.11c1.85.4,3.19,1.65,3.19,3.85,0,3.21-2.62,4.75-6.21,4.75h-5.41v-16.22ZM638.78,307.53c2.46,0,3.5-.92,3.5-2.44,0-1.69-1.14-2.33-3.43-2.33h-2.24v4.77h2.18ZM639.18,314.97c2.53,0,3.98-.9,3.98-2.88,0-1.83-1.41-2.64-3.98-2.64h-2.57v5.52h2.57Z"/><path class="cls-1" d="M648.94,308.92c0-5.28,3.21-8.45,7.31-8.45,2.02,0,3.61.97,4.6,2.05l-1.39,1.63c-.84-.86-1.85-1.45-3.17-1.45-2.79,0-4.73,2.33-4.73,6.14s1.8,6.21,4.67,6.21c1.5,0,2.62-.66,3.59-1.72l1.36,1.61c-1.3,1.5-2.95,2.33-5.04,2.33-4.07,0-7.2-3.04-7.2-8.34Z"/><path class="cls-1" d="M668.37,300.76h2.95l5.37,16.22h-2.71l-1.36-4.62h-5.63l-1.39,4.62h-2.6l5.37-16.22ZM667.58,310.35h4.42l-.64-2.18c-.55-1.76-1.03-3.57-1.52-5.39h-.11c-.46,1.85-.97,3.63-1.5,5.39l-.66,2.18Z"/><path class="cls-1" d="M683.02,300.76h2.95l5.37,16.22h-2.71l-1.36-4.62h-5.63l-1.39,4.62h-2.6l5.37-16.22ZM682.23,310.35h4.42l-.64-2.18c-.55-1.76-1.03-3.57-1.52-5.39h-.11c-.46,1.85-.97,3.63-1.5,5.39l-.66,2.18Z"/><path class="cls-1" d="M708.85,310.02v1.65h3.92v1.76h-3.92v3.04c0,1.08-.26,1.63-1.08,1.91-.81.31-2.02.33-3.76.33-.11-.57-.46-1.41-.75-1.91,1.32.04,2.62.04,2.99.02.4-.02.48-.09.48-.4v-2.99h-7.55c1.23.86,2.6,2.05,3.23,2.97l-1.58,1.3c-.66-1.01-2.18-2.4-3.5-3.37l1.19-.9h-4.25v-1.76h12.45v-1.65h-13.18v-1.74h8.8v-1.67h-6.62v-1.69h6.62v-1.32h.53c-.31-.22-.62-.42-.86-.55.4-.33.77-.68,1.1-1.1h-3.59c.29.62.57,1.25.7,1.72l-1.76.68c-.18-.62-.57-1.58-.97-2.4h-.62c-.64.99-1.36,1.91-2.07,2.62-.37-.33-1.21-.9-1.69-1.17,1.39-1.21,2.66-3.12,3.39-4.99l1.96.51c-.18.46-.4.9-.62,1.34h5.33v1.63c.84-1.01,1.56-2.22,1.98-3.48l1.98.46c-.18.48-.37.92-.59,1.39h6.64v1.69h-4.2c.42.62.81,1.23,1.03,1.74l-1.76.73c-.26-.64-.88-1.65-1.47-2.46h-1.21c-.4.62-.81,1.14-1.25,1.65h.13v1.32h6.86v1.69h-6.86v1.67h8.91v1.74h-4.53Z"/><path class="cls-1" d="M727.46,309.58v7.02h-1.85v-7.02h-7v-1.83h7v-7h1.85v7h7v1.83h-7Z"/><path class="cls-1" d="M747.24,299.35c-.62,1.45-1.39,2.91-2.22,4.27v15.05h-2.11v-12.04c-.84,1.08-1.72,2.05-2.64,2.88-.2-.51-.81-1.58-1.17-2.05,2.44-2.07,4.8-5.37,6.21-8.76l1.94.64ZM753.09,306.96c.7,5.39,2.02,9.02,4.11,9.26.55.02.88-1.19,1.08-3.67.4.42,1.3.97,1.69,1.12-.51,3.98-1.52,5.06-2.68,5-3.67-.31-5.39-4.67-6.23-11.42l-4.82.62-.31-1.94,4.93-.62c-.18-2-.31-4.16-.4-6.47h2.07c.07,2.2.18,4.29.35,6.18l6.45-.81.26,1.91-6.51.84ZM757.6,303.44c-.64-1.01-2.07-2.53-3.3-3.63l1.52-.97c1.25,1.03,2.71,2.51,3.41,3.52l-1.63,1.08Z"/><path class="cls-1" d="M769.2,303.77h-6.58v-1.63h6.58v1.63ZM776.92,308.83c-.33.68-.73,1.36-1.14,2v5.81c0,.9-.2,1.43-.77,1.74-.62.29-1.5.33-2.86.33-.09-.46-.35-1.25-.64-1.69,1.01.04,1.91.02,2.2.02s.4-.11.4-.42v-3.54c-1.3,1.54-2.75,2.88-4.25,3.89-.22-.35-.75-.99-1.12-1.41v1.89h-3.72v.97h-1.58v-7.39h5.3v4.31c1.54-.95,3.01-2.25,4.25-3.74l-3.54.79-.46-1.65c.33-.04.68-.11,1.06-.18v-9.92h1.72c.22-.73.42-1.56.51-2.18l2.02.35c-.24.62-.48,1.25-.7,1.83h2.2v7.83l1.14.35ZM768.71,306.72h-5.21v-1.58h5.21v1.58ZM763.5,308.06h5.21v1.61h-5.21v-1.61ZM768.69,300.84h-5.13v-1.61h5.13v1.61ZM767.11,312.68h-2.09v3.17h2.09v-3.17ZM774.1,302.19h-2.44v1.5h2.44v-1.5ZM774.1,305.22h-2.44v1.52h2.44v-1.52ZM771.66,310.26l2.44-.46v-1.52h-2.44v1.98ZM782.9,305.6h-1.14v10.87c0,1.06-.22,1.61-.86,1.94-.64.31-1.61.37-3.12.37-.07-.51-.31-1.36-.57-1.92,1.03.04,1.96.04,2.27.02.29,0,.4-.09.4-.42v-10.87h-3.65v-1.89h3.65v-5.04h1.89v5.04h1.14v1.89ZM777.73,312.97c-.04-1.45-.51-3.7-1.1-5.41l1.47-.35c.64,1.69,1.12,3.92,1.21,5.39l-1.58.37Z"/><path class="cls-1" d="M804.05,303.02c-.95,1.61-3.04,4.4-5.39,6.07l-1.83-1.47c1.94-1.12,3.85-3.3,4.49-4.55h-12.06c-.88,0-1.65.07-2.6.13v-2.44c.81.11,1.72.2,2.6.2h12.3c.48,0,1.47-.07,1.83-.15l1.39,1.3c-.2.24-.55.66-.73.92ZM789.77,317.96l-2.02-1.65c.64-.22,1.41-.57,2.11-1.08,3.15-2.02,3.65-4.8,3.65-8.45,0-.59-.02-1.12-.13-1.76h2.51c0,5.74-.33,9.97-6.12,12.94Z"/><path class="cls-1" d="M811.74,310.26l-2.09.77c-.38-1.17-1.52-4.16-2-5.02l2.07-.75c.51,1.01,1.61,3.79,2.02,5ZM822.46,306.83c-.59,2.35-1.54,4.69-3.08,6.65-2.02,2.6-4.75,4.38-7.24,5.32l-1.83-1.87c2.49-.7,5.39-2.38,7.22-4.64,1.52-1.89,2.62-4.75,2.93-7.53l2.42.77c-.2.55-.33.95-.42,1.3ZM816.61,308.9l-2.07.75c-.26-1.03-1.25-3.78-1.76-4.84l2.07-.68c.4.92,1.47,3.81,1.76,4.77Z"/><path class="cls-1" d="M842.59,298.49c1.41,0,2.55,1.14,2.55,2.53s-1.14,2.53-2.55,2.53c-.2,0-.4-.02-.59-.07-.02.13-.07.29-.09.42-.51,2.25-1.52,5.72-3.3,8.08-2,2.6-4.75,4.71-8.73,5.96l-1.89-2.07c4.29-1.06,6.78-2.95,8.6-5.24,1.5-1.94,2.44-4.75,2.75-6.75h-10.83c-.92,0-1.8.04-2.38.09v-2.46c.62.07,1.65.15,2.38.15h10.67c.26,0,.59,0,.95-.04-.04-.2-.07-.4-.07-.59,0-1.39,1.12-2.53,2.53-2.53ZM842.59,302.38c.75,0,1.39-.62,1.39-1.36s-.64-1.39-1.39-1.39-1.36.64-1.36,1.39.62,1.36,1.36,1.36Z"/><path class="cls-1" d="M851.23,301.79h10.94c.59,0,1.36-.02,1.76-.04-.02.48-.04,1.28-.04,1.85v11.38c0,.77.04,1.85.09,2.33h-2.51c0-.31.02-.73.02-1.19h-10.43c-.9,0-2,.04-2.64.09v-2.49c.64.04,1.61.11,2.55.11h10.54v-9.81h-10.28c-.86,0-1.98.04-2.55.09v-2.44c.77.07,1.83.13,2.55.13Z"/><path class="cls-1" d="M873.43,307.29h11.97c1.06,0,1.91-.09,2.46-.13v2.73c-.48-.02-1.5-.11-2.46-.11h-11.97c-1.21,0-2.53.04-3.28.11v-2.73c.73.04,2.09.13,3.28.13Z"/><path class="cls-1" d="M906.04,303.31c-.77,1.8-2.07,4.29-3.61,6.27,2.27,1.94,4.93,4.77,6.29,6.45l-1.94,1.72c-1.45-1.98-3.65-4.4-5.83-6.43-2.35,2.51-5.33,4.86-8.47,6.34l-1.78-1.87c3.56-1.36,6.87-4,9.04-6.45,1.5-1.67,2.97-4.09,3.5-5.81h-8.08c-.86,0-2.05.11-2.4.13v-2.49c.44.07,1.72.15,2.4.15h8.16c.81,0,1.54-.09,1.91-.22l1.43,1.06c-.15.22-.48.77-.64,1.14Z"/><path class="cls-1" d="M650.26,572.95v8.13h-7.52v-8.13h-21.89v-7.22l19.08-38.76h8.36l-19,38.76h13.45v-12.62h7.52v12.62h5.78v7.22h-5.78Z"/><path class="cls-1" d="M666.14,592.86v-20.6h8.82v13.38l-8.82,7.22Z"/><path class="cls-1" d="M714.47,572.95v8.13h-7.52v-8.13h-21.89v-7.22l19.08-38.76h8.36l-19,38.76h13.45v-12.62h7.52v12.62h5.78v7.22h-5.78Z"/><path class="cls-1" d="M744.64,581.54c-8.59,0-15.58-5.85-15.58-15.5v-24.02c0-9.65,6.99-15.5,15.58-15.5s15.66,5.85,15.66,15.5v24.02c0,9.65-6.99,15.5-15.66,15.5ZM752.55,542.25c0-5.17-2.96-8.82-7.9-8.82s-7.83,3.65-7.83,8.82v23.56c0,5.17,2.96,8.82,7.83,8.82s7.9-3.65,7.9-8.82v-23.56Z"/><path class="cls-1" d="M786.67,581.54c-8.59,0-15.58-5.85-15.58-15.5v-24.02c0-9.65,6.99-15.5,15.58-15.5s15.66,5.85,15.66,15.5v24.02c0,9.65-6.99,15.5-15.66,15.5ZM794.58,542.25c0-5.17-2.96-8.82-7.9-8.82s-7.83,3.65-7.83,8.82v23.56c0,5.17,2.96,8.82,7.83,8.82s7.9-3.65,7.9-8.82v-23.56Z"/><path class="cls-1" d="M813.33,575.94c0,1.79.03,2.41.14,3.05h-2.52c.11-.78.17-1.65.17-3.14v-18.12c0-1.09-.03-1.79-.11-2.55.81.08,1.48.11,2.74.11h17.02c1.34,0,2.04-.03,2.72-.11-.08.81-.11,1.43-.11,2.72v18.26c0,1.9-.7,2.35-3.53,2.35-1.09,0-2.66-.06-3.95-.14-.11-.84-.22-1.34-.53-2.18,1.9.22,3.28.34,4.37.34,1.2,0,1.43-.11,1.43-.67v-8.18h-17.84v8.26ZM820.94,557.37h-7.62v8.26h7.62v-8.26ZM831.16,565.63v-8.26h-8.06v8.26h8.06Z"/><path class="cls-1" d="M849.61,555.5l-10.08,25.87h-2.49l10.11-25.87h2.46Z"/><path class="cls-1" d="M857.68,570.03c-.25,1.51-.59,2.8-1.06,4.03-.73,1.93-1.57,3.28-3.14,5.04-.53-.73-1.01-1.2-1.82-1.79,1.71-1.68,2.58-3.08,3.25-5.32.78-2.66,1.09-6.02,1.09-12.52,0-2.41-.03-3.64-.14-4.65,1.04.11,1.79.14,3.02.14h10.86c1.32,0,2.04-.03,3-.14-.08.81-.11,1.43-.11,2.97v18.26c0,1.2-.25,1.85-.84,2.24-.53.31-1.18.42-2.77.42-.81,0-1.68-.03-3.08-.11-.11-.9-.25-1.4-.56-2.27,1.43.22,2.72.31,3.92.31.95,0,1.15-.14,1.15-.81v-5.8h-12.77ZM870.45,567.98v-4.62h-12.26c0,1.15-.08,2.44-.25,4.62h12.52ZM870.45,561.32v-4.31h-12.24v4.31h12.24Z"/><path class="cls-1" d="M887.05,579.41c-1.65-1.96-2.41-3.11-3.25-4.9-1.2-2.58-1.79-5.21-1.79-8.06s.59-5.49,1.79-8.06c.84-1.79,1.6-2.94,3.25-4.9h2.86c-2.1,2.21-2.97,3.44-3.89,5.38-1.12,2.35-1.65,4.84-1.65,7.59s.53,5.24,1.65,7.59c.92,1.93,1.79,3.16,3.89,5.38h-2.86Z"/><path class="cls-1" d="M897.38,557.18c-1.15.28-1.71.36-3.3.64-.17-.62-.36-1.09-.84-1.79,3.95-.53,6.86-1.4,8.34-2.46l1.26,1.74c-.25.11-.36.17-.73.31-1.01.45-1.65.7-2.69,1.04v4.28h1.2c.9,0,1.37-.03,1.93-.11v2.07c-.56-.08-1.09-.11-1.93-.11h-1.09c.28.73.62,1.43,1.23,2.49.53.98,1.01,1.6,2.02,2.66-.45.59-.67.98-1.06,1.85-1.18-1.57-1.68-2.46-2.46-4.51.11,1.34.17,2.88.17,3.89v6.75c0,1.57.03,2.52.17,3.3h-2.38c.11-.95.17-1.79.17-3.3v-6.19c0-.87.08-2.97.14-4.2-.87,3.08-2.07,5.43-4,7.81-.36-.87-.64-1.34-1.15-1.99,2.13-2.38,3.86-5.57,4.7-8.57h-1.74c-1.12,0-1.68.03-2.32.14v-2.13c.67.11,1.2.14,2.32.14h2.04v-3.75ZM911.07,559.3c1.2-2.13,1.71-3.28,2.44-5.54l2.18.76c-.98,2.18-1.54,3.28-2.49,4.79h1.46c.98,0,1.51-.03,2.3-.11-.08.56-.11,1.06-.11,1.88v4.7c0,.78.03,1.34.11,2.04-.67-.08-1.37-.11-2.3-.11h-1.6v8.46c0,.64.2.73,1.71.73.98,0,1.37-.14,1.57-.53.22-.5.34-1.6.39-3.7.76.53,1.26.76,1.93.92-.25,3.08-.5,4.09-1.18,4.68-.53.45-1.34.59-3.44.59-2.46,0-3.05-.42-3.05-2.16v-8.99h-2.38c-.14,2.74-.45,4.45-1.18,6.19-1.04,2.49-2.52,4.06-5.12,5.43-.45-.73-.84-1.15-1.54-1.74,2.41-1.12,3.78-2.41,4.68-4.4.7-1.48,1.04-3.28,1.06-5.49h-.87c-.9,0-1.43.03-2.16.11.06-.7.08-1.32.08-2.07v-4.59c0-.64-.03-1.26-.08-1.96.78.08,1.26.11,2.18.11h5.4ZM906.85,559.08c-.7-1.79-1.34-3-2.44-4.4l1.93-.9c1.18,1.71,1.85,2.91,2.46,4.42l-1.96.87ZM905.56,565.83h9.27v-4.65h-9.27v4.65Z"/><path class="cls-1" d="M921.52,564.46c.67.11,1.12.14,2.21.14h1.88c.84,0,1.46-.03,2.16-.14-.11.92-.14,1.57-.14,2.97v5.57c.56,1.23.95,1.62,2.16,2.3,1.32.76,2.88.95,7.2.95s7.76-.17,10.39-.56c-.39.98-.56,1.57-.7,2.44-2.52.11-6.05.2-8.12.2-4.68,0-6.72-.14-8.12-.56-1.71-.53-2.83-1.37-3.95-3.02-.92.92-1.76,1.68-2.91,2.55q-.73.56-1.48,1.23l-1.06-2.27c1.23-.53,3.25-1.96,4.51-3.19v-6.52h-1.99c-.9,0-1.34.03-2.02.14v-2.21ZM923.93,554.32c1.88,1.71,3.28,3.22,4.68,5.04l-1.68,1.57c-1.71-2.41-2.52-3.33-4.54-5.21l1.54-1.4ZM933.19,556.95c-.95,0-1.65.03-2.27.14v-2.18c.62.11,1.2.14,2.3.14h3.16c.95,0,1.57-.03,2.1-.11-.08.5-.11.98-.11,1.48,0,3,.76,6.02,2.24,8.88.87,1.65,1.9,3.16,3.08,4.4.92.98,1.6,1.51,3.02,2.49-.59.62-.98,1.18-1.43,1.99-2.04-1.48-3.3-2.8-4.9-5.1-1.51-2.18-2.21-3.89-3.02-7.34-.42,2.27-.67,3.22-1.32,4.65-.84,1.93-2.02,3.75-3.42,5.26-.62.67-1.12,1.12-2.27,2.07-.5-.67-.81-1.01-1.6-1.68,1.6-1.15,2.46-2.02,3.64-3.58,2.38-3.16,3.58-6.83,3.75-11.51h-2.97Z"/><path class="cls-1" d="M949.6,579.41c2.1-2.21,2.97-3.44,3.89-5.38,1.12-2.35,1.65-4.79,1.65-7.59s-.53-5.24-1.65-7.59c-.92-1.93-1.79-3.16-3.89-5.38h2.88c1.62,1.96,2.38,3.11,3.22,4.9,1.2,2.58,1.79,5.18,1.79,8.06s-.59,5.49-1.79,8.06c-.84,1.79-1.6,2.94-3.22,4.9h-2.88Z"/><path class="cls-1" d="M634.05,486.76h9.57v2.16h-7.02v4.51h5.94v2.16h-5.94v5.24h7.26v2.16h-9.81v-16.22Z"/><path class="cls-1" d="M651.58,486.76h2.95l5.37,16.22h-2.71l-1.36-4.62h-5.63l-1.39,4.62h-2.6l5.37-16.22ZM650.79,496.35h4.42l-.64-2.18c-.55-1.76-1.03-3.57-1.52-5.39h-.11c-.46,1.85-.97,3.63-1.5,5.39l-.66,2.18Z"/><path class="cls-1" d="M666.24,486.76h2.95l5.37,16.22h-2.71l-1.36-4.62h-5.63l-1.39,4.62h-2.6l5.37-16.22ZM665.44,496.35h4.42l-.64-2.18c-.55-1.76-1.03-3.57-1.52-5.39h-.11c-.46,1.85-.97,3.63-1.5,5.39l-.66,2.18Z"/><path class="cls-1" d="M692.06,496.02v1.65h3.92v1.76h-3.92v3.04c0,1.08-.26,1.63-1.08,1.91-.81.31-2.02.33-3.76.33-.11-.57-.46-1.41-.75-1.91,1.32.04,2.62.04,2.99.02.4-.02.48-.09.48-.4v-2.99h-7.55c1.23.86,2.6,2.05,3.23,2.97l-1.58,1.3c-.66-1.01-2.18-2.4-3.5-3.37l1.19-.9h-4.25v-1.76h12.45v-1.65h-13.18v-1.74h8.8v-1.67h-6.62v-1.69h6.62v-1.32h.53c-.31-.22-.62-.42-.86-.55.4-.33.77-.68,1.1-1.1h-3.59c.29.62.57,1.25.7,1.72l-1.76.68c-.18-.62-.57-1.58-.97-2.4h-.62c-.64.99-1.36,1.91-2.07,2.62-.37-.33-1.21-.9-1.69-1.17,1.39-1.21,2.66-3.12,3.39-4.99l1.96.51c-.18.46-.4.9-.62,1.34h5.33v1.63c.84-1.01,1.56-2.22,1.98-3.48l1.98.46c-.18.48-.37.92-.59,1.39h6.65v1.69h-4.2c.42.62.81,1.23,1.03,1.74l-1.76.73c-.26-.64-.88-1.65-1.47-2.46h-1.21c-.4.62-.81,1.14-1.25,1.65h.13v1.32h6.86v1.69h-6.86v1.67h8.91v1.74h-4.53Z"/><path class="cls-1" d="M710.68,495.58v7.02h-1.85v-7.02h-7v-1.83h7v-7h1.85v7h7v1.83h-7Z"/><path class="cls-1" d="M724.91,501.06l-1.89-1.3c1.45-1.36,3.28-3.89,4.16-5.72l1.96.95c-.97,1.91-2.99,4.75-4.22,6.07ZM733.95,487.57v2.02h5.52c.57,0,1.39-.04,1.96-.13v2.29c-.64-.04-1.39-.04-1.94-.04h-5.54v10.47c0,1.19-.62,1.87-2.07,1.87-1.03,0-2.33-.04-3.32-.15l-.2-2.18c.95.18,1.94.24,2.51.24s.81-.22.84-.81v-9.44h-5.87c-.68,0-1.39.02-1.98.07v-2.31c.62.07,1.28.13,1.96.13h5.9v-2.05c0-.53-.09-1.36-.18-1.72h2.6c-.07.31-.18,1.23-.18,1.74ZM742.22,499.78l-2.02,1.14c-.9-1.8-2.53-4.51-3.65-5.88l1.89-1.03c1.17,1.41,2.9,4.18,3.78,5.76ZM740.27,488.32l-1.45.64c-.44-.9-1.1-2.11-1.69-2.95l1.43-.59c.55.79,1.28,2.05,1.72,2.9ZM743.02,487.68l-1.43.62c-.46-.95-1.12-2.09-1.74-2.93l1.41-.59c.57.81,1.36,2.09,1.76,2.9Z"/><path class="cls-1" d="M747.24,492.34h14.41c.46,0,1.28-.02,1.85-.11v2.27c-.53-.02-1.28-.04-1.85-.04h-5.68c-.09,2.33-.53,4.27-1.36,5.85-.79,1.5-2.46,3.12-4.38,4.11l-2.02-1.5c1.63-.66,3.21-1.94,4.07-3.28.95-1.47,1.23-3.21,1.32-5.19h-6.36c-.66,0-1.39.02-2,.07v-2.29c.62.07,1.32.11,2,.11ZM749.97,486.8h7.44c.68,0,1.52-.04,2.2-.13v2.27c-.7-.04-1.5-.09-2.2-.09h-7.42c-.75,0-1.56.04-2.16.09v-2.27c.66.09,1.41.13,2.13.13ZM762.6,488.01l-1.45.62c-.44-.88-1.14-2.2-1.74-3.04l1.41-.59c.55.79,1.34,2.16,1.78,3.01ZM765.13,487.04l-1.43.64c-.46-.95-1.19-2.2-1.8-3.04l1.41-.59c.59.84,1.43,2.2,1.83,2.99Z"/><path class="cls-1" d="M773.29,493.8c2.09-1.3,4.2-3.17,5.35-4.58l1.72,1.67c-1.1,1.17-2.99,2.75-4.95,4.05v7.72c0,.7.02,1.74.11,2.11h-2.55c.04-.37.09-1.41.09-2.11v-6.34c-1.89.99-4.42,2.07-6.62,2.77l-1.06-2.07c2.88-.66,6.14-2.16,7.92-3.24Z"/><path class="cls-1" d="M798.5,488.67c-.7,1.83-1.76,4.18-3.17,6.25,1.96,1.61,3.85,3.32,5.37,4.97l-1.76,1.94c-1.58-1.83-3.23-3.39-5.06-4.97-2,2.44-4.64,4.95-8.43,6.98l-1.94-1.74c3.74-1.78,6.4-4.07,8.56-6.73-1.61-1.3-3.89-2.99-6.07-4.33l1.45-1.76c1.85,1.17,4.29,2.86,6.05,4.2,1.3-1.91,2.11-3.87,2.75-5.68.18-.48.37-1.28.48-1.8l2.55.9c-.24.44-.62,1.3-.79,1.78Z"/><path class="cls-1" d="M813.2,490.72c2.29-1.41,4.62-3.45,6.12-5.24l1.85,1.76c-1.67,1.69-3.74,3.39-5.92,4.82v9.13c0,.9.04,2.11.15,2.6h-2.73c.07-.48.13-1.69.13-2.6v-7.66c-2.31,1.25-5.21,2.53-8.12,3.41l-1.08-2.18c3.85-1.03,7.15-2.53,9.59-4.05Z"/><path class="cls-1" d="M833.17,487.81c-.09.18-.2.37-.31.55h5.28c.62,0,1.23-.07,1.65-.22l1.8,1.1c-.22.35-.46.9-.62,1.34-.59,2.11-1.89,5.06-3.87,7.48-2.02,2.51-4.69,4.51-8.8,6.09l-2.05-1.83c4.25-1.28,6.87-3.21,8.82-5.5,1.63-1.87,2.95-4.64,3.34-6.49h-6.87c-1.41,1.89-3.28,3.85-5.59,5.39l-1.94-1.45c3.83-2.29,5.88-5.35,6.91-7.28.26-.44.64-1.34.81-1.98l2.55.84c-.44.66-.9,1.52-1.14,1.96Z"/><path class="cls-1" d="M848.71,487.79h10.94c.59,0,1.36-.02,1.76-.04-.02.48-.04,1.28-.04,1.85v11.38c0,.77.04,1.85.09,2.33h-2.51c0-.31.02-.73.02-1.19h-10.43c-.9,0-2,.04-2.64.09v-2.49c.64.04,1.61.11,2.55.11h10.54v-9.81h-10.28c-.86,0-1.98.04-2.55.09v-2.44c.77.07,1.83.13,2.55.13Z"/><path class="cls-1" d="M870.9,493.29h11.97c1.06,0,1.91-.09,2.46-.13v2.73c-.48-.02-1.5-.11-2.46-.11h-11.97c-1.21,0-2.53.04-3.28.11v-2.73c.73.04,2.09.13,3.28.13Z"/><path class="cls-1" d="M903.51,489.31c-.77,1.8-2.07,4.29-3.61,6.27,2.27,1.94,4.93,4.77,6.29,6.45l-1.94,1.72c-1.45-1.98-3.65-4.4-5.83-6.43-2.35,2.51-5.33,4.86-8.47,6.34l-1.78-1.87c3.56-1.36,6.87-4,9.04-6.45,1.5-1.67,2.97-4.09,3.5-5.81h-8.08c-.86,0-2.05.11-2.4.13v-2.49c.44.07,1.72.15,2.4.15h8.16c.81,0,1.54-.09,1.91-.22l1.43,1.06c-.15.22-.48.77-.64,1.14Z"/><path class="cls-1" d="M52.36,579.47c2.42-.77,3.71-1.81,4.9-4.03.67-1.19,1.19-3.3,2.17-8.88l3.46-20.44h9.08l-3.92,23.22c-2.38,13.31-6.61,18.63-15.69,19.92v-9.8ZM89.36,546.13c.36,1.29.72,2.43,1.03,3.61l2.27,8.1c2.79,10.53,3.82,15.58,6.09,30.86h-9.75c-1.96-16.1-4.64-29.72-8.46-42.57h8.82ZM95.45,542.47v7.9h-4.49v-7.9h4.49ZM101.23,542.47v7.9h-4.59v-7.9h4.59Z"/><path class="cls-1" d="M121.92,544.69v22.45c.21,13.11-5.37,21.11-15.69,22.45v-9.8c5.01-1.5,6.61-4.28,6.92-11.82v-23.27h8.77ZM127.6,544.69h8.93v34.01c7.17-.36,8.1-1.65,8.21-11.71v-12.08h8.67v13.31c0,8.67-1.03,12.54-4.18,15.53-3.3,3.04-7.07,4.18-13.83,4.23h-7.79v-43.3Z"/><path class="cls-1" d="M162.53,561.51c5.78-1.13,8.15-5.73,8.26-16h34.73v20.59c-.1,7.48-1.13,11.51-3.92,15.22-3.61,4.8-8.36,6.86-16,7.02h-21.16v-8.46h17.75c10.37.05,13.78-3.25,14.04-13.52v-12.02h-17.55c-1.29,9.8-6.35,14.86-16.15,16.1v-8.93Z"/><path class="cls-1" d="M217.12,545.61h42.16v11.35c.15,8.57-4.75,13.37-13.98,13.57h-3.72c-.21,7.84-.93,10.53-3.56,13.83-2.73,3.25-6.66,4.95-11.25,4.9h-9.6v-8.36h6.55c6.92.05,8.62-1.7,8.62-8.93v-9.75h12.54c4.03-.15,5.52-1.65,5.57-5.57v-2.27h-33.34v-8.77Z"/><path class="cls-1" d="M277.55,551.24c1.96,7.17,2.94,11.2,4.39,17.91h-8.88c-.98-6.4-2.06-11.92-3.66-17.91h8.15ZM310.27,550.98v14.97c.46,15.58-5.78,22.76-19.56,22.55h-19.2v-7.84h19.2c8.36-.31,11.4-4.13,11.1-13.83v-15.84h8.46ZM291.17,551.24c1.86,6.45,3.46,13,4.39,17.91h-8.82c-1.39-7.69-2.12-10.94-3.92-17.91h8.36Z"/><path class="cls-1" d="M322.44,547.83h32.92c.05,5.11,2.73,7.95,7.64,8.21v10.06c-.1,15.79-7.59,23.02-24.1,23.07h-14.45v-8.52h13.01c12.07,0,16.31-4.54,16.2-17.29v-6.92h-31.22v-8.62ZM368.79,548.56c0,3.35-2.74,6.09-6.09,6.09s-6.09-2.74-6.09-6.09,2.79-6.04,6.19-6.04,5.99,2.79,5.99,6.04ZM360.32,548.56c0,1.29,1.08,2.37,2.32,2.37,1.34,0,2.37-1.03,2.37-2.37s-1.08-2.32-2.37-2.32-2.32,1.08-2.32,2.32Z"/><path class="cls-1" d="M374.86,581.34h22.6v-12.56c0-2.45-.67-3.23-2.73-3.23h-19.65v-6.17h21.04c4.61-.14,7.59,2.59,7.56,6.95v21.04h-28.81v-6.03Z"/><path class="cls-1" d="M441.13,569.89v6.03h-29.06v-6.03h29.06Z"/><path class="cls-1" d="M450.6,564.28v-5.85h25.65c-1.92,6.17-3.51,10.22-5.75,14.47,3.94,5.5,6.53,9.83,9.15,15.22h-7.7c-1.56-3.72-2.66-5.82-4.75-9.19-3.37,6.1-8.05,9.15-14.58,9.58h-4.47v-6h2.23c5.39.04,8.16-1.31,10.79-5.25,1.74-2.45,4.47-8.12,6.24-12.98h-16.82Z"/><path class="cls-1" d="M17.45,30.8v1.7h-4.41V2.01h24.49v30.49h-4.27v-1.7h-15.82ZM33.27,10.2v-4.27h-15.82v4.27h15.82ZM33.27,18.45v-4.37h-15.82v4.37h15.82ZM33.27,26.98v-4.58h-15.82v4.58h15.82Z"/><path class="cls-1" d="M52.54,32.57h-3.92v-10.41c-1.01,3.02-1.46,3.85-1.84,4.58-1.18-1.01-2.12-1.56-3.64-2.36,3.05-4.4,4.82-10.89,5.41-13.28h-4.27v-3.61h4.33V.8l4.13.24c.38.04.62.21.62.45,0,.35-.28.49-.83.69v5.31h3.29v3.61h-3.29v.31c1.84,4.54,3.47,6.83,4.51,8.12-1.28.97-2.84,2.71-3.16,3.09-.42-.83-.73-1.42-1.35-3.19v13.14ZM62.53,25.77c.17.1.45.28.45.55s-.31.49-.87.42c-1.67,2.29-2.81,3.57-4.89,5.51-.94-.83-2.25-1.77-3.36-2.43,1.77-1.25,4.09-3.68,5.38-5.69l3.29,1.63ZM69.98,6.76h5.34v8.12h-18.56V6.76h5.03v-2.01h-5.97V1.67h20.22v3.09h-6.07v2.01ZM71.4,24.07h-3.19v5.31c0,1.18-.21,3.26-4.51,3.26-.52,0-.87-.03-1.35-.07-.28-2.15-1.01-3.4-1.35-3.99,1.21.24,1.94.31,2.32.31.69,0,.87-.21.87-1.07v-3.75h-8.01v-3.12h19.67v3.12h-3.95c2.19,1.98,3.92,4.23,5.13,5.86-1.42.69-3.05,1.98-3.26,2.15-1.73-2.81-4.54-5.55-5.06-6.07l2.71-1.94ZM73.94,19.35h-15.95v-2.88h15.95v2.88ZM61.9,12.07v-2.6h-1.87v2.6h1.87ZM66.9,4.75h-2.01v2.01h2.01v-2.01ZM64.88,9.47v2.6h2.12v-2.6h-2.12ZM69.98,9.47v2.6h2.05v-2.6h-2.05Z"/><path class="cls-1" d="M89.45,14.01v11.51c0,3.19,5.03,3.19,8.19,3.19,8.88,0,11.34-.14,15.95-.59-.9,1.53-1.25,2.36-1.35,4.06h-16.02c-5.83,0-7.28-1.32-9.02-3.09-.94.83-2.64,2.01-3.82,2.6.04.1.07.24.07.38,0,.42-.24.66-.52.66-.24,0-.45-.24-.59-.52l-2.08-3.92c1.77-.56,3.36-1.32,4.82-2.43v-8.08h-3.71v-3.78h8.08ZM84.07,1.11c1.8,1.25,4.96,4.16,5.72,5.03-.49.42-2.01,1.94-2.98,2.91-.69-.8-2.74-3.09-5.55-5.2l2.81-2.74ZM103.5,17.69h6.28v2.95h-6.28v1.7h8.91v2.95h-8.91v2.64h-4.23v-2.64h-8.08v-2.95h8.08v-1.7h-6.1v-2.95h6.1v-1.67h-7.14v-3.02h3.4c-.28-.59-.56-1.14-1.01-1.87l2.15-.52h-5.9v-3.02h8.5v-1.67h-7.04v-3.02h7.04V.62l4.54.24c.42.03.69.1.69.42s-.28.49-1.01.76v.87h7.28v3.02h-7.28v1.67h9.19v3.02h-4.75c.62.07.87.21.87.42,0,.35-.38.38-.73.45-.14.24-.66,1.32-.76,1.53h3.57v3.02h-7.39v1.67ZM103.25,13.01c.66-1.42.76-1.63,1.08-2.39h-5.69c.73,1.46.8,1.67.94,1.98l-1.49.42h5.17Z"/><path class="cls-1" d="M142.76.83c.56.49,2.22,1.87,3.88,4.13-.49.31-.94.62-2.15,1.63h4.86v3.99h-11.17c.42,4.65,1.35,7.46,1.7,8.5,1.25-2.19,2.12-4.23,3.16-7.21l4.23,1.8c.21.07.42.31.42.55,0,.31-.24.35-1.04.49-2.77,5.69-3.23,6.66-4.75,8.81.69,1.14,2.32,3.85,3.29,3.85.83,0,1.42-3.36,1.49-3.75,1.63,1.53,2.46,1.98,3.57,2.36-.69,3.19-1.94,4.92-2.15,5.24-.83,1.14-1.94,1.14-2.29,1.14-2.78,0-5.65-4.06-6.59-5.38-2.95,3.43-5.62,5.03-6.66,5.65-.94-1.28-1.73-2.08-3.36-2.91,3.5-1.77,5.96-4.09,7.87-6.52-1.91-4.16-2.67-7.94-3.23-12.62h-8.95c0,1.11,0,2.19-.04,3.64h7.7c0,4.79-.21,7.46-.59,9.99-.28,1.67-.83,4.3-5.55,4.3-.28,0-.52-.04-1.07-.07-.21-1.08-1.14-3.33-1.46-3.88-1.08,4.68-2.46,6.73-2.98,7.49-1.46-.97-3.05-1.46-4.09-1.66,3.54-4.89,3.61-10.86,3.61-18.24v-5.55h13.08c-.1-2.84-.14-3.95-.17-5.58l4.51.28c.38.04.76.04.76.42,0,.42-.62.62-.9.69.04,2.22.1,3.33.17,4.2h4.82c-.28-.35-1.91-2.36-3.09-3.43l3.16-2.32ZM124.72,18.07c-.17,2.53-.42,4.54-.8,6.35.56.07,1.46.28,2.29.28s1.39-.14,1.7-1.11c.24-.66.52-2.53.55-5.51h-3.75Z"/><path class="cls-1" d="M169.74,1.42c.24.07.69.14.69.55,0,.31-.38.52-.83.56-.38.83-.62,1.32-1.04,2.15,4.92-.69,6.69-1.32,7.84-1.73l.03,4.44c-3.29.59-6.76,1.18-10.13,1.49-.42.76-1.21,2.05-1.8,3.09,1.46-.8,2.98-.8,3.29-.8.55,0,3.71.07,5.24,3.19,2.46-1.11,5.9-2.67,7.35-3.43l1.73,4.72c-3.05.94-5.69,1.8-8.19,2.84.1,1.35.14,2.57.14,3.47,0,1.53-.07,2.57-.1,3.43-.24,0-3.05-.1-4.65,0,.17-1.77.17-2.08.17-4.79-3.78,2.05-5.2,3.57-5.2,5.06s1.77,2.12,5.86,2.12c1.25,0,5.31,0,10.89-1.56-.45,1.8-.56,3.43-.56,4.75-4.3.94-8.6.94-9.64.94-1.94,0-11.03,0-11.03-5.93,0-4.82,7.14-8.57,9.26-9.68-.31-.83-1.01-1.87-2.84-1.87-2.71,0-5.27,2.05-8.57,7.46l-4.13-2.43c1.49-1.53,5.03-5.9,7.63-10.2-1.7.07-2.74.1-5.55.07v-4.34c.8.07,2.88.28,5.58.28,1.25,0,1.77-.03,2.12-.07.21-.42,1.35-2.71,1.98-4.72l4.44.94Z"/><path class="cls-1" d="M205.18,32.78h-4.34v-9.61c-4.65,5.24-8.98,7.7-10.54,8.6-.83-1.21-2.05-2.43-3.26-3.33,4.34-1.8,8.01-3.99,11.97-8.67h-9.4v-3.71h-2.05V7.63h5.51c-.31-.49-1.49-2.43-3.05-4.3l3.82-2.15c1.11,1.21,2.81,3.61,3.64,5.27-.45.24-1.21.62-2.05,1.18h6.1c-.87-2.5-2.29-4.72-2.98-5.79l4.02-1.56c1.28,1.77,2.36,3.92,3.16,6.07-1.28.56-1.84.83-2.71,1.28h3.99c2.95-3.85,3.78-5.83,4.34-7.14l4.3,2.15c.14.07.24.21.24.38,0,.42-.31.42-1.08.38-1.04,1.87-2.18,3.5-2.71,4.23h6.38v8.43h-2.05v3.71h-9.4c2.46,3.43,6.9,6.42,11.97,8.71-1.46.9-2.95,2.95-3.09,3.16-4.16-2.12-7.91-5.06-10.75-8.77v9.92ZM214.23,16.06v-4.68h-22.41v4.68h9.02v-3.78l4.75.21c.28,0,.45.14.45.38,0,.31-.07.38-.87.8v2.39h9.05Z"/><path class="cls-1" d="M248.3,25.63c1.21-1.32,1.56-1.77,2.01-2.43l2.95,1.94c.17.14.38.31.38.49,0,.38-.45.31-.76.28-.56.62-1.28,1.46-3.29,3.16,1.32.38,2.67.55,4.06.55.73,0,1.11-.03,1.56-.14-.97,1.28-1.32,2.01-1.7,3.61-2.67-.24-8.29-.83-13.49-5.1-.17.83-.31,1.67-.24,2.53-1.28.28-10.96,1.84-14.01,2.01-.31.55-.38.66-.62.66-.35,0-.49-.38-.52-.62l-.69-3.54c1.84-.04,4.13-.21,5.97-.42v-9.36c-.42.21-2.36,1.28-5.03,2.15-.42-.83-1.35-2.12-2.32-2.91,3.57-1.08,7.11-2.57,9.23-4.79h-8.53v-2.84h13.56v-1.49h-10.33v-2.18h10.33v-1.35h-12.8v-2.74h7.8c-.8-.83-1.11-1.18-1.87-1.77l3.85-1.18c.76.59,1.56,1.28,2.71,2.5-.49.17-.66.21-1.39.45h6.66c.76-1.53,1.04-2.36,1.18-2.81l4.33.87c.17.04.49.07.49.42,0,.38-.59.49-.9.52-.31.55-.42.73-.59,1.01h7.56v2.74h-12.83v1.35h10.27v2.18h-10.27v1.49h13.67v2.84h-7.46c.97.76,3.75,2.84,8.46,4.06-.97,1.08-1.67,2.08-2.22,3.36-1.73-.66-3.36-1.49-5.13-2.5v7.01ZM245.39,16.72c-.87-.66-1.77-1.32-3.54-3.02h-5.1c-.69.87-1.6,1.77-3.05,3.02h3.29v-2.12l3.78.14c.35,0,.66.04.66.35,0,.21-.14.28-.45.49v1.15h4.4ZM233.77,20.43h10.54v-1.21h-10.54v1.21ZM244.31,22.47h-10.54v1.32h10.54v-1.32ZM233.77,26.32v1.91c1.35-.14,4.2-.52,5.69-.76-.62-.55-.9-.83-1.18-1.14h-4.51ZM243.69,26.32c.45.35,1.21.9,2.32,1.49.38-.35.8-.69,1.59-1.49h-3.92Z"/><path class="cls-1" d="M289.49,6.62c-8.67-.03-16.37,7.08-16.37,13.42,0,4.06,2.84,6.69,10.2,7.25-1.35,2.53-1.87,4.16-2.19,5.24-5.27-1.18-12.66-4.2-12.66-12.07,0-4.65,2.64-8.64,7.28-12.21-2.22.14-12.45,1.32-15.82,2.18l-.66-5.58c.66.07,1.32.1,2.25.1,2.36,0,16.82-.59,27.05-3.29l.9,4.96ZM283.69,12.21c.49.56,2.22,2.57,3.02,3.75-.87.62-2.12,1.8-2.32,2.01-1.18-1.73-1.77-2.53-2.95-3.85l2.25-1.91ZM287.02,9.64c.97.83,2.46,2.67,3.16,3.68-.76.52-1.6,1.32-2.25,1.98-1.08-1.63-1.73-2.46-3.05-3.92l2.15-1.73Z"/><path class="cls-1" d="M313.6,1.49l4.93.28c.31.04.55.1.55.35,0,.38-.38.56-.55.62v5.9h6.31v4.58h-6.31c0,7.28-1.77,10.13-2.64,11.58-2.08,3.43-5.24,6.1-8.98,7.6-.87-1.42-2.01-2.53-3.61-3.68,5.79-2.01,8.15-5.65,8.88-7.14,1.21-2.5,1.35-5.31,1.42-8.36h-7.18v8.19h-4.75v-8.19h-6.73v-4.58h6.73V1.7l4.58.28c.31.04.73.04.73.42,0,.24-.24.38-.55.55v5.69h7.18V1.49Z"/><path class="cls-1" d="M340.04,18c.24.14.45.35.45.55,0,.38-.45.38-.9.35-2.64,4.16-3.81,5.62-7.18,9.05-1.11-1.01-2.53-2.08-3.99-2.95,3.75-2.88,6.07-6.28,7.6-9.36l4.02,2.36ZM342.23,1.63l4.61.17c.38,0,.76.03.76.42,0,.28-.28.38-.59.52v6.31h11.65v4.23h-11.65v13.11c0,2.39,0,5.24-5.58,5.24-.62,0-1.67-.07-2.36-.14-.1-.76-.24-2.05-1.49-4.65.9.14,2.22.31,3.16.31,1.49,0,1.49-.52,1.49-2.71v-11.17h-11.69v-4.23h11.69V1.63ZM353.05,15.43c2.77,2.6,6.14,7.01,7.14,8.88-1.18.9-2.84,2.46-3.57,3.16-1.67-3.05-4.93-7.25-7.04-9.29l3.47-2.74ZM360.23,3.23c0,1.8-1.46,3.19-3.23,3.19s-3.19-1.39-3.19-3.19,1.46-3.23,3.19-3.23,3.23,1.39,3.23,3.23ZM355.41,3.23c0,.9.73,1.6,1.59,1.6s1.63-.69,1.63-1.6-.76-1.63-1.63-1.63-1.59.69-1.59,1.63Z"/><path class="cls-1" d="M394.31,14.39v4.92h-29.93v-4.92h29.93Z"/><path class="cls-1" d="M411.56,10.58c4.86,2.43,9.61,5.51,12.52,8.39-1.35,1.42-1.84,2.01-3.33,3.78-4.23-4.06-8.53-6.49-10.96-7.77v16.92h-4.92V1.49l4.92.28c.35.04.66.07.66.38,0,.38-.45.49-.66.52v10.4l1.77-2.5Z"/><path class="cls-1" d="M440.93,24.56v5.45h-5.27v-5.45h5.27ZM440.75,2.67v8.46l-1.04,10.23h-2.81l-1.08-10.23V2.67h4.92Z"/><path class="cls-1" d="M458.7,30.8v1.7h-4.41V2.01h24.49v30.49h-4.27v-1.7h-15.82ZM474.52,10.2v-4.27h-15.82v4.27h15.82ZM474.52,18.45v-4.37h-15.82v4.37h15.82ZM474.52,26.98v-4.58h-15.82v4.58h15.82Z"/><path class="cls-1" d="M493.79,32.57h-3.92v-10.41c-1.01,3.02-1.46,3.85-1.84,4.58-1.18-1.01-2.12-1.56-3.64-2.36,3.05-4.4,4.82-10.89,5.41-13.28h-4.27v-3.61h4.33V.8l4.13.24c.38.04.62.21.62.45,0,.35-.28.49-.83.69v5.31h3.29v3.61h-3.29v.31c1.84,4.54,3.47,6.83,4.51,8.12-1.28.97-2.84,2.71-3.16,3.09-.42-.83-.73-1.42-1.35-3.19v13.14ZM503.78,25.77c.17.1.45.28.45.55s-.31.49-.87.42c-1.67,2.29-2.81,3.57-4.89,5.51-.94-.83-2.25-1.77-3.36-2.43,1.77-1.25,4.09-3.68,5.38-5.69l3.29,1.63ZM511.23,6.76h5.34v8.12h-18.56V6.76h5.03v-2.01h-5.97V1.67h20.22v3.09h-6.07v2.01ZM512.66,24.07h-3.19v5.31c0,1.18-.21,3.26-4.51,3.26-.52,0-.87-.03-1.35-.07-.28-2.15-1.01-3.4-1.35-3.99,1.21.24,1.94.31,2.32.31.69,0,.87-.21.87-1.07v-3.75h-8.01v-3.12h19.67v3.12h-3.95c2.19,1.98,3.92,4.23,5.13,5.86-1.42.69-3.05,1.98-3.26,2.15-1.73-2.81-4.54-5.55-5.06-6.07l2.71-1.94ZM515.19,19.35h-15.95v-2.88h15.95v2.88ZM503.15,12.07v-2.6h-1.87v2.6h1.87ZM508.15,4.75h-2.01v2.01h2.01v-2.01ZM506.14,9.47v2.6h2.12v-2.6h-2.12ZM511.23,9.47v2.6h2.05v-2.6h-2.05Z"/><path class="cls-1" d="M529.77,3.36c.52.21.8.28.8.59,0,.35-.35.42-.87.49-.59,1.8-2.29,6.83-2.29,14.39,0,2.01.14,2.71.31,3.82.1-.28,1.14-2.64,1.7-3.61.62.97,1.35,1.77,2.36,2.46-.45.9-2.53,5.31-2.36,8.71l-4.16,1.18c-1.11-3.05-2.32-6.83-2.32-13.46s1.04-11.1,2.18-16.3l4.65,1.73ZM538.85,19.56c-.66,1.49-.87,2.46-.87,2.98,0,1.73,1.59,2.08,5.34,2.08,2.46,0,5.58-.14,8.74-.94-.49,2.19-.45,4.16-.42,4.82-2.12.31-5.86.49-8.05.49-6.94,0-9.85-1.56-9.85-4.99,0-.73.07-2.6,1.25-5.17l3.85.73ZM535.11,5.31c.97.07,2.18.17,4.13.17,3.23,0,6.87-.17,10.51-1.11.21,3.19.35,3.88.45,4.51-3.57.73-7.25,1.01-10.89,1.01-1.91,0-3.16-.07-4.2-.14v-4.44Z"/><path class="cls-1" d="M578.29,15.16h-15.71v-2.08c-2.39,1.91-4.3,3.05-6.07,3.99-.94-1.6-1.42-2.12-3.05-3.68,9.4-3.88,13.32-10.68,14.5-12.73l5.1.38c.21,0,.69.04.69.42,0,.24-.35.45-.73.66,2.22,3.64,9.05,8.64,14.5,10.68-1.11,1.01-2.25,2.39-2.81,3.78-1.63-.8-3.33-1.73-6.42-3.92v2.5ZM564.04,30.9v1.67h-4.27v-14.64h21.26v14.64h-4.3v-1.67h-12.69ZM576.73,27.09v-5.38h-12.69v5.38h12.69ZM576.56,11.41c-2.91-2.22-4.27-3.61-6.28-6.14-2.32,2.84-3.16,3.85-5.72,6.14h12Z"/><path class="cls-1" d="M605.82,8.36c-.07.07-1.25,1.46-1.8,2.64,3.23-2.12,5.93-2.5,7.77-2.5,3.82,0,9.75,2.08,9.75,9.85,0,10.51-10.65,12.07-13.25,12.45-.73-2.01-1.39-3.02-2.39-4.27,4.72-.31,11.1-1.84,11.1-7.94,0-3.95-2.67-5.9-5.69-5.9-3.95,0-7.53,2.71-9.09,4.06,0,10.92,0,12.14.03,15.12l-4.89.38c.17-2.98.17-3.78.35-10.44-.59.76-3.05,4.3-3.61,4.96l-3.4-3.33c2.95-3.09,5.79-6.83,7.28-9.61v-1.49c-2.25.94-4.41,1.49-5.62,1.84l-.83-4.96c2.91-.21,5.48-.83,6.59-1.14,0-3.29-.03-3.68-.17-7.08l4.54.31c.59.03,1.04.07,1.04.49s-.38.45-.76.52c-.1.8-.17,1.49-.35,4.2.31-.14.52-.24,1.18-.59l2.22,2.43Z"/><path class="cls-1" d="M650.24,2.08c.55.07.73.17.73.45,0,.38-.38.49-.59.55,0,.1.14,5.51.14,6.04,3.92-.56,4.33-.62,6.76-.83v4.86c-.49-.03-.94-.07-1.66-.07-1.7,0-3.75.21-5,.35,0,9.16-1.14,9.85-8.18,9.78-.21-1.49-.97-3.75-1.18-4.37.76.1,1.46.17,2.12.17,2.39,0,2.43-.52,2.71-5-2.6.42-5.27.94-7.91,1.46-.07,1.63-.17,7.63.31,9.23.62,2.01,3.12,2.19,5.45,2.19,1.01,0,5.79,0,11.24-1.42-.35,1.49-.52,2.78-.62,4.86-4.65.76-11.27.83-11.41.83-4.2,0-7.77-.9-8.84-4.82-.52-1.94-.49-4.54-.42-9.99-4.33.9-4.58.97-6.97,1.6l-.42-5.2c2.08-.07,5.17-.55,7.25-.97,0-1.94-.07-6.31-.35-8.22l5.1.62c.49.07.9.1.9.52,0,.35-.52.52-.73.55-.07.94-.28,4.92-.31,5.76,1.91-.31,4.37-.73,7.67-1.21-.07-2.81-.14-5.65-.8-8.43l5.03.73Z"/><path class="cls-1" d="M692.41,6.62c-8.67-.03-16.37,7.08-16.37,13.42,0,4.06,2.84,6.69,10.2,7.25-1.35,2.53-1.87,4.16-2.19,5.24-5.27-1.18-12.66-4.2-12.66-12.07,0-4.65,2.64-8.64,7.28-12.21-2.22.14-12.45,1.32-15.82,2.18l-.66-5.58c.66.07,1.32.1,2.25.1,2.36,0,16.82-.59,27.05-3.29l.9,4.96Z"/><path class="cls-1" d="M714.91,15.57h3.88v-1.63c-.56-.14-.94-.38-1.21-.83-.24-.42-.42-1.01-.42-1.73v-5.55h6.14v-1.53h-6.24V1.46h9.95v7.77h-1.35c1.28.94,2.08,1.18,2.95,1.42-.55,2.05-1.35,3.4-3.88,3.4h-1.67c0,.38-.42.45-.69.49v1.04h5.27v2.88h-5.27v2.05h6.07v2.81h-6.45c1.8,1.32,3.33,2.08,5.41,3.12-1.42,1.01-1.87,1.53-2.32,2.32,2.01-.07,3.09-.17,4.47-.28-.97,1.91-1.14,2.57-1.25,3.68h-17.13c-5.58,0-7.21-1.73-8.71-3.26-1.32,1.21-2.95,2.39-3.36,2.71.03.45.03.97-.45.97-.28,0-.55-.38-.66-.62l-1.77-3.64c1.28-.49,3.57-1.91,4.33-2.53v-7.84h-3.71v-3.75h7.73v10.89c0,.21.45,2.32,2.53,3.12,1.28.49,1.66.66,13.11.66,2.46,0,3.75-.07,4.47-.07-2.67-1.39-4.09-2.32-6.42-4.16l1.46-1.32h-5.83l1.84,1.35c.1.07.35.24.35.45,0,.24-.31.38-.52.38s-.42-.07-.73-.17c-1.63,1.32-4.23,2.57-5.83,3.26-.52-1.08-1.8-2.22-2.71-2.74,2.08-.52,3.92-1.35,5.72-2.53h-6.07v-2.81h5.13v-2.05h-4.4v-2.88h4.4v-1.53h-2.43c-.83,0-2.6,0-2.6-2.53v-5.69h6.07v-1.53h-6.14V1.46h9.5v7.77h-1.42c.69.59,1.28.87,2.84,1.39-.52,1.49-.83,2.36-1.73,3.09.17.07.31.17.31.35,0,.28-.42.42-.59.45v1.07ZM699.72,1.21c2.77,2.46,4.13,4.06,5.2,5.51-1.91,1.63-2.12,1.8-3.12,2.81-.52-.73-2.46-3.43-4.99-5.79l2.91-2.53ZM712.62,11.17c.62,0,1.04-.28,1.32-1.94h-1.8v-.66h-2.57v1.73c0,.87.42.87,1.01.87h2.05ZM718.79,18.45h-3.88v2.05h3.88v-2.05ZM724.06,11.17c1.08,0,1.32-1.21,1.49-1.94h-2.25v-.66h-2.5v1.77c0,.69,0,.83.94.83h2.32Z"/><path class="cls-1" d="M732.06,19.21c.9-.66,3.81-2.78,7.7-8.01,2.91-3.99,3.75-5.1,5.79-5.1,2.25,0,3.02.94,7.53,6.45,2.36,2.88,7.32,8.36,12.52,11.93-1.49,1.56-2.98,3.92-3.33,4.44-4.41-3.71-8.36-7.91-12-12.38-1.32-1.6-3.47-4.23-4.06-4.65-.24-.21-.45-.31-.76-.31-.45,0-.76.14-1.8,1.6-4.34,6.1-4.96,6.97-7.67,9.85l-3.92-3.81ZM758.18,5.31c.97.83,2.67,2.46,3.64,3.54-.55.42-1.73,1.39-2.32,1.94-.76-.87-2.43-2.6-3.54-3.57l2.22-1.91ZM761.44,2.57c.35.28,2.25,1.84,3.68,3.54-.87.59-1.6,1.25-2.25,1.98-1.11-1.35-2.29-2.5-3.64-3.64l2.22-1.87Z"/><path class="cls-1" d="M792.66,4.68c-2.12,1.59-7.87,7.01-9.19,8.43.9-.28,2.36-.76,4.54-.76,5.13,0,9.82,3.02,9.82,8.98,0,7.56-7.35,10.75-13.01,10.75-5.34,0-8.43-2.53-8.43-5.83,0-2.98,2.71-5.2,6.31-5.2,2.64,0,6.59,1.39,7.39,5.48,3.09-1.42,3.09-4.13,3.09-4.82,0-2.01-1.18-5.51-6.24-5.51-6.07,0-9.57,3.64-14.46,8.71l-3.54-3.47c3.71-2.57,13.15-11.9,15.12-14.5-3.02.66-8.29,1.14-10.51,1.32l-.76-4.65c2.6.1,12.17-.1,17.48-2.12l2.39,3.19ZM782.47,24.83c-1.28,0-1.91.76-1.91,1.56,0,1.39,1.91,2.15,3.61,2.15.9,0,1.67-.17,2.08-.28-.31-2.15-1.77-3.43-3.78-3.43Z"/><path class="cls-1" d="M808.71,20.91c.14,1.7.52,5.45,5.93,5.45.83,0,6.28,0,6.28-4.51,0-3.61-3.36-4.47-5.62-4.47h-2.39v-3.61h2.05c2.57,0,5.34-1.25,5.34-3.88,0-3.57-4.13-3.57-5.17-3.57-3.57,0-5.34,1.08-5.55,4.44h-5.41c.14-1.18.35-3.05,1.8-5.03,2.46-3.29,6.8-3.82,9.3-3.82,5.76,0,10.33,2.5,10.33,7.39,0,4.27-3.23,5.41-4.68,5.93,1.35.45,5.31,1.7,5.31,6.62,0,5.41-4.3,8.91-11.48,8.91-6,0-10.89-2.57-11.41-9.85h5.38Z"/><path class="cls-1" d="M830.29,8.12c1.21-.17,2.36-.31,4.44-.87,9.71-2.6,11.69-3.16,15.68-3.16,7.87,0,11.72,5.17,11.72,11.34,0,12.83-16.27,13.74-21.19,13.98-.49-2.53-1.18-3.99-1.56-4.75,13.91,0,17.93-3.61,17.93-8.95,0-2.78-1.08-7.32-7.53-7.32-4.54,0-12.69,2.81-17.51,5.48l-1.98-5.76Z"/><path class="cls-1" d="M882.59,27.26c8.19-1.56,10.3-7.67,10.3-11.31,0-4.02-2.6-8.74-8.84-9.05-1.18,12.94-6.17,22.23-9.75,22.23-2.67,0-7.35-4.37-7.35-10.58,0-7.39,6.69-15.88,16.58-15.88,7.39,0,14.01,4.99,14.01,13.28,0,5.17-2.32,8.53-4.09,10.51-2.36,2.67-5.24,3.92-7.8,4.93-1.04-1.73-1.7-2.64-3.05-4.13ZM871.35,18.24c0,2.95,1.56,5.27,2.64,5.27,1.01,0,1.98-2.36,2.53-3.75,2.46-5.93,2.53-10.44,2.6-12.04-4.72,1.46-7.77,6.83-7.77,10.51Z"/><path class="cls-1" d="M903.13,27.82v-4.54h20.71v-12.94h-20.71v-4.54h25.74v23.72h-5.03v-1.7h-20.71Z"/><path class="cls-1" d="M966.17,14.39v4.92h-29.93v-4.92h29.93Z"/><path class="cls-1" d="M970.14,7.91V3.5h17.62c.56,0,1.84-.07,2.39-.28l2.36,2.53c-.69.9-1.08,1.7-1.32,2.22-1.46,3.4-2.25,5.24-4.47,8.84,2.64,1.98,8.08,6.69,10.82,10.02-1.21,1.32-3.16,3.47-3.57,3.95-1.87-2.6-4.75-6.38-9.85-10.34-2.39,3.02-8.01,8.32-13.87,10.82-1.08-1.87-1.67-2.67-3.29-4.06,2.08-.73,7.14-2.6,12.28-8.12,3.75-3.99,5.06-7.25,6.56-11.2h-15.64Z"/><path class="cls-1" d="M1013.79,24.56v5.45h-5.27v-5.45h5.27ZM1013.62,2.67v8.46l-1.04,10.23h-2.81l-1.08-10.23V2.67h4.92Z"/></g></svg>