<svg xmlns="http://www.w3.org/2000/svg" viewBox="0 0 325.238 87.021"><path d="M206.138 58.274h-21.481c-.567 0-.815-.248-.815-.851V29.207c0-.39.142-.603.532-.603h2.304c.319 0 .496.213.496.603v25.912h19c.319 0 .496.177.496.532v2.127c0 .319-.177.496-.532.496Zm13.114.035h-2.304c-.354 0-.532-.142-.532-.496V29.136c0-.319.142-.496.532-.496h2.304c.39 0 .567.177.567.567v28.606c0 .354-.213.496-.567.496Zm35.235-.035h-22.864c-.603 0-.851-.248-.851-.815V29.526c0-.567.248-.815.851-.815h22.97c.39 0 .567.142.567.496v2.198c0 .39-.213.532-.567.532h-20.489V55.12h17.901V45.053h-9.145c-.354 0-.496-.213-.496-.567v-1.985c0-.39.142-.532.461-.532h11.662c.567 0 .851.284.851.851v14.604c0 .603-.284.851-.851.851Zm35.482.142h-2.233c-.354 0-.603-.142-.603-.496V44.521h-17.688V57.92c0 .355-.142.496-.496.496h-2.304c-.319 0-.532-.142-.532-.496V29.1c0-.355.142-.532.532-.532h2.304c.355 0 .496.248.496.532v12.23h17.688V29.1c0-.355.177-.532.532-.532h2.233c.355 0 .532.248.532.532v28.819c0 .355-.106.496-.461.496Zm34.737-26.444h-10.563v25.841c0 .354-.142.532-.532.532h-2.269c-.39 0-.532-.142-.532-.532V31.972h-10.28c-.355 0-.532-.177-.532-.567v-2.127c0-.39.142-.567.496-.567h24.211c.39 0 .532.177.532.567v2.127c0 .39-.142.567-.532.567Z" fill="#00cbbb"/><path d="m9.268 49.351-7.385-3.997c-4.574-2.287.624-5.405.624-5.405l6.703-3.57.058 12.972Zm11.143 5.85-7.621-4.194-.102-16.061 7.672-4.194s-.106 24.449.051 24.449Zm10.997 5.729-7.654-4.502V29.184l7.654-4.058V60.93zm128.623-11.737 5.887-3.63c3.95-2.495 0-5.198 0-5.198l-5.59-3.465-.297 12.293Zm-11.022 5.805 7.498-3.95.068-16.091-7.672-3.99s.263 24.031.106 24.031Zm-11.154 5.91 7.422-3.915.119-27.762-7.541-3.89v35.567z" fill="#d8c8ac"/><path d="M135.276 24.579 91.489 2.319C85.252-1.839 79.015.864 79.015.864L34.774 23.468l.062 39.405 41.268 21.774s9.148 5.198 16.216.208l43.125-22.545-.169-37.732Z" fill="#00cbbb"/><path d="M60.378 33.395c.362.363.544.799.544 1.311v5.115c0 .511-.181.949-.544 1.311a1.783 1.783 0 0 1-1.311.543h-10.55l-.511.512v5.467h-3.709V34.707c0-.512.181-.948.543-1.311a1.786 1.786 0 0 1 1.311-.543h12.915c.511 0 .948.181 1.311.543Zm-3.676 5.115.511-.511v-1.471l-.511-.512h-8.184l-.511.512v1.471l.511.511h8.184Zm25.319-5.626V45.8c0 .511-.181.949-.544 1.311a1.783 1.783 0 0 1-1.311.543H67.57c-.491 0-.927-.17-1.311-.512a1.786 1.786 0 0 1-.543-1.311V32.884h3.709v11.125l.511.512H77.8l.511-.512V32.884h3.709Zm17.966 10.933c.554.49 1.225 1.06 2.014 1.71.788.65 1.673 1.359 2.653 2.126h-5.499l-6.745-6.042a2.919 2.919 0 0 1-.528-.623c-.139-.224-.208-.517-.208-.879a1.923 1.923 0 0 1 .128-.672 1.39 1.39 0 0 1 .543-.671c.256-.17.586-.256.991-.256h5.882l.511-.511V36.56l-.511-.543h-8.152l-.543.543v11.093h-3.677l-.032-12.916c0-.512.181-.948.543-1.311a1.786 1.786 0 0 1 1.311-.543h12.915c.511 0 .948.181 1.311.543.362.363.544.799.544 1.311v5.083c0 .511-.181.949-.544 1.311a1.783 1.783 0 0 1-1.311.543h-3.389v.64l1.79 1.503Zm13.171-5.811.543.536h9.143v3.133h-9.143l-.543.543v1.79l.543.512h12.404v3.165h-14.802c-.511 0-.949-.181-1.311-.543a1.786 1.786 0 0 1-.543-1.311V34.706c0-.512.181-.948.543-1.311a1.786 1.786 0 0 1 1.311-.543h14.802v3.197h-12.404v.031l-.543.505v1.421ZM52.349 53.504a.893.893 0 0 1 .272.655v2.732c0 .256-.09.474-.272.655a.893.893 0 0 1-.655.272h-7.253v-1.582h6.071l.256-.256v-.911l-.256-.256h-5.288a.889.889 0 0 1-.655-.272.893.893 0 0 1-.272-.655v-2.54c0-.256.09-.474.272-.655s.399-.272.655-.272h7.237v1.566h-6.055l-.256.272v.719l.256.256h5.288c.256 0 .474.091.655.272Zm11.182-1.517h-3.466l-.272.272v5.543H57.94v-5.543l-.256-.272h-3.467v-1.566h9.313v1.566Zm8.18 3.897c.277.245.612.53 1.006.855.394.325.836.679 1.326 1.062h-2.748l-3.371-3.019c-.107-.096-.194-.2-.264-.311s-.104-.258-.104-.439a.916.916 0 0 1 .064-.336.694.694 0 0 1 .272-.335.879.879 0 0 1 .495-.128h2.939l.256-.256v-.719l-.256-.272h-4.074l-.272.272v5.543h-1.837l-.016-6.454c0-.256.09-.474.272-.655s.399-.272.655-.272h6.454c.256 0 .474.091.655.272a.893.893 0 0 1 .272.655v2.54c0 .256-.091.474-.272.655s-.399.272-.655.272h-1.693v.319l.895.751Zm5.782-2.904.272.268h4.569v1.566h-4.569l-.272.272v.895l.272.256h6.198v1.582h-7.397a.889.889 0 0 1-.655-.272.893.893 0 0 1-.272-.655v-5.559c0-.256.09-.474.272-.655s.399-.272.655-.272h7.397v1.598h-6.198v.016l-.272.252v.71Zm16.615-2.559v6.454c0 .256-.09.474-.272.655a.893.893 0 0 1-.655.272h-.447a.908.908 0 0 1-.703-.32 633.922 633.922 0 0 1-1.917-2.061c-.533-.575-.975-1.049-1.326-1.422a31.204 31.204 0 0 1-1.022-1.118h-.352v4.92h-1.853v-6.454c0-.256.09-.474.272-.655s.399-.272.655-.272h.863c.149 0 .285.032.407.096s.226.138.312.224l1.685 1.853 1.222 1.342.991 1.102h.287V50.42h1.853Zm8.067 2.141v-.32l-.272-.256h-4.09l-.256.256v3.722l.256.256h4.09l.256-.259v-.905l-.256-.259h-2.636v-1.565h3.818c.256 0 .474.091.655.272a.893.893 0 0 1 .272.655v2.716a.893.893 0 0 1-.272.655.893.893 0 0 1-.655.272h-6.454a.889.889 0 0 1-.655-.272.893.893 0 0 1-.272-.655v-5.543c0-.256.09-.474.272-.655s.399-.272.655-.272h6.47c.256 0 .471.091.647.272a.905.905 0 0 1 .264.655v1.23h-1.837Zm12.748-.575h-3.466l-.272.272v5.543h-1.853v-5.543l-.256-.272h-3.467v-1.566h9.313v1.566Zm9.889-1.566v7.381h-1.837V55.07l-.27-.256h-4.076l-.255.272v2.716h-1.853v-7.381h1.853v2.556l.255.256h4.076l.27-.256v-2.556h1.837Z" fill="#fff" stroke="#00cbbb" stroke-miterlimit="10" stroke-width=".005"/></svg>