<?xml version="1.0" encoding="UTF-8"?><svg id="_レイヤー_2" xmlns="http://www.w3.org/2000/svg" viewBox="0 0 1177.03 860.3"><defs><style>.cls-1{fill:none;stroke:#fff;stroke-miterlimit:10;stroke-width:3.98px;}.cls-2{fill:#000;}.cls-2,.cls-3,.cls-4{stroke-width:0px;}.cls-5{fill:#15b29a;stroke:#cf0066;stroke-linecap:round;stroke-linejoin:round;stroke-width:52.73px;}.cls-3{fill:#cf0066;}.cls-4{fill:#fff;}</style></defs><g id="_レイヤー_1-2"><path class="cls-5" d="M201.88,701.97c-9.57,9.27-23.62,13.75-37.97,13.75s-28.41-4.49-37.97-13.75c-14.05-13.75-15.25-29.6-15.25-49.63,0-11.66.9-23.92,5.68-33.79,2.99-5.98,7.18-10.76,12.86-15.25-5.08-4.19-8.67-8.67-11.36-14.05-4.78-10.17-5.68-20.63-5.68-31.69,0-18.24,2.99-33.79,15.25-46.05,9.27-9.27,21.83-13.45,36.18-13.45s27.51,4.19,36.78,13.45c12.26,12.26,15.25,27.81,15.25,46.05,0,11.06-.9,21.53-5.68,31.69-2.69,5.38-6.28,9.87-11.36,14.05,5.68,4.48,9.87,9.27,12.86,15.25,4.78,9.87,5.68,22.13,5.68,33.79,0,20.03-1.2,35.88-15.25,49.63ZM173.48,624.52c-2.09-2.99-5.68-4.48-9.57-4.48s-7.47,1.49-9.57,4.48c-3.59,4.78-3.59,13.75-3.59,25.41s0,20.63,3.59,25.41c2.09,2.99,5.68,4.48,9.57,4.48s7.47-1.5,9.57-4.48c3.59-4.78,3.59-13.75,3.59-25.41s0-20.63-3.59-25.41ZM156.44,583.86c1.79,1.79,4.48,2.69,7.47,2.69s5.68-.9,7.47-2.69c2.99-2.99,4.19-7.18,4.19-23.62s-1.2-20.63-4.19-23.62c-1.79-1.79-4.49-2.69-7.47-2.69s-5.68.9-7.47,2.69c-2.99,2.99-4.19,7.18-4.19,23.62s1.2,20.63,4.19,23.62Z"/><path class="cls-5" d="M238.48,721.71v-70.61h30.48v48.08l-30.48,22.54Z"/><path class="cls-5" d="M377.16,701.97c-9.57,9.27-23.62,13.75-37.97,13.75s-28.41-4.49-37.97-13.75c-14.05-13.75-15.25-29.6-15.25-49.63,0-11.66.9-23.92,5.68-33.79,2.99-5.98,7.18-10.76,12.86-15.25-5.08-4.19-8.67-8.67-11.36-14.05-4.78-10.17-5.68-20.63-5.68-31.69,0-18.24,2.99-33.79,15.25-46.05,9.27-9.27,21.83-13.45,36.18-13.45s27.51,4.19,36.78,13.45c12.26,12.26,15.25,27.81,15.25,46.05,0,11.06-.9,21.53-5.68,31.69-2.69,5.38-6.28,9.87-11.36,14.05,5.68,4.48,9.87,9.27,12.86,15.25,4.78,9.87,5.68,22.13,5.68,33.79,0,20.03-1.2,35.88-15.25,49.63ZM348.76,624.52c-2.09-2.99-5.68-4.48-9.57-4.48s-7.47,1.49-9.57,4.48c-3.59,4.78-3.59,13.75-3.59,25.41s0,20.63,3.59,25.41c2.09,2.99,5.68,4.48,9.57,4.48s7.47-1.5,9.57-4.48c3.59-4.78,3.59-13.75,3.59-25.41s0-20.63-3.59-25.41ZM331.71,583.86c1.79,1.79,4.48,2.69,7.47,2.69s5.68-.9,7.47-2.69c2.99-2.99,4.19-7.18,4.19-23.62s-1.2-20.63-4.19-23.62c-1.79-1.79-4.49-2.69-7.47-2.69s-5.68.9-7.47,2.69c-2.99,2.99-4.19,7.18-4.19,23.62s1.2,20.63,4.19,23.62Z"/><path class="cls-5" d="M505.46,701.97c-9.57,9.27-23.62,13.75-37.97,13.75s-28.41-4.49-37.97-13.75c-9.57-8.97-14.65-19.73-14.65-38.27v-113.62c0-18.54,5.08-29.3,14.65-38.27,9.57-9.27,23.62-13.75,37.97-13.75s28.4,4.48,37.97,13.75c9.57,8.97,14.65,19.73,14.65,38.27v113.62c0,18.54-5.08,29.3-14.65,38.27ZM480.04,548.58c0-9.87-5.38-14.65-12.56-14.65s-12.56,4.78-12.56,14.65v116.61c0,9.87,5.38,14.65,12.56,14.65s12.56-4.78,12.56-14.65v-116.61Z"/><path class="cls-5" d="M635.61,701.97c-9.57,9.27-23.62,13.75-37.97,13.75s-28.41-4.49-37.97-13.75c-9.57-8.97-14.65-19.73-14.65-38.27v-113.62c0-18.54,5.08-29.3,14.65-38.27,9.57-9.27,23.62-13.75,37.97-13.75s28.4,4.48,37.97,13.75c9.57,8.97,14.65,19.73,14.65,38.27v113.62c0,18.54-5.08,29.3-14.65,38.27ZM610.19,548.58c0-9.87-5.38-14.65-12.56-14.65s-12.56,4.78-12.56,14.65v116.61c0,9.87,5.38,14.65,12.56,14.65s12.56-4.78,12.56-14.65v-116.61Z"/><path class="cls-5" d="M780.32,686.98c0,10.2-1.76,15.57-7.14,18.88-5.39,3.31-12.65,3.72-23.07,3.72-.7-5.65-3.63-14.88-6.09-19.98,6.09.55,13.82.41,16.04.41s3.04-.83,3.04-3.31v-28.38h-66.51v51.12h-17.1v-122.35h100.82v99.89ZM696.6,638.48h23.89v-31.55h-23.89v31.55ZM763.11,638.48v-31.55h-25.64v31.55h25.64Z"/><path class="cls-5" d="M820.74,589.47l11.06,5.55c-8.85,11.43-16.83,26.59-16.83,49.11s7.98,37.68,16.83,49.11l-11.06,5.55c-9.71-11.09-18.85-29.31-18.85-54.66s9.14-43.57,18.85-54.66Z"/><path class="cls-5" d="M869.89,666.08c-.96-2.49-2.4-5.88-4.04-9.28v41.08h-13.56v-34.97c-2.6,6.9-5.39,13.13-8.46,17.88-1.25-4.75-4.23-11.66-6.35-15.84,5-6.9,9.71-17.65,12.98-27.5h-10.97v-15.28h12.79v-10.75c-3.56.68-7.02,1.36-10.39,1.81-.58-3.62-2.31-9.17-3.85-12.56,10.58-2.04,22.03-5.43,29.62-9.39l9.23,12.67c-3.46,1.58-7.21,2.83-11.06,4.07v14.15h9.23v15.28h-9.23v1.36c2.6,2.49,10.2,12,11.93,14.37l-7.89,12.9ZM917.88,681.7c1.06,0,1.44-1.7,1.64-13.24,2.5,2.49,8.27,5.21,11.83,6.22-1.15,16.97-4.42,21.73-11.93,21.73h-5.39c-9.71,0-11.73-4.87-11.73-18.67v-24.67h-3.66c-1.15,19.69-4.71,35.42-22.51,45.04-1.44-4.07-5.19-10.07-8.17-13.13,14.14-6.9,16.25-17.88,17.02-31.91h-6.54v-40.17h6.25c-1.54-5.09-4.42-11.43-7.12-16.41l11.54-5.88c3.56,5.88,7.41,13.69,8.85,19.24l-5.87,3.06h20.58l-7.6-3.28c2.69-5.32,5.87-13.24,7.5-19.35l14.43,5.43c-3.17,6.34-6.35,12.56-9.04,17.2h7.89v40.17h-10.1v24.56c0,3.73.1,4.07.86,4.07h1.25ZM911.92,627.16h-20.2v11.66h20.2v-11.66Z"/><path class="cls-5" d="M959.73,669.71c3.56,7.02,10.1,9.85,19.52,10.3,11.73.57,33.66.23,47.51-1.25-1.54,3.96-3.75,11.88-4.42,16.75-12.22.79-31.35,1.02-43.38.34-11.45-.57-19.04-3.39-25.39-12.11-3.94,4.07-7.98,8.15-13.18,13.01l-6.73-17.2c3.94-2.6,8.37-5.77,12.41-9.17v-21.05h-9.91v-15.16h23.56v35.53ZM950.79,620.71c-2.79-5.21-9.52-12.79-15-17.88l10.39-9.85c5.48,4.64,12.5,11.66,15.77,16.86l-11.16,10.86ZM988.3,619.8c-.39-3.17-.67-6.45-.87-9.73h-16.35v-15.5h28.28c.96,30.89,5.87,58.39,26.35,70.39-3.27,2.72-8.37,8.71-10.87,12.67-10.87-7.81-17.6-19.24-21.74-32.93-4.71,14.15-11.64,25.35-21.06,33.04-2.02-3.17-7.5-9.62-10.68-12.45,13.08-8.94,20.1-25.24,22.8-46.17l4.14.68Z"/><path class="cls-5" d="M1043.7,698.79l-11.06-5.55c8.85-11.43,16.83-26.59,16.83-49.11s-7.98-37.68-16.83-49.11l11.06-5.55c9.71,11.09,18.85,29.31,18.85,54.66s-9.14,43.57-18.85,54.66Z"/><path class="cls-4" d="M201.88,701.97c-9.57,9.27-23.62,13.75-37.97,13.75s-28.41-4.49-37.97-13.75c-14.05-13.75-15.25-29.6-15.25-49.63,0-11.66.9-23.92,5.68-33.79,2.99-5.98,7.18-10.76,12.86-15.25-5.08-4.19-8.67-8.67-11.36-14.05-4.78-10.17-5.68-20.63-5.68-31.69,0-18.24,2.99-33.79,15.25-46.05,9.27-9.27,21.83-13.45,36.18-13.45s27.51,4.19,36.78,13.45c12.26,12.26,15.25,27.81,15.25,46.05,0,11.06-.9,21.53-5.68,31.69-2.69,5.38-6.28,9.87-11.36,14.05,5.68,4.48,9.87,9.27,12.86,15.25,4.78,9.87,5.68,22.13,5.68,33.79,0,20.03-1.2,35.88-15.25,49.63ZM173.48,624.52c-2.09-2.99-5.68-4.48-9.57-4.48s-7.47,1.49-9.57,4.48c-3.59,4.78-3.59,13.75-3.59,25.41s0,20.63,3.59,25.41c2.09,2.99,5.68,4.48,9.57,4.48s7.47-1.5,9.57-4.48c3.59-4.78,3.59-13.75,3.59-25.41s0-20.63-3.59-25.41ZM156.44,583.86c1.79,1.79,4.48,2.69,7.47,2.69s5.68-.9,7.47-2.69c2.99-2.99,4.19-7.18,4.19-23.62s-1.2-20.63-4.19-23.62c-1.79-1.79-4.49-2.69-7.47-2.69s-5.68.9-7.47,2.69c-2.99,2.99-4.19,7.18-4.19,23.62s1.2,20.63,4.19,23.62Z"/><path class="cls-4" d="M238.48,721.71v-70.61h30.48v48.08l-30.48,22.54Z"/><path class="cls-4" d="M377.16,701.97c-9.57,9.27-23.62,13.75-37.97,13.75s-28.41-4.49-37.97-13.75c-14.05-13.75-15.25-29.6-15.25-49.63,0-11.66.9-23.92,5.68-33.79,2.99-5.98,7.18-10.76,12.86-15.25-5.08-4.19-8.67-8.67-11.36-14.05-4.78-10.17-5.68-20.63-5.68-31.69,0-18.24,2.99-33.79,15.25-46.05,9.27-9.27,21.83-13.45,36.18-13.45s27.51,4.19,36.78,13.45c12.26,12.26,15.25,27.81,15.25,46.05,0,11.06-.9,21.53-5.68,31.69-2.69,5.38-6.28,9.87-11.36,14.05,5.68,4.48,9.87,9.27,12.86,15.25,4.78,9.87,5.68,22.13,5.68,33.79,0,20.03-1.2,35.88-15.25,49.63ZM348.76,624.52c-2.09-2.99-5.68-4.48-9.57-4.48s-7.47,1.49-9.57,4.48c-3.59,4.78-3.59,13.75-3.59,25.41s0,20.63,3.59,25.41c2.09,2.99,5.68,4.48,9.57,4.48s7.47-1.5,9.57-4.48c3.59-4.78,3.59-13.75,3.59-25.41s0-20.63-3.59-25.41ZM331.71,583.86c1.79,1.79,4.48,2.69,7.47,2.69s5.68-.9,7.47-2.69c2.99-2.99,4.19-7.18,4.19-23.62s-1.2-20.63-4.19-23.62c-1.79-1.79-4.49-2.69-7.47-2.69s-5.68.9-7.47,2.69c-2.99,2.99-4.19,7.18-4.19,23.62s1.2,20.63,4.19,23.62Z"/><path class="cls-4" d="M505.46,701.97c-9.57,9.27-23.62,13.75-37.97,13.75s-28.41-4.49-37.97-13.75c-9.57-8.97-14.65-19.73-14.65-38.27v-113.62c0-18.54,5.08-29.3,14.65-38.27,9.57-9.27,23.62-13.75,37.97-13.75s28.4,4.48,37.97,13.75c9.57,8.97,14.65,19.73,14.65,38.27v113.62c0,18.54-5.08,29.3-14.65,38.27ZM480.04,548.58c0-9.87-5.38-14.65-12.56-14.65s-12.56,4.78-12.56,14.65v116.61c0,9.87,5.38,14.65,12.56,14.65s12.56-4.78,12.56-14.65v-116.61Z"/><path class="cls-4" d="M635.61,701.97c-9.57,9.27-23.62,13.75-37.97,13.75s-28.41-4.49-37.97-13.75c-9.57-8.97-14.65-19.73-14.65-38.27v-113.62c0-18.54,5.08-29.3,14.65-38.27,9.57-9.27,23.62-13.75,37.97-13.75s28.4,4.48,37.97,13.75c9.57,8.97,14.65,19.73,14.65,38.27v113.62c0,18.54-5.08,29.3-14.65,38.27ZM610.19,548.58c0-9.87-5.38-14.65-12.56-14.65s-12.56,4.78-12.56,14.65v116.61c0,9.87,5.38,14.65,12.56,14.65s12.56-4.78,12.56-14.65v-116.61Z"/><path class="cls-4" d="M780.32,686.98c0,10.2-1.76,15.57-7.14,18.88-5.39,3.31-12.65,3.72-23.07,3.72-.7-5.65-3.63-14.88-6.09-19.98,6.09.55,13.82.41,16.04.41s3.04-.83,3.04-3.31v-28.38h-66.51v51.12h-17.1v-122.35h100.82v99.89ZM696.6,638.48h23.89v-31.55h-23.89v31.55ZM763.11,638.48v-31.55h-25.64v31.55h25.64Z"/><path class="cls-4" d="M820.74,589.47l11.06,5.55c-8.85,11.43-16.83,26.59-16.83,49.11s7.98,37.68,16.83,49.11l-11.06,5.55c-9.71-11.09-18.85-29.31-18.85-54.66s9.14-43.57,18.85-54.66Z"/><path class="cls-4" d="M869.89,666.08c-.96-2.49-2.4-5.88-4.04-9.28v41.08h-13.56v-34.97c-2.6,6.9-5.39,13.13-8.46,17.88-1.25-4.75-4.23-11.66-6.35-15.84,5-6.9,9.71-17.65,12.98-27.5h-10.97v-15.28h12.79v-10.75c-3.56.68-7.02,1.36-10.39,1.81-.58-3.62-2.31-9.17-3.85-12.56,10.58-2.04,22.03-5.43,29.62-9.39l9.23,12.67c-3.46,1.58-7.21,2.83-11.06,4.07v14.15h9.23v15.28h-9.23v1.36c2.6,2.49,10.2,12,11.93,14.37l-7.89,12.9ZM917.88,681.7c1.06,0,1.44-1.7,1.64-13.24,2.5,2.49,8.27,5.21,11.83,6.22-1.15,16.97-4.42,21.73-11.93,21.73h-5.39c-9.71,0-11.73-4.87-11.73-18.67v-24.67h-3.66c-1.15,19.69-4.71,35.42-22.51,45.04-1.44-4.07-5.19-10.07-8.17-13.13,14.14-6.9,16.25-17.88,17.02-31.91h-6.54v-40.17h6.25c-1.54-5.09-4.42-11.43-7.12-16.41l11.54-5.88c3.56,5.88,7.41,13.69,8.85,19.24l-5.87,3.06h20.58l-7.6-3.28c2.69-5.32,5.87-13.24,7.5-19.35l14.43,5.43c-3.17,6.34-6.35,12.56-9.04,17.2h7.89v40.17h-10.1v24.56c0,3.73.1,4.07.86,4.07h1.25ZM911.92,627.16h-20.2v11.66h20.2v-11.66Z"/><path class="cls-4" d="M959.73,669.71c3.56,7.02,10.1,9.85,19.52,10.3,11.73.57,33.66.23,47.51-1.25-1.54,3.96-3.75,11.88-4.42,16.75-12.22.79-31.35,1.02-43.38.34-11.45-.57-19.04-3.39-25.39-12.11-3.94,4.07-7.98,8.15-13.18,13.01l-6.73-17.2c3.94-2.6,8.37-5.77,12.41-9.17v-21.05h-9.91v-15.16h23.56v35.53ZM950.79,620.71c-2.79-5.21-9.52-12.79-15-17.88l10.39-9.85c5.48,4.64,12.5,11.66,15.77,16.86l-11.16,10.86ZM988.3,619.8c-.39-3.17-.67-6.45-.87-9.73h-16.35v-15.5h28.28c.96,30.89,5.87,58.39,26.35,70.39-3.27,2.72-8.37,8.71-10.87,12.67-10.87-7.81-17.6-19.24-21.74-32.93-4.71,14.15-11.64,25.35-21.06,33.04-2.02-3.17-7.5-9.62-10.68-12.45,13.08-8.94,20.1-25.24,22.8-46.17l4.14.68Z"/><path class="cls-4" d="M1043.7,698.79l-11.06-5.55c8.85-11.43,16.83-26.59,16.83-49.11s-7.98-37.68-16.83-49.11l11.06-5.55c9.71,11.09,18.85,29.31,18.85,54.66s-9.14,43.57-18.85,54.66Z"/><path class="cls-3" d="M837.89,2.3h-498.13c-25.3,0-46,20.7-46,46v8.63c0,25.3,20.7,46,46,46h223.33l26.78,29.75,23.8-29.75h224.22c25.3,0,46-20.7,46-46v-8.63c0-25.3-20.7-46-46-46Z"/><path class="cls-4" d="M438.89,36.48c-.67,11.08-2.31,19.91-5.11,26.91,2.68,2.19,5.05,4.38,6.57,6.33l-4.38,5.84c-1.28-1.7-3.17-3.71-5.36-5.78-2.92,4.75-6.58,8.34-11.08,11.14-.98-1.83-2.86-4.38-4.32-5.72,4.08-2.13,7.37-5.54,9.92-9.98-1.1-.85-2.19-1.7-3.29-2.5l-.49,1.89-5.97-3.1c1.4-4.99,2.92-11.81,4.38-18.87h-4.75v-6.64h6.03c.79-4.2,1.52-8.34,2.07-12.05l6.82.61c-.61,3.59-1.34,7.49-2.13,11.45h5.48l1.22-.18,4.38.67ZM426.41,42.63c-.98,4.63-1.95,9.13-2.92,13.39,1.46.91,2.98,1.95,4.51,3.04,1.77-4.75,2.92-10.23,3.65-16.44h-5.23ZM471.52,54.81h-13.39v17.84c0,3.65-.67,5.6-3.04,6.7-2.44,1.16-5.72,1.4-10.17,1.34-.36-2.01-1.58-5.11-2.62-7.12,3.1.12,6.33.18,7.3.12,1.04,0,1.34-.24,1.34-1.1v-17.78h-12.84v-6.82h12.84v-7.06h2.25c2.01-2.07,4.14-4.75,5.84-7.31h-18.93v-6.7h23.8l1.46-.36,4.75,3.53c-3.23,4.75-7.73,10.41-11.99,14.43v3.47h13.39v6.82Z"/><path class="cls-4" d="M504.54,39.65h-23.8v-5.72h23.8v5.72ZM502.29,77.52h-12.72v2.37h-6.15v-20.76h18.87v18.39ZM483.6,42.39h18.75v5.54h-18.75v-5.54ZM483.6,50.73h18.75v5.42h-18.75v-5.42ZM502.23,31.25h-18.39v-5.48h18.39v5.48ZM489.56,64.85v7h6.45v-7h-6.45ZM537.6,60.04h-13.46v20.64h-7.12v-20.64h-13.46v-6.88h13.46v-19.54h-11.32v-6.76h30.81v6.76h-12.36v19.54h13.46v6.88ZM512.03,36.12c1.34,4.51,2.5,10.23,2.74,14l-6.09,1.46c-.18-3.84-1.22-9.68-2.5-14.25l5.85-1.22ZM525.97,50.06c1.34-3.9,2.74-10.05,3.35-14.43l6.88,1.34c-1.52,5.11-3.17,10.84-4.69,14.49l-5.54-1.4Z"/><path class="cls-4" d="M594.97,54.93c-2.74,5.97-6.76,10.59-11.69,14.18,5.84,2.07,12.66,3.47,20.15,4.14-1.52,1.64-3.47,4.81-4.44,6.76-8.83-1.1-16.68-3.17-23.26-6.39-7,3.35-15.1,5.36-23.68,6.51-.73-1.7-2.74-4.93-4.26-6.39,7.61-.79,14.67-2.19,20.7-4.44-3.71-2.62-6.94-5.84-9.62-9.56l2.01-.85h-2.86v-6.64h30.74l1.34-.3,4.87,2.98ZM556.01,54.5h-6.76v-13.21h8.71c-.61-1.89-1.77-4.32-2.86-6.27l5.42-1.52c-3.04.18-6.15.3-9.07.36-.12-1.83-.97-4.57-1.64-6.15,16.01-.55,34.34-2.01,45.42-4.14l4.87,5.84c-6.58,1.22-14.43,2.19-22.53,2.92,1.22,2.43,2.37,5.66,2.74,7.85l-4.51,1.1h10.59c1.46-2.8,3.04-6.39,3.96-9.13l7.73,1.83c-1.4,2.56-2.98,5.05-4.38,7.31h8.64v13.21h-7.06v-6.94h-39.27v6.94ZM577.13,32.34c-5.11.49-10.41.85-15.59,1.1,1.4,2.25,2.8,4.99,3.41,6.94l-3.17.91h11.63c-.36-2.13-1.28-5.18-2.31-7.55l6.03-1.4ZM566.54,58.89c2.5,2.74,5.6,5.05,9.25,7.06,3.23-1.95,6.09-4.26,8.28-7.06h-17.53Z"/><path class="cls-4" d="M635.53,26.5c-1.64,4.08-3.53,8.22-5.78,12.3v41.82h-7.43v-30.5c-1.4,1.77-2.86,3.41-4.26,4.87-.79-1.77-2.98-5.78-4.26-7.55,5.78-5.54,11.32-14.31,14.55-23.26l7.18,2.31ZM670.9,44.28h-6.7v27.64c0,4.69-1.1,6.57-4.02,7.67-2.98,1.16-7.55,1.28-14.25,1.22-.43-2.07-1.7-5.3-2.8-7.18,4.69.18,10.05.18,11.45.12,1.52,0,2.07-.49,2.07-1.83v-27.64h-23.2v-7.31h23.2v-12.42h7.55v12.42h6.7v7.31ZM644.11,66.25c-1.58-3.71-5.17-9.98-7.91-14.61l6.45-2.98c2.74,4.44,6.51,10.41,8.34,14.06l-6.88,3.53Z"/><path class="cls-4" d="M733.26,34.41v30.38h-7.61v-3.04h-13.76v18.99h-7.67v-18.99h-13.7v3.35h-7.31v-30.68h21v-10.53h7.67v10.53h21.37ZM704.22,54.63v-13.09h-13.7v13.09h13.7ZM725.65,54.63v-13.09h-13.76v13.09h13.76Z"/><path class="cls-4" d="M747.74,70.45c0-3.35,2.37-5.84,5.54-5.84s5.6,2.5,5.6,5.84-2.43,5.84-5.6,5.84-5.54-2.56-5.54-5.84ZM749.08,37.64l-.3-8.46h9.01l-.3,8.46-1.28,22.46h-5.84l-1.28-22.46Z"/><path class="cls-4" d="M486.89,242.63h10.89v14.32c.3,1.79,1.19,6.71,10.94,6.71h25.51l-1.29,5.92h-24.57c-3.63,0-8.75-.85-12.13-5.47-.7.9-3.48,4.23-7.26,6.86l-2.74-6.66c2.04-1,3.93-2.39,5.52-3.83v-11.94h-4.87v-5.92ZM491.76,224.18c1.69,1.44,4.77,4.03,7.86,8.5l-4.87,4.33c-1.34-2.04-3.73-5.27-7.51-8.65l4.52-4.18ZM509.27,230.2h-8.01v-4.87h29.34v4.87c-1.24.85-4.03,2.83-7.91,4.63h9.15v23.03c0,2.39-.94,4.18-3.98,4.18h-5.97l-.99-5.07h4.03c1,0,1.19-.45,1.19-1.34v-1.94h-6.66v8.06h-5.67v-8.06h-6.51v8.36h-5.72v-27.2h8.4c-1.19-.8-1.89-1.24-3.58-2.14l2.88-2.49ZM507.28,239.3v3.08h6.51v-3.08h-6.51ZM507.28,246.36v3.13h6.51v-3.13h-6.51ZM511.76,230.2c1.44.99,3.63,2.59,4.58,3.33,3.63-1.84,4.43-2.49,5.52-3.33h-10.1ZM519.47,239.3v3.08h6.66v-3.08h-6.66ZM519.47,246.36v3.13h6.66v-3.13h-6.66Z"/><path class="cls-4" d="M557.85,229.95v-6.27h6.22v6.27h5.27c.65-1.14,1.44-2.64,3.13-6.42l6.02,2.04c-.6,1.49-1.49,3.28-2.14,4.38h7.01v12.68h-6.12v-7.61h-32.28v7.61h-6.12v-12.68h7.11c-.7-1.44-2.19-4.03-2.44-4.38l6.07-1.84c1.04,1.69,2.64,4.92,3.18,6.22h5.07ZM564.12,257.75v12.93h-6.27v-12.93h-10.64v11.04h-6.32v-16.06h16.96v-2.79h-11.69v-12.58h29.89v12.58h-11.94v2.79h17.06v11.09c0,2.09-.05,4.97-4.08,4.97h-6.86l-1.34-5.67h4.38c1.24,0,1.64-.35,1.64-1.39v-3.98h-10.79ZM570.08,241.78h-17.95v3.78h17.95v-3.78Z"/><path class="cls-4" d="M588.28,262.82h3.13v-16.26h-2.93v-4.77h47.15v4.77h-24.27v23.92h-5.72v-3.68c-5.62.7-11.19,1.14-16.81,1.34l-.55-5.32ZM592.61,225.02h38.84v14.72h-38.84v-14.72ZM597.03,246.56v2.59h8.6v-2.59h-8.6ZM597.03,253.02v2.64h8.6v-2.64h-8.6ZM605.64,259.49h-8.6v3.18c2.09-.1,4.77-.2,8.6-.6v-2.59ZM598.82,229v2.09h26.41v-2.09h-26.41ZM598.82,233.98v2.14h26.41v-2.14h-26.41ZM619.21,253.97c.7,1.34,1.79,3.23,4.23,5.47,2.39-2.19,3.53-4.53,4.28-6.02h-15.02v-4.53h21.09v4.63c-.65,1.74-1.89,5.02-5.72,8.9,2.98,1.39,5.47,2.09,7.81,2.69l-3.13,5.42c-1.69-.55-5.17-1.59-9.35-4.33-4.23,2.74-7.56,3.73-9.55,4.28l-2.34-5.22c1.89-.5,4.53-1.24,7.31-2.74-3.08-3.28-4.18-5.72-4.77-7.16l5.17-1.39Z"/><path class="cls-4" d="M639.05,263.96c3.63-1.34,16.86-6.17,19.84-22.43h-19.15v-6.37h19.59v-11.49h6.66v10.49c0,.15-.05.75-.05.99h20.34v6.37h-19.44c2.88,13.33,10.79,18.95,20.54,22.63l-3.83,6.42c-4.77-1.94-15.91-7.11-20.34-21.24-5.32,14.72-16.56,19.45-20.24,20.99l-3.93-6.37Z"/><path class="cls-4" d="M708.37,220.48h7.99v51.02h-9.08v-41.3l-9.27,6.46-1.15-8.38,11.51-7.8Z"/><path class="cls-4" d="M772.62,220.48v8.44l-24.68,42.58h-10.1l25.13-42.77h-27.56v-8.25h37.21Z"/><path class="cls-4" d="M790.9,261.34v9.59c0,5.95-3.26,7.74-10.04,7.93v-4.54c4.54-.06,4.6-1.66,4.67-3.13h-4.67v-9.85h10.04Z"/><path class="cls-4" d="M832.07,228.73h-20.78v11c1.47-.45,3.45-1.09,6.65-1.09,10.36,0,17.96,6.84,17.96,16.62,0,8.12-5.56,17.26-20.39,17.26-8.44,0-14.07-3-15.86-3.9l2.3-8.31c6.01,3.96,11.89,3.96,13.43,3.96,10.04,0,11.51-6.14,11.51-8.95,0-5.37-4.22-8.57-9.59-8.57-2.56,0-5.12.7-6.91,2.49h-7.61v-28.77h29.28v8.25Z"/><path class="cls-4" d="M875.87,228.73h-20.78v11c1.47-.45,3.45-1.09,6.65-1.09,10.36,0,17.96,6.84,17.96,16.62,0,8.12-5.56,17.26-20.39,17.26-8.44,0-14.07-3-15.86-3.9l2.3-8.31c6.01,3.96,11.89,3.96,13.43,3.96,10.04,0,11.51-6.14,11.51-8.95,0-5.37-4.22-8.57-9.59-8.57-2.56,0-5.12.7-6.91,2.49h-7.61v-28.77h29.28v8.25Z"/><path class="cls-4" d="M915.69,227.9c-1.73-.13-1.92-.19-2.75-.19-2.88,0-12.4,0-16.5,14.58,1.53-1.41,4.86-4.35,10.87-4.35,8.12,0,16.69,6.01,16.69,16.88s-7.99,17.71-17.9,17.71c-9.21,0-19.31-6.2-19.31-23.02,0-15.54,9.01-30.05,25.51-30.05,1.34,0,2.81.13,3.39.13v8.31ZM905.98,245.86c-4.67,0-9.91,3.07-9.91,8.63,0,4.92,3.77,9.78,9.78,9.78s9.14-4.67,9.14-9.27c0-8.57-7.29-9.14-9.01-9.14Z"/><path class="cls-4" d="M968.13,251.83h-30.29v18.8h-6.37v-45.41h42.97v40.58c0,3.13-2.19,4.82-4.77,4.82h-9.4l-1.09-6.27h7.41c1.29,0,1.54-.65,1.54-1.44v-11.09ZM937.84,246.11h11.99v-14.97h-11.99v14.97ZM956.05,246.11h12.08v-14.97h-12.08v14.97Z"/><path class="cls-4" d="M996.23,270.78c-5.42-6.71-8.75-14.92-8.75-23.57s3.33-16.86,8.75-23.57h5.52c-5.37,6.66-8.45,14.97-8.45,23.57s3.08,16.86,8.45,23.57h-5.52Z"/><path class="cls-4" d="M1023.27,251.18l-2.78,5.37c-.99-1.24-2.09-2.69-3.53-5.62v19.6h-5.87v-18.45c-1.99,4.48-3.93,7.36-5.72,9.85l-2.29-7.26c4.28-4.77,7.16-11.89,7.51-12.83h-6.71v-5.72h7.21v-5.07c-2.98.35-4.62.5-6.22.65l-1.09-5.67c2.14-.15,9.6-.6,16.21-2.64l2.29,5.42c-1.64.45-3.28.95-5.32,1.29v6.02h4.72v5.72h-4.72v.5c1.34,2.34,3.38,5.47,6.32,8.46v-16.71h3.98c-1.14-3.73-3.33-7.16-4.08-8.41l6.07-2.14c1.84,2.84,3.23,5.87,4.28,9.1l-4.38,1.44h9.45c1.49-2.59,3.73-6.91,5.17-10.69l6.22,2.09c-.55,1.39-1.59,3.73-4.48,8.6h3.88v18.4h-6.86v11.19c0,.85.45,1.14,1.24,1.14h.9c.6,0,.89-.25,1.09-.8.35-.95.5-4.23.5-5.87l5.52,1.34c-.55,8.7-.8,11.04-4.92,11.04h-6.07c-3.03,0-4.28-1-4.28-4.18v-13.88h-3.38c-.75,10-4.18,14.07-11.34,18.35l-3.58-5.27c6.52-3.23,8.75-6.81,9.1-13.08h-4.03v-1.29ZM1029.24,239.7v7.21h14.17v-7.21h-14.17Z"/><path class="cls-4" d="M1053.9,242.58h11.44v14.57c.4,3.03,3.13,6.22,9.5,6.22h26.36l-1.14,6.02h-24.32c-8.16,0-11.39-3.88-12.83-5.67-2.54,3.13-5.57,5.67-7.01,6.76l-2.74-7.01c3.13-1.59,4.72-2.74,6.22-4.03v-11.04h-5.47v-5.82ZM1058.42,224.28c4.13,2.74,5.97,4.43,9.15,8.16l-4.33,4.72c-2.29-2.93-5.32-5.97-8.9-8.45l4.08-4.43ZM1066.58,255.86c11.34-6.96,15.12-18.8,16.16-24.52h-10.84v-5.97h16.86c.4,13.73,3.68,22.53,12.78,30.64l-4.23,5.57c-7.71-7.31-10.54-14.27-11.99-20.69-3.28,10.29-9.5,16.46-14.47,20.49l-4.28-5.52Z"/><path class="cls-4" d="M1103.08,270.78c5.37-6.71,8.46-14.97,8.46-23.57s-3.08-16.91-8.46-23.57h5.47c5.42,6.71,8.8,14.92,8.8,23.57s-3.38,16.86-8.75,23.57h-5.52Z"/><path class="cls-4" d="M1129.33,264.76c5.07-8.8,7.01-18.1,8.26-24.12l-7.31.05v-6.27h8.3c.35-2.54.55-4.33.85-8.85l6.86.55c-.3,2.34-.65,5.17-1.09,8.31h3.98c7.16,0,10.25,3.23,10.25,13.68,0,18.1-5.67,19.94-10.69,19.94-2.49,0-4.23-.35-5.42-.6l-.3-6.42c1.39.3,2.93.65,4.38.65,2.49,0,3.93-1.24,4.67-4.08.9-3.58,1.19-7.51,1.19-10.64,0-3.48-.05-6.47-4.72-6.42l-4.43.05c-1.74,9-4.18,18.85-8.65,27.55l-6.12-3.38ZM1164.79,254.76c-.79-13.03-5.47-18.2-7.16-20.09l4.43-3.13c6.07,6.71,8.4,14.27,9.35,22.33l-6.62.9ZM1165.54,225.52c2.54,2.88,4.18,5.57,5.92,8.85l-3.33,2.39c-1.84-3.83-3.18-5.92-5.72-9l3.13-2.24ZM1171.06,222.04c2.39,2.69,3.78,4.92,5.97,8.85l-3.33,2.39c-1.89-3.83-3.18-5.87-5.77-9l3.13-2.24Z"/><path class="cls-4" d="M607.08,330.97c-3.44,1.8-5.94,2.81-8.6,3.98l-5.31-12.03c12.58-3.83,23.6-10.94,31.8-20.55h13.83c6.41,7.42,16.72,16.41,31.49,20.47l-5.55,12.03c-2.34-1.02-4.61-1.95-8.36-3.98v6.33h-18.6v7.11h23.44v10.71h-23.44v8.44h30.79v11.49h-73.76v-11.49h30.79v-8.44h-23.44v-10.71h23.44v-7.11h-18.52v-6.25ZM648.8,326.2c-9.45-6.48-13.99-11.1-17.11-14.38-7.03,7.81-12.11,11.33-16.57,14.38h33.68Z"/><path class="cls-4" d="M744.45,321.04c-2.42-.16-4.61-.23-6.33-.23-2.58,0-6.56.16-9.38,1.02-11.1,3.28-23.6,14.77-23.6,25.79,0,7.34,5.86,11.64,25.86,11.64,3.67,0,5.47-.16,7.03-.23l-1.72,13.44c-9.3-.08-16.96-.23-25.24-2.34-16.49-4.14-18.83-15.71-18.83-21.72,0-10.63,6.88-19.69,16.72-26.33-6.96.55-24.69,2.11-30.63,2.89l-.7-13.44c5.08-.08,7.42-.23,16.49-.86,16.64-1.09,31.8-1.56,49.93-2.11l.39,12.5Z"/><path class="cls-4" d="M793.44,362.69c4.14-.31,18.75-1.41,18.75-13.21,0-7.66-6.48-9.92-8.36-10.55-5.24,19.3-19.85,30.71-31.33,30.71-10.78,0-14.85-8.28-14.85-15.71,0-10.55,6.48-18.6,17.27-23.13-.23-4.84-.23-5.63-.23-7.74h-14.3v-11.41h14.38v-6.17l12.19.16-.16,6.02h34.85v11.41h-35.16c-.08,1.64-.08,3.28-.08,4.84,1.95-.23,4.3-.55,8.05-.55,22.66,0,30.32,12.03,30.32,23.52,0,19.92-22.27,22.11-28.05,22.66l-3.28-10.86ZM775.78,341.83c-6.95,4.53-7.19,9.77-7.19,11.25,0,3.05,1.49,5.86,5,5.86,2.74,0,4.53-.94,5.39-1.41-1.25-3.67-2.58-10.86-3.2-15.71ZM793.68,337.22c-2.97,0-4.77.23-7.11.55.16,4.22.78,7.66,1.56,11.17.55-.78,3.05-4.22,5.55-11.72Z"/><path class="cls-4" d="M838.37,328.23v-11.88h11.17l.08-10.39,12.5.08c-.16,6.49-.39,13.75-.47,18.75,3.52-2.58,10.08-7.35,20.16-7.35,12.89,0,23.21,8.99,23.21,24.22,0,23.29-16.96,28.99-33.13,30.01l-3.36-11.64c9.69-.55,23.99-1.88,23.99-17.97,0-11.41-8.13-13.13-12.74-13.13-8.67,0-15.55,6.1-18.29,8.44-.08,14.77-.08,26.02,0,35.32h-12.5l.24-20.39c-3.05,5.31-5.31,7.97-7.74,10.31l-5.78-12.74c6.48-6.41,9.38-10.08,13.67-16.96l.08-4.92-11.1.23Z"/><path class="cls-4" d="M960.98,319.64c-.08-4.77-.24-9.14-.63-13.83l12.81-.23c.16,5.39.31,13.13.31,13.83l11.56-.23.08,11.64-11.49.23c-.23,16.17-1.56,23.91-14.53,23.91-3.13,0-5.94-.23-9.85-.86l-.16-11.25c3.05.55,6.1.94,7.81.94,3.36,0,4.22-1.17,4.14-12.5l-21.49.47-.16,16.72c-.08,11.17.63,11.8,16.64,11.8,7.35,0,15.08-.08,22.35-.78v12.19c-3.44.16-8.13.39-15.55.39-24.3,0-35.55-.08-35.48-22.82l.08-17.27-10.24.16-.16-11.64,10.39-.16v-13.44h12.27l-.08,13.21,21.33-.47Z"/><path class="cls-4" d="M1063.57,321.04c-2.42-.16-4.61-.23-6.33-.23-2.58,0-6.56.16-9.38,1.02-11.1,3.28-23.6,14.77-23.6,25.79,0,7.34,5.86,11.64,25.86,11.64,3.67,0,5.47-.16,7.03-.23l-1.72,13.44c-9.3-.08-16.96-.23-25.24-2.34-16.49-4.14-18.83-15.71-18.83-21.72,0-10.63,6.88-19.69,16.72-26.33-6.95.55-24.69,2.11-30.63,2.89l-.7-13.44c5.08-.08,7.42-.23,16.49-.86,16.64-1.09,31.8-1.56,49.93-2.11l.39,12.5Z"/><rect class="cls-4" y="156.77" width="394.46" height="82.12" rx="37.78" ry="37.78"/><path class="cls-2" d="M110.42,179.96c0,8.33,1.19,24.41,17.4,33.97-1.14.93-3.3,3.22-4.23,4.58-9.12-5.51-13.79-13.83-16.21-21.72-3.3,9.87-8.59,17.18-16.26,21.76-.97-1.1-3.44-3.26-4.8-4.27,9.16-4.63,14.41-13.13,16.83-24.72l2.69.48c-.31-1.67-.49-3.26-.62-4.76h-10.04v-5.33h15.24Z"/><path class="cls-2" d="M141.92,192.3c-2.33,1.67-4.89,3.17-7.45,4.41-.62-1.28-1.98-3.26-3.08-4.41,7.49-3.3,14.49-9.56,17.8-14.76h5.46c4.67,6.48,11.68,11.5,18.64,13.97-1.32,1.37-2.47,3.26-3.39,4.8-2.42-1.15-4.98-2.6-7.4-4.27v3.48h-20.58v-3.22ZM134.12,199.17h36.43v4.85h-19.74c-1.28,2.6-2.73,5.33-4.05,7.8,4.23-.13,8.77-.31,13.26-.48-1.36-1.59-2.86-3.17-4.32-4.49l4.63-2.42c3.92,3.44,8.02,8.02,10.09,11.32l-4.89,2.95c-.44-.84-1.06-1.76-1.76-2.73-10.35.57-21.23,1.01-28.72,1.37l-.7-5.11,6.65-.22c1.19-2.47,2.42-5.38,3.35-7.97h-10.22v-4.85ZM160.6,190.71c-3.39-2.55-6.43-5.42-8.46-8.15-1.89,2.69-4.71,5.55-8.06,8.15h16.52Z"/><path class="cls-2" d="M217.15,185.73c-1.76,1.54-3.79,3.17-5.68,4.49,2.11,1.54,4.45,2.86,6.92,3.83-1.19.97-2.69,3-3.48,4.36-3.52-1.59-6.7-3.88-9.43-6.65v1.81h-16.21v-1.5c-3,2.91-6.43,5.24-9.96,6.96-.71-1.15-2.07-2.95-3.13-3.83,2.55-1.06,5.11-2.64,7.45-4.54-1.23-1.23-3.13-2.69-4.71-3.7l2.86-2.86c1.67.97,3.74,2.33,4.98,3.57,1.28-1.37,2.38-2.86,3.3-4.36h-9.03v-4.23h11.54l.88-.22,3.39,1.76c-1.19,3.22-2.91,6.08-4.98,8.59h11.32c-2.42-3-4.45-6.43-6.03-10.18l4.49-1.41c.66,1.54,1.41,3.04,2.33,4.45,1.63-1.32,3.26-2.86,4.41-4.19l3.97,2.82c-1.89,1.59-4.1,3.26-6.04,4.58.66.79,1.37,1.54,2.07,2.25,1.81-1.41,3.7-3.13,4.93-4.54l3.83,2.73ZM207.86,208.64c-.93,1.81-1.81,3.52-2.55,4.8h11.06v4.32h-37.89v-4.32h10.66c-.44-1.45-1.19-3.22-2.03-4.58l2.29-.57h-4.8v-12.2h25.51v12.2h-3.97l1.72.35ZM189.66,204.15h15.02v-3.92h-15.02v3.92ZM192.31,208.29c.97,1.5,1.76,3.35,2.12,4.67l-1.68.48h8.68l-1.19-.26c.75-1.32,1.68-3.3,2.29-4.89h-10.22Z"/><path class="cls-2" d="M238.78,211.02c2.2-1.28,5.11-3.13,7.97-5.02l1.59,3.96c-2.6,1.98-5.42,4.01-7.93,5.73l-1.45-2.51.13,1.28c-5.46,1.15-11.28,2.38-15.73,3.22l-.97-4.76c1.85-.26,4.05-.62,6.48-1.01v-11.5h-5.99v-4.41h5.99v-3.22h-3.88v-1.98c-.26.26-.57.53-.84.79-.66-1.01-2.12-2.73-3.13-3.39,3.7-3.13,6.26-7.27,7.62-10.66h4.32c2.6,2.16,5.81,5.29,7.36,7.58l-2.78,3.3h.4v4.36h-4.54v3.22h5.46v4.41h-5.46v10.66l5.29-.93.09.88ZM226.66,202.08c.71,2.42,1.32,5.55,1.54,7.58l-3.52.97c-.09-2.12-.71-5.29-1.37-7.71l3.35-.84ZM236.53,188.42c-1.23-1.81-3.17-4.27-5.02-6.04-1.1,1.89-2.51,3.97-4.27,6.04h9.3ZM233.89,208.86c.57-1.94,1.28-5.07,1.54-7.14l3.79.93c-.79,2.47-1.5,5.29-2.16,7.09l-3.17-.88ZM255.69,203.88c1.85,3.26,4.49,6.34,8.06,8.19-1.06.93-2.6,2.95-3.35,4.32-3.13-2.03-5.51-5.2-7.22-8.5v5.77c0,2.2-.31,3.44-1.67,4.14-1.37.75-3.08.84-5.55.84-.13-1.32-.66-3.17-1.23-4.54,1.23.09,2.55.04,3,.04.48,0,.62-.13.62-.57v-17.27h-9.08v-4.45h15.33v-2.25h-12.25v-3.97h12.25v-2.38h-13.22v-4.32h18.06v12.91h3.26v4.45h-9.52v1.45c.44,1.5,1.01,3.13,1.81,4.71,1.37-1.5,3-3.66,3.97-5.29l4.1,2.51c-1.76,2.03-3.74,4.1-5.29,5.55l-2.07-1.37ZM242.92,197.85c1.76,1.54,3.7,3.88,4.54,5.55l-3.66,2.42c-.75-1.63-2.64-4.05-4.32-5.77l3.44-2.2Z"/><path class="cls-2" d="M282.03,208.77c-.66-1.41-1.89-3.7-3.17-5.73v15.46h-4.85v-15.55c-1.41,4.1-3.17,8.19-5.07,10.84-.44-1.59-1.59-3.96-2.38-5.42,2.2-2.69,4.45-7.4,5.82-11.41h-5.02v-4.89h6.65v-14.41h4.85v14.41h6.52v4.89h-6.52v.31c1.28,1.28,5.46,6.21,6.39,7.45l-3.22,4.05ZM269.3,191.28c-.09-2.73-.97-7-1.98-10.18l3.66-.97c1.15,3.17,2.03,7.36,2.25,10.09l-3.92,1.06ZM286.17,180.89c-1.15,3.52-2.42,7.71-3.52,10.27l-3.31-.93c.88-2.78,1.94-7.22,2.42-10.31l4.41.97ZM303.27,206.7v11.9h-4.93v-11.01l-12.29,2.2-.79-4.89,13.08-2.33v-25.11h4.93v24.23l4.49-.84.79,4.89-5.29.97ZM288.2,190.71c2.55,1.37,5.82,3.48,7.4,5.07l-2.64,4.19c-1.45-1.63-4.67-3.97-7.22-5.51l2.47-3.74ZM294.59,189.12c-1.36-1.72-4.41-4.1-6.83-5.73l2.51-3.52c2.47,1.45,5.6,3.7,7,5.33l-2.69,3.92Z"/><rect class="cls-4" y="253.19" width="394.46" height="82.12" rx="37.78" ry="37.78"/><path class="cls-2" d="M79.13,304.05c-.84-1.28-2.29-3.13-3.74-4.8v15.82h-5.15v-14.36c-1.41,1.5-2.82,2.78-4.23,3.88-.48-1.28-1.85-3.83-2.69-4.76,4.27-3,8.59-8.15,11.28-13.39h-10.04v-4.71h5.68v-7.75h5.15v7.75h1.89l.84-.22,2.95,1.94c-1.32,3.61-3.22,7.18-5.42,10.44.35.31.75.66,1.19,1.06,1.14-1.5,2.42-3.48,3.17-4.89l3.35,2.78c-1.54,1.5-2.91,3.08-4.1,4.32,1.32,1.28,2.51,2.42,3,2.95l-3.13,3.96ZM104.15,277.31s0,1.94-.04,2.64c-.4,22.03-.79,29.69-2.51,32.07-1.14,1.76-2.25,2.33-3.92,2.64-1.59.31-4.01.26-6.39.22-.09-1.54-.7-3.88-1.63-5.42,2.29.18,4.36.18,5.42.18.71,0,1.15-.18,1.63-.84,1.23-1.45,1.72-8.55,2.03-26.57h-6.39c-.35,12.73-1.54,25.42-11.37,32.87-.88-1.41-2.51-3.13-3.88-4.14,9.03-6.34,9.69-17.49,9.91-28.72h-6.34v-4.93h23.48Z"/><path class="cls-2" d="M144.54,308.37c0,3.17-.75,4.67-2.78,5.55-2.12.93-5.2,1.01-9.74,1.01-.31-1.54-1.37-4.05-2.2-5.51,3.08.18,6.79.13,7.75.13,1.06,0,1.41-.35,1.41-1.28v-6.39h-18.86c-1.15,4.93-3.35,9.74-7.45,13.17-.79-1.1-2.91-3.04-4.05-3.79,6.65-5.68,7.27-14.1,7.27-20.79v-14.49h28.64v32.38ZM138.99,296.83v-5.38h-17.67c-.04,1.67-.13,3.52-.31,5.38h17.98ZM121.32,281.1v5.38h17.67v-5.38h-17.67Z"/><path class="cls-2" d="M182.99,274.4c2.78,5.6,8.28,11.98,13.08,15.68-1.41,1.1-3.44,3.22-4.45,4.71-.93-.84-1.85-1.81-2.82-2.82v.31c-.49,13.31-1.01,18.5-2.56,20.35-1.1,1.41-2.29,1.85-4.01,2.07-1.5.22-4.05.22-6.65.13-.09-1.59-.79-3.79-1.72-5.29,2.42.18,4.71.22,5.81.22.79,0,1.28-.09,1.76-.62.88-.93,1.37-4.85,1.76-14.05h-8.68c-1.1,8.46-3.97,15.99-15.38,20.27-.66-1.5-2.2-3.66-3.48-4.85,9.96-3.22,12.25-8.99,13.13-15.42h-7.45v-3.08c-1.15,1.19-2.34,2.25-3.52,3.17-.97-1.19-3.22-3.3-4.49-4.23,5.51-3.7,10.35-9.78,13-16.48l5.64,1.63c-2.16,5.07-5.24,9.91-8.72,13.88h23.79c-3.48-4.05-6.78-8.9-9.21-13.53l5.16-2.07Z"/><path class="cls-2" d="M234.84,308.37c0,3.17-.75,4.67-2.78,5.55-2.12.93-5.2,1.01-9.74,1.01-.31-1.54-1.37-4.05-2.2-5.51,3.08.18,6.79.13,7.75.13,1.06,0,1.41-.35,1.41-1.28v-6.39h-18.86c-1.15,4.93-3.35,9.74-7.45,13.17-.79-1.1-2.91-3.04-4.05-3.79,6.65-5.68,7.27-14.1,7.27-20.79v-14.49h28.64v32.38ZM229.29,296.83v-5.38h-17.67c-.04,1.67-.13,3.52-.31,5.38h17.98ZM211.62,281.1v5.38h17.67v-5.38h-17.67Z"/><path class="cls-2" d="M254.79,288.72c-2.33,1.67-4.89,3.17-7.45,4.41-.62-1.28-1.98-3.26-3.08-4.41,7.49-3.3,14.49-9.56,17.8-14.76h5.46c4.67,6.48,11.68,11.5,18.64,13.97-1.32,1.37-2.47,3.26-3.39,4.8-2.42-1.15-4.98-2.6-7.4-4.27v3.48h-20.58v-3.22ZM246.99,295.59h36.43v4.85h-19.74c-1.28,2.6-2.73,5.33-4.05,7.8,4.23-.13,8.77-.31,13.26-.48-1.36-1.59-2.86-3.17-4.32-4.49l4.63-2.42c3.92,3.44,8.02,8.02,10.09,11.32l-4.89,2.95c-.44-.84-1.06-1.76-1.76-2.73-10.35.57-21.23,1.01-28.72,1.37l-.7-5.11,6.65-.22c1.19-2.47,2.42-5.38,3.35-7.97h-10.22v-4.85ZM273.47,287.13c-3.39-2.55-6.43-5.42-8.46-8.15-1.89,2.69-4.71,5.55-8.06,8.15h16.52Z"/><path class="cls-2" d="M318.57,308.37c4.23,1.37,8.85,3.04,11.63,4.23l-5.82,2.51c-2.6-1.32-7.18-3.17-11.76-4.67l3.35-2.07h-11.76l3.48,1.59c-3.66,2.16-9.25,4.14-13.75,5.24-.84-1.01-2.69-2.86-3.79-3.74,4.1-.71,8.59-1.81,11.67-3.08h-5.99v-13.08c-1.01.22-2.07.4-3.26.57-.44-1.1-1.67-3.08-2.47-4.05,5.46-.7,8.64-1.81,10.44-3.26h-3.88l-.13.4-4.76-.31c.97-2.16,2.03-5.33,2.78-7.93h8.37v-1.76h-10v-3.08h10v-1.89h4.76v1.89h4.89v-1.89h4.98v1.89h9.34v7.89h-9.34v1.72h12.2s-.04.88-.09,1.37c-.22,2.86-.49,4.45-1.23,5.24-.66.66-1.63,1.01-2.55,1.06-.18,0-.4.04-.66.04v15.2h-6.65ZM297.82,285.46h4.8c.18-.53.26-1.1.26-1.72h-4.49l-.57,1.72ZM319.89,294.45h-18.94v1.72h18.94v-1.72ZM319.89,298.99h-18.94v1.76h18.94v-1.76ZM300.95,305.37h18.94v-1.81h-18.94v1.81ZM306.72,288.54c-.48,1.06-1.19,2.03-2.16,2.91h8.02v-2.91h-5.86ZM312.58,283.74h-4.89l-.13,1.72h5.02v-1.72ZM307.69,280.7h4.89v-1.76h-4.89v1.76ZM317.56,278.94v1.76h4.58v-1.76h-4.58ZM317.56,288.54v2.91h3.83c-.13-.53-.35-1.06-.53-1.45,1.01.13,1.94.18,2.42.13.4,0,.66,0,.93-.31.18-.22.31-.62.4-1.28h-7.05Z"/><rect class="cls-4" y="349.62" width="394.46" height="82.12" rx="37.78" ry="37.78"/><path class="cls-2" d="M76.79,394.93c-3.08,3.57-6.65,7.4-9.65,10.35l-3.35-4.45c2.42-2.38,6.34-6.43,9.96-10.44l3.04,4.54ZM72.69,383.56c-1.54-1.89-4.98-4.71-7.71-6.65l3.79-3.83c2.6,1.67,6.17,4.32,7.84,6.17l-3.92,4.32ZM91.99,387.66c0,4.71,2.64,14.32,13.44,19.03-1.01,1.28-2.51,3.44-3.35,4.8-7.89-3.61-11.98-11.37-12.82-15.29-1.06,3.92-5.55,11.41-14.45,15.29-.62-1.23-2.25-3.44-3.17-4.41,11.9-4.76,14.85-14.49,14.85-19.39v-4.54h-3.52c-1.32,3.13-2.91,5.9-4.58,8.06-1.06-.84-3.61-2.25-4.93-2.86,3.74-4.05,6.39-10.84,7.75-17.89l5.46,1.01c-.48,2.2-1.06,4.36-1.76,6.43h15.16l1.01-.26,3.88,2.25c-1.23,4.41-3.35,8.94-5.07,12.12-1.06-.62-3.22-1.67-4.45-2.16.88-1.67,1.98-4.19,2.78-6.7h-6.21v4.49Z"/><path class="cls-2" d="M144.54,404.79c0,3.17-.75,4.67-2.78,5.55-2.12.93-5.2,1.01-9.74,1.01-.31-1.54-1.37-4.05-2.2-5.51,3.08.18,6.79.13,7.75.13,1.06,0,1.41-.35,1.41-1.28v-6.39h-18.86c-1.15,4.93-3.35,9.74-7.45,13.17-.79-1.1-2.91-3.04-4.05-3.79,6.65-5.68,7.27-14.1,7.27-20.79v-14.49h28.64v32.38ZM138.99,393.25v-5.38h-17.67c-.04,1.67-.13,3.52-.31,5.38h17.98ZM121.32,377.52v5.38h17.67v-5.38h-17.67Z"/><path class="cls-2" d="M182.99,370.83c2.78,5.6,8.28,11.98,13.08,15.68-1.41,1.1-3.44,3.22-4.45,4.71-.93-.84-1.85-1.81-2.82-2.82v.31c-.49,13.31-1.01,18.5-2.56,20.35-1.1,1.41-2.29,1.85-4.01,2.07-1.5.22-4.05.22-6.65.13-.09-1.59-.79-3.79-1.72-5.29,2.42.18,4.71.22,5.81.22.79,0,1.28-.09,1.76-.62.88-.93,1.37-4.85,1.76-14.05h-8.68c-1.1,8.46-3.97,15.99-15.38,20.27-.66-1.5-2.2-3.66-3.48-4.85,9.96-3.22,12.25-8.99,13.13-15.42h-7.45v-3.08c-1.15,1.19-2.34,2.25-3.52,3.17-.97-1.19-3.22-3.3-4.49-4.23,5.51-3.7,10.35-9.78,13-16.48l5.64,1.63c-2.16,5.07-5.24,9.91-8.72,13.88h23.79c-3.48-4.05-6.78-8.9-9.21-13.53l5.16-2.07Z"/><path class="cls-2" d="M234.84,404.79c0,3.17-.75,4.67-2.78,5.55-2.12.93-5.2,1.01-9.74,1.01-.31-1.54-1.37-4.05-2.2-5.51,3.08.18,6.79.13,7.75.13,1.06,0,1.41-.35,1.41-1.28v-6.39h-18.86c-1.15,4.93-3.35,9.74-7.45,13.17-.79-1.1-2.91-3.04-4.05-3.79,6.65-5.68,7.27-14.1,7.27-20.79v-14.49h28.64v32.38ZM229.29,393.25v-5.38h-17.67c-.04,1.67-.13,3.52-.31,5.38h17.98ZM211.62,377.52v5.38h17.67v-5.38h-17.67Z"/><path class="cls-2" d="M254.79,385.14c-2.33,1.67-4.89,3.17-7.45,4.41-.62-1.28-1.98-3.26-3.08-4.41,7.49-3.3,14.49-9.56,17.8-14.76h5.46c4.67,6.48,11.68,11.5,18.64,13.97-1.32,1.37-2.47,3.26-3.39,4.8-2.42-1.15-4.98-2.6-7.4-4.27v3.48h-20.58v-3.22ZM246.99,392.02h36.43v4.85h-19.74c-1.28,2.6-2.73,5.33-4.05,7.8,4.23-.13,8.77-.31,13.26-.48-1.36-1.59-2.86-3.17-4.32-4.49l4.63-2.42c3.92,3.44,8.02,8.02,10.09,11.32l-4.89,2.95c-.44-.84-1.06-1.76-1.76-2.73-10.35.57-21.23,1.01-28.72,1.37l-.7-5.11,6.65-.22c1.19-2.47,2.42-5.38,3.35-7.97h-10.22v-4.85ZM273.47,383.56c-3.39-2.55-6.43-5.42-8.46-8.15-1.89,2.69-4.71,5.55-8.06,8.15h16.52Z"/><path class="cls-2" d="M318.57,404.79c4.23,1.37,8.85,3.04,11.63,4.23l-5.82,2.51c-2.6-1.32-7.18-3.17-11.76-4.67l3.35-2.07h-11.76l3.48,1.59c-3.66,2.16-9.25,4.14-13.75,5.24-.84-1.01-2.69-2.86-3.79-3.74,4.1-.71,8.59-1.81,11.67-3.08h-5.99v-13.08c-1.01.22-2.07.4-3.26.57-.44-1.1-1.67-3.08-2.47-4.05,5.46-.7,8.64-1.81,10.44-3.26h-3.88l-.13.4-4.76-.31c.97-2.16,2.03-5.33,2.78-7.93h8.37v-1.76h-10v-3.08h10v-1.89h4.76v1.89h4.89v-1.89h4.98v1.89h9.34v7.89h-9.34v1.72h12.2s-.04.88-.09,1.37c-.22,2.86-.49,4.45-1.23,5.24-.66.66-1.63,1.01-2.55,1.06-.18,0-.4.04-.66.04v15.2h-6.65ZM297.82,381.88h4.8c.18-.53.26-1.1.26-1.72h-4.49l-.57,1.72ZM319.89,390.87h-18.94v1.72h18.94v-1.72ZM319.89,395.41h-18.94v1.76h18.94v-1.76ZM300.95,401.8h18.94v-1.81h-18.94v1.81ZM306.72,384.97c-.48,1.06-1.19,2.03-2.16,2.91h8.02v-2.91h-5.86ZM312.58,380.17h-4.89c-.04.57-.09,1.15-.13,1.72h5.02v-1.72ZM307.69,377.13h4.89v-1.76h-4.89v1.76ZM317.56,375.36v1.76h4.58v-1.76h-4.58ZM317.56,384.97v2.91h3.83c-.13-.53-.35-1.06-.53-1.45,1.01.13,1.94.18,2.42.13.4,0,.66,0,.93-.31.18-.22.31-.62.4-1.28h-7.05Z"/><polyline class="cls-1" points="372.2 197.11 443.98 197.11 443.98 391.88 364 391.88"/><line class="cls-1" x1="372.2" y1="294.49" x2="443.98" y2="294.49"/><path class="cls-4" d="M305.41,779.59c2.22,0,4.03,1.81,4.03,4.03s-1.81,4.03-4.03,4.03c-.8,0-1.54-.23-2.15-.64l1.38,3.25c-1.31.54-2.82,1.17-3.93,1.58-3.39,1.34-8.79,3.02-13.15,4.09v6.21c0,1.44.67,1.81,2.18,2.11,1.01.13,2.38.2,3.89.2,3.49,0,8.93-.44,11.68-1.17v4.9c-3.15.47-8.25.7-11.95.7-2.18,0-4.19-.13-5.64-.37-2.92-.54-4.6-2.15-4.6-5.03v-18.29c0-.74-.1-2.48-.27-3.49h4.97c-.17,1.01-.27,2.55-.27,3.49v6.34c3.96-.97,8.62-2.45,11.61-3.72,1.07-.4,2.08-.87,3.22-1.54-.6-.7-.97-1.64-.97-2.65,0-2.21,1.78-4.03,3.99-4.03ZM305.41,785.57c1.07,0,1.95-.87,1.95-1.95s-.87-1.95-1.95-1.95-1.91.87-1.91,1.95.87,1.95,1.91,1.95Z"/><path class="cls-4" d="M335.21,792.85c-.27,1.98-1.14,7.75-1.64,10.94h2.15c.87,0,2.42-.03,3.29-.13v4.33c-.67-.03-2.32-.1-3.22-.1h-17.65c-1.21,0-2.05.03-3.32.1v-4.36c.9.1,2.15.17,3.32.17h10.87c.47-2.85,1.21-7.62,1.31-9.5h-9.06c-1.07,0-2.38.1-3.36.17v-4.43c.87.1,2.42.2,3.32.2h8.59c.7,0,2.08-.13,2.48-.37l3.25,1.58c-.17.44-.27,1.07-.34,1.41Z"/><path class="cls-4" d="M373.69,786.47c-1.58,2.62-4.76,6.85-8.05,9.19l-3.49-2.79c2.68-1.64,5.3-4.6,6.17-6.24h-17.48c-1.41,0-2.52.1-4.09.23v-4.66c1.28.2,2.68.34,4.09.34h18.09c.94,0,2.78-.1,3.42-.3l2.65,2.48c-.37.44-1.01,1.24-1.31,1.74ZM352.01,809.32l-3.93-3.19c1.07-.37,2.28-.94,3.52-1.85,4.26-2.95,5.07-6.51,5.07-12.01,0-1.04-.07-1.95-.23-3.02h4.86c0,8.32-.17,15.17-9.29,20.07Z"/><path class="cls-4" d="M403.93,786.77c-1.14,2.62-3.02,6.21-5.27,9.23,3.32,2.89,7.38,7.18,9.36,9.6l-3.82,3.32c-2.18-3.02-5.3-6.44-8.46-9.5-3.56,3.76-8.02,7.25-12.62,9.43l-3.46-3.62c5.4-2.01,10.6-6.11,13.76-9.63,2.21-2.52,4.26-5.84,5-8.22h-11.38c-1.41,0-3.25.2-3.96.24v-4.76c.91.13,2.95.23,3.96.23h11.84c1.44,0,2.79-.2,3.46-.44l2.75,2.05c-.27.37-.87,1.41-1.18,2.08Z"/><path class="cls-4" d="M418.67,784.93c0-1.17-.1-2.85-.34-4.03h5.23c-.13,1.17-.3,2.65-.3,4.03v4.97c4.5,1.31,10.94,3.69,14.03,5.2l-1.91,4.63c-3.46-1.81-8.49-3.76-12.11-5v9.5c0,.97.17,3.32.3,4.7h-5.23c.2-1.34.34-3.36.34-4.7v-19.29Z"/><path class="cls-4" d="M447.09,803.92v-18.19c0-1.28-.17-2.85-.37-3.83h5.27c-.2,1.31-.34,2.52-.34,3.83v17.45c5.47-1.58,12.95-5.87,17.25-11.11l2.38,3.79c-4.6,5.5-11.54,9.5-19.46,12.08-.47.17-1.21.4-1.98.91l-3.19-2.75c.4-.84.44-1.41.44-2.18Z"/><path class="cls-4" d="M487.96,799.89c5.74-3.39,10.1-8.52,12.21-13.05l2.62,4.73c-2.55,4.53-7.01,9.16-12.42,12.42-3.39,2.05-7.72,3.93-12.45,4.73l-2.82-4.43c5.23-.74,9.6-2.45,12.85-4.4ZM487.96,789.05l-3.42,3.49c-1.75-1.88-5.94-5.54-8.39-7.25l3.15-3.36c2.35,1.58,6.71,5.07,8.66,7.11Z"/><path class="cls-4" d="M535.5,784.56l-2.48,1.04,2.85,1.75c-.37.64-.84,1.58-1.11,2.42-.91,2.99-2.82,7.45-5.87,11.17-3.19,3.93-7.21,6.98-13.52,9.5l-3.96-3.56c6.84-2.05,10.57-4.97,13.52-8.32,2.28-2.58,4.23-6.64,4.77-9.13h-9.43c-2.25,2.92-5.17,5.87-8.49,8.12l-3.76-2.82c5.87-3.56,8.82-7.92,10.47-10.8.5-.81,1.21-2.35,1.51-3.49l4.93,1.61c-.8,1.17-1.68,2.68-2.05,3.42-.03.07-.07.1-.1.17h6.71c1.04,0,2.18-.17,2.92-.4l.24.13c-.67-1.34-1.61-3.12-2.45-4.33l2.65-1.07c.84,1.21,2.05,3.36,2.65,4.6ZM539.53,783.02l-2.65,1.14c-.7-1.41-1.78-3.36-2.72-4.63l2.65-1.07c.87,1.24,2.11,3.39,2.72,4.56Z"/><path class="cls-4" d="M567.99,786.77c-1.14,2.62-3.02,6.21-5.27,9.23,3.32,2.89,7.38,7.18,9.36,9.6l-3.82,3.32c-2.18-3.02-5.3-6.44-8.46-9.5-3.56,3.76-8.02,7.25-12.62,9.43l-3.46-3.62c5.4-2.01,10.6-6.11,13.76-9.63,2.21-2.52,4.26-5.84,5-8.22h-11.38c-1.41,0-3.25.2-3.96.24v-4.76c.91.13,2.95.23,3.96.23h11.84c1.44,0,2.79-.2,3.46-.44l2.75,2.05c-.27.37-.87,1.41-1.18,2.08Z"/><path class="cls-4" d="M584.65,784.52c-.5,2.25-1.61,9.63-1.61,12.99,0,.67.03,1.51.13,2.18.44-1.17,1.01-2.32,1.51-3.46l2.05,1.68c-.94,2.75-2.01,6.17-2.42,7.99-.1.47-.17,1.21-.17,1.58,0,.34.03.91.07,1.38l-3.79.3c-.7-2.35-1.34-6.17-1.34-10.74,0-5.07,1.01-11.41,1.38-13.99.13-.94.3-2.21.34-3.29l4.63.4c-.27.67-.67,2.38-.77,2.99ZM601.59,783.35c-.03.74-.07,1.98-.1,3.46,1.85-.17,3.59-.44,5.2-.77v4.19c-1.61.24-3.36.44-5.2.57.07,3.25.24,5.94.37,8.22,2.78,1.14,4.9,2.85,6.51,4.33l-2.32,3.52c-1.41-1.31-2.75-2.48-4.09-3.39-.2,3.22-2.01,5.5-6.54,5.5s-7.52-1.95-7.52-5.47,2.89-5.74,7.45-5.74c.77,0,1.51.03,2.18.13-.07-2.08-.2-4.53-.23-6.91-.81.03-1.61.03-2.38.03-1.98,0-3.89-.07-5.87-.2v-3.99c1.91.2,3.86.3,5.87.3.77,0,1.58,0,2.35-.03,0-1.64-.03-3.02-.03-3.72,0-.5-.1-1.54-.24-2.21h4.8c-.1.64-.17,1.44-.2,2.18ZM594.95,805.03c2.05,0,2.75-1.07,2.75-3.05v-.6c-.87-.23-1.78-.37-2.68-.37-1.91,0-3.19.81-3.19,2.08,0,1.38,1.34,1.95,3.12,1.95Z"/><path class="cls-4" d="M643.29,783.65v3.82h-17.95c-1.11,2.32-2.38,4.56-3.93,6.61v16.24h-4.06v-11.68c-.94.87-1.88,1.61-2.95,2.35-.44-1.07-1.34-2.89-1.98-3.86,3.52-2.28,6.34-5.8,8.36-9.66h-7.28v-3.82h9.06c.57-1.58,1.07-3.12,1.48-4.66l4.19,1.01c-.37,1.24-.81,2.45-1.28,3.66h16.34ZM635.24,805.83h7.95v3.69h-20.1v-3.69h8.12v-7.65h-6.81v-3.69h6.81v-5.57h4.03v5.57h6.64v3.69h-6.64v7.65Z"/><path class="cls-4" d="M679.99,784.96h-4.8c.17.44.34.84.44,1.14l-1.64.64h2.85v2.42h2.72v2.79h-2.72v2.48h3.09v2.95h-16.84l.03,2.82h-3.93c1.51,1.28,3.96,3.52,4.63,4.19l-2.15,2.72c-.74-.91-1.95-2.25-3.12-3.52v6.85h-3.76v-5.74c-1.21,1.68-2.55,3.25-3.83,4.4-.4-.84-1.21-2.22-1.91-2.92,1.78-1.31,3.79-3.66,5.1-5.97h-4.36v-2.82h5v-1.38h-3.93v-2.75h3.93v-1.41h-4.43v-2.82h4.43v-2.21h3.22c-.24-.6-.57-1.21-.91-1.85h-1.51c-.97,1.44-2.05,2.79-3.05,3.83-.77-.67-2.42-1.78-3.32-2.28,2.18-1.78,4.13-4.73,5.2-7.58l3.86,1.04c-.24.57-.54,1.17-.81,1.78h7.42v3.22h-3.76c.37.67.67,1.31.84,1.85l-3.42,1.38v.84h4.06v2.82h-4.06v1.41h3.52v2.75h-3.52v1.38h4.5l-.03-2.95h3.62v-2.48h-2.95v-2.79h2.95v-1.27c-.84-.6-1.98-1.38-2.79-1.81,1.85-1.64,3.39-4.33,4.16-7.01l3.89.94c-.17.57-.37,1.14-.6,1.74h8.69v3.22ZM665.23,798.62h13.05v11.64h-3.83v-.81h-5.6v.91h-3.62v-11.74ZM672.21,787.41c-.14-.67-.47-1.58-.87-2.45h-1.64c-.37.64-.77,1.21-1.18,1.78h1.78v2.42h2.89v-2.11l-.97.37ZM668.85,801.23v1.61h5.6v-1.61h-5.6ZM674.46,806.87v-1.64h-5.6v1.64h5.6ZM673.18,791.94h-2.89v2.48h2.89v-2.48Z"/><path class="cls-4" d="M693.55,803.75c-1.18,2.45-3.15,5.07-4.97,6.71-.74-.7-2.28-1.85-3.19-2.38,1.75-1.31,3.49-3.42,4.43-5.44l3.72,1.11ZM702.14,802.41h-16.48v-3.49h3.02v-12.45h-2.62v-3.49h2.62v-3.56h3.59v3.56h4.16v-3.56h3.66v3.56h2.28v3.49h-2.28v12.45h2.05v3.49ZM692.28,786.47v1.95h4.16v-1.95h-4.16ZM692.28,793.58h4.16v-2.11h-4.16v2.11ZM692.28,798.92h4.16v-2.28h-4.16v2.28ZM715.93,805.93c0,1.98-.37,3.02-1.54,3.66-1.17.64-2.89.74-5.37.7-.13-1.04-.64-2.79-1.14-3.79,1.44.1,3.05.07,3.52.07.5,0,.67-.17.67-.7v-6.61h-5.1c-.37,3.96-1.21,8.15-3.02,11.17-.64-.7-2.28-1.91-3.15-2.25.1-.2.24-.37.34-.57l-2.78,1.58c-.67-1.31-2.28-3.52-3.59-5.07l3.02-1.64c1.21,1.34,2.79,3.19,3.62,4.56,1.95-4.19,2.11-9.86,2.11-14.23v-12.31h12.42v25.43ZM712.07,795.7v-4.13h-4.83v1.24c0,.87,0,1.85-.03,2.89h4.87ZM707.24,784.12v3.93h4.83v-3.93h-4.83Z"/><path class="cls-4" d="M727.77,792.41v17.95h-3.96v-30.06h12.85v12.11h-8.89ZM727.77,783.18v1.78h5.17v-1.78h-5.17ZM732.94,789.56v-1.91h-5.17v1.91h5.17ZM752.13,805.63c0,2.15-.44,3.32-1.78,3.96-1.31.67-3.25.77-6.14.77-.1-.84-.47-2.08-.87-3.12h-8.32v1.71h-3.62v-14.5h1.64v-.03l11.27.03v11.88c1.31.03,2.55.03,2.99,0,.6,0,.8-.2.8-.74v-13.12h-9.13v-12.18h13.15v25.33ZM740.55,797.38h-5.54v2.01h5.54v-2.01ZM740.55,804.32v-2.08h-5.54v2.08h5.54ZM742.77,783.18v1.78h5.33v-1.78h-5.33ZM748.1,789.63v-1.98h-5.33v1.98h5.33Z"/><path class="cls-4" d="M775.25,809.02l-2.52-3.99c1.28-.13,2.21-.34,3.12-.54,4.29-1.01,7.65-4.09,7.65-8.99,0-4.63-2.52-8.09-7.05-8.86-.47,2.85-1.04,5.94-2.01,9.09-2.01,6.78-4.9,10.94-8.56,10.94s-6.81-4.09-6.81-9.76c0-7.75,6.71-14.36,15.4-14.36s13.56,5.77,13.56,13.09-4.33,12.08-12.78,13.39ZM766.03,801.5c1.41,0,2.72-2.11,4.09-6.64.77-2.48,1.41-5.34,1.78-8.12-5.54,1.14-8.52,6.04-8.52,9.73,0,3.39,1.34,5.03,2.65,5.03Z"/><path class="cls-4" d="M814.68,801.1c2.78,2.35,6.81,4.33,10.67,5.37-.87.81-2.08,2.38-2.65,3.32-3.99-1.38-8.09-3.93-11.14-6.95v7.52h-4.03v-7.48c-2.99,3.09-7.08,5.67-11.07,7.11-.6-.97-1.75-2.45-2.58-3.25,3.89-1.07,7.95-3.19,10.7-5.64h-9.9v-3.52h12.85v-2.79h4.03v2.79h12.95v3.52h-9.83ZM819.88,783.12c-1.51,2.89-3.69,5.23-6.27,7.18,3.39,1.27,7.31,2.15,11.61,2.62-.81.87-1.85,2.55-2.35,3.56-4.93-.67-9.33-1.95-13.09-3.79-3.99,2.11-8.66,3.52-13.46,4.4-.37-1.07-1.21-2.68-1.84-3.56,4.03-.57,7.99-1.61,11.48-3.12-1.28-.91-2.45-1.91-3.52-3.02-1.38,1.04-2.92,2.05-4.63,2.95-.6-.94-1.91-2.32-2.82-2.95,4.93-2.21,8.15-5.4,9.83-8.39l4.39.77c-.4.67-.84,1.34-1.31,1.98h8.56l.7-.17,2.72,1.54ZM805.19,785.13c1.21,1.24,2.72,2.35,4.43,3.32,1.58-.97,2.95-2.08,4.06-3.32h-8.49Z"/><path class="cls-4" d="M841.66,780.36c-.91,2.38-2.01,4.83-3.29,7.15v22.82h-3.79v-16.88c-.67.84-1.34,1.68-2.01,2.42-.37-1.01-1.48-3.15-2.15-4.16,2.95-3.02,5.8-7.78,7.45-12.55l3.79,1.21ZM862,799.09h-8.59v11.27h-4.03v-11.27h-9.06v-3.89h9.06v-5.77h-4.09c-.6,1.64-1.34,3.15-2.08,4.33-.74-.54-2.48-1.48-3.46-1.91,1.81-2.62,3.19-6.88,3.96-10.97l3.86.81c-.27,1.31-.6,2.58-.97,3.86h2.79v-6.07h4.03v6.07h7.01v3.89h-7.01v5.77h8.59v3.89Z"/><path class="cls-4" d="M870.45,791.27c.97-.4,2.01-.84,3.02-1.28-.47-1.01-.97-1.98-1.48-2.85-.47-.84-1.31-2.08-1.98-2.95l4.36-1.68c.3.6.97,1.98,1.34,2.62.5.97,1.04,2.05,1.58,3.19,2.05-.91,4.09-1.75,6.04-2.38-1.21-1.24-3.36-3.32-4.63-4.29l3.09-2.15c1.21.91,3.72,3.09,4.87,4.29l-2.65,1.95c1.68-.5,3.32-.81,4.83-.81,5.2,0,8.32,3.15,8.32,7.05,0,4.7-3.22,7.68-8.35,7.68-1.81,0-3.89-.47-5.17-.94l.1-4.23c1.51.64,3.19,1.14,4.66,1.14,2.52,0,4.36-1.38,4.36-3.79,0-1.71-1.51-3.09-4.03-3.09s-6.27,1.38-9.86,3.02c.34.7.64,1.41.94,2.08,1.58,3.66,4.16,10.84,5.27,14.6l-4.6,1.21c-1.04-4.23-2.78-9.9-4.5-13.96-.3-.7-.6-1.41-.91-2.08-2.42,1.21-4.53,2.35-5.97,2.99l-1.98-4.26c1.31-.34,2.78-.84,3.32-1.07Z"/><path class="cls-4" d="M381.44,854.56h-5.7v5.54h-3.79v-5.54h-6.21v-3.42h6.21v-3.02h-2.78c-.4.97-.84,1.85-1.34,2.58-.57-.4-1.78-1.04-2.62-1.41v7.08c0,1.58-.27,2.58-1.28,3.15-1.04.57-2.42.67-4.46.67-.1-.97-.64-2.48-1.14-3.39,1.34.07,2.65.07,3.05.07s.57-.13.57-.57v-4.83h-6.68c-.34,3.15-1.11,6.41-2.65,8.83-.57-.54-2.01-1.44-2.75-1.78,2.25-3.46,2.42-8.46,2.42-12.21v-4.97c-.67-.67-1.91-1.68-2.62-2.15,2.28-2.45,4.06-6.37,4.97-10.3l3.52.74c-.2.81-.44,1.61-.7,2.38h3.05l.5-.17,2.28,1.41c-.47,1.31-1.14,2.85-1.85,4.23h3.76v2.05c2.79-1.28,3.79-3.22,4.26-5.67h-3.76v-3.25h14.9s-.03.84-.07,1.28c-.17,5.34-.47,7.65-1.17,8.52-.57.7-1.21.97-2.05,1.11-.74.1-2.05.13-3.39.1-.07-1.04-.4-2.38-.91-3.22,1.04.1,1.95.13,2.42.13.4,0,.67-.07.91-.37.3-.37.47-1.51.6-4.29h-3.89c-.57,3.49-1.84,6.27-5.27,8.15l2.99.6c-.13.7-.27,1.44-.47,2.15h1.64v-3.02h3.79v3.02h5.03v3.36h-5.03v3.02h5.7v3.42ZM356.34,835.03c-.37.84-.74,1.68-1.14,2.45h2.89c.34-.74.64-1.61.94-2.45h-2.68ZM355.51,846.31c0,.7,0,1.44-.03,2.21h1.91v-2.79h-1.88v.57ZM355.51,842.92h1.88v-2.52h-1.88v2.52ZM360.04,842.92h1.91v-2.52h-1.91v2.52ZM361.95,848.52v-2.79h-1.91v2.79h1.91ZM365.2,848.72c1.11-1.74,1.91-4.16,2.32-6.54-.24.1-.47.23-.7.34-.3-.67-.97-1.61-1.61-2.28v8.49Z"/><path class="cls-4" d="M391.64,849.09c-.34,3.15-1.04,6.51-2.01,8.66-.7-.44-2.18-1.14-3.05-1.44.97-1.98,1.51-4.97,1.78-7.78l3.29.57ZM417.75,834.56s0,1.34-.03,1.85c-.44,14.7-.91,20-2.32,21.78-.94,1.28-1.81,1.64-3.22,1.85-1.21.2-3.29.17-5.23.1-.07-1.14-.6-2.89-1.34-4.03,2.11.2,4.03.2,4.93.2.64,0,1.01-.13,1.41-.57,1.01-1.04,1.51-5.94,1.88-17.38h-9.26c-.91,1.64-1.85,3.12-2.85,4.33-.67-.6-2.15-1.61-3.15-2.22,1.17,2.11,2.25,4.6,2.62,6.27l-3.02,1.41c-.1-.54-.27-1.14-.47-1.81l-1.91.13v13.79h-3.52v-13.52l-4.97.34-.34-3.49,2.48-.1c.5-.64,1.04-1.34,1.54-2.08-.97-1.44-2.62-3.25-4.03-4.6l1.88-2.75c.27.23.54.47.81.7.94-1.85,1.88-4.09,2.45-5.84l3.52,1.24c-1.21,2.32-2.58,4.9-3.79,6.78.44.47.84.97,1.18,1.41,1.21-1.88,2.28-3.82,3.09-5.5l3.39,1.41c-1.88,2.95-4.23,6.37-6.41,9.09l3.39-.13c-.37-.81-.77-1.61-1.18-2.32l2.82-1.24.24.4c2.48-2.65,4.46-6.95,5.54-11.17l4.09.87c-.44,1.64-1.01,3.25-1.64,4.8h11.44ZM398.79,848.32c.91,1.98,1.78,4.6,2.18,6.31l-3.15,1.11c-.27-1.71-1.14-4.43-1.98-6.48l2.95-.94ZM406.64,851.74c-.64-2.11-2.38-5.33-4.09-7.75l3.19-1.61c1.74,2.32,3.66,5.4,4.36,7.52l-3.46,1.85Z"/><path class="cls-4" d="M440.2,858.89l-2.52-3.99c1.28-.13,2.21-.34,3.12-.54,4.29-1.01,7.65-4.09,7.65-8.99,0-4.63-2.52-8.09-7.05-8.86-.47,2.85-1.04,5.94-2.01,9.09-2.01,6.78-4.9,10.94-8.56,10.94s-6.81-4.09-6.81-9.76c0-7.75,6.71-14.36,15.4-14.36s13.56,5.77,13.56,13.09-4.33,12.08-12.78,13.39ZM430.98,851.37c1.41,0,2.72-2.11,4.09-6.64.77-2.48,1.41-5.34,1.78-8.12-5.54,1.14-8.52,6.04-8.52,9.73,0,3.39,1.34,5.03,2.65,5.03Z"/><path class="cls-4" d="M466.87,852.62c1.31,2.25,3.66,3.19,7.08,3.32,4.03.17,11.94.07,16.58-.3-.47.94-1.04,2.79-1.24,3.89-4.16.2-11.27.27-15.37.1-3.99-.17-6.68-1.14-8.69-3.72-1.34,1.31-2.72,2.58-4.43,4.03l-1.88-3.96c1.31-.84,2.82-1.95,4.16-3.09v-7.32h-3.76v-3.66h7.55v10.7ZM463.98,837.45c-.84-1.58-2.85-3.86-4.6-5.44l3.12-2.18c1.78,1.51,3.93,3.66,4.87,5.27l-3.39,2.35ZM489.86,837.85h-22.05v-2.68h5.97c.17-.47.3-.94.47-1.44h-4.26v-2.58h5.03c.23-.77.44-1.54.6-2.25l3.86.4c-.17.6-.37,1.21-.54,1.85h7.21v4.03h3.69v2.68ZM478.95,855.23v-2.01h-10.94v-2.72h3.49v-1.54h-2.55v-2.68h10v-1.11h-8.59v-6.24h16.71v6.24h-4.36v1.11h6.04v2.68h-6.04v1.54h6.95v2.72h-6.95v2.01h-3.76ZM473.98,842.85h9.19v-1.64h-9.19v1.64ZM478.95,850.5v-1.54h-3.83v1.54h3.83ZM477.68,835.17h4.8v-1.44h-4.33l-.47,1.44Z"/><path class="cls-4" d="M500.88,849.09c-.34,3.15-1.04,6.51-2.01,8.66-.7-.44-2.18-1.14-3.05-1.44.97-1.98,1.51-4.97,1.78-7.78l3.29.57ZM526.98,834.56s0,1.34-.03,1.85c-.44,14.7-.91,20-2.32,21.78-.94,1.28-1.81,1.64-3.22,1.85-1.21.2-3.29.17-5.23.1-.07-1.14-.6-2.89-1.34-4.03,2.11.2,4.03.2,4.93.2.64,0,1.01-.13,1.41-.57,1.01-1.04,1.51-5.94,1.88-17.38h-9.26c-.91,1.64-1.85,3.12-2.85,4.33-.67-.6-2.15-1.61-3.15-2.22,1.17,2.11,2.25,4.6,2.62,6.27l-3.02,1.41c-.1-.54-.27-1.14-.47-1.81l-1.91.13v13.79h-3.52v-13.52l-4.97.34-.34-3.49,2.48-.1c.5-.64,1.04-1.34,1.54-2.08-.97-1.44-2.62-3.25-4.03-4.6l1.88-2.75c.27.23.54.47.81.7.94-1.85,1.88-4.09,2.45-5.84l3.52,1.24c-1.21,2.32-2.58,4.9-3.79,6.78.44.47.84.97,1.18,1.41,1.21-1.88,2.28-3.82,3.09-5.5l3.39,1.41c-1.88,2.95-4.23,6.37-6.41,9.09l3.39-.13c-.37-.81-.77-1.61-1.18-2.32l2.82-1.24.24.4c2.48-2.65,4.46-6.95,5.54-11.17l4.09.87c-.44,1.64-1.01,3.25-1.64,4.8h11.44ZM508.02,848.32c.91,1.98,1.78,4.6,2.18,6.31l-3.15,1.11c-.27-1.71-1.14-4.43-1.98-6.48l2.95-.94ZM515.88,851.74c-.64-2.11-2.38-5.33-4.09-7.75l3.19-1.61c1.74,2.32,3.66,5.4,4.36,7.52l-3.46,1.85Z"/><path class="cls-4" d="M559.02,850.54c-1.28,1.85-2.58,3.89-3.76,5.3h7.58v3.42h-28.39v-3.42h6.54c-.5-1.51-1.61-3.76-2.79-5.4l3.05-1.31h-5.13v-3.42h10.2v-3.32h-6.17v-1.64c-1.58,1.14-3.29,2.21-5,3.12-.5-.94-1.61-2.38-2.48-3.22,5.7-2.78,11.07-7.82,13.56-11.84h4.13c3.62,5.07,9.03,9.29,14.33,11.44-1.01,1.01-1.91,2.35-2.65,3.59-1.68-.87-3.42-1.98-5.1-3.19v1.75h-6.41v3.32h10.33v3.42h-10.33v6.71h3.66l-2.18-.91c1.11-1.58,2.45-4.03,3.19-5.8l3.82,1.41ZM541.47,849.13c1.28,1.71,2.58,3.99,3.09,5.54l-2.75,1.17h4.53v-6.71h-4.87ZM554.66,838.89c-2.48-2.01-4.7-4.19-6.17-6.21-1.44,2.01-3.52,4.19-5.94,6.21h12.11Z"/><path class="cls-4" d="M592.97,847.08v2.01h5.67v3.36h-5.67v3.62c0,1.98-.4,2.92-1.85,3.52-1.41.57-3.32.6-5.8.6-.24-1.14-.91-2.68-1.44-3.72,1.71.07,3.72.07,4.26.07s.7-.13.7-.54v-3.56h-9.97c1.61,1.21,3.22,2.72,4.06,3.89l-3.09,2.48c-.94-1.51-3.12-3.59-5.07-5.03l1.78-1.34h-6.17v-3.36h18.45v-2.01h-19.73v-3.39h13.12v-1.91h-9.73v-3.29h9.73v-1.61h2.01c-.7-.44-1.44-.91-1.95-1.17.44-.34.84-.74,1.21-1.14h-4.5c.44.77.81,1.54,1.01,2.11l-3.42,1.41c-.24-.94-.91-2.32-1.54-3.52h-.34c-1.01,1.48-2.11,2.79-3.12,3.83-.77-.64-2.42-1.75-3.32-2.22,2.18-1.81,4.16-4.7,5.33-7.55l3.83,1.01c-.24.57-.5,1.11-.81,1.68h7.35v2.72c1.34-1.54,2.45-3.49,3.12-5.4l3.83.97c-.17.54-.44,1.14-.71,1.71h9.26v3.25h-5.57c.54.77,1.01,1.54,1.28,2.11l-3.42,1.44c-.37-.94-1.21-2.35-2.08-3.56h-1.31c-.64.97-1.28,1.85-1.98,2.58v1.34h10.17v3.29h-10.17v1.91h13.25v3.39h-6.68Z"/><path class="cls-4" d="M611.11,850.87c0,2.18,2.05,3.69,6.88,3.69,4.53,0,8.83-.5,11.78-1.31l.03,4.7c-2.92.7-6.95,1.17-11.64,1.17-7.68,0-11.54-2.58-11.54-7.21,0-1.95.4-3.56.64-4.83l4.43.4c-.34,1.21-.57,2.28-.57,3.39ZM631.27,834.4l-2.72,1.17c-.24-.5-.54-1.07-.84-1.64v3.76c-2.35.17-6.51.4-9.7.4-3.52,0-6.44-.17-9.16-.37v-4.46c2.48.3,5.6.44,9.13.44,3.19,0,6.81-.2,9.4-.44-.47-.87-.97-1.71-1.44-2.38l2.65-1.07c.84,1.21,2.05,3.36,2.68,4.6ZM635.3,832.85l-2.69,1.14c-.7-1.41-1.78-3.36-2.72-4.63l2.68-1.07c.87,1.24,2.11,3.39,2.72,4.56Z"/><path class="cls-4" d="M665.81,834.09l-.67.27.47,3.66c-1.74.5-3.86.91-6.01,1.21.97,2.18,2.18,4.26,3.02,5.47.57.84,1.17,1.58,1.81,2.25l-2.08,3.02c-1.88-.4-6.11-.81-8.93-1.04l.3-3.56c1.64.13,3.89.3,4.93.4-1.01-1.61-2.22-3.82-3.15-6.07-3.99.3-8.62.34-14.36-.13l-.07-4.29c5.07.6,9.36.7,12.95.47-.3-.77-.5-1.48-.71-2.05-.27-.77-.64-1.98-1.07-3.09l4.53-.54c.34,1.78.84,3.59,1.38,5.27,1.58-.24,3.09-.54,4.56-.91-.64-1.24-1.48-2.79-2.22-3.86l2.65-1.07c.84,1.24,2.05,3.36,2.65,4.6ZM646.18,851.24c0,2.82,2.52,3.99,7.11,4.03,3.66,0,6.61-.34,8.99-.81l-.23,4.23c-1.91.37-4.93.81-9.03.77-6.85,0-11.17-2.65-11.17-7.48,0-2.05.64-3.96,1.78-6.24l4.19.97c-1.07,1.58-1.64,3.05-1.64,4.53ZM669.87,832.62l-2.65,1.17c-.7-1.41-1.78-3.39-2.72-4.66l2.65-1.07c.91,1.28,2.11,3.39,2.72,4.56Z"/><path class="cls-4" d="M680.7,837.42c-.03,2.18,0,4.7.2,7.11.47,4.83,1.48,8.15,3.59,8.15,1.58,0,2.92-3.93,3.56-6.61l3.36,4.09c-2.22,5.84-4.33,7.89-7.01,7.89-3.69,0-6.88-3.32-7.82-12.31-.34-3.09-.37-7.01-.37-9.06,0-.94-.07-2.38-.27-3.42l5.17.07c-.23,1.21-.4,3.15-.4,4.09ZM703.99,851.48l-4.39,1.71c-.54-5.4-2.32-13.56-5.97-17.72l4.26-1.38c3.19,3.86,5.74,12.25,6.11,17.38Z"/><path class="cls-4" d="M726.16,832.55c-.03.34-.03.84-.03,1.38,2.75-.13,5.54-.4,8.49-.91l-.03,3.86c-2.22.27-5.27.57-8.52.74v3.46c3.39-.17,6.24-.44,8.96-.81l-.03,3.96c-3.02.34-5.64.57-8.86.67.07,1.27.14,2.65.24,3.99,4.23,1.21,7.45,3.46,9.4,5.07l-2.42,3.76c-1.81-1.68-4.09-3.46-6.78-4.66.03.47.03.87.03,1.24,0,2.85-2.18,5.07-6.61,5.07-5.37,0-8.19-2.05-8.19-5.6s3.12-5.77,8.29-5.77c.7,0,1.41.03,2.08.1-.07-1.04-.1-2.11-.14-3.12h-1.74c-1.95,0-5.77-.17-7.99-.44l-.03-3.96c2.18.4,6.31.64,8.09.64h1.61c0-1.11,0-2.32.03-3.46h-1.24c-2.11,0-6.01-.3-8.22-.6l-.1-3.82c2.42.4,6.24.74,8.29.74h1.31v-1.58c0-.64-.07-1.68-.2-2.32h4.53c-.1.67-.17,1.51-.2,2.38ZM719.38,855.57c1.78,0,2.95-.5,2.95-2.45,0-.37,0-.84-.03-1.44-.91-.13-1.81-.23-2.75-.23-2.38,0-3.69.94-3.69,2.08,0,1.28,1.21,2.05,3.52,2.05Z"/><path class="cls-4" d="M766.64,833.89c-.03,1.31-.03,2.52-.07,3.62.91-.07,1.74-.13,2.52-.17.94-.07,2.25-.13,3.22-.23v4.13c-.57-.03-2.35,0-3.22.03-.74.03-1.61.07-2.58.13-.1,2.55-.23,5.3-.5,6.71-.37,1.78-1.21,2.21-2.92,2.21-1.21,0-3.89-.34-5.07-.5l.1-3.72c1.04.24,2.42.44,3.09.44s.97-.13,1.04-.77c.14-.91.24-2.45.27-4.06-2.99.24-6.27.54-9.13.84-.03,3.09-.07,6.17,0,7.62.07,3.29.37,4.03,5.4,4.03,3.29,0,7.52-.4,10.03-.84l-.17,4.56c-2.25.27-6.37.54-9.56.54-8.69,0-9.73-1.81-9.9-7.62-.03-1.44-.03-4.7-.03-7.82-.91.1-1.68.17-2.25.23-1.07.13-3.15.47-4.03.6l-.47-4.29c.97,0,2.52-.07,4.23-.23.6-.07,1.48-.13,2.55-.23v-3.39c0-1.38-.1-2.52-.27-3.72h4.73c-.17,1.14-.2,2.08-.2,3.49,0,.77-.03,1.91-.03,3.22,2.85-.27,6.11-.57,9.16-.84v-3.79c0-.84-.13-2.42-.23-3.09h4.5c-.07.54-.17,2.01-.2,2.92Z"/><path class="cls-4" d="M793.43,833.96c-1.64,2.42-3.99,6.71-5.67,9.66,1.24-.7,2.58-1.01,3.86-1.01,2.52,0,4.03,1.58,4.16,4.36.07,1.51-.03,4.19.13,5.6.13,1.31,1.07,1.81,2.18,1.81,2.92,0,4.7-3.76,5.67-7.92l3.62,2.95c-1.74,5.74-4.87,9.56-10,9.56-3.73,0-5.47-2.21-5.6-4.66-.13-1.78-.1-4.53-.2-5.91-.1-1.17-.77-1.88-1.98-1.88-2.28,0-4.16,2.35-5.37,5.07-.87,1.95-2.05,5.7-2.55,7.48l-4.73-1.61c2.48-6.71,9.36-20.4,11.14-23.59.44-.91,1.07-2.01,1.64-3.42l4.77,1.91c-.34.47-.7,1.04-1.07,1.58Z"/><path class="cls-4" d="M823.36,854.43c0,2.99-2.42,5.44-5.43,5.44s-5.4-2.45-5.4-5.44,2.45-5.44,5.4-5.44,5.43,2.45,5.43,5.44ZM820.94,854.43c0-1.68-1.34-3.02-3.02-3.02s-2.99,1.34-2.99,3.02,1.38,3.02,2.99,3.02,3.02-1.34,3.02-3.02Z"/></g></svg>