<?xml version="1.0" encoding="UTF-8"?><svg id="_レイヤー_2" xmlns="http://www.w3.org/2000/svg" viewBox="0 0 748.41 596"><defs><style>.cls-1{fill:#000;}.cls-1,.cls-2,.cls-3{stroke-width:0px;}.cls-2,.cls-4{fill:none;}.cls-3{fill:#cf0066;}.cls-4{stroke:#000;stroke-miterlimit:10;stroke-width:10px;}</style></defs><g id="DESIGN"><path class="cls-1" d="M43.47,31.62c4.49-.38,5.53-.37,6.76-.06,3.07.94,3.42,2.16,3.14,10.15l-1.73,31.98-9.71.83,1.6-29.68c.2-4.6-.05-4.84-4.79-4.64l-3.5.3.44-8.22,7.78-.66Z"/><path class="cls-1" d="M98.09,34.58l-1.42,26.33c-.26,6.29-1.91,7.92-8.61,8.38l-22.14,1.89,1.84-34.01,30.33-2.59ZM89.42,62.98l.45-8.25-16.2,1.38-.45,8.25,16.2-1.38ZM90.18,48.94l.42-7.71-16.2,1.38-.42,7.71,16.2-1.38Z"/><path class="cls-1" d="M107.46,26.15l20.79-1.78c5.38-.46,8.87.34,10.63,2.48,1.51,1.8,2.31,5.27,2.11,8.99-.24,4.45-1.75,8.33-4.16,10.62-2.25,2.17-5.38,3.27-10.44,3.71l-5.59.48c-5.13.7-6.66,2.08-6.72,6.1l-.18,3.4,25.07-2.14-.45,8.27-34.83,2.98.52-9.58c.48-11.76,5.33-16.81,17.18-17.83l5.33-.46c3.66-.31,4.37-1.05,4.57-4.71.2-3.61-.75-4.31-5.56-3.9l-18.7,1.6.44-8.22Z"/><path class="cls-1" d="M172.69,20.37c2.98-.25,5.64.56,7.57,2.27,2.27,2.15,2.9,4.08,2.72,8.42l-1.11,20.46c-.17,6.94-5.11,11.79-12.25,12.09l-12.38,1.06c-7.48.9-11.29-2.63-10.89-10.06l1.11-20.57c.1-7.67,3.91-11.8,11.44-12.49l13.79-1.18ZM162.27,29.49c-3.82.43-4.81,1.5-5.14,5.6l-.88,16.22c-.17,5.07-.02,5.21,4.52,4.88l7.05-.6c3.55-.36,4.06-.97,4.33-5.06l.92-17.06c.2-3.66-.89-4.61-5.11-4.46l-5.69.49Z"/><path class="cls-1" d="M203.3,25.63c-1.63,4.72-4.13,8.64-7.5,11.8l17.81-1.52c-3.11-2.41-5.28-6.01-6.44-10.6l6.93-.59c1.23,4.06,3.76,6.67,8.1,8.21l-.4,7.33c-1.69-.51-1.95-.6-3.59-1.34-.58,8.68-.96,12.73-1.38,14.18-1.01,3.83-3.22,5.24-8.92,5.73l-4.33.37.31-5.72,3.26-.28c2.26-.19,2.85-.47,3.29-1.62.34-.68.64-3.46,1.13-9.72l-5.82.5c-1.67,10.46-7.49,16.65-17.87,18.95l.35-6.49c6.39-1.77,9.58-5.17,11.17-11.92l-7.97.68.16-3.03c-1.9,1.23-2.84,1.73-4.64,2.61l.35-6.52c4.33-1.9,7.38-5.44,8.91-10.39l7.08-.61Z"/><path class="cls-1" d="M227.32,28.2l5.71-.49.49-4.17,6.43-.55-.45,4.17,4.56-.39-.16,2.92,14.86-1.27-.34,6.22-15.51,1.33.17-3.11-4.71.4c-1.3,7.18-3,13.97-5.73,22.84l-6.78.58c2.61-7.41,4.26-13.85,5.85-22.85l-4.71.4.33-6.03ZM247.13,41.14c-1.44,2.68-1.84,3.71-1.89,4.63-.05.96.4,1.8,1.18,2.08.86.35,2.11.39,5.06.14,2.53-.22,4.07-.46,6.92-1.05l-.34,6.22c-3.12.61-5.46.93-8.6,1.19-3.37.29-5.57.09-7.21-.61-2.38-1.1-3.57-3.13-3.41-6.05.1-1.92.64-3.3,2.27-6.04l6.01-.51ZM254.31,21.12l-.32,5.91-3.6.31.32-5.91,3.6-.31ZM259.22,20.7l-.32,5.91-3.68.31.32-5.91,3.68-.31Z"/><path class="cls-1" d="M274.26,19.57c-1.28,5.3-2.78,14.79-3.02,19.28-.03.61-.12,8.57-.11,10.52,0,1.45.02,1.79.2,3.42l-6.63.57c-.19-4.3-.17-6.67.04-10.7.45-8.33,1.38-15.63,2.89-22.52l6.62-.57ZM275.34,33.34l.34-6.26,8.7-.82.16-7.81,7.39-.63-.41,7.56,7.59-.72-.35,6.45-7.7.73c-.16,3.68-.18,3.99-.23,5.06-.3,5.49-1.15,7.93-3.75,10.83-2.76,3.1-6.55,4.8-11.64,5.24-.54.05-.96.08-1.76.11l.34-6.37c2.99-.37,4.19-.62,5.32-1.07,2.11-.91,3.24-2.19,3.94-4.54.37-1.25.66-3,.74-4.53q.03-.54.1-4.06l-8.77.83Z"/><path class="cls-1" d="M304.25,19.03l30.57-2.8-.33,6.14c-1.17.44-2.22.88-3.27,1.31-5.81,2.33-8.33,3.92-10.93,6.82-1.91,2.15-2.94,4.38-3.06,6.6-.09,1.73.65,3.42,1.8,4.01,1.37.72,3.87.97,7.32.67,1.15-.1,3.19-.39,5.45-.73l-.37,6.76c-2.3.27-4.33.48-5.56.59-5.4.46-8.96.08-11.67-1.29-3.01-1.46-4.55-4.62-4.33-8.68.15-2.73,1.05-5.36,2.71-7.87,1.62-2.43,3.07-3.89,6.41-6.39l-15.1,1.56.36-6.68ZM326.76,27.04l3.64-.31-.32,5.87-3.64.31.32-5.87ZM335.07,26.33l-.32,5.87-3.56.3.32-5.87,3.56-.3Z"/><path class="cls-1" d="M376.74,32.54c-.67,8.07-3.75,11.51-11.09,12.33l-16.15,1.38c-2.91.25-5.98-.8-7.34-2.51-1.23-1.49-1.82-4.39-1.62-8.01l.81-14.92c.77-9.1,4.38-12.74,13.2-13.45l11.13-.95c9.24-.6,12.31,2.23,11.87,11.16l-.81,14.96ZM362.39,37.74c4.7-.5,5.45-1.31,5.77-6.39l.62-11.39c.36-4.95-1.05-6.47-5.66-5.98l-7.14.61c-4.66.54-5.65,1.7-6.04,7.17l-.62,11.43c-.45,4.86.16,5.61,4.15,5.31l8.92-.76Z"/><path class="cls-1" d="M392.48,4.12l-2.09,38.63-8.17.7,2.09-38.63,8.17-.7ZM416.8,2.04l-14.48,19.78,13.75,18.73-10.8.92-13.21-18.49,14.54-20.07,10.19-.87Z"/><path class="cls-1" d="M433.64,31.14l-.43,8.05-8.22.7.43-8.04,8.22-.7ZM436.52.31l-3.57,28.87-6.53.56-.28-28.54,10.38-.89Z"/><path class="cls-1" d="M29.2,102.33l7.04-.6-1.31,24.33,26.29-2.25,1.31-24.33,7.51-.64-1.24,22.91c-.17,5.73-2.3,7.92-8.07,8.37l-33.19,2.84,1.66-30.63ZM71.49,88.51l-.35,6.4-18.22,1.56-.21,3.86,8.22-.7-1.04,19.34c-.19,2.59-1.27,3.53-4.22,3.78l-19.01,1.62,1.23-22.77,8.22-.7.21-3.86-17.84,1.52.35-6.4,42.68-3.65ZM43.21,118.18l1.97-.17.19-3.48-1.97.17-.19,3.48ZM45.64,109.45l.16-2.92-1.97.17-.16,2.92,1.97-.17ZM53.77,117.28l.19-3.48-1.97.17-.19,3.48,1.97-.17ZM54.23,108.72l.16-2.92-1.97.17-.16,2.92,1.97-.17Z"/><path class="cls-1" d="M73.63,122.56l.33-6.12,3.38-.29,1.1-20.28-3.38.29.32-5.98,3.38-.29.14-2.54,6.39-.55-.15,2.78,4.65-.4.15-2.78,6.71-.57-.15,2.78,3.29-.28-.31,5.74-3.29.28-1.1,20.28,2.91-.25-.3,5.5c1.82-1.75,2.21-2.81,2.51-6.63l1.49-27.62,16.34-1.4-1.89,34.91c-.16,2.87-.5,3.98-1.64,5.34-1.34,1.52-2.29,1.83-6.19,2.22l-2.25.19.39-7.25,1.27-.11c1.55-.18,1.85-.58,1.96-2.46l.29-5.32-2.68.23c-.88,8.55-3.76,13.29-10.05,16.45l.43-7.95-3.29.28c.54,2.11.66,2.47,2.5,7.37l-7.65.65c-.61-2.52-.76-3.17-1.56-7.45l-3.52.3c-1.05,3.09-1.69,4.5-3.46,7.88l-7.89.67c2.9-4.42,3.37-5.21,4.45-7.97l-3.62.31ZM88.37,115.21l.18-3.34-4.65.4-.18,3.34,4.65-.4ZM88.85,106.37l.18-3.29-4.65.4-.18,3.29,4.65-.4ZM89.33,97.52l.14-2.59-4.65.4-.14,2.59,4.65-.4ZM110.53,101.14l-2.68.23-.25,4.61,2.68-.23.25-4.61ZM110.83,95.69l.24-4.38-2.68.23-.24,4.38,2.68-.23Z"/><path class="cls-1" d="M122.89,89.55l4.84-.41c.59-2.35.71-2.82,1.24-5.68l8.03-.69c-.72,2.97-.84,3.44-1.48,5.7l5.16-.44-1.58,29.17c-.06,4.55-1.7,6.37-5.93,6.78l-12.21,1.04,1.92-35.48ZM132.02,116.87l.42-7.72-3.61.31-.42,7.72,3.61-.31ZM132.79,102.71l.37-6.87-3.61.31-.37,6.87,3.61-.31ZM154.23,81.3c-.76,2.78-1.1,3.89-2.01,6.07l11.6-.99-.26,3.86c-1.05,18.59-1.82,24.23-3.62,27.24-2.68,4.63-5.03,5.72-13.44,6.49l-2.77.24.4-7.48,2.35-.2c5.26-.45,6.57-1.31,7.75-4.97.59-2.35,1.23-8.86,1.72-17.94l-6.43.55c-2,4.1-4.95,7.63-8.95,10.79l.57-10.63c2.7-3.18,4.24-6.59,5.48-12.36l7.61-.65ZM153.16,110.47c-3.32-1.68-4.83-2.3-7.69-3.04l.39-7.25c3.18.85,4.74,1.38,7.71,2.62l-.41,7.67Z"/><path class="cls-1" d="M176.37,85.73c.55-2.44.75-3.53,1.12-6l7.89-.67c-.73,4-.79,4.24-1.12,6l6.29-.54-.4,7.39-7.75.66c-2.47,10.33-4.21,16.47-6.67,23.19l-7.84.67c3.57-9.91,4.2-12.02,7-23.22l-6.2.53.4-7.39,7.28-.62ZM195.49,84l13.9-1.19-.4,7.48-6.15.53-.6,11.06c4.63,1.62,4.86,1.74,6.72,2.8l-.49,9.08c-3.11-2.17-4.11-2.69-6.44-3.66-.23,2.55-.63,3.89-1.79,5.54-1.93,2.79-5.05,4.46-9.09,4.8-3.99.34-7.06-.8-9.07-3.35-1.14-1.4-1.68-3.46-1.55-5.86.32-5.88,5.15-10.46,11.67-11.02.75-.06,1.31-.06,2.43.07l.88-16.28ZM187.7,110.43c-.09,1.74,1.25,2.84,3.27,2.67,1.97-.17,3.3-1.45,3.41-3.38.09-1.69-1.03-2.63-3.05-2.46-2.07.18-3.54,1.47-3.63,3.17Z"/><path class="cls-1" d="M221.64,84.34l.43-8,8.03-.69-.43,8,11.64-1,.43-8,8.36-.71-.43,8,8.12-.69-.41,7.62-8.12.69-.3,5.5c-.43,12.31-7.66,19.86-19.66,20.55l-9.95.85.41-7.58,10.61-.91c6.8-.49,9.9-4.17,10.24-12.16l.3-5.55-11.64,1-.54,10.02-8.03.69.54-10.02-7.79.67.41-7.62,7.79-.67Z"/><path class="cls-1" d="M301.2,85.6l-.43,8-38.45,3.29.43-8,38.45-3.29Z"/><path class="cls-1" d="M307.81,91.31l15.83-1.54-.07-7.3-12.55,1.26.39-7.29,12.08-1.22-.09-7.77,8.4-.72.1,7.67,14.43-1.47-.39,7.29-13.95,1.38.07,7.35,16.02-1.56-.42,7.72-15.5,1.51.17,10.66-8.4.72-.18-10.57-16.35,1.58.42-7.72Z"/><path class="cls-1" d="M361.56,70.33c1.43,6.39,2.12,9.98,3.11,15.99l-8.07.69c-.58-5.76-1.29-10.71-2.45-16.04l7.42-.63ZM391.34,67.55l-.74,13.65c-.35,14.17-6.38,21.2-18.9,22.08l-17.46,1.49.39-7.15,17.46-1.49c7.62-.93,10.58-4.65,10.78-13.47l.78-14.44,7.7-.66ZM373.96,69.27c1.37,5.74,2.5,11.59,3.11,15.99l-8.03.69c-.89-6.9-1.39-9.81-2.69-16.02l7.61-.65Z"/><path class="cls-1" d="M410.56,59.49l-.68,12.56c10.8,1.7,14.73,2.49,21.5,4.3l-.47,8.7c-6.17-1.77-11.99-3-21.49-4.53l-1.12,20.65-8.59.73,2.25-41.69,8.59-.73Z"/><path class="cls-1" d="M450.94,56.04l-.68,12.56c10.8,1.7,14.73,2.49,21.5,4.3l-.47,8.7c-6.17-1.77-11.99-3-21.48-4.53l-1.12,20.65-8.59.73,2.25-41.69,8.59-.73Z"/><path class="cls-1" d="M489.9,53.69l-1.69,31.34,4.55-.39c12.7-1.46,16.22-6.07,17.64-22.96l8.54-.73c-1.01,10.06-3.01,16.74-6.42,21.86-4.85,6.83-10.02,9.1-23.6,10.4l-9.25.79,2.14-39.62,8.08-.69Z"/><path class="cls-1" d="M565.06,63.05l-.43,8-38.45,3.29.43-8,38.45-3.29Z"/><path class="cls-1" d="M612.27,73.12l-.44,8.19-41.6,3.55.44-8.19,41.6-3.55ZM575.95,48.31l34.6-2.96-.43,7.95-34.6,2.96.43-7.95Z"/><path class="cls-1" d="M659.65,43.08l-.77,14.16c-.49,8.24-2.93,13.6-8.06,17.69-4.3,3.55-9.58,5.22-19.54,6.17l-13,1.11.44-8.14,13.15-1.12c5.59-.52,10.18-1.67,12.46-3.12,3.52-1.99,5.83-5.84,6.11-10.17l.86-15.86,8.36-.71ZM620.8,42.51c8.24,1.45,17.06,3.37,21.15,4.61l-.46,8.47c-7.14-1.87-15.13-3.67-21.15-4.75l.45-8.33Z"/><path class="cls-1" d="M694.72,37.36l-.28,5.13,9.48-.81-.67,12.47c-.5,7.49-2.17,12.5-5.2,15.76-4.26,4.39-9.03,6.25-17.9,6.92l-14.46,1.24.42-7.81,14.88-1.27c5.97-.56,8.59-1.53,10.63-3.86,1.95-2.32,2.95-5.26,3.18-9.54l.56-10.3-15.49,1.32c-1.7,8.15-6.95,13.66-15.01,15.71l.45-8.28c5.36-2.38,7.08-5.57,8-14.83l21.41-1.83ZM696.46,33.7l4.41-.38-.39,7.25-4.41.38.39-7.25ZM706.7,32.83l-.39,7.25-4.51.39.39-7.25,4.51-.38Z"/><path class="cls-1" d="M725.57,65.87l-.48,8.89-9.11.78.48-8.89,9.11-.78ZM728.77,31.74l-3.97,31.95-7.23.62-.3-31.59,11.5-.98Z"/><path class="cls-3" d="M82.29,223.99l1.46-27.07,27.01-2.31-1.46,27.07-27.01,2.31Z"/><path class="cls-1" d="M121.62,194.86l7.23-.62,6.44,24.54-6.35.54-1.14-5.66-7.43.63-1.76,5.91-6.15.52,9.16-25.88ZM121.77,209.54l5.13-.44-.43-2.09c-.54-2.45-1.02-5.4-1.56-7.92h-.13c-.75,2.7-1.58,5.7-2.36,8.26l-.66,2.18Z"/><path class="cls-1" d="M139.28,193.35l6.04-.52-1.36,25.21-6.04.52,1.36-25.21Z"/><path class="cls-1" d="M158.92,188.13l3.47,1.21c-3.01,3.37-5.8,7.73-6.13,13.89-.33,6.16,2.01,10.09,4.68,12.97l-3.63,1.82c-2.95-2.77-5.62-7.5-5.24-14.43.37-6.93,3.58-12.17,6.86-15.46Z"/><path class="cls-1" d="M181.26,187.08c-.06.59-.13,1.27-.2,2.05,0,4.43.8,17.03,11.96,21.49-1.51,1.21-2.92,2.84-3.67,4.13-6.4-2.78-9.54-8.24-11.1-13.5-2.04,5.35-5.55,11.07-11.72,15.48-.74-1.11-2.12-2.38-3.63-3.29,12.68-8.2,12.74-21.85,13.17-25.92l5.19-.44Z"/><path class="cls-1" d="M223.22,205.61l-.25,4.55-28.5,2.44.25-4.55,11.46-.98.81-15.07-9.7.83.25-4.7,24.89-2.13-.25,4.7-10.04.86-.81,15.07,11.89-1.02Z"/><path class="cls-1" d="M235.28,198.14c-.05.28-.09.56-.17.81,1.55,1.53,4.56,4.94,5.31,5.86l-3.23,4.07c-.9-1.52-2.27-3.5-3.56-5.21-1.23,2.94-3.11,5.75-5.93,7.99-.54-.88-2.17-2.56-3.03-3.13,3.75-2.94,5.37-6.59,6.07-10.01l-5.03.43.23-4.24,5.37-.46.23-4.18-.59.05c-.66,1.47-1.38,2.8-2.11,3.88-.76-.67-2.48-1.79-3.44-2.29,1.69-2.27,2.99-5.86,3.73-9.31l4.25.5c-.24.98-.51,1.98-.84,2.97l7.78-.67-.22,4.15-4.01.34-.23,4.18,4.69-.4-.23,4.24-5.03.43ZM254.02,182.9l-1.37,25.34-4.57.39.09-1.64-3.33.29-.12,2.13-4.35.37,1.4-25.84,12.26-1.05ZM248.39,202.78l.83-15.29-3.33.29-.83,15.29,3.33-.29Z"/><path class="cls-1" d="M268.6,189.97c-.07-.46-.19-.97-.35-1.51-4.03.62-8.09,1.25-11.25,1.73l-.11-4.21c.74-.09,1.55-.19,2.41-.3.91-1.99,1.77-4.37,2.31-6.3l4.64.56c-.74,1.76-1.54,3.55-2.34,5.16l2.91-.37c-.33-.71-.66-1.42-1.03-2.07l3.91-1.75c1.3,2.14,2.65,4.95,3.1,6.97l.49-9.13,4.48-.38-.21,3.93c1.77-.89,3.48-1.87,4.79-2.75l2.63,3.01c-2.34,1.31-5.08,2.5-7.62,3.45l-.06,1.11c-.06,1.15.09,1.26,1.1,1.17l2.53-.22c.9-.08,1.1-.53,1.36-3.07.86.6,2.67,1.16,3.86,1.3-.69,4.19-1.92,5.46-5.01,5.73l-3.64.31c-3.86.33-4.81-.76-4.71-4.34l-4.19,1.96ZM269.79,203.82c-.1,1.83-.5,2.94-1.71,3.69-1.21.78-2.67.97-4.49,1.12-.15-1.16-.71-2.83-1.21-3.84.89-.02,2.06-.12,2.44-.18.37-.03.5-.14.52-.51l.07-1.21-3.52.3-.3,5.63-4.14.35.98-18.1,12.1-1.03-.74,13.77ZM265.59,199.62l.06-1.21-3.52.3-.06,1.21,3.52-.3ZM262.37,194.38l-.06,1.05,3.52-.3.06-1.05-3.52.3ZM280.24,203.2c.96-.08,1.17-.65,1.49-3.64.89.6,2.64,1.13,3.83,1.31-.71,4.53-1.92,5.92-5.1,6.2l-3.77.32c-3.98.34-4.9-.84-4.69-4.74l.51-9.38,4.45-.38-.2,3.68c1.87-.96,3.65-2.07,4.99-3.04l2.76,3.03c-2.41,1.44-5.28,2.76-7.95,3.85l-.1,1.83c-.06,1.18.12,1.28,1.17,1.19l2.62-.22Z"/><path class="cls-1" d="M290.63,206.63l-3.47-1.21c3.01-3.37,5.8-7.73,6.13-13.89.33-6.16-2.01-10.09-4.68-12.97l3.63-1.82c2.96,2.77,5.62,7.5,5.24,14.43-.38,6.93-3.58,12.16-6.86,15.46Z"/><path class="cls-1" d="M316.5,179.99c-.23.85-.46,1.73-.69,2.55.84-.13,1.55-.23,2.1-.27,3.55-.3,5.81,1.17,5.56,5.81-.2,3.62-.87,8.73-2.35,11.57-1.17,2.32-3.03,3.25-5.53,3.46-1.2.1-2.65.04-3.74-.11l-.54-4.85c1.13.21,2.96.39,3.73.33.99-.08,1.72-.49,2.16-1.36.86-1.61,1.42-5.27,1.58-8.14.12-2.26-.79-2.46-2.7-2.29-.37.03-.87.1-1.49.22-1.5,4.93-4.22,12.62-7.07,17.08l-4.77-1.53c3.15-4.21,5.47-10.26,6.84-14.6-.81.19-1.49.34-1.93.44-1,.24-2.8.64-3.83.91l-.16-5.01c1.2,0,2.38-.17,3.61-.31.9-.11,2.17-.31,3.56-.52.56-2.45.89-4.6.94-6.52l5.53.11c-.27.95-.58,2.14-.81,3.03ZM329.14,178.85l-1.04.52c1.7,2.75,3.72,7.91,4.4,10.68l-4.9,2.61c-.55-3.53-2.32-8.83-4.39-11.48l2.69-1.34c-.52-1.16-1.21-2.61-1.9-3.6l2.97-1.42c.71,1.08,1.68,3,2.18,4.03ZM333.05,177.01l-2.97,1.49c-.55-1.22-1.44-2.96-2.21-4.06l2.97-1.42c.74,1.11,1.74,2.99,2.21,4Z"/><path class="cls-1" d="M348.45,175.29c-.11.41-.23.88-.32,1.32,3.65-.44,6.79-1.07,10.33-2.24l-.2,4.3c-2.93.77-7.09,1.53-10.93,2.01l-.31,2.24c1.37-.39,2.86-.68,4.32-.8l.19-.02c.16-.66.29-1.35.34-1.78l4.48.7c-.14.32-.39.9-.6,1.47,3.39.97,5.65,3.52,5.45,7.2-.24,4.36-2.85,9.02-10.73,10.87l-2.26-3.72c6.21-1.21,8.23-4.46,8.37-6.97.09-1.58-.7-2.9-2.33-3.53-1.86,4.19-4.43,7.52-6.76,9.54.18.72.35,1.45.56,2.14l-4.36,1.64c-.11-.3-.18-.66-.28-1.02-1.42.74-3.02,1.31-4.6,1.44-2.38.2-4.37-1.04-4.18-4.48.22-3.99,3.59-8.44,8.06-10.92.12-1.18.28-2.37.47-3.52l-.49.04c-1.79.15-4.19.2-5.73.27l.11-4.26c1.1.06,3.81.11,6-.08l.74-.06c.08-.44.17-.85.22-1.25.09-.62.2-1.47.2-2.08l4.81-.29c-.25.73-.41,1.3-.56,1.83ZM340.23,195.43c.68-.06,1.56-.38,2.48-.95-.19-1.62-.31-3.42-.3-5.3-1.99,1.65-3.27,3.7-3.34,5.03-.05.87.24,1.3,1.16,1.23ZM346.73,191.05c1.24-1.37,2.4-2.98,3.38-5.03-1.3.17-2.42.48-3.43.85-.05,1.54-.04,2.93.05,4.19Z"/><path class="cls-1" d="M377.6,174.92c1.47-.4,2.78-.82,3.85-1.22l-.11,4.29c-1.28.45-3.19,1.04-5.31,1.5-1.69,4.49-4.57,10.12-7.27,13.9l-4.38-1.9c2.57-3.24,5.15-7.77,6.69-11.11-.34.06-.65.09-.99.12-1.3.11-2.56.19-3.98.22l-.1-4.3c1.41.03,3.26-.06,4.28-.15.8-.07,1.61-.17,2.41-.3.52-1.71.9-3.53,1.04-5.11l5.1.06c-.27.98-.72,2.43-1.23,4.02ZM385.3,184.31c0,.74-.01,1.94-.02,3.24,2.63.79,4.71,2.19,6.17,3.48l-2.69,4.23c-.91-.82-2.11-1.91-3.57-2.84-.25,2.98-1.98,5.34-6.55,5.73-4.08.35-7.15-1.3-6.96-4.89.17-3.09,2.75-5.96,7.51-6.37.56-.05,1.11-.06,1.63-.05,0-2.19.01-4.75.01-6.47l4.69-.4c-.16,1.34-.18,2.82-.23,4.33ZM378.21,193.91c1.85-.16,2.47-1.29,2.56-3.02v-.15c-.66-.07-1.34-.1-2.08-.04-1.51.13-2.5.83-2.55,1.73-.05.99.77,1.6,2.07,1.49ZM382.85,177.83l2.61-3.92c2.17.77,6.04,2.56,7.65,3.57l-2.87,4.19c-1.77-1.3-5.27-3.06-7.38-3.83Z"/><path class="cls-1" d="M407.74,171.83c-.04.16-.08.35-.15.54,1.59-.38,3.18-.83,4.77-1.33l-.25,4.67c-1.78.58-3.78,1.09-5.8,1.48-.38,1.36-.76,2.71-1.14,3.98-1.34,4.4-3.75,10.85-5.72,14.84l-5.09-1.32c1.99-3.22,4.78-10.02,6.19-14.42.22-.73.48-1.49.67-2.24-.56.08-1.08.12-1.58.16-1.58.13-2.78.18-3.82.2l.13-4.66c1.66.04,2.64.02,3.97-.09.83-.07,1.64-.17,2.5-.28.09-.47.17-.88.22-1.25.22-1.31.33-2.71.28-3.47l5.69-.05c-.3.98-.69,2.52-.88,3.25ZM410.61,188.03c-.07,1.3.84,2.02,3.56,1.79,2.1-.18,4.24-.61,6.64-1.21l-.44,4.78c-1.77.37-3.88.76-6.48.99-5.4.46-8.17-1.24-8-4.4.09-1.58.52-3.28.83-4.48l4.42.05c-.26.82-.5,1.86-.53,2.48ZM415.45,176.96c1.73-.15,3.58-.21,5.45-.19l-.34,4.5c-1.53-.05-3.44-.11-5.35.06-2.22.19-4.14.45-6.13.86l.24-4.36c1.8-.34,4.13-.69,6.13-.86Z"/><path class="cls-1" d="M432.05,170.67c-.43,1.64-1.92,8.3-2.08,11.17,0,.09-.03.59,0,.71.48-.9.88-1.55,1.33-2.49l2.16,1.6c-1.08,2.9-2.22,6.38-2.65,8.14-.12.47-.25,1.22-.27,1.5-.02.34-.05.9-.04,1.39l-4.34.65c-.51-2.02-.91-5.87-.69-10.08.26-4.73,1.43-9.98,1.86-12.29.17-.94.47-2.35.56-3.53h5.19c-.32.72-.88,2.65-1.03,3.22ZM439.09,184.76c-.07,1.36,1.2,1.78,3.73,1.56,2.75-.23,4.99-.67,7.83-1.5l-.18,5.07c-2.06.55-4.51.97-8.15,1.28-5.4.46-7.98-1.32-7.8-4.63.07-1.33.33-2.65.78-4.29h4.24c-.27,1.02-.4,1.7-.44,2.51ZM450.71,167.78l-.26,4.83c-4.06.69-9.47,1.18-13.59,1.16l.23-4.79c4.02.15,10.14-.53,13.62-1.19Z"/><path class="cls-1" d="M136.89,245.17c-.93,2.98-2.26,5.46-3.94,7.54,1.4.74,3.07,1.25,4.93,1.52-.94.88-2.2,2.62-2.81,3.72-2.01-.41-3.75-1.13-5.23-2.11-1.48,1.21-3.13,2.21-4.93,3.07-.36-.8-1.03-1.91-1.7-2.72l-.15,2.82-4.29.37.12-2.23c-3.44.54-6.88,1.08-9.58,1.53l-.07-3.81c.77-.1,1.64-.2,2.57-.34l.48-8.85-2.29.2.19-3.53,27.82-2.38-.19,3.53-13.99,1.2-.58,10.71c1.32-.57,2.56-1.33,3.68-2.19-.92-1.12-1.65-2.42-2.28-3.87l2.38-.85-2.87.25.18-3.37,9.08-.78.75-.19,2.72.78ZM134.43,239.5l-20.6,1.76.53-9.78,20.6-1.76-.53,9.78ZM119.08,253.5l.04-.8-3.18.27-.05.99,3.19-.46ZM116.1,249.94l3.18-.27.04-.83-3.18.27-.04.83ZM116.35,245.33l-.04.74,3.18-.27.04-.74-3.18.27ZM130.12,236.29l-11.8,1.01-.04.77,11.8-1.01.04-.77ZM130.3,232.92l-11.8,1.01-.04.74,11.8-1.01.04-.74ZM128.45,248.36c.36.74.85,1.41,1.4,2.04.59-.73,1.09-1.48,1.54-2.29l-2.93.25Z"/><path class="cls-1" d="M149.23,251.17c.99.5,2.3.7,3.96.62,3.85-.14,11.3-.87,15.92-1.67-.55,1.06-1.34,3.2-1.62,4.48-4.06.56-10.64,1.19-14.58,1.34-3.48.14-5.75-.46-7.45-2.66-1.24,1.25-2.5,2.43-4.15,3.9l-1.83-4.31c1.18-.78,2.49-1.75,3.75-2.75l.33-6.07-3.21.27.22-4.15,7.5-.64-.54,9.9c.36.74.88,1.28,1.54,1.66l.9-16.74,3.3-.28c-.09-.55-.28-1.09-.47-1.56l.12-.04-3.49.3.19-3.44,7.5-.64.1-1.86,4.35-.37-.1,1.86,8.03-.69-.19,3.44-3.43.29c-.34.61-.62,1.19-.89,1.71l3.8-.32-.71,13.09c-.09,1.73-.42,2.72-1.57,3.43-1.14.68-2.51.86-4.33,1.02-.06-.67-.26-1.52-.52-2.3l-4.45.38-.05.87-2.96.25.37-6.84,2.62-.22.08-1.45-3.06.26.14-2.63,3.06-.26.07-1.3-3.71.32-.73,13.49-3.86.33ZM145.3,236.29c-.75-1.41-2.68-3.38-4.26-4.75l3.56-2.83c1.62,1.22,3.65,3.05,4.56,4.42l-3.86,3.16ZM156.93,232.12c.22.54.37,1.11.44,1.6l3.64-.31c.18-.51.4-1.11.55-1.68l-4.63.4ZM159.91,244.56l-2.47.21-.07,1.21,2.47-.21.07-1.21ZM163.52,246.62c.34-.03.47-.16.49-.5l.52-9.69-3.86.33-.07,1.3,3.12-.27-.14,2.63-3.12.27-.08,1.45,2.69-.23-.26,4.77.71-.06Z"/><path class="cls-1" d="M184.66,229.73c1.47-.4,2.78-.82,3.85-1.22l-.11,4.29c-1.28.45-3.19,1.04-5.31,1.5-1.69,4.49-4.57,10.12-7.27,13.9l-4.38-1.9c2.57-3.24,5.15-7.77,6.69-11.11-.34.06-.65.09-.99.12-1.3.11-2.56.19-3.98.22l-.1-4.3c1.41.03,3.26-.06,4.28-.15.8-.07,1.61-.17,2.41-.3.52-1.71.9-3.53,1.04-5.11l5.1.06c-.27.98-.72,2.43-1.23,4.02ZM192.36,239.11c0,.74-.01,1.94-.02,3.24,2.63.79,4.71,2.19,6.17,3.48l-2.69,4.23c-.91-.82-2.11-1.91-3.57-2.84-.25,2.98-1.98,5.34-6.55,5.74-4.08.35-7.15-1.3-6.96-4.89.17-3.09,2.75-5.96,7.51-6.37.56-.05,1.11-.06,1.63-.05,0-2.19.01-4.75.01-6.47l4.69-.4c-.17,1.34-.18,2.82-.23,4.33ZM185.26,248.71c1.85-.16,2.47-1.29,2.56-3.02v-.15c-.66-.07-1.34-.1-2.08-.04-1.51.13-2.5.83-2.55,1.73-.05.99.77,1.6,2.07,1.49ZM189.91,232.63l2.61-3.92c2.17.77,6.04,2.56,7.64,3.57l-2.87,4.19c-1.77-1.3-5.27-3.06-7.38-3.83Z"/><path class="cls-1" d="M206.93,228.25c.07-1.24.03-2.84-.15-3.99l5.84-.5c-.19,1.19-.45,2.56-.53,4.05l-.23,4.24c4.1.85,9.98,2.54,12.5,3.58l-2.41,5.41c-3.03-1.34-7.17-2.62-10.38-3.52l-.43,7.95c-.05.84,0,3.27.09,4.64l-5.87.5c.29-1.35.55-3.44.62-4.7l.96-17.67Z"/><path class="cls-1" d="M230.8,243.25l.88-16.28c.07-1.36-.03-2.86-.19-3.86l5.87-.5c-.29,1.44-.48,2.57-.55,3.93l-.82,15.26c4.61-1.78,11.56-6.25,15.83-11.36l2.42,4.04c-4.63,5.48-11.28,9.65-18.45,12.73-.47.19-1.29.51-2.18,1.17l-3.38-2.79c.48-.96.55-1.56.59-2.33Z"/><path class="cls-1" d="M262.73,229.58l16.4-1.4c1.39-.12,2.91-.4,3.81-.54l-.32,5.91c-.8.04-2.52.03-3.79.14l-16.4,1.4c-1.76.15-4.08.44-5.35.64l.32-5.91c1.23-.01,3.82-.11,5.33-.24Z"/><path class="cls-1" d="M291.4,235.48l17.29-1.48c1.11-.1,2.6-.31,3.75-.54l-.31,5.72c-1.2-.02-2.77.02-3.72.1l-17.29,1.48c-1.27.11-3,.35-4.24.58l.31-5.72c1.29-.02,2.95-.04,4.22-.15ZM294.49,220.25l12.54-1.07c1.3-.11,2.75-.33,3.66-.53l-.29,5.45c-.92.05-2.52.09-3.64.19l-12.51,1.07c-1.24.11-2.88.31-3.99.46l.29-5.45c1.2.05,2.86-.03,3.94-.12Z"/><path class="cls-1" d="M328.26,231.35c5.73-3.69,10.16-8.85,12.46-13.39l2.62,5.04c-2.71,4.61-7.32,9.28-12.65,12.75-3.25,2.13-7.35,4.08-11.27,5.03l-2.91-4.68c4.57-1.01,8.63-2.74,11.75-4.76ZM329.85,221.14l-4.04,4.26c-1.54-1.66-5.25-4.73-7.38-6.11l3.76-4.11c2.05,1.27,5.92,4.15,7.67,5.97Z"/><path class="cls-1" d="M370.55,213.59l-2.43,1.19,3.04,1.68c-.44.71-.98,1.69-1.34,2.64-.97,2.64-2.86,6.87-5.89,10.61-3.19,3.94-7.08,7.1-13.02,9.98l-4.23-3.58c6.78-2.61,10.13-5.52,12.92-8.68,2.06-2.33,3.98-6.04,4.49-8.08l-7.69.66c-2.34,2.94-5.23,5.84-8.18,8.06l-4.03-2.77c5.65-3.84,8.35-7.77,10.13-10.51.6-.91,1.43-2.59,1.84-3.82l5.37,1.33c-.76,1.05-1.57,2.38-2.08,3.23l4.97-.42c.93-.08,2.04-.3,2.86-.58-.52-1.16-1.21-2.58-1.87-3.54l2.97-1.42c.71,1.08,1.68,3,2.18,4.03ZM374.46,211.75l-2.97,1.49c-.55-1.22-1.44-2.96-2.21-4.06l2.97-1.42c.74,1.11,1.74,2.99,2.21,4Z"/><path class="cls-1" d="M399,205.83c2.1-.18,3.74,1.41,3.62,3.51s-1.94,3.98-3.94,4.16c-.18.48-.33.95-.44,1.33-.9,2.97-2.42,7.78-5.27,11.6-2.98,3.98-7.51,7.54-13.04,9.77l-3.83-4.14c6.28-1.92,9.92-4.94,12.52-8.19,2.11-2.61,3.29-5.76,3.83-8.27l-13.59,1.16c-1.51.13-3.22.37-4.02.5l.29-5.29c.95.04,2.98.02,4-.06l13.62-1.16c.52-.04,1.39-.15,2.23-.34-.02-.12-.02-.24,0-.4.11-2.1,1.94-3.99,4.04-4.16ZM398.71,211.31c.9-.08,1.68-.88,1.73-1.78.05-.9-.65-1.58-1.55-1.5-.9.08-1.68.88-1.73,1.78-.05.9.65,1.58,1.55,1.5Z"/><path class="cls-1" d="M409.07,209.44l17.23-1.47c.83-.07,2.01-.17,3.24-.31-.12,1.03-.19,2.29-.24,3.35l-.82,15.1c-.07,1.33-.19,4.61-.19,4.61l-5.19.44s.07-.71.15-1.65l-13.77,1.18-.09,1.64-5.16.44s.25-2.98.35-4.68l.81-15.04c.05-.99.13-2.41.12-3.37,1.26-.08,2.65-.16,3.55-.24ZM409.72,225.89l13.83-1.18.64-11.79-13.83,1.18-.64,11.79Z"/><path class="cls-1" d="M459.79,205.97l-2.43,1.19,3.04,1.68c-.44.72-.98,1.69-1.34,2.64-.97,2.64-2.86,6.87-5.89,10.61-3.19,3.94-7.08,7.1-13.02,9.98l-4.23-3.58c6.78-2.61,10.13-5.52,12.92-8.68,2.06-2.33,3.98-6.04,4.49-8.08l-7.69.66c-2.34,2.94-5.23,5.84-8.18,8.06l-4.03-2.77c5.65-3.84,8.35-7.77,10.13-10.51.6-.91,1.43-2.59,1.83-3.82l5.37,1.33c-.76,1.05-1.57,2.38-2.08,3.23l4.97-.42c.93-.08,2.04-.3,2.86-.58-.52-1.16-1.21-2.58-1.87-3.54l2.97-1.42c.71,1.08,1.68,3,2.18,4.03ZM463.7,204.12l-2.97,1.49c-.55-1.22-1.44-2.96-2.21-4.06l2.97-1.42c.74,1.11,1.74,2.99,2.21,4Z"/><path class="cls-1" d="M487.81,211.8c-1.18,3.06-2.63,6.08-5.06,8.84-3.24,3.7-7.38,6.3-11.39,7.78l-3.51-3.92c4.87-1.43,8.56-3.78,10.91-6.2,1.59-1.64,2.51-3.26,3.11-4.73l-14.05,1.2c-.77.07-2.53.25-3.93.49l.26-4.83c1.41,0,2.86-.03,3.91-.12l14.7-1.26c1.17-.1,2.11-.33,2.61-.59l3.19,1.79c-.27.49-.62,1.16-.76,1.54ZM470.92,202.52l11.7-1c.99-.08,2.75-.3,3.65-.5l-.26,4.83c-.86.01-2.52.09-3.7.19l-11.64.99c-1.05.09-2.53.25-3.46.42l.26-4.83c.86.05,2.37-.02,3.45-.11Z"/><path class="cls-1" d="M504.31,203.89c-1.22,3.15-3.85,10.4-5.56,14.64,3.32-.59,7.02-1.34,9.88-1.92-.88-1.99-1.79-3.79-2.65-4.98l4.8-2.32c2.04,3.25,4.74,8.99,6.03,12.45l-5.19,2.69c-.32-.99-.71-2.13-1.17-3.32-5.13,1.05-14.04,2.71-17.8,3.43-.78.16-2.08.46-3.11.67l-.57-5.4c1.11-.09,2.62-.22,3.68-.34.15-.01.31-.03.46-.07,2.04-4.79,4.87-12.77,5.98-16.16.55-1.68.8-2.81,1.01-3.97l5.86.7c-.52,1.06-1.08,2.43-1.66,3.9Z"/><path class="cls-1" d="M532.55,198.98c2.79-.39,5.73-.89,8.35-1.58l-.27,4.34c-2.89.62-6.7,1.22-9.98,1.62-.44.84-.89,1.65-1.32,2.3.63-.24,2.21-.5,3.07-.57,1.82-.16,3.26.46,3.99,1.82,1.27-.69,2.31-1.18,3.41-1.77,1.39-.7,2.69-1.4,4.05-2.16l1.59,4.18c-1.1.4-3.08,1.28-4.28,1.84-1.2.56-2.74,1.28-4.42,2.13-.06,1.7-.11,3.77-.16,5.16l-4.45.38c.1-.81.23-1.96.32-3.14-2.01,1.31-2.9,2.4-2.96,3.64-.07,1.3.86,1.74,3.76,1.5,2.75-.23,6.29-.91,9.04-1.73l-.41,4.84c-1.9.44-5.9,1.06-8.95,1.32-5.06.43-8.64-.59-8.41-4.7.22-4.05,4.03-6.94,7.56-9.02-.44-.46-1.08-.56-1.66-.5-1.57.13-3.54,1.32-4.65,2.46-.98,1.04-1.93,2.23-3.06,3.74l-3.82-2.66c3.04-2.85,5.37-5.57,7.04-8.55-1.27.11-3.52.24-5.15.22l.23-4.33c1.53.12,3.87.04,5.54-.1l1.2-.1c.34-1.17.59-2.36.71-3.42l4.92-.02c-.16.69-.43,1.67-.83,2.87Z"/><path class="cls-1" d="M559.34,193.98c-.88,2.14-1.96,4.36-3.18,6.52l-1.17,21.57-4.54.39.79-14.61c-.46.56-.92,1.06-1.38,1.57-.34-1.08-1.44-3.57-2.15-4.65,2.83-2.92,5.63-7.41,7.34-11.81l4.28,1.02ZM569.24,200.84l-.14,2.57,7.53-.64-.22,4.08-7.54.64-.15,2.78,7.94-.68-.23,4.18-7.94.68-.35,6.53-4.63.4,1.09-20.15-.59.05c-1.36,2.33-2.79,4.43-4.23,6.09-.67-.77-2.31-2.24-3.23-2.87,2.83-2.95,5.48-7.62,7.08-12.16l4.26.78c-.47,1.24-.99,2.49-1.58,3.71l11.52-.98-.23,4.27-8.37.72Z"/><path class="cls-1" d="M606.47,199.38c-1.52,4.16-3.5,7.97-5.9,11.28.58,1.71,1.3,2.66,2.04,2.6.62-.05,1.07-1.63,1.43-5.42.96.96,2.48,1.88,3.66,2.24-1.01,6.09-2.53,7.52-5.71,7.79-2.04.17-3.63-1.01-4.84-3.13-1.46,1.51-3.08,2.88-4.77,4.07-.6-.9-2.13-2.65-3.04-3.44,2.29-1.4,4.35-3.14,6.12-5.17-.86-3.38-1.28-7.59-1.41-12.02l-8.03.69-.16,2.94,7.57-.65s-.09,1.09-.12,1.58c-.43,6.32-.74,9.18-1.54,10.23-.73.96-1.46,1.33-2.39,1.59-.84.23-2.14.37-3.56.49,0-1.26-.36-2.93-.92-3.99-.61,3.32-1.65,6.7-3.36,9.22-.72-.83-2.67-2.33-3.66-2.77,2.48-3.85,2.93-9.34,3.15-13.39l.5-9.28,12.48-1.07c.02-1.42.06-2.84.14-4.26l4.72-.4c-.11,1.43-.18,2.85-.2,4.27l3.49-.3c-.92-.66-2.05-1.37-2.97-1.87l2.86-2.92c1.53.7,3.62,1.88,4.64,2.81l-1.63,1.74,3.27-.28-.24,4.42-9.42.8c.08,2.52.29,4.94.6,7.03,1.06-1.91,1.97-3.96,2.7-6.14l4.48.7ZM585.62,205.9c-.15,1.58-.36,3.3-.67,5.05.92.01,1.72-.02,2.22-.07.4-.03.68-.15.95-.48.27-.39.46-1.67.69-4.77l-3.18.27Z"/><path class="cls-1" d="M612.95,211.45c.1-1.83,1.49-3.21,3.32-3.36s3.08,1,2.98,2.83c-.1,1.83-1.5,3.27-3.32,3.43-1.85.16-3.08-1.06-2.98-2.89ZM614.08,196.2l.09-5.12,6.05-.52-.46,5.15-1.45,9.86-3.83.33-.4-9.7Z"/><path class="cls-3" d="M82.29,325.99l1.46-27.07,27.01-2.31-1.46,27.07-27.01,2.31Z"/><path class="cls-1" d="M121.33,297.71l17.23-1.47c.83-.07,2.01-.17,3.24-.31-.12,1.03-.19,2.29-.24,3.35l-.82,15.1c-.07,1.33-.19,4.61-.19,4.61l-5.19.44s.07-.71.15-1.65l-13.77,1.18-.09,1.64-5.16.44s.25-2.98.35-4.68l.81-15.04c.05-.99.13-2.41.12-3.37,1.26-.08,2.65-.17,3.55-.24ZM121.98,314.17l13.83-1.18.64-11.79-13.83,1.18-.64,11.79Z"/><path class="cls-1" d="M172.05,294.24l-2.43,1.19,3.04,1.68c-.44.71-.98,1.69-1.34,2.64-.97,2.64-2.86,6.87-5.89,10.61-3.19,3.94-7.08,7.1-13.02,9.98l-4.23-3.58c6.78-2.61,10.13-5.52,12.92-8.68,2.06-2.33,3.98-6.04,4.49-8.08l-7.69.66c-2.34,2.94-5.23,5.84-8.18,8.06l-4.03-2.77c5.65-3.84,8.35-7.77,10.13-10.51.6-.91,1.43-2.59,1.84-3.82l5.37,1.33c-.76,1.05-1.57,2.38-2.08,3.23l4.97-.42c.93-.08,2.04-.3,2.86-.58-.52-1.16-1.21-2.58-1.87-3.54l2.97-1.42c.71,1.08,1.68,3,2.18,4.03ZM175.96,292.4l-2.97,1.49c-.55-1.22-1.44-2.96-2.21-4.06l2.97-1.42c.74,1.11,1.74,2.99,2.21,4Z"/><path class="cls-1" d="M188.59,296.31c3.22-2.19,7.17-5.85,9.24-8.37l3.84,3.52c-2.44,2.46-5.56,5.13-8.6,7.33l-.66,12.19c-.08,1.49-.13,3.62.07,4.46l-5.93.51c.17-.85.41-3.02.49-4.51l.49-9.07c-3.2,1.84-7.03,3.74-10.66,5.07l-2.06-4.54c5.7-1.9,10.22-4.2,13.79-6.6Z"/><path class="cls-1" d="M214.82,304.73c5.73-3.69,10.16-8.85,12.46-13.39l2.62,5.04c-2.71,4.61-7.32,9.28-12.65,12.75-3.25,2.13-7.35,4.08-11.27,5.03l-2.91-4.68c4.57-1.01,8.63-2.74,11.75-4.76ZM216.41,294.52l-4.04,4.26c-1.54-1.66-5.25-4.73-7.38-6.11l3.76-4.11c2.05,1.27,5.92,4.15,7.67,5.97Z"/><path class="cls-1" d="M249.37,286.96l-.02.34c2.87-.25,7.01-.66,8.62-.77l-.3,4.43c-1.82.06-4.72.25-8.6.55-.05,1.48-.13,3.06-.2,4.36.74,1.14,1.06,2.65.96,4.32-.21,3.96-3.07,9.56-10.9,12.33l-3.77-3.65c2.72-.79,5.32-1.75,7.22-3.33-.19.05-.37.06-.56.08-2.25.19-5.36-1.48-5.14-5.47.2-3.74,3.32-6.29,6.9-6.6.28-.02.52-.04.77-.04.03-.53.06-1.05.05-1.58-4.64.46-9.22,1.03-12.99,1.54l.12-4.48c3.58-.28,9.05-.87,13.04-1.27-.02-.12-.02-.24-.01-.34-.04-1.48-.1-2.61-.17-3.07l5.4-.46c-.12.6-.35,2.52-.41,3.08ZM243.03,301.39c.99-.08,2.08-.89,1.86-3.21-.37-.52-.94-.75-1.65-.69-.96.08-2.01.76-2.08,2.18-.06,1.11.89,1.8,1.87,1.72Z"/><path class="cls-1" d="M267.12,283.75c1.67-.14,7.85-.76,9.68-1.07,1.49-.25,2.36-.45,2.77-.61l2.14,3.11c-.83.56-1.66,1.1-2.46,1.72-1.79,1.32-4.63,3.78-6.4,5.23.81-.22,1.43-.31,2.17-.37,5.31-.45,9.3,2.59,9.04,7.27-.26,4.83-3.98,9.36-11.98,10.05-4.35.37-7.86-1.36-7.67-4.77.15-2.72,2.75-5.47,6.27-5.77,3.77-.32,6.06,1.67,6.42,4.56,1.28-.94,1.93-2.2,2.01-3.71.14-2.66-2.48-4.1-5.88-3.81-4.51.39-7.9,3.38-11.06,7.26l-3.21-3.24c2.06-1.72,5.84-5.09,7.74-6.76,1.81-1.57,4.8-4.04,6.35-5.5-1.54.16-4.73.56-6.41.83-.93.14-2.05.33-2.79.52l.11-4.85c.95.04,2.12,0,3.14-.08ZM271.36,304.88c.49-.04.96-.11,1.39-.18-.06-1.69-.93-2.72-2.23-2.61-1.02.09-1.64.76-1.67,1.37-.05.96.93,1.55,2.5,1.42Z"/><path class="cls-1" d="M300.46,283.3c-.04.16-.08.35-.15.54,1.62-.38,3.21-.83,4.81-1.33l-.25,4.67c-1.78.58-3.81,1.1-5.8,1.48-.38,1.36-.76,2.71-1.14,3.98-1.38,4.4-3.75,10.86-5.72,14.84l-5.12-1.32c2.02-3.22,4.81-10.02,6.19-14.42.22-.73.48-1.49.68-2.24-.53.08-1.05.12-1.55.16-1.61.14-2.78.18-3.82.2l.13-4.66c1.66.04,2.61.02,3.97-.09.83-.07,1.64-.17,2.47-.27.12-.47.2-.88.25-1.25.22-1.31.33-2.71.28-3.47l5.69-.06c-.3.98-.72,2.53-.91,3.25ZM303.37,299.5c-.07,1.3.84,2.02,3.56,1.79,2.07-.18,4.24-.61,6.64-1.21l-.44,4.78c-1.8.37-3.89.79-6.48,1.02-5.4.46-8.17-1.27-8-4.43.09-1.58.48-3.28.8-4.47l4.45.05c-.26.82-.5,1.86-.53,2.48ZM308.21,288.43c1.73-.15,3.58-.21,5.45-.19l-.33,4.5c-1.53-.05-3.44-.11-5.35.06-2.25.19-4.14.45-6.13.86l.24-4.36c1.8-.34,4.09-.69,6.13-.86ZM313.02,284.14l-3,1.49c-.58-1.21-1.38-2.96-2.15-4.1l2.97-1.42c.71,1.08,1.68,3,2.18,4.03ZM316.93,282.29l-2.97,1.49c-.55-1.22-1.44-2.96-2.21-4.06l2.97-1.42c.74,1.11,1.74,2.99,2.21,4Z"/><path class="cls-1" d="M324.99,281.11c-.8,2.9-2.26,9.34-1.81,12.41.44-.78,1.04-2.12,1.55-3.06l2.2,1.29c-1.18,3.03-2.09,6.18-2.59,8.11-.15.51-.28,1.26-.3,1.6-.02.34-.02.93-.02,1.42l-4.22.76c-.61-1.8-1.51-6.19-1.3-9.99.28-5.11,1.06-9.92,1.6-12.46.2-.94.3-2.12.38-3.02l5.5.05c-.35.89-.79,2.19-.99,2.89ZM340.92,278.67c-.06.62-.14,2.01-.22,3.56,1.67-.27,3.23-.55,4.41-.84l-.29,4.86c-1.18.19-2.7.42-4.37.65l-.08,1.42c-.4,7.4-1.49,11.65-7.63,16.12l-4.14-3.03c1.36-.7,3.12-1.96,4.1-3.12,1.94-2.38,2.78-4.8,3.04-9.59l.07-1.21c-1.08.12-2.16.22-3.21.31-1.27.11-2.99.16-4.62.24l.26-4.73c1.59.08,2.85.06,4.49-.08,1.05-.09,2.16-.22,3.28-.34.08-1.55.1-2.97.08-3.8-.02-.77-.15-1.77-.25-2.26l5.4-.46c-.17.78-.24,1.59-.31,2.31Z"/><path class="cls-1" d="M349.89,278.65c2.92-.5,7.6-1.27,13.28-2.24,3.1-.51,6.76-1.04,9.01-1.32l-.23,4.82c-1.61.17-4.23.39-5.95.88-3.38,1.03-6.44,4.89-6.64,8.58-.25,4.55,3.92,5.98,9.24,5.83l-2.04,5.35c-6.86.06-12.55-3.18-12.2-9.77.23-4.24,2.66-7.71,4.41-9.37-2.67.51-8.14,1.59-11.89,2.74l-.19-5.07c1.24-.14,2.6-.31,3.19-.43ZM369.61,286.82l-2.81,1.44c-.74-1.72-1.21-2.7-2.12-4.04l2.75-1.34c.71,1.08,1.69,2.84,2.18,3.94ZM373.34,284.9l-2.79,1.53c-.8-1.69-1.34-2.6-2.28-3.9l2.72-1.43c.74,1.05,1.79,2.74,2.35,3.8Z"/><path class="cls-1" d="M380.03,277.15c.07-1.24.03-2.84-.15-3.99l5.84-.5c-.19,1.19-.45,2.56-.53,4.05l-.23,4.24c4.1.85,9.98,2.54,12.5,3.58l-2.41,5.41c-3.03-1.34-7.17-2.62-10.38-3.52l-.43,7.95c-.05.84,0,3.26.09,4.64l-5.87.5c.29-1.35.55-3.44.62-4.7l.96-17.67Z"/><path class="cls-1" d="M403.9,292.14l.88-16.28c.07-1.36-.03-2.86-.19-3.86l5.87-.5c-.29,1.44-.48,2.57-.55,3.93l-.82,15.26c4.61-1.78,11.56-6.25,15.83-11.36l2.42,4.04c-4.63,5.48-11.28,9.65-18.45,12.73-.47.19-1.29.51-2.18,1.17l-3.38-2.79c.48-.97.55-1.56.59-2.33Z"/><path class="cls-1" d="M435.84,278.48l16.4-1.4c1.39-.12,2.91-.4,3.81-.54l-.32,5.91c-.8.04-2.52.03-3.79.14l-16.4,1.4c-1.76.15-4.08.44-5.35.64l.32-5.91c1.23-.01,3.82-.11,5.33-.24Z"/><path class="cls-1" d="M464.5,284.38l17.29-1.48c1.11-.09,2.6-.31,3.75-.54l-.31,5.73c-1.2-.02-2.77.02-3.72.1l-17.29,1.48c-1.27.11-3,.35-4.24.58l.31-5.73c1.29-.02,2.95-.04,4.22-.15ZM467.6,269.14l12.54-1.07c1.3-.11,2.75-.33,3.66-.53l-.29,5.45c-.92.05-2.52.09-3.64.19l-12.51,1.07c-1.23.11-2.88.31-3.99.46l.29-5.45c1.2.05,2.86-.03,3.94-.12Z"/><path class="cls-1" d="M501.36,280.24c5.73-3.69,10.16-8.85,12.46-13.39l2.62,5.04c-2.71,4.61-7.32,9.28-12.65,12.75-3.25,2.13-7.35,4.08-11.27,5.03l-2.91-4.68c4.57-1.01,8.63-2.74,11.75-4.76ZM502.96,270.03l-4.04,4.26c-1.54-1.66-5.25-4.73-7.38-6.12l3.76-4.11c2.05,1.27,5.92,4.15,7.67,5.97Z"/><path class="cls-1" d="M543.66,262.49l-2.43,1.19,3.04,1.68c-.44.71-.98,1.69-1.34,2.64-.97,2.64-2.86,6.87-5.89,10.61-3.19,3.94-7.08,7.1-13.02,9.98l-4.23-3.58c6.78-2.61,10.13-5.52,12.92-8.68,2.06-2.33,3.98-6.04,4.49-8.08l-7.69.66c-2.34,2.94-5.23,5.84-8.18,8.06l-4.03-2.77c5.65-3.84,8.35-7.77,10.13-10.51.6-.91,1.43-2.59,1.84-3.82l5.37,1.33c-.76,1.05-1.57,2.38-2.08,3.23l4.97-.42c.93-.08,2.04-.3,2.86-.58-.52-1.16-1.21-2.58-1.87-3.54l2.97-1.42c.71,1.08,1.68,3,2.18,4.03ZM547.57,260.64l-2.97,1.49c-.55-1.22-1.44-2.96-2.21-4.06l2.97-1.42c.74,1.11,1.74,2.99,2.21,4Z"/><path class="cls-1" d="M560.81,260.25c2.79-.39,5.73-.89,8.35-1.58l-.27,4.33c-2.89.62-6.7,1.22-9.98,1.62-.44.84-.89,1.65-1.32,2.3.63-.24,2.21-.5,3.07-.57,1.82-.16,3.26.46,3.99,1.82,1.27-.69,2.31-1.18,3.41-1.77,1.39-.7,2.69-1.4,4.05-2.16l1.59,4.18c-1.1.4-3.08,1.28-4.28,1.84s-2.74,1.28-4.42,2.13c-.06,1.7-.11,3.77-.16,5.16l-4.45.38c.11-.81.23-1.96.32-3.14-2.01,1.31-2.9,2.4-2.96,3.64-.07,1.3.86,1.74,3.76,1.5,2.75-.23,6.29-.91,9.04-1.73l-.42,4.84c-1.9.44-5.9,1.06-8.95,1.32-5.06.43-8.64-.59-8.41-4.7.22-4.05,4.03-6.94,7.56-9.02-.44-.46-1.08-.55-1.66-.5-1.58.13-3.54,1.32-4.65,2.46-.98,1.04-1.93,2.23-3.06,3.74l-3.82-2.66c3.04-2.85,5.37-5.57,7.04-8.55-1.27.11-3.52.24-5.15.22l.23-4.33c1.53.12,3.87.04,5.54-.1l1.2-.1c.34-1.17.59-2.36.71-3.42l4.92-.02c-.16.69-.43,1.67-.83,2.87Z"/><path class="cls-1" d="M138.7,335.81l-4.32.37c.4.58.77,1.17.99,1.67l-3.95,1.35,5.87-.5-.91,16.87c-.11,1.95-.53,3.03-1.8,3.76-1.27.76-2.94.96-5.22,1.12-.05-.77-.3-1.82-.59-2.72l-7.41.63-.06,1.05-4.01.34.54-9.9,11.86-1.01-.42,7.83c.99-.05,1.98-.17,2.32-.2.46-.04.62-.18.65-.61l.45-8.23-7.97.68.46-8.57,6.14-.52c-.3-.71-.89-1.77-1.52-2.64l-1.2.1c-.76,1.02-1.58,1.92-2.32,2.63-.92-.57-2.78-1.39-3.84-1.74l.48-.41-3,.26c.34.59.65,1.15.8,1.63l-3.95,1.42c-.18-.69-.65-1.7-1.15-2.55-.83,1.09-1.68,2.05-2.49,2.86-.83-.64-2.52-1.66-3.51-2.1,1.99-1.65,3.88-4.15,4.96-6.49l4.11.79c-.21.42-.42.87-.65,1.29l6.14-.52-.13,2.35c1.4-1.48,2.6-3.24,3.34-5l4.2.69c-.21.45-.45.93-.69,1.38l8-.68-.18,3.34ZM123.33,348.42l-7.94.68-.68,12.59-4.04.35,1.14-21.17,11.98-1.02-.46,8.57ZM119.45,346.29l.03-.65-3.92.33-.03.65,3.92-.33ZM115.72,343.04l-.03.62,3.92-.33.03-.62-3.92.33ZM125.4,355.64l.05-.9-3.92.33-.05.9,3.92-.33ZM121.7,351.89l-.05.87,3.92-.33.05-.87-3.92.33ZM132.79,345.15l.04-.65-3.95.34-.03.65,3.95-.34ZM132.98,341.56l-3.95.34-.03.62,3.95-.34.03-.62Z"/><path class="cls-1" d="M168.42,352.3l-11.89,1.02-.26,4.83-4.63.4.26-4.83-11.7,1,.22-4.15,11.7-1,.08-1.55-9.05.77.73-13.49,2.44-.21c-.56-1.09-1.41-2.37-2.19-3.36l3.98-2.07c1.04,1.17,2.3,2.88,2.85,4.07l-2.09,1.13,4.79-.41c-.46-1.16-1.3-2.66-2.07-3.8l4.1-1.89c.98,1.3,2.11,3.08,2.59,4.34l-2.46,1.16,4.23-.36c1.1-1.63,2.33-3.86,3.01-5.62l4.96.99c-1,1.5-2,2.94-2.9,4.19l1.95-.17-.73,13.49-9.51.81-.08,1.55,11.89-1.02-.22,4.15ZM152.41,344.37l.08-1.42-4.66.4-.08,1.42,4.66-.4ZM152.75,338.15l-4.66.4-.08,1.42,4.66-.4.08-1.42ZM162,342.13l-4.88.42-.08,1.42,4.88-.42.08-1.42ZM162.26,337.34l-4.88.42-.08,1.42,4.88-.42.08-1.42Z"/><path class="cls-1" d="M194.38,333.2c-1.14,2.38-2.95,5.61-5.1,8.57,2.85,2.34,6.35,5.96,7.93,7.92l-4.49,4.11c-1.82-2.65-4.29-5.39-6.92-7.85-3.42,3.65-7.64,7.12-11.79,9.42l-3.67-3.72c5.1-2.25,10.19-6.48,13.1-9.77,2.13-2.46,3.95-5.33,4.7-7.36l-9.6.82c-1.39.12-3.1.45-3.97.59l.29-5.32c1.07.06,3.04-.01,3.94-.09l10.31-.88c1.54-.13,3.01-.47,3.73-.78l2.94,2c-.3.43-1.01,1.56-1.39,2.37Z"/><path class="cls-1" d="M215.28,328.65l5.13-.44c1.02-.09,2.26-.35,3.08-.66l3.64,2.03c-.44.72-.95,1.68-1.34,2.64-.93,2.36-2.58,5.64-4.87,8.86,1.28.85,2.43,1.64,3.26,2.25l-3.81,4.58c-.76-.67-1.82-1.54-3.03-2.45-2.8,2.98-6.34,5.78-11,7.93l-4.15-3.4c5.4-2.12,8.77-4.72,11.27-7.28-1.78-1.2-3.53-2.32-4.87-3.09l3.52-3.72c1.38.71,3.11,1.67,4.83,2.7,1.47-2.1,2.76-4.49,3.25-6.13l-7.94.68c-2.41,3.13-5.54,6.36-8.55,8.62l-3.88-2.78c5.65-3.84,8.55-8.09,10.33-10.83.6-.91,1.43-2.59,1.84-3.82l5.31,1.21c-.73,1.02-1.51,2.29-2.01,3.13Z"/><path class="cls-1" d="M235.19,333.94l16.4-1.4c1.39-.12,2.91-.4,3.81-.54l-.32,5.91c-.8.04-2.52.03-3.79.14l-16.4,1.4c-1.76.15-4.08.44-5.35.64l.32-5.91c1.23-.01,3.82-.11,5.33-.24Z"/><path class="cls-1" d="M263.83,325.39c.07-1.24.03-2.84-.15-3.99l5.84-.5c-.19,1.19-.45,2.56-.53,4.05l-.23,4.24c4.1.85,9.98,2.54,12.5,3.58l-2.41,5.41c-3.03-1.34-7.17-2.62-10.38-3.52l-.43,7.95c-.05.84,0,3.27.09,4.64l-5.87.5c.29-1.35.55-3.44.62-4.7l.96-17.67Z"/><path class="cls-1" d="M287.35,341.28c.1-1.83,1.49-3.21,3.32-3.36,1.82-.16,3.08,1,2.98,2.83-.1,1.83-1.5,3.27-3.32,3.43-1.85.16-3.08-1.06-2.98-2.89ZM288.48,326.03l.09-5.12,6.05-.52-.46,5.15-1.46,9.86-3.83.33-.4-9.7Z"/><path class="cls-1" d="M302.79,339.96c.1-1.83,1.49-3.21,3.32-3.36,1.82-.16,3.08,1,2.98,2.83-.1,1.83-1.5,3.27-3.32,3.43-1.85.16-3.08-1.06-2.98-2.89ZM303.92,324.71l.09-5.12,6.05-.52-.46,5.15-1.46,9.86-3.83.33-.4-9.7Z"/><path class="cls-3" d="M82.29,425.99l1.46-27.07,27.01-2.31-1.46,27.07-27.01,2.31Z"/><path class="cls-1" d="M140.89,400.39c-2.39,3.81-6.64,9.04-10.77,12.72,1.58,1.53,3.14,3.24,4.27,4.56l-4.61,3.9c-1.26-1.71-3.75-4.48-5.68-6.38-1.69-1.64-4.45-4.06-6.32-5.28l4.13-3.56c1.24.88,2.96,2.15,4.69,3.6,3.06-2.66,5.73-5.97,7.25-8.47l-15.28,1.31c-1.27.11-3.13.45-3.81.6l.28-5.26c.79.09,2.73.11,3.78.02l16.4-1.4c1.39-.12,2.63-.38,3.42-.69l3.54,2.75c-.53.63-.98,1.13-1.28,1.59Z"/><path class="cls-1" d="M153.7,403.88l-2.98,4.44c-1.81-1.14-4.82-2.91-6.95-3.9l2.94-4.38c2.16.99,5.32,2.78,6.98,3.84ZM155.18,410.62c5.47-3.39,10.15-8.14,12.83-12.8l2.59,4.89c-3.2,4.62-7.83,8.86-13.11,12.24-3.25,2.03-7.87,4.03-10.55,4.69l-2.54-4.71c3.52-.89,7.18-2.12,10.77-4.31ZM158.9,396.35l-3,4.38c-1.79-1.08-4.83-2.82-6.92-3.84l2.94-4.38c2.1.99,5.29,2.78,6.98,3.84Z"/><path class="cls-1" d="M183.75,407.38c5.73-3.69,10.16-8.85,12.46-13.39l2.62,5.04c-2.71,4.61-7.32,9.28-12.65,12.75-3.25,2.13-7.35,4.08-11.27,5.03l-2.91-4.68c4.57-1.01,8.63-2.74,11.75-4.76ZM185.35,397.17l-4.04,4.26c-1.54-1.66-5.25-4.73-7.38-6.12l3.76-4.11c2.05,1.27,5.92,4.15,7.67,5.97Z"/><path class="cls-1" d="M210.48,394.56l-10.44.89.19-3.5,10.44-.89-.19,3.5ZM227.68,408.96c-.11,2.01-.48,3.28-1.67,4.08-1.18.84-2.7,1.06-4.86,1.25-.06-1.17-.47-3.16-.97-4.26,1.08,0,2.37-.14,2.81-.18.4-.03.53-.17.56-.6l1.07-19.71-8.89.76-.44,8.11c-.27,4.95-1.03,12.25-3.62,16.85-.61-.59-2.07-1.55-3.03-1.99l-.03.5-4.97.42-.06,1.18-3.46.3.58-10.74,8.43-.72-.45,8.26c1.91-4.04,2.33-9.53,2.55-13.71l.64-11.88,17.08-1.46-1.27,23.55ZM201.06,400.54l8.37-.72-.18,3.34-8.37.72.18-3.34ZM209.48,398.9l-8.37.72.18-3.34,8.37-.72-.18,3.34ZM209.85,390.24l-8.09.69.18-3.34,8.09-.69-.18,3.34ZM205.39,407.96l-1.42.12-.14,2.63,1.42-.12.14-2.63ZM218.47,409.34l-.06,1.02-3.09.26.5-9.35,7.41-.63-.45,8.32-4.32.37ZM218.01,396.72l.09-1.58-1.95.17.17-3.22,1.95-.17.09-1.67,3.43-.29-.09,1.67,2.01-.17-.17,3.22-2.01.17-.09,1.58,2.1-.18-.17,3.22-7.53.64.17-3.22,2.01-.17ZM218.75,404.14l-.11,2.07,1.17-.1.11-2.07-1.17.1Z"/><path class="cls-1" d="M259.89,387.32l-4.42.38c.51.73.96,1.49,1.21,2.15l-2.14.98,4.48-.38-.69,12.69c-.1,1.95-.48,3.12-1.81,3.88-1.3.76-2.91.96-5.07,1.14-.09-1.19-.55-2.94-1.01-4.01,1.11-.03,2.62-.16,3.02-.2.43-.04.59-.17.61-.55l.46-8.54-3.8.32-.88,16.22-4.2.36,1.1-20.27.28-.02c-.89-.66-2.38-1.55-3.27-1.97.32-.27.62-.58.94-.88l-3.24.28c.39.71.72,1.42.87,2.02l-2.15,1.14,5.16-.44-.62,11.45-2.72.23c1.59,1.9,3.02,4.46,3.59,6.32l-3.81,2.17c-.16-.54-.37-1.2-.64-1.85-3.74.97-7.63,1.92-10.66,2.67l-.47-3.87c.65-.12,1.37-.27,2.12-.46l.84-15.6,1.02-.09c-.89-.63-2.32-1.43-3.19-1.85,2.03-1.77,3.94-4.59,5.06-7.24l4.11.76c-.25.54-.49,1.06-.76,1.61l6.24-.53-.14,2.63c1.41-1.63,2.62-3.61,3.37-5.56l4.17.72c-.21.54-.49,1.09-.76,1.64l7.97-.68-.18,3.25ZM238.39,392.21c-.29-.87-.79-1.87-1.32-2.81-.8,1.18-1.66,2.24-2.44,3.13l3.77-.32ZM239.39,406.6c-.34-.53-.68-1.05-1.06-1.51l3.29-1.76-5.13.44-.19,3.56,3.08-.73ZM236.68,400.46l4.01-.34.05-.9-4.01.34-.05.9ZM240.96,395.29l-4.01.34-.04.8,4.01-.34.04-.8ZM252.47,391c-.38-.89-1.03-1.98-1.72-2.9l-.65.06c-.83,1.24-1.73,2.36-2.6,3.27l4.97-.42Z"/><path class="cls-1" d="M275.33,384.89c-.08.41-.21,1.07-.38,1.94,2.1-.21,4.06-.56,5.3-.88l-.4,4.47c-1.71.33-3.29.59-5.76.8-.21,1.13-.4,2.31-.62,3.47h.03c1.76-.15,4.15-.51,6.07-.89l-.36,4.44c-1.52.28-3.29.56-5.14.72l-1.27.11c-.1.72-.17,1.34-.19,1.8-.13,2.32,1.3,3.31,4.05,3.07,4.11-.35,6.22-2.47,6.34-4.64.11-2.1-.96-3.83-2.74-5.56l5.31-1.56c1.86,2.55,2.64,4.67,2.49,7.3-.25,4.7-4.68,8.75-11.82,9.36-5.25.45-8.59-1.51-8.3-6.78.04-.68.15-1.71.34-2.89-2.15-.03-4.02-.21-5.54-.48l.49-4.54c1.91.48,3.87.69,5.77.71.19-1.16.4-2.34.62-3.5-2.06-.04-4.1-.27-5.81-.61l.45-4.32c1.7.44,3.87.62,6.08.62.13-.75.23-1.47.3-2.06.21-1.65.25-2.3.23-3.07l5.23-.17c-.38,1.33-.58,2.27-.79,3.15Z"/><path class="cls-1" d="M318.09,380.65l-1.38,25.44-4.79.41.08-1.45-13.74,1.17-.08,1.45-4.54.39,1.37-25.44,7.97-.68c.35-1.32.67-2.8.86-3.98l5.47.09c-.5,1.21-1.05,2.43-1.54,3.49l10.31-.88ZM312.24,400.9l.13-2.45-13.74,1.17-.13,2.44,13.74-1.17ZM298.98,393.07l-.13,2.41,13.74-1.17.13-2.41-13.74,1.17ZM299.33,386.54l-.13,2.38,13.74-1.17.13-2.38-13.74,1.17Z"/><path class="cls-1" d="M351.1,380.79s-.11,1.4-.13,1.92c-.92,12.55-1.39,17.21-2.46,18.75-.84,1.24-1.63,1.68-2.72,2.02-1,.3-2.42.42-3.9.52-.03-1.23-.42-3.01-1.07-4.16,1.23.02,2.28-.07,2.9-.12.46-.04.75-.19,1.08-.65.63-.85,1.07-4.5,1.73-13.79l-1.88.16c-.88,8.39-2.61,14.73-7.9,19.28-.36-.68-1.11-1.57-1.84-2.28-4.72.87-9.56,1.71-13.19,2.33l-.29-3.67c1.7-.24,3.78-.54,6.07-.89l.07-1.33-5.19.44.17-3.13,5.19-.44.04-.81-5.06.43.53-9.84,5.06-.43.04-.77-5.8.5.17-3.19,5.8-.5.04-.74c-1.67.24-3.34.44-4.92.6-.08-.89-.43-2.24-.79-3.07,4.64-.61,9.89-1.58,13.45-2.63l1.7,3.15c-1.62.48-3.46.88-5.39,1.26l-.06,1.08,5.59-.48-.17,3.19-5.59.48-.04.77,5.19-.44-.53,9.84-5.19.44-.04.81,5.37-.46-.17,3.13c2.11-3.26,2.94-7.27,3.43-12.28l-2.44.21.22-4.12,2.53-.22.34-6.28,4.29-.37c-.12,2.2-.23,4.3-.37,6.28l6.11-.52ZM327.92,392.23l.05-.93-1.54.13-.05.93,1.54-.13ZM326.56,388.89l1.54-.13.05-.93-1.54.13-.05.93ZM331.55,399.59l4.93-.79c.17-.23.33-.46.5-.72l-5.37.46-.06,1.05ZM333.53,390.82l-1.51.13-.05.93,1.51-.13.05-.93ZM332.2,387.49l-.05.93,1.51-.13.05-.93-1.51.13Z"/><path class="cls-1" d="M361.16,378.73c-.43,1.64-1.92,8.3-2.08,11.17,0,.09-.03.59,0,.71.48-.9.88-1.55,1.33-2.49l2.16,1.6c-1.08,2.9-2.22,6.38-2.65,8.14-.12.47-.25,1.22-.27,1.5-.02.34-.05.9-.04,1.39l-4.34.65c-.51-2.02-.91-5.87-.69-10.08.26-4.73,1.43-9.98,1.86-12.29.17-.94.47-2.35.56-3.53h5.19c-.32.72-.88,2.65-1.03,3.22ZM368.21,392.82c-.07,1.36,1.19,1.78,3.73,1.56,2.75-.23,4.98-.67,7.83-1.5l-.18,5.07c-2.06.55-4.51.97-8.15,1.28-5.4.46-7.98-1.32-7.8-4.63.07-1.33.33-2.65.78-4.29h4.24c-.27,1.02-.4,1.7-.44,2.51ZM379.82,375.84l-.26,4.83c-4.06.69-9.47,1.18-13.59,1.16l.23-4.79c4.02.15,10.14-.53,13.62-1.19Z"/><path class="cls-1" d="M390.34,384.86c-2.59.75-4.87,1.4-6.21,1.83l-.63-4.81c1.49-.31,4.14-.97,7.1-1.75l.21-3.9c.06-1.11.04-2.99-.06-3.94l5.56-.48c-.21.97-.46,2.84-.52,3.99l-.16,2.97c4.05-1.09,7.86-2.18,9.3-2.64,1-.33,1.85-.62,2.55-1.05l3.46,2.51c-.34.52-.9,1.37-1.25,2.02-1.47,2.71-4.74,7.43-6.91,9.58l-3.98-2.06c1.97-1.83,3.99-4.5,4.91-6.06-1.12.31-4.56,1.28-8.33,2.34l-.41,7.61c-.1,1.83.27,2.44,3.48,2.17,3.06-.26,6.79-1.04,9.88-1.92l-.43,5.09c-2.46.55-6.52,1.23-9.55,1.49-7.75.66-8.64-1.05-8.42-5.07l.43-7.92Z"/><path class="cls-1" d="M420.39,384.51l-4.66,2.09c-.43-1.63-1.7-5.55-2.45-6.97l4.6-2c.77,1.66,2,5.13,2.52,6.87ZM435.49,379.68c-.96,3.04-2.43,6.31-4.61,9.14-3.08,4.02-7.11,7.05-10.89,8.79l-3.7-3.69c3.32-1.12,7.95-3.85,10.69-7.32,2.18-2.74,3.86-7.08,4.34-10.94l5.19,1.25c-.5,1.24-.75,2-1.01,2.77ZM427.35,381.98l-4.56,1.93c-.35-1.51-1.45-5.05-2.19-6.71l4.52-1.83c.54,1.31,1.84,5.2,2.22,6.62Z"/><path class="cls-1" d="M442.05,376.59l20.23-1.73c.65-.06,2.2-.25,3.07-.48l-.26,4.86c-.83,0-2.13.09-3.05.17l-6.92.59c-.38,3.11-1.29,5.62-2.45,7.82-1.17,2.29-3.71,5-6.6,6.66l-4.21-2.78c2.11-.95,4.37-2.9,5.7-4.74,1.3-1.9,2-4.08,2.32-6.51l-8.06.69c-.9.08-2.26.25-3.12.39l.26-4.89c.95.04,2.15.03,3.11-.05ZM446.5,368.3l12.35-1.06c1.14-.1,2.44-.3,3.6-.55l-.26,4.8c-1.14.04-2.4.08-3.57.18l-12.35,1.06c-1.08.09-2.57.28-3.59.43l.26-4.8c1.04.07,2.52.03,3.57-.06Z"/><path class="cls-1" d="M476.75,376.03c3.16-2.12,6.56-5.27,8.27-7.45l3.51,3.33c-1.54,1.7-4.37,4.07-7.19,6.13l-.56,10.37c-.06,1.18-.13,3.03.05,3.69l-5.56.47c.13-.69.32-2.55.39-3.73l.4-7.43c-2.82,1.57-6.26,3.15-8.61,4.06l-1.95-4.21c4.06-1.18,8.77-3.58,11.26-5.24Z"/><path class="cls-1" d="M502.16,380.17c5.73-3.69,10.16-8.85,12.46-13.39l2.62,5.04c-2.71,4.61-7.32,9.28-12.65,12.75-3.25,2.13-7.35,4.08-11.27,5.03l-2.91-4.68c4.57-1.01,8.63-2.74,11.75-4.76ZM503.76,369.96l-4.04,4.26c-1.54-1.66-5.25-4.73-7.38-6.11l3.76-4.11c2.05,1.27,5.92,4.15,7.67,5.97Z"/><path class="cls-1" d="M544.46,362.42l-2.43,1.19,3.04,1.68c-.44.71-.98,1.69-1.34,2.64-.97,2.64-2.86,6.87-5.89,10.61-3.19,3.94-7.08,7.1-13.02,9.98l-4.23-3.58c6.78-2.61,10.13-5.52,12.92-8.68,2.06-2.33,3.98-6.04,4.49-8.08l-7.69.66c-2.34,2.94-5.23,5.84-8.18,8.06l-4.03-2.77c5.65-3.84,8.35-7.77,10.13-10.51.6-.91,1.43-2.59,1.84-3.82l5.37,1.33c-.76,1.05-1.57,2.38-2.08,3.23l4.97-.42c.93-.08,2.04-.3,2.86-.58-.52-1.16-1.21-2.58-1.87-3.54l2.97-1.42c.71,1.08,1.68,3,2.18,4.03ZM548.37,360.58l-2.97,1.49c-.55-1.22-1.44-2.96-2.21-4.06l2.97-1.42c.74,1.11,1.74,2.99,2.21,4Z"/><path class="cls-1" d="M550.65,380.47c.1-1.83,1.5-3.21,3.32-3.36,1.82-.16,3.08,1,2.98,2.83-.1,1.83-1.5,3.27-3.32,3.43-1.85.16-3.08-1.06-2.98-2.89ZM551.78,365.21l.09-5.12,6.05-.52-.46,5.15-1.46,9.86-3.83.33-.4-9.7Z"/><path class="cls-1" d="M124.51,436.19c-.08.87-.16,1.74-.26,2.55l4.94-.42c.77-.07,1.7-.24,2.58-.47l3.1,1.28c-.12.5-.29,1.41-.31,1.72-.32,3.57-1.17,12.05-2.65,15.41-.77,1.76-2.12,2.83-4.47,3.03-1.91.16-3.76.17-5.2.17l-.32-4.96c1.44.15,3,.21,4.17.11,1.05-.09,1.41-.49,1.76-1.29.83-1.77,1.56-7.19,1.74-10.56l-6.02.51c-1.53,7.92-4.61,13.08-10.55,17.69l-4.16-3.16c1.5-.93,3.25-2.22,4.76-3.83,2.84-3.01,4.31-6.34,5.07-10.29l-3.49.3c-.96.08-2.94.28-4.36.53l.26-4.89c1.41.03,3.17-.02,4.34-.12l3.86-.33c.07-.78.12-1.61.16-2.45.04-.68,0-2.25-.08-2.98l5.5-.47c-.13.75-.3,2.18-.37,2.93ZM134.86,436.35l-3,1.49c-.58-1.21-1.38-2.96-2.15-4.1l2.97-1.42c.71,1.08,1.68,3,2.18,4.03ZM138.77,434.51l-2.97,1.49c-.55-1.22-1.44-2.96-2.21-4.06l2.97-1.42c.74,1.11,1.74,2.99,2.21,4Z"/><path class="cls-1" d="M152.18,437.73c3.22-2.19,7.17-5.85,9.24-8.37l3.84,3.52c-2.44,2.46-5.56,5.13-8.6,7.33l-.66,12.19c-.08,1.49-.13,3.62.07,4.46l-5.93.51c.17-.85.41-3.02.49-4.51l.49-9.07c-3.2,1.84-7.03,3.74-10.66,5.07l-2.06-4.54c5.7-1.9,10.22-4.2,13.79-6.6Z"/><path class="cls-1" d="M171.83,433.71c.07-1.24.03-2.84-.15-3.99l5.84-.5c-.19,1.19-.45,2.56-.53,4.05l-.23,4.24c4.1.85,9.98,2.54,12.5,3.58l-2.41,5.41c-3.03-1.34-7.17-2.62-10.38-3.52l-.43,7.95c-.05.84,0,3.26.09,4.64l-5.87.5c.29-1.35.56-3.44.62-4.7l.95-17.67ZM187.68,433.9l-3.26,1.66c-.87-2.05-1.35-2.97-2.46-4.56l3.16-1.56c.85,1.31,1.95,3.13,2.56,4.46ZM192.1,431.61l-3.17,1.78c-.97-2.04-1.51-2.86-2.62-4.4l3.13-1.68c.89,1.25,2.05,3,2.66,4.3Z"/><path class="cls-1" d="M200.99,446.87c.94,1.86,2.76,2.48,5.65,2.35,3.85-.14,11.3-.87,15.92-1.67-.55,1.06-1.34,3.19-1.63,4.48-4.06.56-10.64,1.19-14.58,1.34-3.51.15-5.75-.46-7.45-2.66-1.39,1.26-2.81,2.49-4.61,3.94l-1.8-4.31c1.3-.82,2.8-1.78,4.18-2.82l.33-6.04-3.64.31.22-4.15,7.94-.68-.54,9.9ZM199.43,433.73c-.91-1.37-3.17-3.3-4.98-4.56l3.25-3.17c1.81,1.11,4.18,2.85,5.24,4.2l-3.51,3.53ZM207.4,448.23l-4.2.36.87-16.03,5.77-.49c-1.02-.37-2.08-.75-2.99-1.04l2.84-2.46-5,.43.18-3.34,13.71-1.17.88-.29,2.51,1.91c-1.53,1.52-3.43,3.16-5.38,4.59.57.23,1.11.46,1.56.67l3.67-.31-.67,12.32c-.09,1.73-.42,2.65-1.56,3.34-1.08.68-2.47.83-4.2.98-.1-1.07-.48-2.49-.89-3.4.71-.03,1.67-.11,1.94-.14.34-.03.44-.16.46-.47l.03-.59-2.69.23-.23,4.24-3.98.34.23-4.24-2.62.22-.24,4.36ZM210.43,440.46l.06-1.15-2.62.22-.06,1.15,2.62-.22ZM208.1,435.39l-.06,1.08,2.62-.22.06-1.08-2.62.22ZM210.19,428.53c.88.23,1.88.55,2.87.86.54-.39,1.09-.8,1.6-1.25l-4.48.38ZM217.1,439.89l.06-1.15-2.69.23-.06,1.15,2.69-.23ZM214.7,434.83l-.06,1.08,2.69-.23.06-1.08-2.69.23Z"/><path class="cls-1" d="M231.4,429.02c1.71-2.09,4.22-4.21,7.43-4.49,4.42-.38,7.74,3.59,7.36,10.58-.48,8.85-6.03,13.67-14.6,15.97l-2.6-4.12c7.01-1.68,11.72-4.08,12.11-11.42.25-4.7-1.2-6.74-3.4-6.55-3.52.3-6.81,5.97-7.03,10.06-.04.65-.06,1.61.02,2.96l-4.62.7c-.12-1.19-.23-3.15-.12-5.26.16-2.88.65-6.31,1.34-9.94.22-1.31.39-2.74.44-3.58l5.08-.22c-.37,1.11-1.16,3.79-1.42,5.3Z"/><path class="cls-1" d="M256.89,425.95c-.43,1.64-1.92,8.3-2.08,11.17,0,.09-.03.59,0,.71.48-.9.88-1.55,1.33-2.49l2.16,1.6c-1.08,2.9-2.22,6.38-2.65,8.14-.12.47-.25,1.22-.27,1.5-.02.34-.05.9-.04,1.39l-4.34.65c-.5-2.02-.91-5.87-.69-10.08.26-4.73,1.43-9.98,1.86-12.29.17-.94.47-2.35.56-3.53h5.19c-.32.72-.88,2.65-1.04,3.22ZM263.93,440.04c-.07,1.36,1.19,1.78,3.73,1.56,2.75-.23,4.99-.67,7.83-1.5l-.18,5.07c-2.06.55-4.51.97-8.15,1.28-5.4.46-7.98-1.32-7.8-4.63.07-1.33.33-2.65.79-4.29h4.24c-.27,1.02-.4,1.71-.44,2.51ZM275.55,423.06l-.26,4.83c-4.06.69-9.47,1.18-13.59,1.16l.23-4.79c4.02.15,10.14-.53,13.62-1.19Z"/><path class="cls-1" d="M284.12,423.66c.07-1.24.03-2.84-.15-3.99l5.84-.5c-.19,1.19-.45,2.56-.53,4.05l-.23,4.24c4.1.85,9.98,2.54,12.5,3.58l-2.41,5.41c-3.03-1.34-7.17-2.62-10.38-3.52l-.43,7.95c-.05.84,0,3.26.09,4.64l-5.87.5c.29-1.35.55-3.44.62-4.7l.96-17.67Z"/><path class="cls-1" d="M307.99,438.65l.88-16.28c.07-1.36-.03-2.86-.19-3.86l5.87-.5c-.29,1.44-.48,2.57-.55,3.93l-.82,15.26c4.61-1.78,11.56-6.25,15.83-11.36l2.42,4.04c-4.63,5.48-11.28,9.65-18.45,12.73-.47.19-1.29.51-2.18,1.17l-3.38-2.79c.48-.97.55-1.56.59-2.33Z"/><path class="cls-1" d="M339.93,424.99l16.4-1.4c1.39-.12,2.91-.4,3.81-.54l-.32,5.91c-.8.04-2.52.03-3.79.14l-16.4,1.4c-1.76.15-4.08.44-5.35.64l.32-5.91c1.23-.01,3.82-.11,5.33-.24Z"/><path class="cls-1" d="M368.59,430.89l17.29-1.48c1.11-.1,2.6-.31,3.75-.54l-.31,5.72c-1.2-.02-2.77.02-3.72.1l-17.29,1.48c-1.27.11-3,.35-4.24.58l.31-5.72c1.29-.02,2.95-.04,4.22-.15ZM371.69,415.65l12.54-1.07c1.3-.11,2.75-.33,3.66-.53l-.29,5.45c-.92.05-2.52.09-3.64.19l-12.51,1.07c-1.24.11-2.88.31-3.99.46l.29-5.45c1.2.05,2.86-.03,3.94-.12Z"/><path class="cls-1" d="M405.45,426.75c5.73-3.69,10.16-8.85,12.46-13.39l2.62,5.04c-2.71,4.61-7.32,9.28-12.65,12.75-3.25,2.13-7.35,4.08-11.27,5.03l-2.91-4.68c4.57-1.01,8.63-2.74,11.75-4.76ZM407.05,416.54l-4.04,4.26c-1.54-1.66-5.25-4.73-7.38-6.11l3.76-4.11c2.05,1.27,5.92,4.15,7.67,5.97Z"/><path class="cls-1" d="M447.75,409l-2.43,1.19,3.04,1.68c-.44.72-.98,1.69-1.34,2.64-.97,2.64-2.86,6.87-5.89,10.61-3.19,3.94-7.08,7.1-13.02,9.98l-4.23-3.58c6.78-2.61,10.13-5.52,12.92-8.68,2.06-2.33,3.98-6.04,4.49-8.09l-7.69.66c-2.34,2.94-5.23,5.84-8.18,8.06l-4.03-2.77c5.65-3.84,8.35-7.77,10.13-10.51.6-.91,1.43-2.59,1.84-3.82l5.37,1.33c-.76,1.05-1.57,2.38-2.08,3.23l4.97-.42c.93-.08,2.04-.3,2.86-.58-.52-1.16-1.21-2.58-1.87-3.54l2.97-1.42c.71,1.08,1.68,3,2.18,4.03ZM451.66,407.15l-2.97,1.49c-.55-1.22-1.44-2.96-2.21-4.06l2.97-1.42c.74,1.11,1.74,2.99,2.21,4Z"/><path class="cls-1" d="M469.21,406.49l-.02.34c2.87-.25,7.01-.66,8.62-.77l-.3,4.43c-1.82.06-4.72.25-8.61.55-.05,1.48-.13,3.06-.2,4.36.74,1.14,1.06,2.65.96,4.32-.21,3.96-3.07,9.56-10.9,12.33l-3.77-3.65c2.72-.79,5.32-1.75,7.22-3.33-.19.05-.37.06-.56.08-2.25.19-5.36-1.48-5.14-5.47.2-3.74,3.32-6.29,6.9-6.6.28-.02.52-.04.77-.04.03-.53.06-1.05.06-1.58-4.64.46-9.22,1.03-12.99,1.54l.12-4.48c3.58-.27,9.05-.87,13.04-1.27-.02-.12-.02-.24-.01-.34-.04-1.47-.1-2.61-.17-3.07l5.4-.46c-.12.6-.35,2.52-.41,3.08ZM462.87,420.92c.99-.08,2.08-.89,1.86-3.21-.37-.52-.94-.75-1.65-.69-.96.08-2.01.76-2.08,2.18-.06,1.11.89,1.8,1.87,1.72Z"/><path class="cls-1" d="M486.97,403.27c1.67-.14,7.85-.76,9.68-1.07,1.49-.25,2.36-.45,2.77-.61l2.14,3.11c-.83.56-1.66,1.1-2.46,1.72-1.79,1.32-4.63,3.78-6.4,5.23.81-.22,1.43-.31,2.17-.37,5.31-.45,9.3,2.59,9.04,7.27-.26,4.83-3.98,9.37-11.98,10.05-4.35.37-7.86-1.36-7.67-4.77.15-2.72,2.75-5.47,6.27-5.77,3.77-.32,6.06,1.67,6.42,4.56,1.28-.94,1.93-2.2,2.01-3.71.14-2.66-2.48-4.1-5.88-3.81-4.51.39-7.9,3.39-11.06,7.26l-3.21-3.24c2.06-1.72,5.84-5.09,7.74-6.76,1.81-1.57,4.8-4.04,6.35-5.5-1.55.16-4.73.56-6.41.82-.93.14-2.05.33-2.79.52l.11-4.85c.95.04,2.12,0,3.14-.08ZM491.2,424.41c.49-.04.96-.11,1.39-.18-.06-1.69-.93-2.72-2.23-2.61-1.02.09-1.64.76-1.67,1.38-.05.96.93,1.55,2.5,1.42Z"/><path class="cls-1" d="M520.31,402.83c-.04.16-.08.35-.15.54,1.62-.39,3.21-.83,4.8-1.33l-.25,4.67c-1.78.58-3.81,1.1-5.8,1.48-.38,1.36-.76,2.71-1.14,3.98-1.37,4.4-3.75,10.85-5.72,14.84l-5.12-1.32c2.02-3.22,4.81-10.02,6.19-14.42.22-.73.48-1.49.67-2.25-.53.08-1.05.12-1.55.16-1.61.14-2.78.18-3.82.2l.13-4.66c1.66.04,2.61.02,3.97-.09.83-.07,1.64-.17,2.47-.27.12-.47.2-.88.25-1.25.22-1.31.33-2.71.28-3.47l5.69-.06c-.3.98-.72,2.53-.91,3.25ZM523.21,419.03c-.07,1.3.84,2.02,3.56,1.79,2.07-.18,4.24-.61,6.64-1.21l-.44,4.78c-1.8.37-3.88.79-6.48,1.02-5.4.46-8.17-1.27-8-4.43.09-1.58.48-3.28.8-4.47l4.45.05c-.26.82-.5,1.86-.53,2.48ZM528.05,407.96c1.73-.15,3.58-.21,5.45-.19l-.33,4.5c-1.53-.05-3.44-.11-5.35.06-2.25.19-4.14.45-6.13.86l.24-4.36c1.8-.34,4.09-.69,6.13-.86ZM532.86,403.67l-3,1.49c-.58-1.21-1.38-2.96-2.14-4.1l2.97-1.42c.71,1.08,1.68,3,2.18,4.03ZM536.78,401.82l-2.97,1.49c-.55-1.22-1.44-2.96-2.21-4.06l2.97-1.42c.74,1.11,1.74,2.99,2.21,4Z"/><path class="cls-1" d="M544.83,400.64c-.8,2.9-2.26,9.34-1.81,12.41.44-.78,1.04-2.12,1.55-3.06l2.21,1.29c-1.18,3.03-2.09,6.18-2.59,8.11-.15.51-.28,1.26-.3,1.6-.02.34-.02.93-.02,1.42l-4.22.76c-.61-1.8-1.51-6.19-1.3-9.99.28-5.11,1.06-9.92,1.6-12.46.2-.94.3-2.12.38-3.02l5.5.05c-.36.89-.79,2.19-.99,2.89ZM560.76,398.2c-.06.62-.14,2.01-.22,3.56,1.67-.27,3.23-.55,4.41-.84l-.29,4.86c-1.18.19-2.7.42-4.37.65l-.08,1.42c-.4,7.4-1.49,11.65-7.63,16.11l-4.14-3.03c1.36-.7,3.12-1.96,4.1-3.12,1.94-2.38,2.78-4.8,3.04-9.59l.06-1.21c-1.08.12-2.16.22-3.21.31-1.27.11-2.99.16-4.62.24l.26-4.73c1.59.08,2.85.06,4.49-.08,1.05-.09,2.16-.22,3.28-.34.08-1.55.1-2.97.08-3.79-.02-.77-.15-1.77-.25-2.26l5.4-.46c-.16.78-.24,1.59-.31,2.31Z"/><path class="cls-1" d="M569.51,417.17c.1-1.83,1.49-3.21,3.32-3.36,1.82-.16,3.08,1,2.98,2.83-.1,1.83-1.5,3.27-3.32,3.43-1.85.16-3.08-1.06-2.98-2.89ZM570.64,401.92l.09-5.12,6.05-.52-.46,5.15-1.46,9.86-3.83.33-.4-9.7Z"/><polyline class="cls-4" points=".44 170.78 728.46 107 609.04 535.73"/><path class="cls-1" d="M586.72,472.76c2.11-.65,4.35.55,4.99,2.67l17.82,58.55,45.52-40.9c1.64-1.48,4.18-1.35,5.65.29s1.32,4.19-.3,5.66l-50.19,45.1c-1.02.91-2.43,1.24-3.75.88-1.32-.37-2.36-1.39-2.75-2.69l-19.65-64.55c-.23-.76-.22-1.53-.03-2.24.35-1.27,1.33-2.35,2.69-2.76Z"/><path class="cls-1" d="M36.84,579.45c-.21.36-.43.71-.64,1.1-1.39,2.24-1.78,3.23-1.78,4.51,0,1.49.82,2.31,2.7,2.67,1.1.25,3.66.39,6.01.39,2.99,0,7.96-.25,12.9-.64v6.89l-3.8.04-6.54.07c-2.38.04-7.21-.11-8.6-.21-3.59-.36-5.83-1.35-7.61-3.38-1.17-1.39-1.78-2.91-1.78-4.51s.36-2.81,2.24-6.93h6.89ZM54.86,564.77v6.08l-24.2.21v-6.04l24.2-.25Z"/><path class="cls-1" d="M66.94,574.69h-4.48v-5.51h4.48v-5.54h5.65v9.95c.75-.53,1.31-.96,1.71-1.21.57-.46,1.17-.89,1.78-1.31,2.63-1.95,4.76-2.81,7.18-2.81,2.13,0,3.59.64,4.73,2.13.85,1.14,1.35,2.77,1.35,4.55,0,.25-.04,1.24-.07,2.56l-.32,7.75-.04.43c-.07,1,.18,1.95.57,2.31.43.39,1.03.53,2.03.53.36,0,.89,0,1.92-.04v5.86c-1.24.04-2.67.07-3.09.07-3.38,0-5.05-.39-6.22-1.49-1.07-1.03-1.42-2.13-1.42-4.51v-.57l.28-9.84.04-.68c0-1.21-.04-1.6-.21-1.99-.21-.39-.75-.71-1.31-.71-.96,0-1.88.46-4.02,2.06-2.7,2.06-3.34,2.63-4.87,4.3v14.18h-5.65v-8.78c-1.24,1.24-1.88,1.92-2.84,3.06l-1.42,1.56c-.07.07-.32.36-.78.89v-8.17c3.38-3.59,3.41-3.66,5.05-5.51v-3.52Z"/><path class="cls-1" d="M103.26,568.25c.32-1.81.43-2.63.6-4.48h5.97c-.39,2.98-.43,3.16-.6,4.48h4.76v5.58h-5.86c-1.46,7.68-2.52,12.22-4.12,17.16h-5.93c2.31-7.29,2.7-8.85,4.37-17.16h-4.69v-5.58h5.51ZM117.72,568.18h10.52v5.65h-4.66v8.35c3.59,1.53,3.77,1.63,5.22,2.56v6.86c-2.45-1.85-3.23-2.31-5.05-3.2-.07,1.92-.32,2.91-1.14,4.09-1.35,1.99-3.66,3.06-6.72,3.06s-5.4-1.07-7.04-3.13c-.92-1.14-1.42-2.74-1.42-4.55,0-4.44,3.48-7.6,8.42-7.6.57,0,1,.04,1.85.21v-12.3ZM112.89,587.73c0,1.31,1.07,2.24,2.59,2.24s2.45-.89,2.45-2.35c0-1.28-.89-2.06-2.42-2.06s-2.63.89-2.63,2.17Z"/><path class="cls-1" d="M157.49,570.28c-8.6-.57-13.18-.75-18.73-.75h-3.87v-5.47c12.4.14,13.18.18,22.6.68v5.54ZM135.14,588.83h7.89q6.25,0,7.43-.11c2.27-.18,3.09-.46,3.7-1.21.53-.71.82-1.53.82-2.35,0-2.13-1.81-3.38-4.87-3.38-2.38,0-4.76.71-6.68,1.95-.89.57-1.49,1.1-2.63,2.38h-5.65v-14.39h6.11v7.68c4.69-2.35,7.25-3.09,10.34-3.09,6.04,0,10.27,3.59,10.27,8.78,0,3.62-1.74,6.68-4.73,8.28-1.56.85-3.16,1.21-6.22,1.35-1.49.07-2.63.07-7.85.07h-7.93v-5.97Z"/><path class="cls-1" d="M169.01,583.64c.04.85.07,1.63.07,1.99,0,1.85-.14,4.16-.39,6.65h-3.8c.46-2.49.64-4.87.6-8.64h3.52ZM173.66,563.17l-3.2,5.97.78,1.07,2.49-4.37h5.47l-4.76,8.17h3.06l1.31,2.7v3.09c-.04,1.24-.85,1.88-2.38,1.88h-1.53v13.79h-4.9v-13.79h-4.37v-4.62h1.71l1.31-2.24-2.81-3.3c-.36-.43-.53-.96-.53-1.56,0-.53.14-1.1.43-1.56l3.06-5.22h4.87ZM174.62,577.07l-.78-2.13-1.24,2.13h2.03ZM179.56,583.54v6.4c2.77-1.31,3.34-2.77,3.3-8.78h-3.09v-5.58h18.41v5.51h-3.41v8.24h1.07c.75.07,1.6-.46,2.42-1.49v5.86c-.85.75-1.92,1.07-3.23,1.07h-2.1c-2.38,0-3.23-.89-3.23-3.41v-10.45h3.27v-1.53h-8.07v1.53h3.06c0,4.98-.43,7.75-1.49,9.81-1.56,2.88-4.16,4.76-7.25,5.22v-4.58h-3.23v-7.82h3.59ZM179.67,564.77h6.43v-1.74h5.26v1.74h6.72v4.19h-6.72v1.17h6.04v4.34h-16.95v-4.34h5.65v-1.17h-6.43v-4.19Z"/><path class="cls-1" d="M222.99,563.99l-10.55,12.69c-.64.75-1.03,1.67-1.03,2.42s.18,1.03,1.35,2.45l10.87,13.18h-8.46l-8.6-10.87-1.49-1.78c-.71-.85-.96-1.63-.96-2.91,0-1.1.36-2.17.92-2.84l10.34-12.33h7.6Z"/><path class="cls-1" d="M243.39,563.1l-1.71,23.99h-5.47l-1.53-23.99h8.71ZM242.36,588.79v6.72h-6.89v-6.72h6.89Z"/><path class="cls-1" d="M258.38,588.83c-.57,2.81-1.1,4.48-1.99,6.43h-6.15c1.24-2.31,1.95-4.09,2.59-6.43h5.54ZM253.91,573.69v-2.35c-.96.71-1.17.89-2.56,1.67v-5.76c2.59-1.21,3.7-2.2,4.83-4.48h6.82c-.75,1.35-.85,1.53-1.6,2.56h20.86v4.94h-2.03v3.41h3.41v5.4h-3.41v3.48h2.03v5.01h-30.67v-5.01h2.31v-3.48h-3.45v-5.4h3.45ZM260.76,573.69v-3.41h-1.49v3.41h1.49ZM260.76,582.58v-3.48h-1.49v3.48h1.49ZM265.81,588.83c-.07,2.74-.18,4.02-.53,6.43h-5.83c.53-3.13.68-4.12.78-6.43h5.58ZM267.73,573.69v-3.41h-1.71v3.41h1.71ZM267.73,582.58v-3.48h-1.71v3.48h1.71ZM273.38,588.83c.21,1.6.71,4.66,1.1,6.43h-5.79c-.28-1.99-.32-2.35-.64-6.43h5.33ZM274.84,573.69v-3.41h-1.85v3.41h1.85ZM274.84,582.58v-3.48h-1.85v3.48h1.85ZM281.3,588.83c.32,1.39,1.46,4.3,2.52,6.43h-6.25c-.78-1.92-1.17-3.02-2.2-6.43h5.93Z"/><path class="cls-1" d="M286.21,565.09h11.3v5.01h-2.77v4.94h2.31v5.58h-2.31v4.8c1.03-.25,1.24-.32,2.56-.71v5.01h8.03v-2.1h-6.68v-4.66h6.68v-2.1h-6.57v-17.27h19.05v12.01c.07,3.73-1.46,5.26-5.15,5.26h-1.85v2.1h6.86v4.66h-6.86v2.1h8.14v4.94h-22.57v-4.23c-4.02,1.17-6.25,1.67-10.06,2.35v-6.01c1.6-.21,1.85-.25,3.16-.46v-5.69h-2.59v-5.58h2.59v-4.94h-3.27v-5.01ZM305.33,570.1v-1.67h-1.39v1.67h1.39ZM305.33,576.29v-1.67h-1.39v1.67h1.39ZM312.33,570.1v-1.67h-1.53v1.67h1.53ZM312.33,576.29v-1.67h-1.53v1.67h1.53Z"/><path class="cls-1" d="M322.14,570.49h5.54v-6.29h6.29v6.29h7.89v-6.22h6.22v6.22h5.47v5.33h-5.47v1.92c-.25,6.43-2.45,7.85-12.01,7.71v-5.97c.78.07,1.17.07,1.6.07,3.31,0,4.12-.53,4.12-2.59l-.04-1.14-7.75.04-.04,9.63c0,2.98.11,3.02,6.61,3.02,4.76,0,6.5-.11,10.52-.68v6.33c-6.33.18-6.82.18-8.92.18-7.32,0-9.81-.25-11.66-1.17-1.03-.5-1.95-1.53-2.42-2.7-.28-.75-.43-1.88-.43-3.52v-11.09h-5.54v-5.37Z"/><path class="cls-1" d="M372.53,567.93v-4.55h6.29v4.55l7.85-.04v5.15l-7.85.07v8.92c.04,4.94-.25,7.21-1.03,8.88-1.24,2.59-4.48,4.26-8.1,4.26h-7.82v-5.86h7.5c2.24-.18,3.27-1.17,3.34-3.2-1.67,1-2.49,1.24-4.05,1.24-1.74,0-3.62-.53-4.76-1.39-1.46-1.07-2.45-3.06-2.45-4.9,0-1.71.82-3.48,2.13-4.76,1.42-1.39,3.23-2.03,5.61-2.03,1.24,0,1.95.11,3.34.53v-1.6l-14.96.14v-5.29l14.96-.14ZM367.13,580.8c0,1.07,1.17,1.85,2.74,1.85,1.42,0,2.45-.75,2.45-1.85,0-1.03-1.1-1.78-2.59-1.78s-2.59.75-2.59,1.78ZM380.49,562.43h3.06v4.73h-3.06v-4.73ZM387.63,562.43v4.73h-3.09v-4.73h3.09Z"/><path class="cls-1" d="M390.69,565.09h11.3v5.01h-2.77v4.94h2.31v5.58h-2.31v4.8c1.03-.25,1.24-.32,2.56-.71v5.01h8.03v-2.1h-6.68v-4.66h6.68v-2.1h-6.57v-17.27h19.05v12.01c.07,3.73-1.46,5.26-5.15,5.26h-1.85v2.1h6.86v4.66h-6.86v2.1h8.14v4.94h-22.57v-4.23c-4.02,1.17-6.25,1.67-10.06,2.35v-6.01c1.6-.21,1.85-.25,3.16-.46v-5.69h-2.59v-5.58h2.59v-4.94h-3.27v-5.01ZM409.81,570.1v-1.67h-1.39v1.67h1.39ZM409.81,576.29v-1.67h-1.39v1.67h1.39ZM416.81,570.1v-1.67h-1.53v1.67h1.53ZM416.81,576.29v-1.67h-1.53v1.67h1.53Z"/><path class="cls-1" d="M435.29,583.89c-.64,3.41-1.17,5.26-2.7,9.77h-6.22c1.71-3.87,2.91-7.61,3.23-9.77h5.69ZM427.01,570.99v-4.83h4.94v-3.31h5.37v3.31h5.01v4.83h-4.62c2.74,1.92,3.13,2.2,4.51,3.34v6.65c-2.63-2.56-2.99-2.88-4.9-4.44v6.11h-5.37v-5.05c-2.74,2.7-3.13,3.06-5.3,4.19v-6.47c1.85-1.31,2.35-1.81,4.37-4.34h-4.02ZM442.22,583.22v6.5h10.31c3.62-.14,4.16-.28,6.47-1.88v5.79c-1.85,1.03-3.55,1.28-8.46,1.28h-8.6c-4.73-.11-5.44-.64-5.44-4.12v-7.57h5.72ZM458.46,563.31v15.25c-.04,3.09-.92,3.8-4.76,3.77h-10.23v-19.01h15ZM449.04,583.75l1.6,4.55h-5.51l-1.6-4.55h5.51ZM453.09,569.32v-1.6h-4.62v1.6h4.62ZM453.09,573.83v-1.6h-4.62v1.6h4.62ZM453.09,578.17v-1.49h-4.62v1.49h4.62ZM455.87,583.75l1.71,4.55h-5.54l-1.53-4.55h5.37Z"/><path class="cls-1" d="M471.25,578.1v4.3c0,3.59-.6,6.15-1.81,7.89-1.78,2.52-4.19,3.87-7.21,4.02v-6.11c2.17-.36,3.16-2.03,3.23-5.51v-4.58h5.79ZM463.19,569.6h11.94v-5.51h6.22v5.51h11.98v5.76h-11.98v19.51h-6.22v-19.51h-11.94v-5.76ZM490.41,578.1v4.73c0,2.95,1.1,4.55,3.77,5.3v6.18c-6.5-.68-9.45-4.12-9.49-11.02v-5.19h5.72ZM485.47,562.99h3.38v5.44h-3.38v-5.44ZM493.22,562.99v5.44h-3.34v-5.44h3.34Z"/><path class="cls-1" d="M498.4,574.79h30.24v5.54h-11.8v3.73c-.07,6.89-3.87,10.7-10.55,10.55h-6.15v-5.86h4.37c4.23.14,5.93-1.24,6.01-4.83v-3.59h-12.12v-5.54ZM520.83,565.87v2.81h5.44v2.63h-25.87v-5.44h20.43ZM521.79,562.18h3.38v5.4h-3.38v-5.4ZM529.64,562.18v5.4h-3.34v-5.4h3.34Z"/><path class="cls-1" d="M560.28,566.87v1.71c.11,3.52-1.07,5.22-4.55,6.75l-5.29,2.17v16.81h-6.08v-14.46l-11.37,3.98v-5.54l19.08-7.07c1.6-.71,2.06-1.35,2.1-3.09v-1.24h6.11Z"/><path class="cls-1" d="M570.44,571.17l.75-1.28c1.14-2.24,1.21-2.35,1.99-3.09,1.21-1.1,2.84-1.67,4.94-1.67,2.38,0,3.55.57,5.05,2.52.96,1.28,1.28,1.88,2.99,5.51l10.34,21.25h-7.46l-8.78-19.4c-1.35-2.91-1.56-3.2-2.52-3.2s-.92.04-2.7,3.62l-4.51,10.34h-7.25l7.18-14.61Z"/><path class="cls-1" d="M599.08,574.44h9.52v9.03c.11,5.26.64,5.65,7.18,5.65h15.81v5.44h-17.06c-5.22,0-7.21-.85-8.6-3.84-1.63,2.63-3.48,3.8-6.86,4.51v-6.47c2.45-.28,3.41-1.56,3.41-4.55v-4.41h-3.41v-5.37ZM600.26,563.63c4.16.75,5.86,1.14,9.03,2.03v5.83c-3.59-1-5.54-1.46-9.03-2.06v-5.79ZM612.37,564.13c8.39-.07,12.72-.35,17.7-1.17v5.47c-3.13.28-6.11.46-11.69.64v2.52h12.79v5.22h-4.09v11.3h-5.86v-11.3h-2.84c-.39,6.93-2.77,10.02-8.56,11.19v-6.04c2.06-1,2.49-1.95,2.56-6.22v-11.62Z"/><path class="cls-1" d="M650.22,567.12l2.42-.04c5.15,0,7.32.53,9.31,2.24,2.77,2.35,4.48,6.36,4.48,10.45,0,4.83-2.31,9.35-6.04,11.66-2.81,1.74-6.33,2.35-13.9,2.35h-8.71v-6.25h7.93c6.01,0,8.64-.25,10.27-1.03,2.38-1.1,3.87-3.84,3.87-7,0-2.52-1.1-4.69-2.74-5.44-1.14-.5-3.13-.75-6.11-.75h-.78l-14.75.36v-6.33l14.75-.21ZM662.62,562.46v5.15h-3.13v-5.15h3.13ZM666.82,562.46v5.15h-3.13v-5.15h3.13Z"/><path class="cls-1" d="M691.91,563.99l-10.55,12.69c-.64.75-1.03,1.67-1.03,2.42s.18,1.03,1.35,2.45l10.87,13.18h-8.46l-8.6-10.87-1.49-1.78c-.71-.85-.96-1.63-.96-2.91,0-1.1.36-2.17.92-2.84l10.34-12.33h7.6Z"/><path class="cls-1" d="M712.31,563.1l-1.71,23.99h-5.47l-1.53-23.99h8.71ZM711.28,588.79v6.72h-6.89v-6.72h6.89Z"/><rect class="cls-2" x=".41" width="748" height="596"/></g></svg>